<?xml version="1.0"?>
<svg xmlns="http://www.w3.org/2000/svg" version="1.2" baseProfile="tiny" fill="#f9c113" width="800" height="791" viewBox="0 0 800 791" stroke-linecap="round" stroke-linejoin="round">
<g fill="#c0392b" id="id_10">
<path d="M 20.75 255.88 42.95 250.18 43.11 245.24 31.48 228.08 22.15 219.5 17.36 202.67 23.3 199.53 44.35 199.2 55.49 189.47 80.67 183.77 85.45 180.06 84.79 172.22 126.22 139.47 155.94 139.56 205.13 124.95 209.83 120.58 237.07 86.43 238.97 66.54 242.76 64.07 264.55 59.86 272.23 51.61 282.13 43.69 294.35 39.98 304.17 32.31 311.84 31.9 330.5 47.16 354.93 48.97 376.92 52 380.95 48.72 391.01 37.13 393.4 21.42 395.41 13.21 400.18 5.74 407.87 3.99 416.35 1 424.86 6.41 430.11 4.33 434.11 6.17 446.42 8.49 457.29 8.83 457.82 41.97 469.63 61.75 475.29 65.17 480.74 60.76 488.71 61.66 499.62 71.16 499.98 77.84 509.33 81.68 512.88 104.29 513 104.25 517.95 108.33 524.45 114.02 535.22 110.76 541.72 103.71 558.72 101.83 567.7 95.95 569.14 93.79 622.09 94.39 636.7 71.87 648.58 57.63 648.54 44.72 655.84 41.67 661.75 41.79 668.51 48.15 688.03 47.28 695.67 39.32 700.78 39.32 703.88 48.15 703.05 58.38 711.89 58.67 716.71 54.71 723.07 55.61 728.31 60.73 728.14 66.17 724.88 64.98 720.22 69.8 723.19 73.6 711.43 75.25 712.83 87.54 707.63 92.74 712.55 98.64 716.38 105.61 711.35 113.69 706.64 118.11 692.9 120.54 691.46 126.93 698.27 140.3 704.62 141.16 706.93 160.51 731.03 184.81 730.91 195.53 736.07 199.45 739.12 214.26 741.68 229.44 743.95 236.37 737.92 242.47 735.53 248.91 734.38 254.06 737.68 267.76 748.74 277.82 757.77 282.4 774.2 303.11 792.77 323.11 799 328.6 792.48 337.84 776.34 337.14 759.8 354.05 750.84 354.67 731.94 349.76 720.55 354.34 722.9 360.4 718.65 363.5 722.8 360.48 741.68 371.28 733.26 376.15 743.33 385.51 737.02 391.12 741.02 396.36 752.82 397.93 756.62 406.96 766.65 409.52 776.1 427.46 761.61 452.38 756.99 462.48 754.35 485.29 756.74 501.09 748.45 520.52 742.34 523.9 711.64 572.58 711.1 579.18 707.1 576.5 673.42 576.33 647.51 597.95 634.8 597.95 609.54 620.38 600.96 620.22 596.83 623.52 568.94 655.69 559.69 655.36 546.65 666.58 529.32 685.72 513.31 687.21 509.68 695.46 528.33 708.99 528 715.92 534.6 724.17 534.6 732.42 538.23 732.91 539.88 737.86 535.43 738.03 535.43 743.47 529.98 749.58 519.91 748.59 513.97 752.38 510.01 749.91 499.77 749.25 499.28 755.52 493.83 764.1 490.86 760.63 483.76 760.3 474.52 777.13 476 785.71 469.57 790 463.13 785.71 455.7 780.1 451.9 780.1 444.31 771.36 438.37 771.69 431.44 763.44 427.14 763.6 424.17 766.41 408.66 766.74 405.85 763.27 397.27 763.11 379.6 751.39 378.94 744.46 358.48 743.8 353.85 739.02 296.9 737.86 302.52 730.6 306.31 719.22 308.95 714.27 310.11 709.32 304.17 702.39 300.37 691.99 302.68 685.56 313.41 681.27 317.21 674.34 317.04 666.42 338.67 645.79 364.75 625 365.24 618.4 353.19 614.77 352.2 611.14 356.16 607.02 356.16 605.04 344.28 600.91 344.94 593.99 341.97 590.69 342.63 586.23 347.25 584.91 346.92 572.37 352.2 570.23 386.87 537.56 394.29 528.15 393.8 510.33 383.4 494.16 382.91 481.62 379.93 476.67 372.84 479.31 367.88 484.26 355.17 482.45 350.06 480.14 335.86 480.8 324.31 466.28 317.54 466.11 314.11 461.12 313.87 458.65 316.88 455.92 317.08 449.86 314.86 445.16 311.6 440.99 311.6 432.96 304.33 425.04 270.82 425.04 262.24 419.26 245.32 405.9 238.14 392.12 232.36 392.21 230.42 389.57 216.64 389.15 211.48 386.35 207.81 389.07 198.61 388.62 179.54 383.3 184.35 376.73 179.52 383.3 174.9 381.32 167.14 381.65 153.94 386.1 142.88 383.3 129.84 386.6 111.18 389.07 105.57 397.49 99.96 399.3 89.39 391.88 80.98 392.37 77.51 389.4 76.52 383.63 72.23 383.79 62.65 376.04 45.65 374.72 26.5 364.82 19.74 353.43 22.54 352.44 22.38 346.67 25.02 342.38 26.17 335.94 22.21 331.32 24.85 327.03 27.91 309.71 18.33 301.46 12.72 301.7 1.25 294.03 1 286.2 16.95 277.49 20.75 255.88 Z"/>
</g>
</svg>