<?xml version="1.0"?>
<svg xmlns="http://www.w3.org/2000/svg" version="1.2" baseProfile="tiny" fill="#f9c113" width="800" height="800" viewBox="0 0 800 800" stroke-linecap="round" stroke-linejoin="round">
<g fill="#c0392b" id="id_138">
<path d="M 355.3 219.2 342.26 199.05 339.33 214.85 340.13 225.61 334 235.23 328.15 230.65 325.49 224.46 315.37 218.97 314.84 210.04 316.17 199.97 316.7 194.48 304.19 194.25 297 177.31 328.68 161.52 344.12 170.9 355.57 168.61 363.29 163.58 367.28 165.41 365.68 182.57 376.6 183.72 382.99 169.53 407.21 152.14 427.18 151.22 434.63 127.2 441.82 125.37 452.46 131.55 451.4 140.24 460.45 144.13 461.78 153.51 473.49 154.66 470.83 144.36 471.1 135.21 496.39 137.27 503.57 140.7 512.63 127.2 499.85 120.79 499.58 108.21 486.8 108.44 479.62 98.15 479.88 84.88 466.57 94.03 453 95.4 440.22 88.54 420.79 90.14 436.49 74.82 461.52 62.93 472.96 62.47 488.67 56.53 500.38 46.7 527 46.24 522.21 33.44 530.46 25.89 512.63 24.98 518.75 14.23 517.4 1.53 527.49 1 538.65 1 548.75 6.84 555.12 11.09 555.12 18 557.78 22.78 562.03 15.35 570.54 14.28 574.79 7.38 581.16 4.72 590.73 4.19 594.45 11.09 594.45 18.53 592.85 25.44 592.85 32.88 607.73 40.85 614.64 48.29 630.05 51.48 647.58 52.54 666.71 55.19 673.62 65.82 677.87 80.17 680 92.92 677.34 103.55 673.62 108.86 683.18 116.3 694.87 123.74 706.03 133.83 713.47 143.92 724.63 152.43 733.66 157.74 734.73 169.43 738.45 180.05 738.45 193.87 752.26 196.53 759.7 206.09 762.36 217.25 771.39 227.34 779.36 232.12 789.99 244.88 797.1 252.5 799 254.9 797.13 255.3 794.44 255.6 794.35 258.51 792 261.68 789.41 265.03 788.1 266.06 784.69 266.2 783.56 268.66 782.01 271.24 781.21 272.54 780.94 273.65 779.34 275.43 774.7 278.86 771.11 280.25 767.43 281.38 762 283.25 759.51 284.41 748.82 276.72 745.32 274.33 746.87 277.61 745.95 281.99 744.34 288.98 736.65 291.13 734.76 299.99 732.34 311.21 719.56 300.05 714.61 295.65 706.62 302.49 702.15 306.35 706.99 306.78 710.32 306.99 711.09 312.48 710.17 316.63 709.54 317.63 705.65 318.89 701.2 320.47 703.31 327.16 705.83 334.99 702.62 339.48 704.7 343.8 707.73 347.27 710.38 350.64 696.11 362.79 687.84 369.88 678.75 377.78 675.33 380.79 671.29 384.3 675.33 388.09 679.55 392.14 680.13 392.96 683.7 392.27 686.07 391.91 688.48 391.62 690.11 391.45 691.46 391.26 693.24 391.48 695.21 391.5 694.64 392.56 693.56 394.4 692.59 396.23 691.51 397.9 690.53 399.56 688.23 403.03 686.56 405.45 685.8 406.64 685.03 407.93 683.61 409.99 681.87 413.4 680.23 415.94 679.45 415.76 678.05 417.27 677.74 417.87 676.91 418.93 675.58 420.44 674.59 421.7 673.05 423.57 672.04 424.85 669.71 427.89 668.62 426.96 666.29 428.62 662.64 430.85 660.46 431.81 657.65 432.99 655.63 433.41 653.53 433.73 651.37 434 649.2 433.71 646.93 430.91 643.83 427.22 641.26 421.76 641.11 419.04 641.45 416.01 641.41 415.02 640.48 410.9 639.19 408.26 638.84 407.77 637.71 406.66 636.71 405.4 635.83 404.79 635.28 404.59 624.29 400.9 623.91 404.52 622.63 415.84 613.05 422.42 608.9 422.79 606.43 423.09 603.18 423.58 586.77 413.15 586.47 418.38 585.86 425.35 585.49 430.4 590.59 434.32 597.82 439.89 595.98 439.92 593.3 439.9 591.61 439.94 583.85 439.85 579.86 439.81 574.78 439.84 569.86 439.81 560.47 439.81 557.18 442.96 545.72 453.85 544.54 455.77 541.37 461.05 537.47 467.48 534.09 470.06 530.72 472.66 526.28 475.92 520.6 480.19 523.89 483.68 526.37 486.43 528.77 489.16 528.95 493.33 528.01 496.01 527.5 497.26 526.99 498.78 525.99 502.59 525.66 503.51 523.91 507.49 522.31 511.31 521.58 514.33 521.44 515.68 521.23 519.11 517.65 518.56 511.46 517.57 509.85 517.3 507.43 516.7 503.49 514.74 502.01 514.16 502.21 513.76 500.73 511.74 498.94 509.71 497.51 508.91 498.01 506.74 498.36 504.69 498.39 502.93 496.12 502.97 496.83 498.81 497.28 495.04 497.69 491.14 498.11 487.51 498.33 485.01 498.45 483.39 498.71 481.45 497.86 481.31 497.23 481.16 496.5 480.95 495.94 480.8 495.28 480.51 493.79 479.95 492.99 479.77 492.45 479.57 491.77 479.16 487.09 476.53 483.78 474.66 480.69 472.81 479.27 476.75 478.54 479.25 478.2 480.98 478.01 481.78 477.7 482.71 477.53 483.51 477.31 484.99 477.05 486.13 476.79 487.48 476.39 489.43 475.69 492.61 476.22 497.96 476.89 504.32 471.6 506.21 475.14 511.56 476.63 513.94 478.95 517.01 480.01 518.65 482.09 521.45 484.81 525.01 484.74 526.45 484.48 528.87 484.52 530.2 484.64 531.18 484.24 534.85 477.05 538.92 469.5 543.16 473.24 544.03 477.53 545.01 483.91 546.52 487.77 546.46 492.67 546.26 498.2 546.02 501.41 545.78 504.75 544.53 513.79 541.02 515.62 540.47 526.62 541.51 530.17 539.42 530.46 539.11 530.71 538.73 530.9 538.35 531.08 537.88 531.56 536.45 532.13 536 533.2 535.5 533.99 535.49 534.49 535.84 534.45 536.24 533.42 537.88 532.5 539.32 531.78 540.39 528.67 545.17 526.18 548.99 525.09 550.59 524.12 552.36 523.73 554.75 523.39 556.64 522.98 558.5 522.55 560.89 522.13 562.73 521.49 563.38 519.78 564.13 518.04 564.9 514.07 566.61 512.74 567.09 511.81 567.37 511.07 567.63 509.41 568.27 507.97 568.87 506.74 569.44 504.31 570.66 503.38 571.15 502.49 571.68 501.66 572.26 500.82 572.87 500.01 573.55 498.81 574.6 497.83 575.49 496.92 576.33 496.43 576.97 496.25 577.39 496.26 577.8 495.44 578.67 494.55 579.28 493.75 580.68 493.15 581.86 492.99 582.26 490.95 585.16 490.25 586.17 489.19 587.63 487.88 589.52 487.3 590.39 486.42 591.4 485.61 592.19 484.99 592.71 484 593.47 482.76 594.25 480.64 595.27 479.51 595.7 478.12 596.19 476.17 596.48 473.82 596.73 471.91 596.9 470.45 597.08 467.36 597.62 465.52 598.25 464.53 598.78 463.82 599.26 463.05 599.9 462.32 600.48 461.29 601.37 460.73 601.96 460.14 602.7 459.48 603.9 458.61 605.74 458.11 607.47 457.49 609.76 456.82 612.3 456.37 613.67 456 615.13 455.79 615.76 455.62 616.34 454.46 617.51 452.43 619.26 452.66 619.58 452.81 619.93 452.77 620.06 452.34 620.55 452.11 620.76 451.75 620.97 451.34 620.99 450.78 620.68 448.53 622.65 442.71 627.62 439.87 630.12 439.03 630.77 438.3 631.14 435.07 632.53 434.7 632.78 434.53 633.74 434.3 633.89 433.82 634 432.72 633.94 432.13 633.78 423.23 637.64 423.02 638.38 422.63 639.14 421.9 639.26 420.21 638.2 416.76 640.21 413.47 641.94 412.85 642.61 411.85 642.1 411.32 641.85 406.83 649.47 405.43 651.81 408.61 653.61 414.45 655.98 415.8 656.39 416.94 656.61 419.78 657.88 421.58 658.67 425.41 660.44 426.79 661.25 429.09 662.4 431.48 663.56 434.63 665.36 436.75 666.45 440.39 670.32 444.26 674.68 446.42 677.22 446.09 677.49 427.96 693.05 401.91 710.42 391.49 715.2 383.24 722.15 378.02 730.83 370.64 736.47 366.73 729.09 354.14 718.24 345.89 712.16 326.35 706.95 307.24 701.3 297.69 701.74 285.97 703.91 275.11 709.99 264.25 715.63 263.38 724.32 268.6 738.21 263.82 747.33 256 753.41 253.4 762.09 242.11 762.96 223 777.29 209.54 780.33 198.68 779.03 186.09 771.64 170.89 773.38 154.39 776.86 141.36 778.16 133.98 774.25 131.38 766 121.39 764.26 107.93 765.57 99.68 774.25 93.16 778.59 88.82 785.97 79.7 795.53 72.75 799 70.15 790.75 71.45 785.11 72.75 779.03 73.62 774.25 71.88 766.44 63.25 764.51 62.54 743.37 62.54 726.72 61.82 707.17 61.82 652.15 71.23 646.36 84.98 644.19 87.16 632.6 84.98 624.64 77.75 616.68 69.78 609.44 69.78 609.39 69.74 609.36 68.32 592.61 52.4 589 45.27 589 40.2 588.77 40.27 588.84 34.31 588.44 29.96 600.75 15.48 606.54 1 602.2 6.79 590.61 12.58 575.41 23.44 569.62 28.19 559.61 29.94 555.82 36.19 553.89 45.89 550.8 61.82 549.35 69.78 537.04 65.44 516.05 72.68 504.47 74.85 495.06 73.78 494.19 64.8 486.62 60.36 483.33 59.64 482.75 53.13 492.16 51.68 479.13 66.89 468.99 57.47 467.54 47.34 465.37 41.58 468.44 36.48 471.29 33.46 469.86 33.43 469.9 27.79 467.54 15.48 466.82 16.2 456.69 9.69 449.45 8.59 448.85 14.96 442.08 26.34 426.89 39.79 410.84 52.23 389.98 59.02 385.56 75.06 384.07 72.26 392.44 72.86 402.64 83.64 414.45 92.63 412.1 111.26 411.76 123.57 422.99 124.77 447.35 116.58 454.12 120.05 458.48 119.71 472.75 132.56 479.75 147.93 479.98 158.51 484.62 168.16 484.11 173.88 472.93 184.33 479.92 192.65 478.89 202.7 490.7 210.15 483.53 225.33 483.19 236.31 491.62 243.43 491.33 248.22 485.48 257.34 490.99 270.12 485.6 264.79 473.21 270.58 462.55 257.27 460.08 249.55 461.57 238.5 478.32 231.98 472.93 218.67 469.54 221 450.22 213.81 436.63 204.36 431.7 196.78 441.39 181.21 439.79 185.4 428.38 159.98 407.8 183.87 404.71 181.94 384.76 173.88 378 171.95 367.63 195.71 374.1 206.43 384.13 213.88 400.29 220.14 405.16 228.79 397.03 237.51 397.2 237.44 376.8 249.69 378.63 258.47 363.91 272.31 360.41 279.1 353.31 271.45 330.74 261.33 330.39 261.07 337.95 253.88 337.72 254.14 345.97 240.7 340.99 238.5 349.24 230.72 345.06 224.46 346.09 219.07 340.13 217.21 310.17 231.85 294.2 223.46 287.27 215.55 281.94 219.94 267.34 215.28 256.18 219.87 244.9 217.94 231.39 227.92 226.41 224.53 220.8 215.88 217.37 212.28 207.12 216.54 200.77 229.65 187.15 241.9 199.74 246.96 201.57 245.36 213.93 249.09 224.46 245.63 238.66 250.68 248.28 271.98 243.01 290.61 265.91 301.79 265.68 295.94 275.99 295.41 290.64 308.72 297.75 322.82 288.13 334.27 287.9 335.07 270.72 326.28 264.76 335.34 255.83 359.56 259.73 368.34 249.88 375.27 235.68 367.01 223.09 355.3 219.2 Z"/>
</g>
</svg>