<?xml version="1.0"?>
<svg xmlns="http://www.w3.org/2000/svg" version="1.2" baseProfile="tiny" fill="#f9c113" width="800" height="510" viewBox="0 0 800 510" stroke-linecap="round" stroke-linejoin="round">
<g fill="#c0392b" id="id_117">
<path d="M 690.19 91.4 693.99 97.23 720.88 121.2 736.25 148.45 754.18 192.05 772.75 195.87 783.63 228.02 786.19 253.09 799 267.27 774.03 268.36 756.1 290.7 778.51 316.87 774.03 326.14 679.9 322.32 637.64 383.37 638.92 408.45 610.1 415.54 604.98 388.28 543.51 388.83 524.94 395.91 500.61 390.46 485.88 399.18 489.08 432.99 452.58 443.35 412.88 397.55 418.01 371.93 406.48 365.38 397.52 338.13 380.87 329.95 312.99 403 239.99 437.35 190.69 429.17 80.01 509 76.54 500.4 70.81 485.25 56.19 460.08 56.94 447.88 44.88 439.67 35.38 433.76 31.91 429.91 19.09 427.98 20 422.59 17.59 416.69 16.53 408.98 16.83 403.72 4.92 398.71 1 389.85 4.77 384.08 6.13 372.65 14.42 368.54 27.54 348.65 40.66 346.46 46.39 341.84 64.03 342.61 69 347.49 75.34 346.34 76.24 355.96 83.78 357.12 94.64 359.04 105.65 382.02 122.68 381.77 139.27 372.78 145.76 365.85 139.72 352.37 134.9 339.15 127.66 333.21 124.8 315.24 128.26 311 130.38 296.75 143.49 290.34 143.49 279.43 160.23 274.93 175.16 272.62 191.9 269.8 195.36 264.67 184.36 251.83 177.72 244.64 175.46 238.87 179.53 231.94 177.72 218.97 176.37 184.71 175.91 178.67 188.88 165.58 214.06 179.96 220.4 181.88 243.01 183.04 254.48 177.44 252.67 164.35 255.08 160.88 260.06 160.5 260.66 153.06 265.34 149.21 273.48 148.44 274.69 140.86 274.84 130.21 271.82 122.77 272.88 116.1 275.89 111.86 286.9 105.45 296.7 100.83 292.33 90.56 290.52 87.22 294.14 82.61 303.94 81.45 302.73 68.49 302.58 58.87 305.9 57.46 304.39 43.21 314.49 39.36 315.85 35.9 319.47 30.12 336.81 26.66 337.87 36.28 343.14 38.85 343.6 42.57 356.11 43.08 361.09 46.04 365.61 41.54 366.52 36.54 367.27 33.08 373.3 28.97 373.3 22.43 379.18 19.73 382.2 14.47 391.85 14.34 391.85 8.95 396.07 2.28 425.92 1 437.99 2.15 464.22 8.83 458.04 23.07 459.25 35.9 471.92 43.34 476.89 50.01 477.04 66.57 486.99 71.57 507.8 81.32 535.25 85.68 553.79 92.61 561.33 105.96 565.25 120.2 576.19 140.16 575.74 151.71 582.68 193.03 648.72 169.93 668.78 138.24 690.19 91.4 Z"/>
</g>
</svg>