<?xml version="1.0"?>
<svg xmlns="http://www.w3.org/2000/svg" version="1.2" baseProfile="tiny" fill="#f9c113" width="800" height="1061" viewBox="0 0 800 1061" stroke-linecap="round" stroke-linejoin="round">
<g fill="#c0392b" id="id_11">
<path d="M 469.64 278.35 469.81 278.34 486.16 300.66 499.02 303.55 515.06 314.42 526.72 310.13 541.17 302.76 572.77 302.56 579.44 296.98 578.65 279.04 580.74 260.7 598.68 243.36 607.35 247.44 623.39 260.1 647.31 268.67 636.05 280.13 631.27 294.98 630.47 332.95 592.3 356.67 592.6 382.09 589.71 400.23 571.47 419.86 562 434.31 560.01 442.48 562.5 448.27 580.94 458.73 598.08 459.93 615.62 469.59 622 472.08 637.35 470.69 656.68 483.25 699.84 488.13 726.94 511.05 749.57 521.22 781.06 521.62 787.54 523.21 797.6 543.94 799 555.5 792.22 564.27 784.65 578.82 755.15 577.93 741.69 572.94 703.82 594.37 686.38 594.87 672.53 603.54 667.54 621.98 667.15 639.02 669.14 647.09 651.2 657.26 634.86 663.14 622 670.71 603.66 670.02 565.59 661.74 554.23 656.06 511.27 657.26 493.83 684.57 477.89 699.32 472.01 732.21 456.26 755.33 450.08 784.73 446.59 793.2 446.4 793.21 451.48 805.36 467.82 828.18 452.17 859.48 446.19 879.31 434.93 894.56 418.19 905.72 416.29 914.39 439.72 945.79 458.85 946.18 476.89 971.8 484.26 976.48 482.27 1009.87 465.23 1026.11 460.94 1037.97 452.97 1042.76 431.14 1036.98 410.32 1035.78 379.02 1055.71 368.96 1060 350.32 1053.32 332.18 1055.12 333.57 1049.29 336.56 1041.31 343.74 1033.94 341.15 1026.16 337.96 1007.83 334.17 989.89 328.19 985.3 328.19 972.35 299.29 943.24 296.7 920.12 289.13 919.13 280.95 903.18 282.75 895.41 299.09 892.62 304.57 887.48 310.55 877.82 306.37 869.34 300.19 862.17 306.47 856.09 304.77 841.34 318.92 839.34 315.34 834.86 320.92 829.08 324.7 830.47 325.1 824.1 318.82 818.02 311.15 816.82 305.37 821.51 294.81 821.21 295.8 809.15 292.12 798.28 286.04 798.28 276.87 807.85 253.55 808.85 245.47 801.37 238.3 801.17 229.63 804.76 229.73 820.21 215.57 837.25 197.93 864.26 134.75 863.46 132.95 866.15 122.29 873.13 101.86 875.42 94.18 883.79 81.33 887.68 67.67 876.02 64.98 859.58 62.99 848.91 52.03 844.43 51.63 836.45 38.57 825.09 29.01 824 22.53 829.28 15.75 825.19 1.7 801.57 1 761.91 3.29 762.21 24.62 752.84 27.81 746.86 24.42 741.97 40.57 732.8 45.15 704 55.71 696.83 74.85 689.45 74.78 689.26 82.7 680.79 74.43 671.57 73.83 657.47 81.45 647.11 80.66 615.81 90.42 600.91 90.67 583.07 97.9 569.42 91.12 560.05 95.95 545 83.7 531 96.45 508.92 96.75 495.62 106.97 485.95 105.27 460.79 109.36 450.17 110.5 433.73 98.89 411.05 96.6 400.14 100.14 377.82 110.5 368.8 111 349.26 119.82 332.82 96.45 316.32 80.61 293.7 83.89 252.79 89.28 245.4 122.09 243.31 123.29 230.72 126.4 214.38 146.06 202.25 155.65 181.86 152.11 171.97 165.84 167.41 191.58 155.35 208.07 156.8 213.61 152.91 238.87 139.61 244.38 119.4 253.55 99.29 268.79 97 278.88 90.1 284.84 79.68 288.35 70.24 285.49 42.21 286.78 24.07 312 16.8 327.2 1 351.56 1.95 373.79 6.13 379.27 12.81 381.36 43.91 401.1 46.99 414.75 44.9 429.5 56.66 426.91 66.23 447.74 85.37 429.1 101.61 432.19 112.37 426.61 120.35 429.8 135.99 438.37 143.17 439.37 180.64 457.8 189.61 473.85 221.9 475.84 246.32 472.36 258.58 469.64 278.35 Z"/>
</g>
</svg>