<?xml version="1.0"?>
<svg xmlns="http://www.w3.org/2000/svg" version="1.2" baseProfile="tiny" fill="#f9c113" width="800" height="947" viewBox="0 0 800 947" stroke-linecap="round" stroke-linejoin="round">
<g fill="#c0392b" id="id_141">
<path d="M 372.02 902.61 367.93 901.61 360.33 907.14 345.14 908.65 346.89 890.04 355.07 884.5 353.9 875.44 365.59 874.94 366.17 861.86 376.69 859.35 359.16 847.78 355.07 833.19 359.16 826.15 376.11 828.16 376.69 839.22 382.53 846.27 407.66 846.77 393.05 824.64 393.64 769.82 401.81 748.19 386.62 715.51 391.3 679.32 400.06 667.76 411.75 666.25 412.33 642.63 402.4 633.08 398.31 611.97 344.56 627.05 345.72 619.01 318.85 606.45 288.46 623.03 218.35 609.46 159.34 621.52 143.56 666.25 147.65 681.83 64.69 705.46 58.26 675.8 47.74 672.79 54.17 660.72 39.56 661.22 37.81 650.67 30.8 651.68 30.21 635.09 15.02 631.07 14.44 608.46 1 607.45 43.65 573.79 38.39 566.75 46.57 534.6 76.96 536.11 89.23 529.58 141.23 533.6 158.76 513.51 172.78 514.01 190.31 525.06 197.9 525.56 197.9 519.53 206.67 519.03 211.92 511.5 215.43 511.5 216.01 506.47 225.36 505.97 227.7 512 286.13 517.02 305.99 530.58 308.91 523.55 307.75 512.5 318.34 495.72 308.91 464.79 297.81 458.76 280.87 458.76 274.44 446.21 279.12 429.64 273.86 427.63 273.86 398.51 293.72 393.49 294.31 376.93 309.5 360.87 309.5 338.78 319.43 328.24 332.87 326.74 332.87 314.19 311.25 307.67 305.41 289.6 291.97 293.12 272.11 269.53 278.53 259.5 265.62 235.66 265.62 218.18 250.32 187.58 243.76 163.53 255.79 149.33 278.74 156.98 303.88 154.79 319.18 170.09 319.18 193.04 326.83 210.53 339.95 222.55 360.71 197.41 369.46 158.07 361.81 131.84 344.32 115.45 350.88 82.67 390.22 77.2 379.3 52.07 384.76 30.21 402.25 29.12 426.29 41.14 418.64 53.16 433.94 69.55 460.18 58.62 482.04 37.86 495.15 11.63 527.94 2.89 555.34 1 561.82 26.93 558.54 57.53 557.45 89.22 568.38 120.91 588.06 126.38 602.26 123.1 623.03 115.45 627.4 105.61 629.59 138.4 611.01 158.07 595.71 165.72 620.85 171.18 631.77 176.65 642.71 189.76 627.4 194.13 601.17 211.62 588.05 218.17 588.05 240.03 601.17 260.8 604.45 273.91 597.89 284.84 578.22 284.84 591.33 315.44 598.99 344.94 619.75 366.8 644.89 366.8 659.1 356.96 676.59 343.85 692.98 339.48 717.03 337.29 732.33 348.22 760.75 367.89 782.61 387.56 785.89 424.72 783.7 461.88 782.61 479.36 784.79 504.5 755.28 525.26 738.89 541.65 732.33 562.42 741.07 583.18 764.03 614.87 769.49 627.99 777.14 649.84 784.79 667.33 799 684.81 797.91 708.86 792.44 738.36 780.42 749.29 761.84 752.57 741.07 762.41 731.24 777.7 741.07 788.63 757.47 797.37 766.21 811.58 756.38 825.79 731.24 836.72 723.58 830.16 701.72 835.62 687.52 843.27 678.77 854.2 666.75 859.67 645.98 868.41 631.77 870.59 615.38 872.78 598.99 882.61 596.8 891.36 613.19 886.99 623.03 892.45 631.77 901.19 631.77 908.84 615.38 915.4 600.08 914.31 580.79 911.79 575.11 911.18 558.13 907.29 555.27 906.66 515.92 906.66 494.06 911.03 485.31 932.89 478.76 926.33 467.83 904.47 452.53 913.21 444.07 931.46 443.82 931.71 443.78 931.79 429.57 946 424.11 943.81 415.36 931.79 413.18 931.79 391.32 933.98 373.83 935.07 372.02 902.61 Z"/>
</g>
</svg>