<?xml version="1.0"?>
<svg xmlns="http://www.w3.org/2000/svg" version="1.2" baseProfile="tiny" fill="#f9c113" width="800" height="852" viewBox="0 0 800 852" stroke-linecap="round" stroke-linejoin="round">
<g fill="#c0392b" id="id_198">
<path d="M 324.31 658.09 304.79 673.94 299.9 686.18 282.82 682.58 253.53 705.63 237.26 668.18 197.39 690.5 194.14 678.26 176.24 686.9 138.82 667.46 154.27 622.81 181.12 604.81 124.17 555.15 98.14 535.72 139.63 521.33 155.9 505.51 164.85 487.53 179.49 474.58 173.03 445.18 175.14 436.86 174.78 431.76 177.34 421.67 181.51 415.45 190.39 411.45 197.89 404.39 207.92 396.6 206.55 384.68 199.7 379.64 195.66 375.22 191.97 369.81 186.87 364.97 180.76 360.42 176.3 356.74 172.52 352.74 159.13 345.47 153.84 341.73 147.71 338.87 139.84 330.43 129.93 330.24 120.73 328.7 113.79 327.83 106.58 325.36 97.29 323.84 91.3 322.99 88.31 319.84 86.87 317.01 88.69 308.55 94.15 300.01 97.79 288.64 96.79 280.45 97.13 268.12 97.17 266.69 96.47 255.75 95.37 245.9 93.53 239.73 92.86 236.93 79.81 230.79 70.67 224.96 65.59 221.38 63.56 214.44 60.96 204.62 60.11 196.06 71.18 176.36 56.95 173.22 45.01 169.19 34.35 159.79 29.01 154.64 20.12 153.07 10.6 153.13 1 143.11 4.37 138.07 12.25 123.97 14.79 119.94 20.88 115.24 28.25 115.24 32.06 113.22 39.68 111.43 46.79 111.43 52.43 111.28 56.12 105.26 57.42 95.55 58.69 89.01 59.41 84.76 73.32 91.2 94.47 92.4 103.23 93.52 108.05 92.59 122.42 83.75 131.06 78.1 139.54 72.25 139.02 61.4 140.26 58.19 143.88 53.04 141.34 46.11 140.33 40.96 145.41 37.83 155.06 36.49 172.84 33.81 192.65 24.86 198.75 13.68 207.13 1.15 223.78 7.52 224.78 9.04 232.23 20.37 239.25 31.03 253.01 46.51 269.73 53.19 273.06 54.53 274.06 53.7 301.15 31.03 312.02 31.62 357.9 14.18 387.6 1 388.14 3.84 384.02 21.96 381.3 33.94 381.59 39.49 382.04 48.18 382.66 59.94 386.77 75 392.19 76.25 399.42 77.92 404.55 79.1 404.22 82.55 404.05 84.4 402.8 97.5 401.82 107.84 403.68 110.85 403.97 111.31 414.13 127.68 416.71 132.99 420.35 140.5 420.35 140.5 426.8 153.6 432.6 164.63 427.46 168.22 425.66 169.48 412.08 178.99 412.08 191.99 415.48 196.64 419.6 202.26 417.84 222.16 417.55 225.52 424.02 236.45 433.02 251.68 437.38 259.04 444.87 270.69 446.12 272.64 448.85 276.88 450.99 280.22 459.37 293.25 462.01 297.36 477.73 317.63 481.63 322.67 485.2 327.28 488 330.88 491.72 334.44 510.52 352.45 520.15 361.67 523.01 364.71 551.47 395 552.3 395.88 554.55 399.7 561.19 410.93 568.62 422.45 574.87 432.14 587.18 449.25 602.23 454.04 625.48 455.41 639.85 470.46 656.27 488.93 676.79 499.19 698.67 505.35 721.24 510.14 756.13 518.35 773.23 529.98 799 544.27 794.2 548.67 788.14 554.18 767.23 573.21 756.07 582.31 751.42 587.62 748.32 591 747.42 592.01 741.61 598.61 739.83 602.04 739.23 603.22 731.32 618.83 730.61 620.64 729.27 623.95 725.33 633.82 720.32 647.89 713.39 663.56 711.8 667.3 709.32 673.19 705.45 682.2 704.88 683.55 700.26 694.32 696.04 705.06 691.43 716.49 690.14 719.69 688.61 723.44 688.1 724.69 680.3 743.63 678.5 747.97 678.12 749 676.7 752.28 675.27 755.86 674.36 758.11 673.32 760.44 670.41 766.96 669.26 769.44 668.39 771.3 666.88 774.55 665.89 776.69 664.57 779.55 661.18 786.83 656.28 797.4 653.22 804.03 651.13 808.53 648.31 814.6 646.26 819.01 644.72 822.34 644.32 823.19 639.57 833.44 636.31 840.46 632.93 847.75 631.43 851 468.38 729.46 439.04 713.92 380.35 682.86 324.31 658.09 Z"/>
</g>
</svg>