<?xml version="1.0"?>
<svg xmlns="http://www.w3.org/2000/svg" version="1.2" baseProfile="tiny" fill="#f9c113" width="800" height="826" viewBox="0 0 800 826" stroke-linecap="round" stroke-linejoin="round">
<g fill="#c0392b" id="id_131">
<path d="M 215.77 362.08 210.17 358.42 215.77 347.43 216.1 344.05 215.44 340.11 215.44 338.7 216.1 337.01 221.37 330.54 221.7 327.16 223.02 324.62 222.36 322.93 223.35 320.11 223.35 318.43 224.99 317.58 227.63 313.36 229.27 311.1 229.27 309.7 228.94 308.85 224.66 308.01 218.41 307.16 214.78 304.63 215.11 302.66 216.43 298.43 216.76 293.93 216.43 288.01 221.37 289.98 224.33 293.64 227.95 296.74 232.24 298.99 244.09 303.5 249.03 305.19 255.61 299.84 257.26 293.64 259.89 289.42 257.26 286.32 255.94 282.66 255.28 278.44 259.23 272.81 261.87 270.28 265.82 264.36 266.48 263.8 265.82 258.45 255.28 259.58 242.77 259.58 235.53 256.2 231.58 250.57 225.98 251.13 220.38 250.85 214.46 250.01 206.22 248.6 198.32 245.5 196.02 245.22 192.07 243.53 186.14 240.72 181.2 238.18 178.9 235.09 176.26 231.15 173.63 226.36 171.32 223.27 170.01 216.79 169.01 193.66 175.37 190.37 181.84 186.2 187.35 182.29 192.93 180.83 221.46 180.27 228.29 180.5 238.99 178.41 251.78 177.12 253.87 175.37 255.93 170.14 264.57 165.24 269.5 162.82 276.32 161.03 281.52 160.76 285.2 160.8 286.9 160.4 287.76 164.24 286.21 171.43 277.37 173.98 275.08 174.05 277.02 180.81 276.94 184.19 275.24 188 272.05 195.63 275 196.59 273.6 201.23 274.61 204.05 269.49 204.08 266.47 211.37 273.33 211.27 272.44 219.12 278.33 217.3 277.91 226.38 294.58 221.25 308.38 217.4 307.56 210.48 312.84 209.41 313.34 201.66 316.64 202.06 316.75 189.27 320.98 187.98 320.98 183.17 325.36 179.46 326.25 175.83 325.28 167.81 324.66 162.18 324.31 158.53 324.51 150.32 324.58 146.21 323.54 139.39 324.31 135.1 324.35 135.03 324.73 133.29 329.78 111.38 329.78 95.88 342.56 78.54 346.21 62.12 352.6 32.02 355.33 22.89 374.49 21.07 381.79 1 400.04 1 412.82 1.91 421.94 11.03 428.33 34.75 442.01 28.37 461.18 21.07 481.25 11.95 526.99 19.12 525.89 20.55 525.72 21.76 525.66 22.82 525.14 23.52 524.34 25.26 524.57 25.92 524.03 27.61 523.59 29.11 522.61 32.2 521.88 33.7 521.86 34.21 521.23 36.55 520.42 37.74 520.18 38.69 519.59 39.96 519.1 40.59 518.81 41.41 517.51 41.89 516.3 42.9 516.6 43.3 517.24 44.47 517.58 44.99 518.14 45.63 517.19 46.26 518.85 48.63 519.78 50.02 520.69 51.47 521.43 53.53 520.41 53.82 519.2 53.81 517.75 53.98 517.12 53.87 516.52 53.45 515.91 53.28 513.6 53.5 512.56 52.84 512.11 53.07 512.06 53.81 511.71 54.18 511.05 54.67 510.37 55.25 508.6 57.57 507.8 58.03 507.19 58.53 505.62 59.44 504.61 59.9 504.33 60.4 503.38 60.49 503.4 61.13 500.73 61.1 500.78 61.83 499.81 61.96 499.97 62.9 500.95 65.94 501.04 66.39 500.95 68.08 499.59 69.13 498.67 69.41 496.4 69.72 496.04 70.69 494.33 71.37 495.11 72.46 494.78 73.85 494.94 75.19 495.23 75.98 495.32 76.64 496.78 77.73 498.41 78.46 499.52 78.57 499.7 79.17 501.26 79.35 501.77 81.83 501.01 81.75 500.51 84.31 498.68 84.65 498.12 85.37 496.8 85.23 496.32 85.75 495.95 85.89 494.58 87.56 496.53 88.59 496.36 89.02 497.27 89.37 496.2 92.16 494.72 91.48 494.29 91.85 492.83 91.3 491.71 91.87 491.22 93.25 489.4 92.33 485.81 90.95 484.83 92.5 483.83 92.29 482.8 94.04 480.94 94.03 480.87 95.26 482.29 96.17 483.33 97.41 483.85 98.24 484.92 100.51 485.38 100.5 486.6 100.89 487.62 101.16 490.19 101.6 492.56 103.24 492.17 104.07 492.82 104.87 493.8 105.99 494.28 106.66 495.34 107.68 496.69 107.64 497.26 107.88 497.98 108.08 498.62 107.98 499.2 108 501.12 107.21 501.89 107.04 504.75 106.1 507.05 105.6 508.57 106.78 509.09 108.51 509.31 109.47 509.35 109.74 509.22 109.99 508.9 110.33 507.42 110.94 505.27 111.91 503.41 112.41 502.43 113.73 501.92 114.26 501.19 114.68 501.2 115.63 500.99 115.94 500.63 117.25 500.42 118.21 500.13 119.2 499.85 119.7 498.58 122.21 497.82 124.02 496.83 125.05 496.79 125.65 496.32 125.93 495.75 127.59 495.91 128.71 494.47 130.61 493.41 132.25 493.01 133.03 492.22 134.28 492.11 134.59 492.07 134.87 492.35 135.62 492.82 136.38 492.04 138.34 491.37 138.46 491.26 139.65 490.97 141.01 490.11 142.74 489.89 143.89 489.69 144.57 489.19 145.39 488.05 146.73 486.85 147.74 485.37 148.59 484.96 150.12 484.37 151.15 483.2 152.58 481.85 155.35 481.08 158.42 479.39 159.44 478.02 160.51 477.02 161.15 473.73 164.12 472.54 166.64 471.47 166.9 471.61 168.6 470.83 171.86 470.51 172.64 472 174.82 472.49 175.31 473.21 176.61 473.7 178.39 474.36 179.73 474.54 180.25 474.79 181.51 475.61 184.01 476.3 185.64 477.1 186.96 478.52 187.96 480.93 189.46 482.05 190.64 482.77 192.12 483.62 194.85 484.57 196.77 486.73 198.81 489.21 200.72 490.8 202.05 491.32 202.68 492.22 204.79 492.47 206 492.37 207.87 492.11 209.01 491.11 210.61 490.02 213.73 488.79 216.1 488.25 216.93 487.87 217.32 487.11 218.27 485.65 221.22 484.98 223.2 484.2 224.86 483.44 225.72 482.06 227.07 479.74 229.14 477.85 229.43 476.77 229.76 475.23 229.17 473.41 231.37 472.53 232.14 470.76 234.12 468.56 236.02 467.53 236.88 468.57 238.67 469.14 239.56 466.79 242.27 465.25 244.37 464.31 245.81 464.27 247.52 464.39 248.69 469.29 251.17 470.92 251.76 471.87 252.7 473.04 254 474.16 254.95 474.49 255.54 474.8 258.15 474.75 259.41 476.16 259.78 477.8 260.55 477.6 261.84 477.17 263.46 475.95 264.72 476.82 265.83 478.44 268.74 478.7 269.41 478.8 270.1 479.12 271.1 479.13 272.27 479.56 273.7 479.24 273.99 478.77 274.69 480.43 275.59 479.78 277.14 479.72 278.16 478.96 279.47 477.98 280.44 476.77 281.11 476.22 282.49 477.98 285 479.26 286.04 479.11 287.45 478.13 287.66 478.26 288.63 478.76 290.63 476.47 291.39 473.93 292.02 472.08 292.22 472.13 293.49 472.34 295.44 472.26 296.09 471.26 298.37 470.91 299.94 470.94 301.62 472.32 302.45 471.98 304.06 471.35 305.19 470.72 306.15 469.33 307.41 470.32 309.92 470.84 310.77 471.43 312.29 472.18 313.88 471.89 315.26 469.64 319.52 469.72 321.02 469.35 321.99 469.35 323.45 469.24 324.23 468.65 325.84 467.94 327 467.06 326.88 465.16 326.47 464.72 326.44 464.33 326.5 462.35 327.67 461.57 328.03 460.18 327.98 458.36 328.07 456.93 328.31 455.53 328.56 454.43 328.92 453.1 330.1 452.52 331.41 452.24 332.72 452.14 333.73 452.25 335.61 451.92 338.08 451.29 340.59 451.22 343.85 451.26 345.31 452.99 346.59 452.36 347.69 452 348.51 452.21 348.75 453.65 349.36 453.05 351.72 452.84 354.17 454.37 355.73 456.57 357.29 454.54 360.81 455.61 361.54 455.89 361.68 456.76 361.8 455.35 364.67 454.96 365.66 454.78 366.35 454.29 368.84 454.18 369.64 454.01 371.14 453.21 372.35 452.74 373.35 454.48 374.18 455.79 374.85 456.7 375.39 457.36 375.92 458.33 376.97 457.72 379.16 456.65 380.96 457.37 381.99 460.85 383.81 460.25 384.76 460.98 385.49 460.16 385.82 459.81 387.24 459.56 387.58 458.78 388.39 458.46 388.89 458 390.22 458.24 392.87 458.18 394.21 458.44 395.92 458.53 397.71 458.92 401.09 458.82 402.03 458.15 406.4 457.5 408.04 456.53 410.08 455.55 411.36 455.16 412.02 454.51 412.99 453.8 413.75 453.36 415.68 452.87 417.28 452.68 418.09 452.08 419.8 452.09 420.01 453.52 419.74 455.07 419.81 456.03 420.25 458.68 421.29 459.75 421.61 461.56 421.97 464.33 422.74 467.09 423.48 469.62 424.23 471.69 424.51 473.21 424.78 474.17 424.79 476.31 424.57 476.76 424.6 478.28 424.94 480.05 425.81 483.88 427.11 486.51 429.14 488.12 430.07 489.19 430.6 489.98 430.96 492.73 432.01 495.41 433.07 496.14 433.72 499.03 434.95 501.12 435.64 503.59 436 503.38 437.06 505.39 437.56 507.69 438.03 509.37 438.88 512.45 439.77 513.46 438.5 515.12 438.13 515.37 437.18 517.95 437.68 520.91 437.93 520.7 439.5 520.4 441.2 520.48 443.12 520.84 444.83 520.85 445.81 520.83 446.68 520.48 448.03 520.42 449 520.24 449.72 519.43 451.34 522.04 453.39 523.06 454.13 523.19 455.62 523.11 456.79 523.13 458.88 522.95 460.38 523.03 461.65 523.47 464.53 523.52 465.64 523.65 467.25 523.61 469.34 523.95 471.17 522.1 474.55 522.27 476.49 523.26 478.73 524.51 481.45 525.51 483.38 524.78 485.81 524.64 485.98 524.39 489.52 524.44 494.76 524.37 496.97 524.74 498.81 525.41 500.48 526.23 502.2 527.57 503.12 529.11 503.92 530.55 504.63 531.85 504.81 534.82 505.01 536.62 506.08 537.92 507.19 538.07 508.04 538.89 508.18 540.14 508.21 541.31 508.34 542.74 509.19 545.64 507.68 547.28 508.98 548.59 508.17 549.5 509.63 551.98 509.69 555.23 510.07 556.4 510.16 558.51 510.65 560.97 511.08 562.09 511.42 563.15 509.31 563.5 509.07 564.46 507.44 565.41 506.18 565.65 505.68 566.6 503.39 568.03 503.53 569.61 503.52 572.95 503.07 573.74 502.53 575.76 503.65 576.98 502.1 577.56 501.55 578.21 501.18 579.2 500.98 581.26 500.64 581.56 501.1 582.14 500.81 582.41 501.29 584.3 500.62 584.8 502.22 588 501.81 588.74 501.65 589.71 501.29 591.6 500.51 593.61 500.03 593.17 499.02 592.61 497.98 591.81 496.87 590.09 494.81 589.55 493.76 590.81 492.89 591.7 492.31 592.66 491.9 594.25 491.39 597.34 491.38 597.68 493.17 597.5 496.93 598.31 498.33 601.67 497.56 605.01 498.22 606.4 498.15 607.99 497.66 610.01 499.78 613.23 499.35 615.32 499.48 615.05 497.03 612.76 490.32 618.69 490.09 621.6 490.22 621.33 486.77 622.88 486.7 624.55 487.57 625.13 487.57 625.4 487.04 627.26 487.14 629.47 483.58 631.29 482.19 631.06 481.56 631.64 481.26 633.04 479.47 631.6 477.78 632.34 476.65 632.92 472.7 632.65 470.64 632.61 469.05 631.76 465.4 631.37 460.09 631.87 458.49 632.07 456.54 629.35 453.42 627.65 452.49 623.96 451.66 621.1 446.32 619.35 443.4 612.64 435.2 608.81 431.08 608.26 429.76 607.95 427.2 608.46 424.68 612.14 425.58 614.12 423.59 615.75 419.87 618.65 417.51 619.89 416.92 621.25 418.31 622.65 418.84 629.74 416.95 632.18 416.69 635.52 418.18 636.14 419.17 638.89 420.57 640.71 420.87 642.88 420 644.55 420.27 645.67 420.97 647.81 421.1 653.78 418.15 658.86 419.9 662.11 421.56 667.15 420.17 669.98 418.68 672.66 421.2 670.76 423.62 669.87 427.2 670.25 428.46 671.57 429.46 672.97 434.5 672.35 438.68 675.22 441.87 679.63 444.99 682.97 444.39 687.7 441.74 691.19 436.89 695.99 433.97 698.32 429.26 702.35 426.74 707 424.88 709.87 424.88 711.66 423.62 717.32 418.38 720.88 416.65 729.18 428.4 733.99 433.57 746.31 435.1 763.53 428.6 774.93 427.27 775.62 429.43 776.59 433.44 776.48 442.13 776.32 444.69 780.12 445.49 791.44 455.37 792.06 462.08 791.44 463.54 791.13 471.83 789.7 473.2 792.72 475.22 792.99 478.04 794.46 478.37 797.14 482.89 798.46 490.55 799 492.71 797.22 494.97 789.66 505.52 787.1 506.39 785.86 507.32 782.45 509.18 777.91 511.33 778.3 512.63 787.56 524.81 773.03 536.2 754.92 551.17 742.59 561.6 735.11 564.19 724.06 566.68 720.19 567.31 718.4 567.87 704.87 569.93 697.16 568.47 682.39 571.66 679.32 571.93 673.12 573.52 656.72 577.17 647.22 579 640.79 577.6 638.15 577.4 636.41 578.07 631.87 579.56 628.62 581.26 619.43 585.24 608.52 590.42 606.93 586.07 606.58 583.08 607.2 582.25 603.01 578.7 601.21 575.99 596.75 568.01 580.03 557.24 579.56 556.49 579.01 555.74 572.4 554.1 570.71 553.27 567.26 552.02 558.23 552.03 554.11 562.63 548.13 567.84 546.41 568.92 544.39 570.26 543.66 575.5 543.13 577.42 542.71 578.04 542.07 579.2 541.49 580.31 540.21 588.46 539.7 590.89 538.54 590.04 538.17 589.94 537.84 589.04 521.85 598.61 519.58 600.14 517.04 608.79 510.14 627.09 509.21 629.78 508.51 632.64 505.04 642.54 507.22 647.08 507.85 649.78 507.92 650.26 508.76 655.13 509.09 656.19 509.56 657.07 511.01 658.8 511.44 659.76 512.95 662.14 512.51 662.31 511.15 664.48 512.45 667.42 514.85 667.41 516.02 668.64 515.88 672.62 504.81 677.14 493.07 681.83 490.78 682.56 486.79 684.19 480.83 687.13 476.9 688.02 471.65 690.98 468.82 692.06 462.83 695.3 462.36 695.73 460.25 698.91 459.63 700.3 453.33 710.54 449.14 717.43 444.48 719.84 437.58 722.44 436.55 722.69 431.13 723.32 429.58 722.69 418.86 704.59 418.53 704.56 418.28 704.92 415.05 707.98 408.63 708.18 399.81 711.37 396.96 704.9 384.17 710.9 382.93 711.17 382.91 711.62 381.61 712.42 381.28 712.02 377.75 713.35 375.35 714.39 373.18 716.15 368.18 716.92 362.63 718.85 359.51 720.25 357.38 721.51 355.54 723.68 373.53 735.71 372.6 736.48 367.25 736.68 354.03 736.61 349.3 737.78 345.73 738.14 352.36 746.22 328.48 745.65 328.28 756.92 326.04 757.72 323.96 763.04 321.36 763.26 319.04 762.99 311.56 763.01 308.67 762.84 304.42 762.41 296.42 763.91 289.05 764.73 282.42 766.13 284.75 770.59 277.61 785.55 291.69 785.85 293.94 785.65 295.29 785.91 300.56 783.88 304.6 782.82 301.3 788.51 300.6 790.43 297.73 793.79 295.8 797.88 295.33 801.54 290.72 801.07 289.09 800.64 282.69 799.64 279.28 799.25 271.18 796.69 271.92 800.91 272.81 803.77 281.76 804.43 286.57 804.4 289.05 805.33 295.49 809.05 296.73 810.29 296.18 812.18 294.83 814.64 295.72 816.07 295.56 817.87 295.93 820.16 295.97 821.41 293.88 825 279.07 823.34 270.38 821.84 268.54 821.69 261.25 821.74 249 822.09 247.19 817.53 225.25 804.94 220.1 799.62 210.42 793.78 199.68 792.61 190.6 773.4 157.76 764.84 152.47 756.15 159.43 724.23 160.94 712.56 151.26 711 142.18 706.59 123.11 706.72 117.06 715.28 105.41 707.24 100.26 694.01 89.97 684.54 85.74 663.53 95.57 655.1 108.13 649.91 102.08 641.87 88.46 640.19 78.32 629.43 80.89 617.11 90.12 617.89 85.43 606.35 91.33 600.9 78.47 592.35 65.91 597.66 53.66 587.94 56.68 581.98 48.06 574.33 55.62 560.98 62.74 539.47 57.44 538.3 58.5 529.75 53.81 516.28 57.44 506.3 41.85 507.08 24.76 488.16 7.96 480.39 14.77 464.97 1 453.19 15.53 421.72 76.51 421.72 96.18 434.93 97.08 419.38 103.29 406.82 102.83 386.24 104.92 380.82 105.1 381.12 114.18 380.35 131.74 387.6 145.35 387.34 150.8 383.71 158.67 371.02 159.58 359.63 171.38 371.02 188.02 381.9 200.13 379.31 205.58 387.6 221.92 392.52 214.46 381.8 215.77 362.08 Z"/>
</g>
</svg>