<?xml version="1.0"?>
<svg xmlns="http://www.w3.org/2000/svg" version="1.2" baseProfile="tiny" fill="#f9c113" width="800" height="673" viewBox="0 0 800 673" stroke-linecap="round" stroke-linejoin="round">
<g fill="#c0392b" id="id_150">
<path d="M 265.96 77.36 279.07 88.69 290.93 94.09 316.52 84.91 342.73 83.29 361.46 93.55 379.56 96.24 391.42 111.36 403.28 127.55 400.16 143.2 407.65 158.85 412.64 175.04 418.88 186.91 434.49 192.85 437.61 170.18 448.84 155.07 447.59 142.66 461.32 138.88 471.31 140.5 472.56 156.15 483.79 166.94 495.03 166.94 501.27 170.18 513.13 168.02 526.86 168.56 534.35 174.5 528.11 193.39 534.35 209.58 553.08 213.36 573.05 223.07 597.39 224.69 616.74 223.61 632.35 211.74 646.7 195.01 666.05 188.53 699.13 180.44 717.23 171.26 740.95 172.34 754.68 184.21 745.95 205.26 735.96 218.22 734.09 243.59 736.58 264.64 732.84 280.29 729.09 297.56 750.94 306.2 781.52 310.52 799 318.62 795.88 344.53 777.15 362.34 765.92 377.46 774.66 407.15 784.02 415.25 772.16 425.51 766.54 437.38 761.55 450.88 759.68 463.3 766.54 473.56 769.04 487.05 765.92 513.51 760.3 546.45 752.19 562.11 744.07 578.31 734.09 568.59 717.86 572.37 702.25 576.69 677.29 574.53 656.07 575.07 632.35 583.17 613.62 581.01 602.39 569.67 603.01 559.95 578.67 561.03 573.05 551.85 564.94 538.89 571.8 528.09 592.4 524.85 609.25 527.55 630.47 528.09 648.58 522.15 668.55 521.07 681.03 513.51 683.53 503.79 684.15 494.61 674.17 482.73 664.8 472.48 671.05 461.14 675.41 456.28 688.52 449.8 687.27 439 690.39 430.36 694.76 421.73 695.39 417.95 704.75 413.09 711.62 404.99 708.5 393.65 696.01 381.24 652.32 381.24 639.84 375.84 639.84 366.12 628.6 354.78 611.13 348.31 599.27 338.59 586.16 334.27 572.43 346.15 579.92 358.56 590.53 362.88 579.29 371.52 564.94 378.54 547.46 375.84 543.71 389.33 523.12 392.57 536.85 404.99 541.22 422 539.03 446.29 535.29 469.51 528.11 481.66 527.49 496.5 537.79 513.24 539.03 535.92 531.86 554.55 519.37 572.37 516.56 589.65 525.3 599.37 527.8 615.03 517.5 628.26 506.58 636.36 491.6 653.64 457.27 661.74 437.61 672 427.93 671.46 413.58 661.47 409.52 638.79 406.71 622.59 411.7 592.89 411.39 562.11 409.52 545.1 412.64 527.82 411.7 503.79 404.84 497.58 402.34 485.97 407.96 474.64 408.27 456.28 403.9 447.37 398.91 445.75 394.23 446.83 382.99 455.2 370.51 445.21 357.71 429.55 347.1 429.28 336.8 440.35 333.68 451.15 319.33 460.6 298.73 467.89 298.42 454.66 290.3 437.92 284.06 433.33 271.58 437.92 253.79 447.91 228.82 454.12 202.29 457.9 178.26 465.19 156.42 470.32 134.88 476.53 124.59 472.75 133.32 451.69 141.13 438.19 165.16 417.95 184.51 398.24 205.1 377.73 213.22 352.62 204.48 348.85 189.81 352.35 166.4 356.13 134.57 347.5 115.54 357.75 76.52 358.83 74.34 370.44 52.49 375.57 29.09 384.21 10.36 391.22 7.55 379.62 11.92 372.6 10.99 365.04 14.73 350.2 28.15 334.54 31.9 320.77 26.59 302.69 20.97 285.96 20.97 273 24.41 268.68 32.21 258.43 30.96 251.68 19.1 247.63 1 244.67 2.87 207.42 15.11 189.91 28.72 180.83 38.83 166.04 45.83 150.24 50.49 139.15 62.93 139.15 66.04 133.1 68.41 117.56 84.01 112.7 85.26 101.37 80.27 89.5 82.77 71.69 96.5 60.9 118.97 51.18 138.94 47.95 150.8 45.25 162.04 34.46 162.66 20.97 183.26 1 183.26 11.79 201.98 22.58 221.33 30.14 224.14 45.25 229.45 64.41 245.36 73.58 265.96 77.36 Z"/>
</g>
</svg>