<?xml version="1.0"?>
<svg xmlns="http://www.w3.org/2000/svg" version="1.2" baseProfile="tiny" fill="#f9c113" width="800" height="373" viewBox="0 0 800 373" stroke-linecap="round" stroke-linejoin="round">
<g fill="#c0392b" id="id_192">
<path d="M 355.83 340.03 335.03 350.36 331.13 350.36 323.33 349.21 316.84 346.91 290.84 337.73 285.64 336.59 279.15 340.03 270.05 346.91 260.95 350.36 258.35 346.91 217.26 337.11 213.82 339.01 208.37 339.23 200.2 340.43 196.34 341.72 195.91 341.94 193.7 343.56 192.83 344.66 192.64 346.33 192.82 347.49 192.45 348.3 192.32 350.01 194.21 351.82 196.09 353.99 197.87 357.27 198.94 363.01 197 365.18 193.12 367.39 190.39 370.9 188.01 372 182.72 370.97 179.75 369.16 174.76 364.99 168.71 361.19 160.57 354.26 158.4 354.16 153.14 357.24 151.98 358.59 151.02 363.03 148.04 365.36 143.68 365.95 138.34 366.49 132.39 368.42 124.32 368.5 122.08 363.05 121.12 362.54 116 362.58 111.33 360.45 99.02 357.78 81.23 353.79 73.73 348.96 72.35 345.37 70.19 342.35 66.29 332.99 63.74 323.47 54.31 319.77 46.49 300.95 44.48 286.94 41.69 274.84 33.75 260.02 29.45 253.22 27.13 247.89 23.79 233.07 21.35 228.42 16.89 220.19 14.46 211.96 12.02 203.02 12.83 193 12.43 184.42 9.59 177.27 4.31 170.12 2.69 162.25 1 146.22 6.59 145.04 13.85 143.26 33.23 139.06 42.74 137.02 46.81 137.97 51.57 138.74 56.36 138.79 61.48 140.41 70.19 142.94 75.39 143.24 81.74 143.73 85.98 143.93 90.61 143.86 97.82 143.6 108.8 143.43 113.95 142.4 119.09 141.17 123.15 141.13 127.78 141.15 130.38 141.27 136.71 141.25 139.81 141.51 144.29 143.06 161 144.94 167.3 147.02 172 149.33 177.89 153.81 182.29 156.1 197.67 162.14 206.87 164.65 212.88 165.76 218.06 166.92 222.27 166.13 227.32 164.44 231.18 163.69 232.99 164.25 237.47 166.51 242.31 167.35 248.26 168.89 259.39 170.72 262.03 171.92 265.19 174.65 269.64 178.33 271.61 180.96 274.23 181.83 281.96 182.91 283.47 183.77 287.51 184.19 290.65 184.14 293.51 184.9 295.69 185.54 299.62 185.14 301.97 184.97 304.76 186.01 307.96 187.3 317.44 190.18 333.36 194.7 337.53 195.83 343.48 196.92 345.27 197.31 346.19 198.29 346.36 200.09 348.05 201.05 349.92 202.52 357.11 204.6 362.2 206.57 364.11 207.53 365.51 207.61 366.24 206.84 368.84 204.54 371.63 201.93 374.73 200.33 378.96 199.28 383.64 196.42 391.75 193.33 396.78 191.58 393.45 185.88 384.51 180.25 381.76 171.62 382.6 164.35 383.31 158.38 380.65 151.17 381.03 145.71 379 141.18 375.89 138.14 374.11 133.15 372.1 120.69 377.44 113.74 380.73 108.67 380.4 101.95 380.34 95.6 380.4 92.32 379.75 89.03 377.72 84.79 377.51 82.72 377.68 80.83 377.49 79.04 377.76 77.48 380.29 72.33 383.23 66.16 382.47 62.86 384.84 57.88 388.48 53.57 390.68 49.38 394.43 45.55 396.68 40.2 400.63 37.89 403.74 34.17 405.18 27.17 405.56 22.88 405.62 19.78 406.02 14.3 404.41 8.51 414.96 7.86 419.51 7.86 427.3 7.86 431.2 9.57 438.35 12.43 444.85 13.58 442.9 1 454.6 7.29 457.85 7.86 460.45 8.43 464.99 7.29 470.19 5.57 477.99 5.57 479.94 6.72 486.44 7.86 520.5 24.47 515.18 37.43 523.85 37.58 535.27 40.86 544.35 43.91 544.98 46.2 544.95 53.78 544.03 56.08 552.21 56.89 563.88 60.26 572.89 64.87 574.35 71.98 577.39 77.13 580.93 82.17 583.64 87.12 582.17 91.15 578.97 97.4 579.22 102.28 591.06 102.24 600.81 106.82 613.8 118.26 619.65 106.24 624.2 102.24 628.1 99.95 636.55 95.37 646.94 101.67 656.69 107.96 656.04 113.11 656.04 115.4 656.04 120.55 659.29 123.99 663.19 119.41 670.34 112.54 674.24 109.68 678.78 107.39 687.23 103.96 701.53 101.14 709.81 103.53 718.42 102.24 723.46 101.38 728.33 99.95 733.04 96.95 740.03 92.65 742.95 91.51 745.72 90.94 750.43 90.65 762.61 88.65 762.61 87.79 768.46 84.07 780.81 80.07 791.2 79.49 790.55 90.94 786 97.8 797.7 106.39 798.35 110.39 799 111.54 787.63 135.58 785.63 153.12 781.56 159.81 780.81 160.88 775.67 165.28 766.47 170.91 758.67 177.08 756.26 178.64 751.84 179.98 748.11 180.25 746.06 179.97 742.45 180.1 733.92 183.63 726.71 184.25 719.15 184.91 713.32 185.28 708.67 188.3 703.16 189.91 697.81 190.67 692.37 191.58 687.02 194.52 684.82 196.39 682.2 198.13 677.78 199.56 668.4 203.02 659.99 208.75 656.56 215.28 652.82 221.77 651.74 225.68 651.23 231.15 651.9 237.93 651.07 249.37 651.42 254.92 650.86 260.25 650.81 262.75 650.44 269.19 649.51 277.11 648.3 282.66 646.44 284.71 639.33 288.42 620.14 288.39 601.32 289.23 588.96 284.47 582.15 282.55 572.95 278.18 566.39 272.17 556.38 280.14 551.17 284.14 548.4 288.06 543.77 293.36 540.69 289.19 534.25 281.79 528.34 276.93 520.47 270.98 516.95 264.5 513.89 258.59 507.7 262.22 498.09 271.35 490.48 283.17 486.23 292.6 482.84 299.35 464.77 299.49 448.13 302.19 427.35 312.43 425.75 319.25 408.4 329.21 395.47 336 386.06 339.58 376 337.06 353.23 328.56 355.83 340.03 Z"/>
</g>
</svg>