<?xml version="1.0"?>
<svg xmlns="http://www.w3.org/2000/svg" version="1.2" baseProfile="tiny" fill="#f9c113" width="800" height="478" viewBox="0 0 800 478" stroke-linecap="round" stroke-linejoin="round">
<g fill="#c0392b" id="id_130">
<path d="M 537.56 122.55 536.95 139.46 553.58 232.76 653.41 244.57 635.39 289.46 711.65 347.34 742.15 343.79 731.06 362.7 778.2 380.42 793.45 402.86 799 413.5 683.92 370.97 649.25 392.23 631.23 383.96 624.3 413.5 632.62 433.58 608.01 444.21 566.06 437.12 547.69 411.13 494.66 443.92 447.86 477 447.51 459.87 431.22 463.71 418.05 443.03 308.17 440.67 237.11 423.83 137.97 414.38 1 343.09 26.58 320.08 100.17 286.96 78.37 216.74 129.76 194.91 249.59 108.46 302.97 117.31 382 80.11 455.49 1 473.51 9.86 483.22 39.38 495.7 46.46 490.15 74.21 533.13 123.81 537.56 122.55 Z"/>
</g>
</svg>