<?xml version="1.0"?>
<svg xmlns="http://www.w3.org/2000/svg" version="1.2" baseProfile="tiny" fill="#f9c113" width="800" height="1136" viewBox="0 0 800 1136" stroke-linecap="round" stroke-linejoin="round">
<g fill="#c0392b" id="id_122">
<path d="M 205.68 1 213.74 6.93 280.16 1.19 306.15 21.69 401.44 12.67 399.52 42.19 442.84 70.07 535.25 68.43 529.47 180.77 560.27 186.51 698.89 188.15 799 212.76 786.49 373.51 784.56 592.54 650.76 746.8 714.29 771.41 676.75 822.29 641.13 887.94 604.55 907.64 563.16 868.25 535.25 871.53 515.03 846.91 447.65 911.74 479.42 935.55 456.31 955.24 456.31 1107.09 232.99 1066.87 164.64 1105.45 95.34 1126.79 49.13 1135 16.4 1052.92 72.23 1033.22 78.01 967.55 93.41 952.78 81.86 934.72 104.96 916.67 67.12 874.19 270.53 645.87 87.63 632.75 131.91 252.12 1 156.99 68.38 86.47 205.68 1 Z"/>
</g>
</svg>