<?xml version="1.0"?>
<svg xmlns="http://www.w3.org/2000/svg" version="1.2" baseProfile="tiny" fill="#f9c113" width="800" height="1174" viewBox="0 0 800 1174" stroke-linecap="round" stroke-linejoin="round">
<g fill="#c0392b" id="id_195">
<path d="M 649.44 417.87 670.82 424.25 680.9 428.72 690.34 432.62 701.1 439.75 681.33 452.54 667.14 460.61 659.52 469.13 653.05 472.81 645.09 473.75 643.31 480.74 647.75 493.73 657.32 510.55 662.33 531.36 668.94 545.03 678.25 558.63 688.45 569.48 704.2 584.89 722.49 594.69 748.36 613.14 755.52 618.89 768.9 631.06 778.17 642.53 784.39 655.83 790.66 672.89 792.58 678.16 795.95 687.4 799 707.14 791.34 725.67 783.46 732.92 770.76 736.68 756.92 737.74 732.1 737.06 714.66 733.34 700.1 732.29 671.77 731.61 655.39 738.75 620.12 739.54 603.01 738.86 584.05 754.96 564.91 769.24 552.72 781.01 541.83 796.73 531.42 812 528.5 822.38 526.17 842.39 523.54 853.9 524.26 869.1 527.95 879.37 529.22 886.25 526.21 895.51 518.08 902.54 501.19 905.93 497.51 914.7 493.57 928.13 487.56 937.43 482.05 947.47 463.55 964.97 431.32 976.33 416.58 986.04 392.24 1007.99 376.95 1021.27 365.65 1022.22 358.07 1021.95 331.95 1023.12 320.77 1021.61 312.18 1016.31 309.93 1014.54 295.79 1014.23 288.3 1015.36 292.32 1029.59 291.85 1033.92 289.31 1044.01 292.57 1055.01 298.41 1066.94 282.66 1076.05 278.6 1083.96 284.15 1105.88 282.75 1126.71 283.51 1141.32 274.32 1156.76 272.1 1171.76 259.19 1173 234.88 1172.56 220.69 1150.98 216.97 1146.79 212.69 1135.42 205.76 1122.62 187.01 1114.82 181.84 1112.71 169.31 1102.66 165.92 1097.58 141.24 1084.32 122.44 1080.44 111.94 1076.38 104.02 1072.31 96.7 1066.62 88.91 1063.57 86.24 1051.11 81.47 1042.67 46 1026.97 33.73 1025.08 23.23 1027.19 22.97 1023.24 25.34 1017.74 28.82 1013.64 30.3 1003.06 29.11 991.02 18.27 986.54 8.83 984.51 8.75 974.91 7.9 970.39 2.44 964.97 1 956.24 26.91 941.6 32.2 950.37 57.48 940.81 47.83 931.93 43.51 922.41 45.88 900.63 67.43 873.61 80.26 851.46 88.85 852.5 94.74 846.85 102.91 828.72 116.37 781.26 120.48 763.18 123.53 749.83 132.89 732.42 137.16 729.19 141.31 709.11 143.22 703.1 164.3 701.18 185.3 702.5 208.33 701.93 216.89 701.45 221.46 698.78 219.51 693.51 218.79 685.47 218.49 679.83 216.04 668.48 189.96 669.31 167.94 669.8 163.79 667.58 151.05 659.8 135.21 645.75 123.66 628.23 115.06 614.89 133.18 585.51 145.59 571.8 148 562.48 153.67 551.51 163.33 542.76 165.87 524.36 168.83 516.54 169.68 511.96 183.61 499.79 195.04 489.05 197.71 479.7 199.15 467.39 202.91 451.58 208.5 443.17 217.22 422.6 222.47 417.49 226.03 410.17 237.46 393.65 251.01 386.52 252.24 382.09 261.98 375 256.35 365.35 258 358.82 256.22 349.63 265.66 335.7 266.93 328.65 269.89 319.12 274.68 316.04 291.53 311.39 296.36 309.55 297.16 306.4 298.6 299.76 300.46 294.54 309.82 288.16 324.98 268.32 332.09 257.81 337.38 242.73 337.68 233.77 337.64 227.62 339.12 216.51 334.59 202.15 329.68 194.65 326.25 180.17 324.89 164.46 321.12 151.6 322.27 138.48 322.48 134.5 319.52 116.17 315.45 103.69 307.28 93.27 303.55 84.87 308.72 81.2 311.58 79.57 317.1 76.44 322.65 72.54 332.85 79.51 339.67 82.51 347.46 87.08 352.24 89.33 361.39 88.66 367.91 85.88 381.54 84.23 386.83 84.23 403.98 80.75 409.1 76.02 422.19 65.68 433.91 48.14 444.84 35.55 459.19 17.9 475.66 8.04 479.68 5.2 489.55 1 493.05 6.79 500.67 9.19 511.6 11.07 524.09 11.78 527.43 17.29 540.85 23.73 535.74 46.13 536.63 59.64 539.33 89.86 538.43 104.96 540.23 131.21 554.6 152.68 566.27 163.02 576.15 178.13 603.09 178.13 599.5 205.98 614.77 225.86 629.14 237 585.13 251.33 570.93 278.88 567.49 287.85 566.86 288.3 563.17 289.05 563.13 286.2 565.33 284.36 564.91 281.51 563.64 280.42 565.08 277.83 561.35 275.92 564.44 270.48 560.93 269.13 556.44 268.26 555.3 269.65 552.34 270.03 552.38 268.23 554.79 264.55 550.56 263.69 551.91 262.64 555.68 261.92 555.72 258.47 553.27 257.72 547.89 258.43 547.21 262.41 535.65 264.29 535.82 266.2 537.6 266.39 537.31 269.46 532.06 269.61 531.34 270.29 530.66 269.73 530.49 267.1 531.12 266.61 530.62 264.85 526.47 265.6 526.59 266.91 523.21 268.68 523.16 269.69 527.57 270.55 529.35 280.34 521.22 281.47 515.76 281.39 515.92 280.23 511.9 279.74 510.97 287.43 509.02 287.36 509.02 285.71 507.03 285.48 507.33 282.52 504.07 282.41 503.82 286.53 504.49 292.54 505.51 292.87 504.2 294.15 503.43 294.07 501.23 297.38 498.57 297.9 499.41 302.59 498.95 303.72 497.46 305.18 492.3 302.07 484.38 298.43 479.98 296.66 478.67 298.28 477.27 298.58 475.66 301.05 474.35 300.87 473.97 301.39 471.55 301.17 470.58 301.88 467.95 301.65 466.35 304.02 469.44 306.46 472.44 305.74 474.05 305.89 474.86 305.26 476.25 305.74 475.07 307.62 473.46 306.98 465.67 312.83 464.91 311.9 465.5 310.21 459.11 308.26 457.75 311.97 456.73 312.87 453.6 312.53 451.53 316.7 456.48 319.36 469.94 318.5 470.62 320.26 473.97 319.89 474.01 319.25 476.17 319.4 476.34 320.15 477.61 320.26 474.9 323.49 479.26 326.08 478.58 326.94 477.18 326.34 475.53 328.6 476.8 329.16 478.16 328.18 481.55 329.53 479.6 332.54 480.53 333.51 483.11 332.24 482.35 331.3 483.32 329.91 485.06 330.55 487.94 329.2 488.83 329.76 488.23 334.19 486.92 334.86 487.05 336.51 487.81 336.7 492.55 335.54 494.12 334.6 495.98 336.51 494.2 338.24 489.38 344.99 486.88 349.24 485.53 352.31 483.7 357.87 482.73 362.75 479.69 365.12 478.63 365.1 478.22 366.55 476.7 366 477.2 364.85 476.16 364.61 475.93 365.34 474.5 365 475.3 363.15 473.8 362.91 473.85 361.36 474.39 360.04 470.3 358.59 468.37 357.79 467.76 357.65 466.79 357.88 466.51 359.4 466.3 361.32 470.58 362.03 471.05 363.5 470.07 366.05 468.34 365.19 467.57 363.38 466.26 362.93 464.69 363.61 463.42 363.01 464.23 360.87 464.95 360.27 465.96 357.75 463.09 357.19 462.79 360.91 460.71 360.49 459.49 362.56 462.41 363.42 462.07 364.43 464.14 365.45 463.59 367.17 462.66 372.05 464.02 374.57 460.46 376.82 458.26 378.92 459.61 380.65 465.24 377.31 467.32 380.27 469.01 380.24 469.56 382.56 468.25 384.14 469.31 385.49 471.6 383.01 471.09 379.49 471.85 378.1 470.88 376.3 472.06 375.66 478.12 381.02 489.76 380.42 488.07 383.09 494.08 386.05 492.85 388.49 497.17 390.22 483.66 406.32 485.57 406.89 485.31 408.01 488.79 409.21 490.39 406.25 492.93 405.39 493.53 404.6 495.05 404.82 496.41 403.02 497.8 403.47 499.58 404.6 502.12 403.66 502.71 400.09 498.57 399.34 496.87 398.4 495.39 396.49 495.98 395.33 497.89 395.59 499.03 394.27 503.01 394.8 503.69 393.9 505 393.79 504.45 397.73 507.24 398.63 507.46 399.75 509.79 400.58 507.96 406.66 512.58 407.49 514.02 403.1 516.56 403.62 519.02 403.47 521 402.91 523.33 395.29 521.05 393.9 523.12 388.31 525.83 388.87 527.53 385.15 530.45 385.64 531.17 381.74 535.4 382.6 536.12 379.5 532.07 378.81 532.52 376.71 534.55 373.29 535.1 368.34 531.97 368.26 531.42 368.94 529.9 368.6 528.16 367.55 533.24 361.24 536.67 360.94 536.63 363.16 539.38 364.1 540.44 366.5 542.17 366.95 544.93 366.57 544.8 368.9 543.32 369.2 542.3 373.33 543.61 373.86 545.9 371.72 547.42 371.53 548.82 371.12 549.46 371.94 552.93 373.03 553.73 375.09 555 376.48 556.36 376.78 557.37 376.3 553.39 367.14 557.92 365.9 578.35 371.85 585.55 371.47 595.12 372.67 601.56 370.68 606.55 369.37 611.21 369.41 629.46 374.7 636.44 377.33 634.03 385.92 639.7 404.09 645.04 413.25 649.44 417.87 Z"/>
</g>
</svg>