<?xml version="1.0"?>
<svg xmlns="http://www.w3.org/2000/svg" version="1.2" baseProfile="tiny" fill="#f9c113" width="800" height="726" viewBox="0 0 800 726" stroke-linecap="round" stroke-linejoin="round">
<g fill="#c0392b" id="id_133">
<path d="M 79.73 260.12 84.24 237.41 93.82 235.96 93.82 223.39 100.02 219.05 100.59 205.03 90.72 192.35 87.34 182.69 89.53 171.59 92.38 159.83 79.69 148.73 73.73 154.73 32.55 138.97 21.67 141.19 28.4 128.54 27.11 119.88 41.35 118.11 41.35 120.55 59.49 126.54 79.17 91.93 85.65 91.04 90.57 95.92 87.72 109.01 102.23 103.91 111.81 91.26 125.54 90.82 150.66 76.18 152.48 74.85 161.46 74.17 161.46 79 159.77 81.89 163.15 85.27 190.77 69.83 199.23 69.83 204.3 69.34 215.01 75.14 218.95 72.24 231.35 81.89 232.48 78.03 240.81 76.18 230.19 66.2 238.48 58.43 261.27 67.08 280.18 58.88 290.54 65.75 299.61 61.54 300.64 48.01 314.63 33.15 304.01 23.17 307.22 20.29 329.91 23.06 330.04 36.26 335.22 40.8 392.34 4.33 409.43 9.87 427.31 9.98 440.26 1 474.32 20.07 481.06 11.64 499.45 35.81 504.24 20.18 519.37 14.28 519.13 20.07 530.14 40.36 513.05 53.11 500.87 60.1 490.77 70.41 527.03 100.14 527.03 104.69 545.55 109.57 546.98 122.33 550.35 135.75 544.39 147.4 556.56 155.61 556.88 154.68 558.12 158.06 584.02 170.21 582.6 200.23 593.93 205.45 590.76 247.75 619.25 281.73 605.26 289.51 591.01 286.17 574.7 285.51 577.54 299.5 554.75 303.95 522.11 292.62 512.01 310.83 531.96 323.72 531.96 336.16 539.21 341.72 537.14 347.94 549.83 367.06 560.19 356.83 567.96 359.05 577.54 350.83 586.35 359.5 587.91 370.61 580.91 378.84 588.68 390.17 598.01 395.51 603.19 403.73 596.97 420.63 601.38 426.19 610.44 424.41 615.36 420.19 623.13 431.97 654.22 432.19 655.77 425.08 656.03 406.85 659.92 398.62 670.54 394.17 686.08 401.51 706.54 392.17 713.28 397.51 709.13 410.63 718.72 423.52 723.38 419.96 737.11 423.97 736.33 440.42 712.76 458.43 712.76 492.24 729.6 494.24 732.96 504.26 737.37 508.26 735.55 516.49 741.51 525.17 736.59 532.73 749.28 546.31 752.65 556.54 775.18 574.13 780.61 574.64 780.67 574.81 780.1 575.69 780.24 576.35 780.24 577.41 781.18 578.27 782.89 579.47 784.33 580.12 786.04 581.41 791.75 584.54 799 590.73 793.11 596.18 791.24 597.96 788.02 594.81 783.65 591.14 780.97 588.11 780.58 590.59 779.92 591.73 779.64 592.03 779.09 593.07 778.36 593.33 775.51 595.93 772.3 592.65 770.99 592.56 772.02 598.86 770.38 601.11 769.77 603.37 768.69 605.27 768.33 605.32 766.41 607.17 764.59 608.06 761.78 608.93 761.29 609.31 760.03 609.82 759.51 609.99 758.17 610.12 757.34 610.04 752.42 609.17 750.97 608.85 747.24 608.18 745.78 607.61 744.45 606.87 740.13 605.64 738.62 605.62 737.26 605.62 734.22 605.97 732.54 605.59 729.89 605.61 735.36 607.99 735.17 610.32 732.84 610.02 731.85 610.04 730.59 609.74 715.6 607.77 715.37 607.89 715.01 608.29 713.05 610.8 712.03 611.33 711.31 611.63 710.83 613.28 709.46 615.17 708.34 615.95 707.4 616.51 707.3 616.63 707.18 616.91 706.61 619.02 706.28 619.97 706.73 621.21 707.14 622.61 707.72 625.81 704.11 625.45 704.03 625.82 703.23 626.8 702.7 627.61 701.21 630.74 701.08 631.31 700.85 633.37 700.82 635.05 699.79 640.13 699.37 641.45 698.86 642.58 698.77 643.28 698.62 644.18 698.61 644.92 698.63 645.36 698.39 646.63 698.16 647.52 695.62 651.82 695.33 653.55 694.88 655.71 694.38 655.74 693.56 656.81 691 658.55 690.69 658.57 689.49 660.28 688.65 660.78 687.75 661.41 685.66 663.01 683.7 664.57 681.06 669.19 679.06 672.85 679.32 674.66 676.35 678.99 675.52 679.99 673.69 682.59 673.35 682.87 670.19 684.28 669.75 684.84 668.48 685.91 667.3 686.96 665.07 688.8 663.41 689.85 662.23 690.8 662.06 691.11 661.9 691.59 661.94 692.56 661.45 693.8 660.37 695.02 654.98 699.58 651.87 700.24 650.39 700.64 648.17 701.36 646.06 702.07 645.54 702.35 643.41 703.09 638.76 704.76 636.85 705.39 636.42 705.6 636.08 705.9 635.7 706.44 632.71 710.35 631.01 713.45 630.15 715.05 628.26 716.17 625.89 717.6 624.02 719.15 622.46 719.99 620.95 721.97 620.17 722.53 619.7 722.67 617.76 725 614.06 724.78 613.44 724.65 611.29 721.95 603.29 713.36 591.32 699 582.34 693.61 572.16 682.24 569.17 669.68 560.79 658.91 545.23 655.92 545.23 640.36 541.04 628.39 539.84 615.22 529.67 609.24 517.1 599.66 508.72 588.29 496.15 576.92 482.98 568.54 472.21 560.17 476.4 554.18 479.39 542.21 476.99 527.85 472.21 511.69 464.42 499.73 442.88 496.73 423.12 495.54 405.77 491.95 397.99 483.57 381.23 474.59 381.23 466.21 383.02 458.43 383.02 450.06 378.83 442.28 368.06 442.88 360.88 445.87 356.09 453.65 346.51 454.84 341.72 463.22 338.73 457.84 338.73 450.06 331.55 445.27 320.17 438.69 307.6 438.69 296.23 439.28 286.65 435.1 277.68 430.91 274.68 418.94 274.09 404.58 268.1 403.38 251.94 395.6 244.16 395.6 242.36 401.58 233.98 408.17 221.41 408.17 208.84 408.76 198.07 409.36 186.1 401.58 158.56 400.99 135.82 399.19 129.83 386.62 130.43 362.09 118.46 343.54 98.11 317.8 80.75 286.69 28.08 298.06 12.52 292.67 1 282.85 7.02 264.95 37.46 264.95 38.59 261.09 79.73 260.12 Z"/>
</g>
</svg>