<?xml version="1.0"?>
<svg xmlns="http://www.w3.org/2000/svg" version="1.2" baseProfile="tiny" fill="#f9c113" width="800" height="725" viewBox="0 0 800 725" stroke-linecap="round" stroke-linejoin="round">
<g fill="#c0392b" id="id_154">
<path d="M 182.99 468.46 180.5 463.46 177.05 460.04 176.37 455.63 177.24 452.04 173.3 451.04 168.22 452.13 165.72 451.38 164.09 448.55 163.42 447.13 160.45 444.3 158.24 443.38 155.75 442.3 153.92 440.72 150.09 439.97 148.84 438.63 149.03 436.13 145.39 435.55 140.49 435.3 136.08 435.3 133.11 438.38 130.61 437.3 127.64 436.22 123.9 435.3 119.29 432.88 112 427.89 105.86 421.97 99.91 418.23 97.99 420.06 98.28 422.14 94.83 425.39 92.24 427.89 91.56 435.63 86.67 438.72 77.37 439.22 75.64 443.05 69.69 441.96 63.55 442.8 61.82 444.13 59.43 441.21 59.23 435.38 57.03 436.22 54.72 434.55 51.75 430.89 48.39 427.14 46.76 420.31 45.42 414.89 45.42 407.81 38.9 402.4 33.71 401.07 32.66 398.32 33.43 391.49 32.37 381.91 31.8 373 31.89 370.51 46.09 369.84 52.61 371.51 52.23 366.34 49.83 361.76 52.61 356.69 52.71 348.78 47.91 349.19 45.8 347.03 48.11 344.53 46.09 340.78 46.67 336.54 46.86 329.8 47.82 327.46 55.88 324.47 62.4 324.22 62.69 329.71 66.91 328.13 76.41 330.96 82.26 330.29 84.56 329.3 84.56 325.47 82.07 320.47 80.34 317.81 79.28 307.65 79.96 305.41 71.51 305.07 68.25 302.33 64.7 301.58 62.3 299.83 55.49 300.41 54.63 304.91 47.24 305.41 43.88 306.24 43.4 310.57 38.61 311.23 37.26 313.48 34 316.06 19.9 315.23 16.73 314.4 14.53 309.32 12.22 307.32 10.02 304.91 9.25 294.25 6.47 292.76 2.92 292.59 1.38 289.68 1 285.43 5.61 284.85 13.86 283.68 13.28 279.02 17.21 276.36 29.97 276.11 30.07 267.62 25.75 267.04 26.33 262.21 28.73 257.14 32.85 255.97 40.05 255.31 40.33 251.32 40.72 249.32 42.45 247.4 42.35 240.42 39.95 238 39.66 234.51 35.06 234.51 33.43 230.1 29.11 228.77 31.12 225.03 29.21 222.28 33.81 218.87 34.67 214.79 38.42 213.96 41.87 212.96 45.42 211.22 54.05 210.55 56.26 207.56 59.62 206.47 60 202.73 65.57 201.9 66.43 197.08 68.54 193.58 73.14 192.17 76.31 189.01 76.5 182.02 75.16 178.94 76.6 176.03 86.38 176.03 87.25 171.21 86.48 163.39 85.9 155.91 85.33 153.75 82.35 152.75 81.01 153.66 80.34 160.15 72.76 160.32 71.23 158.65 67.39 158.07 65.09 155.74 61.44 155.24 59.23 151.92 59.71 145.93 63.46 144.35 64.8 137.7 66.62 134.29 72.28 136.45 77.94 136.45 80.72 134.21 86.38 135.21 87.54 133.96 86.48 130.88 95.02 130.88 94.44 135.79 98.57 136.04 99.91 130.55 99.62 123.98 101.45 114.84 104.8 104.7 107.39 98.54 104.8 91.89 101.39 88.63 115.23 84.79 115.23 72.49 107.54 63.26 117.54 55.58 104.47 44.05 107.54 32.51 131.39 17.14 151.38 13.3 150.61 1 160.61 1 172.92 13.3 202.16 10.3 204.45 24.06 204.45 30.98 214.45 29.44 222.91 30.98 231.37 30.98 237.53 20.99 240.6 32.51 226.76 38.66 230.61 49.43 238.3 59.42 259.06 67.87 281.37 75.56 301.37 89.4 320.59 80.17 334.44 69.41 355.98 60.19 371.36 60.19 388.28 68.64 405.2 74.79 413.66 74.79 439.04 71.72 454.42 64.8 457.5 70.95 451.35 79.41 442.89 84.02 439.04 93.24 439.81 106.31 449.04 113.99 463.66 116.3 479.04 113.23 495.19 121.68 498.27 140.9 485.96 129.37 479.04 125.53 469.81 123.99 452.12 126.3 446.73 132.44 443.66 141.67 442.89 156.27 451.35 161.65 455.96 158.58 459.81 154.74 462.89 150.89 472.12 149.35 475.19 157.81 475.19 174.72 482.11 177.03 485.96 175.49 494.42 174.72 497.5 173.95 502.88 170.11 511.34 171.65 508.26 184.72 508.26 188.56 510.57 193.17 520.57 190.86 535.95 200.09 548.26 220.84 557.49 231.6 567.49 240.83 585.18 248.52 604.41 254.66 604.41 268.5 598.25 266.96 591.33 262.35 579.8 260.81 575.18 268.5 569.8 284.64 562.87 294.64 555.18 297.71 545.95 302.32 537.49 303.09 524.43 310.01 522.12 321.54 518.27 333.07 531.35 336.91 539.04 330 548.27 330 548.26 344.6 552.11 349.98 556.72 349.21 558.26 344.6 562.1 336.14 569.03 334.61 572.1 334.61 578.26 349.21 585.18 360.74 594.41 358.44 607.48 359.97 606.71 370.74 607.48 383.03 608.25 394.56 610.56 407.63 620.56 408.4 633.64 409.94 643.63 416.86 649.02 417.62 662.86 416.09 679.01 420.7 688.24 433.77 697.47 436.07 709.78 435.3 720.55 435.3 732.85 439.92 730.55 452.98 719.01 449.14 712.09 447.6 706.7 455.29 709.78 466.82 719.01 480.66 736.7 479.89 755.93 480.66 764.39 476.04 768.23 467.59 772.08 462.21 777.46 455.29 778.23 466.82 788.23 472.97 799 480.66 792.85 489.11 783.62 492.19 776.69 510.64 775.93 522.93 785.15 536 792.85 546 785.92 557.52 780.54 566.75 772.7 566.28 762.83 565.19 748.73 557.6 737.34 554.34 737.88 565.73 751.44 571.69 743.85 586.32 741.68 610.17 746.56 626.98 731.92 638.36 717.28 639.44 704.25 638.9 690.15 634.02 688.52 623.72 681.47 610.72 677.13 602.58 666.29 598.25 654.36 605.84 648.94 619.93 644.6 629.14 640.8 646.49 631.04 646.49 622.36 648.12 610.97 648.12 592.53 649.2 582.76 644.86 577.88 637.28 575.17 623.72 568.12 617.76 559.45 622.1 550.23 625.89 541.55 632.4 530.7 627.52 525.27 619.93 511.17 619.93 500.33 619.39 488.94 626.43 481.89 633.48 487.32 641.07 493.82 654.08 502.5 653.54 512.81 664.38 520.4 671.42 531.25 680.1 534.5 687.68 535.59 700.15 531.25 705.57 516.05 701.23 509.55 694.19 500.87 684.97 490.56 675.76 485.15 676.84 484.6 688.23 485.15 699.61 485.15 707.2 482.98 716.96 474.3 724 465.61 721.83 463.44 709.37 463.99 695.81 463.99 666.55 454.22 656.25 441.21 650.28 431.45 650.28 426.57 657.33 419.52 667.63 421.15 681.72 426.57 693.11 425.49 700.69 414.63 700.15 404.87 700.15 396.73 694.19 394.51 688.35 392.42 683.04 390.72 673.45 385.39 665.97 373.01 665.38 367.51 665.46 359.86 665.46 345.76 666 333.29 670.34 325.15 679.55 321.35 692.56 315.93 701.23 308.34 712.08 301.29 716.96 292.07 722.37 280.13 721.83 267.11 715.33 260.6 705.03 248.13 694.73 237.28 685.52 230.06 682.48 231.44 680.47 240.84 680.14 238.45 675.97 235.38 671.38 240.36 672.71 245.26 676.47 246.98 676.47 250.73 678.72 254.08 678.97 257.82 676.22 257.44 672.3 254.37 671.3 249.67 670.79 248.71 667.87 247.46 664.29 244.2 660.37 246.22 657.36 251.11 658.95 260.22 662.87 263.87 663.79 265.4 661.95 263.77 659.37 265.5 657.61 268.09 655.86 268.57 638.85 265.98 630.34 269.53 631.67 277.3 633.59 279.79 631.67 279.99 626.34 278.55 620.08 275.57 621.33 271.74 620.58 270.3 617.75 270.68 614.99 268.09 611.74 261.09 609.57 255.43 604.15 251.59 601.32 244.59 601.65 240.36 603.57 236.72 599.9 232.4 599.48 234.61 590.15 235.95 588.73 233.17 586.31 232.98 583.39 229.62 583.64 229.91 578.47 222.71 580.47 213.02 586.48 201.89 589.65 196.14 590.98 195.08 592.56 186.64 594.4 182.32 596.9 180.5 589.15 168.12 588.81 165.24 591.73 163.42 594.4 160.45 590.65 159.87 585.64 156.71 583.56 156.13 581.22 151.91 578.72 150.09 575.3 146.25 572.55 147.98 570.22 149.51 567.3 150.37 565.22 154.12 563.13 152.87 558.46 155.12 553.59 157.47 551.88 157.95 548.79 159.49 547.13 159.97 544.46 163.23 542.88 162.85 536.54 161.89 528.29 160.45 525.37 161.02 521.21 160.64 517.62 166.01 513.54 167.55 507.95 171.67 510.2 176.37 508.62 177.91 503.04 178.68 498.37 177.81 494.62 177.72 491.79 179.54 487.95 177.52 484.7 172.73 480.71 169.85 478.29 168.7 476.29 171.38 474.12 177.14 473.96 182.51 472.87 182.99 468.46 Z"/>
</g>
</svg>