<?xml version="1.0"?>
<svg xmlns="http://www.w3.org/2000/svg" version="1.2" baseProfile="tiny" fill="#f9c113" width="800" height="666" viewBox="0 0 800 666" stroke-linecap="round" stroke-linejoin="round">
<g fill="#c0392b" id="id_158">
<path d="M 495.96 56.21 515.77 49.61 515.77 49.64 519.18 48.51 532.22 58.52 537.16 54.96 543.02 50.78 552.26 47.71 560.05 44.05 563.78 42.34 562.25 28.49 565.33 20.03 578.4 19.26 589.17 7.73 603.79 3.89 621.86 1 621.85 1.05 627.32 6.41 630.67 10.83 646.89 17.67 650.71 18.3 661.52 20.05 668.58 19.44 670.43 25.36 674.55 27.02 689.33 34.14 692.59 43.51 697.58 44.42 706.5 42.68 702.28 50.31 697.77 62.16 700.46 71.28 711.59 85.54 724.54 95.24 724.83 102.29 732.89 103.28 730.68 115.55 732.41 120.69 729.34 125.25 729.53 139.6 747.47 135.37 747.28 140.68 739.03 144.83 727.23 157.1 725.41 163.66 726.27 170.29 728.96 173.78 728.28 182.49 723.58 193.85 720.7 207.13 714.56 213.43 713.99 220.73 717.15 221.23 733.66 218.08 741.81 216.25 749.59 210.44 757.36 204.89 764.07 203.56 763.79 218.33 766.66 223.64 765.32 229.78 769.74 232.02 785.09 228.95 794.01 227.95 798.33 229.86 798.9 233.93 799 239.49 798.04 242.81 783.26 243.55 764.46 247.04 747.95 248.04 738.17 250.69 737.21 258.66 736.25 268.29 733.27 272.44 729.15 273.1 725.79 279.41 721.66 280.49 714.28 283.48 700.17 284.64 699.88 287.05 701.23 297.84 698.35 307.39 699.12 315.36 700.36 326.32 698.35 334.29 698.83 346.41 707.85 341.6 714.85 343.09 726.27 343.84 738.84 340.27 752.18 339.77 764.84 342.18 778.08 343.59 787.58 349.65 792.86 355.13 792.28 360.45 788.35 364.27 782.02 365.6 767.53 369.34 759.56 373.65 753.62 375.15 744.12 373.9 736.06 374.49 713.6 379.22 702.28 384.2 701.32 390.18 691.25 395.33 678.58 402.73 668.51 409.62 655.27 410.87 648.36 413.78 638.67 419.68 633.48 423 627.92 424.91 616.02 423.58 611.32 428.32 603.84 431.81 596.45 436.54 596.26 440.86 597.6 443.69 600.96 455.57 601.82 463.72 602.01 474.77 607.87 480.01 625.62 483.33 622.35 493.72 631.37 501.87 632.43 495.55 635.21 493.72 636.94 485.08 641.93 482.92 644.42 485.41 657.47 490.65 669.27 492.22 678.29 495.72 688.18 497.38 725.98 497.54 743.83 500.04 751.79 502.2 754.77 509.76 751.7 519.82 752.08 535.95 749.78 540.11 751.98 545.43 756.88 556.57 757.07 573.7 755.89 580.32 743.79 569.68 737.64 561.22 717.64 565.06 707.64 572.75 699.17 585.05 689.94 596.58 675.33 595.05 663.02 588.9 655.33 584.28 639.17 587.36 633.02 598.89 617.63 604.27 609.94 614.26 594.56 624.26 597.63 640.4 590.71 650.4 577.63 638.86 573.79 633.48 567.63 635.02 566.09 638.86 577.65 650.41 570.71 649.02 562.25 649.02 551.1 647.87 547.63 647.32 536.09 645.78 518.4 638.86 508.4 635.79 503.78 636.56 493.01 639.63 490.71 648.86 479.94 660.39 469.94 665 457.7 656.91 444.65 653.5 441.97 643.27 439.09 639.77 414.72 638.02 410.49 635.28 415.39 629.87 416.06 625.3 404.83 624.71 394.09 621.05 387.56 616.06 372.02 618.64 357.53 612.82 357.34 607.74 352.92 605.58 350.05 593.27 352.83 588.11 333.93 592.11 329.32 586.7 329.22 568.4 326.73 562.08 325.39 548.45 336.61 540.38 341.51 533.48 330.47 533.4 327.59 528.16 336.71 525 341.12 521.01 342.56 511.78 328.46 505.46 321.84 501.39 319.05 488.42 315.31 482.02 308.31 480.28 282.98 485.84 280.39 490.33 276.83 489.34 274.34 481.94 261.29 478.12 258.6 471.96 244.5 470.72 245.36 475.87 241.62 477.87 237.3 476.7 233.27 479.53 233.18 483.93 225.98 491.58 224.73 496.4 230.11 498.73 230.2 505.55 217.06 517.85 219.55 525.5 219.07 532.23 217.54 551.52 212.67 553.85 199.62 549.69 193.09 549.36 172.75 557.68 148.96 563.16 145.5 552.85 145.89 546.37 151.45 541.88 140.51 539.05 129.38 534.23 128.61 517.43 123.24 510.62 122.47 504.46 115.95 499.64 109.04 505.13 106.93 509.95 99.45 509.95 99.06 504.8 91.77 503.47 91.96 497.65 86.78 497.15 86.01 493.66 75.07 492.99 75.27 488.5 69.13 488.01 67.97 484.85 62.22 484.85 60.68 489.83 56.27 478.03 49.36 473.71 54.16 464.9 62.79 458.58 69.89 458.58 66.82 450.11 67.4 430 61.64 438.81 56.46 439.8 46.86 436.48 37.08 438.14 23.84 436.98 19.42 440.8 11.36 440.97 6.57 436.65 7.52 429.17 12.71 427.84 8.48 419.03 4.07 414.71 2.34 407.9 5.41 403.25 5.99 387.13 1 382.65 1.19 377.16 4.84 375.17 12.13 374.84 13.09 380.65 17.31 382.98 18.27 405.41 21.34 410.06 18.66 418.53 24.99 421.52 30.17 420.03 35.35 411.39 40.53 408.07 50.13 411.06 67.01 410.39 61.26 403.25 72.2 401.92 81.41 396.44 89.47 388.13 95.8 385.64 110 382.65 126.12 376.33 156.63 363.38 195.78 351.58 209.41 341.62 219.96 338.46 235.5 326.01 262.37 317.54 294.8 299.6 293.65 297.45 289.43 295.79 290.96 289.31 281.18 289.64 279.64 284.66 265.44 284.99 265.63 269.22 266.59 257.77 289.81 254.12 285.4 246.81 292.12 241.67 291.92 233.2 278.82 232.32 286.86 226.82 293.53 218.73 297.61 213.81 306.09 194.54 316.68 172.61 317.33 171.69 335.31 153.73 356.14 146.89 373 146.1 384.61 152.3 396.09 155.33 400.77 153.63 404.49 152.3 404.48 152.28 404.55 152.25 386.09 133.81 381.47 114.59 386.08 96.16 400.68 86.97 411.81 92.17 415.32 93.83 431.48 93.83 457.63 85.37 464.62 76.16 480.71 74.61 483.86 60.75 495.96 56.21 Z"/>
</g>
</svg>