<?xml version="1.0"?>
<svg xmlns="http://www.w3.org/2000/svg" version="1.2" baseProfile="tiny" fill="#f9c113" width="800" height="472" viewBox="0 0 800 472" stroke-linecap="round" stroke-linejoin="round">
<g fill="#c0392b" id="id_190">
<path d="M 357.8 143.02 403.13 118.95 419.44 89.75 438.81 46.65 459.67 26.07 481.53 13.63 491.05 8.21 525.24 2.51 543.05 2.89 564.38 3.35 575.87 3.07 662.09 1 669.86 19.68 660.73 23.7 661.39 27.14 663.34 31.16 667.91 31.16 671.17 34.03 671.82 38.05 671.17 39.77 667.26 42.64 663.99 40.92 660.08 46.09 661.39 50.11 661.39 54.7 665.3 58.72 671.82 58.72 676.39 58.15 682.26 57.57 688.78 58.72 695.95 61.59 705.74 62.74 714.87 62.74 720.08 65.61 731.17 65.61 748.13 69.63 749.43 77.1 744.87 84.57 744.87 90.89 742.91 96.63 740.3 105.25 757.26 112.14 764.43 116.17 760.52 127.09 758.56 133.41 756.61 142.03 755.3 155.82 757.91 165.6 763.13 173.07 768.35 180.55 774.22 186.3 784 196.65 785.96 202.97 797.7 210.45 799 217.93 772.26 217.93 772.91 225.41 771.61 232.31 773.56 243.24 788.56 265.69 754.65 255.9 737.03 280.26 735.21 279.69 731.33 280.46 726.26 282.15 722.04 282.95 716.84 281.78 710.81 280.66 701.57 278.14 686.14 272.07 681.72 269.77 675.81 265.26 671.09 262.94 664.77 260.85 647.99 258.96 643.5 257.4 640.39 257.15 634.03 257.16 631.42 257.04 626.78 257.03 622.71 257.06 617.54 258.3 612.38 259.33 601.36 259.5 594.12 259.77 589.48 259.84 585.21 259.64 578.84 259.14 573.62 258.84 564.88 256.3 559.74 254.67 554.94 254.62 550.16 253.84 546.07 252.89 536.53 254.94 517.08 259.16 509.79 260.96 504.18 262.14 501.47 262.72 493.41 267.58 487.92 270.71 484.39 273.59 479.82 277.98 476.94 279.91 472.81 282.93 469.85 284.08 459.77 286.06 457.43 286.57 453.77 287.34 445.95 288.96 442.65 289.93 436.01 291.86 425.72 294.44 422.55 294.79 418.88 294.77 415.81 294.59 411.63 293.22 409.38 292.39 407.63 291.71 403.7 291.94 401.32 292.22 400.34 291.66 398.84 291.37 390.22 290.67 382.35 289.62 375.27 289.27 368.68 289.49 366.84 290.44 361 293.88 359.58 296.07 358.7 299.12 357.09 309.79 356.03 316.62 355.97 316.98 355.61 324.88 353.63 330.6 351.31 337.34 350.91 343.46 350.46 352.85 351.23 362.04 352.58 373.78 352.35 378.1 347.57 389.25 347.49 391.96 347.07 397.65 344.13 402.79 343.34 410.52 345.93 417.09 349.35 422.33 350.41 429.81 353.27 438.11 356.26 447.23 355.27 454.26 345.3 454.23 341.37 456.52 332.27 459.95 328.94 459.22 322.09 457.5 309.92 460.05 301.7 462.71 290.94 465.01 284.46 463.95 281.12 461.83 276.65 459.52 272.94 458.57 265.49 460.42 258.37 461.07 255.49 462.73 254.01 464.75 250.52 470.07 247.29 471 239.17 469.83 235.74 468.05 231.78 466.64 222.12 463.73 212.47 462.39 204.39 460.97 195.46 461.31 190.87 463.43 184.71 463.33 181.46 462.55 175.74 454.53 172.15 449.38 170.96 446.68 163.51 439.93 157.58 432.04 152.7 418.46 151.34 416.6 133.54 415.75 122.56 415.85 117.55 408.74 116.32 405.11 109.41 402.02 101.62 403.24 91.98 407.57 81.29 414.42 76.62 415.59 47.94 411.01 43.33 409.93 41.39 409.84 37.09 410.66 35.61 415.68 34.67 417.8 31.66 426.32 30.55 425.96 16.7 417.48 13.44 415.59 7.3 412.56 2.63 407.94 1 402.78 1.12 398.8 2.69 395.74 4.17 392.37 6.1 391.73 16.51 382.18 19.96 379.01 31.3 360.02 39.83 337.35 68.21 308.8 109.85 292.02 151.4 262.43 171.82 242.88 192.27 228.76 215.62 212.64 221.25 206.95 229.48 198.62 241.19 186.78 251.54 176.31 305.13 155.21 357.8 143.02 Z"/>
</g>
</svg>