<?xml version="1.0"?>
<svg xmlns="http://www.w3.org/2000/svg" version="1.2" baseProfile="tiny" fill="#f9c113" width="800" height="294" viewBox="0 0 800 294" stroke-linecap="round" stroke-linejoin="round">
<g fill="#c0392b" id="id_149">
<path d="M 319.64 209.74 304.39 215.2 297.32 211.99 289.51 205.24 277.23 202.99 267.74 197.52 264.58 186.11 262.91 177.11 251.37 172.61 240.21 166.18 240.21 159.75 227.94 171.65 227.57 179.68 220.87 186.11 213.8 187.72 201.9 189.65 188.5 195.43 180.32 201.86 178.83 212.47 181.81 219.54 181.06 226.29 171.76 229.19 159.11 227.26 153.53 220.18 150.93 213.76 143.49 208.29 143.49 196.4 140.88 184.83 134.19 174.54 127.86 169.4 98.84 169.72 89.91 161.68 91.03 151.08 79.87 150.75 74.66 143.04 71.31 136.29 77.64 131.15 77.27 119.26 78.75 110.9 88.05 100.3 88.05 89.05 82.47 84.87 66.85 84.55 58.66 76.84 57.55 67.52 40.81 69.44 29.65 67.84 17.37 62.7 1 62.37 3.6 54.02 9.56 43.41 15.51 38.92 26.3 36.67 39.69 44.06 48.99 50.48 68.71 45.99 76.89 47.27 84.71 53.38 92.89 54.98 104.8 58.84 112.61 63.98 117.82 62.37 122.65 50.81 131.21 43.41 139.39 45.66 146.46 53.7 166.55 55.3 170.64 61.41 174.74 68.16 205.62 67.52 216.78 62.7 222.36 51.45 229.05 42.13 235.01 41.49 239.47 50.16 247.28 54.02 254.72 45.99 256.96 33.13 265.14 28.95 278.9 29.28 298.99 35.38 313.88 36.02 313.5 47.59 323.92 52.09 345.13 55.3 356.29 64.62 375.26 69.77 395.72 72.98 421.39 67.19 428.46 54.02 424.37 44.06 418.04 41.81 409.86 34.74 405.02 27.03 397.58 33.45 394.98 43.41 390.51 39.56 386.05 31.2 388.65 23.49 390.51 15.78 389.03 8.71 393.12 2.29 408.37 1 418.04 1.96 426.97 11.92 444.83 17.39 455.34 19.92 457.76 25.86 462.59 26.99 454.6 34.22 463.9 40 478.78 42.89 487.71 53.5 509.1 64.74 521.75 68.92 536.44 63.78 550.21 53.98 563.6 50.28 574.2 52.69 574.76 43.05 574.2 35.5 580.15 33.73 586.85 36.31 586.29 44.34 592.25 50.12 604.34 54.14 617.54 53.98 624.61 53.01 623.12 75.83 615.87 86.28 597.83 93.99 595.97 103.95 594.11 115.2 596.52 123.56 589.64 130.95 587.97 138.18 577.55 152.8 578.11 160.68 585.18 161 594.11 163.89 606.75 172.25 622.75 173.53 630.94 183.18 638.75 181.57 649.54 177.71 656.23 172.25 658.84 161.32 675.58 148.14 667.77 144.93 654 143.96 642.1 141.71 635.4 132.72 627.22 124.68 642.1 111.5 664.79 110.54 681.9 112.15 696.04 113.75 703.85 108.93 709.43 91.9 715.01 85.79 716.13 78.72 724.32 73.58 722.83 65.87 703.85 58.8 715.01 48.52 736.59 43.37 744.78 49.8 755.94 53.98 762.91 59 760.31 73.14 766.45 82.46 775.75 89.53 774.45 96.44 777.05 104.15 783.37 112.67 781.51 118.61 781.14 126.49 786.54 131.47 790.26 138.38 787.47 145.13 791.93 151.88 799 159.11 798.26 169.88 797.88 176.31 786.17 179.68 783.19 183.06 781.33 190.29 777.61 195.91 773.33 196.4 767.94 199.77 768.68 204.75 766.82 213.59 755.84 217.45 740.03 218.9 727.38 217.93 718.83 216.33 703.02 218.9 686.65 227.58 677.16 225.81 662.47 222.92 636.24 216.97 628.8 209.09 612.06 201.38 582.67 198.33 579.32 210.7 576.34 228.38 571.32 233.2 564.44 239.63 562.95 250.08 558.48 261.17 547.7 266.64 527.98 271.46 516.44 275.32 507.89 285.28 498.59 292.36 487.05 293 472.55 292.04 460.64 286.25 449.48 284 445.76 274.35 449.48 263.1 445.02 259.56 436.83 259.24 429.76 260.53 426.04 258.6 419.35 258.6 412.65 252.17 411.9 242.85 405.95 241.88 397.77 244.13 398.51 251.53 391.82 260.53 389.96 274.03 380.65 270.5 376.93 263.42 373.96 253.78 369.49 244.46 371.35 235.13 364.29 225.49 357.22 216.49 346.43 214.88 335.27 208.77 319.64 209.74 Z"/>
</g>
</svg>