<?xml version="1.0"?>
<svg xmlns="http://www.w3.org/2000/svg" version="1.2" baseProfile="tiny" fill="#f9c113" width="800" height="503" viewBox="0 0 800 503" stroke-linecap="round" stroke-linejoin="round">
<g fill="#c0392b" id="id_1">
<path d="M 529.79 134.45 527.5 135.47 526.27 135.33 525.56 134.82 519.96 133.75 518.13 133.83 517.18 134.91 515.81 135.05 513.76 135.9 512.74 135.87 511.82 135.67 510.91 135.56 507.32 134.03 505.45 135.13 503.86 136.58 503.02 137.34 500.83 139.13 499.57 140.2 500.69 142.22 500.8 143.92 498.44 146.18 497.45 147.49 496.18 148.25 496.78 150.89 497.63 152.56 498.72 154.37 498.4 155.42 497.49 156.13 495.83 156.41 495.34 157.12 494.49 157.66 494.28 158.57 492.84 159.53 492.77 161.12 492.48 162.17 491 162.42 490.12 162.2 488.54 162.2 486.57 162.37 485.44 163.45 483.11 163.7 482.09 164.92 480.86 165.26 479.91 166.17 479.52 166.99 478.64 167.67 477.9 168.41 477.9 170.31 477.13 171.24 476.84 172.8 475.26 173.32 473.6 173.4 472.12 174.79 471.03 175.1 469.66 176.21 468.32 177 468.18 177.74 467.36 178.88 465.32 179.53 464.55 180.1 464.13 181.37 463.7 182 462.72 181.94 461.41 181.37 459.65 181.32 457.08 181.49 455.71 182.31 454.61 183.81 452.85 184.44 452.5 185.69 451.34 185.97 450.84 186.21 450.01 188.3 448.77 189.17 447.22 188.8 444.52 188.76 442.65 189.12 441.83 189.86 440.84 190.85 439.85 191.75 438.97 192.3 439.52 192.93 439.85 193.27 440.25 193.48 440.83 194.06 440.4 194.37 439.32 195.09 438.28 194.97 437.49 194.74 436.09 194.48 435.07 194.14 433.56 192.85 432.23 192.76 430.56 192.29 429.79 191.89 427.25 191.61 426.09 191.72 424.38 190.78 423.23 190.52 421.98 190.38 420.95 190.37 419.92 190.32 419.27 191.32 417.7 192.86 416.27 192.87 414.31 193.5 413 193.75 412.4 193.98 411.54 194.88 410.61 195.54 411.02 196.54 410.24 197.67 409.01 199.22 408.63 199.41 409.13 200.31 409.11 201.02 408.56 201.5 408.09 202.44 408.38 203.35 408.3 204.12 407.29 205.23 406.87 205.85 406.73 206.76 404.82 207.15 403.42 207.89 401.71 208.73 400.91 209.29 401.04 210.22 402.35 211.26 402.27 211.92 401.95 212.96 400.82 213.26 400.43 215.53 400.01 216.05 399.66 217.35 398.38 218.24 398.22 218.84 398.98 219.37 400.86 220.11 401.61 220.69 402.13 221.94 402.03 223.11 402.44 224.66 401.9 225.61 402.29 226.07 403.52 226.85 403.87 227.66 404.72 229.91 402.07 231.41 400.28 232.08 399.73 233.03 397.85 233.63 396.71 235.05 396.24 236.33 395.3 236.92 394.66 237.83 394.42 239.6 393.25 240.22 393.07 241.61 393.38 242.51 393.47 244.09 392.99 246.82 393.37 249.72 395.9 253.06 396.78 254.47 399.35 255.87 402.8 256.37 404.18 256.64 406.02 256.22 407.16 256.54 407.88 257.25 409.97 258.68 411.01 259.22 411.34 260.13 412.08 261.6 413.02 262.87 412.36 263.45 412.49 264.7 411.34 265.95 409.45 266.97 408.42 267.39 408.49 269.11 408.48 269.91 407.17 271.15 406.29 271.8 406.52 272.23 407.27 273.48 406.81 274.34 405.86 275.2 404.01 275.67 402.51 275.86 401.21 276.87 400.35 277.18 400.37 278.33 401.96 279 402.74 279.58 403.07 280.16 401.63 281.11 400.88 281.41 399.68 281.61 398.45 282.84 398.23 284.97 398.04 285.72 396.35 286.1 395.34 287.16 394.4 287.94 393.51 288.83 393.07 289.94 393.24 291.19 393.11 291.87 392.14 292.3 390.99 293.03 389.51 293.92 389.19 294.18 389.77 295.1 390.34 295.92 390.11 297.32 390.53 298.01 390.64 298.65 390.37 299.83 390.63 300.77 389.84 301.08 388.89 301.54 388.19 302.28 387.45 303.85 388.32 306.29 388.5 307.28 387.66 307.9 385.12 309.71 384.38 310.72 384.4 311.7 384.4 312.2 383.54 313.27 381.63 314.1 379.88 314.37 378.91 314.86 377.08 315.64 376.47 317.08 376.07 317.85 374.19 319.91 371.16 320.57 369.87 320.48 367.6 319.7 365.95 319.25 364.78 319.8 363.66 320.96 362.27 322.32 361.6 323.37 361.17 324.89 361.02 326.73 360.59 327.71 360.23 328.39 360.36 330.08 360.18 331.28 359.52 332.25 358.61 332.74 357.89 333.79 356.42 334.68 351.77 337.09 351.31 338.45 349.76 338.95 348.18 339.5 346.89 341.15 345.95 341.48 343.38 340.51 341.35 340.41 339.57 339.79 338.52 339.67 337.43 340.72 335.32 342.16 333.47 342.23 332.78 339.32 331.94 336.93 332.14 335.86 330.47 335.61 329.53 336.37 327.67 337.34 327.34 338.29 326.43 339.13 325.84 339.71 323.4 339.46 321.42 339.61 319.28 340.25 317.4 339.11 316.39 339.42 315.32 339.26 314.3 337.79 311.33 339.9 310.29 340.49 310.22 340.41 309.93 340 309.47 339.42 308.56 338.86 307.69 339.48 306.5 339.83 304.52 340.47 300.5 340.51 296.76 340.09 295.64 340.63 294.2 340.76 293.57 341.05 293.36 341.15 292.54 341.16 291.69 340.73 290.92 340.26 290.56 337.81 289.74 335.69 289.11 334.08 288.62 333.63 287.1 333.93 284.47 334.3 284.29 334.62 284.05 334.97 283.01 335.07 281.61 335.53 279.95 335.49 278.93 333.97 278.11 333.25 276.95 333.12 275.86 333.7 276.06 334.57 275.54 335.04 275.64 336.29 275.54 337.59 274.8 337.8 274.37 338.21 273.68 338.84 273.01 339.57 272.74 340.69 272.17 341.16 271.66 341.79 271.29 342.52 271.31 343.19 271.47 344.56 271.08 345.51 270.66 346.7 269.77 347.59 269.82 348.62 269.78 349.24 269.63 349.85 269.09 350.49 268.47 351.11 268.19 352.08 267.85 352.69 266.81 353.39 266.08 354.59 265.56 355.18 265.33 355.64 265.75 356.25 266.69 357.14 268.5 358.04 268.54 358.64 269.08 359.06 269.65 359.6 269.98 360.35 270.15 361.29 270.95 362.71 271.67 363.32 271.18 363.89 271.12 363.97 270.52 364.4 270.12 364.99 270.02 365.99 269.25 366.89 269.04 367.23 269.21 367.74 269.26 368.35 269.06 369.45 268.78 369.96 268.47 370.46 267.98 370.9 266.82 371.05 266.34 371.11 266.03 371.51 265.73 373.21 265.26 373.57 264.52 373.69 263.73 374.23 263.36 374.75 262.91 375.31 261.69 375.91 260.33 376.01 260.07 376.18 259.68 376.71 259.04 376.89 258.37 376.72 257.42 376.18 256.09 375.98 255.45 376.05 253.53 375.43 251.4 374.69 251.14 374.83 251.1 375.44 250.96 375.83 250.65 376.33 249.47 376.86 248.56 377.54 247.15 378.31 246.75 378.85 246.36 379.32 245.98 379.56 245.07 379.73 244.5 380.18 243.46 380.36 242.13 380.1 241.38 380.76 240.14 381.34 239.24 382.02 238.89 382.57 238.45 383.22 237.28 383.71 236.61 384.41 236.18 384.76 235.85 385.65 234.27 386.48 233.81 387.08 233.32 387.42 232.35 387.56 230.78 387.51 230.55 387.84 230.43 388.15 230.08 389.17 228.82 390.6 228.72 391.04 226.98 391.85 226.51 392.91 226.06 393.49 225.29 394.19 224.66 394.57 224.29 395.35 223.76 395.93 223.23 396.6 222.53 397.37 221.84 397.78 221.12 398.49 220.28 398.66 219.92 400.41 219.72 401.05 218.83 402.06 217.95 402.54 217.32 403.61 216.92 404.33 216.21 404.84 215.89 405.28 215.06 405.76 215.02 406.24 215.02 407.08 214.88 407.57 214.79 408.59 214.88 409.88 214.6 410.74 214.33 411.58 214.13 412.19 214.13 412.83 213.77 414.57 213.8 415.01 213.95 416.65 213.71 417.47 213.94 418.25 213.78 419.04 213.94 419.65 214.61 420.6 214.64 421.03 214.72 421.99 214.67 422.58 215.59 423.26 216.36 423.71 217.19 424.27 219 424.94 219.33 425.37 217.5 426.7 216.82 427.29 216.43 427.82 215.92 428.43 215.6 428.67 214.64 428.85 213.4 428.88 212.36 428.79 211.24 428.93 209.45 428.77 208.27 429 206.86 428.97 206.25 429.64 205.28 430.26 204.65 431.17 204.7 431.71 204.56 432.08 203.88 432.57 203.58 433.48 203.29 434.02 203.52 434.72 203.55 435.61 203.25 436.11 202.33 436.68 202.22 436.96 202.75 437.49 203.01 438.2 203.83 439.01 203.95 439.47 204.57 440.08 205.04 440.56 206.1 441.02 206.76 442.07 206.9 442.7 205.84 443.38 204.71 444.06 203.08 444.7 202.89 445.05 202.96 445.66 203.01 446.63 203.01 447.29 202.45 447.82 202.13 448.29 202.55 449.12 202.79 449.48 202.88 450.39 202.51 451.51 202.18 451.83 201.74 452.3 201.52 452.59 201.34 453.31 201.28 454.48 201.61 455.17 201.75 456.03 200.99 456.54 200.34 457.21 199.65 457.79 198.81 458.33 198.79 459.64 198.38 460.03 198.2 460.37 198.08 461.19 197.91 461.67 197 461.82 194.84 461.84 194.1 461.67 193.69 461.18 193.51 460.87 192.84 460.48 192.04 460.32 191.76 459.49 190.79 458.82 190.21 458.62 189.54 458.92 188.81 459.07 188.2 458.89 186.79 458.78 185.6 458.81 184.62 458.56 183.77 458.66 182.53 459.1 182.25 459.34 182.01 459.92 181.27 460.53 180.92 460.92 180.37 461.77 179.69 462.3 179.39 462.93 179.42 463.35 179.19 464.4 179.04 464.76 176.8 465.65 176.33 465.97 176.13 466.5 175.29 466.96 174.55 467.49 174.23 467.94 173.93 468.6 174.06 469.24 173.89 469.75 173.48 470.2 172.77 470.88 172.81 471.53 173.1 472.02 173.34 472.51 174.4 473.23 174.67 473.63 174.36 474.67 174.51 475.48 173.69 475.95 173.38 476.26 172.9 476.77 172.35 477.05 172.14 477.15 172.02 477.42 171.82 477.77 171.32 478.19 170.65 478.56 168.87 478.86 167.89 479.24 167.47 479.7 167.37 480.23 166.79 481.51 166.62 482.87 166.77 483.46 166.75 484.11 166.63 485.26 166.61 486.06 166.98 486.77 167.46 487.71 166.89 488.41 166.57 489.03 166.33 490.68 166.06 491.17 166.02 491.96 165.69 492.73 164.26 492.28 163.47 492.22 162.78 491.97 162.19 491.85 161.27 491.88 160.48 492.48 159.55 493.1 159.08 493.33 158.92 493.55 157.99 494.03 157.22 494.45 156.61 495.21 156.15 495.89 156.1 496.41 156.14 497.22 156.29 497.81 156.12 498.6 156.21 498.98 156.29 499.31 156.39 499.82 155.81 500.22 154.45 499.75 153.35 499.78 152.44 499.49 151.88 499.23 151.32 499.15 150.42 499.22 150.05 499.42 149.07 499.25 148.19 499.16 147.49 498.98 146.83 499.12 146.32 499.61 145.71 500.46 145.36 501.21 144.81 502 144.28 501.9 143.71 501.64 143.19 501.44 143.04 501.33 142.88 501.27 142.69 501.25 142.23 501.1 141.9 500.97 141.18 500.76 140.89 500.63 140.69 500.71 140.41 500.79 140.29 500.87 140.17 500.83 139.79 500.59 139.65 500.4 139.42 500.27 139.25 500.13 139.12 499.98 138.97 499.92 138.81 499.88 138.65 499.8 138.53 499.78 138.3 499.8 138.12 499.69 137.91 499.58 137.67 499.43 137.48 499.36 137.38 499.2 136.93 499.05 136.81 499.09 136.73 499.18 136.55 499.17 136.26 499.22 136.04 499.37 135.82 499.48 135.57 499.54 135.36 499.56 135.13 499.66 134.95 499.69 134.76 499.78 134.55 499.85 134.34 499.97 134.11 500.14 133.95 500.21 133.71 500.27 133.56 500.23 133.34 500.12 132.88 499.8 132.7 499.58 132.55 499.42 132.34 499.27 132.13 499.2 131.57 499.15 131.38 499.16 131.16 499.28 130.98 499.32 130.79 499.32 130.62 499.22 130.27 499.07 130.21 498.87 130.16 498.49 129.94 498.21 129.8 498.11 129.73 497.95 129.51 497.79 128.99 497.27 128.77 497.02 128.47 496.91 128.4 496.75 128.37 496.28 128.29 496.03 128.09 495.56 127.84 495.13 127.46 494.82 127.24 494.51 127.12 494.46 126.62 494.43 126.48 494.37 126.17 494.13 125.87 493.83 125.75 493.68 125.67 493.53 125.63 493.36 125.52 493.19 125.46 493.04 125.43 492.94 125.35 492.85 125.18 492.76 124.87 492.71 124.7 492.62 124.43 492.5 124.35 492.42 124.22 492.26 124.11 492.09 124.05 491.89 124.01 491.69 123.93 491.59 123.5 491.43 123.17 491.18 122.84 491.07 122.66 490.92 122.6 490.8 122.35 490.45 122.08 490.28 121.97 490.15 121.47 489.6 121.47 489.47 121.42 489.35 121.35 489.23 121.2 489.09 121.04 489.01 120.86 489.03 120.63 489.09 120.41 489.19 120.28 489.2 119.9 489.16 119.69 489.22 119.43 489.25 119.16 489.26 118.94 489.27 118.75 489.24 118.55 489.18 118.24 489.13 118.09 489.06 117.99 488.97 117.96 488.85 117.89 488.7 117.87 488.6 117.9 488.43 117.88 488.28 117.75 488.16 117.53 488.03 117.08 487.84 116.74 487.63 116.55 487.54 116.28 487.38 116.04 487.25 115.79 487.15 115.62 487.05 115.46 486.89 115.19 486.69 115.06 486.56 114.95 486.39 114.87 486.18 114.88 486.04 114.96 485.89 115.07 485.42 115.03 485.31 114.83 484.93 114.78 484.78 114.68 484.6 114.54 484.49 114.35 484.41 114.14 484.35 113.86 484.31 113.64 484.23 113.38 484.19 113.19 484.17 112.93 484.12 112.68 484.04 111.92 483.97 111.83 483.89 111.77 483.8 111.62 483.7 111.47 483.64 111.32 483.63 111.11 483.66 111.01 483.68 110.88 483.74 110.76 483.74 110.23 483.62 109.98 483.48 109.81 483.32 109.77 483.25 109.73 483.21 109.65 483.17 109.49 483.12 109.43 483.08 109.42 483.04 109.39 483.03 109.39 482.98 109.27 482.86 109.25 482.77 109.21 482.74 109.13 482.66 109.12 482.61 109.15 482.56 109.08 482.5 109 482.46 108.96 482.42 108.95 482.37 108.93 482.36 108.94 482.29 108.92 482.27 108.95 482.18 108.91 482.05 108.74 481.93 108.7 481.92 108.66 481.87 108.64 481.83 108.6 481.82 108.61 481.79 108.56 481.69 108.52 481.67 108.41 481.65 108.25 481.54 108.23 481.4 108.26 481.34 108.23 481.28 108.24 481.22 108.22 481.19 108.03 481 107.91 480.75 107.82 480.69 107.64 480.6 107.55 480.46 107.45 480.35 107.43 480.26 107.44 480.16 107.3 480 107.18 479.69 107.16 479.59 107.16 479.39 107.29 479.14 107.29 479.04 107.26 478.79 107.27 478.63 107.16 478.45 107.13 478.34 107.14 478.24 107.24 477.99 107.36 477.55 107.29 477.44 107.2 477.06 107.17 476.67 108.05 476.15 108.01 476.14 107.88 475.99 107.67 475.9 107.63 475.8 107.5 475.69 107.36 475.62 107.3 475.61 107.17 475.62 107.12 475.69 107 475.67 106.91 475.64 106.75 475.62 106.6 475.55 106.42 475.43 106.4 475.35 106.24 475.27 106.22 475.23 106.14 475.24 106.11 475.27 106 475.25 105.84 475.15 105.66 475 105.52 474.93 105.46 474.92 105.37 474.84 105.16 474.81 105.13 474.76 105.04 474.73 105.04 474.66 105.08 474.55 105.04 474.47 104.96 474.46 104.88 474.4 104.84 474.3 104.8 474.25 104.49 474.24 104.22 474.3 104.12 474.28 104.16 474.21 104.24 473.99 104.44 473.7 104.53 473.53 104.94 473.09 105.24 472.84 105.53 472.68 105.95 472.51 106.54 472.25 106.59 472.23 106.66 472.18 107.18 471.74 107.56 471.32 107.74 471.14 107.95 470.83 108.25 470.58 108.47 470.42 108.58 470.42 108.72 470.33 108.91 470.1 109.22 469.87 109.38 469.72 109.55 469.54 109.72 469.27 110.2 468.23 110.3 467.47 110.23 467.05 110.48 466.83 110.66 466.75 110.75 466.59 110.94 466.51 111.62 465.46 111.66 465.29 111.74 465.11 111.86 464.95 112.06 464.76 112.22 464.7 112.4 464.53 112.99 464.27 113.32 464.24 113.51 464.15 113.99 463.83 114.23 463.73 114.56 463.55 114.67 463.45 114.75 463.32 114.83 463.08 114.87 462.83 114.94 462.65 115.25 462.29 115.28 462.2 115.29 462.02 115.47 461.86 116.06 461.54 116.35 461.43 116.95 460.93 117.14 460.68 117.15 460.56 116.98 460.4 116.97 460.3 117.02 460.19 117.55 459.7 117.71 459.48 117.73 459.28 117.88 459 118.13 458.66 118.26 458.28 118.38 458.02 118.64 457.86 118.67 457.68 118.85 457.48 118.92 457.27 119.16 457.03 119.59 456.77 119.74 456.65 119.94 456.25 119.97 456.12 120.12 455.93 120.15 455.76 120.22 455.63 120.19 455.44 120.14 455.21 120.11 454.95 120.18 454.74 120.49 454.4 120.67 454.04 120.97 453.55 121.02 453.41 121.05 453.25 121.17 453.09 121.35 452.98 121.53 452.88 121.63 452.73 121.7 452.55 121.81 452.42 121.91 452.35 121.97 452.23 121.94 451.94 121.97 451.81 122.04 451.72 122.17 451.67 122.2 451.58 122.25 451.27 122.34 451.15 122.49 451.07 122.64 451.01 122.9 450.74 123 450.57 123.14 450.37 123.29 450.21 123.38 450.08 123.42 449.97 123.5 449.65 123.58 449.57 124.09 449.27 124.31 449.16 124.55 449.13 124.73 449.08 124.93 448.92 125.14 448.8 126.36 448.35 126.39 448.2 126.48 447.98 126.5 447.87 126.43 447.75 126.4 447.66 126.44 447.56 126.59 447.35 126.74 447.17 126.79 447 126.8 446.8 126.75 446.63 126.9 446.31 127.04 445.88 127.16 445.75 127.29 445.68 127.53 445.65 128.16 445.23 128.49 445.06 128.92 445.1 129.28 445.03 129.49 444.94 130.11 444.73 130.41 444.74 130.98 444.87 131.45 444.89 131.64 444.86 131.92 444.65 132.01 444.52 131.95 444.34 131.98 444.2 132.06 444 132.23 443.42 132.39 443.15 132.59 442.64 132.92 442.34 132.97 442.21 132.97 442.02 133.06 441.76 133.11 441.55 133.15 441.44 133.27 441.25 133.15 440.74 133.09 440.56 133.09 440.41 133.17 440.19 133.32 440.06 134.06 439.64 134.23 439.5 134.35 439.32 134.45 439.15 134.62 438.56 134.75 438.43 134.95 438.36 135.22 438.18 135.71 437.66 135.94 437.38 136.07 437.29 136.53 437.16 136.85 436.97 137.08 436.76 137.31 436.6 137.51 436.31 137.62 436.19 137.61 435.94 137.69 435.46 137.74 435.29 137.9 435.04 137.82 434.86 137.47 434.68 137.21 434.49 137 434.27 136.84 434 136.83 433.86 136.96 433.6 136.96 433.5 136.9 433.32 136.72 433.1 136.53 432.97 136.36 432.87 136.22 432.72 136.13 432.55 135.95 431.93 135.79 431.51 135.72 431.43 135.34 431.23 135.24 430.63 135.18 430.54 135.03 430.44 134.84 430.37 134.17 430.2 134.08 430.14 133.86 429.88 133.66 429.55 133.45 429.39 133.16 429.12 132.97 429 132.73 428.8 132.1 428.31 131.79 428.13 131.2 427.96 130.84 427.9 130.82 427.74 130.91 427.25 130.64 427.02 130.19 426.81 129.9 426.56 129.63 426.44 129.5 426.34 129.39 426.28 128.99 426.15 128.88 426.07 128.78 425.98 128.61 425.91 128.32 425.57 128.32 425.37 128.22 425.2 128.04 424.75 127.63 424.4 127.35 424.23 127.18 424.11 127.15 424.01 126.92 423.92 126.54 423.99 126.11 423.79 125.67 423.82 125.13 423.82 124.58 423.75 124.42 423.61 124.27 423.54 124.12 423.39 124.01 423.37 123.77 423.4 123.6 423.46 123.29 423.37 123.11 423.41 122.97 423.45 122.64 423.22 122.47 423.24 122.36 422.8 122.35 422.46 122.16 422.02 121.89 421.67 121.8 421.43 121.56 420.95 121.41 420.74 121.36 420.64 121.24 420.51 121.21 420.35 121.13 420.24 121.09 419.99 121.13 419.79 121.2 419.72 121 419.55 120.83 419.45 120.58 419.28 120.32 419.02 120.26 418.87 120 418.68 119.82 418.52 119.51 418.34 119.33 418.16 119.17 418.04 119.11 417.7 119.21 417.08 119.4 416.95 119.81 416.49 120.03 416.34 120.23 416.28 120.17 416.17 120.05 416.07 120.1 415.86 120.15 415.76 120.09 415.56 120.22 415.16 120.29 415.06 120.4 414.95 120.33 414.73 120.28 414.64 120.12 414.54 119.97 414.43 119.93 414.21 120.08 413.97 120.01 413.8 120.02 413.63 120.14 413.44 120.24 413.21 120.4 413.03 120.84 412.89 120.92 412.76 120.97 412.54 120.97 412.36 121.11 412.16 121.08 411.49 121.23 411.35 121.53 411.16 121.45 410.85 121.46 410.5 121.25 410.31 121.02 409.8 120.77 409.37 120.71 409.06 120.79 408.75 120.56 408.48 120.72 407.58 120.67 407.35 120.64 407.02 121.08 406.84 121.58 406.7 122.14 406.7 122.43 406.63 122.56 406.48 122.65 406.28 122.75 405.88 122.84 405.66 122.89 405.47 123.13 405.25 123.85 405.06 123.91 404.87 124.04 404.75 124.03 404.51 123.98 404.4 123.79 404.19 123.71 403.9 123.95 403.87 123.98 403.81 124.15 403.65 124.45 403.48 124.52 403.34 124.72 403.17 124.89 403.16 125.02 403.08 125.3 403.04 125.79 402.92 125.96 402.76 125.96 402.61 125.98 402.41 125.95 402.29 126.14 402.07 126.2 401.88 126.12 401.7 126.26 401.36 126.21 401.03 126.51 400.45 126.35 400.3 126.23 400.08 126.4 399.93 126.49 399.76 126.72 399.63 127.02 399.52 127.12 399.35 127.28 399.15 127.16 399.02 126.79 398.74 126.71 398.64 126.66 398.42 126.77 398.08 126.81 397.86 126.88 397.4 126.96 397.24 126.97 396.94 126.68 396.79 126.63 396.69 126.48 396.59 126.3 396.4 125.78 396.4 125.54 396.32 125.21 396.13 125.14 395.84 124.73 395.4 124.55 395.14 124.39 395.04 124.15 394.97 124.08 394.81 124.02 394.44 123.87 394.15 123.68 394.07 122.86 393.91 122.53 393.98 122.12 393.99 121.76 393.9 121.5 393.94 121.35 393.99 121.06 394 120.81 394.15 120.38 394.36 120.09 394.53 119.81 394.52 119.24 394.34 118.85 394.25 118.62 394.31 118.28 394.34 117.91 394.41 117.36 394.46 117.2 394.5 116.97 394.53 116.76 394.54 116.51 394.63 116.41 394.72 116.23 394.67 115.94 394.5 115.64 394.27 115.47 394.12 115.18 393.98 114.93 393.95 114.37 393.92 114.1 393.97 113.7 393.68 113.56 393.54 113.22 393.46 113.02 393.47 112.81 393.37 112.65 393.19 112.28 392.83 111.98 392.64 111.78 392.43 111.62 392.25 111.54 392.11 111.37 392.09 111.12 392.13 110.95 392.25 110.76 392.28 110.61 392.33 110.25 392.26 110.02 392.21 109.93 392.13 109.47 391.87 108.9 391.62 108.63 391.53 108.52 391.46 108.47 391.32 108.45 391.09 108.13 390.87 108.01 390.68 107.81 390.53 107.58 390.33 107.44 390.24 107.17 389.99 106.95 389.84 106.61 389.71 106.42 389.45 106.04 389.39 105.85 389.31 105.53 389.31 105.3 389.17 105.09 388.91 105 388.82 105.01 388.64 105.13 388.47 104.92 388.44 104.26 388.18 103.94 388.06 103.65 388.01 103.33 387.91 102.94 387.67 102.7 387.58 102.43 387.45 101.75 387.32 101.25 387.24 101.01 387.14 100.8 387.08 100.41 387.11 100.18 387.1 99.68 386.97 99.52 386.9 99.26 386.84 98.96 386.82 98.67 386.88 98.23 386.82 98.01 386.72 97.86 386.63 97.57 386.54 97.62 386.32 97.61 385.86 97.5 385.54 97.4 385.4 97.15 385.24 96.77 384.75 96.51 384.56 96.26 384.2 95.99 384.1 95.67 384.06 94.82 383.71 94.6 383.52 94.4 383.22 94.18 383.05 93.94 382.82 93.68 382.64 93.14 382.4 93.01 382.28 92.88 382.11 92.94 381.85 93.08 381.51 93.07 381.32 93.16 381.15 92.94 380.8 92.72 380.54 92.45 380.33 92.17 380.21 91.16 379.62 91.2 379.37 91.13 379.02 91.17 378.94 91.48 378.82 91.88 378.53 92.14 378.01 92.15 377.78 92.33 377.45 92.69 377.19 92.88 376.91 93.19 376.72 93.56 376.46 94.18 376.42 94.5 376.43 94.55 376.06 94.67 375.65 94.76 375.42 94.8 375.18 94.58 374.85 94.37 374.52 94.32 374.33 94.44 374.05 94.35 373.83 94.01 373.26 94.04 373.02 93.89 372.82 94 372.51 94.19 372.08 93.69 371.81 93.14 371.53 93.11 371.19 93.25 370.88 93.44 370.71 93.7 370.43 94.24 370.06 94.48 369.98 94.92 369.7 95.09 369.64 96.08 369.87 96.5 370.02 97.04 370.16 97.25 370.18 97.61 370.13 97.85 370.01 98.17 369.9 98.4 369.77 98.86 369.45 98.88 369.28 99.32 368.5 99.59 368.26 99.87 368.17 100.23 368.15 100.44 367.94 100.69 367.81 100.95 367.73 101.36 367.79 101.55 367.79 101.71 367.85 101.9 367.87 102.05 367.84 102.26 367.63 102.41 367.52 102.56 367.44 102.78 367.39 103.05 367.25 103.35 366.92 102.74 366.46 102.21 366.03 101.94 365.87 101.76 365.82 101.65 365.64 101.62 365.36 101.68 365.16 101.67 365.01 101.56 364.79 101.44 364.6 101.44 364.22 101.28 364.13 101.19 364.01 101.06 363.79 101.01 363.55 101.08 363.31 101.28 362.97 101.41 362.89 101.66 362.87 101.9 362.83 102.22 362.81 103.07 362.98 103.2 362.84 103.33 362.72 103.65 362.49 103.82 362.34 104.14 362.17 104.28 362.12 105.07 361.7 105.42 361.62 105.76 361.38 106.28 360.81 106.42 360.74 106.48 360.63 106.53 360.28 106.58 360.16 106.55 359.67 106.66 359.18 106.38 358.92 105.94 358.71 105.56 358.44 105.84 357.87 106.11 357.7 106.19 357.53 106.17 357.35 106.29 357.26 106.3 357.1 106.28 356.96 106.11 356.73 106.08 356.49 105.97 356.13 105.81 355.94 105.77 355.67 105.96 355.43 106.01 355.21 106.08 355.01 106.02 354.82 106.11 354.48 106 354.34 106.01 354.22 106.14 354.11 106.3 354.04 106.42 353.9 106.43 353.51 106.31 353.41 106.33 353.16 106.58 352.63 106.93 352.4 107.02 352.27 107.08 352.09 106.9 351.87 106.7 351.68 106.54 351.44 106.4 351.11 106.4 351.07 106.43 351.02 106.43 350.88 106.37 350.86 106.37 350.85 106.32 350.84 106.27 350.86 106.19 350.83 106.07 350.83 105.92 350.76 105.85 350.77 105.53 350.65 105.3 350.66 105.2 350.63 105 350.6 104.93 350.63 104.92 350.6 104.79 350.56 104.77 350.57 104.68 350.55 104.59 350.51 104.41 350.54 104.31 350.48 104.23 350.48 104.1 350.47 104.06 350.49 104.01 350.48 103.96 350.39 103.92 350.36 103.85 350.35 103.81 350.32 103.53 350.32 103.48 350.31 103.47 350.27 103.42 350.26 103.33 350.28 103.28 350.23 103.23 350.22 103.21 350.23 103.15 350.21 103.05 350.09 103.03 350.09 103.01 350.02 102.97 349.99 102.98 349.96 102.96 349.93 102.9 349.93 102.85 349.88 102.7 349.85 102.68 349.83 102.68 349.8 101.84 349.28 101.68 349.12 101.65 348.96 101.51 348.75 101.34 348.61 101.09 348.48 100.58 348.25 100.12 348.09 99.77 348.15 99.43 348.14 98.89 348.03 98.46 348.18 98.18 348.33 97.96 348.43 97.62 348.5 97.36 348.5 97.01 348.41 96.48 348.24 96.24 348.05 95.95 347.87 95.68 347.76 95.32 347.67 95.04 347.63 94.75 347.54 94.25 347.46 94.07 347.4 93.77 347.23 93.78 347.06 93.69 346.89 93.8 346.63 93.74 346.51 93.57 346.32 93.11 345.95 92.91 345.82 92.69 345.63 92.56 345.44 92.35 345.06 92.24 344.89 92.13 344.77 91.97 344.69 91.58 344.65 91.29 344.58 90.64 344.57 90.35 344.6 89.97 344.47 89.75 344.35 89.47 344.12 89.57 343.77 89.59 343.54 89.54 343.1 89.25 342.98 88.59 342.87 88.47 342.8 88.35 342.68 88.34 342.32 88.43 342.14 88.35 341.89 88.31 341.63 88.45 341.49 88.52 341.26 88.56 341.02 88.49 340.76 88.5 340.55 88.36 340.27 88 340.12 87.59 340.02 87.47 339.95 87.33 339.97 87.23 339.91 87.16 339.8 87 339.63 86.88 339.29 86.8 339.01 86.42 338.14 86.91 337.78 87.11 337.56 87.25 337.49 87.46 337.54 87.6 337.49 87.61 337.39 87.53 337.18 87.51 337.03 87.62 336.64 87.77 336.43 87.83 336.29 88.09 336.1 88.22 335.96 88.4 335.72 88.35 335.26 88.22 335.13 88.17 334.97 88.18 334.73 87.95 334.56 87.56 334.36 87.34 334.2 86.95 334.04 86.54 333.86 86.41 333.71 86.32 333.54 86.33 333.39 86.47 333.16 86.55 332.92 86.49 332.66 86.79 332.33 86.87 332.15 87.01 332.12 87.32 332.09 87.7 332 87.82 331.8 88.02 331.61 88.38 331.41 88.84 331.21 89.24 331.13 90 330.38 90.22 330.13 90.36 330.08 90.52 330.04 90.81 330.04 91.3 329.95 91.73 329.76 92.07 329.52 92.23 329.27 92.33 329.05 92.33 328.92 92.15 328.69 91.74 328.59 91.25 328.55 90.28 328.33 89.89 328.16 88.87 327.92 88.45 327.78 88.04 327.55 87.77 327.15 87.61 327.03 87.43 327.01 86.99 326.75 86.59 326.63 86.18 326.59 85.82 326.57 85.54 326.57 85.08 326.47 84.82 326.33 84.7 326.17 84.62 325.89 84.46 325.52 84.4 325.32 84.31 324.89 84.34 324.66 84.43 324.33 84.37 324.12 84.44 323.56 84.49 323.4 84.64 323.24 84.72 323.07 84.69 322.87 84.7 322.79 84.45 322.66 84.16 322.36 84.17 322.31 84.1 322.22 84.05 322.18 84.04 322.15 84.02 322.15 84.02 322.11 83.97 322.1 83.98 322.05 83.95 322.03 83.95 321.99 83.93 321.98 83.9 321.91 83.81 321.83 83.75 321.8 83.75 321.71 83.71 321.71 83.65 321.66 83.55 321.64 83.44 321.59 83.42 321.57 83.38 321.45 83.33 321.42 83.29 321.33 83.26 321.33 83.23 321.31 83.12 321.28 83.09 321.25 82.97 321.25 82.88 321.23 82.83 321.24 82.8 321.16 82.7 321.14 82.68 321.09 82.66 321.08 82.67 321.02 82.65 321 82.54 320.97 82.43 320.78 82.33 320.68 82.25 320.66 82.16 320.59 82.15 320.54 82.08 320.48 81.97 320.45 81.85 320.46 81.85 320.45 81.82 320.46 81.82 320.5 81.7 320.5 81.63 320.49 81.61 320.48 81.51 320.43 81.38 320.43 81.37 320.42 81.29 320.43 81.2 320.47 81.11 320.42 81 320.43 80.98 320.41 80.93 320.44 80.9 320.37 80.83 320.29 80.8 320.28 80.79 320.24 80.74 320.23 80.71 320.16 80.6 320.08 80.61 320.06 80.59 320.03 80.48 319.91 80.45 319.89 80.36 319.89 80.33 319.87 80.3 319.87 80.27 319.85 80.22 319.81 80.17 319.79 80.14 319.72 80.1 319.71 80.06 319.63 80 319.62 79.99 319.6 79.96 319.6 79.95 319.56 79.85 319.59 79.76 319.57 79.74 319.59 79.62 319.5 79.59 319.46 79.56 319.45 79.55 319.4 79.53 319.37 79.55 319.24 79.52 319.19 79.48 319.17 79.46 318.91 79.46 318.66 79.61 318.43 79.76 318.03 79.43 317.82 79.21 317.56 79.12 317.39 78.76 317.12 78.56 316.9 78.59 315.94 78.53 315.76 78.45 315.64 78.29 315.49 78.27 315.25 78.29 314.95 78.16 314.77 77.94 314.68 77.63 314.54 77.37 314.19 77.35 313.96 77.28 313.79 77.14 313.61 77.07 313.49 77.1 313.2 77.06 313.06 76.87 312.66 76.84 312.3 76.87 312.11 76.64 311.68 76.49 311.52 76.44 311.39 76.43 311.19 76.36 311.04 76.17 310.91 76.11 310.89 76.01 310.85 75.81 310.73 75.48 310.37 75.26 310.09 75.21 309.95 74.96 309.48 74.82 309.35 74.53 309.26 74.19 309.21 73.87 309.2 73.65 309.08 73.27 308.8 73.12 308.57 73.03 308.22 72.86 307.88 72.66 307.74 72.12 307.49 71.96 307.38 71.7 307.14 71.67 306.95 71.75 306.75 71.9 306.65 71.8 306.37 71.66 306.21 71.66 306.08 71.68 305.81 71.6 305.41 71.52 305.14 71.43 304.73 71.36 304.16 71.19 303.75 70.91 303.17 70.51 303.02 69.99 302.88 69.72 302.97 69.48 303.02 69.23 302.89 68.93 302.87 68.36 302.94 67.88 302.8 67.68 302.7 67.22 302.64 67.07 302.46 66.82 302.21 66.57 302.09 65.95 301.47 65.88 301.48 65.84 301.44 65.83 301.41 65.63 301.34 65.62 301.35 65.5 301.35 65.49 301.36 65.45 301.37 65.39 301.37 65.37 301.39 65.35 301.37 65.33 301.4 65.31 301.39 65.25 301.42 65.22 301.42 65.22 301.41 65.16 301.42 65.15 301.47 65.13 301.46 65.12 301.48 65.09 301.56 64.83 301.52 64.75 301.55 64.58 301.45 64.53 301.46 64.38 301.52 64.22 301.51 64.18 301.57 64.18 301.61 64.05 301.69 64.04 301.73 64.01 301.74 63.96 301.82 63.89 301.88 63.56 302.08 63.54 302.16 63.47 302.25 63.43 302.32 63.4 302.34 63.26 302.35 63.24 302.39 63.22 302.36 63.08 302.34 63.03 302.35 62.82 302.34 62.66 302.37 62.51 302.38 62.43 302.35 62.28 302.33 62.24 302.31 62.22 302.29 62.15 302.32 61.97 302.32 61.95 302.37 61.91 302.36 61.83 302.38 61.78 302.43 61.73 302.43 61.66 302.46 61.61 302.44 61.32 302.25 61.09 302.23 60.98 302.23 60.89 302.22 60.84 302.21 60.84 302.23 60.8 302.21 60.74 302.21 60.67 302.18 60.64 302.18 60.61 302.17 60.49 302.22 60.51 302.15 60.49 302.12 60.47 302.04 60.41 301.97 60.38 301.88 60.34 301.88 60.34 301.86 60.26 301.78 60.2 301.67 60.16 301.65 60.11 301.59 60.09 301.54 60.12 301.52 60.11 301.47 60.05 301.41 60.02 301.32 59.94 301.24 59.89 301.24 59.8 301.2 59.74 301.19 59.66 301.2 59.6 301.18 59.54 301.18 59.49 301.13 59.46 301.14 59.34 301.03 59.24 301.05 59.18 301.05 59.16 301.06 59.13 301.06 59.06 301.02 59 301.02 58.93 300.99 58.89 300.92 58.84 300.9 58.83 300.86 58.79 300.88 58.71 300.85 58.68 300.74 58.59 300.76 58.56 300.78 58.54 300.76 58.52 300.79 58.49 300.78 58.43 300.74 58.4 300.69 58.41 300.68 58.26 300.69 58.14 300.67 58.1 300.67 58.02 300.63 57.95 300.64 57.94 300.62 57.91 300.62 57.88 300.56 57.85 300.55 57.82 300.51 57.8 300.43 57.75 300.38 57.75 300.29 57.81 300.26 57.78 300.2 57.75 300.17 57.74 300.06 57.69 300.04 57.7 300.02 57.68 300 57.7 299.97 57.67 299.9 57.62 299.86 57.6 299.79 57.54 299.76 57.54 299.66 57.52 299.63 57.47 299.62 57.44 299.59 57.44 299.54 57.4 299.48 57.41 299.43 57.38 299.39 57.38 299.36 57.35 299.32 57.36 299.31 57.29 299.27 57.24 299.25 57.18 299.26 57.14 299.22 57.15 299.17 57.12 299.15 57.08 299.15 56.91 299.11 56.86 299.07 56.88 299.06 56.86 299.03 56.67 298.88 56.53 298.7 56.37 298.68 56.16 298.4 56.02 298.31 55.84 298.17 55.86 298.01 56.07 297.8 56.33 297.72 56.6 297.66 56.83 297.53 56.87 297.34 57.19 296.37 58.1 295.96 58.26 295.81 58.43 295.43 58.77 294.81 58.44 294.51 58.04 294.25 57.54 293.89 57.28 293.59 57.42 293.27 57.49 292.97 57.41 292.72 57.29 292.43 56.93 292.14 56.9 291.9 57.27 290.84 56.84 290.76 56.53 290.69 56.06 290.65 55.84 290.56 55.65 290.32 55.18 290.14 54.98 289.93 54.82 289.72 54.84 289.52 54.9 289.18 55.04 288.94 55.28 288.61 55.47 288.56 55.77 288.55 56.11 288.5 56.31 288.37 56.53 288.18 56.72 287.93 57.02 287.78 57.45 287.35 57.81 287.47 58.12 287.31 58.17 287.19 58.1 287.04 57.73 286.62 57.61 286.37 57.38 286.12 57.44 285.99 57.54 285.86 57.59 285.62 57.74 285.48 57.93 285.33 58.17 285.2 58.28 285.08 58.33 284.72 58.29 284.51 58.2 284.28 58.05 284.09 57.89 283.94 57.66 283.85 57.3 283.65 56.98 283.57 56.48 283.32 56.1 283.06 55.89 282.9 55.63 282.67 55.38 282.35 55.26 281.96 54.99 281.65 54.77 281.48 54.5 281.32 54.27 281.27 54.16 281.19 53.9 281.04 53.78 280.86 53.71 280.68 53.58 280.49 53.34 280.36 53.1 280.26 52.98 280.24 52.83 280.24 52.68 280.13 52.66 279.96 52.56 279.77 52.5 279.61 52.54 279.45 52.16 279.47 51.7 279.59 51.29 279.66 50.77 279.6 49.99 279.71 49.67 279.71 49.44 279.78 48.96 280.22 48.43 280.5 48.27 280.46 47.97 280.52 47.72 280.65 47.56 280.71 47.39 280.74 47.16 280.9 47 280.92 46.77 280.92 46.59 280.88 46.28 280.72 46.07 280.66 45.78 281.04 45.53 281.22 45.1 281.44 44.84 281.55 44.52 281.61 43.87 281.38 43.49 281.34 43.28 281.3 42.98 281.38 42.56 281.45 42.31 281.54 41.69 281.68 41.47 281.6 41.39 281.75 41.26 281.83 40.62 281.8 40.36 281.75 40.09 281.74 39.82 281.83 39.55 281.9 39.04 281.88 38.9 281.98 38.74 282.17 38.3 282.04 38.06 281.98 37.8 281.96 37.73 281.95 37.76 281.91 37.73 281.91 37.65 281.85 37.56 281.75 37.59 281.49 37.62 281.46 37.57 281.43 37.55 281.37 37.6 281.33 37.43 281.21 37.43 281.18 37.36 281.14 37.35 281.11 37.33 281.13 37.3 281.1 37.29 281.04 37.39 280.96 37.4 280.91 37.42 280.9 37.47 280.83 37.5 280.71 37.49 280.65 37.51 280.62 37.51 280.58 37.61 280.55 37.66 280.51 37.7 280.31 37.83 280.22 37.95 280.19 37.92 280.09 37.94 280.03 37.94 279.97 37.98 279.92 38.04 279.89 37.94 279.86 37.94 279.82 37.91 279.79 37.9 279.74 37.94 279.69 37.85 279.44 37.8 279.39 37.8 279.35 37.82 279.33 37.85 279.33 37.85 279.31 37.8 279.31 37.74 279.25 37.69 279.25 37.66 279.22 37.59 279.23 37.58 279.21 37.52 279.2 37.5 279.17 37.44 279.16 37.39 279.18 37.34 279.16 37.29 279.15 37.23 279.16 37.2 279.15 37.14 279.18 37.11 279.18 37.02 279.12 36.88 279.08 36.82 279.03 36.79 279.03 36.8 279.02 36.71 279 36.56 278.87 36.45 278.84 36.38 278.86 36.35 278.81 36.3 278.82 36.21 278.75 36.18 278.75 36.16 278.71 36.11 278.7 36.03 278.63 35.99 278.61 35.97 278.55 35.9 278.49 35.89 278.47 35.94 278.43 35.97 278.36 36.01 278.34 36.04 278.25 36.07 278.24 36.08 278.02 36.17 278.05 36.19 277.96 36.21 277.97 36.24 278.01 36.25 277.82 36.24 277.58 36.25 277.52 36.21 277.52 36.16 277.46 36.07 277.43 35.99 277.37 36 277.31 35.93 277.13 35.97 276.96 35.98 276.71 35.96 276.63 35.97 276.52 36.03 276.4 36.02 276.34 36.04 276.34 36.04 276.32 35.99 276.14 36.03 276.13 36.03 276.03 36.01 275.96 36.02 275.95 36.01 275.92 35.96 275.92 35.95 275.89 35.96 275.86 36.06 275.79 36.1 275.69 36.1 275.63 36.08 275.62 36.08 275.53 36.05 275.45 36.08 275.45 36.05 275.29 36.09 275.27 36.07 275.21 35.95 275.23 35.9 275.22 35.88 275.19 35.85 275.2 35.83 275.19 35.78 275.2 35.77 275.22 35.47 275.15 35.43 275.17 35.38 275.16 35.36 275.18 35.35 275.2 35.33 275.2 35.3 275.18 35.28 275.19 35.21 275.16 35.16 275.12 35.12 275.11 35.11 275.08 34.94 275.11 34.91 275.11 34.89 275.1 34.8 275.11 34.76 275.1 34.7 275.12 34.66 275.1 34.63 275.12 34.61 275.12 34.61 275.14 34.55 275.15 34.47 275.19 34.41 275.17 34.34 275.17 34.25 275.18 34.19 275.18 34.07 275.2 34.02 275.19 33.98 275.22 33.93 275.19 33.88 275.19 33.86 275.2 33.83 275.19 33.69 275.19 33.47 275.25 33.41 275.22 33.38 275.19 33.39 275.17 33.35 275.15 33.35 275.12 33.3 275.03 33.27 275.02 33.14 275 33.1 274.97 33.04 274.98 33.04 274.96 32.98 274.94 32.95 274.89 32.93 274.88 32.85 274.89 32.84 274.83 32.56 274.58 32.29 274.46 31.98 274.28 31.78 274.11 31.63 273.95 31.55 273.73 31.56 273.45 31.49 273.37 31.2 273.19 31.09 273.06 30.99 272.88 30.81 272.95 30.47 273 30.3 273.11 30.13 273.17 30.03 273.13 29.95 273.04 29.88 272.89 29.93 272.49 29.71 272.27 29.61 272.14 29.35 271.92 29.22 271.77 29.08 271.65 28.99 271.51 28.91 271.18 28.92 270.99 28.8 270.76 28.57 270.73 27.9 270.6 27.65 270.57 27.47 270.6 27.33 270.69 27.07 270.77 26.9 270.84 26.57 270.82 26.03 270.75 25.83 270.71 25.68 270.63 25.43 270.41 25.23 270.28 25.08 270.27 24.64 270.36 23.99 270.3 23.74 270.22 23.52 270.22 23.29 270.17 23.1 270.18 22.79 270.31 22.6 270.33 22.13 270.27 21.86 270.27 21.26 270.34 21.02 270.35 20.43 270.34 20.13 270.41 19.92 270.43 19.69 270.43 19.51 270.33 19.28 270.31 19.01 270.19 18.89 270.06 18.86 269.94 18.86 269.82 18.73 269.68 18.73 269.61 18.77 269.32 18.93 268.98 18.96 268.85 18.61 268.87 18.46 268.81 18.19 268.57 18.04 268.5 17.8 268.42 17.71 268.41 17.52 268.35 17.45 268.28 17.38 268.16 17.26 268.04 17.11 267.8 16.92 267.38 16.7 267.35 16.56 267.31 16.08 267.23 16.03 267.17 16 267.05 16.03 266.98 15.94 266.78 15.88 266.43 15.81 266.36 15.69 266.13 15.61 266.05 15.56 265.92 15.29 265.72 15.19 265.53 15.04 265.33 14.92 265.25 14.8 265.03 14.77 264.93 14.66 264.9 14.47 264.77 14.26 264.76 14.06 264.68 13.89 264.67 13.75 264.63 13.63 264.57 13.49 264.48 13.4 264.37 13.25 264.26 12.72 264.06 12.81 263.98 12.87 263.81 12.76 263.54 12.76 263.45 12.72 263.36 12.82 263.07 12.84 262.91 12.88 262.81 12.62 262.68 12.28 262.48 12.01 262.4 11.71 262.24 11.6 262.1 11.35 261.91 11.21 261.76 11.17 261.62 11.05 261.55 10.81 261.53 10.47 261.6 10.31 261.64 10.07 261.65 9.89 261.68 9.58 261.69 9.39 261.73 9.22 261.75 9.12 261.79 8.7 261.6 8.53 261.61 8.43 261.52 8.27 261.51 8.21 261.44 7.91 261.34 7.45 261.55 7.36 261.57 7.26 261.65 7.13 261.66 6.98 261.72 6.79 261.74 6.67 261.82 6.35 261.89 6.23 261.96 6.02 261.95 5.82 261.7 5.66 261.56 5.56 261.44 5.42 261.33 5.3 261.21 5.2 261.06 5.11 260.83 4.96 260.71 4.9 260.51 4.83 260.39 4.72 260.26 4.7 260.1 4.76 259.99 4.77 259.9 4.69 259.78 4.56 259.7 4.49 259.57 4.28 259.43 4.2 259.36 4.16 259.27 4.06 259.21 3.96 259.12 3.72 258.99 3.69 258.81 3.58 258.77 3.22 258.59 3.01 258.44 2.93 258.33 2.83 258.29 2.35 258.23 2.13 258.29 1.87 258.28 1.65 258.34 1.58 258.38 1.49 258.4 1.46 258.46 1.05 258.44 1 258.29 1.17 258.2 1.24 258.16 1.36 258.08 1.49 257.92 1.56 257.8 1.54 257.51 1.56 257.4 1.52 257.27 1.49 257.22 1.56 257.13 1.58 256.97 1.7 256.89 1.85 256.72 1.85 256.64 1.91 256.51 2.04 256.37 2.09 256.21 2.18 255.71 2.16 255.53 2.12 255.33 2.21 255.14 2.23 254.96 2.19 254.78 2.24 254.66 2.09 254.5 2.1 254.32 2 254.21 2.11 254.14 2.27 254.01 2.48 253.69 2.63 253.58 2.7 253.5 2.77 253.16 2.86 253.01 2.93 252.82 3.01 252.76 3.11 252.6 3.22 252.47 3.29 252.33 3.72 252.25 4.05 252.13 4.23 252.13 4.38 252.07 4.49 251.96 4.63 251.89 4.85 251.74 4.82 251.64 4.75 251.52 4.78 251.45 4.89 251.41 4.88 251.34 5.04 251.21 4.8 250.96 4.81 250.79 4.78 250.61 4.87 250.35 4.9 250.19 4.91 250.03 4.89 249.94 4.91 249.75 4.95 249.65 5.04 249.58 5.19 249.33 5.22 249.12 5.56 248.95 5.72 248.77 5.83 248.68 6 248.62 6.31 248.44 6.45 248.31 6.86 248.01 7.04 247.83 7.05 247.64 7.04 247.47 7.13 247.34 7.17 247.07 7.06 246.57 6.92 246.19 6.9 246.01 6.8 245.92 6.54 245.84 6.67 245.56 6.81 245.45 6.98 245.37 7.18 245.25 7.34 244.89 7.37 244.71 7.3 244.47 7.58 244.25 7.62 244.1 7.7 244.04 7.9 243.94 8.15 243.89 8.39 243.8 8.97 243.66 9.24 243.65 9.41 243.6 9.68 243.5 9.75 243.38 10.01 243.21 10.16 243.07 10.25 242.96 10.39 242.85 10.43 242.64 10.5 242.59 10.65 242.43 10.69 242.35 10.83 242.23 10.84 242.14 11.11 241.92 11.12 241.79 11.25 241.76 11.55 241.99 11.68 242.14 11.91 242.18 12.16 242.02 12.43 241.87 12.76 241.81 13.47 241.76 13.91 241.86 14.28 242.03 14.72 242.28 14.85 242.44 15.14 242.6 15.34 242.67 15.71 242.72 15.99 242.52 16.24 242.31 16.37 242.09 16.47 241.88 16.59 241.76 16.62 241.51 16.76 241.32 17.2 241.06 17.41 240.98 17.64 240.88 17.78 240.73 17.96 240.29 18.14 240.23 18.25 240.13 18.28 240.01 18.45 239.73 18.25 239.52 17.96 239.42 17.71 239.3 17.35 239.23 17.14 239.07 16.67 238.51 16.43 238.36 16.17 238.32 15.85 238.22 15.53 238.05 15.38 237.9 15.21 237.78 15.25 237.49 15.21 236.95 15.29 236.71 15.26 236.56 15.34 236.38 15.51 236.17 15.77 236.03 15.94 235.6 16 235.54 16.21 235.34 16.34 235.13 16.59 235.02 16.78 235.08 17.25 235.34 17.43 235.39 17.69 235.43 17.94 235.12 17.93 234.75 18.26 234.28 18.37 234.05 18.38 233.9 18.37 233.65 18.25 233.49 18.02 233.37 17.89 233.13 17.79 233.02 17.64 232.91 17.62 232.78 17.52 232.58 17.46 232.06 17.49 231.79 17.63 231.52 17.84 231.49 18.12 231.31 18.35 231.19 18.6 230.97 18.88 230.83 18.93 230.7 19.14 230.62 19.31 230.5 19.44 230.43 19.57 230.28 19.97 230.04 20.08 229.94 20.16 229.83 20.39 229.65 20.51 229.6 20.7 229.47 20.99 229.18 21.31 228.94 21.59 228.86 21.77 228.93 21.93 229.04 22.14 229.07 22.36 229.15 22.75 229.37 22.89 229.5 23.29 229.47 23.49 229.51 23.95 229.34 24.23 229.29 24.35 229.16 24.48 228.95 24.84 228.67 25 228.51 25.21 228.16 25.32 228.09 25.65 228.06 25.89 227.98 26.07 227.97 26.27 227.91 26.57 227.91 27.11 227.7 27.3 227.6 27.48 227.47 27.62 227.3 27.61 227.27 27.75 227.2 27.82 227.12 27.87 227.08 28.15 227 28.27 226.84 28.42 226.74 28.55 226.71 28.64 226.67 28.78 226.58 28.91 226.57 29.16 226.44 29.3 226.34 29.38 226.29 29.56 226.12 29.63 226.08 29.71 226.01 29.79 225.97 29.88 225.88 30 225.82 29.98 225.73 29.99 225.59 29.95 225.5 29.9 225.22 29.93 224.94 30.13 224.32 30.21 224.25 30.35 224.06 30.41 223.97 30.43 223.87 30.5 223.7 30.85 223.53 31.13 223.56 31.46 223.65 31.57 223.64 31.73 223.66 31.83 223.62 31.94 223.61 32.01 223.59 32.1 223.53 32.38 223.44 32.45 223.44 32.59 223.4 32.71 223.42 32.95 223.37 33.02 223.27 33.19 223.23 33.41 223.13 33.61 223.14 33.8 223.1 33.96 223.08 34.08 223.1 34.32 222.97 34.42 222.89 34.44 222.82 34.44 222.75 34.49 222.66 34.54 222.62 34.6 222.53 34.61 222.37 34.63 222.28 34.74 222.2 34.83 222.06 34.88 221.9 34.9 221.78 34.88 221.69 35 221.36 35.11 221.23 35.19 221.11 35.34 221.09 35.68 220.99 35.88 220.81 35.99 220.79 36.5 220.62 36.63 220.63 36.79 220.58 36.86 220.53 36.99 220.5 37.12 220.43 37.3 220.38 37.36 220.31 37.49 220.2 37.72 220.1 37.74 219.99 37.98 219.99 38.26 220.05 38.36 220.01 38.56 220.02 38.65 220.01 38.73 220.02 39.11 219.98 39.34 220.03 39.66 220.13 39.8 220.11 39.99 220.15 40.26 220.25 40.63 220.23 40.92 220.18 41.29 220.18 41.57 220.31 41.68 220.32 42.04 220.54 43.05 220.73 43.23 220.8 43.87 220.86 44.59 220.86 44.92 220.81 45.07 220.76 45.67 220.5 45.89 220.39 46.07 220.25 46.34 219.98 46.6 219.59 46.67 219.51 46.76 219.33 46.86 219.05 46.93 218.78 46.95 218.65 46.92 218.33 46.94 218.07 47.02 217.84 47.21 217.51 47.49 217.24 47.65 217.13 47.81 217.05 47.96 217 48.12 216.87 48.29 216.79 48.45 216.69 48.74 216.39 48.77 216.33 48.88 216.21 49.1 215.8 49.14 215.53 49.14 215.14 49.04 214.73 48.98 214.61 48.93 214.35 48.95 214.27 49.28 213.8 49.35 213.67 49.33 213.29 49.3 213.11 49.47 212.77 49.64 212.49 49.67 212.35 49.67 212.18 49.58 212.11 49.57 212.03 49.7 211.57 49.68 211.5 49.88 211 50.04 210.85 50.12 210.74 50.11 210.65 50.17 210.54 50.3 210.45 50.24 210.12 50.17 209.98 50.1 209.91 50.02 209.88 50.06 209.71 50.03 209.59 50.14 209.53 50.57 209.43 50.63 209.58 50.86 209.57 51.03 209.61 51.38 209.53 51.57 209.54 51.72 209.6 51.83 209.59 52.02 209.61 52.36 209.68 52.54 209.63 52.65 209.58 52.8 209.58 52.92 209.64 53.11 209.65 53.23 209.62 53.4 209.62 53.78 209.69 53.86 209.74 54.31 209.76 54.58 209.84 54.72 209.78 54.79 209.67 54.92 209.59 55.25 209.27 55.36 209.24 55.42 209.11 55.64 208.85 56.18 208.82 56.57 208.73 56.66 208.7 56.72 208.66 56.82 208.64 57.09 208.7 57.36 208.69 57.47 208.7 57.71 208.66 57.95 208.67 58 208.66 58.07 208.6 58.26 208.56 58.33 208.47 58.49 208.47 59.01 208.31 59.13 208.32 59.3 208.36 59.6 208.17 59.71 208.07 59.99 207.91 60.28 207.65 60.41 207.59 60.45 207.5 60.51 207.43 60.79 207.34 60.95 207.33 61.46 207.21 61.57 207.12 62.23 206.82 62.51 206.63 62.76 206.5 63.07 206.21 63.28 206.15 63.49 206.05 63.76 206 63.91 205.95 64.05 205.93 64.18 205.85 64.27 205.82 64.39 205.74 64.66 205.68 64.78 205.65 64.92 205.53 65.11 205.53 65.33 205.47 65.47 205.47 65.63 205.5 65.86 205.51 65.96 205.55 66.22 205.61 66.21 205.45 66.35 205.15 66.3 204.93 66.48 204.8 66.61 204.74 66.76 204.7 66.91 204.49 67.18 204.45 67.37 204.27 67.53 204.08 67.85 203.87 68.02 203.63 68.18 203.6 68.35 203.48 68.32 203.18 68.41 203.08 68.62 202.97 68.99 202.91 69.32 202.76 69.58 202.54 70.25 202.09 70.33 202 70.5 201.98 70.73 202 70.94 201.91 71.38 201.59 71.7 201.41 72.1 201.24 72.29 201.2 72.4 201.13 72.45 200.97 72.54 200.82 72.61 200.59 72.72 200.43 72.72 200.14 72.77 199.98 72.78 199.85 72.99 199.1 73.14 199.03 73.29 198.88 73.27 198.73 73.38 198.49 73.4 198.31 73.33 198.22 73.25 198.09 73.19 197.88 73.22 197.74 73.42 197.46 73.43 197.27 73.36 197.04 73.24 196.27 73.53 195.63 73.77 195.49 74.47 195.37 74.77 195.17 74.8 194.97 74.93 194.86 74.98 194.34 75.05 194.04 75.33 193.54 75.33 193.29 75.2 193.11 74.96 192.87 74.89 192.62 74.45 191.84 74.29 191.38 74.41 191.13 74.58 190.94 74.85 190.7 75 190.36 75.16 190.24 75.82 189.86 76.16 189.88 76.19 189.69 76.64 189.45 77.28 189.19 77.6 189.09 77.88 189.05 78.33 189.01 78.8 188.87 79.36 188.6 79.63 188.39 79.84 188.15 79.96 187.81 80.42 187.81 80.84 187.91 81.35 187.9 81.76 187.91 82.03 187.87 82.5 187.76 82.78 187.73 83.34 187.58 83.96 187.35 84.04 187.18 84.76 186.54 84.95 186.28 85.29 186.18 85.36 185.66 85.77 185.05 86.01 184.53 86.1 184.25 86.13 183.99 85.96 183.59 85.93 183.29 85.76 183.05 85.57 182.68 85.69 182.53 85.94 182.27 86.29 181.98 86.65 181.94 86.85 181.88 87.57 181.62 87.9 181.44 88.05 181.57 88.25 181.79 88.65 182.3 88.85 182.5 88.99 182.56 89.2 182.6 89.49 182.59 89.63 182.41 89.69 182.19 89.82 182 90.12 181.88 90.3 181.84 90.78 181.69 91.07 181.51 91.4 181.34 91.73 181.23 92.09 181.18 92.47 181.24 92.77 181.24 93.17 181.29 93.62 180.94 93.96 180.81 94.21 180.74 94.2 180.64 94.15 180.53 94.28 180.31 94.36 180.1 94.46 180 94.48 179.86 94.47 179.7 94.69 179.35 94.71 179.24 94.76 179.12 94.85 179.01 94.96 178.95 95.22 178.87 95.35 178.77 95.47 178.77 95.78 178.65 96.14 178.62 96.24 178.57 96.38 178.54 96.5 178.48 96.88 178.5 97.02 178.53 97.22 178.55 97.63 178.23 97.7 177.89 97.66 177.66 97.74 177.43 97.78 177.22 97.71 177.09 97.68 176.93 97.66 176.79 97.61 176.65 97.49 176.47 97.42 176.4 97.21 176.23 97.12 176.13 97.08 176.01 97.26 175.66 97.57 175.43 97.69 175.39 97.9 175.14 97.99 174.99 98.01 174.9 98.14 174.69 98.37 174.41 98.56 174.25 98.36 174.04 98.29 173.91 98.21 173.81 98.21 173.63 98.13 173.52 97.83 173.16 97.64 173.02 97.53 172.85 97.24 172.6 97.19 172.42 97.07 172.27 97.44 171.9 97.65 171.73 97.75 171.62 97.93 171.52 98.05 171.33 98.25 171.21 98.67 171.21 98.85 171.16 99 171.05 99.21 170.98 99.32 170.92 99.69 171.11 99.95 171.27 100.2 171.44 100.34 171.58 100.5 171.7 100.67 171.84 100.8 171.93 101.04 172.06 101.09 172.23 101.36 172.53 101.44 172.67 101.62 172.76 102.11 172.85 102.64 172.98 102.84 173.06 103.07 173.09 103.21 173.08 103.46 173.04 103.74 172.97 103.99 173 104.38 172.91 104.67 172.88 104.81 172.85 104.94 172.83 105.71 172.94 106.07 172.93 106.6 172.75 106.76 172.65 106.85 172.66 106.96 172.7 107.13 172.71 107.26 172.73 107.37 172.76 107.51 172.76 107.69 172.82 108.11 172.84 108.19 172.91 108.32 172.95 108.85 173.03 109.01 173.01 109.43 173.03 109.6 173.02 109.8 173.08 109.96 173.16 110.09 173.32 110.27 173.37 110.39 173.38 110.53 173.38 110.71 173.33 110.99 173.37 111.22 173.31 111.35 173.27 111.52 173.16 111.68 173.13 111.92 173.13 112.28 173.16 112.6 173.15 113.11 173.2 113.32 173.2 113.49 173.17 113.67 173.09 113.99 173.08 113.99 172.86 113.96 172.54 114.14 172.26 114.22 172.03 114.34 171.9 114.44 171.73 114.46 171.67 114.44 171.47 114.45 171.3 114.59 170.84 114.72 170.63 115.02 170.33 115.16 170.1 115.29 169.8 115.29 169.34 115.38 169.15 115.45 168.95 115.53 168.75 115.83 168.19 115.97 167.86 116.23 167.63 116.43 167.5 116.66 167.47 116.82 167.48 117.05 167.46 117.24 167.34 117.48 167.12 117.2 166.91 117 166.83 116.43 166.72 116.18 166.65 115.81 166.49 115.53 166.48 115.29 166.43 115.2 166.32 114.99 166.14 114.93 166.06 114.78 166.03 114.44 165.85 114.29 165.75 114.18 165.62 114.09 165.33 114.06 165.14 114.01 164.95 113.8 164.69 113.53 164.46 113.33 164.15 113.21 164.06 113 163.96 112.63 163.71 112.32 163.58 111.76 163.07 111.16 162.82 110.66 162.67 110.4 162.44 109.83 161.53 109.6 161.3 109.45 161.11 109.26 160.79 109.16 160.67 108.98 160.52 108.79 160.16 108.67 160.07 108.49 159.69 108.76 159.67 108.89 159.57 109.15 159.52 109.48 159.33 109.81 159.26 110.08 159.24 110.41 159.14 110.77 159.01 111.11 158.98 111.52 158.91 111.88 158.82 112.29 158.69 112.58 158.57 113.18 158.42 113.62 158.29 114.24 158.04 114.44 157.74 114.45 157.53 114.58 157.23 115.19 157.09 115.33 156.96 115.64 156.83 115.92 156.76 116.36 156.13 116.42 155.86 116.53 155.69 116.79 155.54 117.09 155.42 117.44 155.3 117.85 155.26 118.16 155.28 118.38 155.24 118.72 155.19 118.93 155.14 119.26 154.96 119.66 154.82 119.84 154.7 120.09 154.38 120.13 154.11 120.13 153.87 120.09 153.61 119.95 153.07 119.95 152.83 120.14 152.68 120.42 152.51 121.08 152.37 121.36 152.19 121.64 152.05 122.05 151.89 122.37 151.75 122.51 151.63 122.66 151.46 123.7 151.12 124.17 151.14 124.4 151.09 124.69 150.94 125.11 150.84 125.64 150.65 125.56 150.48 125.5 150.28 125.26 149.98 125.22 149.65 125.11 149.4 125.06 149.13 125.08 148.83 125.32 148.59 125.65 148.39 125.78 148.17 126 147.9 126.52 147.66 126.86 147.53 127.31 147.23 127.61 146.55 127.82 146.42 128.58 146.01 128.56 145.75 128.45 145.56 128.28 144.81 128.43 144.67 128.55 144.47 128.42 144.21 128.34 143.91 128.17 143.48 127.88 143.22 127.75 143.03 127.73 142.8 127.74 142.47 127.67 142.05 127.82 141.93 128.11 141.76 128.6 141.57 128.86 141.51 129.12 141.43 129.44 141.36 129.46 141.15 129.45 140.77 129.34 140.38 129.24 139.86 129.38 139.78 129.75 139.66 130.52 139.68 130.85 139.61 131.7 139.59 132.31 139.54 132.62 139.48 132.74 139.37 132.79 139.3 132.8 139.21 132.76 139.12 132.45 138.7 132.37 138.48 132.2 137.95 132.16 137.72 132.08 137.54 131.98 137.4 131.65 137.08 131.59 136.98 131.51 136.92 131.28 136.52 131.08 136.25 130.91 136.1 130.86 135.98 130.97 135.86 131.05 135.81 131.24 135.51 131.36 135.37 131.42 135.27 131.48 134.89 131.64 134.67 131.87 134.4 132.16 134.18 132.33 133.91 132.22 133.67 131.9 133.36 131.87 132.89 131.89 132.41 131.83 132.02 131.76 131.72 131.64 131.42 131.66 131.19 131.58 130.82 131.61 129.49 131.62 129.23 131.82 129.17 131.82 128.98 131.98 128.81 132.4 128.89 132.61 129.01 132.91 129.08 132.96 128.95 132.95 128.81 132.88 128.58 132.97 128.41 133.5 128.3 133.89 128.23 134.26 127.96 134.75 127.84 135.06 127.74 135.41 127.52 136.18 127.19 136.49 127.11 136.96 126.95 137.37 126.9 137.8 126.87 137.9 127.12 138.03 127.28 138.01 127.66 138.29 128.12 138.74 128.56 138.98 128.86 139.24 129.05 139.55 129.21 139.78 129.37 140.08 129.5 140.4 129.71 140.62 129.76 140.8 129.85 141.65 130.06 142.58 130.38 143.09 130.62 143.32 130.81 143.38 131.21 143.55 131.55 143.61 131.79 143.68 131.97 143.83 132.05 144.02 132.05 144.17 131.96 144.44 132.08 144.62 132.21 144.96 132.4 145.56 132.51 145.69 132.61 146.21 133.14 146.38 133.5 146.59 133.61 146.84 133.73 147.18 133.81 147.45 133.98 147.65 134.24 147.82 134.41 148.38 134.56 148.78 134.59 149.03 134.57 149.32 134.58 149.44 134.63 149.67 134.63 150.04 134.65 150.32 134.63 150.43 134.52 150.61 134.4 150.78 134.22 151.08 134.07 151.38 133.98 151.65 133.92 152.02 133.79 152.34 133.76 152.41 134.47 152.53 134.76 152.64 134.94 153.09 135.62 153.61 135.89 153.77 136.02 154.28 136.13 154.48 136.24 154.7 136.3 155.43 136.31 155.63 136.27 155.85 136.31 156.11 136.43 156.48 136.51 156.73 136.55 157.27 136.64 157.43 136.74 157.73 136.78 157.88 136.88 158.13 137.02 158.41 137.1 158.7 137.12 159.15 137.31 159.62 137.54 160.03 137.69 160.43 138.27 160.55 138.31 160.73 138.3 160.87 138.46 160.93 138.64 161.14 138.84 161.22 139.07 161.37 139.35 161.52 139.52 161.75 139.75 161.82 139.89 162.05 140.06 162.21 140.11 162.7 140.22 162.84 140.33 162.97 140.39 163.16 140.57 163.28 140.75 163.4 140.88 163.55 140.96 163.79 141.04 163.94 141.16 164.03 141.3 164.18 141.44 164.4 141.55 164.59 141.62 164.83 141.78 165.05 142 165.31 142.48 165.57 142.72 165.85 142.8 166.23 142.85 166.61 142.82 166.91 142.84 167.13 142.88 167.44 142.89 167.57 142.95 167.97 143.05 168.3 143.15 168.45 143.17 168.87 143.39 169.1 143.54 169.24 143.58 169.6 143.96 169.62 144.18 169.73 144.26 169.8 144.39 169.83 144.5 169.91 144.65 169.99 144.76 170.08 144.97 170.21 145.19 170.59 145.62 171.2 146.07 171.33 146.36 171.43 146.47 171.49 146.8 171.72 147.05 171.87 147.17 172.09 147.33 172.49 147.54 172.85 147.92 173.07 148 173.45 148.24 173.85 148.43 174.2 148.54 174.51 148.65 174.75 148.95 175.54 149.25 175.79 149.44 176.01 149.56 176.36 149.87 176.49 150.08 176.86 150.31 177.16 150.42 177.57 150.62 177.8 150.78 178.03 150.91 178.66 151.03 178.88 151.09 179.22 151.16 179.74 151.33 179.95 151.44 180.75 151.6 181.27 151.64 182.12 151.82 182.24 151.61 182.61 151.05 183.01 150.02 183.11 149.66 183.11 149.15 183.14 149.07 183.16 149.04 183.54 148.63 183.95 148.32 184.27 148.18 184.64 148.07 185.36 147.86 185.85 147.47 185.93 147.38 186.36 147.08 186.55 146.87 186.61 146.75 186.62 146.47 186.58 146.35 186.52 146.25 186.27 145.96 185.95 145.74 185.67 145.59 185.42 145.37 185.31 145.29 185.09 145.11 185.04 144.95 185.02 144.53 185.03 144.46 185.1 144.24 185.11 144.17 185.02 143.79 184.98 143.73 184.99 143.37 185.07 143.13 185.16 143.09 185.25 143.01 185.41 142.94 185.51 142.92 185.62 142.87 185.95 142.8 186.22 142.73 186.51 142.69 186.67 142.62 186.82 142.58 187.1 142.5 187.26 142.44 187.42 142.37 187.65 142.24 188.01 142.12 188.26 142.06 188.53 141.99 188.66 141.95 188.79 141.91 188.84 141.9 188.9 141.89 188.95 141.88 189 141.88 189.06 141.88 189.12 141.85 188.74 141.42 188.68 141.35 188.64 141.31 188.49 141.26 188.2 141.21 187.76 141.19 187.24 141.23 186.44 141.46 186.2 141.38 185.93 141.03 185.79 140.73 185.73 140.51 185.6 140.08 185.53 139.88 185.55 139.76 185.57 139.7 185.6 139.54 185.68 139.34 185.77 139.06 185.77 138.57 185.62 138.27 185.42 137.99 185.26 137.87 185.12 137.75 185.02 137.66 184.92 137.58 184.63 137.16 184.34 136.85 184.22 136.61 184.15 136.46 183.82 136.07 183.77 135.7 183.67 135.15 183.46 134.83 183.38 134.68 183.17 134.5 183.05 134.36 182.89 134.23 182.69 134 182.45 133.76 182.27 133.59 182.18 133.4 182.07 133.07 182.04 132.48 182.06 132.29 181.91 131.95 181.76 131.69 181.54 131.44 181.15 131.16 180.82 130.7 180.6 130.61 180.32 130.45 180.21 130.33 179.98 129.99 179.87 129.79 179.78 129.55 179.7 129.23 179.67 129.03 179.68 128.88 179.61 128.77 179.61 128.7 179.67 128.57 179.68 128.48 179.64 128.31 179.58 127.81 179.52 127.52 179.47 127.07 179.56 126.68 179.64 126.48 179.71 126.39 179.77 126.34 180.32 125.83 180.38 125.73 180.49 125.58 180.67 125.25 180.76 125.07 180.8 124.93 180.86 124.57 180.9 124.25 181.07 123.93 181.3 123.67 181.23 123.38 181.19 123.27 180.97 122.96 180.9 122.78 180.89 122.62 180.95 122.16 180.98 121.98 181.07 121.69 181.1 121.6 181.22 121.44 181.48 121.17 181.7 120.98 181.85 120.87 182.32 120.58 182.49 120.39 182.63 120.11 182.79 119.91 182.99 119.71 183.14 119.81 183.32 119.83 183.46 119.87 183.83 119.86 184.23 119.8 184.35 119.77 184.46 119.75 184.65 119.78 185.13 119.79 185.37 119.72 185.57 119.63 185.73 119.64 186.05 119.71 186.31 119.64 186.52 119.63 186.67 119.55 186.81 119.53 186.93 119.54 187.05 119.49 187.16 119.46 187.39 119.44 187.49 119.44 187.87 119.53 188.03 119.5 188.14 119.49 188.4 119.53 188.49 119.53 188.62 119.58 188.79 119.62 189 119.66 189.28 119.76 189.72 119.82 189.85 119.81 190.07 119.83 190.16 119.89 190.65 120.12 191.04 120.32 191.52 120.5 191.76 120.57 192.02 120.64 192.84 120.92 193.87 121.16 194.64 121.18 194.94 121.3 195.34 121.36 195.62 121.36 195.93 121.3 196.94 121.27 197.4 121.3 197.66 121.28 197.99 121.32 198.22 121.43 198.53 121.51 198.92 121.52 199.21 121.58 199.49 121.59 199.72 121.63 199.97 121.72 200.24 121.69 200.52 121.63 200.76 121.63 201.1 121.65 201.37 121.71 201.7 121.65 202.01 121.56 202.4 121.39 202.57 121.35 202.75 121.35 203.18 121.24 203.57 121.19 204.26 121.04 204.46 121.01 204.97 121.02 205.1 121.04 205.65 121.09 206.28 121.17 206.63 120.98 206.83 120.91 207.24 120.67 207.44 120.58 207.91 120.45 208.2 120.39 208.6 120.22 208.8 120.1 208.89 119.99 209.36 119.94 209.59 119.86 209.85 119.85 210.15 119.87 210.52 119.77 210.79 119.76 211 119.7 211.18 119.81 211.45 119.83 211.73 119.76 211.87 119.8 212.02 119.78 212.21 119.7 212.72 119.68 213.01 119.7 213.74 119.46 213.94 119.42 214.16 119.41 214.68 119.42 214.72 119.25 214.71 119.09 214.78 118.86 214.82 118.65 215.07 118.23 215.1 118.11 215.09 117.77 215.18 117.63 215.23 117.52 215.25 117.42 215.35 117.27 215.52 117.11 215.69 116.97 215.73 116.79 216.58 116.07 216.73 115.89 216.8 115.64 216.92 115.33 216.9 115.12 216.62 114.86 216.72 114.64 216.95 114.36 217.08 114.04 217.04 113.67 217.05 113.54 216.96 113.3 216.89 113.02 216.86 112.94 216.8 112.88 216.87 112.64 216.9 112.41 216.94 112.28 217.17 112.18 217.51 111.99 218.03 111.92 218.16 111.9 218.27 111.86 218.37 111.8 219.21 111.01 219.33 110.77 219.43 110.47 219.58 110.25 219.69 109.99 219.89 109.59 219.94 109.49 219.96 109.44 220 109.41 220.03 109.37 220.08 109.33 220.12 109.31 220.29 108.9 220.34 108.76 220.35 108.7 220.35 108.63 220.35 108.51 220.35 108.42 220.37 108.31 220.39 108.28 220.54 108.25 220.7 108.25 220.84 108.23 220.98 108.24 221.06 108.26 221.15 108.27 221.24 108.28 221.26 108.28 221.31 108.27 221.35 108.25 221.39 108.24 221.45 108.23 221.51 108.21 221.56 108.2 221.62 108.18 221.67 108.17 221.77 108.16 221.9 108.14 222.09 108.12 222.13 108.11 222.33 108.07 222.52 108.04 222.75 107.86 223.08 107.79 223.29 107.71 223.61 107.72 223.88 107.64 224.04 107.52 224.36 107.42 224.58 107.41 224.85 107.33 225.12 106.98 225.4 106.7 225.48 106.46 225.53 106.38 225.62 106.26 225.64 106.24 225.76 106.17 225.81 106.14 225.87 106.12 226.02 106.07 226.13 106.04 226.18 106.03 226.23 106.02 226.77 105.89 226.86 105.87 226.99 105.83 227.2 105.76 227.3 105.73 227.41 105.68 227.57 105.6 227.8 105.53 227.94 105.48 227.99 105.46 228.11 105.4 228.16 105.37 228.28 105.33 228.35 105.3 228.55 105.26 228.83 105.29 228.88 105.3 229.32 105.25 229.5 105.24 229.54 105.23 229.69 105.25 229.96 105.29 230.13 105.3 230.26 105.31 230.39 105.33 230.45 105.34 230.51 105.34 230.66 105.33 230.77 105.32 230.94 105.34 231.01 105.35 231.09 105.35 231.21 105.35 231.35 105.34 231.54 105.34 231.59 105.34 231.7 105.35 231.87 105.35 232.01 105.36 232.09 105.36 232.23 105.37 232.38 105.38 232.55 105.39 232.59 105.39 232.73 105.4 232.88 105.41 233.02 105.41 233.14 105.42 233.18 105.42 233.27 105.42 233.43 105.42 233.57 105.42 233.6 105.42 233.75 105.44 233.86 105.45 234.01 105.47 234.13 105.48 234.2 105.49 234.26 105.5 234.36 105.51 234.42 105.51 234.68 105.53 234.87 105.44 234.94 105.43 235.01 105.42 235.08 105.41 235.12 105.4 235.3 105.36 235.4 105.37 235.53 105.38 235.68 105.4 235.76 105.42 235.82 105.44 235.89 105.46 235.96 105.48 236.03 105.5 236.07 105.52 236.14 105.55 236.22 105.58 236.31 105.61 236.43 105.59 236.74 105.54 237.31 105.55 237.54 105.49 237.71 105.45 237.81 105.42 237.98 105.39 238.11 105.36 238.22 105.33 238.27 105.33 238.44 105.33 238.67 105.34 238.85 105.35 238.98 105.35 239.15 105.35 239.3 105.32 239.48 105.29 239.57 105.27 239.63 105.26 239.71 105.25 239.88 105.23 239.96 105.23 240.38 105.02 240.48 104.83 240.89 103.82 240.99 103.72 241.22 103.61 241.41 103.46 241.52 103.11 241.87 102.92 242.08 102.69 242.4 102.57 242.59 102.43 242.89 102.37 244.18 101.9 244.4 101.9 244.7 101.79 244.86 101.59 245.05 101.49 245.21 101.42 245.48 101.25 245.8 100.97 246.43 100.53 246.7 100.21 247.09 100.12 247.32 100.04 247.87 99.72 248 99.22 247.99 98.85 248.01 98.52 247.97 98.27 247.85 97.95 248.11 97.7 248.37 97.41 248.55 97.14 248.56 96.65 248.36 96.29 248.22 95.77 248.4 94.78 248.77 94.89 249.1 94.9 249.54 94.96 249.86 94.94 250.23 94.88 250.46 94.92 250.79 95.02 251.04 95.14 251.85 95.36 252.2 95.44 253.51 95.43 254.04 95.48 254.88 95.36 255.28 95.32 255.86 95.3 256.5 95.18 256.8 95.03 256.96 94.92 257.15 94.73 257.48 94.6 257.67 94.51 257.87 94.52 258.34 94.59 259.04 94.92 259.41 94.98 259.61 95.13 260.07 95.38 260.36 95.43 260.61 95.45 260.97 95.42 261.3 95.49 261.72 95.63 262.21 95.73 262.49 95.86 262.73 95.94 263.03 95.99 263.18 95.91 263.66 95.8 263.86 95.68 264.14 95.39 264.4 95.07 264.68 94.69 264.8 94.43 265.04 94.16 265.17 93.93 265.4 93.79 265.51 93.59 265.51 93.4 265.32 93.17 265.17 92.7 265.29 92.18 265.6 91.84 265.89 91.58 265.87 91.18 265.56 90.88 265.24 90.52 265.07 90.1 265.17 89.77 265.15 89.5 265 89.16 264.84 88.86 264.75 88.73 264.7 88.55 264.77 88.24 264.78 87.95 264.95 87.69 265.08 87.46 265.01 87.13 264.9 86.75 264.74 86.58 264.65 85.84 264.73 85.42 264.73 85.14 264.93 85 265.02 84.87 265.33 84.53 265.36 84.22 265.6 84.03 265.75 83.93 266.14 83.75 266.28 83.49 266.23 83.24 266.32 82.91 266.34 82.61 266.42 82.36 266.52 82.15 266.74 82.04 267.05 81.79 267.23 81.53 267.23 81.37 267.09 80.84 267.04 80.47 267.15 80.04 267.36 79.63 267.38 79.26 267.49 78.96 267.8 78.58 267.97 78.46 268.39 78.39 268.69 78.39 269.15 78.24 269.5 78.37 269.76 78.32 269.91 78.38 270.21 78.39 271.12 78.32 271.48 78.31 271.82 78.33 272.39 78.31 272.82 78.35 273.55 78.45 274.54 78.47 275.05 78.36 275.38 78.48 276.68 78.72 276.95 78.62 277.36 78.58 277.76 78.61 278.21 78.59 278.48 78.45 278.76 78.11 279.53 77.7 279.84 77.58 280.31 77.35 280.79 77.17 281.18 77.05 281.46 77.04 281.77 77.06 282.24 76.89 282.69 76.63 282.86 76.28 283.41 75.91 283.73 75.64 284.24 75.52 285.1 75.57 285.66 75.53 286.03 75.39 286.84 75.14 287.07 74.99 287.57 74.79 287.95 75.08 288.56 75.33 289.18 75.4 289.58 75.52 290.65 75.75 290.88 75.82 290.99 75.99 291.17 76.03 291.83 76.11 292.44 76.13 292.82 76.08 293.04 75.99 293.35 75.96 294.15 75.99 294.47 75.93 295.04 75.54 295.39 75.52 295.74 75.65 296.03 75.88 296.38 75.99 296.74 76.09 297.12 76.14 297.61 75.95 297.92 76.07 298.86 75.92 299.32 75.73 299.8 75.31 300.08 75.01 300.87 74.57 301.16 73.83 301.44 73.57 301.31 73.14 300.54 71.08 300.57 70.88 300.15 70.14 299.54 69.77 299.04 69 298.97 68.75 298.46 68.28 298.45 68.11 298.33 67.75 298.25 67.33 298.25 67.14 298.17 66.8 297.92 66.33 297.1 65.95 296.75 65.72 296.36 65.39 295.54 64.89 295.28 64.64 295.22 64.39 295.02 64.05 294.79 63.92 295.08 63.39 295.66 62.8 296.19 62.48 296.71 61.96 297.36 61.52 297 61.38 296.75 61.32 296.17 61.14 295.55 60.77 295.02 60.41 294.55 59.96 294.1 59.43 294.31 59.01 294.62 58.66 295.07 58.22 295.21 57.98 295.39 57.85 295.72 57.7 296.08 57.7 296.5 57.67 296.7 57.63 297.1 57.3 297.2 57.06 297.27 56.87 297.71 56.32 298.19 56.06 298.38 55.94 298.67 55.92 299.19 55.98 299.42 56.13 299.9 56.38 300.91 56.55 301.74 56.66 302.17 56.23 302.49 55.99 302.53 55.74 302.5 55.53 302.6 55.3 302.74 55.03 303.21 54.87 303.43 54.74 303.76 54.41 304 54.51 304.51 54.57 304.74 54.44 304.88 54.32 305.21 54.32 305.56 54.37 305.88 54.48 306.26 54.47 306.54 54.51 307.07 54.54 307.34 54.5 307.81 54.37 307.72 54.07 307.73 53.7 307.39 52.94 307.24 52.67 307.3 52.36 307.18 52.18 307.15 51.99 306.9 51.62 306.96 51.48 306.95 51.26 307.51 51.24 307.75 51.2 307.95 51.15 308.14 51 308.35 50.96 308.95 50.9 309.15 50.74 309.32 50.52 309.51 50.39 309.72 50.27 310.1 50.18 310.2 50.02 310.42 49.89 310.75 49.96 311.08 50 311.6 49.69 311.83 49.5 312.02 49.41 312.07 49.22 312.25 49.06 312.38 48.8 312.38 48.32 312.3 48.09 312.4 47.91 312.43 47.63 312.41 47.28 312.77 47.35 313.19 47.45 313.66 47.47 313.87 47.39 314.12 47.28 314.45 47.25 314.74 47.32 315.05 47.33 315.6 47.46 315.74 47.59 315.91 47.69 316.17 47.79 316.94 48.01 317.27 48.08 317.66 48.09 318.07 48.21 318.71 48.48 319.05 48.58 319.92 48.8 320.21 48.85 320.51 49.07 320.8 49.09 321.33 49.25 321.69 49.18 321.97 49 322.34 49.02 322.79 49.11 323.05 49.1 323.65 49.27 323.93 49.23 324.36 49.26 324.56 49.32 325.03 49.5 325.33 49.72 325.76 49.88 325.78 49.89 326.38 50.23 326.69 50.29 327.15 50.62 327.41 50.72 327.72 50.96 327.99 50.91 328.21 50.77 328.53 50.6 328.86 50.56 329.24 50.45 329.53 50.41 330.02 50.33 330.32 50.22 330.64 50.2 330.89 50.1 331.16 49.91 331.51 49.8 331.87 49.61 332.21 49.5 332.43 49.49 332.85 49.58 333.2 49.44 333.19 48.97 333.1 48.81 333.11 48.55 333.33 48.27 334.1 47.77 334.37 47.62 334.64 47.42 334.83 47.31 335.12 47.21 335.45 47.2 335.77 47.17 336.21 47.09 336.42 47.08 336.78 47.12 337.53 47.07 337.65 46.99 337.66 46.71 337.85 46.46 337.99 46.2 337.96 45.87 337.71 45.51 337.61 45.26 337.51 45.08 337.44 44.84 337.36 44.69 337.48 44.46 337.52 44.36 337.75 44.08 337.88 43.88 338.09 43.62 338.33 43.53 338.44 43.31 338.73 43.06 339.09 43.07 340.1 43.34 340.64 43.44 341 43.58 341.4 43.68 341.78 43.82 342.16 43.93 342.47 44.01 342.77 44.04 343.07 44.18 343.42 44.32 343.71 44.39 344.54 44.57 344.97 44.68 345.69 45.11 346.08 45.33 346.43 45.41 346.81 45.44 347.67 45.17 347.94 45.01 348.3 45.04 348.7 45.18 349.48 45.18 349.94 45.3 350.43 45.34 350.8 45.51 351.1 45.29 351.46 45.06 351.8 44.81 352.24 44.79 352.69 44.58 352.97 44.45 353.59 44.24 354.27 44.19 354.66 44.22 355.14 44.31 355.94 44.4 356.23 44.16 356.32 43.95 356.68 43.52 356.67 43.3 356.7 43.06 356.78 42.82 356.73 42.47 356.8 42.26 356.76 42.07 356.76 41.8 356.87 41.65 356.85 41.45 356.55 41.05 356.45 40.83 356.48 40.47 356.91 40.42 357.39 40.42 357.77 40.21 358.36 40.03 358.85 39.9 359.46 39.87 360 39.79 360.61 39.64 361.11 39.55 361.34 39.38 361.64 39.23 362.11 39.17 362.56 39.06 363.09 39.01 363.49 39 364.21 38.78 364.66 38.69 365.24 38.74 365.87 38.73 366.26 38.76 366.99 38.85 367.32 38.94 368.26 39.49 368.8 39.66 369.25 39.91 369.53 40.29 369.98 40.47 370.69 40.68 371.51 40.86 371.67 40.88 372.06 40.83 372.58 40.66 373.43 40.64 373.98 40.57 374.39 40.47 374.76 40.36 375.14 40.35 375.63 40.44 376.1 40.47 376.44 40.34 376.77 40.25 377.27 40.09 377.6 39.92 378.03 39.88 378.61 39.84 379.13 39.85 379.59 39.9 380.39 40.06 380.91 40.13 381.64 40.13 382.01 40.06 382.33 39.96 382.54 39.75 382.84 39.52 382.96 39.39 383.23 39.26 383.67 39.11 384.09 38.91 384.43 38.9 385.12 38.69 385.81 38.94 386.18 39.01 387.2 39.37 387.46 39.39 387.89 39.34 387.9 39.07 387.9 38.75 387.98 38.5 388.27 37.99 388.69 37.8 388.98 37.5 389.14 37.22 389.36 37.17 389.64 37.06 389.8 36.99 389.99 36.87 390.12 36.65 390.48 36.22 390.78 36.11 390.97 35.91 391.11 35.67 391.37 35.6 391.61 35.46 391.98 35.19 392.4 35.02 392.72 34.91 393 34.88 393.26 34.62 393.72 34.11 393.83 33.87 394.06 33.6 394.47 33.04 394.66 32.66 395 32.58 395.43 32.49 395.96 32.5 396.21 32.46 396.51 32.28 396.76 32.04 396.91 31.84 397.14 31.43 397.32 31.29 397.61 31.15 397.76 31.02 398.18 30.53 398.37 30.46 398.65 30.27 398.95 30.2 399.33 30.12 399.56 30.14 399.86 30.08 400.3 29.93 400.47 29.77 400.92 29.58 401.02 29.45 401.15 29.26 401.66 29.23 401.96 29.16 402.27 28.99 402.39 28.97 402.52 28.73 402.73 28.42 402.83 28.19 403.04 27.92 403.43 27.65 403.5 27.49 403.7 27.35 403.78 26.9 403.93 26.67 404.07 26.49 404.08 26.28 404.31 26.19 404.55 25.91 404.5 25.6 404.68 25.29 404.83 24.85 405.06 24.8 405.29 24.72 405.61 24.63 405.96 24.76 406.71 25.21 407.04 25.35 407.36 25.42 407.76 25.42 408.03 25.29 408.19 24.99 408.56 24.79 408.84 24.6 409.08 24.52 409.45 23.87 409.77 23.82 410.51 23.87 410.89 23.8 411.42 23.75 411.65 23.67 411.87 23.5 412.23 23.31 412.76 23.11 413.11 22.72 413.49 22.41 413.98 22.04 414.23 21.96 414.59 22.17 414.99 22.47 415.22 22.57 415.52 22.57 415.83 22.66 416.17 22.65 416.64 22.55 416.86 22.43 417.1 22.32 417.29 22.27 417.5 22.27 417.79 22.31 418.11 22.3 418.33 22.26 418.81 22.25 419.04 22.34 419.33 22.43 419.41 22.29 419.64 22.21 420.01 22.12 420.38 21.95 420.56 21.63 420.68 21.51 420.87 21.35 420.98 21.15 421.07 20.95 421.27 20.9 421.56 20.92 421.89 20.85 422.2 20.83 422.45 20.75 422.66 20.59 422.83 20.3 423.01 20.14 423.16 20.05 423.51 20 423.84 19.99 424.08 20.05 424.49 20.12 424.85 20.27 425.12 20.34 425.42 20.26 425.7 20.3 425.92 20.37 426.3 20.51 426.69 20.56 427.37 20.5 427.8 20.39 428 20.19 428.33 19.84 428.49 19.7 428.56 19.34 429.11 19.12 429.69 19.05 430.43 18.74 430.76 18.51 430.99 18.26 431.52 18.15 431.81 18.13 432.15 17.98 432.63 17.83 433.05 17.96 433.58 18.04 433.87 18.55 434.21 18.87 434.27 19.07 434.59 19.36 435.09 19.28 435.62 19.31 436 19.31 436.54 19.39 436.95 19.39 437.36 19.36 437.7 19.45 437.97 19.47 438.18 19.56 438.52 19.76 438.82 19.9 439.42 20.23 439.64 20.4 439.96 20.6 440.5 20.54 441.45 20.59 441.85 20.72 442.16 20.73 442.59 20.86 442.97 21.01 443.37 21.04 443.94 20.9 444.43 20.89 444.8 20.85 445.15 20.67 445.73 20.6 446.03 20.51 446.69 20.36 447.06 20.34 447.42 20.35 447.79 20.33 448.24 20.18 448.85 20.73 449.18 20.94 449.83 21.17 450.61 21.4 451.03 21.64 451.31 21.94 451.93 22.21 452.33 22.14 452.54 22.06 453.18 21.59 453.68 21.42 454.22 21.31 454.99 20.93 455.18 20.79 455.55 20.41 455.93 20.08 456.64 19.74 456.85 19.52 457.19 19.27 457.52 19.17 457.96 19.15 458.36 19.08 458.64 19.04 458.82 19.07 459.58 18.74 459.91 18.57 460.26 18.34 460.53 18.1 460.8 17.94 460.98 17.66 461.36 17.46 461.65 17.28 462.02 17.11 462.41 16.87 462.61 16.94 462.68 17.19 462.68 17.4 462.8 17.51 462.97 17.53 463.3 17.59 463.61 17.57 463.84 17.63 464.02 17.64 464.19 17.5 464.42 17.24 464.82 17.12 465.12 17.09 465.69 17.09 466.01 17.15 466.43 17.18 466.83 17.17 466.98 17.39 467.03 17.66 467.55 18.07 467.57 18.28 467.77 18.55 467.84 18.74 468.06 18.95 468.8 19.95 468.87 20.4 469.22 20.49 469.44 20.47 469.77 20.34 470.02 20.28 470.26 20.4 470.67 20.44 470.95 20.33 471.12 20.09 471.39 20.14 471.67 20.12 471.98 19.95 472.36 19.87 472.6 19.76 472.85 19.67 473.1 19.68 473.52 19.76 473.78 19.74 474.1 19.69 474.29 19.48 474.58 19.33 474.87 19.14 475.08 18.95 475.36 18.81 475.69 18.59 476.02 18.44 476.28 18.41 476.49 18.31 476.75 18.24 476.95 18.21 477.23 18.29 477.47 18.52 477.82 18.63 478.21 18.85 478.52 18.95 478.85 19.01 479.15 19.18 479.51 19.26 479.78 19.37 480.07 19.41 480.42 19.5 480.79 19.65 481.06 19.84 481.24 20 481.48 20.23 481.7 20.57 481.69 20.91 482 20.89 482.39 21.01 482.75 21.01 483.29 21.05 483.61 21.14 483.89 21.01 484.24 20.88 484.94 20.82 485.27 20.88 485.59 20.89 485.9 20.84 486.22 20.74 486.36 20.62 486.55 20.6 486.85 20.68 487.15 20.81 487.43 20.96 487.74 21.02 488.51 20.59 488.77 20.59 489.09 20.54 489.47 20.36 489.76 20.25 490.02 20.17 490.36 19.98 490.67 19.82 490.97 19.71 491.42 19.63 491.74 19.64 491.95 19.71 492.12 19.87 492.33 19.93 493.07 20.25 493.38 20.29 493.88 20.32 494.32 20.42 494.46 20.65 494.58 20.79 494.59 21.01 494.8 21.17 495.2 21.26 495.8 20.98 496.31 21.07 496.77 21.1 497.43 21.11 497.98 21.08 498.44 20.99 499.09 20.71 499.43 20.63 499.86 20.93 500.22 20.99 501.01 21.18 501.44 21.25 501.93 21.44 502.39 21.58 503.33 21.59 503.72 21.54 504.25 21.4 504.54 21.28 504.75 21.14 504.97 20.98 504.95 20.53 504.88 20.38 504.85 20.19 505.37 19.85 505.52 19.66 505.75 19.47 505.99 19.36 506.16 19.22 506.37 19.1 506.54 18.95 506.93 18.87 507.35 18.81 508.79 18.75 509.25 18.79 509.62 18.92 509.86 19.07 510.06 19.17 510.4 19.27 510.78 19.53 511.2 19.59 511.88 19.77 512.1 19.91 512.42 19.96 513.18 20.28 513.62 20.32 514.36 20.56 514.62 20.59 514.81 20.49 515.22 20.09 515.51 19.74 515.8 19.5 515.88 19.32 516.04 19.21 516.18 19.03 516.21 18.79 516.31 18.49 516.28 18.22 516.03 17.92 516.12 17.7 516.24 17.32 516.34 17.21 516.46 17.11 516.58 16.97 516.64 16.8 516.33 16.39 516.44 16.3 516.78 16.18 517.07 15.95 517.5 15.72 517.83 15.6 518.22 15.43 518.56 15.4 518.83 15.35 518.96 15.17 519.21 14.93 519.32 14.65 519.28 14.24 519.12 14.04 519 13.83 518.84 13.78 518.75 13.6 518.73 13.42 518.79 13.3 518.7 13.04 519.29 12.86 519.53 12.74 519.81 12.72 520.1 12.57 520.69 12.36 520.85 12.09 520.84 11.82 521.06 11.58 521.28 11.42 521.62 10.93 521.95 10.73 522.26 10.7 522.53 10.7 522.85 10.6 523.16 10.56 523.56 10.42 524 10.55 524.3 10.62 524.82 10.64 525.38 10.6 525.64 10.55 526.06 10.67 526.43 10.81 526.77 11 526.89 11.19 527.1 11.36 527.12 11.63 527.56 11.86 527.76 12.08 528.02 12.19 528.21 12.35 528.41 12.71 528.76 12.95 529.04 13.13 529.2 13.43 529.44 13.59 529.71 13.68 530.17 13.72 530.43 13.71 530.77 13.78 531.03 14.09 531.18 14.42 531.35 14.55 531.47 14.79 531.7 14.76 531.81 14.67 532.26 14.63 532.54 14.48 533.03 14.37 533.29 14.26 533.7 14.24 533.96 14.25 534.25 14.28 534.3 14.45 534.54 14.61 534.77 14.83 534.96 15.04 535.17 15.35 535.41 15.35 535.71 15.31 536.62 15.09 537.05 15.14 537.38 15.1 537.65 15.04 537.97 15.05 538.49 14.95 538.75 14.93 538.92 15 539.26 15.02 539.9 15 540.67 14.81 540.97 14.76 541.29 14.82 541.52 14.91 541.83 14.92 542.06 14.98 542.39 14.96 542.72 14.98 542.99 14.88 543.27 14.91 543.49 14.99 544.21 14.98 544.45 15.1 544.79 15.47 545 15.56 545.29 15.53 545.52 15.46 545.86 15.37 546.16 15.35 546.33 15.36 546.57 15.44 546.85 15.6 547.21 15.7 547.38 15.55 547.5 15.42 547.61 15.24 547.68 14.92 547.51 14.71 547.55 14.49 547.48 14.09 547.49 13.87 547.35 13.4 547.65 13.22 547.94 13.02 548.19 12.9 548.61 12.76 548.84 12.75 549.17 12.79 549.47 12.8 549.79 12.86 550.2 12.9 550.44 12.98 550.85 13 551.18 13 551.36 13.07 552.01 13.1 552.24 13.02 552.44 12.91 552.62 12.76 553.07 12.64 553.25 12.53 553.43 12.47 553.75 12.32 554.16 12.16 554.36 11.88 554.94 11.79 554.99 11.61 554.97 11.18 554.87 10.88 555 10.64 554.86 10.46 554.74 10.22 554.61 9.73 554.38 9.43 554.27 9.2 554.34 8.96 554.44 8.78 554.8 8.53 555.16 8.24 555.46 8.09 555.67 7.94 555.85 7.87 556.08 7.88 556.37 7.86 557.36 7.99 557.57 8.04 557.87 8.03 558.14 7.97 558.58 7.85 558.92 7.8 559.22 7.71 559.52 7.59 559.65 7.46 559.93 7.4 560.09 7.4 560.32 7.5 560.74 7.55 561.02 7.67 561.19 7.72 561.47 7.81 561.66 7.84 561.8 7.89 561.97 7.91 562.2 8.03 562.5 8.1 562.82 8.11 563.13 8.08 563.39 8.08 563.66 8.06 563.9 8 564.07 7.97 564.27 8.08 564.83 8.19 565.06 8.27 565.25 8.29 565.45 8.27 565.66 8.28 565.81 8.2 566.04 8.12 566.36 8.15 566.43 8.22 566.59 8.3 566.67 8.37 566.82 8.66 566.81 8.8 567.19 8.81 567.34 8.89 567.78 9 568.32 9.1 568.53 9.16 568.7 9.17 568.92 9.15 569.2 9.1 569.36 9.1 569.82 9.05 570.02 8.98 570.24 9.05 570.5 9.17 570.54 9.23 570.78 9.2 570.99 9.11 571.33 9.01 571.48 8.9 571.61 8.86 572.14 8.56 572.31 8.51 572.37 8.43 572.51 8.33 572.91 8.11 573.11 8.08 573.36 8.04 573.41 8.01 573.49 8.01 573.62 8.02 573.75 8 573.93 8.04 574.05 7.95 574.13 7.85 574.48 7.59 574.67 7.54 574.81 7.43 575.76 7.02 575.91 6.91 576.09 6.92 576.44 6.92 576.67 6.99 576.95 6.75 577.13 6.66 577.33 6.6 577.45 6.51 577.54 6.48 577.95 6.22 578.09 6.16 578.32 5.91 578.56 5.76 578.7 5.65 578.77 5.58 578.79 5.44 579 5.28 579.27 5.16 579.59 5.23 579.69 5.26 579.73 5.29 579.86 5.32 580.03 5.33 580.22 5.37 580.42 5.33 580.72 5.32 581.01 5.37 581.2 5.38 581.26 5.43 581.28 5.49 581.49 5.7 581.74 5.78 581.94 5.94 582.03 5.99 582.15 5.99 582.25 6.05 582.3 6.16 582.44 6.2 582.62 6.31 582.73 6.45 582.78 6.54 582.9 6.61 583.04 6.65 583.36 6.66 583.45 6.71 583.53 6.72 583.77 6.71 583.98 6.67 584.16 6.87 584.24 7.02 584.26 7.14 584.46 7.46 584.58 7.57 584.67 8.01 584.66 8.22 584.85 8.26 584.96 8.23 585.1 8.24 585.23 8.32 585.73 8.32 585.93 8.41 586.11 8.5 586.21 8.65 586.65 8.7 586.9 8.68 587.12 8.71 587.43 8.91 587.41 9.04 587.46 9.18 587.6 9.34 587.83 9.52 588.03 9.82 588.2 9.78 588.31 9.71 588.56 9.61 588.91 9.55 589.21 9.55 589.39 9.58 589.59 9.67 589.86 10.01 590.02 10.04 590.22 10.03 590.41 10.08 590.6 10.06 590.84 10.01 591.08 10.03 591.29 9.99 591.52 9.98 592.08 9.67 592.35 9.64 592.68 9.76 593.27 9.92 593.44 9.94 593.7 9.87 593.95 9.78 594.19 9.78 594.37 9.75 594.58 9.62 594.74 9.62 594.98 9.53 595.13 9.45 595.3 9.45 595.61 9.49 595.84 9.48 596.08 9.39 596.16 9.27 596.5 9.05 596.72 8.99 597 8.89 597.05 8.73 597.37 8.56 597.52 8.44 597.92 8.31 598.35 8.1 598.36 7.94 598.39 7.76 598.5 7.6 598.71 7.48 598.86 7.38 599.12 7.29 599.58 7.24 600.01 7.09 600.15 7.2 600.23 7.33 600.36 7.49 600.67 7.75 600.76 7.87 600.92 7.92 601.1 7.92 601.24 7.94 601.47 8.04 601.61 8.16 601.73 8.21 601.93 8.32 602.27 8.56 602.53 8.77 602.59 8.86 602.78 8.81 602.99 8.79 603.2 8.81 603.32 8.8 603.39 8.82 603.46 8.72 603.78 8.6 603.9 8.62 604.12 8.63 604.23 8.51 604.34 8.45 604.46 8.45 604.64 8.46 604.78 8.43 605 8.41 605.24 8.26 605.33 8.21 605.47 8.17 605.64 8.13 605.98 8.13 606.46 8.02 606.57 8.06 606.67 8.06 606.85 8.08 607 8.06 607.18 8.07 607.26 8.15 607.3 8.28 607.41 8.37 607.62 8.36 607.73 8.39 608.03 8.41 608.42 8.53 608.56 8.54 608.72 8.47 608.94 8.49 609.23 8.54 609.57 8.51 609.65 8.54 610 8.57 610.21 8.51 610.44 8.54 610.66 8.52 610.73 8.43 610.97 8.34 611.09 8.13 611.1 8.04 611.15 7.95 611.26 7.82 611.33 7.68 611.41 7.6 611.52 7.38 611.59 7.27 611.83 7.21 612.02 7.04 612.09 6.95 612.22 6.92 612.42 6.78 612.54 6.74 612.83 6.71 613.12 6.72 613.26 6.63 613.76 6.53 613.95 6.48 614.14 6.4 614.56 6.36 614.83 6.26 614.88 6.05 614.98 5.88 615.27 5.72 615.38 5.86 615.38 6.03 615.5 6.24 615.62 6.39 615.73 6.45 615.85 6.55 616.16 6.87 616.32 7 616.57 7.23 616.89 7.31 617.28 7.56 617.8 7.86 618.07 7.88 618.23 8.06 618.43 8.14 618.56 8.21 618.72 8.25 618.99 8.35 619.4 8.38 619.69 8.38 620.09 8.4 620.31 8.39 620.78 8.43 621.27 8.58 621.49 8.63 621.7 8.71 621.78 8.97 621.82 9.05 621.91 9.37 622.07 9.57 622.19 9.76 622.45 9.98 622.57 10.16 622.7 10.28 623.06 10.75 623.5 11.1 623.73 11.35 623.85 11.61 623.76 11.82 623.84 12.02 623.99 12.17 623.98 12.32 624.23 12.55 624.31 12.66 624.42 12.69 624.65 12.84 624.99 12.89 625.19 12.84 625.43 12.9 625.61 12.82 625.94 12.84 626.19 12.81 626.59 12.66 626.76 12.63 627.02 12.62 627.05 12.51 627.17 12.37 627.25 12.14 627.5 11.98 627.66 11.85 627.78 11.66 628.07 11.52 628.35 11.14 628.4 10.96 628.61 10.61 628.71 10.52 628.91 10.39 629.02 10.3 629.14 10.23 629.54 10.04 629.79 9.87 629.88 9.74 630.05 9.7 630.3 9.57 630.76 9.05 631.15 8.84 631.34 8.67 631.43 8.52 631.36 8.22 631.27 7.9 631.28 7.66 631.46 7.42 631.77 7.28 632.79 6.92 633.6 6.7 633.91 6.57 634.26 6.52 634.5 6.55 634.7 6.5 634.99 6.41 635.31 6.35 635.4 6.38 635.66 6.55 635.93 6.76 636.33 6.9 636.5 7.03 636.63 7.22 636.85 7.26 637.27 7.36 637.66 7.43 637.85 7.48 638.04 7.58 638.33 7.56 638.42 7.58 638.58 7.67 638.74 7.73 638.96 7.77 639.14 7.93 639.37 8.33 639.41 8.56 639.47 8.73 639.91 9.17 639.97 9.37 640.12 9.79 640.43 9.92 640.62 9.92 641.48 9.97 641.64 10.05 641.84 10.06 641.95 9.97 642.12 9.9 642.33 9.96 642.52 10.05 642.68 9.98 642.77 9.85 642.85 9.53 642.95 9.34 643.18 9.04 643.52 8.98 643.82 9.01 644.37 9.3 644.93 9.49 645.21 9.49 645.49 9.76 645.72 9.85 645.96 9.69 646.31 9.7 646.78 9.62 647.03 9.63 647.23 9.58 647.38 9.31 647.44 9.1 647.51 8.97 647.37 8.65 647.11 8.5 646.9 8.28 646.8 8 646.8 7.73 646.87 7.15 647.13 6.95 647.43 6.87 647.86 6.89 648.03 6.95 648.32 6.97 648.81 7.09 649.08 7.04 649.42 7.08 649.83 7.08 650.06 7.06 650.36 6.85 650.62 6.74 650.81 7 651.1 7.08 651.29 6.94 651.39 6.79 651.87 6.75 652.25 6.61 652.52 6.53 652.71 6.33 652.88 6.02 652.97 5.79 653.1 5.65 653.34 5.58 653.5 5.34 653.42 5.14 653.34 4.79 653.52 4.61 653.72 4.37 653.85 4.12 654.04 3.94 654.19 3.87 654.68 3.94 654.91 3.95 655.26 3.94 655.67 3.91 655.84 3.98 656.02 4.2 656.31 4.33 656.56 4.51 656.82 4.56 657 4.75 657.06 4.87 657.5 4.93 657.66 5.04 657.73 5.18 657.88 5.26 658.28 5.36 658.57 5.4 659.07 5.51 659.39 5.52 659.85 5.63 660.29 5.6 660.83 5.4 661.03 5.31 661.24 5.25 661.35 5.09 661.57 5.05 661.72 5.04 662.26 5.22 662.76 5.16 662.99 5.23 663.21 5.33 663.37 5.38 664 5.32 664.2 5.4 664.35 5.42 664.74 5.33 665.14 5.32 666.11 5.42 665.82 5.81 665.74 5.94 665.7 6.09 665.78 6.21 665.96 6.31 666.32 6.64 666.47 6.86 666.73 7.12 666.96 7.25 667.14 7.3 667.25 7.45 667.38 7.55 667.74 7.75 668.24 7.91 668.49 7.9 668.63 7.84 668.79 7.71 668.92 7.53 669.07 7.45 669.11 7.29 669.01 6.99 669.02 6.84 669.1 6.72 669.23 6.43 669.2 6.22 669.12 6.05 668.78 5.57 668.88 5.51 669.48 5.41 670.39 5.45 670.8 5.35 670.9 5.43 671.08 5.64 671.19 5.71 671.4 5.71 671.63 5.83 671.78 5.93 672.01 6 672.16 6 672.35 5.94 672.49 5.92 672.72 5.84 672.85 5.83 673.04 5.83 673.29 5.85 673.5 5.89 673.75 5.98 673.92 6 674.12 5.96 674.54 5.85 674.9 5.7 675.04 5.71 675.19 5.7 675.34 5.62 675.84 5.51 676 5.45 676.36 5.19 676.56 5.09 676.76 4.92 676.85 4.82 676.99 4.82 677.06 4.72 677.35 4.48 677.61 4.37 677.71 4.44 677.89 4.51 677.96 4.58 678.05 4.68 678.12 4.88 678.19 4.95 678.34 4.99 678.69 5.01 678.83 5.06 678.96 5.18 679.01 5.27 679.12 5.34 679.24 5.45 679.68 5.59 679.9 5.76 679.97 5.79 680.07 5.8 680.15 5.74 680.22 5.64 680.58 5.5 680.72 5.33 680.91 5.22 681.01 5.11 681.17 5.1 681.66 5.23 681.86 5.25 682.05 5.32 682.48 5.39 682.63 5.49 682.77 5.61 683.07 5.73 683.4 5.83 683.6 5.86 683.75 5.82 683.94 5.82 684.49 5.91 684.78 5.98 684.89 5.95 685.12 5.91 685.28 5.93 685.46 5.91 685.69 5.82 685.84 5.81 686.02 5.82 686.17 5.78 686.28 5.84 686.37 5.87 686.66 6.02 686.79 6.06 686.97 6.09 687.16 6.15 687.26 6.23 687.34 6.32 687.51 6.42 687.56 6.56 687.61 6.63 687.68 6.7 687.8 6.79 687.87 6.9 688 7.06 688.22 7.2 688.36 7.34 688.48 7.42 688.72 7.51 688.96 7.58 689.13 7.66 689.29 7.76 689.71 7.89 689.79 7.95 689.84 8.14 689.9 8.29 690.07 8.46 690.18 8.62 690.17 8.76 690.29 8.87 690.33 9 690.58 9.24 690.67 9.36 690.68 9.47 690.8 9.72 691.16 9.95 691.56 9.99 691.73 10.09 691.85 10.2 692 10.25 692.15 10.22 692.31 10.23 692.49 10.26 692.65 10.26 692.87 10.22 693.02 10.29 693.28 10.45 693.8 10.59 693.93 10.76 693.96 10.98 694.08 11.11 694.36 11.16 694.63 11.26 694.81 11.3 695.08 11.41 695.26 11.56 695.69 11.72 695.84 11.7 696.03 11.72 696.22 11.66 696.36 11.51 696.62 11.35 696.7 11.27 696.7 11.1 696.83 10.78 696.9 10.66 696.94 10.38 696.99 10.25 696.92 10.12 696.71 9.89 696.65 9.71 696.49 9.53 696.52 9.41 696.7 9.28 696.84 8.96 696.93 8.86 696.95 8.73 697.08 8.59 697.21 8.41 697.34 8.27 697.61 8.03 697.75 7.84 697.93 7.78 697.96 7.68 697.97 7.43 697.99 7.28 697.96 7.12 697.88 6.98 697.84 6.87 697.83 6.72 697.71 6.54 697.58 6.44 697.8 6.25 697.95 6.22 698.05 6.18 698.17 6.15 698.32 6.1 698.45 6.03 698.61 6.02 699.09 6.07 699.2 6.07 699.3 6.09 699.67 6.4 699.79 6.49 700.16 6.61 700.57 6.68 700.69 6.68 700.88 6.66 701.24 6.71 701.49 6.7 701.78 6.72 702 6.72 702.24 6.74 702.7 6.87 703 6.9 703.17 6.85 703.25 6.77 703.79 6.62 704.11 6.68 704.4 6.68 704.59 6.66 704.92 6.71 705.09 6.75 705.49 6.77 705.53 6.63 705.51 6.37 706.14 5.83 706.3 5.58 706.35 5.42 706.32 5.3 706.45 5.2 706.51 5.1 706.62 5.03 706.67 4.95 706.78 4.88 706.93 4.8 707.1 4.76 707.52 4.59 707.76 4.45 708.08 4.33 708.14 4.26 708.37 4.17 708.39 4.04 708.44 3.94 708.73 3.56 708.85 3.45 708.91 3.37 708.99 3.33 709.16 3.31 709.29 3.29 709.42 3.3 709.94 3.43 710.38 3.48 710.55 3.48 710.78 3.51 710.96 3.54 711.34 3.65 711.67 3.59 711.85 3.59 711.88 3.47 711.88 3.18 711.95 2.94 712.23 2.57 712.19 2.47 712.19 2.37 712.25 2.27 712.42 2.13 712.54 1.97 712.71 1.79 712.96 1.59 713.16 1.41 713.31 1.27 713.42 1.1 713.52 1.03 713.6 1.05 713.67 1.13 713.78 1.21 713.93 1.36 714.12 1.53 714.22 1.59 714.43 1.69 714.56 1.73 714.72 1.78 714.8 1.76 714.89 1.78 715.11 1.86 715.3 1.87 715.47 1.83 715.62 1.84 715.71 1.86 715.86 1.88 716.35 1.84 716.56 1.9 716.89 1.91 717.49 1.86 718.17 1.76 718.42 1.79 718.59 1.77 718.68 1.89 718.7 1.98 718.86 2.23 718.89 2.7 718.99 2.82 719.07 3.03 719.2 3.16 719.23 3.29 719.17 3.49 719.22 3.6 719.33 3.69 719.54 3.73 719.71 3.91 719.93 4.02 720.13 4.16 720.35 4.34 720.53 4.34 720.78 4.23 720.97 4.19 721.15 4.12 721.62 4.07 721.9 3.95 722.33 3.83 722.66 3.76 722.82 3.66 722.93 3.52 723.17 3.27 723.36 3.13 723.61 3 723.85 2.95 724.22 2.79 724.39 2.76 724.55 2.68 724.95 2.54 725.16 2.52 725.45 2.54 725.76 2.54 726.34 2.5 726.91 2.42 727.16 1.91 727.4 1.84 727.64 1.81 727.85 1.72 728.05 1.57 728.38 1.49 728.57 1.48 728.92 1.35 729.06 1.24 729.24 1 729.62 1.55 731.75 4.69 733.76 7.31 737.84 13.22 740.91 17 743.45 21.99 744.33 22.8 746.26 22.78 749.86 22.75 750.64 23.74 750.74 23.88 752.78 24.33 753.94 24.86 756.42 25.09 757.01 25.14 757.86 26.26 758.21 26.72 759.76 27.71 761.83 28.86 764.37 28.86 765.39 28.49 766.98 27.91 769.37 27.23 771.13 27.4 771.72 29.79 771.87 30.41 771.56 32.44 772.12 33.57 772.51 34.7 774.24 34.87 775.5 33.83 776.95 33.46 779.87 34.42 782.23 35.6 786.74 35.63 787.2 37.8 789.03 39.41 791.07 40.11 792.69 39.78 795.16 41.98 796.68 42.31 798.15 45.93 799 46.74 798.75 47.31 797.38 47.65 797.45 48.35 797.13 49.45 795.65 50.81 795.02 52.16 796.32 53.74 798.82 54.45 798.79 55.38 798.08 58.17 797.03 59.75 797.31 61.05 796.89 61.81 794.42 62.55 792.76 62.63 790.79 62.97 788.92 62.69 784.73 60.26 781.7 60.18 779.59 59.39 777.3 60.29 775.33 60.6 774.09 61.22 773.21 62.55 772.16 62.89 770.89 62.41 769.02 62.32 766.87 61 764.34 61.19 762.22 61.16 758.98 60.12 757.5 60.29 756.06 60.85 754.79 60.06 752.08 59.5 750.07 58.54 747.14 58.48 745.52 58.77 744.93 59.81 744.33 60.83 742.04 62.49 740.77 64.61 739.89 65.54 738.83 65.68 735.38 65.74 731.64 64.69 729.07 65.46 727.59 65.29 725.02 63.37 722.84 63.48 719.91 64.41 718.22 64.3 716.71 63.39 713.82 64.3 711.71 64.33 711.67 62.83 709.17 59.78 707.16 55.6 705.89 55.75 704.55 56.45 702.3 58 699.62 58 698.43 57.24 696.95 57.97 693.92 58.68 690.99 58.79 689.44 57.72 690.6 56.31 690.43 54.93 688.88 55.07 687.61 56.17 683.63 58.82 682.4 58.54 679.86 56.96 677.85 55.46 675.46 54.02 674.93 52.7 673.34 51.91 671.16 52.13 669.01 53.85 667.53 55.1 666.9 56.54 662.77 55.01 658.48 53.15 652.35 52.61 650.27 53.35 648.72 52.75 645.34 52.89 642.87 51.17 640.65 51.91 637.16 51.88 637.31 53.26 638.75 53.71 639.28 54.53 638.29 55.6 638.12 56.56 637.66 57.58 634.7 57.55 633.04 58.12 631.88 59.25 629.24 59.36 627.09 60.2 627.14 60.56 627.27 61.45 626.81 61.9 625.29 61.79 622.9 61.84 619.23 61.36 617.37 61.05 614.02 61.08 611.41 60.85 608.67 60.97 605.95 60.71 604.68 60.2 604.37 59.22 602.43 59.25 598.84 57.64 592.85 55.86 587.04 54.95 587.18 56.99 585.87 58 583.94 59.02 582 60.32 579.36 60.91 576.92 62.15 573.4 63.17 569.88 65.37 567.7 67.07 565.93 67.38 565.05 67.8 562.55 68.14 559.06 67.88 556.77 67.97 555.96 68.96 556.6 70.85 557.3 73.53 557.51 75 556.39 77.26 556.6 78.76 557.69 79.89 557.87 80.43 556.46 82.23 557.09 84.92 558.04 86.08 559.7 86.78 562.48 88.14 564.07 89.67 564.24 90.4 562.83 92.15 561.78 93.17 560.72 93.51 559.31 94.19 558.68 94.81 557.97 96.62 558.18 98.85 558.18 100.89 557.02 101.26 555.54 101.97 552.9 101.91 552.27 102.62 552.2 103.8 551 104.68 550.93 106.09 550.33 107.08 551.14 108.56 550.96 109.4 550.26 110.31 550.75 111.19 550.68 112.46 550.01 113.22 548.99 113.42 547.69 113.05 545.75 112.77 545.04 113.25 543.04 113.87 541.8 114.27 540.64 115.37 537.93 116.34 536.41 116.48 535.29 117.13 533.84 117.7 530.67 117.75 529.58 118.35 530.28 119.76 531.59 121.6 531.45 122.25 529.3 122.59 528.06 123.58 527.82 124.88 528.59 126.3 531.02 128.14 530.99 128.93 530.71 129.81 531.41 130.94 531.45 131.45 530.57 132.39 530.32 133.8 529.79 134.45 Z"/>
</g>
</svg>