<?xml version="1.0"?>
<svg xmlns="http://www.w3.org/2000/svg" version="1.2" baseProfile="tiny" fill="#f9c113" width="800" height="512" viewBox="0 0 800 512" stroke-linecap="round" stroke-linejoin="round">
<g fill="#c0392b" id="id_103">
<path d="M 716.29 223.52 773.94 279.08 799 269.82 781.46 291.19 775.61 297.6 797.33 320.4 769.91 343.55 750.35 339 747.69 326.87 695.24 279.11 630.35 346.58 201.89 511 162.78 483.14 111.45 425.89 94.56 422.29 69.45 427.22 1 446.17 19.67 420.02 102.34 355.77 159.67 303.28 191.23 249.84 187.23 243.59 102.34 248.89 80.78 243.4 60.11 223.5 46.56 195.46 30.78 172.63 70.78 144.97 123.67 1 178.34 8.95 206.78 51.38 269.01 68.43 279.12 101.02 344.01 127.16 395.12 113.52 406.23 104.05 408.01 95.71 427.12 65.4 475.12 102.15 510.24 99.5 548.01 129.81 539.13 140.8 548.46 142.32 536.9 152.55 568.9 176.8 592.46 179.83 597.79 184.38 606.24 180.21 604.46 171.49 621.79 164.29 626.68 165.43 658.68 146.48 685.35 145.35 706.69 147.24 716.29 155.14 716.29 223.52 Z"/>
</g>
</svg>