<?xml version="1.0"?>
<svg xmlns="http://www.w3.org/2000/svg" version="1.2" baseProfile="tiny" fill="#f9c113" width="800" height="868" viewBox="0 0 800 868" stroke-linecap="round" stroke-linejoin="round">
<g fill="#c0392b" id="id_153">
<path d="M 254.55 373.4 265.24 373.6 276.32 377.55 292.54 370.95 306.64 364.79 318.09 358.62 320.73 344.52 305.76 328.66 283.74 311.92 284.62 291.66 286.99 284.08 297.83 279.32 302.43 272.6 306.78 266.32 309.98 262.18 315.44 259.06 312.42 253.28 305.76 232.62 305.6 226.77 298.71 207.95 290.78 195.62 290.78 183.63 296.07 178.88 310.1 169.45 316.74 171.31 320.52 172.46 311.92 151.56 309.77 137.25 311.23 129.79 311.04 112.8 322.49 103.11 331.77 92.98 335.6 76 338.34 64.34 346.04 52.38 347.13 36.67 335.7 21.16 332.1 21.28 332.1 21.25 337.22 15.78 341.35 11.46 346.47 5.5 350.26 3.07 355.86 1 371.57 2.82 379.7 4.53 382.08 7.2 383.91 11.95 386.85 17.78 385.17 20.94 383.07 24.96 387.83 27.27 397.37 28 402.98 28.12 408.73 31.16 413.91 33.11 421.21 32.86 424.85 32.99 427.8 36.51 434.95 37.36 442.1 34.81 447.43 32.99 457.94 31.77 460.75 29.34 462.57 25.44 461.31 19.73 462.85 17.17 465.79 18.27 470.42 22.04 473.65 15.96 473.79 11.46 476.31 11.82 479.96 10.73 480.66 9.15 484.44 9.15 488.51 8.66 491.45 11.58 493.28 15.35 496.22 16.45 498.89 14.62 497.9 10.36 499.59 7.81 508.42 7.32 515.01 9.88 524.13 13.04 528.89 15.23 525.39 19.24 528.19 23.38 535.62 23.74 543.34 23.26 547.54 23.01 551.05 22.4 558.06 25.2 563.39 25.08 576.71 25.2 577.13 29.46 581.9 31.16 590.73 33.59 599.28 32.13 610.5 28.36 617.93 27.03 622.98 24.96 634.76 24.84 629.29 29.7 626.62 31.77 623.4 36.51 620.31 38.7 619.61 46.73 615.69 44.3 610.36 43.2 606.71 48.55 603.21 52.57 596.34 56.7 596.48 58.41 599.98 60.72 605.17 62.54 607.55 69.11 610.36 74.47 612.32 81.76 610.78 94.05 613.3 96.36 618.07 97.34 620.45 98.07 622.14 103.18 624.66 107.32 628.73 110.97 632.09 115.83 632.93 122.65 635.04 125.45 643.59 125.69 649.62 124.35 655.37 120.82 658.31 117.17 662.38 116.08 671.21 116.68 679.77 118.14 685.66 122.53 688.74 133.23 690.7 137.25 691.97 142.12 694.63 144.55 699.26 149.3 701.5 152.34 702.76 157.7 706.41 160.37 709.35 160.62 711.18 157.94 710.9 151.37 709.49 148.69 708.37 146.62 710.47 142.61 706.83 141.02 704.73 139.44 706.69 135.18 708.93 131.9 706.83 127.64 703.18 123.5 699.82 120.94 704.02 118.39 706.55 114.74 716.36 114.37 711.88 111.94 717.21 110.84 722.25 111.82 728.84 115.1 733.47 117.78 739.36 120.7 748.47 120.7 750.16 124.23 750.3 129.46 746.51 134.09 747.91 138.71 743.71 142.12 743.99 147.47 749.17 149.42 751.28 151.73 749.74 159.52 750.58 164.15 749.74 167.8 745.39 169.99 743.29 172.42 747.07 177.42 753.66 178.39 760.39 179.12 764.6 181.68 768.73 183.29 765.53 190.33 772.57 203.55 758.48 211.48 755.84 241.44 748.79 256.41 765.53 278.44 777.86 272.27 789.31 265.22 799 281.96 798.12 299.59 794.59 313.68 783.14 335.71 773.46 335.71 760.24 341 762.01 363.02 771.7 376.24 775.22 406.2 766.41 437.91 762.89 467.87 754.96 484.61 752.32 508.4 742.37 512.71 718.29 522.1 719.65 526.7 722.23 531.77 725.01 539.24 716.57 541.57 712.67 542.44 709.16 543.64 699.8 543.57 687.14 543.64 677.74 549.91 674.13 564.21 680.17 573.56 681.85 578.04 681.85 583.29 660.72 586.82 650.15 590.34 646.43 605.52 646.13 616.3 645.63 622.87 645.13 647.86 650.15 669.63 663.36 669.63 680.09 681.97 691.54 696.95 675.69 700.48 664.24 705.76 659.83 721.62 668.64 737.48 684.5 742.77 692.42 754.22 702.11 770.08 694.19 778.89 682.74 789.47 666 797.39 656.31 815.9 644.86 831.76 633.41 851.14 617.56 857.31 608.75 850.26 600.82 842.33 583.2 858.19 576.16 867 564.63 861.68 564.71 852.9 567.35 846.73 575.28 844.09 578.8 831.76 587.61 822.95 595.54 808.85 600.42 800.7 603.13 796.77 604.35 785.06 587.61 778.89 573.66 791.98 564.71 803.56 541.81 811.49 529.48 818.54 514.5 817.66 506.58 808.85 488.08 808.85 474.87 807.09 430.83 807.09 414.09 792.99 412.33 774.49 411.45 761.27 411.45 751.58 401.76 746.29 371.82 741.89 349.8 745.41 328.65 748.94 294.3 759.51 268.76 774.49 252.91 791.23 240.58 797.39 228.25 782.42 225.6 761.27 215.03 771.84 208.87 786.82 216.8 804.45 207.99 807.09 200.94 799.16 193.01 798.28 183.33 800.92 175.4 812.37 170.11 822.95 170.11 834.4 170.09 834.41 155.14 837.04 142.81 837.04 132.24 836.16 126.95 822.06 116.39 815.9 105.19 816.41 97.01 815.9 84.68 818.54 74.11 829.11 63.67 825.01 54.73 821.18 45.04 800.04 43.07 784.28 42.22 776.11 38.87 756.87 36.23 741.01 34.48 725.52 32.71 709.29 30.95 694.31 30.95 681.97 19.5 663.47 8.05 641.44 5.66 637.25 1 626.47 2.76 616.77 15.09 610.61 20.38 621.18 32.71 621.18 41.52 616.77 42.4 611.49 40.64 604.44 37.94 600.06 36.23 589.46 33.74 583.63 33.76 565.57 35.35 562.15 44.16 551.57 52.09 546.29 54.71 542.67 63.54 537.48 73.23 527.78 85.56 524.26 97.89 522.5 104.06 518.97 104.05 512.36 92.6 497.83 81.15 489.02 73.33 473.37 75.87 459.94 77.63 447.61 80.51 440.72 83.8 430.87 97.89 430.87 104.93 429.98 111.98 424.7 113.74 415.01 113.74 400.91 116.39 396.9 119.03 392.98 129.12 387.55 134 396.5 144.84 400.67 156.02 403.55 180.68 402.67 195.66 402.67 198.83 402.38 204.46 402.67 210.63 395.62 215.91 379.76 218.56 372.72 238.82 375.36 245.46 374.91 254.55 373.4 Z"/>
</g>
</svg>