<?xml version="1.0"?>
<svg xmlns="http://www.w3.org/2000/svg" version="1.2" baseProfile="tiny" fill="#f9c113" width="800" height="993" viewBox="0 0 800 993" stroke-linecap="round" stroke-linejoin="round">
<g fill="#c0392b" id="id_171">
<path d="M 286.12 137.28 274.43 104.52 276.42 86.6 301.86 77.7 323.47 77.7 346.95 72.61 357.7 55.88 358.01 55.64 358.26 55.25 365.15 49.52 386.64 33.36 415.4 23.78 424.95 20.9 444.15 15.38 460.93 1 468.42 12.17 474.84 22.7 475.64 31.13 496.52 32.54 505.35 24.81 519.8 22 533.45 28.32 545.49 43.07 555.13 64.84 565.57 59.93 580.02 55.01 587.24 52.2 594.47 76.78 600.89 83.11 607.31 78.89 608.12 66.25 616.15 55.01 625.78 56.41 636.22 67.65 640.23 75.38 648.26 74.68 654.68 61.33 658.7 73.97 670.74 81 669.14 67.65 665.12 59.93 668.33 52.2 676.36 39.56 677.16 36.05 697.24 40.26 703.66 49.39 696.43 60.63 697.24 71.16 705.26 77.49 712.49 77.49 716.51 71.16 723.73 78.89 739.79 81 749.42 78.19 757.45 76.78 775.92 70.46 785.55 68.36 796.79 88.02 791.97 104.89 783.95 118.94 779.53 124.21 775.11 131.24 774.31 140.72 778.73 155.13 782.74 161.81 775.52 169.54 758.66 174.11 749.82 185.01 744.61 195.9 744.61 196.96 736.58 208.91 734.17 216.65 735.37 227.55 737.38 235.98 750.63 238.45 754.84 243.02 758.25 250.05 769.09 253.21 779.13 263.41 775.32 282.05 774.31 289.79 774.91 305.62 783.95 323.92 791.77 336.76 799 339.75 770.7 374.94 753.04 396.06 742.2 410.14 737.38 423.17 749.82 424.23 756.65 429.16 763.47 437.96 764.28 455.21 764.28 471.77 767.89 484.09 775.92 495.72 782.74 506.64 771.5 508.75 763.07 510.51 752.63 514.39 739.79 519.67 726.54 528.83 715.7 540.46 699.24 513.51 694.43 486.73 689.61 467.01 673.55 483.92 686.4 523.37 673.55 520.55 670.34 495.19 657.49 479.69 638.23 467.01 614.14 481.1 614.14 498.01 591.66 503.64 567.57 505.05 549.91 529.01 557.94 540.28 529.03 538.87 525.82 555.79 504.95 537.46 495.31 552.97 503.34 572.7 506.55 591.03 511.37 602.31 495.31 606.54 482.47 613.59 500.13 620.64 487.29 631.93 501.74 650.26 514.58 668.6 527.43 692.58 543.49 703.87 554.73 727.86 557.94 761.73 548.3 785.73 522.61 808.32 538.67 842.22 532.25 849.28 506.55 819.62 477.65 835.15 453.56 864.81 464.81 887.42 432.69 935.46 435.9 951.01 400.58 965.14 379.7 992 380.5 970.09 390.94 943.23 382.11 914.97 374.08 893.07 365.25 877.53 371.67 870.46 386.12 864.81 396.56 853.51 400.58 830.21 407 799.15 390.14 791.38 376.49 801.26 361.23 789.97 342.77 786.44 338.75 804.79 336.35 813.97 327.51 813.27 323.5 753.26 333.94 747.62 346.78 744.8 362.04 729.98 312.26 677.06 333.13 661.55 331.53 645.32 345.98 635.45 352.4 622.05 345.98 608.66 334.54 597.38 319.69 604.78 310.05 611.83 291.99 620.29 271.11 618.88 257.46 604.43 246.22 588.92 242.21 568.48 235.38 560.02 224.55 555.44 215.71 549.09 198.05 549.09 181.99 543.1 173.16 516.32 163.13 531.12 157.51 543.1 155.5 559.31 157.91 576.58 131.01 572.35 99.7 563.54 88.06 559.31 93.68 544.86 106.12 530.07 98.9 496.24 90.47 465.6 73.2 461.38 49.92 445.88 46.91 434.97 37.68 420.53 35.63 412.88 45.5 405.39 28.34 377.4 1 348.15 5.45 330.34 32.15 319.52 40.82 318.9 64.58 317.62 75.71 321.28 88.82 325.78 112.26 354.51 128.15 370.41 144.69 360.23 157.4 323.34 173.93 294.08 177.11 273.09 166.94 253.38 137.06 233.02 107.81 208.85 82.38 184.68 95.73 166.24 126.88 151.61 156.76 149.7 210.17 164.33 234.97 162.42 251.5 152.25 262.94 138.89 286.47 138.25 286.12 137.28 Z"/>
</g>
</svg>