<?xml version="1.0"?>
<svg xmlns="http://www.w3.org/2000/svg" version="1.2" baseProfile="tiny" fill="#f9c113" width="800" height="743" viewBox="0 0 800 743" stroke-linecap="round" stroke-linejoin="round">
<g fill="#c0392b" id="id_125">
<path d="M 464.49 1 478.11 17.11 486.42 14.01 486.94 14.01 495.77 9.14 506.15 18.44 508.23 33.94 517.06 36.6 535.23 37.49 537.83 52.55 546.65 72.49 578.84 84.45 584.56 85.78 590.27 103.95 628.17 102.17 638.04 94.2 642.71 94.64 646.35 120.34 653.1 120.34 661.92 128.76 659.85 138.07 648.94 135.85 653.61 148.26 640.63 158.9 634.92 168.65 655.69 173.97 694.63 181.06 686.33 193.47 674.38 194.35 671.27 204.11 676.46 229.82 664 237.35 660.88 247.99 642.71 253.76 640.63 263.07 633.88 267.95 640.63 271.49 637.52 298.1 642.19 313.62 661.4 320.71 659.33 335.35 654.13 344.22 660.36 357.52 657.77 372.16 649.46 377.93 645.83 384.58 675.42 407.2 697.23 407.2 697.23 401.44 706.58 393.01 733.06 385.47 754.35 394.34 759.02 398.33 762.13 407.2 772 417.41 799 423.62 796.4 430.27 791.21 445.8 785.5 464.88 761.62 472.87 753.83 475.97 749.67 486.18 742.92 492.83 738.77 515.91 748.12 519.46 764.73 553.92 745.15 561.37 738 569.31 732.74 572.03 697.83 588.23 691.53 591.63 687.68 598.11 691.53 607.46 691.84 614.52 691.17 616.82 683.71 616.19 675.27 616.46 672.03 617.97 665.73 621.37 647.15 629.94 638.1 635.59 636.33 636.79 633.39 639.93 612.67 656.87 607.65 661.2 601.91 665.18 596.41 668.11 589.25 670.82 590.6 673.12 589.19 675.11 585.91 682 575.46 697.11 565.68 704.96 563.54 709.61 563.35 716.41 560.6 720.28 557.85 717.14 552.29 715.41 532.3 713.11 524.53 711.39 518.36 711.81 511.57 715.05 498.37 721.64 487.91 728.3 486.56 732.38 486.44 735.67 485.46 742 480.75 741.84 480.2 736.82 477.45 733.95 471.22 730.91 460.82 726.42 453.12 722.49 445.6 718.99 439.55 715.7 432.88 708.27 427.26 702.41 420.11 698.81 414.42 698.02 405.92 698.86 407.27 696.4 413.26 694.26 420.41 693.63 429.89 692.85 434.84 689.71 436.49 686.78 433.56 677.37 436.67 674.23 438.2 671.46 440.34 668.74 438.69 666.39 436.49 664.87 432.88 664.82 425.79 659.85 420.78 655.51 422.8 650.55 424.87 648.88 433.92 647.46 438.63 634.24 443.64 632.62 446.64 629.11 447.13 625.82 450.49 614.9 451.16 603.92 447.98 600 440.77 593.41 438.81 588.34 437.35 585.62 429.28 579.51 430.87 576.79 434.17 572.56 436.49 568.79 436.8 567.23 428.48 568.11 426.4 571.46 424.14 573.18 421.82 574.23 417.17 573.65 409.22 571.2 406.96 563.78 405.62 559.65 404.95 555.83 402.44 546.69 401.09 543.45 397.3 541.15 389.72 539.06 385.14 535.97 377.86 526.31 373.15 522.91 369.43 521.03 363.01 519.93 351.45 518.1 339.1 518.36 337.08 525.37 333.05 530.33 329.2 533.05 322.9 538.01 320.09 542.04 318.01 544.23 312.32 553.79 313 560.8 313.91 564.61 315.08 568.22 317.03 573.81 311.9 580.34 308.29 581.49 301.38 589.86 299 593.57 295.88 598.85 292.33 609.72 283.77 616.51 265.86 627.44 259.56 633.5 249.35 615.73 248.87 609.41 249.72 602.09 250.12 594.51 249.45 588.03 247.62 583.27 248.17 573.76 245.72 569.22 245.41 559.76 245.97 549.77 242.79 535.14 238.69 525.89 217.84 510.79 215.09 509.09 207.02 515.2 201.33 519.33 197.12 521.99 191.13 525.91 189.35 531.71 188.37 537.04 183.61 548.44 177.49 554.34 162.94 545.04 149.74 533.12 143.26 524.5 137.57 520.06 140.14 515.41 141.48 513.16 127.67 505.85 116.4 501.19 110.35 495.96 103.2 489.38 93.84 479.35 89.26 473.92 73.98 464.25 65.91 456.99 58.81 449.1 55.57 443.51 46.36 433.49 32.61 419.15 32.61 412.63 52.66 397.58 59.81 391.8 53.36 381.88 17.54 325.38 1 290.93 21.67 264.74 50.61 264.74 85.06 274.39 122.26 274.39 151.2 259.23 189.78 256.47 196.67 224.78 221.48 186.19 215.96 169.66 199.43 172.41 191.16 150.37 193.92 126.94 226.99 96.62 242.14 77.33 268.33 42.88 290.37 8.43 327.58 30.47 338.6 53.9 337.22 93.86 346.87 118.67 360.65 98 381.32 98 381.32 71.81 389.59 48.39 408.88 22.2 443.33 13.94 464.49 1 Z"/>
</g>
</svg>