<?xml version="1.0"?>
<svg xmlns="http://www.w3.org/2000/svg" version="1.2" baseProfile="tiny" fill="#f9c113" width="800" height="928" viewBox="0 0 800 928" stroke-linecap="round" stroke-linejoin="round">
<g fill="#c0392b" id="id_114">
<path d="M 720.69 301.6 709 303.73 702.32 305.16 683.96 305.87 670.6 304.44 671.44 327.19 664.76 334.3 647.16 343.75 681.3 375.44 704.32 370.87 715.06 367.93 720.05 375.77 740.76 367.27 729.63 344.73 730.79 336.24 758.4 343.1 759.55 330.03 781.42 318.27 792.89 325 792.66 325.23 792.81 327.19 793.25 338.37 793.84 342.59 792.51 344.85 793.25 346.74 795.41 349.08 799 353.27 797.87 354.94 792.42 355.86 787.55 356.61 782.1 358.08 782.1 361.64 777.82 363.73 777.13 368.38 776 369.76 776.94 375.62 779.3 377.55 780.87 381.86 782.83 386.26 780.72 388.52 775.32 391.45 769.76 391.53 766.18 384.04 762.64 383.41 760.18 383.04 759.89 379.9 757.82 380.27 756.2 378.68 750.45 378.43 748.58 379.94 744.31 380.65 740.03 387.14 737.33 388.48 736.89 392.2 735.66 394.09 736.94 396.97 740.82 398.61 740.72 400.32 741.07 402.84 741.85 404.76 741.56 406.52 745.73 407.15 746.86 408.4 749.96 410.33 753.89 413.01 753.64 416.98 758.41 425.19 760.28 430.13 761.41 432.94 745.94 439.51 752.5 460.65 730.35 470.62 697.12 500.53 639.53 566.99 605.19 594.68 607.41 619.05 604.09 653.39 587.47 671.12 597.44 692.16 576.4 705.46 556.46 717.64 528.77 724.29 513.27 745.33 506.62 764.16 506.62 785.21 490.01 785.21 478.93 801.83 471.18 781.89 472.29 749.76 463.43 730.93 433.52 713.21 415.8 740.9 394.76 768.6 382.57 784.1 355.99 808.47 353.78 827.3 360.42 845.03 373.71 842.81 378.15 856.11 358.21 887.12 352.67 912.6 321.66 914.82 298.4 927 268.5 927 240.81 919.24 239.49 919.24 253.72 892.56 267.99 875.92 272.74 842.63 258.48 835.5 234.7 818.85 246.59 809.34 265.61 792.7 265.61 773.68 256.1 749.9 239.46 728.5 206.18 735.64 184.94 727.14 182.4 726.14 172.89 692.84 134.86 685.71 106.33 685.71 87.31 699.97 65.91 678.57 63.54 657.17 70.67 628.64 87.31 609.62 108.71 597.73 122.97 576.33 151.5 569.2 165.76 552.56 177.06 529.95 180.11 523.9 173.15 493.56 173.02 493.49 169.71 479.04 169.81 479.02 165.98 480.09 160.88 481.53 139.42 487.95 120.22 492.22 104.18 498.33 97.9 500.77 74.35 496.49 69.02 477.29 66.89 460.22 54.09 450.62 41.29 442.08 30.62 414.35 22.09 397.28 1.82 399.41 1 399.86 1.77 387.2 7.91 376.75 25.94 360.74 32.08 341.46 45.12 328.72 42.82 299.98 69.67 289.2 74.65 265.36 84.63 258.17 112.25 251.32 131.81 241.52 130.66 226.83 145.23 220.3 162.5 219.97 183.59 221.6 202.77 215.07 199.7 186.67 187.95 175.93 188.39 175.73 194.33 172.47 207.76 160.23 210.06 147.83 214.59 144.39 227.13 149.46 234.8 153.05 258.97 153.05 268.56 162.19 268.94 180.79 285.05 192.55 297.33 197.44 309.22 200.05 315.74 206.58 342.59 213.44 351.03 204.3 358.32 206.91 358.32 190.91 362.92 181.45 359.85 173.61 377.11 167.08 395.53 145.54 402.05 136.08 377.63 109.79 380.13 101.98 368.45 91.33 376.79 86.36 380.97 89.91 393.49 89.91 406.01 91.33 404.34 82.81 406.01 74.29 408.51 72.16 415.19 63.64 416.86 57.25 423.15 35.9 457.29 62.65 496.03 64.94 509.45 59.39 518.66 46.99 540.91 39.82 544.74 24.16 550.5 14.05 572.36 3.28 580.8 16 593.08 13.72 590.01 1 613.02 7.85 609.57 17.31 618.39 24.49 610.34 32.64 599.98 29.05 589.24 30.36 613.02 45.69 654.07 41.12 664.81 46.67 692.81 32.64 689.36 56.78 702.02 72.77 722.73 76.36 728.1 90.39 752.27 88.1 756.49 102.79 764.16 105.07 764.16 93 777.97 91.04 787.56 81.25 792.93 82.56 792.54 92.35 795.69 95.6 782.57 110.62 781.42 142.93 766.46 157.62 758.02 151.74 756.87 161.53 744.21 164.8 730.02 213.77 708.92 219.64 693.19 232.7 684.37 241.52 703.93 253.6 740.38 292.14 718.18 291.65 720.69 301.6 Z"/>
</g>
</svg>