<?xml version="1.0"?>
<svg xmlns="http://www.w3.org/2000/svg" version="1.2" baseProfile="tiny" fill="#f9c113" width="800" height="657" viewBox="0 0 800 657" stroke-linecap="round" stroke-linejoin="round">
<g fill="#c0392b" id="id_177">
<path d="M 569.42 128.85 567.57 134.26 563.36 142.59 570.43 146.24 574.64 151.21 571.44 158.96 563.86 168.02 555.11 171.67 548.54 172.4 543.16 176.64 534.4 170.5 533.9 163.49 526.66 166.56 518.58 167.72 511.68 171.96 512.69 176.79 525.82 189.94 524.47 207.77 527.84 210.26 538.11 208.8 545.34 203.24 554.77 200.61 560.33 195.5 565.04 188.77 573.96 184.39 575.31 188.19 583.73 191.99 591.81 188.77 608.14 184.68 612.01 185.99 609.82 191.4 615.71 194.03 620.76 189.5 623.45 184.82 636.25 181.02 643.15 182.05 640.79 186.43 639.95 192.86 629.51 201.49 618.4 206.6 610.49 210.41 612.34 219.18 606.12 223.86 604.94 229.41 608.81 237.31 611.5 245.2 615.37 249.3 620.59 249.44 623.12 243.15 627.83 238.62 634.73 234.24 643.99 225.61 676.14 226.34 675.3 231.17 671.94 237.89 683.05 238.18 688.1 231.6 694.66 230 701.23 232.04 701.9 235.55 704.09 238.18 705.6 243.74 713.68 246.08 717.89 252.22 723.11 255.29 733.21 258.07 753.58 254.12 765.36 252.66 775.8 256.46 788.93 259.09 799 262.73 786.38 268.25 771.84 274.16 761.91 270.62 752.34 270.44 744.2 271.8 738.24 272.2 720.09 269.83 717.72 276.14 712.99 290.34 707.47 296.65 702.42 296.39 699.58 296.65 686.16 296.65 664.07 297.44 654.05 294.87 644.34 291.13 639.96 283.11 630.93 287.98 628.56 291.49 626.19 295.08 626.19 307.7 624.61 316.38 618.3 321.11 611.99 321.9 599.36 321.9 596.42 330.73 593.84 336.9 592.26 347.94 589.99 359.97 597 373.98 607.25 381.87 617.51 394.88 617.51 400.81 611.99 403.97 600.94 405.54 589.89 408.7 581.22 417.38 573.31 422.03 570.96 425.27 563.85 430 555.96 439.47 554.54 442.54 554.52 458.71 556.75 463.93 558.28 473.42 560.7 477.35 562.28 483.66 561.49 488.39 553.6 492.34 542.55 492.34 537.82 482.87 526.77 488.39 526.64 489.09 517.74 484.88 508.31 479.32 505.28 471.7 502.92 467.02 504.61 459.11 497.87 455.89 494.51 448.28 497.87 441.84 495.85 439.49 484.41 437.15 468.92 432.76 458.82 428.37 452.42 412.56 447.03 404.95 441.98 403.78 434.91 399.39 427.51 392.36 418.42 392.95 413.37 399.39 405.62 392.95 403.27 376.56 399.9 374.51 394.85 373.92 390.3 368.43 389.97 368.66 380.54 367.63 374.65 368.8 365.39 371 359.16 369.09 350.74 366.17 345.02 360.02 340.31 359.58 332.9 358.56 329.87 350.51 326.84 348.61 320.78 344.22 318.59 348.46 320.11 358.27 322.63 364.27 323.98 370.85 318.42 377.87 313.88 385.92 315.56 391.19 322.29 398.22 322.97 402.9 328.36 411.83 322.8 417.24 317.92 425.29 319.26 438.32 323.14 441.4 326 438.47 337.11 439.49 338.29 443.45 336.94 455.45 347.88 451.06 351.42 451.2 356.64 458.23 366.57 462.04 370.78 469.21 385.42 471.99 385.76 475.8 388.28 481.66 392.49 486.34 389.46 490.15 388.45 497.91 390.14 507.73 376.84 515.49 363.71 519.59 357.31 525.89 352.76 524.13 343.34 527.94 335.26 524.71 330.21 516.51 332.4 509.04 328.86 504.36 323.3 500.99 320.61 504.94 318.93 510.51 314.05 513.58 311.18 519 309.67 523.69 297.38 533.94 285.77 537.6 279.87 539.07 282.06 546.54 280.38 551.96 276.51 557.53 266.91 559.14 261.19 562.95 246.21 565.58 247.05 570.27 243.34 575.25 238.63 579.21 229.2 584.04 224.83 581.26 216.24 580.82 209.34 585.95 205.3 591.81 195.7 593.57 195.7 593.42 189.31 587.71 182.07 587.41 176.85 592.84 170.96 596.64 164.9 599.72 160.52 606.76 146.04 608.22 137.29 614.08 130.56 625.51 120.12 634.89 114.9 641.93 93.69 648.08 89.65 649.55 84.26 648.96 82.58 654.83 78.2 656 81.91 644.86 80.9 633.72 73.15 621.41 74.84 611.15 71.47 606.46 62.72 603.82 56.65 594.45 46.22 588.29 35.78 585.36 21.98 579.79 15.08 583.63 24.77 566.95 38.14 547.64 40.37 523.13 37.53 519.7 34.75 517.51 18.83 501.59 1 478.56 18.83 449.6 31.56 432.45 34.41 428.83 38.14 423.6 36.65 374.58 48.54 368.64 49.28 346.35 38.88 325.55 45.29 321.18 49.28 320.55 58.94 315.9 64.68 296.53 81.97 282.48 81.94 278.78 81.22 257.22 67.85 233.45 92.36 211.91 108.69 202.21 133.22 169.58 154.78 135.5 168.13 117.58 176.07 107.97 194.52 88.2 200.81 81.19 220.87 73.02 227.55 48.51 237.36 41.29 240.8 43.86 251.09 46.19 257.4 46.05 265.99 44 273.64 42.98 279.87 41.81 286.61 41.45 298.39 39.18 304.7 39.62 311.1 42.03 320.27 47.14 324.99 48.53 332.31 50.14 341.15 49.55 349.57 47.29 356.97 41.23 365.14 34.8 367.91 29.11 366.15 19.54 369.18 13.12 389.8 13.41 402.76 10.05 407.47 5.31 412.19 3.19 414.12 1 418.67 3.77 423.97 5.31 424.56 7.21 420.86 10.49 422.2 16.26 422.29 21 423.64 25.24 425.91 27.57 428.1 37.58 433.23 43.86 443.75 49.11 451.5 51.96 453.85 57.15 453.68 62.55 453.01 66.42 454.53 70 458.82 74.75 456.8 79.57 457.3 83.44 458.82 86.65 461.51 88.4 462.94 91.91 462.77 97.17 463.03 99.8 465.8 102.35 469.26 104.18 476.41 106.15 491.73 106.66 497.96 104.4 501.66 105.64 501.66 105.79 501.91 109.08 503.68 115.94 509.49 119.81 513.02 117.33 516.98 112.07 518.33 109 521.02 106.66 523.54 107.1 525.65 104.25 524.89 100.89 526.91 97.9 532.38 98.19 538.27 103.23 539.45 106.3 542.48 109.37 545.09 103.45 548.54 100.75 554.1 99.58 555.61 101.41 557.72 106.08 560.41 110.76 561.93 117.18 562.77 119.59 566.56 124.93 569.94 125.72 569.42 128.85 Z"/>
</g>
</svg>