<?xml version="1.0"?>
<svg xmlns="http://www.w3.org/2000/svg" version="1.2" baseProfile="tiny" fill="#f9c113" width="800" height="760" viewBox="0 0 800 760" stroke-linecap="round" stroke-linejoin="round">
<g fill="#c0392b" id="id_116">
<path d="M 709.37 538.31 707.17 546.04 702.16 551.65 701.84 555.11 699.34 559.65 689 568.19 681.16 574.06 677.4 576.73 678.03 577.53 672.7 586.33 666.12 590.87 657.34 590.34 649.82 590.07 634.15 588.73 605.63 580.2 600.61 590.07 602.18 596.21 602.18 602.35 597.48 609.02 595.91 614.89 598.42 619.16 601.87 621.29 608.45 623.96 612.52 625.83 613.78 627.17 618.48 629.57 620.36 629.57 626.31 630.64 631.96 629.84 640.73 629.3 644.8 633.57 640.73 638.91 638.22 646.39 638.54 651.46 640.42 654.13 641.98 657.33 643.86 659.73 641.67 663.21 642.3 666.41 644.49 669.88 641.67 668.55 641.04 673.62 640.42 678.16 636.03 686.97 627.57 692.58 620.36 696.31 616.29 697.65 610.64 698.45 605.32 700.59 602.81 705.13 607.5 715.03 603.25 712.45 599.93 710.51 593.03 707.58 588.35 705.79 582.37 699.56 578.68 696.54 573.25 693.68 565.91 688.68 560.71 685.76 557.68 684.44 547.9 680.6 543.92 680.45 534.06 681.58 527.61 683.06 524.99 684.66 518.23 684.94 517.5 685.13 508.93 687.49 504.1 687.33 501.15 686.67 483.07 700.63 480.74 704.66 478.16 707.83 474.14 710.19 470.15 714.59 467.46 717.27 459.3 722.71 456.98 726.51 451.74 729.97 447.79 731.23 444.87 732.42 437.24 736.01 434.91 737.2 431.26 740.07 429.19 741.36 427.64 742.68 424.76 743.53 421.77 745.29 412.14 751.7 410.52 750.32 402 756.55 401.33 755.7 394.8 759 388.34 759 385.32 758.84 379.34 758.56 372.51 758.56 364.06 757.65 358.3 756.99 354.1 755.79 345.35 753.57 337.67 751.43 324.09 749.48 317.01 748.66 314.76 748.6 310.96 749.23 309.52 748.82 307.86 746.99 306.45 745.2 300.33 734.92 299.33 729 300.99 724.29 303.28 721.93 303.87 715.73 308.67 705.11 312.65 696.55 312.65 687.53 311.62 683.47 309.44 678.63 307.64 673.63 306.05 667.38 305.57 663.35 304.9 656.25 305.57 650.15 307.45 645.72 312.43 637.86 320.4 623.37 323.61 617.18 330.66 607.54 335.98 604.42 319.55 593.43 318.37 585.92 320.84 575.04 320.28 570.76 318.33 573.31 315.78 571.74 310.43 573.94 304.41 576.54 284.78 563.85 273.16 568.5 268.95 573.12 262.83 561.97 248.73 552.79 257.44 548.3 267.11 540.39 283.49 526.13 295.67 510.33 302.02 502.54 285.15 504.8 271.02 502.01 253.93 504.2 244.34 502.26 227.29 499.53 222.13 496.26 219.54 498.93 213.52 504.07 199.94 509.51 195.63 514.03 195.3 517.42 193.12 529.13 176.44 547.98 175.22 550.43 176.14 553.57 179.76 560.33 178.06 560.08 153.49 556.05 150.57 554.39 147.07 550.9 150.89 543.07 144.51 535.95 171.15 516.16 180.38 510.92 186.8 500.46 187.81 488.44 190.76 456.6 128.56 484.38 100.18 496.98 90.18 502.22 76.93 511.89 65.61 499.3 62.65 488.43 35.05 459.61 22.73 454.65 9.52 440.96 6.9 439.33 13.28 432.24 22.14 422 33.1 433.52 45.75 425.68 34.68 403.39 34.65 401.79 50.07 404.93 54.68 380.77 43.94 363.79 40.07 356.89 34.06 344.93 27.45 331.38 20.92 331.44 13.77 324.69 5.72 316.56 1 312.64 5.39 306.44 13.21 299.91 18.6 295.77 32.36 290.06 43.69 287.46 51 285.45 55.28 282.91 60 279.59 68.63 270.09 70.86 271.52 80.8 278.06 120.24 301.85 123.99 290.58 140.89 278.69 161.55 259.28 185.34 237.99 189.72 212.33 189.72 194.17 183.46 176.01 184.08 158.48 200.36 154.1 221.64 174.76 241.67 190.41 264.83 196.05 303.64 171.01 353.72 157.23 412.56 159.11 448.24 131.74 448.26 131.74 449.16 131.05 449.14 131.04 458.13 124.15 460.58 111.9 460.72 111.73 460.76 111.53 469.52 101.51 489.56 104.02 500.2 96.5 505.83 83.98 511.46 72.72 527.11 59.57 539.01 43.29 561.54 27.64 588.46 15.12 613.62 1 613.62 1.05 614.77 2.31 638.66 19.48 648.05 32 659.32 42.01 667.08 43.62 667.07 43.67 677.34 45.8 687.75 48.98 687.85 48.94 691.73 50.13 691.67 50.17 699.88 52.68 718.03 61.45 728.72 63.58 728.71 63.53 736.94 65.18 736.31 85.21 722.54 102.11 703.76 115.89 689.99 134.04 700.01 144.69 710.65 148.44 720.66 157.21 729.43 161.59 734.43 172.86 736.31 183.5 736.31 194.14 736.44 196.78 736.32 196.86 737.44 219.84 749.33 231.11 766.86 241.12 770.79 255.38 768.6 257.77 770.48 262.3 771.73 271.09 773.3 276.68 772.67 291.33 768.29 306.52 780.2 308.11 763.27 324.63 765.15 328.89 772.67 325.7 782.7 329.96 789.6 333.16 797.75 340.08 799 347.01 793.99 357.14 788.34 354.47 785.84 359.8 790.85 361.4 788.34 370.46 786.46 373.13 780.2 377.92 776.43 381.65 772.67 382.72 769.54 381.65 765.15 377.92 761.39 373.13 752.62 373.13 743.84 364.6 743.84 361.93 740.71 357.14 737.57 357.14 730.68 355.01 718.77 348.08 715.63 334.76 706.23 340.62 695.58 355.01 695.58 358.74 693.7 361.4 684.92 368.33 680.53 378.46 678.65 385.39 682.41 390.72 685.55 397.65 688.05 400.31 693.7 402.44 704.35 407.24 708.74 410.97 708.11 416.84 708.74 421.1 708.11 425.37 707.49 428.57 708.11 432.83 716.89 435.5 722.53 439.23 716.26 448.3 709.37 454.16 701.22 457.89 704.35 465.36 706.23 467.49 707.49 471.23 703.1 488.29 703.1 493.1 704.91 503.11 703.75 512.55 714.56 525.79 710.62 533.5 709.37 538.31 Z"/>
</g>
</svg>