<?xml version="1.0"?>
<svg xmlns="http://www.w3.org/2000/svg" version="1.2" baseProfile="tiny" fill="#f9c113" width="800" height="716" viewBox="0 0 800 716" stroke-linecap="round" stroke-linejoin="round">
<g fill="#c0392b" id="id_166">
<path d="M 361.31 715 342.99 621.92 341.47 600.56 350.63 583.77 338.41 568.51 313.98 562.41 274.29 582.25 234.59 612.76 216.27 664.65 196.42 704.32 159.78 682.96 109.4 626.5 84.97 592.93 80.39 562.41 54.44 534.94 43.75 505.95 13.21 524.26 1 513.58 49.86 446.44 52.91 408.29 47.46 405.13 52.09 396.53 61.12 388.2 61.12 372.93 55.56 354.2 47.93 344.48 44.26 334.39 49.31 330.6 63.2 341.71 77.09 343.79 96.53 352.12 111.11 352.81 122.21 350.73 126.38 340.32 126.38 321.58 120.83 309.09 106.94 301.46 91.67 291.74 72.23 280.64 57.05 269.39 58.34 258.44 65.28 242.48 71.83 228.73 89.58 216.11 102.08 219.58 119.44 222.35 134.71 216.11 142.35 207.78 144.48 196.89 153.46 193.9 169.42 200.84 181.92 201.54 192.34 193.21 204.14 180.72 215.94 179.33 229.13 179.33 249.27 176.56 263.85 164.07 281.9 155.74 280.35 151.47 278.43 143.94 277.04 127.29 274.26 116.88 274.26 102.31 279.81 95.37 287.45 90.51 297.17 88.43 304.11 86.35 313.83 80.8 319.39 71.08 321.53 54.82 332.47 54.33 342.79 60.35 347.96 74.11 358.28 74.97 370.33 74.97 384.96 72.39 384.96 61.21 390.13 50.88 397.87 39.7 407.34 37.12 415.08 37.98 421.97 45.73 430.58 43.15 422.83 25.94 428.85 11.32 439.18 1 441.76 21.64 453.81 36.26 467.93 108.92 446.94 113.14 441.29 125.09 440.48 139.15 460.66 127.2 476.81 148.29 488.11 179.93 485.69 212.98 492.96 227.05 525.25 232.67 570.46 235.49 614.06 232.67 623.74 263.62 610.83 272.07 568.85 277.7 554.31 303.02 631.01 351.58 632.62 385.37 662.49 419.87 702.86 439.58 713.36 451.55 727.08 483.25 715.78 507.9 727.89 523.4 753.72 531.15 782.79 526.92 799 544.98 788.8 551.1 780.64 560.27 769.42 571.49 757.18 584.74 744.94 595.95 735.76 609.2 723.52 616.34 704.14 628.57 676.61 639.78 666.41 657.12 651.11 660.17 642.95 666.29 635.81 670.37 624.59 678.52 610.31 670.37 592.97 676.48 589.91 689.74 586.85 699.93 570.53 699.93 562.37 691.77 559.31 675.46 547.07 677.5 530.75 677.5 522.6 681.58 512.4 685.66 495.06 685.66 420.32 705.61 361.31 715 Z"/>
</g>
</svg>