<?xml version="1.0"?>
<svg xmlns="http://www.w3.org/2000/svg" version="1.2" baseProfile="tiny" fill="#f9c113" width="800" height="759" viewBox="0 0 800 759" stroke-linecap="round" stroke-linejoin="round">
<g fill="#c0392b" id="id_128">
<path d="M 594.29 119.43 693.72 191.74 660.09 481.05 799 491.03 623.54 688.13 601.6 699.36 591.37 758 544.58 630.74 515.33 627 388.12 678.15 363.26 676.9 320.86 750.51 227.28 715.58 211.19 630.74 157.46 569.3 170.62 554.33 135.52 543.11 117.98 520.65 53.64 528.14 27.32 514.42 31.71 463.28 5.02 440.2 1 414.32 8.68 390.94 16.35 371.61 39.02 351.97 26.22 338.56 8.68 335.45 34.27 311.44 71.92 318.61 88.37 283.38 106.28 291.8 132.96 296.48 157.82 311.13 177.93 301.15 177.93 282.76 186.33 264.68 208.63 256.57 220.33 239.43 229.84 210.75 238.61 188.31 247.38 176.15 273.7 176.46 280.28 157.76 300.75 139.68 331.46 134.7 348.27 127.53 321.22 78.29 347.18 67.07 338.4 45.88 345.72 14.71 364.72 23.44 401.28 1 522.64 45.88 544.58 74.55 594.29 119.43 Z"/>
</g>
</svg>