<?xml version="1.0"?>
<svg xmlns="http://www.w3.org/2000/svg" version="1.2" baseProfile="tiny" fill="#f9c113" width="800" height="300" viewBox="0 0 800 300" stroke-linecap="round" stroke-linejoin="round">
<g fill="#c0392b" id="id_187">
<path d="M 779.82 233.22 786.48 239.89 787.65 240.8 788.83 242.24 787.9 252.5 782.31 260.59 776.72 270.23 769.44 270.51 762.82 270.82 760.8 270.84 746.89 271.47 745.05 270.29 742.49 268.94 740.21 267.67 738.94 266.72 736.2 265.29 732.73 263.3 730.91 262.11 734.74 259.4 736.38 258.85 737.02 258.37 735.93 257.65 734.65 257.1 736.75 255.19 737.66 253.52 740.4 251.93 743.32 251.3 747.15 249.87 748.61 247.96 746.05 246.45 741.67 246.69 738.75 246.21 734.47 243.75 732.46 243.11 727.99 239.38 722.88 236.2 718.68 235.64 715.67 234.61 713.58 233.34 711.2 234.45 709.2 235.24 709.29 237.07 710.75 237.79 712.02 239.3 713.21 240.33 711.84 241.52 709.65 241.92 706.73 242.4 705.73 243.98 704.91 245.02 703.18 247.64 701.9 249.55 700.26 251.14 698.34 251.93 696.33 250.82 695.79 247.88 695.6 242.95 695.79 239.06 695.15 237.15 693.23 236.83 692.14 238.02 692.05 240.65 691.13 241.6 687.12 243.19 684.75 243.67 680.28 245.57 678.09 246.69 676.45 248.28 674.44 249.95 674.71 250.9 675.72 252.41 677.81 253.68 678.09 255.83 677.27 257.89 675.81 259.16 673.07 260.36 670.79 260.91 668.51 262.82 665.04 266 662.3 268.7 660.3 271.17 659.02 274.9 659.02 277.85 658.11 280.95 656.28 282.78 655.1 285.24 654.73 287.47 652.45 288.58 651.36 289.85 649.53 292.56 647.16 293.67 643.97 295.5 640.32 296.14 638.31 296.45 635.76 298.2 632.47 299 612.04 298.92 608.57 298.68 603.55 297.89 602.19 296.53 601.91 295.42 602.92 293.27 604.19 290.57 604.1 287.94 603.37 285 601.73 281.82 600.82 275.54 600.54 271.65 598.81 270.93 595.07 271.01 592.79 270.21 590.87 268.47 590.51 265.68 589.5 264.25 585.67 263.14 584.4 261.71 583.21 257.81 579.38 256.86 574.63 257.65 572.17 255.59 570.26 251.46 567.7 247.72 563.05 243.91 560.22 240.33 560.31 238.1 563.78 236.91 568.61 235.4 568.34 232.7 571.08 231.03 577.01 232.78 581.66 234.37 585.76 233.26 585.95 230.16 586.68 224.84 587.22 223.33 589.69 222.85 593.7 223.01 595.89 224.84 599.45 224.28 601.73 221.5 599.81 219.75 598.81 218.4 596.16 217.53 593.24 216.81 592.97 216.02 596.26 215.86 601.27 215.22 602.82 213.63 603.01 209.5 603.55 206.09 603.64 203.47 599.63 202.83 596.8 202.36 593.52 201.48 590.14 198.31 585.86 195.13 582.84 194.89 581.93 195.76 578.92 196.8 575.09 197.11 569.62 195.37 574.27 198.62 577.28 201.64 577.92 204.98 578.74 208.79 580.2 213.16 580.29 214.83 577.83 215.54 570.99 215.62 569.8 215.06 568.61 213.32 565.88 211.49 559.95 213.16 555.11 213.63 549.36 207.92 549.09 205.29 550 202.67 549.73 198.86 543.07 200.93 541.43 201.01 539.24 194.65 538.6 194.26 535.95 194.81 534.49 196.08 533.58 196.96 531.39 198.23 528.29 200.93 525.64 202.59 523.18 203.55 521.36 204.5 519.71 204.82 518.71 205.69 525.92 206.09 528.29 206.64 530.57 207.92 532.49 208.55 534.68 210.06 536.59 210.7 538.42 211.81 539.97 213 541.7 213.4 543.8 213.71 541.79 214.59 540.7 215.3 538.69 215.94 536.77 215.86 534.04 215.06 532.67 214.43 533.03 216.57 532.3 218.72 532.03 221.26 529.2 221.58 526.83 220.62 526.19 219.12 522.18 213.95 519.44 212.28 517.8 211.09 516.43 211.09 514.7 211.73 511.6 212.36 507.95 213.63 505.39 215.3 503.57 215.62 499.64 215.78 499.19 213.48 493.17 208.55 493.62 207.12 491.98 206.33 491.8 204.02 490.7 202.91 488.61 202.2 486.23 203.07 483.59 204.82 478.3 207.6 473.55 211.65 467.08 217.13 464.8 219.75 459.32 221.02 450.84 219.83 445.45 220.47 437.97 223.64 432.68 223.17 429.4 221.5 426.21 218.8 421.1 216.65 417.81 213.63 416.44 210.38 414.44 203.86 411.52 202.67 408.96 203.63 403.76 204.98 398.65 205.06 396.37 204.1 398.02 202.59 401.94 201.32 401.39 199.89 397.92 198.38 388.71 196.16 385.15 194.73 379.59 190.76 375.39 189.89 372.47 189.57 367.91 188.93 354.41 189.57 353.31 192.27 353.41 196.56 352.77 199.89 352.86 202.51 354.18 206.41 355.59 209.03 356.19 210.34 356.83 211.81 358.15 213.95 358.65 215.7 358.7 223.96 358.7 226.94 359.29 227.74 360.38 228.57 360.57 229.36 361.98 230.44 363.94 231.83 366.22 233.02 369.05 234.81 372.52 235.6 374.93 236 376.44 236.67 377.9 237.63 378.54 238.7 380.32 239.65 382.96 241 384.42 241.72 385.29 242.47 388.3 243.03 389.76 244.46 388.3 246.61 387.21 248.91 386.93 250.58 387.02 252.25 388.12 253.76 391.04 255.99 390.95 257.18 388.85 258.21 382.83 258.21 378.99 256.78 372.43 253.76 368.96 251.53 361.3 249.95 336.3 249.79 322.8 248.51 310.21 244.54 301.45 242 296.62 240.65 289.36 240.25 284.94 239.06 282.75 228.21 285.99 222.17 286.99 213 285.8 207 283.98 199.34 281.47 191.63 278.83 186.67 277.05 183.02 273.22 180.36 269.02 178.41 262.27 177.18 235.49 177.18 229.84 176.59 221.4 175.52 213.87 175.44 211.36 174.72 205.2 173.13 201.37 172.94 198.96 171.83 195.67 172.02 193.12 174.84 191.79 178.34 191.38 181.99 191.84 183.46 193.44 185.68 194.3 187.23 195.44 188.58 195.94 190.25 197.36 191.79 198.86 194.22 200.14 197.47 200.51 202.63 200.05 204.3 199.41 206.05 195.4 207.8 190.01 211.29 182.53 213.91 177.52 214.79 173.05 214.07 164.11 214.31 160.46 213.75 151.33 213.12 132.27 213.04 123.51 214.79 107.91 216.53 98.24 217.49 88.93 217.8 84.1 218.28 78.08 218.84 72.69 219.16 66.95 217.96 64.39 217.8 56.18 218.12 48.61 216.85 45.42 216.14 39.58 214.94 32.55 213.28 27.26 212.96 21.79 211.85 17.32 212.32 14.03 212.96 10.48 213.52 8.11 215.1 5.14 215.75 1 182.82 2.58 159.38 7.76 154.07 17.6 156.13 21.4 145.25 33.92 122.94 46.44 116 87.32 134.87 125.46 114.42 149.58 106.49 172.77 80.51 192.26 67.55 224.9 3.94 228.59 1 232.87 6.07 243.14 15.42 259.94 22.89 282.53 27.92 294.02 30.61 297.49 31.53 309.4 35.04 325.26 35.04 348.59 41.58 370.06 49.98 382.19 68.67 397.43 81.1 401.8 85.36 403.44 86 407.39 89.22 429.79 97.63 465.22 101.37 481.22 101.37 485.21 101.25 487.59 101.44 498.38 101.44 501.18 101.41 505.3 101.44 508.07 101.45 511.25 101.54 514.65 101.73 517.8 101.88 519.27 101.91 521.83 101.97 523.19 102.1 524.49 102.08 526.23 102.17 535.21 102.48 549.15 108.83 552.59 110.34 554.26 111.02 555.78 111.65 570.55 123.83 571.67 124.8 578.17 139.68 570.71 147.15 590.31 160.23 594.97 181.72 618.54 176.48 620.62 175.97 640.7 169.57 652.65 161.3 654.97 159.79 665.9 152.76 673.27 145.38 678.97 139.68 685.5 125.66 691.9 114.44 693.17 112.23 694.07 110.68 696.12 108.05 696.87 105.87 699.24 101.81 699.61 99.59 700.32 88.17 700.43 86.03 700.43 75.37 700.68 73.09 708.83 64.93 720.03 56.52 735.89 49.98 745.76 54.47 748.59 55.67 757.36 59.33 760.46 60.22 762.43 62.18 772.29 67.74 778.82 84.55 777.09 86.1 775 89.54 773.59 90.45 771.36 92.96 784.42 103.24 784.05 107.66 784.13 110.18 783.81 111.93 783.5 114.38 784.65 117.95 786.29 122.86 793.28 136.86 793.81 137.91 796.7 143.34 799 147.36 796.6 155.47 792.56 157.42 790.89 157.68 788.21 159.51 792.56 168.22 792.25 177.55 787.28 180.04 787.9 200.56 786.34 202.76 785.15 204.27 779.82 211.45 772.37 223.58 779.82 233.22 Z"/>
</g>
</svg>