<?xml version="1.0"?>
<svg xmlns="http://www.w3.org/2000/svg" version="1.2" baseProfile="tiny" fill="#f9c113" width="800" height="625" viewBox="0 0 800 625" stroke-linecap="round" stroke-linejoin="round">
<g fill="#c0392b" id="id_102">
<path d="M 615.97 196.99 651.3 226.15 638.87 241.83 647.36 248.74 633.93 260.7 763.03 369.44 779.21 347.36 799 336.81 738.85 443.21 667.79 497.17 661.86 624 451.84 450.29 473.16 382.85 431.31 399.03 379.99 356.54 220.89 348.79 119.83 271.58 77.59 263.49 35.35 296.19 1 265.51 48.37 247.14 90.02 227.41 113.91 207.19 494.48 60.99 552.12 1 598.7 43.46 601.07 54.25 618.44 58.29 618.44 65.03 631.86 82.56 564.75 141.88 543.43 172.89 579.75 209.29 579.95 237.44 615.97 196.99 Z"/>
</g>
</svg>