<?xml version="1.0"?>
<svg xmlns="http://www.w3.org/2000/svg" version="1.2" baseProfile="tiny" fill="#f9c113" width="800" height="726" viewBox="0 0 800 726" stroke-linecap="round" stroke-linejoin="round">
<g fill="#c0392b" id="id_115">
<path d="M 160.66 358.82 158.86 353.48 156.17 350.43 151.69 339.75 163.35 334.41 173.22 326.02 182.19 313.06 174.11 307.72 161.56 303.9 160.66 297.8 161.56 293.23 162.45 287.13 161.56 281.02 162.45 272.64 156.17 267.3 140.93 260.44 132.85 257.39 129.26 253.57 124.78 243.66 119.4 236.04 122.09 226.13 128.37 211.64 140.93 201.73 143.62 197.92 143.62 192.58 158.86 172 172.32 163.62 176.8 182.67 193.85 192.58 203.71 195.63 208.2 195.63 212.68 202.49 212.68 206.3 225.24 218.5 237.8 218.5 243.18 225.36 249.46 230.7 253.94 232.23 259.32 230.7 264.71 225.36 273.68 218.5 276.37 214.69 279.95 201.73 272.78 199.44 276.37 191.82 284.44 195.63 291.61 181.15 289.82 171.24 278.16 161.33 268.29 156.76 253.94 150.66 243.18 155.23 240.49 149.14 264.71 125.51 247.66 123.23 253.94 101.51 254.84 80.56 252.6 72.56 250.8 59.99 248.11 53.51 251.25 50.08 245.62 29.69 277.86 28.79 321.76 40.44 361.17 44.02 361.25 43.97 361.35 43.98 390.02 26.07 406.14 4.58 441.07 1 446.45 14.43 452.28 37.12 452.12 37.23 454.33 45.81 474.93 64.61 549.46 51.15 580.81 33.24 605.89 36.82 622.01 47.56 644.41 62.79 645.9 63.53 645.83 63.62 671.1 76.25 704.25 78.05 755.3 74.46 782.17 84.31 799 86.24 794.24 94.32 781.05 110.78 767.45 113.58 764.97 135.65 750.13 143.35 750.13 152.46 745.19 168.92 758.79 182.93 744.78 198.34 751.78 244.94 745.03 267.87 743.23 274.73 736.06 283.88 733.37 286.17 731.57 295.32 733.37 304.48 719.91 302.95 706.46 302.95 701.97 299.14 693 304.48 705.56 315.92 702.87 324.31 729.11 352.54 722.1 362.71 702.32 385.84 683.77 392.86 687.07 401.27 682.12 411.44 682.12 428.62 674.29 425.82 665.22 435.64 636.36 428.27 629.36 421.26 616.58 418.45 603.39 413.19 586.08 400.57 585.66 380.59 575.36 370.77 549.39 370.77 541.14 366.91 524.66 360.25 527.66 361.47 522.8 365.16 520.33 378.48 505.9 391.63 499.51 395.14 499.04 395.34 511.67 406.88 514.97 437.39 494.36 444.4 471.69 442.65 453.14 443 437.47 450.02 438.71 465.8 417.69 476.32 388.01 483.69 377.29 491.4 371.93 517.01 343.08 528.59 345.55 559.46 331.54 573.15 324.94 593.85 305.57 611.05 298.97 622.28 298.14 635.87 284.15 643.4 283.65 644.59 279.54 654.87 271.52 673.2 270.57 674.63 270.12 675.62 264.71 683.49 259.19 687.69 245.16 698.41 230.26 691.54 209.63 688.1 188.99 693.83 163.78 694.98 140.85 696.12 133 699.07 119.77 704.79 109.88 711.06 105.23 712.23 98.47 713.08 83.9 721.49 78.46 724.15 74.02 725 66.37 725 61.56 724.15 56.76 722.62 48.1 717.76 44.3 715.87 39.86 714.65 29.09 713.17 25.18 711.24 17.58 707.55 10.87 693.38 14.45 686.89 22.08 683.83 30.15 682.68 35.98 680.77 46.3 675.43 58.41 667.41 64.68 654.8 65.58 648.31 66.48 641.05 70.51 642.96 67.37 638 66.48 633.42 69.62 628.45 66.93 625.02 64.68 620.43 61.99 616.61 61.54 609.36 65.13 598.67 70.96 591.03 65.13 584.92 52.58 585.69 44.5 586.83 35.98 585.3 33.29 585.3 26.56 581.87 24.77 579.96 18.94 577.29 9.52 573.47 4.59 570.42 1 564.31 3.24 555.91 9.97 546.36 9.97 537.59 7.73 528.81 14.9 514.68 55.71 526.9 78.14 528.81 88.9 529.19 101.46 529.95 110.88 523.46 118.5 510.87 117.6 509.72 122.99 505.9 134.2 497.51 149 485.3 152.59 478.81 153.03 473.85 160.21 465.83 163.35 454.77 165.14 447.9 170.78 436.86 155.32 417.93 156.97 404.43 154.38 390.1 154.38 383.23 160.66 358.82 Z"/>
</g>
</svg>