<?xml version="1.0"?>
<svg xmlns="http://www.w3.org/2000/svg" version="1.2" baseProfile="tiny" fill="#f9c113" width="800" height="520" viewBox="0 0 800 520" stroke-linecap="round" stroke-linejoin="round">
<g fill="#c0392b" id="id_196">
<path d="M 650.11 11.46 657.61 14.8 658.94 18.74 664.38 26.44 676.29 26.33 695.6 27.24 697.08 29.27 702.37 43.97 708.8 52.52 716.88 59.84 718.17 62.76 722.07 68.33 728.28 77.02 724.75 82.94 727.33 87.33 730.08 92.99 736.29 100.76 740.23 105.32 747.16 111.15 754.45 118.39 760.09 122.29 763.28 128.35 770.36 135.98 773.67 139.31 778.09 143.62 782.82 148.46 783.59 153.98 783.48 158.94 784.55 162.48 784.63 163.29 785.94 169.18 789.04 175.08 790 177.24 791.31 178.97 793.83 182.7 793.92 186.61 794.67 191.02 794.31 196.25 792.04 200.71 791.42 206.47 784.34 216.3 781.84 222.63 779.78 227.88 778.17 231.88 778.44 239.59 777.74 244.84 779.07 249.61 781.09 251.33 781.15 253.3 780.9 256.61 783.42 261.66 789 263.65 795.38 270.48 797.17 274.37 799 279.03 794.15 281.09 792.17 282.49 784.07 287.34 777.01 296.02 771.63 302.21 765.86 310.83 759.43 315.92 756.91 318.24 748.47 319.95 745.87 319.95 739.16 320.77 735.96 322.13 731.46 322.46 729.1 321.36 725.27 319.11 721.92 317.63 716.9 314.21 714.17 316.12 711.45 317.66 710.05 318.46 707.51 320.27 709.34 324.4 713.36 329.52 715.36 335.66 716.82 344.67 716.71 346.63 716.15 353.08 718 359.4 718.67 367.13 720.36 374.25 722.77 377.93 725 385 724.27 390.45 724.29 393.48 724.15 397.89 721.54 405.3 718.04 410.47 710.59 420.22 705.99 423.36 705.07 425.92 704.36 429.19 703.97 430.74 701.59 431.64 693.3 433.93 690.95 435.44 689.49 440.13 688.87 443.6 684.22 450.45 685.1 454.97 684.28 458.18 687.05 462.92 682.26 466.41 681.66 468.59 674.99 472.09 669.37 480.21 667.62 483.81 665.04 486.32 660.75 496.44 658 500.57 656.15 508.35 655.44 514.4 654.13 519 643.39 510.67 637.64 500.48 631.02 480.9 629.69 464.85 628.81 458.2 631.46 448.8 635.88 440.19 631.9 432.37 621.74 421.41 623.95 410.45 614.23 402.23 606.72 387.76 612.9 381.5 614.23 381.5 615.11 374.85 604.51 367.03 600.53 356.08 608.49 357.25 609.86 342.33 610.51 336.94 604.74 332.78 600.43 329.37 595.28 327.62 589.2 326.37 586.97 328.75 584.84 332.91 583.2 340.12 582.97 345.96 580.59 351.82 576.33 353.34 560.64 353.13 557.14 352.23 551.79 353.02 548.65 356.16 543.02 362.33 538.19 363.14 535.17 365.55 528.32 365.81 520.98 363.43 512.19 364.61 506.63 367.16 500.66 368.19 493.3 369.55 486.22 371.05 472.14 371.1 462.77 370.96 453.21 368.84 443.76 365.19 433.78 357.93 427.3 352.64 421.22 341.95 415.85 341.28 411.95 339.4 407.95 326.28 400.08 320.58 388.29 317.47 383.42 305.73 369.01 288.78 354.74 279.84 351.38 277.3 317.91 274.73 279.99 274.13 265.01 273.49 257.61 271.02 252.72 267.8 249.49 259.05 243.99 252.27 233.08 240.74 204.78 217.65 196.76 205.06 187.36 198.32 186.77 203.69 187.38 214.8 188.06 219.31 188.79 224.21 188.79 230.39 188.42 233.21 186.79 240.47 186.29 243.89 184.67 250.56 183.61 253.69 181.98 262.04 181.16 268.65 180.75 271.18 179.42 279.19 179.23 282.49 177.54 290.1 161.3 287.94 154.6 289.49 149.41 289.62 135.46 286.22 123.19 284.45 110.59 281.46 101.93 278.62 82.41 275.97 72.43 274.02 67.04 273.87 52.73 272.25 44.75 268.57 34.3 265.45 26.78 263.63 20.32 263.76 11.26 262.56 3.37 260.66 1 259.6 22.53 223.44 24.11 218.2 32.32 191.04 39.64 168.53 43.82 138.9 53.11 115.92 65.91 105.41 95.76 105.4 127.53 103.11 172.32 98.83 222.67 90.21 268.63 81.59 282.58 78.98 296.78 77.97 331.09 75.54 378.44 65.62 429.05 47.59 456.67 27.9 502.4 11.96 535.94 1 534.33 4.66 532.62 7.97 532.5 12.29 534.27 17.87 539.33 22.87 546 26.16 549.54 28.2 564.55 37.39 565.76 37.78 569.03 28.55 570.05 26.25 571.65 20.81 576.32 19.93 578.42 20.02 583.42 21.2 614.54 26.16 619.6 24.89 631.2 17.47 641.65 12.78 650.11 11.46 Z"/>
</g>
</svg>