<?xml version="1.0"?>
<svg xmlns="http://www.w3.org/2000/svg" version="1.2" baseProfile="tiny" fill="#f9c113" width="800" height="601" viewBox="0 0 800 601" stroke-linecap="round" stroke-linejoin="round">
<g fill="#c0392b" id="id_109">
<path d="M 235.48 531.34 219.47 543.5 216.72 548.21 212.15 557.62 205.28 563.12 199.79 569 196.59 574.49 192.01 580.77 187.44 585.48 180.58 589.4 181.03 594.51 180.58 594.51 164.56 596.08 156.33 595.29 147.63 592.54 135.74 591.76 126.13 597.65 123.38 599.22 117.43 600 111.03 597.65 103.25 592.15 100.51 588.62 83.58 587.05 73.51 585.48 65.27 587.05 53.38 588.23 43.31 585.09 33.7 576.85 21.81 571.75 11.74 571.75 1 571.8 2.35 567.91 3.54 559.98 20.74 548.2 25.94 538.32 36.86 532.57 34.92 520.33 30.53 516.43 26.53 510.45 24.1 508.92 24.31 505.63 33.35 496.92 31.89 492.1 36.32 483.29 33.67 479.26 29.61 478.01 27.13 468.83 32.86 473.23 37.73 473.93 46.6 476.06 53.31 470.82 56.44 461.97 63.04 444.78 70.07 442.42 75.21 428.33 78.3 411.75 74.13 391.18 71.91 385.02 78.41 379.28 79.54 374.65 81 359.6 84.03 347.28 87.44 343.76 86.41 338.58 92.52 334.69 101.34 326.27 104.15 321.73 101.29 318.81 96.69 309.79 85 310.9 82.79 309.19 87.33 302.29 94.79 297.25 98.74 296.88 105.07 292.25 113.84 292.39 126.33 283.09 127.47 280.26 131.85 275.13 137.04 280.49 140.39 278.46 144.99 271.1 137.96 259.44 130.6 256.02 131.47 250.01 128.87 246.95 127.74 241.86 130.6 240.62 137.47 244.96 140.39 245.89 151.54 242.33 155.49 244.96 159.76 245.2 166.03 238.03 172.58 228.68 174.09 232.61 186.21 240.57 197.62 239.37 201.19 241.26 205.3 240.2 210.66 241.73 217.1 233.03 219.75 225.49 225.26 221.47 224.45 214.95 217.96 211.29 212.82 211.2 207.47 212.96 192.21 214.67 187.62 213.61 192.81 201.81 196.27 205.93 200.38 205.1 199.73 199.87 206.98 200.57 215.36 194.46 219.96 194.23 220.4 190.21 228.4 194 230.84 194.09 236.62 184.29 237.87 178.09 234.7 174.33 235.35 170.81 238.16 167.21 241.52 167.85 248.33 168.59 244.87 157.41 239.14 150.94 259.15 149.55 267.91 152.23 270.62 150.66 271.27 147.15 266.4 140.31 270.19 136.98 274.51 139.2 277.87 137.63 279.92 134.95 280.14 129.4 278.84 122.84 287.28 119.7 288.36 115.26 293.55 113.41 295.83 111.19 293.55 106.48 290.09 105.19 290.31 101.95 295.39 95.3 302.21 99.37 318.44 104.82 317.79 93.45 313.89 89.57 308.81 85.14 309.57 83.2 314.97 82.09 316.71 80.33 329.58 84.86 346.02 81.16 355.76 74.05 352.73 72.11 349.05 72.02 346.24 69.25 347.1 66.29 351.65 61.95 357.71 60.56 361.17 57.98 364.2 48.83 384.97 47.45 388.65 49.66 400.87 52.16 412.12 50.03 415.48 40.34 418.94 29.53 422.62 20.39 424.78 20.48 431.38 25.01 439.71 25.75 446.85 22.88 453.77 17.25 458.86 7.56 461.45 1 463.94 1.28 473.14 4.69 480.6 5.71 497.59 4.51 523.34 11.06 531.12 14.85 534.69 18.17 538.91 17.9 546.81 20.3 560.16 41.2 568.86 42.76 571.6 41.59 577.55 39.25 583.96 38.86 590.36 39.64 598.6 41.59 604.54 45.11 624.68 54.48 659.45 59.56 658.53 81.05 669.97 82.61 675.92 88.47 680.95 104.89 685.53 115.83 689.19 122.47 689.65 134.2 702.92 134.98 707.03 131.46 708.86 125.21 709.78 121.69 719.85 122.86 728.08 127.16 730.83 134.59 741.35 143.19 746.38 144.76 749.13 150.62 752.33 154.53 779.33 163.91 783.9 168.21 791.68 178.77 799 177.21 796.72 191.89 793.94 195.03 794.36 194.94 793.94 195.03 780.01 210.77 758.21 212.95 746.57 209.72 746.92 209.57 742.52 208.34 739.64 207.55 739.74 207.82 732.05 205.69 716.07 204.23 681.92 202.78 655.03 209.32 636.87 196.24 620.16 202.78 607.81 226.03 583.1 228.94 565 234.73 565.07 234.34 564.74 234.44 541.49 230.08 531.32 237.35 529.86 250.42 534.22 256.96 525.5 269.31 529.13 273.67 546.57 277.3 546.56 277.56 546.77 277.61 546.05 290.68 540.24 301.58 524.25 303.76 513.35 303.03 511.9 314.66 520.42 327.43 530.59 336.15 530.58 336.27 530.79 336.45 530.06 347.35 517.17 348.71 516.92 348.42 516.02 348.52 507.33 347.79 499.34 362.3 499.32 362.3 499.31 362.32 484.78 362.32 468.83 368.11 465.92 383.37 463.02 401.53 465.2 410.97 466.65 424.05 464.47 440.03 464.44 440.05 367.25 383.96 337.97 377.69 305.03 427.84 275.74 449.79 257.44 478.01 235.48 531.34 Z"/>
</g>
</svg>