<?xml version="1.0"?>
<svg xmlns="http://www.w3.org/2000/svg" version="1.2" baseProfile="tiny" fill="#f9c113" width="800" height="781" viewBox="0 0 800 781" stroke-linecap="round" stroke-linejoin="round">
<g fill="#c0392b" id="id_159">
<path d="M 532.41 353.32 533.92 334.32 534.39 327.69 531.93 320.15 544.87 308.04 544.78 301.33 539.49 299.03 540.72 294.29 547.8 286.75 547.89 282.42 551.86 279.63 556.11 280.78 559.79 278.82 558.94 273.74 572.83 274.97 575.47 281.03 588.31 284.79 590.77 292.08 594.26 293.06 596.81 288.64 621.74 283.15 628.64 284.87 632.32 291.18 635.06 303.95 641.58 307.96 655.46 314.18 654.04 323.27 649.7 327.2 640.73 330.31 643.56 335.47 654.42 335.55 649.6 342.34 638.55 350.29 639.88 363.72 642.33 369.94 642.43 387.96 646.96 393.28 665.56 389.35 662.83 394.43 665.66 406.55 670 408.68 670.19 413.68 684.45 419.41 699.75 416.87 706.17 421.79 716.75 425.39 727.8 425.97 727.14 430.47 722.32 435.8 726.48 438.5 750.46 440.22 753.3 443.66 755.94 453.74 768.79 457.1 780.83 465.07 778.56 487.02 774.77 499.89 770.99 507.46 758.11 506.71 754.33 512.76 754.33 521.85 758.87 529.42 767.96 541.53 772.5 548.35 777.8 554.4 780.83 564.24 787.64 574.84 796.73 579.38 799 587.71 796.73 599.82 780.83 605.88 769.47 605.88 751.3 606.64 742.97 603.61 730.86 598.31 721.77 595.28 717.23 606.64 714.96 623.29 714.96 633.89 707.39 658.12 701.33 663.41 701.33 686.88 696.03 691.43 683.92 692.18 671.05 701.27 670.29 711.11 671.05 720.95 674.07 731.55 674.07 739.88 666.5 740.63 657.42 745.93 644.55 755.02 635.46 764.86 628.65 774.7 611.23 777.73 598.36 779.24 589.28 780 570.35 770.16 575.65 761.07 582.46 749.72 574.89 739.88 565.8 727.01 566.56 714.89 573.38 696.73 582.46 693.7 588.52 685.37 577.92 677.8 568.08 671.74 567.32 660.39 562.02 667.2 558.23 672.5 554.45 680.83 546.12 685.37 527.19 684.61 509.78 685.37 500.69 671.74 497.66 660.39 502.96 652.82 509.78 654.33 521.13 658.12 523.41 645.25 511.29 640.7 500.69 640.7 488.58 641.46 479.49 639.19 470.41 626.32 454.51 621.78 440.88 623.29 435.58 622.54 425.74 615.72 412.86 614.21 403.02 613.45 400.75 600.58 399.99 589.22 399.24 577.11 399.99 566.51 387.12 565 378.04 567.27 371.22 555.91 365.17 541.53 362.14 541.53 355.32 543.04 351.54 551.37 350.02 555.91 345.48 556.67 341.69 551.37 341.7 536.99 332.62 536.99 325.05 543.8 312.17 540.02 315.96 528.66 318.23 517.3 331.1 510.49 339.42 509.74 348.51 505.19 356.08 502.17 362.9 492.32 368.19 476.43 372.74 468.85 384.09 470.37 390.91 474.91 396.96 476.43 396.96 462.8 378.04 456.74 360.62 449.17 350.78 440.09 341.69 429.49 329.58 409.05 314.44 399.96 304.6 402.24 302.32 397.69 302.32 393.91 305.35 381.04 297.02 379.52 291.72 383.31 288.7 384.07 280.37 384.82 276.58 386.34 269.77 384.07 269.77 367.41 266.74 359.08 257.65 360.6 254.63 364.38 250.84 368.17 246.3 371.2 237.97 365.9 238.73 351.51 241.75 342.43 247.05 336.37 264.47 334.1 273.55 335.61 280.37 339.4 292.48 350.76 289.45 331.83 273.55 323.5 258.41 326.53 244.03 324.26 234.94 316.69 234.18 303.82 237.97 294.73 246.3 290.19 252.35 281.86 249.33 275.81 234.18 282.62 209.2 285.65 200.87 285.65 184.21 279.59 167.56 271.26 152.41 271.26 131.21 280.35 117.58 290.95 98.66 300.03 78.97 286.41 57.02 278.84 36.57 270.51 29 260.67 25.22 250.07 38.84 244.01 35.82 232.66 29.76 242.5 21.43 242.5 13.1 240.98 3.26 242.5 3.26 235.68 1 222.13 1.75 222.06 1.75 200.86 11.59 200.86 22.94 203.13 31.27 179.66 44.9 159.98 56.26 145.6 65.34 131.97 53.23 125.91 60.04 107.74 80.49 110.02 99.41 120.61 123.64 133.48 139.54 138.02 162.26 134.24 172.86 125.15 180.43 110.02 191.03 94.87 200.87 86.55 215.25 79.73 215.25 97.15 226.61 106.23 241.75 94.87 255.38 69.13 269.01 69.89 286.43 76.7 303.08 84.28 323.52 84.28 344.72 78.98 356.84 68.38 350.78 46.42 357.59 30.52 367.44 21.44 387.12 29.77 399.99 17.65 413.62 1 428.76 1.76 446.18 12.36 460.56 19.17 466.76 22.27 475.65 28.09 481.75 29.82 504.45 33.57 508.62 33.08 524.16 31.28 531.42 26.85 531.48 27.07 538.73 22.93 552.18 21.44 566.91 30.44 566.95 30.41 573.38 34.31 578.4 37.86 578.37 37.88 586.25 43.39 592.72 38.97 605.62 39.84 605.81 48.17 599.2 53.24 603.54 60.43 580.69 64.03 579.74 75.31 579.55 90.84 593.53 90.51 595.04 95.42 604.67 95.09 603.16 101.47 607.32 103.1 608.45 105.23 576.53 122.89 550.09 131.23 534.79 143.5 524.4 146.6 510.99 156.42 472.46 168.03 442.43 180.79 426.56 187.01 412.59 189.95 406.35 192.41 398.42 200.59 389.35 205.99 378.59 207.3 384.25 214.33 367.63 214.99 358.19 212.04 353.09 215.31 347.99 223.82 342.89 225.3 336.66 222.35 339.3 214 336.28 209.42 335.33 187.33 331.18 185.04 330.24 179.32 323.06 179.65 319.47 181.61 319.28 187.01 324.19 191.43 323.62 207.3 320.6 211.88 322.3 218.59 326.65 222.84 330.8 231.51 325.7 232.82 324.76 240.19 329.48 244.44 337.41 244.28 341.76 240.51 354.79 241.66 364.42 240.02 373.87 243.3 378.97 242.31 384.63 233.64 384.07 253.44 387.09 261.79 380.1 261.79 371.6 268.01 366.88 276.69 373.68 280.94 378.02 292.57 379.53 287.66 385.2 287.66 386.33 290.77 392.38 291.26 392.19 295.68 402.95 296.33 403.71 299.77 408.81 300.26 408.62 305.99 415.8 307.3 416.17 312.38 423.54 312.38 425.62 307.63 432.42 302.23 438.84 306.97 439.6 313.03 444.88 319.75 445.64 336.28 456.59 341.03 467.36 343.82 461.88 348.24 461.51 354.63 464.9 364.78 488.33 359.38 508.35 351.19 514.77 351.51 527.61 355.61 532.41 353.32 Z"/>
</g>
</svg>