<?xml version="1.0"?>
<svg xmlns="http://www.w3.org/2000/svg" version="1.2" baseProfile="tiny" fill="#f9c113" width="800" height="668" viewBox="0 0 800 668" stroke-linecap="round" stroke-linejoin="round">
<g fill="#c0392b" id="id_19">
<path d="M 25.53 650.3 24.64 648.09 22.86 638.49 26.41 630.37 33.53 614.14 33.53 611.19 31.75 603.07 30.86 593.48 27.3 586.1 22.86 577.24 23.75 569.13 30.86 549.95 30.86 542.57 18.41 536.67 12.18 532.98 21.97 521.18 27.3 502 28.19 487.99 21.82 472.35 8.49 450.44 1 435.27 1.08 421.39 3.82 418.71 5.05 399.97 11.47 399.91 37.81 414.86 40.08 414.54 40.41 398.82 35.69 393.2 36.34 389.52 57.56 388.71 64.83 385.69 79.39 374.69 80.8 364.62 56.92 351.6 47.31 342.2 45 332.22 47.96 327.95 58.55 328.28 71.9 339.28 75.8 335.35 76.01 328.4 79.03 324.75 83.24 314.41 87.06 310.15 83.38 307.21 79.67 302.13 86.84 299.07 89.9 295.92 93.69 289.96 93.93 277.55 97.39 274.09 100.94 271.51 103.92 266.91 108.59 253.54 104.56 246.29 119.62 245.72 127.27 242.42 140.56 235.73 144.11 221.95 149.91 219.7 223.96 221.39 230.08 227.52 256.82 228.4 257.46 237.43 280.42 252.66 291.69 252.82 295.32 257.33 315.69 257.01 319.64 253.3 324.96 253.14 334.14 263.86 341.87 263.54 351.7 274.82 356.61 274.9 374.81 287.63 383.11 282.07 381.17 270.95 393.14 249.02 402.36 249.46 406.24 253.95 413.33 242.78 413.97 234.62 427.29 235.48 432.44 238.7 440.17 233.76 453.29 235.04 460.36 227.1 460.36 220.01 466.16 219.79 464.02 213.35 459.29 212.7 459.29 201.96 459 201.4 458.99 201.4 450.77 191.33 451.14 182.1 426.85 164.54 431.48 153.86 452.38 151.93 475.02 126.91 492.01 112.36 504.01 112.77 540.18 70.98 545.57 66.59 556.81 66.75 589.75 37.54 606.26 37.58 639.81 9.46 683.62 9.62 688.74 13.09 706.9 9.86 726.95 1 745.08 6.96 761.67 21.06 757.44 29.61 737.43 44.47 739.2 54.06 761.59 52.29 788.65 66.96 792.96 81.54 799 93.95 796.46 120.06 784.34 141.65 772.18 176.22 770.33 203.34 783.42 215.42 782.57 242.42 763.44 258.9 760.86 313.33 759.9 314.05 715.28 338.23 640.37 383.84 639.89 400.28 610.73 418.81 608.8 437.02 599.13 443.47 591.4 464.26 588.02 487.95 574.16 503.74 542.59 530.33 516.66 540 513.92 545.48 483.15 554.34 467.85 576.58 444.01 577.23 421.46 564.66 392.12 565.38 393.07 571.14 373.66 567.5 361.06 572.15 361.06 571.7 355.47 573.56 324.42 573.58 314.35 574.31 307.03 573.58 257.24 577.24 235.77 579.51 221.18 581.27 217.16 580.9 205.07 562.64 135.94 584.48 138.36 616.04 97.11 619.72 97.09 646.37 69.23 651.23 30.42 667 26.41 656.95 25.53 650.3 Z"/>
</g>
</svg>