<?xml version="1.0"?>
<svg xmlns="http://www.w3.org/2000/svg" version="1.2" baseProfile="tiny" fill="#f9c113" width="800" height="283" viewBox="0 0 800 283" stroke-linecap="round" stroke-linejoin="round">
<g fill="#c0392b" id="id_191">
<path d="M 88.2 220.13 86.7 211.73 87.7 206.44 87.2 200.69 107.75 200.69 106.75 194.95 97.73 189.22 96.22 184.36 88.7 176.41 84.19 172 80.18 166.26 76.17 160.52 74.17 153.02 75.17 142.43 76.68 135.81 78.18 130.96 81.19 122.58 75.67 119.49 62.64 114.2 64.65 107.59 66.15 103.18 66.15 98.32 69.66 92.59 68.66 86.86 55.63 83.78 47.11 83.78 43.1 81.57 36.08 81.57 28.56 80.69 23.05 78.49 18.04 77.6 13.53 78.04 10.02 78.49 5.01 78.49 2 75.4 2 71.87 1 68.79 4.01 64.82 6.51 66.14 9.52 63.94 10.02 62.62 9.52 59.53 7.01 57.33 3.51 57.33 2 54.24 1.5 51.6 8.52 48.52 2.54 34.18 58.48 35.05 111.89 32.64 177.89 30.97 182.66 30.83 229.53 29.43 244.41 28.99 253.42 28.29 293.42 25.21 331.71 27.34 342.79 27.96 367.73 29.35 369.18 29.43 379.4 29.56 397.49 29.8 424.24 30.16 432.05 30.1 461.28 29.9 478.17 27.57 484.27 27.16 506.66 28.24 509.94 19.78 514.98 11.76 529.86 5.82 547.05 1.74 564.16 1 587.97 2.85 628.82 32.25 635.17 31.87 643.7 31.44 647.27 32.11 650.62 33.52 654.4 34.55 672.14 38.34 677.91 38.69 688.94 38.83 702.37 39.17 706.42 39.21 710.68 39.7 715.72 41.24 719.6 43.81 726.96 50.24 734.87 55.77 762.25 70.08 770 75.89 777.19 81.28 780.79 83.98 788.38 90.3 790.96 91.25 796.38 93.25 799 107.09 780.71 115.2 752.44 125.94 745.75 125.57 729.06 139.53 728.45 140.04 726.39 139.22 716.09 135.1 707.62 125.57 703.3 119.01 698.7 112.04 698.09 111.1 687.83 107.18 682.67 114.89 678.91 121.78 666.71 127.28 655.76 128.94 649.81 129.76 646.68 131.69 647.31 134.86 648.87 139.13 646.64 142.3 645.88 144.27 646.2 150.95 640.97 154.55 635.65 158.03 626.8 163.48 623.83 164.05 618.43 163.36 605.41 162.62 596.84 158.66 596.39 161.27 595.61 165.3 594.81 171.28 592.54 174.98 589.06 175.08 584.68 175.08 579.99 176.18 577.64 177.42 573.1 177.42 569.35 180.32 567.78 182.8 562.93 191.48 560.86 194.58 559.27 197.61 555.98 207.29 552.99 214.63 548.95 225.22 545.88 232.04 543.51 236.17 541.37 240.52 539.83 242.08 537.64 242.26 535.01 241.15 523.36 237.84 513.41 231.99 503.68 229.1 494.35 228.73 491.92 229.55 490.53 231.98 486.34 239.96 487.88 226.42 496.65 207.87 496.15 206.99 495.65 203.9 486.63 197.27 490.14 191.97 490.64 183.15 482.62 183.59 473.1 186.68 468.59 189.55 468.59 190.21 459.19 191.75 455.56 191.97 453.43 192.42 451.17 193.3 445.78 196.61 442.15 198.93 438.39 200.03 434.51 200.69 427.87 201.69 421.48 199.85 410.45 202.02 403.94 204.67 400.43 206.44 397.42 208.64 391.91 213.94 388.9 217.48 386.4 214.83 386.4 210.85 386.4 209.08 386.9 205.11 379.38 200.25 371.36 195.4 364.85 198.93 361.84 200.69 358.33 203.79 353.82 213.06 343.8 204.23 336.28 200.69 327.15 200.73 326.96 196.96 329.42 192.14 330.56 189.03 328.47 185.21 325.74 181.33 323.39 177.35 322.27 171.86 315.32 168.3 306.32 165.7 300.01 165.08 300.72 163.3 300.75 157.46 300.26 155.69 293.25 153.34 284.44 150.81 277.76 150.69 281.86 140.69 255.59 127.87 250.58 126.99 249.08 126.11 243.06 126.11 239.05 127.43 235.55 128.32 233.54 127.87 231.04 127.43 222.01 122.58 223.52 132.29 218.51 131.4 212.99 129.2 209.99 127.87 203.97 127.87 200.46 127.87 192.33 128.38 193.57 132.85 193.26 137.07 193.22 139.46 192.92 142.77 191.81 148.18 189.41 151.05 186.37 152.83 184.63 156.96 181.74 159.91 180.04 163.14 177.24 166.47 175.41 170.31 175.99 172.86 173.72 177.61 171.78 181.59 171.57 182.8 171.72 184.18 171.58 185.63 171.75 187.23 173.31 190.5 173.81 193.04 173.77 195.57 173.81 200.47 174.06 205.66 171.52 209.57 167.41 214.93 168.96 224.55 170.33 228.4 172.73 230.74 174.3 234.24 174 238.45 176.05 244.01 175.51 248.62 174.86 254.22 176.98 260.88 183.87 265.23 186.45 269.63 182.57 270.98 176.31 273.36 172.7 275.57 169.44 276.38 167.05 277.62 164.9 279.63 162.89 281.4 162.33 282 161.25 281.94 159.78 281.19 155.85 279.67 150.31 278.07 148.86 276.94 147.56 276.2 147.43 274.81 146.72 274.05 145.33 273.75 140.75 272.91 137.53 272.03 125.26 268.55 117.94 266.32 115.48 265.33 113.32 264.53 111.51 264.66 108.48 264.97 106.8 264.48 104.59 263.89 102.17 263.93 99.06 263.6 97.89 262.94 91.93 262.11 89.91 261.43 88.39 259.4 84.95 256.57 82.52 254.46 80.48 253.54 71.9 252.12 67.31 250.93 63.58 250.28 60.13 248.54 73.67 229.84 99.73 237.35 88.2 220.13 Z"/>
</g>
</svg>