<?xml version="1.0"?>
<svg xmlns="http://www.w3.org/2000/svg" version="1.2" baseProfile="tiny" fill="#f9c113" width="800" height="541" viewBox="0 0 800 541" stroke-linecap="round" stroke-linejoin="round">
<g fill="#c0392b" id="id_110">
<path d="M 645.05 59.79 668.94 41.9 695.82 1 719.71 6.11 799 51.85 788.94 59.54 778.87 63.69 767.01 71.98 755.16 76.13 745.67 81.46 739.74 93.31 739.15 103.97 736.78 114.63 733.82 124.11 717.22 133.59 717.22 159.07 710.7 168.55 693.51 185.73 693.51 195.21 675.13 193.43 673.95 212.39 656.76 211.79 645.54 214.03 643.39 213.56 637.74 211.41 634.58 211.65 625.7 212.79 617.72 214.1 611.4 215.01 605.66 220.29 597.11 225.64 596.69 233.97 594.5 237.1 592.23 240 588.87 251.65 585.03 256.95 584.04 263.72 584.15 266.36 603.09 259.33 601.11 267.34 604.28 268.96 601.02 272.57 604.69 275.07 609.26 273.45 612.35 275.75 607.8 281.03 607.56 282.01 608.28 284.12 608.06 287.42 607.29 289.35 601.54 292.8 590.59 298.78 585.56 302.19 584.64 303.3 584.79 310.36 584.09 311.47 582.2 313.02 576.22 310.36 580.91 320.38 585.28 326.61 592.27 335.61 583.02 353.48 565.34 384.44 560.16 393.69 557.65 398.04 540.46 399.26 537.51 400 526.97 395.8 526.35 395.8 518.05 392.49 507.04 388.93 506.69 388.84 497.88 385.98 488.15 385.77 476.58 384.24 471.56 385.46 466.89 386.58 467.92 385.19 445.73 387.75 429.13 385.38 413.72 380.64 382.3 414.41 382.28 414.41 382.26 414.43 377.34 415.45 366.9 415.05 363.93 414.94 350.31 416.17 350.31 416.18 350.3 416.18 350.3 445.21 336.67 452.91 326.96 449.03 322.64 448.24 322.43 448.17 311.76 438.1 295.76 438.69 282.72 445.21 275.61 449.95 263.75 447.58 261.38 441.66 248.34 430.4 234.27 431.03 234.27 431.01 233.01 431.08 221.66 431.59 209.22 441.66 205.49 443.57 205.47 443.56 205.48 443.57 187.28 452.91 178.98 465.35 168.91 464.76 160.02 464.76 158.09 466.24 158.17 466.29 156.38 467.58 152.07 470.86 146.58 475.12 136.9 482.54 136.16 484.43 135.59 485.86 133.99 489.95 131.56 496.16 130.4 499.85 129.23 503.49 128.07 507.16 125.82 509.31 118.65 516.99 116.51 518.01 114.96 519.86 109.13 521.38 97.18 524.6 80.58 530.52 72.29 540 61.62 534.08 48.87 534.61 46.8 534.08 39.68 524 38.68 522.25 36.72 518.67 25.46 512.75 13.6 509.19 1.15 496.75 1 496.61 4.05 493.28 14.3 471.85 14.77 451.34 10.57 432.24 16.17 426.18 39.48 420.12 45.08 413.6 41.35 389.83 46.48 375.85 51.1 370.61 60.46 362.81 80.05 354.42 84.71 338.11 96.36 325.99 110.82 321.33 119.53 321.28 129 321.33 142.99 317.14 148.12 299.9 150.45 282.19 153.25 271.94 163.97 275.67 177.03 271.94 187.75 260.76 198.01 251.9 205.47 237.46 190.55 235.59 176.09 235.59 164.9 230.47 158.38 223.01 155.58 206.7 168.63 191.79 172.36 177.34 173.3 167.39 179.21 166.94 183.93 163.91 187.2 155.97 191.52 151.88 198.85 141.71 206.83 141.52 216.19 140.23 231.5 141.56 236.27 141.06 240.37 139.85 248.54 143.52 255.24 147.99 257.45 153.21 256.22 166.56 261.25 161.56 277.4 161.6 278.85 157.82 279.12 152.56 288.12 144.92 291.56 139.89 295.36 128.59 296.15 120.57 299.11 116.22 305.51 113.5 314.6 113.42 316.94 115.77 325.59 117.24 331.63 116.41 334.02 118.41 335.87 124.5 342.09 129.61 348.62 128.55 348.93 134.82 350.96 136.07 360.27 137.21 363.85 144.62 376.69 143.41 386.31 152.22 392.05 150.94 395.09 154.26 396.42 157.78 399.86 154.42 399.06 151.65 395.67 146.02 401.01 148.67 403.34 150.6 404.49 155.13 401.31 160.39 401.36 164.17 403.92 166.75 406.74 164.55 413.18 163.95 420.91 159.3 429.67 159.25 437.88 159.25 447.59 163.41 455.43 170.13 463.64 172.69 473.35 171.73 480.06 170.45 488.28 171.73 502.09 173.01 504.33 175.89 510.67 180.37 515.9 182.29 520.75 181.65 522.99 180.37 530.83 175.57 540.54 176.21 547.63 178.45 554.35 179.09 567.41 177.81 567.78 177.81 567.41 173.65 573.01 170.45 576.74 166.61 580.48 161.49 583.09 157.01 587.57 152.21 593.17 147.73 596.9 140.05 599.14 136.22 612.2 126.3 630.12 82.81 645.05 59.79 Z"/>
</g>
</svg>