<?xml version="1.0"?>
<svg xmlns="http://www.w3.org/2000/svg" version="1.2" baseProfile="tiny" fill="#f9c113" width="800" height="617" viewBox="0 0 800 617" stroke-linecap="round" stroke-linejoin="round">
<g fill="#c0392b" id="id_12">
<path d="M 47.91 377.42 47.95 377.38 48.25 369.18 61.67 319.56 50.63 316.43 33.49 308.38 26.78 301.82 25.29 289.75 36.32 280.06 43.33 269.48 39.75 230.58 39.75 192.88 41.69 178.12 52.87 162.77 54.81 127.01 68.23 100.18 70.47 70.82 73.62 38.15 75.72 37.19 76.94 35.38 77.3 30.31 81.85 28.82 81.73 23.41 84.7 20.66 88.14 18.81 88.61 17.31 86.57 14.99 86.86 13.33 88.58 10.63 88.06 7.58 89.22 3.72 89.8 1 91.88 2.51 95.41 5.47 100.61 8.95 101.7 11.31 104.56 11.11 111.69 15.02 113.25 16.79 116.81 17.4 121.95 18.61 123.49 19.7 125.06 19.84 126.57 23.36 126.11 26.68 129.67 29.54 131.33 32.18 132.13 35.63 132.21 38.05 133.1 39.08 133.55 40.97 133.97 43.31 137.61 45.39 143.78 45.38 145.07 45.08 147.39 42.7 148.42 41.99 149.14 40.16 151.96 38.4 154.97 36.77 157.4 37.25 158.26 35.67 163.79 34.02 168.41 32.98 169.44 33.45 172.06 33.3 176.38 31.4 177.78 31 181.33 31.76 182.57 31.43 184.77 32.06 188.73 33.3 190.35 32.61 192.22 32.3 192.79 32.8 193.04 34.81 195.91 37.25 201.32 38.26 203.32 38.26 204.24 38.04 205.16 36.94 207.25 35.19 208.36 33.63 209.17 29.28 215.07 29.35 220.87 26.4 223.02 25.87 224.98 24.48 230.15 23.56 230.39 20.74 232.03 16.75 237.86 17.31 242.12 18.26 244.8 18.11 246.67 14.82 247.94 13.97 249.68 12.52 252.95 9.31 254.49 7.9 260.69 13.31 264.6 16.72 267.31 18.43 270.31 20.75 271.39 21.28 273.22 22.01 273.99 24.19 275.75 25.49 278.23 26.53 282.21 26.51 283.2 26.66 284.82 28.08 285.71 29.09 291.27 30.37 292.74 30.6 293.74 30.21 298.78 26.8 299.01 25.1 298.8 23.57 299.11 22.7 300.02 22.16 301.52 21.23 303.74 19.29 304.59 19.1 307.03 19.13 308.38 19.22 310.62 20.23 311.89 21.81 312.81 23.5 313.79 25.89 314.63 26.93 317.91 28.72 320.29 35.28 324.32 38.55 325.07 41.24 327.15 43.03 324.92 44.96 323.72 47.05 322.68 47.94 322.53 54.65 321.04 55.1 321.04 63 309.71 66.42 304.49 69.55 304.64 72.38 302.85 78.64 297.63 80.43 290.32 78.35 280.33 79.09 276.31 84.16 277.2 93.25 275.86 96.23 276.31 102.34 280.33 104.87 281.53 106.81 289.58 107.26 291.81 107.56 298.82 114.26 303.89 117.24 314.78 124.99 320.29 131.7 327.45 135.28 333.12 136.77 342.51 136.17 348.62 141.39 352.2 140.19 361.15 138.7 364.13 137.07 371.14 137.51 373.55 136.55 375.38 136.05 376.8 134.85 378.27 135.69 382.58 138.8 384.25 139.91 385.05 141.44 388.35 141.82 392.48 143.54 394.7 144.02 398.04 143.42 400.39 142.8 403.63 141.19 409.12 142.89 408.15 147.46 410.31 150.62 411.45 154.11 412.74 155.88 415.85 156.83 417.23 157.64 418.9 160.81 419.62 162.83 421.61 165.97 421.73 169.11 422.36 171.16 424.03 172.29 423.95 175.4 426.54 179.31 427.5 181.44 430.12 182.25 435.17 183.97 439.42 185.23 441.08 186.23 444.32 187.25 447.35 188.56 451.04 189.54 451.09 191.07 449.79 194.38 450.12 197.76 449.6 200.53 450.08 206.64 451.89 207.52 450.8 214.93 451.91 217.96 450.99 220.38 451.21 224.84 450.55 227.76 453.05 232.13 459.43 229.37 463.46 227.15 466.04 225.55 468.61 225.14 470.19 224.94 472.24 224.12 473.52 223.95 474.94 224.23 475.85 224.23 478.27 223.89 480.96 222.85 484.61 221.88 488.18 221.27 489.39 220.9 492.33 221.03 495.36 220.13 497.3 218.93 497.73 217.66 498.7 217.04 499.93 216.89 502.09 216.91 503.74 216.53 504.55 216.78 505.69 217.33 507.49 219.62 508.42 221.14 510.59 222.29 512.44 222.62 513.82 222.73 518.02 222.63 519.64 222.16 521.51 222.16 525.36 220.63 526.88 217.75 528.35 215.99 530.09 214.85 530.76 214.93 532.13 215.64 533.28 216.87 535.78 218.8 538.54 220.16 543.73 223.13 546.67 225.12 549.99 225.6 551.08 225.19 552.17 224.21 556.33 221.84 559.33 219.88 563.11 218.45 566.98 217.97 574.32 217.58 579.23 216.25 582.92 214.94 586.63 212.49 589.09 212.36 590.71 212.85 592.34 213.16 594.93 215.11 597.08 217.8 599.06 219.34 600.25 220.05 605.44 221.3 607.47 221.15 608.52 221.24 611.17 222.82 612.18 224.1 614.96 225.17 617.24 225.65 619.09 226.46 621.32 226.65 624.07 226.43 630.07 224.97 633.46 224.51 634.96 224.14 639.63 223.29 645.26 222.05 649.43 221.74 656.08 222.66 658.2 222.17 660.28 222.6 663.26 223.95 664.23 225.72 664.29 228.7 665.02 230.07 665.83 230.76 668.08 230.88 670.98 230.8 674.79 230.05 678.53 229.81 681.23 230.16 684.15 231.49 685.97 231.97 687.69 232.05 689.46 231.3 691.54 230.25 693.3 230.04 695.27 230.51 697.03 231.03 697.08 232.28 696.89 233.67 696.18 234.88 697.15 238.95 697 239.94 697.35 242.82 697.14 245.33 696.37 247.11 694.96 249.57 693.76 250.29 688.73 255.49 687.21 258.42 685.2 260.49 682.73 261.78 679.68 262.49 677.1 264.58 673.77 265.29 671.93 268.24 670.81 269.04 672.08 276.06 672.81 276.9 673.88 277.79 671.46 282.03 669.91 284.25 668.46 285.89 666.95 287.94 665.18 288.56 663.76 289.96 661.75 292.5 659.91 293.4 656.73 294.12 653.74 293.92 653 294.63 652.29 296.63 651.76 298.88 650.69 301.18 650.2 304.26 649.34 305.53 646.44 306.75 644.76 307.7 644.12 308.96 644.47 313.58 646.07 315.44 644 318.74 641.47 323.46 640.24 324.46 639.61 326.54 637.33 327.33 637.96 329.57 639.3 331 639.24 333.19 638.04 334.2 635.14 336 635.01 339.34 636.34 342.22 635.78 344.48 634.95 345.41 633.13 346.38 632.17 347.22 632.13 348.45 631.48 350.02 630.55 351.11 632.93 354.07 634.33 355.37 635.06 356.52 636.75 358.03 638.23 359.02 640.85 361.59 641.73 362.64 643.04 365.15 644.55 367.8 645.09 369.64 645.12 370.72 644.21 371.62 643.86 374.5 642.78 375.88 642.42 377.42 643.85 378.22 645.61 379.07 646.37 380.89 648.07 382.45 649.3 382.72 651.16 382.75 653.09 383.13 653.58 385.26 654.76 386.69 656.91 387.58 658.04 388.78 658.26 390.85 660 393.49 660.4 395.86 660.96 397.68 662.4 399.3 663.08 401.23 663.17 402.18 662.75 403.48 663.06 404.9 663.86 406.35 663.16 408.11 663.56 409.42 664.59 409.48 665.85 409.71 667.66 409.76 667 412.38 669.29 413.18 669.44 414.05 668.76 417.05 669.33 419.77 673.49 419.44 676.55 418.7 677.67 419.07 680.61 419.43 683.03 418.29 686.13 418.05 687.02 416.81 687.67 415.59 689.41 414.22 690.75 412.11 692.31 411.56 693.82 408.64 696.09 408.63 698.13 409.24 699.67 409.06 701.04 408.21 703.38 406.89 706.7 407.09 708.68 406.57 710.2 407.84 714.49 409.72 717.47 410.84 723.79 415.64 725.72 415.62 729.1 416.34 731.86 416.03 733.01 417.29 732.74 419.01 734.79 420.75 737.48 421.79 738.1 425.25 739.76 427.21 741.54 427.15 745.51 429.24 748.74 427.72 750.62 427.15 754.32 425.12 756.83 425.52 759.31 425.05 762.24 423.38 765.37 424.81 768.7 425.3 773.89 424.02 779.08 423.96 780.65 425.06 781.77 428.25 781.63 429.9 783.68 430.93 784.56 433.1 790.47 437.04 792.92 437.9 792.42 439.97 793.89 442.01 795.91 443.52 797.35 448.36 799 451.53 797.36 459.8 786.85 474.18 770.9 486.4 746.59 485.8 743.01 487.59 731.16 495.56 727.36 504.28 726.69 532.23 721.62 543.7 714.98 549.59 712.15 550.41 701.71 551.3 687.54 542.14 684.41 542.96 666 543.63 661.75 541.17 655.71 540.42 650.34 538.93 645.79 539.45 634.84 543.33 628.05 544.82 624.77 547.58 621.19 557.19 613.74 565.98 609.41 565.83 596.22 558.08 593.31 554.21 572.14 555.25 566.17 557.67 561.38 561.31 558.4 559.22 554.54 559.76 549.23 563.06 548.04 569.76 554.08 576.8 554.56 579.97 545.91 585 544.98 589.32 535.59 600.72 528.69 606.2 517.28 607.13 516.76 605.38 511.8 606.57 505.95 616 500.69 614.25 494.28 613.95 492.2 615.44 476.24 615.29 465.36 611.86 450.74 598.9 443.89 599.05 431.06 601.43 427.93 601.13 419.28 596.81 397.96 596.66 384.09 599.5 371.57 602.77 368.88 604.86 358.74 603.67 356.06 601.73 343.83 604.12 341.3 605.31 334.14 604.26 331.31 595.32 325.05 595.17 322.06 592.94 315.95 597.86 314.76 600.09 310.58 601.13 304.47 598 298.51 600.99 280.76 602.03 273.9 600.99 270.03 602.33 257.2 594.88 255.56 591.89 245.13 582.65 236.03 580.57 227.68 575.8 222.61 574.9 214.71 578.78 214.71 586.83 208.15 594.58 208.3 598.15 200.54 605.01 186.97 608.59 182.35 609.18 181.01 605.75 171.17 605.16 167.66 603.67 155.84 603.12 145.22 597.71 136.72 603.22 133 603.52 124.35 612.76 122.41 613.65 118.38 611.86 114.36 611.42 121.22 604.12 122.26 597.26 122.11 587.72 131.8 581.61 136.43 578.93 136.87 564.62 138.51 559.13 142.69 554.93 138.49 553.29 133.74 551.66 127.7 546.89 124.44 545.49 124.4 545.45 117.92 551.93 117.02 559.24 117.47 565.5 114.94 567.58 103.01 567.73 97.34 570.56 93.47 571.91 87.2 567.88 82.58 566.99 76.47 558.49 77.36 551.19 78.7 546.57 77.96 537.48 71.84 525.41 65.13 521.83 64.54 507.97 61.41 505.29 60.21 499.48 62.3 496.49 61.11 492.47 68.12 486.51 60.36 479.21 61.26 475.63 55.74 471.31 50.67 472.05 43.37 470.86 42.47 459.24 40.38 456.7 32.03 455.21 23.02 454.84 17.46 446.98 1 446.66 1.63 433.03 8.66 422.18 9.41 411.79 21.32 406.93 25.06 400.69 24.07 398.64 21.48 397.39 21.67 391.17 30.04 390.53 42.38 391.3 47.28 385.11 47.91 377.42 Z"/>
</g>
</svg>