<?xml version="1.0"?>
<svg xmlns="http://www.w3.org/2000/svg" version="1.2" baseProfile="tiny" fill="#f9c113" width="800" height="653" viewBox="0 0 800 653" stroke-linecap="round" stroke-linejoin="round">
<g fill="#c0392b" id="id_169">
<path d="M 721.69 507.93 711.9 508.64 702.92 505.79 691.5 504.36 679.26 501.51 668.65 500.08 661.31 497.22 656.42 495.08 646.63 492.23 646.63 482.95 648.26 477.95 646.63 469.39 643.36 461.54 644.99 449.4 648.26 440.84 652.34 429.42 653.15 421.57 651.52 409.44 649.07 400.88 648.26 399.46 641.73 397.32 636.84 398.03 631.94 398.03 627.86 395.18 613.01 381.74 611.08 403.47 598.53 429.22 593.7 434.49 587.19 454.12 568.12 481.77 558.23 493.81 555.58 511.54 543.75 526.11 533.38 543.63 524.45 563.91 516.49 579.12 516.25 583.55 474.74 537.93 463.64 549.13 456.89 551.45 447.23 552.08 435.65 552.72 436.86 611.22 403.08 624.74 375.33 637.42 361.57 642.7 354.33 652 349.27 646.51 333.34 643.55 330.93 633.41 329.48 620.31 332.38 611.01 342.03 596.65 342.03 595.38 348.3 582.28 358.92 569.19 379.19 563.7 387.88 554.4 383.05 546.38 377.74 529.06 378.71 517.66 384.01 509.22 389.32 502.88 398.97 485.99 404.77 465.73 391.25 442.09 379.67 444.62 357.47 452.22 347.82 453.91 336.24 457.29 316.93 454.75 308.25 445.47 303.42 453.07 294.73 453.07 285.08 445.47 284.12 432.8 292.8 419.3 285.08 408.33 260.95 403.26 259.99 407.48 250.34 422.67 246.47 431.96 251.3 441.25 253.23 457.29 238.75 448.84 233.93 433.65 226.21 449.69 216.55 450.53 211.73 441.25 199.18 427.74 187.6 426.05 177.95 439.56 176.98 454.75 169.26 459.82 161.54 452.22 152.85 422.67 144.16 426.05 126.79 431.96 114.24 437.87 102.66 411.7 88.18 393.98 71.78 386.38 54.4 389.76 43.79 399.04 18.69 397.35 17.72 387.23 10 374.57 1 361.14 1 326.57 13.38 312.95 14.99 310.04 51.42 307.84 94.63 297.76 119.12 274.71 132.08 225.73 144.11 210.15 144.05 210.14 156.94 193.37 162.6 186.8 170.97 176.75 195.46 176.75 221.39 185.39 244.43 150.82 264.6 98.96 276.12 62.94 293.09 30.02 322.22 35.57 358.23 54.3 371.34 52.35 389.92 49.98 388.48 6.76 411.52 1 422.6 5.91 444.65 18.29 480.66 29.81 508.03 45.66 505.15 81.67 459.06 145.06 470.58 155.14 499.39 137.85 509.47 165.22 533.96 191.15 538.28 219.97 561.33 251.66 608.86 304.96 643.43 325.13 662.16 287.67 679.44 238.69 716.9 209.88 754.35 191.15 777.39 196.92 788.92 211.32 780.27 227.17 781.71 247.34 799 335.21 747.14 374.11 748.59 417.32 724.1 437.49 712.57 446.14 738.5 461.98 755.79 482.15 744.26 510.96 721.69 507.93 Z"/>
</g>
</svg>