<?xml version="1.0"?>
<svg xmlns="http://www.w3.org/2000/svg" version="1.2" baseProfile="tiny" fill="#f9c113" width="800" height="862" viewBox="0 0 800 862" stroke-linecap="round" stroke-linejoin="round">
<g fill="#c0392b" id="id_126">
<path d="M 248.31 1 271.39 6.78 339.21 16.58 494.39 14.62 530.02 29.31 444.96 118.45 538.07 132.17 595.54 160.58 553.01 182.13 549.56 196.83 554.16 224.26 584.05 227.2 604.74 242.88 687.5 216.43 684.05 256.6 704.74 267.38 755.32 261.5 769.11 279.14 796.7 287.96 786.36 299.72 721.99 328.13 707.04 375.18 682.9 387.92 684.05 407.52 672.56 414.38 684.05 429.08 748.42 424.18 772.56 439.86 764.52 467.31 765.67 482.99 794.4 482.99 790.95 497.7 799 517.3 787.51 525.15 785.21 545.73 776.01 561.42 778.31 585.93 758.77 603.58 757.62 627.11 726.58 680.06 682.9 729.09 659.91 725.16 659.91 763.41 686.35 762.43 688.65 771.26 676.01 801.66 634.63 803.62 624.28 820.3 539.22 747.72 559.91 743.8 561.06 689.86 540.37 692.8 518.53 692.8 495.54 708.49 520.83 762.43 511.63 819.31 510.48 861 424.27 845.31 378.29 833.54 390.94 811.96 419.67 788.42 409.33 760.96 433.47 765.86 438.07 745.27 418.52 726.64 403.58 726.64 395.53 669.76 385.19 668.78 363.35 686.43 279.44 690.35 266.79 650.15 254.15 647.21 182.88 620.73 163.34 576.61 157.59 543.28 117.36 541.32 97.82 535.44 93.22 501.13 70.23 480.54 50.69 491.33 49.54 491.33 31.15 498.19 1 462.54 9.05 457.62 67.01 421.02 39.56 363.08 85.31 314.29 94.47 219.75 88.36 152.66 182.93 76.42 248.31 1 Z"/>
</g>
</svg>