<?xml version="1.0"?>
<svg xmlns="http://www.w3.org/2000/svg" version="1.2" baseProfile="tiny" fill="#f9c113" width="800" height="516" viewBox="0 0 800 516" stroke-linecap="round" stroke-linejoin="round">
<g fill="#c0392b" id="id_106">
<path d="M 324.2 413.89 318.59 419.27 304.85 428.63 294.89 439.63 283.2 446.45 256.42 456.53 249.92 457.09 225.52 468.85 229.45 473.67 225.43 476.52 228.89 480.3 223.7 483.35 229.59 493.15 237.91 490.1 241.65 495.24 209.96 513.35 203.18 509.46 197.2 514.44 193.78 512.27 186.73 515 185.37 512.71 181.82 511.02 177.56 513.88 173.12 509.38 170.09 513.23 167.23 509.78 162.42 512.47 159.19 509.14 155.88 511.51 154.29 507.49 149.52 509.86 145.87 505.92 142.79 507.81 134.56 501.75 171.07 480.34 173.22 486.08 187.89 475.6 191.54 478.41 195.42 479.13 208.51 473.87 216.59 469.58 207.76 456.81 202.81 459.82 198.51 454.8 186.73 436.57 172.05 417.39 163.54 422.4 167.56 426.3 162.05 432.52 159.94 441.59 153.12 446.01 153.3 438.82 144.28 444.32 139.66 440.27 126.43 447.01 130.82 451.75 108.34 464.8 105.91 459.66 101.28 463.03 98.61 458.98 93.89 461.47 88.28 453.48 85.06 455.72 81.79 452.31 74.59 457.29 65.01 442.03 63.46 438.02 59.54 430.87 48.13 436.21 23.67 451.26 13.8 438.55 7.62 429.75 1 415.59 9.44 419.35 12.11 417.16 13.1 415.59 12.89 405.62 14.19 404.05 21.3 399.23 36.75 390.78 44.88 385.9 45.97 383.19 46.28 378.52 45.26 375.54 45.6 374.15 52.02 366.69 47.67 363.45 41.21 365.74 36.03 362.2 40.62 357.11 36.15 354.82 38.94 343.5 12.19 353.43 12.04 349.71 13.43 340.14 18.86 332.66 23.61 316.2 26.81 312.1 29.91 307.68 30.5 295.91 42.58 288.34 50.68 280.89 59.61 279.61 70.88 277.75 83.42 276.15 87.89 275.8 95.86 278.84 98.9 279.5 114.74 276.35 139.02 277.18 140.69 250.4 166.64 252.91 166.64 239.52 190.92 215.25 200.13 201.86 200.13 165.87 223.57 152.48 227.76 139.09 231.11 124.03 231.94 108.96 240.32 92.22 253.71 84.69 270.45 78.83 287.2 67.11 301.43 61.26 315.66 50.38 318.17 31.96 316.83 19.87 318.19 19.61 319.69 18.37 322.77 21.69 326.18 18.41 330.44 22.45 334.93 17.89 338.15 22.09 343.71 14.37 361.2 27.09 382.28 1 385.22 3.92 384.75 12.13 392.14 17.81 395.18 12.17 400.18 16.97 398.54 19.65 399.48 22.85 405.6 25.53 422.76 17.25 432.67 26.25 445.8 32.7 457.16 35.14 469.31 40.7 498.53 50.39 504.6 50.95 511.71 53.88 519.52 58.16 531.53 55.72 536.06 61.28 525.03 66.81 527.84 73.93 527.18 86.99 526.85 92.27 527.16 95.34 531.58 97.5 536.79 92.43 538.61 86.59 539.76 78.7 549.81 76.28 552.1 72.85 561.51 81.56 565.81 84.81 570.44 80.32 576.57 89.23 587.6 95.94 587.29 97.4 584.51 100.4 587.01 103.09 578.76 110.64 595.26 123.11 602.04 115.5 611.62 121.81 618.56 124.71 634.29 145.97 638.41 144.36 644.02 146.13 647.94 144.52 650.93 136.83 659.35 136.19 663.65 139.4 672.25 143.24 651.31 171.45 667.58 187.15 671.5 183.47 675.99 185.71 679.17 183.79 681.41 174.01 693 165.84 697.12 171.45 700.3 169.2 728.72 207.99 735.26 211.2 743.11 202.22 749.84 197.89 754.7 182.35 767.79 198.22 763.31 202.54 774.13 213.5 766.12 217.68 750.03 219.78 746.01 239.18 744.49 241.06 732.54 256.15 715.06 273.63 702.46 288.31 704.56 307.2 717.16 324.68 732.54 325.38 743.74 326.08 757.73 331.67 770.32 342.16 771.57 342.7 782.14 347.33 782.22 347.26 785.01 348.46 799 363.14 796.9 372.23 789.91 381.33 788.51 392.51 799 412.8 792.7 417.69 788.51 426.78 778.01 422.59 770.32 426.78 753.53 435.17 764.02 443.57 754.93 455.45 745.14 467.34 746.53 481.33 756.33 503.71 750.08 502.05 745.5 501.16 743.11 504.74 738.72 507.43 725.86 508.67 720.44 504.05 720.21 500 721.61 496.3 714.65 494.54 714.46 488.07 708.94 486.46 704.32 482.21 702.07 478.47 709.83 475.06 699.41 458.68 689.64 463.74 689.87 468.39 681.55 472.97 681.18 479.32 668.51 485.54 656.22 469.52 652.9 471.12 651.64 474.42 649.63 491.16 636.91 477.51 613.91 492.29 604.99 489.23 597.27 493.93 587.5 480.4 579.32 466.35 573.01 471.93 561.65 476.14 553.75 467.83 533.09 440.17 520.75 448.16 510.61 435.31 507.71 439.81 507.01 450.16 488.08 431.01 492.52 427.96 477.38 407.49 461.62 417.13 455.31 407.73 448.11 412.19 444.05 406.69 441.85 408.01 434.89 399.63 426.99 406.09 422.41 401.83 398.61 417.25 377.25 389.47 344.86 408.33 334.43 414.76 328.59 408.19 324.2 413.89 Z"/>
</g>
</svg>