<?xml version="1.0"?>
<svg xmlns="http://www.w3.org/2000/svg" version="1.2" baseProfile="tiny" fill="#f9c113" width="800" height="854" viewBox="0 0 800 854" stroke-linecap="round" stroke-linejoin="round">
<g fill="#c0392b" id="id_142">
<path d="M 35.74 613.46 34.11 607.13 36.56 600.1 43.08 590.96 52.05 579.01 46.34 556.51 36.56 523.47 37.17 502.21 37.58 500.8 37.58 498.34 36.56 495.88 36.76 492.9 36.97 491.84 39.21 485.69 35.54 481.13 35.95 477.79 38.8 475.86 40.84 473.75 38.39 474.1 35.13 473.4 45.94 466.72 45.94 465.67 49.61 460.22 50.42 455.83 47.36 447.93 45.94 443.89 42.27 434.41 38.39 430.89 37.78 428.43 35.95 426.33 34.11 424.4 33.09 421.94 32.28 421.94 29.63 421.76 25.34 421.76 24.32 415.79 23.1 421.06 19.23 428.08 18 432.3 15.35 430.72 15.35 426.68 14.74 420 14.8 419.98 6.68 407.81 1 394.81 8.3 383.45 14.8 393.19 35.9 393.19 54.57 389.13 62.68 374.51 62.68 374.46 62.72 374.39 61.1 346.08 70.8 343.66 91.09 337.97 75.67 316.86 80.54 311.18 92.71 302.25 97.58 286.82 60.25 286.82 49.7 278.7 48.07 264.08 57.81 251.9 70.8 249.47 84.6 259.21 97.58 259.21 98.68 258.25 113.81 257.59 142.22 250.28 160.08 232.42 168.19 241.35 187.67 258.4 202.28 246.22 229.06 234.04 249.35 242.97 268.83 253.53 285.88 263.27 306.17 266.52 319.15 259.21 319.15 237.29 332.14 230.79 340.25 225.92 341.07 206.43 352.43 190.19 341.07 178.83 321.59 169.08 329.7 150.41 343.5 154.46 357.3 155.28 358.11 142.29 365.41 125.23 380.02 126.86 394.63 124.42 415.73 104.93 424.66 111.43 440.89 117.93 444.14 96.82 458.75 100.06 480.66 100.06 487.97 94.38 503.39 88.69 524.49 90.32 524.49 69.21 531.8 54.59 557.77 41.6 569.13 49.72 581.3 56.22 599.16 62.71 613.77 50.53 622.7 31.86 634.06 38.35 647.04 40.79 658.41 28.61 673.83 13.99 690.06 1 699.64 18.71 694.87 26.17 709.62 43.69 719.6 41.08 723.94 54.5 739.99 59.35 739.99 68.67 730.02 69.79 722.64 77.62 722.64 94.03 711.36 105.96 710.93 118.27 696.17 122 696.17 143.64 700.08 145.13 696.61 157.44 701.38 166.77 713.96 166.77 722.21 171.25 729.21 194.23 721.34 206.7 722.21 214.91 720.04 220.13 705.29 210.05 661.9 206.32 660.16 201.84 653.22 202.22 652.79 205.95 650.18 205.95 646.28 211.55 639.77 211.92 639.77 216.4 634.13 216.03 621.12 207.82 610.7 207.44 597.69 222.37 559.07 219.38 549.96 224.24 527.4 223.12 521.33 247.01 525.23 252.23 493.56 277.25 503.54 277.99 503.97 294.79 515.25 297.78 515.69 310.1 520.89 309.36 522.19 317.2 533.04 316.83 528.27 325.79 536.08 328.03 540.85 350.07 602.46 332.51 599.42 320.93 611.14 287.7 654.96 278.74 707.02 288.82 729.58 276.5 749.54 285.83 748.67 291.81 788.59 280.61 791.62 296.29 799 303.38 798.57 320.93 789.89 322.05 783.38 330.64 779.91 357.54 791.19 381.82 785.12 397.89 784.68 438.62 795.53 455.06 776.87 454.69 772.53 449.46 772.1 441.23 759.52 439.74 756.48 444.97 759.52 455.81 772.53 464.41 764.72 466.28 764.29 475.99 755.61 476.37 756.48 483.1 750.41 487.21 749.11 501.04 760.39 499.92 766.03 495.81 769.06 496.56 770.41 520.67 769.6 532.85 770.85 535.48 777.91 549.96 782.01 558.67 787.64 573.42 781.29 574.45 777.85 574.93 776.9 575.07 763.92 575.89 757.43 584.82 751.7 586.33 742.06 588.9 741.05 588.97 733.89 589.69 720.09 585.63 708.73 589.69 705.32 593.53 702.43 596.89 692.69 608.98 682.96 604.98 694.33 591.25 689.31 580.8 678.21 582.71 675.45 583.19 668.64 596.2 666.47 600.27 659.22 602.68 648 606.69 640.66 619.74 640.66 634.19 640.55 634.26 640.55 634.35 634.06 638.41 632.44 623.79 627.37 614.29 625.91 611.64 617.21 611.64 613.23 612.62 604.84 614.86 607.28 633.54 608.09 648.97 604.03 648.97 591.86 641.66 588.61 627.04 583.74 631.1 584.55 644.09 582.93 656.27 581.3 672.51 581.3 680.63 576.43 688.75 562.8 694.37 554.73 705.71 553.85 711.14 553.71 712.3 547.22 713.92 530.17 707.43 518.81 696.06 523.68 687.13 516.38 685.5 507.45 687.94 507.45 698.5 518.81 709.05 505.82 709.86 496.9 708.24 486.35 702.56 477.59 695.39 475.86 708.07 475.86 714.73 464.43 716.36 461.04 720.18 458.14 723.54 458.09 723.49 457.94 723.67 449.82 714.74 455.5 694.44 436.02 694.44 427.1 691.19 425.47 683.88 415.73 670.89 409.24 662.77 403.56 653.84 397.07 644.09 393.17 643.94 387.23 643.94 390.47 656.93 392.55 659.91 400.07 669.95 383.23 671.55 376.2 682.25 375.18 691.98 371.8 707.35 371.7 707.22 371.69 707.29 362.77 695.11 366.83 678.07 366.83 670.06 351.72 666.06 344.35 675.79 345.37 686.24 328.16 689.63 313.26 688.76 310.07 688.62 292.22 687 288.98 693.49 287.77 699.53 287.91 699.97 287.6 701.72 284.22 710.43 285.25 721.8 290.98 730.92 291.6 739.94 272.86 738.3 272.82 738.14 272.76 738.13 267.89 719.47 270.33 708.91 266.27 704.85 264.09 703.39 256.67 708.07 256.67 721.19 252.68 725.9 246.94 729.18 236.6 734.92 236.27 734.88 236.26 734.89 222.46 733.28 222.62 732.1 224.08 720.43 214.47 717.09 206.38 725.18 195.01 728.56 187.98 725.62 186.79 725.15 175.44 717.84 168.13 721.09 169.02 727.76 169.82 733.28 183.85 752.75 195.01 766.48 196.96 775.07 196.8 775.14 196.87 775.43 186.81 775.99 167.3 775.99 149.46 777.11 142.21 780.46 134.41 780.46 130.5 786.6 132.73 793.85 135.52 799.43 135.52 799.51 135.56 799.58 136.12 808.51 136.12 817.44 134.45 822.47 129.43 828.05 124.96 833.63 118.83 842 112.13 845.35 106 845.91 100.42 839.77 100.41 839.62 100.39 839.6 99.83 831.79 107.64 822.86 122.14 819.52 124.37 812.26 117.68 812.26 101.51 818.4 88.68 832.91 85.34 839.61 84.78 850.77 78.09 851.88 67.5 853 66.94 843.41 71.01 839.89 73.46 831.44 61.23 838.48 62.86 831.44 49.81 815.95 56.33 796.23 51.44 789.19 48.99 792.01 38.39 792.71 31.87 784.97 33.5 781.45 37.58 773 40.02 764.55 42.47 762.44 71.83 771.59 80.8 765.26 58.78 757.52 61.23 750.48 65.31 742.03 62.86 734.99 64.49 730.07 63.67 730.07 63.67 723.73 62.04 720.92 59.6 715.99 56.33 708.96 58.78 703.33 62.04 702.62 66.12 700.51 67.75 692.07 62.86 692.77 60.41 692.77 61.23 660.41 56.33 663.93 44.92 668.85 44.1 670.26 40.02 671.67 30.24 678 26.16 678 15.56 675.89 14.57 659.27 15.44 648.41 21.51 646.73 23.9 642.8 42.99 644.11 46.89 639.43 39 619.79 35.74 613.46 Z"/>
</g>
</svg>