<?xml version="1.0"?>
<svg xmlns="http://www.w3.org/2000/svg" version="1.2" baseProfile="tiny" fill="#f9c113" width="800" height="568" viewBox="0 0 800 568" stroke-linecap="round" stroke-linejoin="round">
<g fill="#c0392b" id="id_174">
<path d="M 397.71 32.29 401.29 42.98 404 47.35 406.71 53.31 407.61 53.7 411.67 65.22 416.63 73.16 427.01 80.71 431.98 89.84 440.1 98.98 448.22 102.55 468.08 112.49 475.3 116.86 481.62 118.84 494.71 124.01 510.5 127.19 518.63 127.98 533.52 125.6 555.49 123.11 574.71 129.69 572.57 156.02 554.42 164.48 543.74 181.42 549.08 193.64 565.1 202.11 553.35 228.46 539.47 234.11 534.13 236.93 510.64 248.23 526.66 256.7 538.41 254.82 541.61 268 545.88 268.94 551.22 269.88 561.9 276.47 562.96 263.29 574.71 283.06 570.44 300.95 586.45 293.42 616.35 257.64 621.69 237.87 636.64 218.11 647.32 216.23 657.99 215.76 644.11 242.11 653.72 267.52 663.33 253.4 682.02 254.82 694.83 263.29 686.29 268.94 682.02 266.11 677.21 271.76 695.9 291.54 697.5 302.84 709.78 304.25 722.59 321.2 739.14 316.97 739.68 331.1 726.86 359.83 729.53 372.56 742.88 378.68 750.89 388.11 755.69 396.59 763.7 403.66 772.78 411.21 779.18 419.22 788.26 428.65 792.53 437.61 786.66 455.06 799 465.57 787.38 477.43 786.01 478.83 784.56 480.14 779.86 484.43 777.72 486.46 774.96 488.91 772.2 491.43 761.96 496.58 745.5 504.82 742.85 506.2 741.34 506.91 736.74 509.21 734.8 510.21 733.33 510.93 721.93 516.59 707.9 523.6 699.07 533.75 692.44 540.58 688.93 544.24 680.75 555.36 678.15 557.74 667.94 567 646.5 555.11 632.27 545.43 603.25 538.6 584.47 534.61 566.26 529.49 549.18 520.95 535.53 505.58 523.57 493.06 504.22 491.92 491.7 487.93 481.46 473.7 470.08 456.05 462.68 443.53 435.93 415.06 409.18 389.45 387.56 361.55 367.07 329.67 350.56 301.78 352.27 282.42 346.01 273.88 346.01 263.07 363.08 251.11 358.26 241.94 352.9 231.04 347.72 220.37 337.47 203.86 339.75 179.95 324.95 176.54 321.54 164.01 320.4 142.38 326.09 117.33 322.11 96.27 311.29 92.28 301.05 83.74 276.01 64.96 239.03 45.62 280.92 56.93 289.9 57.67 302.59 58.51 314.42 63.59 326.68 55.55 335.14 40.33 343.6 32.72 356.28 34.41 365.58 29.33 355.86 10.73 360.08 1 373.19 6.92 380.8 18.34 397.71 32.29 Z M 51.82 217.8 56.74 226.04 66.27 233.26 81.72 233.3 88.88 240.52 105.53 245.36 99.64 258.54 89 274.11 89.08 298.1 80.41 311.28 67.73 311.24 55.82 304.01 52.13 266.82 22.33 242.75 11.97 241.54 1 230.1 10.54 216.74 10.06 182.88 36.28 199.09 46.77 206.73 51.82 217.8 Z M 90.67 116.11 86.83 107.52 72.05 87.96 62.51 70.31 74.43 61.25 85.4 61.25 97.32 76.04 107.33 92.73 109.24 101.79 130.22 99.89 160.26 103.22 169.32 109.43 189.34 120.4 202.22 139.95 213.66 152.83 230.35 159.51 253.71 139.95 262.76 140.44 259.69 157.02 257.39 176.2 257.46 196.6 242.05 207.35 226.58 201.31 212.27 186.87 205.07 188.53 189.74 197.61 183.84 210.79 164.9 218.13 151.78 216.7 129.2 216.64 120.2 193.85 118.77 164.28 103.99 141.86 94.93 125.64 90.67 116.11 Z" fill-rule="evenodd"/>
</g>
</svg>