<?xml version="1.0"?>
<svg xmlns="http://www.w3.org/2000/svg" version="1.2" baseProfile="tiny" fill="#f9c113" width="800" height="671" viewBox="0 0 800 671" stroke-linecap="round" stroke-linejoin="round">
<g fill="#c0392b" id="id_134">
<path d="M 1 304.38 10.16 301.82 18.39 299.68 52.06 287.68 69.35 268.65 78 251.36 90.94 245.32 101.33 261.6 118.85 259.9 135.09 252.13 151.48 210.72 168.07 200.16 170.5 198.62 213.73 178.73 237.07 175.27 261.28 168.35 281.16 156.25 288.94 164.03 319.23 162.2 342.64 157.91 364.09 157.01 388.71 149.33 433.31 149.33 448.01 132.04 462.71 111.29 463.57 92.26 445.42 85.32 446.28 72.38 466.17 62 482.59 55.95 490.37 39.52 509.42 31.69 556.94 31.74 572.5 24.82 596.71 6.66 622.68 7.55 633.88 13.58 644.24 2.35 648.51 1 654.29 7.29 656.32 10.79 660.77 15.74 665.83 20.3 675.42 26.36 678.3 29.77 684.17 36.07 692.45 43.48 699.52 46.4 708.19 50.99 705.73 55.32 709.3 58.11 713.36 63.52 721.65 70.99 724.41 72.76 722.5 75.23 717.71 77.41 717.11 86.75 709.48 98.27 687.32 114.91 693.01 121.96 688.07 129.89 691.21 138.85 674.89 152.17 689.41 167.28 697.65 167.02 706.63 183.67 701.69 192.76 707.83 208.77 713.67 211.85 710.97 222.22 717.56 230.55 729.69 229.91 745.11 237.21 762.02 238.62 762.02 248.36 737.92 295.64 747.8 296.41 743.91 303.07 769.96 307.68 799 322.17 796.75 358.7 779.24 366.26 773.7 384.34 752.44 356.39 744.66 366.14 705.28 344.09 690.31 354.47 669.65 354.34 649.89 347.93 583.87 390.11 577.88 384.85 577.73 369.6 551.5 366.39 547.79 369.72 560.07 381.26 543.9 398.45 542.7 414.09 532.22 418.96 520.25 411.01 498.39 420.5 472.04 410.5 462.46 419.48 474.73 431.02 465.11 433.16 463.81 437.63 449.47 426.46 444.91 429.81 432.53 423.11 426.67 423.67 416.9 423.67 384.97 441.53 381.06 437.63 383.02 434.28 383.02 428.7 372.63 429.48 370.54 431.02 341.49 447.95 325.63 448.46 314.55 463.08 297.78 468.99 301.07 453.85 295.39 448.21 287.9 449.23 265.14 489.26 244.19 482.33 244.19 479.5 227.72 481.56 229.21 491.56 221.43 506.19 234.01 503.63 281.61 521.85 288.5 514.92 303.17 527.75 299.88 541.35 297.34 554.18 301.25 565.36 312.65 580.02 312 596.22 304.84 601.25 304.84 615.78 293.76 617.45 288.55 643.72 240.99 644.83 239.68 649.31 204.5 649.31 197.54 670 187.94 661.81 187.33 661.29 190.79 641.92 192.87 618.39 192.87 616.88 192.87 576.87 183.87 566.49 161.73 567.18 137.52 550.57 122.99 529.12 117.45 504.9 107.07 492.45 99.46 478.61 62.1 466.84 44.8 456.46 26.12 457.16 15.59 447.07 10.21 433.63 15.75 426.71 15.75 417.02 10.21 406.64 20.59 406.64 24.05 396.95 30.28 395.57 38.58 394.88 39.27 383.81 31.66 358.89 20.59 342.29 19.21 331.21 6.75 320.84 1 304.38 Z"/>
</g>
</svg>