<?xml version="1.0"?>
<svg xmlns="http://www.w3.org/2000/svg" version="1.2" baseProfile="tiny" fill="#f9c113" width="800" height="1658" viewBox="0 0 800 1658" stroke-linecap="round" stroke-linejoin="round">
<g fill="#c0392b" id="id_183">
<path d="M 198.68 1074.8 196.09 1070.73 195.62 1063.57 188.76 1038.41 166.67 1003.06 160.49 988.65 158.39 982.2 156.54 979.46 152.13 969.23 148.49 961.11 142.38 946.74 132.97 925.1 131.08 919.95 120.28 859.46 121.53 855.8 121.69 847.78 124.27 826.23 126.25 809.5 126.91 803.85 127.11 799.76 126.24 794.9 127.51 790.93 128.88 760.96 129.38 754.24 135.15 723.48 135.75 719.83 135.75 673.88 122.49 651.79 92.6 633.1 86.3 628.57 77.92 617.68 73.72 610.69 65.73 548.75 65.06 542.52 63.34 539.12 65.06 532.18 65.06 527.09 64.8 520.02 65.06 512.56 65.06 499.97 64.71 496.09 44.25 434.71 42.71 430.59 41.31 427.01 40.45 421.79 31.99 391.32 29.37 387.81 1.74 352.28 1 346.02 1 313.77 14.25 269.59 1.55 250.53 10.56 245.52 10.56 224.48 24.65 205.69 32.17 195.36 34.23 191.91 39.31 181.92 51.43 159.1 54.43 160.25 70.86 116.01 99.92 76.83 116.56 69.51 118.02 68.73 167.87 60.53 193.71 51.92 220.34 27.63 244.62 11.97 272.04 1 317.47 2.57 380.13 23.72 412.24 29.2 474.9 29.2 518.76 19.02 579.07 21.37 626.06 33.12 652.69 50.35 686.37 53.48 703.17 41.13 701.8 46.29 701.98 54.78 696.57 60.73 691.01 66.24 674.98 82.98 664.71 93.79 651.92 107.07 666.38 129.33 687.52 130.44 700.87 143.79 698.28 153.3 696.2 161.27 691.07 176.74 688.58 188.88 680.85 217.23 679.35 221.01 678.59 228.27 673.49 253.3 670.94 262.42 669.72 271.76 680.41 293.13 682.93 298.33 693.39 315.49 696.59 324.05 701.17 328.34 705.41 336.36 704.78 345.36 704.12 359.63 697.42 377.43 704.34 388.73 706.16 391.64 713.11 403.06 725.35 407.51 725.02 416.51 724.38 429.87 724.21 438.85 722.03 499.18 721.79 505.96 720.58 539.06 719.79 555.34 719.78 561.07 728.72 599.48 730.76 609.02 730.09 615.17 727.76 633.04 724.23 637.71 703.11 657.9 705.03 665.46 710.89 677.92 715.04 677.77 746.49 676.79 753.16 710.17 749.72 734.23 748.72 740.47 734.03 747.44 720.93 753.3 718.15 756.66 702.71 773.51 699.2 777.39 692.37 784.79 685.29 792.51 692.28 816.97 695.07 824.73 720.9 855.93 734.25 851.48 742.04 865.95 732.02 894.88 716.45 912.68 709.77 927.15 683.07 927.15 670.83 926.04 653.03 920.47 649.57 928.38 648.36 931.46 645.24 938.28 652.54 950.21 658.17 963 660.27 968.09 660.3 975.95 659.81 982.06 659.11 991.25 658.26 1001.47 657.47 1011.25 657.25 1014.94 656.7 1020.99 654.14 1052.89 677.82 1057.19 693.28 1059.41 733.08 1066.04 741.12 1065.83 747.17 1077.35 757.3 1092.67 757.85 1100.85 758.75 1126.69 760.5 1177.72 761.59 1184.12 760.95 1190.86 760.15 1196.83 759.37 1202.81 756.43 1224.37 755.67 1230.3 754.46 1239.09 753.16 1248.72 767.44 1298.14 758.19 1304.12 758.22 1311.94 758.19 1319.59 758.54 1329.68 758.19 1338.86 783.37 1349.28 795.53 1369.25 791.86 1376.04 789.45 1378.8 772.95 1390.09 772.95 1414.4 799 1431.77 796.21 1440.83 794.29 1445.9 781.76 1457.08 753.85 1479.53 759.06 1512.53 776.43 1556.82 767.01 1571.02 761.74 1578.85 752.12 1593.29 752.46 1601.56 747.63 1601.77 725.54 1597.35 703.45 1612.81 701.24 1643.74 685.78 1657 668.1 1619.44 646.65 1618.1 632.12 1617.29 606.25 1619.44 588.58 1626.07 572.96 1624.95 572.28 1620.2 571.35 1609.73 580.34 1598.49 586.37 1590.72 593.05 1580.03 596.16 1572.71 591.07 1569.98 585.55 1569.81 573.12 1566.42 493 1566.42 482.32 1566.45 476.2 1567.13 470.76 1566.89 467.41 1567.76 462.67 1568.63 461.26 1572.84 459.41 1575.71 459.34 1580.85 456.04 1592.93 460.65 1597.54 473.72 1610.82 473.72 1624.44 468.11 1635.88 464.51 1642.47 459.04 1639.34 447.21 1634.91 403.03 1632.7 377.21 1638.78 369.27 1639.8 365.48 1641.54 355.7 1644.47 355.11 1643.65 339.48 1620.2 338.21 1617.16 335.6 1609.32 331.8 1597.11 328.99 1592.01 327 1587.53 322.7 1578.64 318.85 1569.19 314.43 1558.53 306.71 1517.97 305.26 1512.02 294.79 1486.89 292.58 1462.59 290.29 1448.85 287.67 1434.79 277.12 1407.35 278.56 1388.63 279.33 1377.72 279.33 1331.46 278.96 1326.35 268.28 1283.64 241.78 1228.4 215.27 1184.22 211.92 1161.61 210.78 1156.06 210.19 1149.95 207.46 1131.53 206.32 1123.53 202.48 1090.92 201.81 1086.25 198.68 1074.8 Z"/>
</g>
</svg>