<?xml version="1.0"?>
<svg xmlns="http://www.w3.org/2000/svg" version="1.2" baseProfile="tiny" fill="#f9c113" width="800" height="705" viewBox="0 0 800 705" stroke-linecap="round" stroke-linejoin="round">
<g fill="#c0392b" id="id_119">
<path d="M 130.4 66.12 169.55 59.45 185.96 56.91 224.74 56.91 250.1 86.14 257.55 55.64 253.08 1 276.94 13.71 333.62 12.44 358.98 56.91 366.44 40.39 420.14 45.47 430.58 78.51 445.49 147.14 457.43 143.33 466.38 153.5 576.75 150.95 576.75 161.12 564.82 175.1 587.19 189.08 594.65 214.5 614.04 223.4 627.47 246.28 651.33 239.92 667.74 258.99 703.54 262.8 730.39 280.6 760.22 337.8 799 331.44 794.53 429.33 779.61 420.43 752.76 428.06 694.59 416.62 706.52 405.18 618.52 397.55 617.03 370.85 478.31 387.38 467.87 360.68 366.44 378.48 356 552.67 272.47 576.83 156.13 649.31 103.92 704 53.21 658.22 30.83 628.97 47.24 611.16 48.73 599.72 81.55 588.27 105.41 589.54 105.41 573.01 29.34 511.98 27.85 511.98 1 470.02 12.93 461.12 30.83 470.02 54.7 447.13 121.82 445.86 259.04 417.89 251.59 400.09 188.94 403.91 171.04 379.75 250.1 375.94 253.08 356.87 211.31 345.43 159.11 290.77 171.04 232.3 171.04 178.91 129.28 195.44 119.21 180.5 124.43 169.7 98.33 139.2 119.21 113.14 148.29 111.87 133.38 95.35 130.4 66.12 Z"/>
</g>
</svg>