<?xml version="1.0"?>
<svg xmlns="http://www.w3.org/2000/svg" version="1.2" baseProfile="tiny" fill="#f9c113" width="800" height="738" viewBox="0 0 800 738" stroke-linecap="round" stroke-linejoin="round">
<g fill="#c0392b" id="id_162">
<path d="M 636.64 585.22 629.07 593.33 616.27 588.26 604.05 590.79 588.92 594.34 586.59 614.62 585.43 622.23 574.37 635.41 573.79 653.67 548.18 654.18 545.27 663.82 528.98 660.27 507.45 660.27 492.9 654.69 477.18 648.09 489.4 642.01 546.44 643.53 547.6 635.41 562.73 634.91 560.98 620.71 527.81 620.2 534.8 606 526.65 602.45 509.77 613.61 489.4 610.06 481.26 611.58 473.11 606 460.89 602.96 448.67 601.44 441.1 602.96 433.54 606 432.37 621.72 435.87 629.33 431.21 634.91 405.02 637.44 399.2 625.27 406.19 590.79 390.47 597.38 381.16 604.99 372.43 612.59 381.74 623.75 380.58 633.89 351.48 634.91 350.32 647.59 323.55 646.57 317.15 642.51 295.03 644.54 282.23 643.53 262.45 650.63 258.37 658.24 243.24 660.77 247.9 673.96 249.64 683.09 234.51 687.66 234.51 695.27 251.39 697.81 253.13 691.21 264.77 689.69 270.59 700.85 284.56 698.82 293.87 692.23 303.76 689.69 311.33 702.37 307.26 716.58 303.76 725.21 288.62 732.07 271.38 735.77 270.76 731.46 275.07 720.37 282.46 709.9 273.84 712.36 260.91 722.83 251.67 727.76 244.28 726.53 235.66 717.29 230.11 721.6 220.26 723.45 212.25 732.07 203.63 737 199.32 724.06 200.55 708.67 192.54 694.5 188.85 684.03 177.15 680.33 174.07 687.73 168.52 693.88 156.2 700.66 147.58 704.97 140.19 703.12 135.88 696.96 129.72 689.57 120.48 680.95 108.17 680.95 105.09 672.33 97.7 660.01 96.4 655.11 96.39 655.11 95.23 650.77 100.16 640.91 102.01 632.91 103.24 613.81 103.24 601.49 106.93 593.49 110.63 593.49 116.17 588.56 127.26 582.4 143.27 578.71 156.82 568.23 172.22 561.46 187.62 558.99 187.62 542.36 190.7 533.13 198.7 531.89 207.94 528.81 216.56 525.74 221.49 519.58 222.11 507.26 222.11 470.92 220.26 457.37 218.41 442.58 209.79 438.27 199.32 425.95 189.46 427.18 187 420.41 192.54 417.95 200.55 417.95 205.48 405.01 207.32 400.7 204.86 393.93 204.25 385.3 205.48 379.76 192.54 378.53 188.85 374.21 183.92 365.59 177.15 360.05 170.37 364.98 158.05 362.51 148.81 360.05 149.43 352.04 143.27 350.19 145.74 345.27 151.89 344.65 153.74 339.11 152.51 329.25 151.89 324.94 151.89 319.4 156.2 315.09 164.83 313.24 161.75 303.38 159.9 297.22 152.51 295.99 148.81 293.53 146.97 297.84 141.42 305.23 135.88 294.14 135.88 281.83 130.34 283.67 122.95 287.98 112.48 289.83 112.48 282.44 113.71 265.19 114.33 249.8 105.09 242.4 87.84 236.86 68.75 227.62 60.74 219 41.65 210.99 26.25 202.37 26.87 192.51 29.95 182.66 25.02 179.58 14.55 175.88 13.93 168.49 15.17 156.79 7.78 148.78 4.08 141.39 1 124.76 5.93 114.29 9.62 99.51 7.35 84.75 7.63 84.75 11.35 68 5.77 56.83 8.25 48.15 15.69 44.43 28.1 44.43 46.71 46.29 60.36 45.67 66.56 35.12 77.73 25.2 94.48 18.37 110.61 19.61 117.43 9.06 125.49 4.72 137.9 6.58 147.83 14.03 156.51 21.47 161.47 23.95 161.47 16.51 163.96 10.31 168.92 2.86 172.64 1 183.01 8.96 197.27 19.82 213.56 23.35 218.51 26 223.16 28.27 227.82 27.13 231.6 21.33 237.28 18.68 245.86 17.29 248.04 18.18 249.35 23.1 250.52 29.15 255.75 35.09 262.01 39.88 270.45 37.61 272.34 34.08 272.48 33.82 279.76 30.79 287.47 28.78 289.22 23.35 295.76 18.93 299.4 23.1 299.11 31.05 292.27 40.89 288.49 45.56 290.09 52.88 293.29 59.95 301.73 62.73 309.15 60.71 319.77 59.82 330.24 60.2 335.04 62.22 347.85 71.81 359.49 72.82 363.7 77.49 369.96 84.69 381.16 85.45 400.37 84.31 410.26 83.55 415.5 87.85 420.01 85.2 427.14 79.77 434.41 76.36 434.7 93.28 441.25 94.79 447.07 92.27 458.42 93.02 462.64 94.16 461.91 105.14 431.21 105.27 417.83 105.78 414.19 110.45 419.13 114.99 422.63 117.52 422.92 125.85 419.57 133.18 419.57 140.38 428.74 140.88 430.48 147.83 434.85 149.47 448.38 151.24 460.89 155.41 470.35 159.32 474.86 141.64 482.13 141.77 487.08 139.75 489.7 117.52 537.27 117.77 541.05 113.48 551.53 113.1 563.89 113.1 571.31 108.81 568.55 106.41 564.18 102.11 568.4 97.06 575.82 99.34 584.7 100.98 597.21 101.1 605.94 105.27 623.54 106.41 631.25 105.78 632.27 101.73 640.71 99.97 642.75 106.41 645.51 111.71 647.26 105.02 653.37 96.31 658.02 95.04 663.7 98.07 667.33 106.03 671.12 115.88 665.59 117.9 647.55 127.87 632.85 132.67 626.6 137.35 625.14 147.45 628.2 155.79 635.91 160.21 639.69 164.38 644.78 169.43 649 175.75 652.35 181.43 659.48 188.38 667.33 195.08 673.15 199.12 679.41 205.44 688.87 208.09 694.25 209.99 702.98 212.14 714.91 211 731.79 213.02 747.93 217.19 753.03 225.15 756.08 231.09 764.08 239.43 769.9 245.25 776.89 254.86 782.56 258.52 793.18 265.48 799 271.16 789.4 269.77 779.8 269.77 771.65 262.69 765.25 257.64 755.65 261.18 749.53 268.51 728.88 270.28 724.22 273.06 725.38 279.64 693.09 279.13 686.98 282.42 680.87 283.18 668.35 291.52 660.21 292.53 645.37 293.04 639.26 298.6 635.47 304.93 635.76 313.78 615.11 313.02 610.16 310.74 601.14 307.71 589.5 307.96 574.95 309.98 564.18 314.28 556.62 319.34 547.31 324.4 546.44 345.65 552.26 352.99 548.47 356.79 541.49 360.83 534.21 366.15 528.4 370.96 521.99 377.03 511.52 376.52 507.74 386.9 507.15 392.72 518.5 395.5 513.26 405.88 505.99 410.69 510.65 423.35 514.72 428.67 518.5 446.39 526.07 448.41 538.87 444.87 554 444.36 562.73 445.88 563.89 446.39 571.46 452.46 569.71 481.33 527.81 482.35 524.9 460.06 510.35 463.61 496.97 466.65 485.91 467.66 474.27 481.84 458.56 489.95 443.43 496.02 419.57 498.05 402.69 520.34 419.57 517.3 447.5 514.26 449.25 521.86 422.48 538.59 416.08 558.86 423.65 560.89 433.54 554.3 440.52 546.19 471.95 542.13 479.51 537.57 488.24 541.63 476.02 556.83 485.33 559.87 485.33 581.67 501.04 581.16 503.95 587.24 517.34 587.24 534.21 575.08 544.69 574.06 549.35 569 559.24 566.97 563.31 558.86 528.98 558.35 528.4 542.64 547.02 543.15 554.58 539.09 560.4 527.44 569.13 537.57 588.34 530.98 606.96 531.49 613.36 517.3 624.42 518.82 616.27 534.53 622.09 538.59 655.84 536.05 659.92 545.17 670.97 552.27 658.75 554.3 655.26 562.41 658.17 574.57 649.44 581.67 636.64 585.22 Z"/>
</g>
</svg>