<?xml version="1.0"?>
<svg xmlns="http://www.w3.org/2000/svg" version="1.2" baseProfile="tiny" fill="#f9c113" width="800" height="878" viewBox="0 0 800 878" stroke-linecap="round" stroke-linejoin="round">
<g fill="#c0392b" id="id_146">
<path d="M 159.1 433.05 158.99 433.05 161.59 428.36 165.85 425.81 175.19 421.83 187.84 415.1 187.72 415.1 200.49 409.59 220.12 404.19 228.16 401.13 228.4 396.44 223.79 390.53 220.12 390.42 215.87 386.75 215.51 372.68 212.91 365.04 212.79 365.04 209.13 363.51 209.01 348.42 240.82 348.11 221.78 333.13 173.18 333.44 169.63 330.89 169.87 318.66 166.2 315.39 162.3 317.43 160.76 322.02 156.86 322.32 156.27 326.2 153.19 330.17 124.69 329.36 121.26 323.65 118.31 323.24 109.44 326.2 106.25 319.78 107.19 317.13 114.88 315.39 137.46 306.02 144.32 301.53 147.52 294.09 123.16 294.4 121.74 287.77 117.36 287.57 116.06 279.42 106.96 278.91 103.53 291.95 98.91 289.2 88.27 282.98 82.36 281.97 60.48 290.73 50.9 295.21 47.47 295.83 42.98 290.93 43.45 286.55 54.1 280.54 70.77 269.43 82.12 258.73 81.89 252.52 71.12 252.52 73.13 246 68.76 244.88 64.5 229.8 60.6 227.86 46.65 233.67 40.73 232.85 34.58 235.3 31.51 241 25.6 239.07 14.13 233.97 1 233.67 9.69 226.74 17.91 214.97 30.86 207.44 36.12 210.9 43.04 209.63 54.21 203.72 61.78 195.37 68.82 185.18 70.47 179.99 68.17 175 67.69 168.99 77.63 168.07 88.63 159.67 93.47 147.8 100.33 134.16 99.8 128.3 88.09 115.27 88.8 111.86 94.01 105.75 93.71 100.66 92.11 89.82 88.45 84.47 80.05 74.04 76.56 65.08 79.46 53.17 81.37 46.97 102.82 50.26 117.3 52.01 133.28 59.22 133.31 59.2 146.05 64.88 171.92 64.88 193.29 75.86 193.25 75.87 198.51 78.6 198.52 94.41 198.58 111.21 206.32 102.51 208.56 98.4 211.52 95.06 213.65 93.04 222.85 79.25 222.92 79.25 224.26 77.03 230.34 73.31 233.2 75.9 234.94 77.52 239.61 81.68 245.48 81.68 251.98 79.82 253.66 78.64 257.56 75.63 259.12 73.33 259.45 74.18 261.56 72.56 267.91 83.29 267.97 83.31 271.5 89.18 276.38 90.96 295.75 97.62 291.95 69.52 300.06 74.68 300.32 74.88 320.12 92.32 321.57 103.69 343.6 106.73 361.08 105.65 367.16 105.25 379.12 97.81 391.27 98.98 402.05 103.69 398.92 111.92 396.77 117.37 396.01 140.9 402.82 145.67 412.05 134.06 411.99 133.57 412.72 118.88 408.93 98.38 412.72 87.74 424.12 86.99 440.83 74.84 454.5 69.52 464.38 69.52 467.41 82.41 470.6 77.78 477.29 68 482.61 57.37 495.52 49.02 506.16 47.5 510.65 61.16 513 71.55 515.16 78.8 515.67 80.46 524.2 83.87 524.09 83.74 524.37 83.89 527.42 64.2 530.46 58.13 537.31 64.88 545.74 70.96 553.19 74.09 565.93 63.32 573.38 60.77 580.63 58.22 596.51 48.23 601.41 42.54 608.66 33.92 624.15 30.2 630.81 27.06 639.83 26.28 646.69 21.77 664.14 23.14 680.01 10.21 692.17 1 691.47 3.47 691.5 3.45 723.5 7.92 724.6 8.16 743.91 14.85 753.02 30.03 754.5 41.84 765.18 45.98 785.51 64.84 785.91 65.22 792.34 89.38 795.67 97.02 799 104.47 784.89 118.78 762.15 118.78 757.44 136.61 754.5 148.17 755.68 152.48 761.56 173.44 761.72 173.39 766.91 191.57 751.76 221.89 749.85 242.77 749.82 242.81 749.8 243.02 738.43 259.09 708.83 285.74 688.15 302.65 674.92 331.01 673.94 359.42 674.53 375.29 675.9 407.82 674 432.37 675.49 450.15 675.51 450.15 675.91 455.12 675.89 455.15 675.9 455.25 653.16 488.37 648.45 512.08 647.47 516.78 630.32 541.49 618.96 540.54 609.53 555.64 610.48 581.21 593.42 597.33 587.73 611.55 603.85 628.61 607.65 651.36 604.81 676 603.86 694.01 598.18 712.97 601.02 730.98 597.23 748.99 593.61 751.26 594.27 751.59 594.82 751.9 594.72 751.96 594.17 751.65 593.51 751.32 574.38 763.27 560.82 773.06 560.83 773.1 557.3 775.65 538.8 781.33 529.82 784.12 516.82 785.2 507.12 786.04 493.79 783.88 489.09 783.1 469.09 774.67 464.97 769.21 458.23 762.62 458.24 762.55 435.97 766.11 417.95 770.85 404.68 785.07 388.56 786.02 384.77 796.44 386.66 813.52 382.06 815.63 372.46 820.14 361.07 823.92 353.85 829.08 347.76 833.47 331.69 821.12 327.49 822.51 327.49 822.48 303.24 830.56 288.16 836.21 284.28 853.31 264.45 855.21 255.84 866.57 223.6 877 203.69 877 199.37 874.95 185.64 868.54 183.88 852.41 178.2 830.75 177.26 814.4 180.57 800.91 184.83 800.91 189.56 802.95 209.89 802.95 222.67 811.64 225.62 819 228.7 820.83 232.36 819.4 237.68 813.78 241 808.06 251.28 800.3 258.85 791.51 259.56 787.32 255.42 784.87 245.02 781.29 235.79 779.15 230.59 775.57 231.3 769.03 234.02 762.19 234.26 759.33 225.5 755.14 222.55 751.77 223.26 745.23 220.42 741.14 221.01 733.79 218.05 730.72 213.09 731.54 207.65 737.26 199.96 744 196.06 745.64 186.95 746.76 177.38 750.34 169.81 751.97 166.38 749.82 160.11 740.94 154.55 734.3 151.71 732.05 143.55 735.32 135.87 738.79 129.13 739.71 118.84 738.38 111.86 737.67 102.4 743.59 98.38 741.86 93.53 738.38 91.64 734.4 84.66 734.81 78.63 730.21 81.35 723.88 75.8 725.92 69.41 725.82 67.87 721.22 70.36 716.12 70.71 711.52 81 709.17 86.08 705.49 83.48 702.12 80.17 698.24 73.55 698.45 67.99 700.69 63.26 702.02 59.48 699.26 60.42 693.44 60.19 689.36 57.35 687.52 47.89 685.38 46.23 681.8 47.65 677.41 49.66 672.2 52.03 668.63 59.36 663.73 65.74 660.56 76.27 662.2 91.17 660.26 94.95 655.46 97.79 649.13 112.57 649.54 125.7 650.66 135.63 651.37 146.98 651.27 154.91 645.76 161.88 647.08 173.35 647.08 176.31 641.98 182.46 642.18 187.07 639.63 189.67 632.59 188.49 626.67 183.52 618.5 183.29 609.82 186.95 602.06 190.03 593.39 193.69 568.79 192.98 556.03 187.07 552.36 187.43 543.58 184.35 537.66 183.17 530.62 173.12 527.87 171.23 524.09 172.05 513.28 178.68 511.54 178.91 490.02 183.29 486.55 195.94 486.85 193.58 472.68 195.94 467.78 194.88 464 186.6 465.74 182.11 464.51 181.63 456.35 180.33 452.89 175.84 451.87 174.54 440.75 171.46 437.08 166.26 436.87 158.45 438.4 159.1 433.05 Z"/>
</g>
</svg>