<?xml version="1.0"?>
<svg xmlns="http://www.w3.org/2000/svg" version="1.2" baseProfile="tiny" fill="#f9c113" width="800" height="1649" viewBox="0 0 800 1649" stroke-linecap="round" stroke-linejoin="round">
<g fill="#c0392b" id="id_170">
<path d="M 647.25 10.85 650.24 12.95 653.84 12.95 657.43 12.42 662.22 13.99 662.81 15.04 664.61 21.32 665.81 30.22 665.21 35.97 662.22 44.35 659.82 50.63 658.62 59.52 661.02 65.28 662.22 71.56 661.02 75.23 661.02 82.03 668.2 84.13 671.79 85.7 677.18 87.79 684.96 88.84 693.94 90.93 702.32 91.98 708.9 94.08 716.09 93.55 732.65 95.77 730.54 115.85 731.59 133.81 726.31 146.49 715.74 148.6 724.2 168.68 740.05 179.24 734.76 203.54 733.71 234.18 714.69 293.35 696.72 321.88 684.04 351.46 661.85 389.5 642.82 430.71 628.03 482.48 623.8 513.12 610.06 554.32 594.21 611.38 601.61 669.49 610.06 733.94 622.75 800.5 630.14 852.28 626.97 885.03 623.8 923.06 623.8 949.48 632.26 987.51 639.65 1025.55 656.56 1063.59 670.3 1090 691.44 1114.3 707.29 1144.94 707.29 1175.58 736.88 1258 750.62 1315.05 753.79 1347.8 773.86 1391.12 775.98 1424.93 780.2 1455.57 789.72 1503.12 798.88 1537.39 799 1537.78 795.8 1539.18 793.89 1539.97 777.29 1546.69 776.05 1547.21 763.07 1553.42 756.3 1556.66 754.98 1557.3 744.79 1562.2 741.54 1563.6 737.04 1565.28 725.48 1569.64 718.86 1572.2 714.84 1573.77 692.83 1582.34 689.15 1583.81 667.53 1592.92 644.07 1602.84 628.48 1613.07 619.85 1618.75 615.38 1618.92 605.35 1619.32 590.53 1625.64 574.37 1632.56 549.74 1643.13 535.99 1644.7 507.57 1648 507.03 1647.9 489.37 1645.51 472.09 1643.22 451.27 1640.39 430.85 1637.64 414.69 1635.25 389.48 1631.85 385.6 1631.31 368.94 1628.7 366.36 1625.08 359.1 1614.83 358.15 1613.44 354 1610.28 348.3 1605.94 345.93 1604.12 344.8 1603.23 343.66 1600.45 339 1588.42 337.67 1585.36 335.75 1580.52 327.34 1568.03 315.77 1550.99 305.69 1535.9 300.83 1528.75 293.48 1517.96 276.44 1496.96 271.07 1456.38 269.83 1447.07 269.25 1442.61 269.27 1441.92 269.37 1439.47 269.91 1427.79 269.13 1410.07 267.9 1381.67 170.85 1293.87 159.62 1272.52 135.99 1261.88 126.44 1257.57 116.26 1252.99 110.99 1251.83 96.1 1248.63 88.06 1247.29 78.94 1245.81 76.16 1245.39 75.33 1245.12 56.42 1239.87 35.82 1242.88 20.56 1247.26 18.7 1192.55 27.2 1174.44 13.75 1166.32 1 1158.83 20.83 1150.71 27.91 1138.22 46.32 1123.23 51.28 1112 56.94 1090.15 52.69 1069.55 61.19 1060.82 63.31 1043.34 54.82 1042.72 49.15 1026.5 46.32 996.56 67.56 970.36 64.73 935.44 73.23 889.32 93.05 878.1 115.71 859.41 134.12 835.73 165.28 823.27 162.45 809.57 190.77 767.22 180.86 747.3 202.1 721.15 227.6 707.46 250.26 733.6 255.92 727.38 241.76 697.5 264.42 677.59 272.91 656.44 270.08 626.58 260.17 605.44 246.01 595.49 234.68 574.35 223.35 558.18 210.6 542.02 221.93 532.08 206.35 525.86 217.68 519.65 231.84 515.92 227.6 505.97 224.76 489.82 217.68 472.42 226.18 458.76 244.59 474.91 247.42 460 272.91 461.24 265.83 451.3 281.41 430.19 302.66 428.94 322.48 423.98 322.48 409.07 343.73 396.66 360.72 407.83 372.05 421.49 374.88 443.85 386.21 446.33 374.88 411.56 389.05 396.66 393.29 414.04 397.54 437.64 412.06 461.4 421.62 451.15 433.3 443.07 444.63 438.42 453.84 435 461.27 433.45 471.19 431.58 465.17 421.96 458.09 411.71 454.9 400.85 454.9 386.26 454.19 371.05 448.17 363.29 442.15 358.94 431.18 358.01 435.43 346.53 444.99 334.12 460.56 315.5 485.53 284.48 479.15 281.85 472.25 270.53 464.28 254.4 463.75 240.45 464.64 233.63 468 217.2 459.15 208.21 449.59 205.42 446.58 199.22 451.89 192.4 461.98 188.52 482.34 179.23 507.12 169.31 506.24 126.4 514.73 125.93 521.82 125.47 526.77 123.77 534.92 115.56 565.36 149.01 565.54 145.76 571.38 134.61 577.93 119.74 585.55 106.88 594.22 96.2 596.17 83.19 603.43 74.37 617.41 54.09 622.19 39.69 625.73 35.82 634.94 16.94 636.35 1 647.25 10.85 Z"/>
</g>
</svg>