<?xml version="1.0"?>
<svg xmlns="http://www.w3.org/2000/svg" version="1.2" baseProfile="tiny" fill="#f9c113" width="800" height="353" viewBox="0 0 800 353" stroke-linecap="round" stroke-linejoin="round">
<g fill="#c0392b" id="id_160">
<path d="M 450.82 97.87 450.81 97.82 450.85 97.81 450.54 93.96 450.85 89.94 451.21 89.91 454.22 89.71 457.4 89.48 460.01 87.85 461.05 87.23 462.68 82.76 462.68 82.67 462.84 82.23 467.35 76.91 467.35 76.91 470.33 73.39 473.74 70.51 479.26 65.89 483.25 60.29 488.72 57.54 497.34 57.28 500.49 58.72 501.89 59.59 504.59 61.38 509.35 65.01 509.35 65 509.38 65.02 510.26 60.29 512.37 55.9 517.96 52.56 518.46 52.42 523.42 51.19 528.41 53.23 531.81 56.62 534.08 55.94 536.7 53.13 536.69 53.06 539.81 49.84 543.91 47.94 544.75 47.56 546.48 47.24 552.11 46.26 553.62 46.51 553.62 46.56 558.13 47.56 559.04 51.64 558.59 54.13 557.9 57.3 557.22 60.25 558.59 64.55 562.22 62.74 566.98 57.76 569.25 53.9 572.65 51.64 576.96 47.11 584 46.43 589.21 47.33 590.57 51.64 594.43 53.68 601.24 53 609.86 51.19 617.8 50.28 624.38 54.13 630.05 54.81 637.09 53.23 647.07 45.75 652.97 45.29 654.33 40.76 658.41 37.59 660.91 32.83 658.19 25.58 658.64 21.05 664.31 18.1 669.98 14.93 676.11 13.8 681.1 13.57 691.08 16.52 701.29 19.23 705.6 22.41 712.18 28.07 714.22 31.92 718.08 28.98 720.8 24.45 725.11 20.82 730.56 18.33 744.17 9.26 753.64 1.14 753.82 1 755.01 2.5 755.83 3.48 756.67 4.24 757.12 5.15 757.55 5.77 758.27 6.47 759.59 7.76 762.14 10.06 762.98 10.88 764.47 12.38 765.09 12.96 766.89 14.39 768.12 15.24 769.06 16.12 769.68 17.31 771.44 21.09 773 24.85 773.36 26.07 774.86 27.97 775.25 28.73 775.63 30.33 776.38 31.55 777.85 33.67 779.99 37.27 781.59 39.49 785.04 44.39 785.56 45.22 786.4 46.68 787.36 47.72 788.47 49.83 789.72 51.99 790.61 54.86 791.54 56.79 791.95 58.32 792.23 59.21 792.85 61.67 792.88 65.55 792.94 67.55 793.11 68.6 793.83 71.78 794.52 74.2 795.11 76.95 795.19 79.03 795.22 80.68 795.46 83.98 796.21 87.02 796.82 90.26 796.97 92.85 797.36 95.5 797.69 96.48 798.21 99.01 799 103.44 796.59 105.33 788.11 111.92 783.85 115.17 782.86 115.94 781.06 117.29 778.22 119.48 773.92 122.74 767.5 127.58 764.43 129.84 762.97 130.98 760.9 132.52 758.38 134.36 755.11 136.73 753.26 138.04 751.61 139.24 750.04 140.38 747.5 142.14 746.82 142.65 744.51 144.31 741.48 146.3 740.02 147.27 738.42 148.31 735.22 150.92 733.13 152.59 731.05 154.26 727.63 156.44 725.93 157.51 723.18 159.55 721.29 160.83 719.17 162.35 716.78 164.08 715.51 164.97 713.79 166.21 712.04 167.44 710.01 168.9 706.89 171.11 705.08 172.42 703.25 173.72 699.77 176.21 698.36 177.2 696.54 178.52 695.17 179.38 693.92 180.36 691.71 182.16 689.23 184.7 687.52 187.02 683.63 191.95 681.66 194.55 680.42 196.09 679.89 196.78 674.12 198.14 671.23 198.81 668.34 199.49 667.28 199.73 662.54 200.83 659.8 201.5 656.76 202.18 653.93 202.91 651.67 203.37 650.96 203.52 648.42 204.13 642.28 205.53 641.07 205.77 639.39 206.2 616.27 211.58 613.01 212.37 611.01 212.88 604.71 214.27 596.04 216.3 593.14 216.97 590.95 217.49 589.38 217.87 581.58 219.67 578.23 220.46 572.92 221.69 555.58 225.75 552.69 226.43 550.71 226.88 548.89 227.32 546.91 227.79 541.14 229.14 538.39 229.81 537.13 230.08 535.35 230.5 531.47 231.45 529.6 231.9 523.49 234.05 521.3 234.86 515.78 236.87 509.67 239.04 507.49 239.88 504.74 240.89 493.57 244.95 485.4 247.92 483.58 248.66 479.88 249.93 477.36 250.84 462.87 256.12 456.2 258.54 452.29 259.98 442.37 263.59 440.31 264.33 437.98 265.18 436.48 265.75 434.47 266.45 432.97 267.02 430.6 267.88 424.7 270.04 424.66 270.04 415.43 273.4 401.17 278.61 390.74 282.4 386.07 284.2 382.57 281.56 379.64 276.49 373.46 272.13 366.79 266.5 358.65 260.3 364.19 256.64 355.73 246.23 349.22 236.52 343.52 240.32 341.24 249.04 335.39 252.28 325.46 249.6 320.9 245.24 321.39 237.64 328.72 234.69 331.97 227.51 336.36 221.46 335.71 213.86 333.6 212.03 330.83 214.29 325.3 214.85 322.04 218.93 317.33 219.49 311.79 216.25 306.26 221.04 300.73 225.54 295.68 226.53 296.17 235.95 289.5 242.43 275.67 247.92 264.93 252.14 259.73 254.95 255.17 257.49 255.17 281.56 247.36 282.12 245.24 283.53 244.27 284.52 246.71 286.63 247.68 288.6 242.8 290.15 234.99 293.11 231.41 294.8 224.25 292.97 212.7 291.98 203.59 291.28 193.99 295.5 184.72 299.45 179.83 301 179.83 305.64 181.46 309.87 183.25 314.8 182.76 317.34 177.72 321 174.63 324.24 168.61 325.37 156.24 326.49 153.15 327.76 147.78 328.18 141.6 326.07 135.9 323.96 130.37 322.97 123.7 324.94 120.44 326.78 121.09 330.86 123.7 335.65 127.6 338.75 132.81 340.3 139.64 339.46 141.76 340.59 142.25 345.52 139.16 347.91 135.9 348.62 130.53 346.79 125.33 345.38 118.33 348.05 114.42 350.45 108.24 352 102.87 352 99.94 346.93 99.62 337.63 96.2 334.38 93.43 332.55 85.14 336.78 79.77 337.91 73.26 336.92 71.96 328.47 67.4 326.35 67.07 321.14 64.15 318.46 57.31 315.65 50.32 315.22 46.74 316.35 42.34 313.53 38.6 309.45 36.16 306.07 31.77 305.64 29.65 307.19 25.91 308.88 24.28 305.22 21.19 304.94 18.75 303.39 22.17 301.42 20.86 298.88 18.42 294.38 17.12 291.56 12.89 291.07 8.66 289.8 1.24 287.3 1 284.37 1 277.79 3.43 273.98 6.55 268.43 10.71 266.01 15.57 262.89 17.3 257.35 21.47 251.8 25.28 246.26 30.14 244.53 35.34 246.61 42.28 250.07 48.18 249.72 51.65 255.27 54.42 260.46 57.89 268.09 62.75 273.63 74.54 273.63 79.05 270.51 81.38 266.2 77.72 259.02 77.72 250.41 78.99 244.55 80.88 238.08 81.58 233.1 88.49 232.66 90.2 230.91 90.2 227.94 86.35 225.05 81.01 224.18 80.82 224.16 78.36 223.74 73.76 222.21 68.39 187.77 101.31 176.75 128.67 168 147.57 147.95 173.84 161.42 205.47 156.91 209.5 180.29 211.7 199.4 218.61 200.3 221.32 197.81 222.91 198.08 222.92 198.12 224.85 198.48 226.26 201.3 235.55 202.5 240.21 204.03 240.1 202.97 240.97 196.43 244.13 194.62 248.21 196.44 252.3 197.34 255.25 198.7 258.65 200.74 258.73 200.68 258.75 200.69 263.65 197.11 266.24 189.11 269.08 183.2 271.4 182.37 274.12 181.37 274.17 181.34 274.99 181.03 280.66 181.93 280.68 181.93 280.73 181.94 281.33 181.78 283.61 181.25 287.01 177.86 289.73 172.64 295.41 168.79 299.03 167.21 302.89 167.21 306.52 170.83 309.02 173.55 314.32 173.33 314.57 173.32 315.39 173.12 318.55 172.42 319.81 169.74 319.81 169.74 320.61 168.03 324.2 164.75 332.21 166.33 335.23 167.29 338.82 168.73 347.58 170.61 354.01 173.06 362.2 176.03 364.91 178.79 367.06 181.19 367.09 181.38 367.12 181.38 368.23 186.92 368.41 187.69 368.39 187.7 369 190.17 370.05 194.62 373.68 196.21 374.81 192.13 378.44 188.73 378.59 185.56 378.64 185.55 378.7 183.95 376.95 180.36 375.55 175.77 374.91 173.27 374.81 172.87 374.73 171.44 374.76 171.43 374.67 168.73 372.09 161.74 371.96 155.44 372.46 148.82 372.54 147.94 373.22 141.6 373.45 140.85 373.8 139.79 374.81 136.38 379.84 136.07 388.46 136.07 390.17 136.51 393.19 137.95 398.37 139.92 398.24 139.53 398.35 139.57 396.17 133.62 396.91 128.46 396.91 125.49 400.2 125.05 404.53 124.74 404.93 124.05 406.11 122.34 410.53 124.05 414.56 126.89 418.41 128.9 422 132.92 426.73 132.79 430.62 131.35 428.17 128.2 427.91 124.61 427.73 120.77 427.73 117.75 430.62 117.57 432.07 117.57 432.18 115.25 432.21 114.86 432.18 114.12 432.07 109.57 429.75 105.29 426.6 102.14 426.6 97.56 426.93 97.1 428.92 94.4 430.89 91.51 432.77 86.09 433.91 84.65 437.23 85.65 437.56 85.75 439.25 86.31 441.29 88.12 442.65 91.97 444.47 96.28 446.28 98.77 450.82 97.87 Z"/>
</g>
</svg>