<?xml version="1.0"?>
<svg xmlns="http://www.w3.org/2000/svg" version="1.2" baseProfile="tiny" fill="#f9c113" width="800" height="488" viewBox="0 0 800 488" stroke-linecap="round" stroke-linejoin="round">
<g fill="#c0392b" id="id_168">
<path d="M 253.25 475.01 230.71 459.57 185.65 448.35 138.97 434.32 84.25 406.26 71.79 361.36 72.04 354.68 68.91 354.62 68.34 348.83 67.56 346.13 68.73 338.77 78.33 338.89 78.43 331.31 88.99 331.25 88.77 323.48 94 321.71 95.1 320.32 87.96 312.92 88.63 307.91 80.03 308.62 77.87 305.68 76.23 303.23 82.66 300.17 82.45 297.48 84.23 297.48 83.05 288.75 76.23 281.23 71.43 275.91 62.98 265.32 59.71 259.97 54.63 252.79 47.77 251.8 36.29 249.27 19.49 235.59 10.14 224.24 1 214.77 5.75 211.51 6.32 199.66 7.45 188.93 8.57 175.95 11.4 165.23 23.82 151.68 38.51 154.51 50.93 159.59 67.31 174.82 63.92 184.98 69 196.27 92.16 190.06 111.36 183.85 116.44 176.52 124.91 167.49 136.21 159.02 148.07 151.68 155.41 157.33 169.52 166.92 174.04 170.87 184.77 165.23 184.21 146.61 188.16 130.24 189.86 122.9 212.44 108.23 240.68 98.07 257.63 97.51 273.44 102.58 288.69 108.23 296.59 112.18 315.23 96.94 323.7 86.78 332.74 90.73 350.81 100.89 349.68 91.86 358.71 79.45 370.01 66.46 381.3 62.51 379.04 55.18 379.04 33.73 382.43 24.7 410.1 17.37 420.83 21.88 432.13 31.47 445.12 42.2 451.89 52.92 465.45 59.69 477.88 60.26 487.48 54.61 494.82 49.53 502.73 38.25 508.38 29.22 512.33 15.67 520.8 6.08 533.79 1.56 548.47 1 556.44 1 552.99 5.17 550.68 7.27 543.82 17.56 542.44 22.26 536.08 31.71 534.37 35.08 534.05 46.3 533.41 51.77 534.23 68.58 534.48 84.56 534.59 96.43 533.95 110.87 560.84 120.05 578.12 116.12 599.16 123.97 635.22 111.55 648.74 102.4 663.02 108.28 678.04 96.52 688.96 90.97 693.47 100.25 767.45 125.77 765.94 170.22 799 244.78 785.48 280.11 789.98 281.42 789.98 307.6 750.92 295.82 698.33 312.83 789.98 378.29 683.3 401.86 651.75 425.43 606.67 438.53 548.07 404.48 504.49 429.36 481.95 484.38 475.94 487 376.77 467.35 253.25 475.01 Z"/>
</g>
</svg>