<?xml version="1.0"?>
<svg xmlns="http://www.w3.org/2000/svg" version="1.2" baseProfile="tiny" fill="#f9c113" width="800" height="740" viewBox="0 0 800 740" stroke-linecap="round" stroke-linejoin="round">
<g fill="#c0392b" id="id_100">
<path d="M 394.02 396.41 397.89 404.4 403.78 410.08 409.92 411.64 434.12 410.13 435.26 411.91 426.27 427.15 409.92 442.11 386.36 460.43 381.04 467.88 400.55 462.48 407.71 461.07 412.52 462.1 427.16 478.42 438.3 486.36 430.64 492.85 417.27 499.17 402.07 505.06 396.69 506.84 396.88 510.25 394.34 514.52 386.93 523.98 374.58 513.22 363.11 505.92 357.03 505.38 354.12 507.22 347.09 518.3 343.03 530.14 334.23 545.16 329.6 550.79 328.4 555.49 320.35 561.06 305.78 568.41 296.66 586.68 279.37 587.6 275.63 595.5 275.31 605.5 262.83 614.64 255.68 617.83 245.54 626.43 248.45 633.35 248.77 653.2 254.6 662.12 268.35 682.52 272.65 693.88 276.77 698.58 274.49 703.67 252.07 720.82 245.16 737.86 243.26 739 236.67 731.91 224.07 729.1 224.07 720.39 211.27 705.78 194.1 714.16 181.18 702.59 180.99 694.31 183.84 684.03 184.35 677.7 160.4 662.88 146.47 651.04 138.99 643.14 134.75 652.5 132.4 660.88 127.97 667.8 124.48 681.98 117.77 694.09 109.22 703.89 96.46 708.2 86.38 698.47 86.31 698.58 71.33 684.13 47.63 658.55 24.33 639.57 24.47 639.47 21.74 637.25 1 605.23 22.96 581.71 41.12 551.1 33.18 535.71 30.74 534.96 21.92 513.61 28.78 483.05 38.58 467.97 47.99 453.67 59.36 421.94 69.75 415.67 89.94 403.72 103.07 374.53 126.4 323.21 146.78 302.84 163.84 276.79 195.59 260.92 236.36 234.87 244.79 227.62 281.64 196.28 310.06 184.92 329.39 179.7 329.4 179.64 344.11 175.67 344.17 175.71 352.01 173.56 371.41 161.61 396.31 146.33 416.69 147.5 440.51 128.19 448.75 126.54 469.03 122.63 479.81 112.83 506.27 88.93 509.8 86.19 531.36 52.3 540.38 22.92 573.31 5.68 575.85 1 581.09 4.14 601.11 37.34 608.45 33.24 613.01 35.4 627.2 56.96 621.38 70.12 633.03 96.22 627.2 112.18 629.99 133.97 643.17 157.05 659.64 157.7 659.38 138.28 650.77 121.45 659.89 124.91 678.13 120.38 696.38 135.48 716.65 145.4 712.09 155.54 718.68 169.35 760.99 200.21 788.1 199.78 780.25 210.35 782.02 230.86 799 243.59 783.29 254.6 777.97 264.53 758.46 263.89 741.73 283.75 728.31 281.59 721.72 291.95 694.35 297.57 686.62 268.1 664.33 269.18 655.33 274.68 646.71 239.82 655.33 222.87 642.53 223.09 653.94 196.76 646.84 193.3 638.99 198.91 633.29 207.01 623.15 222.33 576.02 221.04 565.5 202.26 542.83 214.67 525.47 269.5 510.27 284.29 480.75 294.98 460.22 340.44 457.43 360.2 439.7 355.34 431.59 343.24 416.01 340.98 400.93 382.02 389.53 389.9 394.02 396.41 Z"/>
</g>
</svg>