<?xml version="1.0"?>
<svg xmlns="http://www.w3.org/2000/svg" version="1.2" baseProfile="tiny" fill="#f9c113" width="800" height="745" viewBox="0 0 800 745" stroke-linecap="round" stroke-linejoin="round">
<g fill="#c0392b" id="id_15">
<path d="M 201.93 575.61 193.9 571.36 191.7 550.88 192.01 550.65 178.31 550.49 168.24 558.84 163.36 558.21 158 548.29 154.54 540.57 150.76 543.24 150.42 542.86 137.99 550.1 128.38 553.57 125.7 558.29 107.75 557.98 76.74 534.04 60.68 534.82 35.17 549.95 32.81 534.98 35.33 513.4 39.58 504.11 53.28 480.32 44.46 463.31 35.01 460.95 31.39 452.29 20.21 450.87 16.43 445.98 22.41 440.63 12.97 431.81 20.84 427.24 3.05 417 1 411.17 11.55 406.92 29.5 411.49 38 410.86 53.59 394.95 68.86 395.58 75 386.92 69.49 382.03 51.7 362.97 35.95 343.13 27.61 338.87 17.06 329.42 13.91 316.35 27.77 314.93 42.73 320.13 51.23 316.51 75.63 301.23 92.01 302.01 109.49 306.58 115.47 302.8 119.25 293.35 132.32 280.75 134.21 254.6 128.54 250.66 113.9 230.34 98.78 229.87 80.51 205.14 81.77 198.68 94.84 189.71 103.98 177.26 108.7 161.82 120.98 136.94 108.7 119.61 104.29 109.53 107.28 102.91 112.16 79.6 124.44 61.01 129.17 35.02 141.76 23.53 155.15 1.95 189.16 1 198.13 5.41 228.36 12.03 242.85 12.66 242.22 33.13 240.17 38.33 240.17 50.15 246.47 77.24 239.86 89.68 237.81 103.54 237.34 120.4 245.37 128.27 254.82 134.89 249.46 146.86 248.99 160.56 243.17 168.44 244.58 199.94 248.68 206.4 249.31 215.38 246.63 218.53 252.14 233.65 260.17 240.11 270.09 256.02 279.38 259.01 293.39 271.46 293.41 271.53 309.95 272.47 322.86 257.67 337.34 256.72 345.22 259.4 367.73 257.98 374.34 242.55 409.61 244.12 410.87 256.88 427.09 280.03 434.18 275.62 443.47 283.81 447.25 281.14 459.84 282.55 473.7 281.29 495.27 265.39 498.73 251.52 510.07 242.55 507.87 234.98 512.12 222.86 528.18 223.09 536.84 228.13 552.98 227.58 566.12 231.13 593.36 216.79 617.45 213.64 644.62 211.99 641.07 220.41 635.09 225.3 622.18 225.38 621.78 237.9 625.56 248.06 612.65 249.95 610.45 254.67 629.11 277.75 634.85 286.65 649.81 298.15 649.47 302.56 649.89 298.15 657.54 304.89 669.81 311.27 677.23 316.32 680.46 320.31 685.62 324.84 690.46 328.3 702.41 334.41 712.41 333.08 713.38 324.84 717.9 322.97 723.06 324.84 729.2 326.7 734.36 326.17 741.14 323.77 742.75 324.84 744.69 331.49 743.72 336.01 742.43 338.4 747.27 340.53 749.86 340.8 757.28 340 775.35 337.61 786.4 320.2 785.93 345.25 789.87 352.96 790.65 364.78 798.06 374.07 799 387.3 784.67 399.75 775.07 404.79 776.17 412.98 781.84 425.42 772.39 434.09 772.39 453.3 770.34 458.66 756.96 459.29 749.4 468.9 740.9 469.53 727.2 473.46 717.75 481.18 696.02 492.05 691.77 496.93 683.9 498.2 683.09 496.9 683.59 497.96 677.6 498.59 655.72 492.29 634.3 497.01 630.52 503 631.78 510.88 637.92 513.55 651.94 514.34 656.66 523 644.22 532.61 637.77 544.11 633.52 546.95 606.12 545.53 600.45 558.29 601.87 577.82 605.33 581.92 591.79 588.22 586.44 589.63 567.38 605.7 570.69 610.43 572.9 617.67 577.93 622.71 621.39 629.64 634.46 636.89 649.58 636.42 653.35 642.72 646.11 648.7 648.79 654.69 644.54 660.36 644.06 667.76 648.63 675.48 638.24 704.62 630.05 721.63 620.29 720.53 619.34 711.87 615.72 699.26 608.79 699.74 608.64 707.14 594.94 708.87 589.43 702.1 573.52 700.68 560.14 688.55 547.39 699.42 534.16 700.84 525.34 708.09 505.19 709.19 503.93 714.54 498.26 714.86 489.29 711.24 474.64 720.69 474.49 715.17 468.5 704.15 464.88 702.73 465.67 701.79 465.04 694.38 460.47 689.34 458.9 682.73 453.07 680.36 452.44 672.96 446.77 672.49 438.74 675.32 436.07 671.7 430.17 667.04 413.87 672.64 401.11 680.99 390.41 689.97 387.41 700.53 382.85 703.05 382.37 710.45 387.57 711.71 388.36 715.8 368.2 731.56 364.74 742.9 356.24 744 351.99 742.74 347.89 725.89 321.6 710.76 308.37 712.34 297.03 700.37 288.53 699.42 282.39 682.88 252.16 682.25 239.25 674.06 242.71 670.28 259.88 668.08 262.87 663.82 260.82 655 251.37 645.08 245.07 644.61 230.43 646.81 215.32 630.12 195.48 617.36 196.11 608.85 202.56 588.06 201.93 575.61 Z"/>
</g>
</svg>