<?xml version="1.0"?>
<svg xmlns="http://www.w3.org/2000/svg" version="1.2" baseProfile="tiny" fill="#f9c113" width="800" height="988" viewBox="0 0 800 988" stroke-linecap="round" stroke-linejoin="round">
<g fill="#c0392b" id="id_136">
<path d="M 69.17 74.79 81.2 78.36 90.91 74.79 98.53 104.74 140.38 108.31 175.98 76.17 186.15 51.77 187.54 32.34 204.64 25.2 218.75 48.8 236.55 44.04 236.08 22.02 263.83 1 280.24 11.51 290.64 1.99 294.11 33.92 315.15 33.92 318.15 52.57 336.42 49.39 336.88 63.28 304.51 82.52 286.94 99.78 308.9 114.66 310.75 101.77 361.15 86.29 367.16 107.92 367.39 121.41 356.07 137.09 376.64 170.23 394.21 162.88 418.02 135.3 433.74 82.32 462.18 76.97 472.35 86.69 476.05 114.07 497.78 133.32 537.54 137.68 555.34 128.16 563.66 138.67 566.9 155.34 564.82 166.85 570.13 185.51 548.4 199.2 557.07 205.16 586.43 206.45 661.54 171.68 663.07 178.96 663.99 189.28 638.1 199.2 610.82 260.35 614.52 279.01 626.77 292.91 654.05 300.06 670.23 298.27 684.8 305.62 687.8 318.13 699.83 324.88 708.84 343.15 717.63 340.97 716.24 318.33 700.52 307.21 689.42 297.08 689.88 284.57 705.84 285.56 724.1 308.2 738.2 308.2 753.92 320.91 749.99 331.44 769.87 356.86 777.27 341.37 784.9 350.1 799 350.3 794.38 373.94 798.54 400.56 783.28 406.32 772.65 425.39 746.29 436.92 755.54 444.07 719.48 479.84 692.66 484.61 683.41 476.66 670 478.65 674.63 497.33 657.52 501.3 660.29 518.4 672.32 523.96 655.67 552.98 639.03 529.93 626.54 528.34 606.66 537.88 602.96 526.75 592.33 529.13 594.18 545.43 614.52 555.37 591.87 561.33 575.68 554.18 567.36 560.14 543.78 541.45 526.67 553.38 524.82 574.46 529.45 581.61 523.44 588.77 511.42 585.59 510.95 596.72 523.44 615.02 495.23 609.45 471.65 611.84 456.86 604.68 452.7 615.41 455.47 636.49 472.58 647.23 468.88 663.14 468.88 682.64 463.54 709.29 456.47 714.95 438.39 729.59 438.39 732.94 448.44 760.58 448.35 760.54 448.45 760.84 438.84 756.28 438.79 756.12 424.57 749.53 410.74 746.76 410.76 747.02 410.73 747.01 411.99 765.87 414.5 773.41 384.44 762.14 369.27 777.17 369.27 795.8 369.23 795.88 369.23 796.04 364.2 807.36 349.11 816.16 341.62 819.91 341.62 833.49 339.29 852.55 347.87 864.92 347.65 864.91 347.85 865.2 322.7 863.94 322.7 876.51 313.96 890.24 314.82 898.17 316.42 911.72 316.28 911.65 316.29 911.77 302.14 904.96 292.52 900.4 278.69 912.97 279.11 918.8 280.05 930.25 290.1 944.07 289.92 944.28 290.01 944.41 278.69 956.98 263.6 954.47 240.97 944.41 238.19 943.22 238.19 942.85 223.3 936.51 207.14 939.85 204.36 944.76 199.75 932.54 196.86 929.36 194.44 930.58 171.8 926.8 157.97 925.55 157.97 941.89 155.49 948.84 151.84 959.35 139.47 969.39 132.77 987 116.47 983.22 114.15 971.72 114.15 955.57 126.54 944.41 117.73 928.06 100.13 921.78 85.04 907.95 72.46 926.8 56.11 938.12 44.8 938.12 26.47 931 22.17 929.38 21.03 927.48 12.1 912.97 12.15 912.48 13.58 900.31 24.06 901.68 40.21 902.83 57.51 895.92 57.51 887.84 48.28 878.62 37.9 872.85 20.6 877.47 22.91 868.24 40.21 857.87 57.51 855.56 72.5 853.25 94.41 844.03 107.09 838.26 116.32 826.73 131.31 818.66 154.38 812.9 162.45 819.81 188.97 808.28 199.35 793.3 190.13 778.31 172.83 769.08 162.45 757.55 172.83 741.41 194.74 731.03 214.34 727.57 227.03 716.04 232.79 684.91 233.95 659.54 218.96 641.1 210.88 622.65 202.81 599.59 197.04 585.75 172.83 552.31 163.6 530.4 170.52 508.5 187.82 491.2 218.96 469.29 216.65 442.77 217.8 424.33 220.11 385.12 216.65 345.92 193.59 325.16 163.6 304.41 147.46 292.88 122.09 295.19 104.79 299.8 86.34 313.63 71.35 324.01 44.82 324.01 22.91 300.95 14.84 269.82 1 237.53 21.76 237.53 28.68 226 25.22 212.17 11.38 190.26 11.38 167.2 25.22 160.28 52.89 141.83 69.04 137.22 57.51 123.38 45.98 117.62 19.45 111.85 35.6 103.78 55.2 83.03 54.65 74.79 69.17 74.79 Z"/>
</g>
</svg>