<?xml version="1.0"?>
<svg xmlns="http://www.w3.org/2000/svg" version="1.2" baseProfile="tiny" fill="#f9c113" width="800" height="710" viewBox="0 0 800 710" stroke-linecap="round" stroke-linejoin="round">
<g fill="#c0392b" id="id_118">
<path d="M 580.25 7.95 596 31.3 661.33 5.47 661.33 88.92 642.67 180.32 724.33 265.77 789.67 283.65 785 313.46 661.33 319.42 689.33 357.18 787.33 351.22 799 379.04 584.33 422.77 479.33 424.76 442 460.53 414 446.62 395.33 460.53 437.33 526.12 439.67 526.12 558.67 621.53 558.67 647.38 521.33 645.39 470 663.28 467.67 681.17 442 709 432.67 691.11 407 653.34 327.67 623.52 346.33 591.72 295 597.68 166.67 500.28 197 424.76 29 404.88 1 247.88 2.03 219.44 61.08 202.68 55.25 141.08 82.08 125.18 126.42 135.12 160.25 122.2 272.25 121.21 281.58 170.88 334.08 157.97 331.75 112.26 408.75 1 580.25 7.95 Z"/>
</g>
</svg>