<?xml version="1.0"?>
<svg xmlns="http://www.w3.org/2000/svg" version="1.2" baseProfile="tiny" fill="#f9c113" width="800" height="483" viewBox="0 0 800 483" stroke-linecap="round" stroke-linejoin="round">
<g fill="#c0392b" id="id_189">
<path d="M 442.83 58.91 446.48 52.88 449.08 50.47 452.98 46.5 455.66 46.86 457.85 52.24 459.15 56.22 471.9 59.76 481.24 59.83 488.55 60.9 495.62 62.03 503.41 63.24 509.1 62.46 515.03 63.09 516.65 64.37 512.35 70.47 508.86 74.37 511.54 76.07 516.08 78.27 522.01 80.33 528.19 81.96 531.27 82.18 535.58 80.61 537.28 76.36 538.74 72.03 537.61 69.12 543.62 67.99 549.46 68.2 552.87 67.99 556.45 65.29 559.45 63.52 565.38 64.02 574.32 65.22 582.36 65.08 590.88 63.31 606.88 61.46 614.11 64.51 621.5 67.42 626.54 68.63 630.92 70.19 628.49 78.27 630.19 80.97 634.09 84.87 634.58 88.21 632.71 90.97 633.6 92.32 637.01 92.11 641.97 91.68 643.67 90.83 644.57 88.06 644.57 84.45 646.6 80.9 655.77 80.97 659.83 81.75 663.73 83.88 663.08 86.22 668.85 89.06 674.13 89.06 680.95 84.09 681.84 80.47 686.07 78.98 690.7 75.65 690.37 69.62 688.83 66.14 682.9 62.95 678.68 61.39 676.4 56.22 676.81 49.83 680.3 44.94 685.58 39.41 690.13 33.32 689.96 28.99 690.13 24.1 693.05 18.86 692.56 13.33 693.46 7.23 695.73 5.04 698.25 7.02 698.9 10.92 701.82 13.26 703.45 14.53 704.58 18.29 706.53 19.42 709.46 18.86 711.73 17.72 713.92 18.71 714.9 21.19 719.04 28.07 721.72 30.98 724.64 34.38 729.11 36.51 730.82 42.46 734.96 46.93 737.23 49.27 738.04 52.32 741.94 54.16 749.01 56 749.98 52.88 753.39 48.2 750.23 45.08 750.63 42.39 752.99 40.33 750.31 37 748.6 33.6 743.57 31.33 738.69 29.06 733.66 28 728.05 24.24 728.3 16.45 732.68 12.48 737.15 10.71 739.26 8.44 738.45 3.34 739.91 1 743.65 1.07 750.47 3.34 756.32 3.55 758.83 5.11 760.46 5.82 762.25 3.69 763.95 4.61 768.09 7.45 773.62 9.15 779.95 9.22 787.99 9.01 792.38 9.64 796.23 9.98 796.98 19.46 797.08 20.88 797.57 35.01 797.62 36.23 798.86 42.71 799 44.52 787.94 47.56 788.15 52.41 783.51 64.14 784.07 70.5 781.85 80.45 778.01 90.09 776.07 98.94 776.21 100.62 776.43 101.81 776.58 105.74 776.47 105.91 776.33 106.01 771.66 113.28 761.44 115.49 752.04 115.49 740.98 119.36 740.11 127.14 745.35 141.8 735.11 142.08 730.14 147.88 722.95 152.3 712.16 153.13 688.93 146.78 675.93 147.61 662.38 153.96 656.57 161.98 667.63 172.48 680.35 182.98 693.35 191.82 697.78 200.39 696.4 209.51 689.2 222.22 683.67 238.25 676.48 242.67 669.57 235.76 659.37 223.28 653.67 221.33 648.83 219.74 638.49 220.29 634.72 220.56 623.11 225.26 621.17 233 633.06 245.71 640.53 257.87 632.51 263.95 622.83 265.06 610.11 262.3 602.09 265.06 592.41 255.66 585.77 259.81 583.56 266.99 569.73 271.14 584.66 283.3 588.26 295.73 584.99 301.11 581.97 307.13 579.41 311.76 570.28 314.53 568.08 314.41 560.04 314.42 542.63 314.25 517.74 317.57 505.01 325.3 497.38 332.94 496.42 334.33 495.89 344.1 503.91 350.18 517.18 352.11 520.5 356.81 509.99 362.89 496.44 376.43 492.29 387.21 481.23 401.58 474.04 402.13 467.4 397.71 455.79 391.63 449.98 394.39 445.83 408.21 440.58 408.49 427.85 417.33 426.75 443.59 412.64 454.36 394.67 460.44 384.43 461.55 373.37 452.43 368.39 444.97 359.82 441.1 357.05 447.46 363.41 459.62 357.33 462.93 349.03 461.83 343.5 466.8 337.97 476.75 329.95 482 322.21 478.68 313.91 478.13 308.04 477.65 280.63 470.26 273.64 465.37 267.13 459.69 263.71 457.43 259.25 456.07 255.49 455.63 251.91 455.6 240.05 455.3 230.3 455.17 225.2 454.86 209.53 451.51 206.19 450.61 203.23 449.36 200.07 448.77 192.53 449.15 186.92 449.49 150.83 423.52 129.79 421.89 114.67 422.54 99.48 426.14 86.34 431.39 81.88 438.47 78.99 445.94 59.2 444.99 53.81 445.35 21.09 421.32 15.75 406.59 3.94 388.66 1 376.78 10.84 370.31 26.56 362.67 50.54 357.27 68.36 350.36 80.34 329.28 97.67 297.43 107.64 280.97 122.96 253.18 137.46 226.36 134.78 207.02 124.41 203.62 113.84 203.31 105.45 197.83 115.26 181.36 116.97 161.81 123.62 151.07 138.84 143.56 150.35 134.02 158.39 128.93 170.95 126.17 175.54 110.74 185.33 95.26 203.31 76.24 212.11 62.58 230.76 53.99 250.47 51.77 252.54 52.88 264.4 53.73 277.56 54.44 299.16 58.27 307.77 61.53 327.1 62.24 338.96 62.67 351.46 61.82 357.63 57.99 366.08 54.73 374.04 55.44 384.6 55.58 395.97 57.14 410.1 59.27 418.22 61.96 430.08 65.08 439.01 64.09 442.83 58.91 Z"/>
</g>
</svg>