<?xml version="1.0"?>
<svg xmlns="http://www.w3.org/2000/svg" version="1.2" baseProfile="tiny" fill="#f9c113" width="800" height="489" viewBox="0 0 800 489" stroke-linecap="round" stroke-linejoin="round">
<g fill="#c0392b" id="id_157">
<path d="M 378.93 150.33 385.1 148.46 389.41 143.13 398.59 145.86 410.8 148.22 422.28 144.86 430.46 144.24 436.49 138.41 440.94 138.16 444.24 149.21 442.09 158.77 443.23 161.5 446.54 162.62 450.55 153.93 455.72 151.07 461.46 142.88 465.05 139.03 465.91 134.56 464.19 130.59 471.8 124.63 477.54 117.06 492.61 116.68 497.2 121.15 501.51 120.66 506.68 115.69 507.39 120.9 511.56 119.41 519.45 114.88 535.82 114.88 540.41 121.21 542.42 124.32 554.19 131.14 562.8 134.25 575.29 147.04 575.43 154.61 571.84 159.33 584.47 171.25 584.62 175.97 579.45 182.3 593.52 181.81 593.09 157.84 595.67 156.1 608.59 155.73 613.76 150.26 624.09 148.65 647.92 148.15 641.89 141.82 634.85 141.57 631.41 140.7 624.23 141.82 620.5 139.59 619.35 135.61 608.87 135.37 602.7 141.08 596.53 144.43 593.23 139.46 592.37 132.76 599.83 127.05 607.73 119.6 601.99 119.1 598.83 115.13 598.11 109.42 584.04 108.18 585.05 98.75 592.08 100.49 594.95 99 595.96 95.27 605.57 98 614.04 100.11 622.22 105.08 631.84 104.58 631.12 96.39 629.11 88.7 626.24 86.59 624.81 77.03 633.71 77.53 638.59 76.54 641.46 78.65 644.76 78.52 645.91 82.12 649.64 83.11 651.07 86.46 654.38 86.21 654.38 88.7 658.39 89.07 660.12 93.41 675.48 91.05 678.35 93.66 679.64 114.39 683.51 114.64 685.09 108.68 693.13 109.3 693.85 117.86 697.29 119.1 702.6 119.85 712.08 129.03 727.15 136.73 739.49 141.45 748.97 142.81 753.47 142.23 745.92 149.78 737.35 159.58 737.35 167.42 737.64 168.8 738.59 178.6 742.13 185.4 744.26 189.45 748.86 198.08 742.53 209.01 740.23 217.07 734.48 223.97 735.63 230.87 736.93 231.8 739.75 233.77 741.05 228.53 741.96 225.12 750.01 220.52 769 220.52 779.36 223.97 783.44 224.68 783.75 224.69 792.61 226.15 799 230.94 799 235.87 796.17 238.78 784.7 239.5 783.53 247.78 780.41 258.52 778.31 268.25 778.31 282.55 784.37 294.46 780.51 301.62 773.03 306.8 753.47 306.8 745.41 297.6 739.66 284.94 735.05 276.31 729.3 267.11 719.52 267.69 708.01 261.93 699.38 258.48 691.33 261.36 685 270.56 678.09 279.77 675.22 288.97 667.16 294.15 660.26 298.17 655.08 307.38 651.05 313.7 651.05 324.63 652.2 338.44 651.05 349.94 645.87 341.89 639.54 334.41 633.79 324.06 628.61 310.25 625.16 298.17 610.77 287.24 602.72 283.22 589.48 283.79 577.4 282.64 564.74 283.79 558.99 291.27 546.91 299.32 540.58 305.65 541.15 312.55 545.76 319.46 548.06 330.96 548.06 340.74 541.73 347.64 535.98 353.97 534.82 363.75 544.61 371.23 548.06 380.43 544.61 387.91 522.17 387.91 517.56 380.43 511.23 368.93 507.21 359.72 499.15 351.09 492.82 351.09 472.11 352.25 464.63 361.45 453.7 366.63 451.97 375.83 456 395.39 451.4 410.34 447.94 412.07 443.34 418.97 441.04 424.73 441.04 431.63 436.44 429.33 428.38 422.42 419.18 415.52 407.67 413.79 400.19 417.82 393.86 427.6 378.9 426.45 363.36 432.78 353.01 441.98 347.25 451.76 334.59 452.34 317.33 450.61 305.83 450.61 298.92 454.06 296.62 462.11 301.8 472.47 298.35 488 273.61 487.43 271.3 478.8 266.13 469.59 260.95 462.11 251.74 455.21 246.56 450.04 237.36 446.58 231.6 455.21 230.83 455.89 230.33 456.64 225.73 460.67 224.58 469.87 225.54 477.07 218.95 477.07 214.34 469.59 213.77 461.54 207.44 461.54 201.11 463.84 194.21 467.29 187.3 472.47 176.37 466.14 175.22 456.36 175.26 456.24 175.22 455.91 178.57 445.29 175.22 440.26 158.53 443.13 152.2 450.61 144.15 451.76 134.94 450.61 125.74 446.01 120.4 441.32 121.28 436.37 121.14 423.55 117.48 415.21 115.83 411.23 117.55 408.12 117.26 396.05 119.56 388.52 117.34 382.86 111.38 381.24 98.03 379.38 69.75 379.25 62.36 378.01 55.62 375.4 46.79 374.21 37.03 370.3 35.16 368.43 31.43 370.05 30.14 376.52 28.06 377.88 27.27 382.61 20.52 376.52 22.96 368.74 9.68 366.25 5.31 362.33 5.16 354.06 4.52 347.97 2 339.08 1 336.96 1.14 333.73 6.67 330.19 12.27 327.57 15.78 324.03 24.68 325.03 28.85 323.6 32.72 321.11 39.97 316.69 45.14 314.52 55.04 313.59 62.58 308.43 72.05 302.89 79.59 299.04 80.3 294.57 88.77 290.84 105.57 287.29 111.59 286.86 118.7 287.79 123.15 286.67 129.11 283.44 139.94 280.64 144.68 279.65 147.62 276.79 148.05 272.81 144.11 268.71 137 264.17 127.1 263.12 117.62 261.32 107.65 261.69 98.25 264.36 89.71 263.8 84.47 262.68 77.72 266.29 77.36 257.21 78.87 251.25 77.94 243.05 77.36 237.08 79.51 229.94 78.51 221.86 78.72 220.06 89.27 219.19 94.8 216.96 97.89 216.15 100.4 211.43 103.48 210.93 105.71 207.83 106.43 200.62 107.14 194.66 114.47 192.67 126.81 191.93 140.88 189.32 151.93 188.76 152.65 186.28 152.57 182.12 152.14 179.07 148.91 177.64 142.24 178.39 130.76 180.69 127.46 179.01 128.46 174.42 126.31 170.44 126.52 159.39 121.5 160.38 115.69 164.54 109.87 168.89 103.77 170.26 91.43 172.62 89.06 172.24 89.49 166.78 94.08 162.06 96.24 152.13 99.75 143.62 100.26 137.1 98.25 134.5 97.6 129.53 98.96 124.63 107.79 115.44 113.96 112.34 114.11 108.37 100.69 111.53 100.54 100.8 102.84 97.38 101.55 93.54 103.2 84.35 97.17 83.61 96.95 78.33 87.27 71.08 78.94 60.41 76.93 53.58 80.3 44.71 83.46 39.01 76.79 40.31 73.06 39.63 70.61 32.62 59.56 27.29 56.48 26.05 55.09 21.62 63.6 20.91 69.04 19.22 80.27 15.77 82.42 14.22 82.41 14.2 90.64 8.25 102.25 1 102.65 1.2 110.16 5.55 118.86 14.25 114.12 18.2 110.16 23.74 108.19 30.06 107 34.81 105.81 42.32 121.24 47.46 132.71 46.27 146.15 45.09 160.39 47.46 161.18 58.93 168.69 66.44 176.6 69.21 184.91 66.44 184.99 66.37 189.73 62.42 190.52 57.74 202.31 57.34 202.34 57.28 202.39 57.28 205.19 50.91 210.56 50.98 213.15 52.71 214.58 57.8 221.47 59.79 229.8 65.62 232.67 65 236.83 58.3 240.56 48.62 248.03 48.87 252.62 48.87 262.67 55.32 265.82 60.41 274.58 61.4 280.61 60.03 278.74 62.64 278.74 76.23 271.85 82.49 273.07 95.15 281.68 100.98 292.45 104.27 308.88 107.06 315.7 108.99 327.9 110.17 329.48 113.46 336.8 110.91 342.54 110.6 340.46 121.71 336.37 125.56 331.49 125.31 329.91 124.32 325.89 125.31 328.05 129.97 328.84 137.1 332.07 141.95 330.85 145.17 323.31 151.69 336.44 153 337.88 155.29 334.08 160.88 343.55 162.68 348.93 158.21 356.68 153.8 362.71 154.18 363.28 147.91 371.11 148.77 375.05 152.19 378.93 150.33 Z"/>
</g>
</svg>