<?xml version="1.0"?>
<svg xmlns="http://www.w3.org/2000/svg" version="1.2" baseProfile="tiny" fill="#f9c113" width="800" height="668" viewBox="0 0 800 668" stroke-linecap="round" stroke-linejoin="round">
<g fill="#c0392b" id="id_163">
<path d="M 629.38 186.17 631.5 181.24 638.92 180.01 632.2 175.7 629.73 170.16 609.23 171.7 605.7 169.24 610.65 159.69 603.93 158.77 600.05 167.39 588.74 167.08 577.08 171.08 571.78 164.93 568.24 172.01 563.65 174.47 552.34 174.16 552.7 183.71 573.54 184.02 571.07 188.94 565.06 190.17 562.24 193.25 555.88 193.87 545.63 201.26 537.5 201.26 535.74 197.57 526.2 197.87 526.2 184.63 520.54 182.78 527.96 173.55 522.66 171.08 518.07 173.85 498.99 176.32 494.75 181.24 488.74 185.25 484.15 184.02 488.03 171.7 504.29 161.54 503.23 156.92 486.27 158.77 476.02 160.61 486.27 147.07 500.75 145.84 509.94 142.15 519.48 137.22 526.55 128.6 533.26 127.99 541.39 126.14 550.22 123.99 551.99 137.53 577.43 136.91 578.49 119.37 573.9 115.68 573.19 115.37 567.89 114.45 558.7 114.76 550.93 116.91 546.34 115.68 544.04 104.91 541.57 101.68 538.74 93.99 543.16 91.07 546.34 84.77 539.45 83.07 539.8 79.54 542.1 73.23 548.46 73.54 552.34 69.85 555.88 66.93 560.29 63.7 564.53 61.24 566.83 58.93 563.3 54.48 563.83 41.57 569.48 38.49 574.08 35.42 580.61 32.81 589.45 31.58 596.51 31.42 601.99 33.27 604.99 34.65 617.54 35.11 617.36 29.73 619.66 25.89 623.37 22.51 632.38 22.2 637.33 21.59 644.92 16.52 648.63 16.06 652.34 14.06 671.95 14.37 671.25 10.37 674.07 8.68 686.62 7.61 690.33 3.15 696.16 1 700.05 4.07 704.99 8.37 710.82 8.37 716.65 9.22 723.28 15.37 729.02 19.82 732.91 22.59 736.09 22.2 740.55 20.36 746.03 26.35 749.56 31.58 753.54 33.88 757.07 37.65 757.69 43.72 763.08 50.33 768.95 52.9 771.91 53.94 775.49 54.82 778.27 56.59 783.97 58.82 788.12 61.16 799 67.93 797.14 73.28 795.82 80.14 794.25 82.82 786.9 95.26 784.45 99.37 777.38 111.32 774.99 115.38 773.72 117.51 771.54 121.25 751.12 155.96 745.93 164.83 739.45 175.82 734.61 184.09 731.93 188.61 729.63 192.6 718.7 211.09 716.2 216.54 714.01 219.53 712.49 221.57 711.22 223.73 709.85 226.21 708.72 228.17 708.37 228.81 667.73 297.76 643.03 339.71 641.77 341.85 637.6 346.22 634.73 349.12 632.21 351.88 630.07 354.09 621.03 363.55 612.46 372.47 610.72 374.24 609.11 375.98 605.86 379.3 604.39 380.85 602.88 382.42 599.86 385.57 593.74 391.91 591.43 394.34 589.8 396 587.76 398.11 584.95 400.99 581.89 404.15 579.39 406.72 573.31 419.82 568.46 430.21 566.03 435.46 563.55 440.77 562.33 443.4 560.02 448.81 558.74 451.33 557.45 453.85 554.99 459.09 553.75 461.76 548.86 472.16 539.91 491.27 539.68 491.81 539.22 492.74 536.48 498.56 535.14 501.43 533.74 504.24 527.87 506.52 507.21 514.29 492.38 519.87 483.5 523.2 477.62 525.41 468.7 528.75 465.79 529.84 459.88 532.07 456.87 533.19 453.97 534.29 452.3 534.9 448.03 536.49 442.06 538.74 439.12 539.82 433.21 542.04 427.27 544.26 424.56 545.23 423.02 545.85 419.94 546.93 415.44 548.71 400.66 554.24 382.93 560.91 379.92 562.03 368.1 566.48 362.6 569.25 357.11 572.34 354.39 573.79 351.56 575.28 346.07 578.22 335.05 584.09 332.32 585.56 329.56 587.03 324.06 589.95 318.56 592.86 313.05 595.8 312.27 596.26 296.54 604.56 293.81 606.02 291.01 607.52 285.53 610.4 274.58 616.33 269.1 619.29 263.62 622.26 260.91 623.72 252.68 628.17 248.59 630.4 241.72 634.09 239.29 635.41 236.29 637.07 230.93 640.15 225.33 642.98 214.37 648.89 208.9 651.85 197.95 657.77 194.82 659.45 189.74 662.2 180.85 667 180.21 666.06 171.53 654.5 161.81 636.91 156.2 624.94 150.59 611.84 145.35 596.87 136.75 580.78 134.88 568.8 133.01 553.09 130.77 542.98 128.15 532.88 120.3 517.16 112.07 502.57 102.35 489.84 94.87 476.37 84.77 462.9 78.79 457.66 70.93 452.79 64.57 447.55 58.22 441.19 55.23 442.32 57.84 451.3 58.22 459.53 55.23 464.02 51.11 463.27 45.13 463.27 44.38 466.64 40.64 474.12 38.02 478.61 33.16 478.99 29.05 473.38 28.67 463.27 27.18 452.79 23.81 450.92 20.45 450.92 12.59 451.67 11.47 448.68 13.34 442.32 15.58 434.83 14.84 429.97 9.98 429.59 5.86 425.1 11.85 413.5 10.35 409.76 5.86 404.52 1 400.4 2.87 394.41 6.61 390.3 12.22 385.43 12.59 378.7 6.61 374.95 2.5 370.84 6.24 365.97 13.72 366.72 12.22 361.86 9.98 356.24 11.85 351.38 17.08 351.38 25.31 350.63 32.79 352.5 41.39 349.51 46.62 343.52 53.36 342.77 57.1 342.02 64.2 345.39 64.2 353.25 70.93 362.61 78.79 367.47 85.89 370.09 93.37 365.6 103.09 364.48 112.44 364.1 124.04 365.97 138.25 366.35 147.6 366.35 158.07 363.35 168.91 362.61 172.65 355.12 174.15 346.89 178.26 345.39 183.5 345.02 193.22 347.26 192.1 337.91 201.07 335.66 208.55 334.91 212.29 337.53 221.27 337.91 224.26 335.66 231.74 334.54 240.34 334.16 253.43 332.67 261.65 332.67 270.26 336.41 276.61 341.27 286.34 348.76 290.82 352.87 297.93 356.99 306.53 359.24 314.38 358.86 323.73 358.86 324.86 362.23 330.09 363.73 334.2 360.73 339.07 360.36 343.18 355.87 349.54 356.99 355.89 359.24 365.99 356.62 370.11 355.49 373.85 352.87 376.84 353.25 381.32 353.25 389.18 354.37 392.92 351 391.8 346.89 377.96 347.26 371.6 347.26 370.48 340.15 367.86 335.66 365.62 328.92 360.76 330.05 358.14 331.54 354.77 332.67 352.16 336.03 347.29 333.42 348.04 326.68 345.8 325.93 339.07 328.92 333.83 331.54 326.35 331.17 329.34 327.43 336.45 324.81 334.58 319.94 332.71 311.71 334.58 306.1 345.42 298.61 356.27 295.99 365.24 296.37 373.1 297.12 380.95 299.36 385.44 299.36 391.42 295.24 399.28 295.24 406.75 289.26 415.95 285.09 418.07 279.84 420.54 271.21 415.95 263.5 409.94 265.05 404.29 269.05 395.81 270.29 392.27 263.5 385.21 264.43 384.15 268.44 373.9 266.9 373.9 262.27 383.09 259.5 382.03 253.95 379.2 245.94 388.39 244.4 390.86 239.77 402.87 235.46 410.65 236.08 424.08 234.84 427.96 237.31 444.22 237.92 444.92 230.22 462.59 229.6 463.3 223.44 457.64 216.66 462.94 212.04 468.6 207.42 478.14 203.42 473.9 224.37 477.43 231.76 493.33 230.22 496.16 226.83 494.04 222.21 494.75 212.66 499.34 210.81 503.93 209.89 511.35 210.81 518.77 212.66 523.72 216.05 528.67 215.12 541.04 217.28 551.28 210.5 556.23 212.66 551.99 221.29 572.13 221.59 573.19 230.22 564 230.53 563.3 235.46 528.67 234.53 521.25 238.23 530.79 242.24 539.62 245.63 552.7 245.63 562.59 247.79 564.36 241.93 579.91 241.62 580.26 230.53 586.97 222.52 587.68 217.9 589.09 205.57 598.28 203.42 605.7 201.88 613.47 204.96 618.07 200.03 625.84 197.87 631.14 193.56 629.38 186.17 Z"/>
</g>
</svg>