<?xml version="1.0"?>
<svg xmlns="http://www.w3.org/2000/svg" version="1.2" baseProfile="tiny" fill="#f9c113" width="800" height="633" viewBox="0 0 800 633" stroke-linecap="round" stroke-linejoin="round">
<g fill="#c0392b" id="id_124">
<path d="M 548.76 13.35 568.07 9.92 597.04 1 597.04 10.61 590.6 21.58 594.62 28.44 606.69 51.77 615.54 56.58 613.13 68.24 616.35 73.05 648.53 81.97 657.38 74.42 668.65 83.34 682.33 76.48 699.22 80.59 700.03 97.75 709.69 108.73 722.56 114.91 751.53 114.22 748.31 144.42 768.42 184.91 761.18 216.49 751.53 217.86 737.85 232.28 766.81 250.13 761.99 261.8 749.92 277.59 758.77 285.14 749.92 329.08 781.3 349.68 781.3 356.55 799 369.6 794.17 377.15 766.01 387.45 757.96 376.46 741.07 373.72 701.64 355.18 692.79 359.3 659.8 348.31 663.02 331.83 648.53 319.47 642.9 302.99 626 305.05 620.37 294.75 618.76 288.57 621.98 271.41 609.91 265.23 609.11 234.34 582.55 237.08 553.59 206.88 543.93 183.54 523.81 165.01 515.77 197.27 498.87 193.15 494.04 208.25 505.31 218.55 503.7 231.59 513.35 239.83 526.23 278.96 545.54 281.71 553.59 299.56 561.63 296.81 572.09 305.74 584.97 305.05 587.38 349 571.29 362.04 578.53 381.27 576.92 388.82 578.53 406.68 548.76 402.56 538.3 408.74 536.69 423.16 527.84 430.72 531.06 452.01 482.78 489.1 469.1 486.35 465.08 492.53 474.73 524.13 473.93 542 432.09 524.82 429.67 508.33 417.6 504.21 404.73 510.39 383.81 503.53 368.52 508.33 359.67 522.76 347.6 512.46 345.18 539.25 381.39 570.85 389.44 611.39 387.83 629.94 341.97 624.44 341.16 625.13 321.04 632 307.37 629.25 256.88 620.49 215.03 610.87 199.75 595.07 194.92 581.33 187.68 575.14 154.69 561.4 113.65 573.08 99.17 586.14 99.17 595.07 65.37 595.07 19.51 560.03 25.14 549.72 38.01 540.79 42.04 518.12 32.38 497.51 40.43 483.78 43.65 461.11 13.87 450.12 6.63 426.08 11.46 384.88 1 379.38 11.46 371.83 14.68 357.41 42.84 348.48 47.67 332 66.98 320.33 58.93 280.51 63.76 265.4 82.27 264.03 95.14 244.81 95.95 215.63 102.38 175.82 84.68 138.07 100.78 127.09 116.06 127.09 130.55 125.03 129.74 162.78 115.26 165.52 174.8 216.32 182.04 204.65 211.01 203.28 219.86 182 218.25 175.82 199.75 176.51 199.75 149.74 215.84 152.48 246.41 118.17 268.14 81.11 307.37 90.2 309.78 106.67 337.14 122.46 342.77 104.61 358.86 103.24 372.54 112.85 382.2 125.2 394.27 126.57 424.84 71.67 442.55 74.42 477.95 73.73 482.78 66.87 500.48 69.61 523.81 76.48 524.62 69.61 550.37 68.24 553.59 32.56 548.76 13.35 Z"/>
</g>
</svg>