<?xml version="1.0"?>
<svg xmlns="http://www.w3.org/2000/svg" version="1.2" baseProfile="tiny" fill="#f9c113" width="800" height="332" viewBox="0 0 800 332" stroke-linecap="round" stroke-linejoin="round">
<g fill="#c0392b" id="id_107">
<path d="M 492.87 40.54 495.15 37.01 503.11 47.1 512.8 40.82 529.02 62.55 535.22 69.08 544.14 65.77 549.1 61.39 555.52 72.43 563.19 83.06 569.24 79.37 576.25 81.77 594.31 70.16 604.29 80.88 605.87 67.73 606.86 65.14 609.46 63.88 619.12 76.47 629.06 71.58 629.35 66.59 635.89 63 635.7 59.34 643.37 55.36 651.56 68.23 645.46 70.91 647.23 73.85 650.86 77.19 655.19 78.45 655.34 83.53 660.8 84.92 659.7 87.82 659.89 91.01 664.14 94.64 674.24 93.66 677.69 91.55 679.56 88.74 683.15 89.43 688.06 90.74 720.46 92.93 733.1 87.44 744.63 75.9 760.01 81.4 775.38 81.4 792.41 88.54 797.9 102.27 799 113.81 787.47 118.2 765.5 119.85 756.16 125.89 742.98 134.13 733.64 144.02 738.04 159.4 740.43 159.3 739.69 159.95 730.9 159.95 721.56 153.36 712.78 155.01 706.19 163.25 707.28 173.14 714.42 178.63 739.69 178.63 736.39 189.07 728.15 195.11 724.86 198.96 735.29 213.24 721.56 217.08 715 218.73 716.1 237.87 716.07 237.92 716.07 237.96 710.58 247.85 697.95 250.59 683.67 250.59 679.27 244 674.33 251.69 678.18 260.48 683.67 268.72 674.88 271.47 667.69 271.47 667.68 271.38 664.48 271.38 654.6 274.67 640.33 274.67 635.77 274.5 635.78 274.6 625.45 274.22 615.02 274.77 601.29 276.96 605.13 261.58 599.64 258.28 593.6 266.53 589.21 275.31 583.16 280.81 573.28 276.41 566.98 274.61 566.99 274.49 565.65 274.11 546.98 275.2 544.01 272.24 543.9 272.29 537.58 265.98 534.83 258.83 527.15 267.62 526.6 275.31 518.91 262.68 517.26 253.34 511.77 243.45 503.53 235.21 494.19 231.37 484.31 236.86 473.87 240.16 461.79 239.61 446.41 247.3 435.43 245.65 432.21 251.01 443.17 254.85 443.17 268.59 443.12 268.61 443.12 268.72 434.88 272.02 421.15 272.02 411.83 272.57 409.14 284.4 409.13 284.37 408.91 284.15 397.12 273.22 390.94 270.82 390.08 263.98 384.8 255.17 373.62 251.3 372.98 251.16 354.44 248.57 354.42 248.58 354.83 247.15 347.79 252.49 338.59 259.98 328.49 259.19 324.51 261.8 319.29 262.26 315.43 264.07 306.46 266.23 302.25 271.23 299.42 274.52 290.22 280.32 286.02 281.79 281.7 283.27 274.32 289.52 270.01 287.7 265.12 284.18 261.16 280.26 259.4 283.78 257.63 295.19 257.46 295.1 257.53 295.18 252.59 293.21 252.29 292.24 251.04 288.04 249.68 282.02 247.08 274.1 240.91 274.98 233.43 279.82 230.35 285.98 226.48 291.65 224.63 294.33 222.87 286.86 217.15 286.86 209.23 289.95 199.55 296.99 192.95 297.43 190.75 303.59 192.95 315.47 192.53 323.99 192.56 324.27 187.21 331 183.27 328.24 183.71 314.6 184.95 311.44 186.77 306.67 180.52 303.94 173.48 303.26 166.56 307.58 163.04 307.8 152.91 308.43 140.15 306.67 139.3 300.08 127.84 289.97 127.68 289.85 122.99 286.86 125.19 303.15 113.97 299.29 111.14 298.26 109.1 294.85 109.06 294.85 105.39 288.62 104.16 289.57 103.97 289.07 103.07 290.41 100.81 292.15 99.83 292.83 96.07 293.91 92.67 293.91 89.96 291.5 88.96 290.56 87.3 289.06 83.78 291.22 83 292.5 82.96 292.51 77.63 300.5 76.39 301.67 74.68 303.6 73.39 305.98 68.9 311.03 68.86 301.29 68.86 292.13 65.81 290.55 65.83 290.54 53.46 284.18 38.47 284.18 31.09 280.88 31.07 280.89 21.82 276.72 13.43 275.7 1 273.79 2.05 269.28 3.88 262.11 9.8 239.32 12.31 233.09 21.71 215.87 33.09 195.32 44.88 173.39 54.17 156.31 58.72 148.03 69.34 128.91 74.46 118.81 77.24 113.99 82.99 103.72 102.59 69.37 112.85 49.54 132.06 37.72 141.01 33.52 144.09 39.14 145.3 42.29 152.83 54.27 158.48 50.36 161.05 53.04 163.58 51.28 167.98 57.55 171.69 55.6 173.78 58.78 177.42 56.14 179.32 60.17 196.98 49.92 193.53 46.2 203.91 40.9 207.55 44.09 214.63 39.77 214.48 45.41 219.84 41.94 221.49 34.82 225.82 29.93 222.66 26.87 229.34 22.93 240.87 38 250.11 52.32 253.49 56.26 257.38 53.9 264.32 63.93 257.97 67.3 247.69 71.43 244.65 70.87 241.78 68.66 230.26 76.89 228.57 72.38 199.91 89.2 206.37 93.96 208.79 92.48 211.66 95.57 215.4 93.71 216.65 96.86 219.25 95 221.78 97.62 225.56 95.51 227.8 98.22 230.19 95.19 233.67 98.72 237.01 96.48 239.8 97.81 240.87 99.61 246.41 97.46 249.09 99.17 253.78 95.25 259.11 98.31 283.99 84.08 281.05 80.05 274.52 82.44 269.9 74.75 273.97 72.35 271.25 69.38 274.41 67.14 271.33 63.36 290.48 54.12 295.58 53.68 316.61 45.76 325.79 40.4 333.6 31.76 344.39 24.41 348.8 20.18 352.25 15.71 356.83 20.86 365.02 15.82 390.45 1 407.22 22.82 425.9 10.71 429.5 14.05 435.7 8.98 441.17 15.57 442.89 14.53 446.08 18.84 451.73 15.35 456.69 22.72 469.06 15.16 480.95 31.24 477.46 33.63 492.32 48.68 492.87 40.54 Z"/>
</g>
</svg>