<?xml version="1.0"?>
<svg xmlns="http://www.w3.org/2000/svg" version="1.2" baseProfile="tiny" fill="#f9c113" width="800" height="950" viewBox="0 0 800 950" stroke-linecap="round" stroke-linejoin="round">
<g fill="#c0392b" id="id_143">
<path d="M 731.02 390.47 736.09 390.47 748.27 382.6 753.34 380.85 754.35 379.1 768.56 372.97 774.65 368.6 773.63 408.84 776.68 408.84 782.76 407.97 780.74 418.46 775.66 421.09 771.6 421.96 768.56 428.96 772.62 437.71 775.66 443.84 777.69 447.34 777.69 455.21 778.71 455.21 776.68 461.34 779.72 470.09 774.65 480.59 771.6 489.34 799 498.97 787.84 506.85 751.31 495.47 748.27 498.09 745.22 508.6 740.15 519.1 738.12 523.48 746.24 533.11 759.43 532.23 762.47 528.73 768.56 537.48 760.44 562 776.68 581.26 774.65 590.02 789.87 581.26 786.82 591.77 781.75 596.15 782.45 608.07 768.57 608.07 747.76 605.3 728.34 594.2 713.08 580.32 699.2 585.88 688.8 589.35 688.8 605.31 686.71 620.57 687.4 635.14 687.36 635.22 687.37 635.33 678.34 651.29 661.69 670.03 647.81 666.56 638.78 662.4 633.23 655.46 619.35 649.21 613.8 640.88 617.27 624.23 613.17 617.98 613.21 617.76 604.15 603.93 590.97 602.54 579.78 623.54 570.07 633.95 548.55 633.25 537.45 651.99 527.77 661.66 521.58 676.1 521.53 676.16 521.48 676.28 504.82 696.4 491.02 705.37 485.5 726.76 483.42 749.66 483.32 749.7 483.31 749.84 470.82 755.39 454.16 765.8 436.81 772.04 427.9 785.06 416.11 802.41 401.53 810.74 389.73 797.56 383.49 782.99 378.63 762.17 380.02 746.21 373.77 730.25 351.56 719.85 351.48 719.89 351.48 720.02 351.43 720 338.94 725.55 329.22 733.87 318.81 735.26 312.56 726.93 304.28 723.48 301.59 728.19 287.71 733.74 269.67 737.21 261.34 749.01 257.17 760.81 257.87 776.07 257.87 792.04 249.54 804.53 249.49 804.53 249.4 804.66 239.82 804.66 239.82 819.11 242.6 830.9 231.5 844.09 224.56 862.13 224.44 862.19 224.42 862.26 209.23 869.85 196.1 886.43 191.25 899.61 190.55 910.72 182.92 928.07 182.82 928.07 182.77 928.18 162.08 928.87 160.7 937.09 152.23 944.14 137.66 949 123.78 944.14 110.59 930.96 109.2 910.83 84.21 906.67 60.61 908.75 40.49 910.83 13.42 901.81 15.5 888.63 17.58 880.3 21.05 869.2 27.99 859.48 36.32 852.54 21.05 837.27 8.44 829.98 8.55 829.92 7.97 829.58 7.26 829.22 11.12 826.81 15.16 807.63 12.13 788.44 18.19 768.25 19.19 749.06 22.22 722.81 18.18 698.57 1 680.4 7.06 665.25 25.24 648.08 24.23 620.84 34.26 604.76 46.36 605.77 64.64 579.45 65.68 574.44 70.69 549.18 94.91 513.9 94.9 513.79 94.92 513.77 94.5 508.47 94.48 508.47 92.9 489.53 94.91 463.38 93.45 428.73 92.82 411.82 93.87 381.55 107.96 351.34 129.99 333.32 161.52 304.93 173.63 287.82 173.65 287.6 173.68 287.55 175.71 265.31 191.86 233.01 186.32 213.65 186.15 213.7 179.89 191.37 178.64 186.78 181.77 174.46 186.78 155.47 211 155.47 226.03 140.23 222.49 132.29 218.94 124.15 212.1 98.46 217.04 76.72 234.19 75.71 259.43 75.71 274.58 69.65 274.58 69.44 274.67 69.41 274.67 44.16 254.53 37.1 260.44 27.25 280.64 30.28 308.91 16.14 331.13 17.15 350.31 11.1 368.49 1 385.66 8.07 400.81 23.21 410.9 41.38 413.93 58.55 428.07 81.77 429.08 67.63 443.22 51.48 448.27 64.61 459.88 76.21 460.1 76.12 465.54 81.56 499.88 79.55 502.34 80.25 502.33 80.48 513.9 83.79 532.08 91.87 543.19 81.77 551.27 65.62 562.38 50.47 572.48 56.53 565.41 84.8 590.65 80.76 609.84 79.75 628.82 80.45 628.81 80.27 637.19 80.58 663.43 80.59 681.6 74.53 687.49 74.53 687.49 74.7 700.72 74.7 716.81 69.67 717.57 77.98 717.57 83 720.87 84.96 722.39 79.72 727.21 70.99 728.73 64.44 730 71.86 735.33 71.86 738.63 72.08 739.64 72.08 740.91 75.14 743.19 77.54 745.47 80.16 746.24 83.22 751.06 87.58 755.62 99.38 757.4 104.4 761.2 114.23 760.19 119.69 755.62 126.46 755.62 127.77 742.18 136.07 746.24 136.94 749.28 136.51 746.74 139.13 743.19 141.53 742.68 145.68 747.25 151.36 744.46 159 744.21 160.31 743.95 164.03 745.22 167.09 745.22 170.14 744.71 171.89 743.95 198.33 756.13 239.41 763.23 267.38 752.07 282.24 743.95 293.61 740.91 302.35 742.94 310.22 747 318.09 756.81 342.52 751.95 348.33 728.2 346.71 725.23 351.59 717.68 353.69 716.6 367.18 717.82 387.84 731.02 390.47 Z"/>
</g>
</svg>