<?xml version="1.0"?>
<svg xmlns="http://www.w3.org/2000/svg" version="1.2" baseProfile="tiny" fill="#f9c113" width="800" height="1239" viewBox="0 0 800 1239" stroke-linecap="round" stroke-linejoin="round">
<g fill="#c0392b" id="id_184">
<path d="M 223.74 1014.24 210.08 1012.31 190.6 1009.99 180.97 1004.38 172.02 995.29 169.33 987.17 168.21 981.75 164.18 977.89 163.96 970.35 160.6 964.55 160.37 956.82 158.81 951.02 160.37 945.99 159.03 940 159.03 931.5 154.78 921.25 149.4 914.11 146.49 898.46 149.18 883.97 153.21 870.26 157.46 862.15 158.81 847.86 161.83 837.72 161.16 833.38 160.15 825.85 161.94 816.58 162.28 812.63 160.71 808.28 163.51 801.05 168.21 792.56 169.33 782.72 173.47 772.39 174.82 767.76 176.94 764.77 183.44 754.26 183.66 751.85 182.54 748.96 180.19 748.47 182.2 739.8 183.55 728.42 183.77 718.58 184.67 707.59 186.79 702.68 187.8 698.15 189.7 694 192.39 683.21 194.29 673.09 192.39 664.23 193.29 657.58 195.53 645.83 194.63 636.58 192.5 620.69 194.07 613.37 196.42 605.18 196.76 601.33 194.41 599.31 192.06 598.73 187.58 602.01 175.04 607.21 168.66 608.17 156.34 608.46 152.76 614.91 147.61 626.47 146.94 632.34 145.71 638.22 144.81 647.85 142.46 661.05 141.34 664.8 138.77 678.01 135.97 678.39 128.92 677.23 121.08 676.66 115.71 676.08 116.83 668.37 115.59 664.52 113.13 657.68 114.36 651.41 117.83 644.86 117.16 638.99 115.26 638.5 109.1 640.05 103.73 639.76 102.27 636.1 98.47 634.94 93.99 632.53 91.41 628.58 88.5 624.92 88.17 630.7 90.29 636.1 90.74 642.84 88.95 646.98 88.5 655.17 84.81 663.07 85.26 666.83 88.17 671.26 87.05 672.9 81.11 673.38 76.64 675.02 66.78 675.11 53.02 680.41 42.49 684.08 29.51 689.18 18.87 691.88 8.46 696.61 4.21 701.23 1 702.32 24.1 673.68 34.93 634.24 26.13 615.52 19.88 578.95 25.62 554.42 46.99 539.09 72.36 534.12 76.68 520.09 80.55 499.78 103.78 500.59 130.41 498.77 130.98 474.39 139.12 444.3 152.44 432.2 174.36 434.56 206.93 432.6 210.57 410.28 209.55 389.45 200.01 388.19 174.23 384.2 179.77 375.56 186.51 353.07 187.17 322.2 190.37 273.46 192.4 236.12 167.03 217.3 175.03 211.78 178.57 203.36 180.35 187.41 180.43 180.98 172.5 157.01 171.27 149.91 177.02 133.08 195.67 122.05 204.17 119.42 227.29 111.29 237.08 110.88 254.82 110.71 262.5 109.85 272.9 102.79 280.86 101.49 304.95 100.46 316.63 96.95 317.5 90.3 317.32 83.65 315.62 70.56 311.99 63.9 314.6 44.61 332.81 48.22 343.42 46.04 345.88 39.62 349.13 33.86 355.37 20.8 359.14 15.05 373.28 5.78 381.23 4.26 402.17 1 401.43 1.4 393.02 5.1 378.32 24.91 370.01 47.28 368.49 46.7 362.36 58.23 359.8 63.29 358.75 65.03 354.95 70.25 347.83 79.75 347.83 90.39 343.27 92.92 349.69 102.56 342.99 124.9 342.99 141.21 343.37 144.37 357.34 162.34 358.66 164.11 362.94 179.52 363.38 182.16 364.08 183.97 364.87 186.05 375.21 217.09 375.39 219.05 375.39 225.41 375.26 229.18 375.39 232.76 375.39 235.33 374.52 238.84 375.39 240.56 375.73 243.71 379.77 275.03 381.89 278.56 386.13 284.07 389.32 286.36 404.43 295.81 411.14 306.98 411.14 330.21 410.83 332.06 407.92 347.61 407.66 351.01 406.97 366.16 406.33 368.17 406.77 370.63 406.67 372.69 406.34 375.55 405.33 384.01 404.02 394.9 403.95 398.96 403.32 400.81 408.78 431.4 409.73 434 414.49 444.94 417.58 452.21 419.42 456.31 421.65 461.49 422.59 462.87 423.65 466.13 426.77 473.42 437.95 491.29 441.42 504.01 441.65 507.64 442.96 509.69 444.54 515.48 444.88 517.85 446.82 534.33 447.4 538.37 448.78 547.69 449.08 550.78 449.66 553.59 451.35 565.02 464.76 587.36 478.16 615.28 483.56 636.88 483.75 639.46 483.75 662.86 483.36 668.37 482.63 677.84 487.97 691.71 489.29 698.82 490.45 705.77 491.57 718.05 496.86 730.76 497.59 733.77 501.5 754.28 503.73 759.66 505.68 764.44 507.86 768.94 508.86 771.2 510.28 773.78 512.2 779.96 513.52 783.92 514.17 785.46 522.07 797.31 522.37 797.73 527.32 796.25 529.23 795.37 533.25 794.85 546.31 791.78 568.65 792.89 574.63 795.14 577.4 796.72 579.22 793.39 582.05 787.6 582.06 780.72 575.45 774 573.12 771.67 574.78 765.56 574.82 762.96 575.75 761.51 576.47 759.38 578.87 758.94 580.56 758.5 583.31 758.62 586.41 758.28 591.81 758.27 632.32 758.27 638.61 759.98 641.4 760.07 643.98 761.44 642.41 765.15 639.03 770.55 635.97 774.48 631.43 780.16 631.9 785.46 632.24 787.86 640.14 788.43 649.08 785.08 662.16 783.99 669.51 784.4 680.36 785.08 689.3 804.07 697.12 797.36 698.23 781.72 709.41 773.9 720.58 776.14 723.02 776.03 723.72 792.92 737.34 811.36 741.87 812.5 744.21 813.47 748.25 814.32 753.58 815.76 753.57 832.85 753.96 835.97 754.02 842.54 762.36 861.42 764.56 876.35 753.58 896.98 753.58 910.81 753.58 914.42 753.14 933.42 752.76 941.79 753.82 949.94 754.02 954.94 754.46 968.55 757.53 985.23 754.41 992.36 753.14 994.45 745.68 995.33 733.82 1003.67 734 1009.05 734.7 1016.84 756.22 1038.36 769.83 1055.04 773.61 1070.58 774.23 1083.95 774.38 1087.38 774.77 1098.1 775.54 1122.66 783.88 1139.34 793.98 1159.98 799 1168.18 795.68 1169.78 793.89 1171.72 788.52 1175.4 785.83 1178.89 778.89 1182.57 770.16 1184.31 764.11 1183.92 761.2 1182.18 763.44 1176.56 756.72 1180.63 749.34 1180.44 743.74 1184.12 740.38 1190.9 739.26 1196.13 744.41 1199.04 741.95 1205.24 741.72 1212.02 744.19 1223.65 748.22 1227.53 748.66 1232.77 745.75 1238 742.62 1237.81 739.04 1232.77 728.96 1226.17 722.69 1221.91 716.87 1216.87 715.53 1210.86 717.77 1203.88 721.57 1194.97 723.81 1188.96 727.62 1183.54 734.33 1177.53 741.05 1171.33 743.74 1163.58 740.6 1155.25 739.04 1152.73 735.23 1152.35 730.75 1155.25 725.16 1156.61 721.13 1159.13 708.36 1159.51 703.44 1160.1 705.45 1164.74 701.87 1165.71 694.71 1166.1 687.09 1163.97 681.27 1162.61 682.84 1159.32 682.84 1153.32 684.85 1134.72 687.32 1124.07 688.66 1119.62 689.56 1115.74 685.97 1113.23 678.58 1114.39 672.32 1116.91 668.29 1122.33 662.24 1126.39 661.12 1122.91 660 1117.29 657.99 1112.07 655.08 1120 648.81 1129.11 637.61 1137.82 634.03 1140.92 633.8 1144.02 639.4 1144.02 645 1145.37 650.82 1149.05 650.82 1151.77 645.67 1155.64 638.51 1160.48 638.28 1164.55 640.75 1167.46 640.3 1170.75 635.37 1176.17 628.88 1178.5 619.7 1175.21 614.33 1175.59 612.76 1180.24 607.61 1181.79 599.77 1186.06 594.18 1190.9 587.46 1195.16 586.79 1188.58 589.36 1185.33 592.5 1182.37 593.45 1177.97 594.96 1173.8 594.34 1169.78 590.87 1166.05 588.07 1164.21 585.67 1162.27 588.02 1160.24 593.17 1157.87 596.02 1155.69 596.41 1152.59 595.07 1149.49 593.17 1145.62 590.48 1143.92 585.67 1142.66 581.92 1140.05 580.29 1137.24 581.13 1133.8 580.41 1129.3 579.9 1127.22 576.04 1129.98 571.28 1131.38 561.99 1130.9 554.55 1127.41 552.81 1121.6 557.34 1114.29 559.25 1109.65 559.02 1107.56 557.96 1104.9 553.37 1104.61 550.24 1102.24 549.73 1099.29 552.92 1096.09 557.96 1091.3 559.08 1083.9 561.26 1080.56 564.96 1074.56 572.12 1068.27 575.98 1066.58 579.96 1059.22 581.02 1053.13 580.97 1047.61 583.09 1041.23 587.74 1035.81 591.71 1034.8 598.88 1036.49 601.62 1036.92 608.78 1029.91 613.49 1028.75 618.58 1027.06 624.12 1021.45 623.84 1014.87 623.51 1008.78 623.17 1003.61 619.81 999.01 619.2 994.85 620.43 989.59 623.62 988.67 625.35 989.78 628.26 988.38 633.75 984.85 638.62 980.5 642.26 976.92 643.77 971.51 644.61 966.19 649.76 963.82 655.08 962.9 657.76 964.64 662.69 964.84 665.21 963.34 667.89 956.67 668.23 957.88 669.01 963.58 672.04 963.48 678.75 963.82 681.1 965.08 680.21 969.86 678.42 975.86 679.31 980.11 677.86 984.51 680.82 984.56 684.85 982.14 689.84 976 697.17 972.04 699.57 969.19 698.9 959.91 695.82 958.89 692.35 956.67 694.2 950.82 695.1 945.65 696.38 945.46 699.85 950.53 704.33 951.74 707.86 949.08 715.53 939.76 722.36 930.63 726.33 923.91 725.49 919.85 722.64 916.62 720.17 914.25 715.58 913.62 705.06 913.57 701.98 912.99 692.75 907.39 689.72 905.8 682.84 906.47 678.02 910.39 673.32 913.96 668.73 913.43 657.87 906.23 653 899.86 650.09 896.28 644.16 896.23 638.9 896.72 632.57 901.64 629.16 905.99 627.03 907.58 616.56 907.78 601.62 907.68 596.08 907.54 594.51 909.52 596.25 915.17 601.9 922.9 605.54 927.92 605.59 935.41 604.19 944.59 606.83 943.58 611.19 940.14 620.65 940.43 628.04 941.3 630.17 945.36 627.87 948.7 622.78 952.27 617.12 954.21 614.38 955.95 614.05 960.97 608.95 965.56 604.47 969.04 602.85 973.49 598.49 980.4 593.17 986.06 588.35 986.54 580.13 984.85 572.01 985.62 567.14 987.8 556.62 996.5 552.47 1001.28 548.78 1004.52 550.91 1009.5 553.54 1012.55 550.91 1018.45 552.14 1023.58 562.1 1024.35 563.11 1028.51 557.51 1032.76 549.9 1035.38 546.54 1037.89 543.18 1042.15 543.85 1045.53 545.09 1046.69 538.7 1051.72 534.79 1052.98 526.5 1053.37 516.43 1056.18 510.83 1056.27 507.47 1054.92 508.7 1052.79 513.18 1050.95 513.74 1045.92 512.73 1038.66 512.06 1037.5 516.03 1035.04 519.06 1031.85 522.98 1029.04 528.13 1026.14 530.81 1022.17 532.27 1015.31 533.95 1008.34 534.73 1003.32 537.53 998.48 539.66 994.32 541.78 992.1 542.23 983.49 545.81 977.69 550.96 971.31 553.65 966.38 555.44 964.35 556.9 954.4 556.22 949.08 553.76 945.41 549.4 944.44 544.13 943.58 539.54 941.55 539.32 937.87 539.99 931.21 541.11 926.86 541.34 924.06 538.09 922.51 535.07 919.81 532.49 918.26 527.79 920.48 521.86 921.64 519.62 920.48 518.95 915.94 513.68 915.55 510.1 916.62 510.33 923.09 509.54 926.38 505.4 928.5 501.15 929.08 494.99 931.11 488.61 931.5 485.14 932.85 481.22 939.03 477.08 944.54 476.07 950.53 479.76 946.09 483.35 944.06 486.7 942.9 487.82 946.47 489.5 950.82 489.73 954.3 492.97 956.82 489.56 962.86 482.67 964.06 468.79 968.12 458.05 976.82 451.1 984.65 443.72 992.2 438.12 998.87 433.64 1000.9 442.04 1001.48 444.95 1004.19 447.19 1011.92 450.54 1011.24 453.57 1008.25 455.69 1003.61 458.38 1000.41 460.96 1000.51 461.18 1009.5 463.2 1015.98 465.32 1018.88 466.55 1022.85 463.75 1038.13 457.37 1045.39 455.58 1056.13 448.31 1063.96 436.55 1064.35 427.48 1063.96 424.35 1066.77 420.99 1071.9 418.98 1073.64 412.03 1074.41 400.17 1072.96 394.01 1071.12 386.85 1069.29 382.82 1070.35 379.57 1072.58 378.34 1076.64 374.42 1080.03 368.93 1080.12 355.84 1075 353.71 1069.77 346.43 1063.29 342.96 1057.97 338.82 1051.58 335.69 1047.61 337.03 1042.78 345.43 1035.13 344.87 1027.49 336.36 1022.08 327.85 1018.59 319.23 1018.11 307.59 1020.63 297.85 1024.11 294.15 1022.85 286.76 1017.63 279.38 1016.47 271.09 1019.08 260.57 1020.92 249.93 1019.37 241.09 1018.3 234.34 1020.14 234.26 1018.5 223.74 1014.24 Z"/>
</g>
</svg>