<?xml version="1.0"?>
<svg xmlns="http://www.w3.org/2000/svg" version="1.2" baseProfile="tiny" fill="#f9c113" width="800" height="629" viewBox="0 0 800 629" stroke-linecap="round" stroke-linejoin="round">
<g fill="#c0392b" id="id_108">
<path d="M 699.96 379.31 695.3 372.99 692.56 370.41 676.4 364.79 674.48 362.45 672.84 358.94 669.82 358 663.52 352.85 661.88 348.4 656.95 345.83 650.92 345.12 650.37 347.23 649.28 350.98 646.81 353.08 638.86 352.62 638.59 345.59 636.4 341.61 633.66 335.06 630.65 325.23 627.08 321.71 620.24 320.78 620.78 307.91 599.96 304.86 587.91 299.25 584.35 297.14 579.42 295.97 575.58 295.5 571.74 295.74 568.18 297.14 566.54 297.84 561.33 296.91 553.34 284.39 548.61 282.95 546.08 283.12 543.95 281.12 539.28 278.86 523.87 274.93 513.7 275.65 509.23 275.04 503.72 272.99 502.23 272.83 500.68 276.76 497.63 282.56 493.49 285.94 489.21 287.65 484.22 287.21 480.27 284.5 478.98 284.44 476.77 289.92 474.7 296.39 472.69 302.2 465.96 303.47 458.64 301.98 456.43 300.65 444 301.48 442.18 306.96 440.11 308.51 436.48 309.34 433.76 311.94 433.25 313.71 434.93 315.37 437.13 315.42 438.95 316.59 433.12 320.85 423.27 323.06 415.56 320.35 414.52 321.4 411.29 322.06 410.83 323.23 413.88 325.88 416.21 328.21 416.6 335.02 406.88 331.75 402.8 329.31 399.76 333.3 399.63 335.24 401.7 336.01 403.06 338.84 401.7 340.16 398.59 341.27 397.94 343.93 392.89 345.81 393.67 349.74 393.54 353.06 392.31 354.67 390.3 355.61 387.71 354.28 385.44 356.27 388.36 360.37 387.97 362.48 386.35 363.42 381.1 361.81 369.12 362.64 372.55 366.52 374.62 373.22 370.54 372.78 368.53 372.39 366.85 374.55 366.46 376.65 368.36 378.91 367.61 382.62 364.15 388.49 362.69 388.44 357.89 386.17 357.64 388.57 354.88 388.71 349.86 392.37 345.52 391.95 345.91 395.08 343.45 395.58 341.38 393.12 338.27 400.18 341.02 400.82 350.15 399.79 353.36 398.74 356.44 398.8 360.32 400.98 360.81 404.89 357.51 407.3 355.92 411.82 352.06 417.02 348.86 416.11 346.4 416.75 344.26 415.61 337.43 416.33 330.17 411.57 329.26 409.21 325.34 414.81 321.59 419.1 319.03 418.96 316.66 417.38 309.99 419.52 308.24 418.96 304.13 416.36 302.41 417.11 303.09 420.16 304.65 421.98 304.13 425.59 308.54 427.64 312.75 434.62 309.99 439.03 307.98 440.25 304.88 437.03 302.25 440.11 301.57 441.8 294.09 447.37 288.84 447.29 285.05 450.06 282.69 450.28 278.22 453.3 275.5 457.43 276.83 458.46 283.82 457.79 286.58 463.2 288.29 464.95 286.61 467.66 281.33 472.71 277.67 475.04 278.29 478.15 276.24 480.25 274.43 487.63 273.56 496.65 272.88 499.42 268.99 502.86 270.32 506.55 272.81 518.87 270.97 528.8 267.89 537.24 263.68 538.65 259.73 548.95 257.85 554.25 253.83 557.39 248.52 556.11 245.61 555.7 242.17 553.06 243.66 558.56 246.09 559.31 247.68 561.72 245.02 567 245.9 569.89 240.49 575.11 240.36 577.08 241.82 577.99 244.21 581.58 246.84 583.91 248 591.24 241.46 594.69 238.35 600.6 228.05 607.66 227.34 612.41 226.53 614.74 220.86 618.16 216.13 618.61 214.06 620.22 212.18 618.33 212.15 615.55 214.48 611.69 213.64 608.35 211.92 606.94 208 604.99 210.5 609.13 211.08 611.16 208.55 613.63 207.58 611.05 205.35 608.6 201.14 609.55 194.08 603.07 184.65 603.96 182.03 598.52 175.19 597.69 173.7 596.77 173.48 592.16 168.68 592.94 164.12 589.19 162.76 584.71 161.01 583.24 156.57 583.85 150.22 582.77 148.51 581.05 141.83 581.1 137.14 583.1 134.97 586.3 134.39 592.19 131.6 600.49 129.07 604.19 122.47 609.8 122.27 613.66 121.2 616.44 109.35 616.41 105.66 620.08 106.56 610.27 104.94 606.44 100.02 603.16 94.03 600.46 91.02 601.35 87.52 601.71 76.28 600.74 69.42 601.69 63.55 601.82 58.18 609.3 55 612.3 52.61 618.13 49.14 620.36 44.8 620.69 44.12 628 32.48 621.5 16.4 606.44 11.61 602.67 9.56 587.95 22.22 574.6 30.43 564.68 35.56 550.64 36.59 530.45 22.56 513.68 11.27 490.4 1 469.18 3.74 455.49 4.8 453.73 17.43 441.46 19.82 419.89 27.35 403.8 46.85 396.27 63.62 391.14 74.23 381.21 89.97 374.03 121.11 375.74 152.25 380.53 170.73 384.98 181.68 384.64 184.42 363.41 191.94 340.14 191.94 333.98 190.58 323.03 190.23 312.41 190.58 298.72 190.23 286.4 181.68 269.63 181.34 213.15 162.86 206.65 159.44 201.86 160.81 186.8 170.39 173.45 191.94 149.83 196.74 127.24 198.79 111.84 209.74 96.09 225.82 84.11 248.07 63.57 249 62.1 258.67 49.88 269.28 37.22 281.94 17.37 285.52 16.85 287.43 16.65 289.81 16.34 304.53 22.84 318.9 25.58 332.93 14.63 338.01 6.2 345.68 9.27 355.25 13.62 366.56 11.88 367.43 4.05 374.83 1 383.53 2.74 390.49 4.48 400.5 8.4 412.14 14.87 421.38 19.28 430.49 27.44 432.95 29.97 437.91 34.94 444.87 39.73 443.13 43.65 439.21 48.87 430.95 54.09 426.6 59.75 423.99 71.5 418.77 70.19 413.98 65.84 409.63 60.62 403.54 61.92 403.54 70.63 407.89 81.94 404.85 88.9 397.45 94.12 388.31 98.48 382.22 103.7 376.57 109.79 370.48 115.88 363.52 126.33 359.6 131.11 362.21 140.69 370.91 151.57 384.83 156.35 390.05 148.95 390.05 142.86 393.1 134.59 403.54 132.42 408.76 127.2 415.72 123.28 422.68 118.06 430.08 115.45 436.6 115.45 444.87 112.84 454.44 108.48 456.18 101.52 453.57 94.12 451.4 85.86 455.31 78.46 462.71 81.07 470.54 82.81 479.24 82.38 488.81 81.5 494.03 79.76 500.56 79.76 503.6 75.85 504.89 75.85 504.89 91.82 505.04 94.29 503.16 103.17 503.03 103.5 501.32 112.05 501.32 118.6 510.25 129.32 514.41 136.46 522.75 142.41 523.34 149.56 522.19 156.47 522.18 156.7 520.37 161.46 519.77 165.63 519.78 165.63 519.77 165.64 524.54 167.43 525.72 170.99 531.12 170.38 537.06 170.38 541.19 172.18 541.19 178.72 545.36 187.06 555.66 192.48 556.68 193.01 562.09 193.01 566.78 195.99 574.52 202.53 576.3 207.89 581.07 212.06 585.23 216.82 590.05 225.19 596.56 232.89 602.49 232.89 606.65 231.7 610.82 226.34 619.15 222.77 632.24 222.77 639.39 227.53 642.96 235.27 642.36 243.61 642.36 251.94 642.96 259.68 646.53 264.44 650.69 268.61 658.43 270.99 665.57 272.18 672.71 277.53 672.71 278.4 672.73 278.42 673.41 280.6 676.34 286.46 676.34 286.48 676.28 286.49 676.88 290.63 684.61 296.58 689.97 297.18 692.96 297.87 697.76 298.94 698.52 298.76 702.47 297.77 705.95 302.41 711.38 302.53 720.91 302.53 725.67 294.8 732.86 291.2 737.6 292.4 742.93 292.7 747.74 293 752.33 292.93 763.23 294.2 776.31 298.94 795.02 298.11 795.96 298.4 799 304.31 792.04 316.06 773.77 335.64 759.41 347.39 757.75 349.41 757.96 349.47 747.35 362.37 738.65 371.07 722.12 378.9 702.97 387.17 704.34 378.38 699.96 379.31 Z"/>
</g>
</svg>