<?xml version="1.0"?>
<svg xmlns="http://www.w3.org/2000/svg" version="1.2" baseProfile="tiny" fill="#f9c113" width="800" height="952" viewBox="0 0 800 952" stroke-linecap="round" stroke-linejoin="round">
<g fill="#c0392b" id="id_140">
<path d="M 780.12 82.84 781.02 91.36 779.22 92.14 770.22 93.69 790.91 113.85 770.22 114.62 771.12 109.2 763.03 108.42 763.93 116.95 756.74 113.07 751.34 116.95 759.43 171.24 764.83 175.89 781.91 178.99 799 189.08 786.41 196.06 777.42 206.14 771.12 210.02 772.02 219.33 779.22 231.75 779.22 247.26 772.92 259.68 779.22 265.89 783.71 274.43 783.71 283.74 781.02 290.72 777.42 296.93 776.52 306.25 783.71 315.56 785.51 322.55 785.51 328.76 782.81 331.86 786.41 335.75 790.01 343.51 787.31 348.94 782.81 355.93 790.91 369.13 790.91 378.45 785.51 386.99 784.61 393.21 788.21 402.52 793.6 406.41 792.71 414.17 787.31 415.73 790.01 422.72 795.4 423.49 786.41 432.04 780.12 439.81 777.42 446.8 793.88 461.65 762.49 457.16 750.65 460.26 746.88 457.93 729.12 451.89 727.69 438.56 719.08 429.88 721.95 458.24 719.97 474.36 709.75 487.38 718.9 492.96 721.59 530.01 712.44 530.94 713.51 534.98 704.72 536.68 703.65 545.67 710.82 545.83 706.16 564.13 688.94 576.53 665.08 577.15 645.7 591.73 655.39 599.33 662.03 608.79 665.79 600.42 675.12 597.16 676.38 591.73 684.27 591.27 689.83 587.24 694.5 590.34 689.65 594.99 697.55 620.43 680.5 638.73 671.18 634.39 648.93 639.2 642.65 633.92 638.35 626.48 630.09 627.87 565.69 675.35 569.99 688.07 601.03 691.02 601.21 675.35 613.23 676.75 616.82 669.3 627.58 681.87 647.85 684.66 669.02 708.56 681.94 704.68 681.4 700.49 687.32 700.8 691.99 709.34 696.65 702.97 694.32 690.71 703.83 686.21 716.56 715.85 705.98 733.39 703.29 755.28 694.5 760.71 699.7 769.1 710.28 777.64 693.42 788.19 697.37 796.89 703.29 798.91 721.23 824.22 712.8 828.26 709.39 846.27 704.54 856.21 694.3 865.19 683.76 860.51 675.62 865.17 673.36 882.07 673.66 884.81 661.63 880.87 637.66 877.75 634.01 870.47 629.04 869.53 629.01 869.44 624.91 868.74 617.93 875.18 600.09 872.86 594.43 823.46 584.02 763.04 502.44 774.72 434.67 739.89 385.91 791.71 315.32 814.32 230.4 842.79 244.26 931.79 240.01 930.37 210.47 930.37 197.94 937.54 196.53 942.85 194.51 951 190.12 947.94 188.1 946.49 186.31 935.74 195.26 925 198.84 912.47 208.68 895.45 201.52 882.02 198.21 875.72 192.7 865.13 191.23 849.87 190.78 847.72 190.78 835.52 204.11 820.27 215.85 808.52 216.74 789.8 216.74 762.94 216.31 758.64 214.84 744.79 215.47 742.5 220.32 719.07 215.85 699.71 214.84 695.52 214.84 676.99 215.84 671.67 217.63 660.87 226.51 655.75 226.52 655.78 241.15 647.39 241.94 625.92 241.94 605.13 240.81 596.66 239.35 589.2 239.35 578.47 230.42 564.79 231.21 538.13 235.28 531.12 246.35 511.12 252.11 506.15 262.38 497.02 284.75 491.65 297.28 480.91 297.34 480.78 297.4 480.73 301.12 472.25 302.93 468.18 302.59 454.51 301.8 443.33 290.39 438.58 279.33 443.78 266 450.44 208.96 450.44 194.51 439.71 188.98 423.33 174.52 420.05 127.85 420.05 127.84 420.02 114.73 420.02 114.73 420.05 113.08 420.05 95.92 417.34 81.67 409.32 68.41 411.18 68.48 411.3 58.34 412.86 43.12 413.76 36.86 402.12 32.44 394.17 29.85 382.31 26.12 367.06 26.12 347.51 28.72 339.71 31.65 331.24 34.25 313.39 33.91 311.58 30.64 297.11 18.33 281.97 2.85 260.51 1.98 254.43 1 247.06 9.06 243.49 21.57 251.54 22.88 252.07 30.64 255.31 43.17 251.58 52.09 242.65 62.69 246.34 61.08 259.21 60.9 260.51 76.12 262.28 76.13 262.27 76.49 262.31 87.9 255.99 94.22 252.37 98.62 247.17 98.62 232.71 106.8 227.55 109.21 229.16 113.68 233.64 111 245.27 116.36 265.86 116.42 265.86 116.47 266.04 137.14 267.85 136.46 257.91 130.13 247.85 129.01 235.31 132.73 225.7 133.07 223.77 132.92 223.3 134.25 216.63 137.83 209.47 157.5 211.26 161.02 211.42 177.46 212.37 196.43 208.64 195.3 197.12 203.43 186.38 220.09 190.8 220.09 199.62 215.61 218.42 225.44 231.85 225.46 231.77 225.57 231.92 229.29 214.97 230.42 204.24 238.17 192.45 256.75 190.67 248.45 179.6 246.16 176.31 242.59 161.99 249.14 161.99 253.43 162.16 260.59 172.91 266.85 182.76 274.01 191.71 284.75 206.04 286.54 214.09 296.39 217.68 317.87 217.68 311.6 240.06 320.55 249.91 320.72 249.71 320.77 249.77 323.97 246.06 327.71 241.85 340.31 240.05 340.31 232.71 342.21 218.72 351.87 226.63 363.5 232.9 373.35 234.69 387.67 233.79 375.14 222.15 375.14 210.51 384.98 207.83 393.04 209.62 387.67 219.47 400.2 232 418.99 239.16 426.15 237.37 426.31 236.1 427.27 230.11 436.17 217.6 451.21 211.41 456.58 202.45 456.58 193.5 458.37 175.59 460.16 162.16 459.26 147.84 464.63 143.36 468.21 159.48 481.63 167.54 486.11 167.54 485.21 150.53 482.53 129.93 491.78 127.46 496.17 126.38 505.77 126.38 507.37 129.3 512.96 139.78 514.75 155.9 521.91 151.42 521.91 151.32 522.03 151.24 522.03 135.31 530.12 120.92 542.49 116.5 550.49 113.84 552.88 109.36 560.39 95.01 563.43 94.48 575.67 92.37 581.21 103.9 568.67 119.04 579.4 123.45 590.13 110.11 593.32 106.41 597.08 102.18 609.61 97.7 624.82 102.18 632.72 101.38 633.84 101.3 644.46 98.47 650.77 96.8 657.93 86.95 672.25 86.06 673.3 85.9 677.09 85.37 684.09 84.24 677.88 67.97 673.36 58.36 665.58 42.4 664.2 39.5 665.09 26.07 679.41 25.18 697.31 23.38 699.1 23.38 706.26 33.23 710.73 35.02 722.37 23.38 722.4 23.32 722.61 23.11 729.53 8.16 742.06 1 751.01 18.91 756.37 24.28 763.53 6.37 771.12 44.85 780.12 82.84 Z"/>
</g>
</svg>