<?xml version="1.0"?>
<svg xmlns="http://www.w3.org/2000/svg" version="1.2" baseProfile="tiny" fill="#f9c113" width="800" height="481" viewBox="0 0 800 481" stroke-linecap="round" stroke-linejoin="round">
<g fill="#c0392b" id="id_156">
<path d="M 719.12 427.83 706.61 426.02 690.3 419.79 670.4 409.62 657.89 397.49 650.88 396.5 646.33 394.86 645.38 383.55 634.76 382.73 632.68 390.6 627.56 390.27 625.85 362.89 622.06 359.44 601.78 362.56 599.51 356.82 594.2 356.33 594.2 353.05 589.84 353.38 587.94 348.95 583.01 347.64 581.5 342.88 577.14 343.05 573.35 340.26 566.9 341.57 555.15 340.92 557.05 353.54 560.84 356.33 563.49 366.49 564.44 377.32 551.74 377.97 540.93 371.41 529.75 368.63 517.05 365.02 515.72 369.94 511.93 371.9 502.64 369.61 501.32 382.07 519.89 383.71 520.84 391.25 525.01 396.5 532.59 397.16 522.17 407 512.31 414.54 513.45 423.4 517.81 429.96 525.96 425.53 534.11 417.99 547.95 418.32 549.46 423.56 554.39 426.52 563.87 425.04 568.42 426.19 577.71 426.52 585.67 434.88 554.2 435.54 540.55 437.67 533.73 444.89 516.67 445.38 513.26 447.68 513.83 479.34 495.25 480 502.07 471.63 501.88 465.4 485.2 449.65 489.94 443.41 489.75 433.41 473.26 416.51 461.89 412.41 446.34 403.39 443.69 399.29 437.63 390.93 416.02 390.93 405.59 396.91 400.09 398.88 399.15 391.99 392.32 398.55 386.63 399.21 380.57 393.3 360.67 393.8 353.08 403.8 343.04 411.67 345.31 416.92 344.17 422.83 339.44 427.91 331.85 438.74 325.03 442.51 319.72 453.99 315.36 452.52 313.85 448.91 316.69 436.28 312.33 421.68 306.45 422.01 298.49 429.72 287.69 430.54 272.52 434.96 256.41 431.85 244.28 428.24 238.59 435.29 230.44 437.75 225.32 440.21 220.11 435.7 209.78 434.55 209.02 442.84 201.06 442.35 190.82 448.17 183.72 454.08 171.2 451.7 176.23 444.32 174.33 441.28 156.99 439.56 166.94 430.95 168.55 426.68 164.29 420.28 163.24 410.85 160.4 404.7 165.71 403.39 167.79 404.7 174.24 405.03 179.64 399.95 182.39 385.27 174.81 385.68 165.14 389.04 163.05 384.7 146.94 383.14 137.94 380.6 116.23 376.91 102.02 372.56 90.64 364.85 89.03 348.13 98.13 339.85 98.13 321.9 100.59 318.46 92.63 320.26 81.07 318.95 76.9 312.23 63.63 303.71 57.57 303.71 47.71 303.38 42.78 316.16 37.28 325.02 33.49 325.84 22.5 318.13 13.4 315.51 11.5 308.79 8.09 306.49 1 306.41 3.04 301.76 3.57 293.4 7.22 283.47 17.1 271 28.53 265.28 28.55 265.23 28.63 265.19 33.86 251.61 42.21 241.68 40.12 232.8 40.12 221.92 47.33 221.92 47.39 221.83 47.43 221.83 53.7 212.43 53.7 200.41 53.17 188.92 56.31 180.03 62.58 171.15 76.15 168.54 86.6 164.36 88.62 160.82 94.86 163.42 99.56 169.68 107.39 168.64 114.7 162.37 124.1 158.19 124.13 158.21 124.14 158.11 124.2 158.08 140.91 165.92 145.61 177.93 144.57 189.94 148.22 205.61 152.92 216.58 161.8 226.5 172.77 220.23 181.64 207.17 188.34 197.37 201.4 192.67 213.93 184.83 223.33 180.65 223.34 180.55 223.41 180.52 224.98 163.29 229.13 147.19 239.52 140.43 252.06 125.28 252.09 125.2 252.13 125.15 256.79 114.28 264.07 107 272.43 92.9 288.62 93.42 295.93 85.58 304.34 69.78 314.26 70.82 321.08 81.24 321.05 81.4 324.13 86.1 321.52 98.64 325.7 104.91 336.14 109.61 340.32 114.83 347.11 117.97 357.56 120.58 370.09 106.48 376.88 94.46 376.88 94.38 376.91 94.32 376.39 83.35 377.96 71.86 377.96 59.85 385.79 57.24 396.23 53.05 407.71 63.5 422.32 71.85 437.98 73.94 448.42 73.94 458.34 72.89 464.6 71.85 465.13 61.4 468.26 55.14 480.27 41.56 495.4 35.81 501.67 35.81 499.58 42.6 486.01 45.73 478.7 54.09 479.22 61.4 479.23 61.42 479.24 61.55 484.47 67.3 490.21 66.78 496.48 63.64 502.22 55.81 506.4 50.58 511.1 45.36 512.67 40.66 512.67 32.3 512.15 23.94 512.11 23.87 512.11 23.8 509.5 18.57 507.41 11.79 511.06 6.04 518.37 6.04 525.16 2.91 541.86 1.86 560.13 1.86 569.54 1.34 569.48 1.07 569.63 1 570.59 5.23 570.87 6.77 568.67 21.92 566.18 29.12 563.97 35.73 563.97 52.33 567.13 65.27 569.34 75.35 573.09 82.09 578.41 91.97 591.33 91.21 599.93 89.88 599.88 89.78 611.14 88.2 623.24 95.01 637.81 97.31 639.2 97.31 639.21 97.29 650.34 97.29 650.34 97.31 689.97 97.31 702.25 100.09 706.94 114 719.22 123.11 767.64 123.11 778.96 117.45 788.36 113.04 798.04 117.07 798.71 126.56 799 138.17 797.47 141.62 794.3 148.81 794.25 148.85 794.2 148.97 783.57 158.09 764.57 162.65 755.85 170.4 750.96 174.61 741.56 191.59 738.11 197.54 737.44 220.17 745.01 231.78 745.01 240.89 746.26 247.22 747.22 254.41 747.22 272.06 746.55 290.28 734.12 297.4 734.12 297.38 726.58 301.73 725.05 310.89 724.2 315.41 724.2 331.14 725.07 334.69 728.86 351.13 724.75 371.01 724.2 372.96 725.45 384.72 725.82 388.37 725.82 411.17 725.06 427.06 719.12 427.83 Z"/>
</g>
</svg>