<?xml version="1.0"?>
<svg xmlns="http://www.w3.org/2000/svg" version="1.2" baseProfile="tiny" fill="#f9c113" width="800" height="802" viewBox="0 0 800 802" stroke-linecap="round" stroke-linejoin="round">
<g fill="#c0392b" id="id_199">
<path d="M 308.5 8.99 315.64 10.25 319.92 14.38 324.81 18.7 328.48 21.93 338.06 25.17 349.47 27.68 340.59 43.49 340.94 47.02 341.27 50.37 343.35 58.24 344.99 63.81 349.06 66.69 356.4 71.37 366.87 76.3 367.4 78.54 368.88 83.49 369.77 91.39 370.32 100.18 370.29 101.33 370.02 111.22 370.82 117.79 367.9 126.92 363.52 133.77 362.06 140.56 363.21 142.83 365.62 145.36 370.42 146.04 377.88 147.26 383.66 149.24 389.23 149.94 396.61 151.18 404.57 151.33 410.88 158.11 415.8 160.4 420.04 163.4 430.78 169.24 433.82 172.44 437.39 175.4 442.29 179.05 446.39 182.93 449.35 187.28 452.59 190.83 458.09 194.87 459.19 204.43 451.14 210.68 445.13 216.35 438 219.56 434.65 224.55 432.6 232.65 432.89 236.75 431.19 243.42 436.38 267.02 424.63 277.41 417.45 291.84 404.39 304.54 371.1 316.08 391.99 331.67 437.69 371.53 416.14 385.97 403.74 421.8 433.77 437.41 448.13 430.47 450.74 440.3 482.73 422.38 495.78 452.44 519.29 433.94 532.99 436.83 536.91 427 552.58 414.29 597.54 434.17 668.18 471.56 799 569.1 796.45 574.61 795.05 577.62 793.41 581.15 792.66 582.75 791.92 584.36 791.2 584.8 789.92 585.61 775.8 594.46 773.38 595.99 769.87 598.19 767.7 599.56 766.41 600.37 765.51 601 761.33 603.95 758.42 606 753.57 609.42 751.45 610.8 747.98 613.16 744.68 615.39 743.09 616.48 738.42 619.64 736 621.58 734.77 622.54 732.51 624.36 730.46 626.01 723.04 631.97 713.57 639.41 709.38 642.71 708.34 644.21 706.58 646.74 704.79 649.32 698.94 658.2 692.77 668.25 686.02 678.84 682.12 684.39 677.59 690.85 673.52 696.65 670.98 700.29 670.49 700.87 664.85 707.61 660.39 712.93 657.58 716.3 652.72 721.3 649.65 724.49 645.92 728.35 645.55 728.6 636.42 734.87 634.05 736.5 630.63 739.21 629.29 740.27 624.23 744.26 620.54 747.17 615.27 751.33 614.12 752.24 602.65 761.23 598.61 763.93 596.97 765.03 593.88 767.11 591.47 768.72 589.59 769.98 583.93 774.37 573.89 782.35 569.08 787.17 566.9 789.34 564.98 791.27 563.16 792.88 560.87 794.9 560.24 795.46 553.99 801 320.51 701.06 322.22 697.06 323.71 688.75 324.35 679.04 323.27 668.02 320.39 651.16 316.73 628.07 293.64 632.98 285.64 631.02 231.2 621.03 211.05 620.48 196.77 618.88 186.87 612.55 176.79 609.45 152.27 601.3 146.46 583 134.45 567.78 129.5 557.15 127.38 547.43 126.54 533.98 119.97 520.33 117.42 514.49 94.17 509.19 81.91 501.09 77.03 493.65 64.49 488.8 56.11 483.65 49.21 476.44 38.84 464.18 18.91 463.52 1 465.24 1.31 449.92 5.96 449.6 29.86 448.93 55.15 434.18 56.81 426.47 57.87 420.34 59.35 419.51 84.83 430.19 94.63 427.63 113.46 421.38 113.54 418.8 114.67 407.58 114.35 402.25 110.39 395.55 107.29 390.55 104.96 387.5 107.03 383.47 107.94 381.75 110.16 379.87 114.55 376.84 112.18 374.1 108.34 368.53 105.88 366.3 99.46 362.32 93.99 354.52 89.58 349.01 82.24 342.99 80.32 330.15 74.54 326.11 67.99 323.05 60.22 313.21 52.71 303.61 46.35 294.65 43.31 288.35 36.8 277.1 33.26 270.71 33.05 266.55 32.19 262.39 32.65 259.45 33.07 254.37 33.17 252.55 33.94 247.94 34.9 243 35.76 240.26 36.61 236.03 36.51 233.26 35.17 226.71 32.36 221.85 25.08 210.58 19.49 207.2 19.68 206 25.54 206.12 33.73 204.93 41.53 202.62 45.24 199.1 49.13 196.22 56.28 192.48 58.15 190.42 59.36 184.84 60.3 176.88 60.66 170.4 60.72 167.88 61.28 162.52 60.93 156.94 61.76 145.44 61.08 138.62 61.6 133.12 62.68 129.18 66.45 122.65 69.89 116.09 78.34 110.32 87.76 106.85 92.2 105.4 94.83 103.66 97.04 101.77 102.42 98.82 107.88 97.91 113.26 97.15 118.79 95.52 123.46 92.48 129.32 92.11 136.92 91.45 144.15 90.82 152.72 87.28 156.36 87.14 158.41 87.43 162.16 87.16 166.6 85.8 169.02 84.24 176.86 78.04 186.1 72.37 191.26 67.94 192.01 66.87 196.11 60.14 201.56 49.75 203.37 46.58 206.54 45.52 218.68 45.99 231.37 49.75 244.32 57.38 259.5 61.7 262.92 63.14 265.78 62.91 267.78 60.87 270.57 55.21 273.66 49.82 277.65 40.93 282.91 27.14 286.81 17.56 291.1 4.94 293.16 1 299.29 7.39 300.86 9.04 308.5 8.99 Z"/>
</g>
</svg>