<?xml version="1.0"?>
<svg xmlns="http://www.w3.org/2000/svg" version="1.2" baseProfile="tiny" fill="#f9c113" width="800" height="625" viewBox="0 0 800 625" stroke-linecap="round" stroke-linejoin="round">
<g fill="#c0392b" id="id_148">
<path d="M 796.29 263.07 794.37 268.41 793.41 273.4 789.83 277.55 787.91 283.61 781.31 301.66 784.06 305.34 784.47 310.09 784.2 315.08 780.76 318.88 776.78 320.3 777.74 326.24 774.3 329.33 773.75 331.7 777.6 335.74 778.7 340.02 778.43 348.57 779.94 352.25 778.84 354.86 771.01 353.56 761.66 351.42 754.24 347.74 749.16 345.48 743.8 346.07 737.34 347.85 735.96 351.06 729.09 356.76 721.95 351.89 714.52 350.47 702.02 351.54 691.71 353.56 684.02 354.98 672.89 356.05 671.65 358.78 669.31 355.46 665.19 354.74 661.07 354.15 657.08 356.52 651.17 353.79 645.26 352.96 644.71 356.29 642.79 359.14 636.61 363.06 634.82 367.33 632.76 369.12 627.67 369.59 621.08 368.05 622.59 364.72 622.59 361.63 613.38 365.2 611.18 364.84 607.88 364.6 605.96 368.28 603.76 367.1 600.19 362.46 596.75 363.3 581.64 364.01 577.79 361.87 569.54 361.28 560.33 360.21 543.84 360.92 529.28 357.12 505.23 355.81 504.68 358.54 510.17 362.23 513.47 365.55 516.08 371.37 513.75 374.22 507.84 377.31 500.97 381.35 497.67 384.92 494.37 387.41 490.8 390.86 486.95 393.47 482.83 391.93 479.8 389.55 471.83 391.45 467.71 395.25 474.72 397.87 475.27 400.72 472.25 402.62 471.83 405.23 469.77 407.49 467.71 413.79 464.82 415.57 459.6 414.97 453.28 414.38 444.9 414.74 439.4 419.61 442.42 422.58 444.9 425.91 449.3 426.74 454.38 427.09 457.27 428.28 451.08 433.16 450.12 437.2 447.65 439.22 443.66 440.64 440.78 441.24 437.75 437.67 431.84 437.2 427.17 434.11 423.87 433.04 421.26 432.92 421.05 430.01 424.9 424.6 425.52 421.93 428.06 419.19 427.17 416.1 427.86 411.94 428.54 408.26 435.21 405.41 437.89 401.55 438.44 393.11 435.83 393.47 430.95 393.53 426.48 392.04 424.28 389.91 424.49 386.94 422.02 385.98 419.82 386.64 420.02 389.43 419.82 392.99 415.9 392.1 410.95 393.47 405.87 397.09 400.44 398.99 395.77 397.45 387.87 393.29 384.57 389.37 379.07 388.3 375.64 386.16 378.59 383.49 376.8 383.07 375.91 380.88 372.03 379.94 365.43 377.92 362.13 374.24 358.56 373.88 352.93 374.36 351.42 376.73 351.96 379.35 351.28 382.2 350.32 385.05 351.96 388.14 353.61 389.56 354.58 385.88 357.32 383.51 359.11 386.36 362.13 388.97 364.47 389.8 365.98 393.48 363.37 398.36 353.89 400.49 346.33 399.31 339.32 397.41 335.2 393.96 327.37 392.77 323.52 391.11 323.66 386.83 318.16 386.59 310.74 384.34 305.65 384.22 302.63 385.76 301.8 390.51 299.06 393.48 296.17 392.06 294.52 388.85 292.32 389.09 289.85 392.53 287.79 396.69 283.66 398.47 272.26 398.71 270.75 396.22 269.24 393.96 261.81 393.37 259.2 390.4 256.18 389.56 253.02 392.3 251.23 396.57 249.31 397.17 246.42 395.27 242.03 393.84 239 393.25 236.12 390.99 233.09 390.51 225.81 392.18 222.37 389.8 217.43 387.07 213.44 387.9 211.24 389.56 209.04 393.48 208.08 396.57 214.13 396.69 218.66 398.59 222.79 399.19 228.97 398.47 229.38 401.92 232.41 404.77 238.18 404.89 240.24 406.43 240.24 410.59 236.8 414.51 236.25 417.6 236.39 422 234.05 423.9 235.29 426.4 237.22 429.25 241.34 429.37 240.93 433.29 244.22 436.26 254.94 436.14 257.28 438.04 259.75 441.84 260.71 446.12 260.71 450.52 263.46 452.54 264.43 454.92 266.49 457.53 271.16 458.25 270.64 461.67 269.95 463 267.21 463 266.19 465.44 264.65 468.92 262.42 472.18 259.42 474.18 256.73 478.03 255.49 478.51 250.27 480.06 246.63 481.54 242.71 484.16 238.18 486.41 237.77 489.92 236.6 493.31 236.25 496.16 233.64 498.66 232.13 501.21 230 503.59 225.26 504.54 221.69 505.49 218.39 506.09 215.09 506.09 211.24 504.66 208.91 503.41 204.85 501.87 201.55 500.68 200.18 498.66 200.25 495.39 198.67 493.96 196.26 492.24 194.75 491.05 192.28 493.31 189.8 494.91 186.3 493.49 184.51 494.2 183.62 496.52 184.65 498.9 183.55 502.88 182.11 505.97 184.65 509.3 187.81 512.09 189.32 511.38 192.69 509.89 197.22 508.17 198.12 511.32 196.68 514.65 197.84 517.03 200.32 521.9 198.81 526.06 200.45 529.69 204.44 531.41 208.29 530.52 213.72 531.17 222.51 531.12 228.7 531.47 227.18 527.96 227.73 524.69 230 522.26 234.54 521.07 243.47 522.67 248.14 520.59 252.13 521.31 249.45 524.64 249.45 527.55 251.85 529.69 252.33 534.03 251.51 539.32 248.21 541.99 242.99 544.49 237.35 548.83 232.75 554.9 233.37 560.25 229.38 563.64 226.77 562.51 224.71 559.24 222.72 556.74 220.38 558.4 215.78 563.93 211.72 566.85 208.36 565.72 206.36 566.49 202.58 569.4 198.26 571.72 194.82 574.82 190.63 576.3 187.95 578.92 186.99 577.61 184.1 575.35 177.5 574.99 172.28 577.37 168.85 580.58 162.25 581.65 157.72 585.34 157.17 591.41 153.18 595.69 152.08 601.04 150.98 605.2 149.2 604.13 144.11 603.54 140.13 604.97 136.55 605.8 135.45 609.01 138.34 611.98 145.9 612.1 147.82 615.2 145.9 619.12 143.97 622.45 139.03 624 134.35 622.1 133.8 614.13 130.09 612.46 126.66 611.98 123.91 612.82 121.02 610.56 120.61 605.68 122.95 604.37 127.21 604.02 127.07 599.61 123.91 594.86 118.69 592.6 115.94 588.43 115.25 584.63 108.79 582.96 104.12 579.28 105.63 577.97 107.01 564.89 95.6 564.41 91.34 562.51 87.63 562.39 85.16 560.01 85.29 549.9 80.76 545.26 76.09 539.08 71.69 532.66 67.84 530.52 61.79 525.88 61.24 529.21 56.3 534.44 53.14 535.28 52.59 538.49 50.25 540.39 47.5 546.33 45.99 546.45 43.52 547.41 42.14 551.69 39.39 553.83 39.39 559.77 34.45 563.1 33.07 565 31.7 570.95 31.15 580.94 25.1 578.32 14.93 578.32 11.08 574.76 6.41 576.9 1 578.01 8.77 555.55 13.14 549.42 15.68 542.59 25.17 530.5 24.31 511.5 36.39 504.58 39.85 489.04 46.75 484.72 48.85 482.46 58.84 477.81 57.97 457.94 63.87 457.63 70.06 457.94 75.24 450.16 75.24 438.07 86.46 445.85 91.64 433.75 94.81 431.16 97 427.44 101.14 423.39 109.35 416.01 110.98 412.85 119.26 407.84 134.8 406.98 136.54 392.56 137.39 387.11 150.34 371.56 163.29 360.33 163.29 352.56 145.16 341.33 142.75 333.67 142.57 326.64 155.88 319.45 158.03 316.88 171.06 329.23 184.01 329.23 191.85 325.65 194.37 307.64 199.99 301.66 208.82 292.13 211.02 288.75 220.26 277.41 220.41 261.46 222.71 244.14 221.13 226.44 219.97 215.61 226.31 203.12 249.12 194.27 253.92 189.75 269.47 179.8 293.12 167.88 296.94 166.78 305.41 154.94 310.71 146.48 316.83 143.09 328.86 132.86 335.94 121.06 362.76 119.99 365.29 106.37 365.29 91.69 356.08 89.73 341.12 86.51 317.81 69.23 317.81 58.64 322.37 55.95 337.67 51.96 361.84 54.55 364.43 47.64 371.33 43.32 389.46 33.81 405 44.18 425.16 45 436.94 53.68 445.57 44.18 435.22 41.6 430.74 32.08 430.91 17.42 434.36 7.06 440.99 2.84 456.8 1 466.65 7.14 472.33 8.77 482.69 17.4 491.29 18.36 491.36 18.53 491.33 18.53 497.4 33.89 506.33 48.9 508.65 54.26 518.11 62.29 522.39 74.44 527.74 72.29 535.42 69.26 540.6 59.79 555.05 66.22 566.48 68.36 579.33 76.22 584.44 80.46 575.92 80.46 575.9 80.66 572.9 92.3 582.34 105.63 582.83 106.37 591.46 114.15 607.86 120.2 605.27 135.74 601.81 148.23 601.73 148.24 600.92 151.24 603.07 161.77 622.22 167.58 622.54 167.7 638.94 172.02 655.34 178.93 663.97 169.43 674.33 162.52 679.47 171.52 679.46 171.6 681.23 174.62 669.15 181.52 669.14 181.6 669.11 181.6 668.39 187.85 667.5 196.24 662.32 206.6 655.9 216.78 656.26 232.5 659.61 235.03 659.6 235.04 670 242.86 689.81 248.04 696.59 249.47 709.8 252.33 723.73 253.58 728.82 252.52 732.36 258.02 736.4 264.47 745.32 269.83 745.39 269.79 751.1 273.22 751.07 273.26 753.71 274.83 764.97 273.95 774.47 264.45 780.14 259.58 792.62 248.93 799 260.36 796.29 263.07 Z"/>
</g>
</svg>