<?xml version="1.0"?>
<svg xmlns="http://www.w3.org/2000/svg" version="1.2" baseProfile="tiny" fill="#f9c113" width="800" height="571" viewBox="0 0 800 571" stroke-linecap="round" stroke-linejoin="round">
<g fill="#c0392b" id="id_111">
<path d="M 250.33 354.9 234.92 338.5 235.01 336.42 233.37 334.23 235.01 330.87 235.19 327.54 235.78 320.71 236.67 305.19 237.42 300.62 240.02 286.87 243.66 270.98 242.2 267.6 235.72 261.19 207.79 280.83 206.9 279.43 205.73 279.1 187.13 257.07 184.05 259.41 172.46 261.37 168.45 264.24 164.27 259.61 153.19 248.66 135.96 241.93 114.99 234.43 110.72 232.6 105.7 232.74 85.63 231.12 86.92 216.13 87.75 206.98 91.16 204.52 92.92 200.41 96.39 194.41 85.31 194.51 85.13 188.6 83.51 167.77 73.31 164.19 67.87 160.48 38.54 162.59 28.69 167.72 19.46 168.48 13.33 159.74 7.9 152.33 7.36 148.27 6.73 144.21 1.3 139.99 1 135.9 15.57 134.89 19.58 134.43 26 133.85 32.48 126.89 35.52 124.3 43.5 118.87 57.45 114.33 48.43 107.8 40.51 109.2 36.06 106.94 29.04 107.42 28.7 106.99 31.63 103.99 33.03 101.81 35.99 95.16 34.82 86.51 34.82 83.84 35.81 82.32 36.64 82.06 33.81 77.93 37.48 73.26 42.11 70.32 47.25 66.26 48.29 60.75 57.73 64.63 64.51 67.3 70.09 69.38 75.08 70.7 77.47 71.13 85.51 70.54 90.49 69.23 93.12 67.73 103.07 66.08 109.67 64.63 114.33 62.53 119.25 59.13 124.18 56.36 126.9 54.48 127.56 52.63 128.57 50.55 130.36 46.06 134.13 41.7 137.14 38.3 141.18 34.6 143.89 32.4 145.77 33.57 152.93 36.92 158.79 39.25 159.89 44.02 163.72 48.49 168.64 52.37 172.47 53.69 179.96 54.4 183.19 54.63 185.94 54.35 192.9 54.96 196.45 54.83 202.66 53.99 206.69 52.52 210.04 49.58 210.79 47.52 210.84 45.16 212.88 37.88 215.68 29.34 218.49 25.99 220.31 21.95 222.34 16.29 223.21 13.81 223.09 10.1 224.64 9.34 226.26 7.64 228.56 4.55 231.24 1 234.26 8.79 235.54 12.64 237.46 12.31 241.55 9.95 242.95 12.39 246.86 16.72 256.06 19.49 259.23 19.08 260.75 20.65 263.47 22.23 263.44 23.22 263.89 25.25 265.44 28.62 268.37 30.36 270.67 31.02 273.12 31.07 275.86 31.71 278.73 32.87 275.27 34.92 269.35 36.54 260.18 38.65 249.04 43.27 244.68 46.61 238.35 51.89 234.8 56.91 238.62 60.08 245.13 66.66 250.92 72.12 256.21 72.07 261.55 83.03 266.42 92.7 269.56 98.28 278.25 112.01 274.51 131.56 262.03 129.02 262.06 130.32 271.02 148.34 260.78 154.69 251.91 145.37 244.74 153.65 239.57 159.38 241.69 160.7 252.38 171.78 262.36 175.79 284.7 199.1 287.09 207.89 296.26 218.08 306.98 210.25 315.07 206.01 338.04 195.83 388.39 173.36 386 199.11 385.17 208.83 379.98 217.29 372.51 221.53 350.95 237.54 356.11 243.3 353.02 249.63 355.86 252.45 358.21 253.8 378.11 257.05 379.48 257.25 376.55 251.79 375.81 249.25 376.79 247.27 390.29 232.02 392.05 222.55 392.32 219.8 395.82 216.15 406.81 211.75 411.68 207.59 413.77 205.43 417.95 208.07 431.75 210.28 439.51 211.86 453.34 210.08 464.78 212.34 478.43 210.51 473.29 216.81 463.43 229.59 450.17 241.12 442.35 247.53 435.3 251.16 446.71 258.58 451.67 267.6 455.07 263.86 464.48 260.1 480.37 270.37 485.24 268.26 489.57 266.48 491.63 267.75 493.21 265.69 493.66 269.15 491.67 277.95 492.62 284.03 505.91 292.92 501.61 295.44 495.91 303.24 493.31 308.25 486.86 319.97 482.83 326.32 481.3 329.91 480.77 334.84 481.3 340.59 481.69 343.84 482.98 348.9 484.44 352.95 486.2 356.86 487.04 360.14 487.04 367.44 483.81 374.36 479.93 382.96 479.45 387.97 477.6 389.87 476.26 393.69 477.06 398.47 482.02 406.79 483.15 408.24 484.5 409.72 485.66 410.05 488.74 409.54 490.56 409.59 496.3 410.25 507.29 411.83 513.5 413.56 520.58 415.36 523.98 416.32 528.64 416.86 535.48 417.59 541.01 417.59 545.85 417.82 548.3 417.95 553.52 417.95 558.81 415.28 559.35 415.97 566.25 410.93 567.56 412.05 575.35 406.86 577.77 405.43 580.1 404.75 581.36 403.68 583.03 402.64 585.99 400.32 587.87 399.35 594.05 396.45 596.41 395.49 599.61 394.47 603.85 391.67 605.73 388.59 612.33 384.19 614.51 382.03 617.73 378.47 620.99 376.56 623.08 374 624.96 370.74 639.6 359.45 641.99 359.98 645.9 360.11 652.83 358.2 653.42 358.05 658.89 357.82 661.01 356.52 666.24 355.33 674.21 354.41 677.44 354.54 685.35 357.64 687.8 358.71 692.01 361.08 697.95 365.12 702.34 367.43 705.33 369.88 710.17 374.91 713.96 376.36 719.55 378.73 722.23 380.3 725.67 382.39 729.97 384.47 732.18 385.57 738.27 386.41 740.78 387.09 742.93 388.16 747.83 390.91 750.55 391.77 753.27 392.26 757.6 392.26 760.1 391.77 763.18 390.27 771.42 385.52 775.25 385.03 777.87 384.37 779.3 383.47 782.45 386.33 784.9 399.73 783.03 422.37 775.1 428.13 770.79 443.82 775.34 448.89 784.43 449.29 799 457.73 791.54 465.38 779.07 457.53 771.84 462.89 775.57 471.74 788.16 478.99 786.64 489.32 782.33 503.53 787.81 520.92 794.69 535.73 788.04 546.96 779.77 547.66 782.45 558.49 774.4 559.29 770.67 552.72 744.56 541.49 732.44 522.01 707.03 494.09 697.82 489.22 690.01 476.31 683.36 473.82 657.6 476.8 652.36 481.77 655.04 488.82 648.62 496.18 650.49 512.97 671.94 524 654.69 531.35 643.5 529.47 643.61 537.12 637.08 547.16 636.27 559.58 625.54 568.93 608.76 542.19 618.55 537.72 620.53 523.9 612.49 511.98 608.76 515.85 604.33 510.88 592.09 518.04 582.41 514.96 560.26 486.54 552.45 491.8 543.6 505.62 531.71 506.81 503.12 534.13 494.13 538.84 490.91 541.03 499.78 552.7 488.43 561.3 475.88 545.21 467.55 550.05 464.62 545.74 444.35 558.5 451.83 567.61 441.62 570 434.09 560.25 434.33 559.4 424.3 547.49 415.67 536.1 406.98 524.72 392.34 533.35 380.6 519.14 364.66 541.88 351.84 560.53 348.02 556.17 338.79 545.12 339.87 538.75 337.45 535.52 311.67 551.13 308.6 551.05 302.77 550.64 300.65 549.75 292.68 554.23 285.78 545.86 286.79 539.87 286.68 538.73 286.26 535.29 278.1 525.1 277.21 524.95 271.62 528.11 266.96 526.1 259.83 517.39 256.48 516.67 248.92 507.74 236.38 492.06 231.66 486.76 238.05 479.94 243.61 473.7 260.03 468.26 263.44 466.19 267.68 461.7 269.45 460.7 266.01 457.73 261.74 449.28 253.17 443.5 252.12 434.06 251.11 425.46 253.14 416.68 246.33 412.77 253.64 407.4 254.66 405.16 260.99 402.89 256.81 400.61 252.21 399.97 230.95 398.19 221 397.3 218.04 393.38 222.88 385.47 227.33 382.21 237.73 374.89 256.42 361.41 250.33 354.9 Z"/>
</g>
</svg>