<?xml version="1.0"?>
<svg xmlns="http://www.w3.org/2000/svg" version="1.2" baseProfile="tiny" fill="#f9c113" width="800" height="582" viewBox="0 0 800 582" stroke-linecap="round" stroke-linejoin="round">
<g fill="#c0392b" id="id_121">
<path d="M 799 104.01 795.64 187.94 730.76 228 791.17 235.64 797.88 355.83 735.24 491.31 690.49 581 574.15 552.37 413.07 550.47 377.28 543.79 383.99 413.07 276.6 414.98 226.26 382.55 228.5 348.2 117.75 358.7 87.55 334.85 10.36 341.52 1 334.63 15.96 325.31 141.24 289.06 156.9 27.7 309.04 1 324.7 41.06 532.77 16.26 535 56.32 667 67.76 649.1 84.93 736.36 102.1 776.63 90.65 799 104.01 Z"/>
</g>
</svg>