<?xml version="1.0"?>
<svg xmlns="http://www.w3.org/2000/svg" version="1.2" baseProfile="tiny" fill="#f9c113" width="800" height="455" viewBox="0 0 800 455" stroke-linecap="round" stroke-linejoin="round">
<g fill="#c0392b" id="id_167">
<path d="M 504.39 425.01 476.27 429.47 443.04 422.78 414.92 429.47 371.46 454 328.01 449.54 318.42 431.7 312.67 421.66 297.97 416.65 292.86 424.45 286.47 431.14 281.99 431.14 275.6 430.03 264.1 426.68 265.95 416.79 253.97 403.45 232.49 406.57 213.4 400.85 204.45 389.4 212.8 371.19 202.66 347.78 194.9 338.94 165.07 324.37 143 298.89 141.8 273.94 85.12 238.07 95.86 219.36 126.89 215.2 136.43 208.97 129.27 186.1 97.06 188.18 63.65 186.1 39.78 181.95 34.41 171.56 36.2 147.14 27.85 123.77 15.92 108.19 1 117.02 1.6 106.64 5.77 97.81 21.29 94.69 10.85 41.03 19.75 36.58 31.2 24.51 49.65 13.71 74.45 6.08 89.71 3.54 105.62 1 127.24 4.18 134.23 7.99 134.23 14.98 134.87 24.51 136.14 37.85 148.22 48.01 180.03 48.01 189.57 49.29 202.92 49.29 208.64 55.64 219.46 56.27 228.36 51.19 244.9 45.47 251.36 37.12 261.43 27.68 273.52 32.13 272.64 40.57 270.69 43.41 267.16 49.29 261.43 59.45 255.07 65.8 252.53 74.7 246.81 76.6 244.9 81.05 244.84 87.38 253.16 91.22 258.25 84.86 270.97 73.43 276.7 79.15 283.06 84.23 294.48 79.79 294.63 80 301.36 83.14 308.98 92.1 313.91 98.37 317.05 107.33 317.05 117.63 324.23 123.01 332.75 112.71 339.48 107.33 339.92 100.16 344.86 89.41 352.93 91.2 365.49 91.2 376.7 86.72 385.67 84.03 396.43 84.03 404.06 84.93 412.13 88.96 422.44 99.71 426.03 110.91 432.31 125.7 442.18 133.32 451.14 145.86 459.67 146.31 460.56 133.76 466.39 134.66 466.39 127.04 461.01 118.98 459.67 111.36 465.94 106.43 473.12 106.43 481.19 104.64 487.92 101.51 491.32 99.17 498.58 106.68 506 115.7 519.35 126.55 528.46 128.57 533.91 129.35 537.94 135.05 540.54 139.3 547.26 147.7 551.06 151.93 556.48 157.9 557.41 164.82 556 164.82 556.17 166.96 551.06 169.39 552.36 171.33 554.08 173.67 560.91 173.1 560.38 177.08 566.05 182.96 565.17 184.06 561.03 185.46 561.19 191.63 552.81 191.68 552.73 197.7 545.11 197.6 544.18 203.45 544.8 205.59 545.25 210.18 547.74 210.23 547.54 215.54 557.43 251.18 600.89 273.45 637.95 284.59 673.74 293.5 691.64 305.75 789.73 299.67 767.06 317.79 770.24 321.35 775.99 327.48 779.19 330.27 779.83 331.38 788.14 346.42 791.97 356.45 795.8 365.93 799 373.73 796.44 382.09 789.41 383.76 781.75 384.87 770.88 379.86 761.93 378.19 758.1 378.19 739.62 378.73 687.11 381.86 656.09 378.73 616.71 378.73 586.19 418.32 522.28 418.32 504.39 425.01 Z"/>
</g>
</svg>