<?xml version="1.0"?>
<svg xmlns="http://www.w3.org/2000/svg" version="1.2" baseProfile="tiny" fill="#f9c113" width="800" height="712" viewBox="0 0 800 712" stroke-linecap="round" stroke-linejoin="round">
<g fill="#c0392b" id="id_152">
<path d="M 183.87 224.94 177.79 209.86 190.31 206.15 195.88 206.46 199.47 201.52 211.58 187.98 226.36 168.57 225.44 148.24 224.03 138.79 223.59 131.61 218.97 113.13 217.39 109.25 217.12 103.89 223.59 91.87 219.64 74.01 215.28 56.76 221.07 55.57 226.07 53.28 230.18 57.1 241.06 57.1 247.53 59.9 248.12 49.21 249.59 42.85 251.06 40.81 256.36 37.25 256.36 30.89 259.3 28.6 260.77 24.02 263.41 23.01 265.03 22.88 267.97 16.52 270.47 14.48 271.06 11.05 274.44 10.16 279.73 4.56 280.32 1 286.79 5.96 290.91 8.25 295.61 15.12 300.61 21.73 305.46 26.69 305.32 37.51 307.96 40.05 311.93 40.18 316.49 42.21 328.7 42.72 327.23 56.72 325.61 58.12 330.61 62.06 337.52 63.84 338.25 67.91 341.19 72.37 346.78 74.78 350.16 79.87 350.31 84.58 345.75 84.96 343.25 86.36 343.69 91.58 346.78 94 349.72 93.11 353.4 93.62 357.37 95.4 357.96 103.92 362.96 105.96 368.25 104.31 370.31 100.74 372.37 96.54 370.31 93.23 362.22 93.11 359.13 89.93 360.31 86.49 364.13 85.6 368.4 84.07 373.84 84.71 375.75 85.85 376.92 81.4 378.1 75.67 382.36 71.09 382.95 64.61 387.8 60.66 394.86 59.52 398.54 56.08 404.12 53.54 411.18 53.92 414.27 56.34 415.3 57.74 420.08 59.2 426.77 61.93 430.22 66.39 431.62 70.52 438.97 73.64 442.65 75.42 444.04 77.33 441.1 81.46 441.54 86.87 439.19 92.34 437.72 97.82 437.94 102.59 443.46 105.58 449.34 106.53 455.37 106.66 458.82 107.04 463.53 105.51 471.1 102.4 475.36 101.19 479.11 101.95 479.11 104.18 476.25 108.12 474.04 111.81 472.35 116.01 471.25 126 470.51 130.27 468.01 133.9 461.84 138.99 461.76 142.04 458.31 144.78 456.03 147.07 456.17 152.67 458.09 155.92 459.7 158.4 459.41 162.6 460.22 165.08 461.03 166.61 464.19 168.52 466.61 169.66 470 173.67 472.5 176.6 481.17 178.89 484.18 178.77 482.35 175.2 483.89 167.75 488.01 160.44 489.92 154.01 490.73 146.37 489.92 143.31 492.79 139.37 495.21 130.97 498.23 126.83 499.18 121.55 500.21 118.3 503.37 117.48 507.34 120.91 512.12 121.93 518.81 121.68 522.19 120.79 525.28 116.2 524.91 110.92 522.78 106.91 522.12 103.92 525.8 101.25 533.22 102.02 537.26 106.02 542.63 109.84 548.29 108.63 551.31 105.13 552.26 102.78 549.84 98.52 549.03 95.21 548.95 90.24 550.57 85.92 550.42 81.46 551.75 78.67 554.32 76.12 557.33 74.15 561.01 71.79 564.32 71.79 570.49 71.03 574.68 71.67 577.26 73.83 589.53 77.9 596.89 80.38 602.4 81.21 608.87 82.04 613.28 82.93 614.46 83.95 619.53 82.61 621.59 78.16 622.99 71.41 625.19 72.49 626.66 76.12 628.5 81.85 630.92 87.57 634.89 92.73 637.32 97.37 640.78 103.03 642.03 106.53 643.06 111.43 647.32 117.92 649.75 120.85 653.49 125.24 654.82 129.95 658.42 133.7 662.83 140.58 664.52 146.37 667.54 148.41 672.24 149.81 676.95 149.3 680.48 147.2 690.33 148.66 694.37 149.74 702.46 148.28 707.09 148.6 709.74 147.13 710.84 144.65 713.19 148.02 714.81 150.51 719.73 156.87 723.26 160.82 724.81 163.87 725.54 167.31 729.14 172.15 732.31 176.73 733.48 180.49 735.39 184.62 738.85 186.98 742.16 190.1 739.44 196.4 736.86 197.48 732.6 201.17 729.14 203.4 724.95 205.25 720.4 205.31 715.62 205.44 714.29 206.33 718.19 210.72 718.78 216.2 717.75 220.59 714.22 221.8 710.32 221.23 710.03 224.41 710.18 227.15 711.06 232.94 714 236.57 714.88 238.93 713.41 241.67 712.38 244.15 712.23 245.74 710.32 251.35 709.51 255.04 706.21 256.57 701.72 256.63 696.58 257.08 694.15 257.71 692.16 259.56 689.59 262.11 685.84 260.9 681.8 259.94 676.43 258.48 672.68 259.18 671.65 261.6 667.46 262.49 665.85 262.81 663.71 271.6 664.23 275.86 664.52 280.7 664.96 285.74 664.82 287.71 668.86 288.28 671.07 290 670.92 292.23 673.64 297.39 675.04 300.89 677.09 304.14 682.31 310.51 684.89 315.35 685.11 319.49 688.19 317.97 689.59 315.55 689.67 310.83 692.02 307.77 695.62 303.82 696.21 294.72 699.22 287.9 697.83 283.38 699.08 280.26 702.09 278.79 705.69 277.84 708.04 272.04 714.44 269.18 715.4 265.17 717.53 261.92 723.34 260.83 727.82 260.9 737.38 256.57 745.32 255.55 748.04 254.66 751.35 256.44 752.08 259.62 748.48 265.93 746.13 268.09 745.1 272.68 743.99 279.81 746.35 283.25 748.48 287.39 748.26 290.83 745.17 292.81 742.89 296.88 742.08 300.39 742.67 306.18 745.24 310.83 746.35 314.08 744.73 319.11 744.07 324.91 746.64 329.24 748.2 333.97 749.12 353.38 755.59 360.77 767.6 367.24 781.45 368.17 796.23 382.95 799 387.57 798.7 388.79 794.38 393.11 779.41 400.95 762.53 409.17 753.74 414.37 747.87 419.18 745.68 421.7 733.19 433.09 721.42 448.56 716.8 456.87 712.18 472.58 713.1 486.44 697.4 501.23 697.03 513.89 697.4 517.86 708.49 532.65 711.14 552.09 724.19 577.92 712.18 598.25 692.78 590.86 695.56 572.38 687.24 562.22 666.49 553.09 650.85 568.69 651.5 572.31 650.3 580.7 631.83 573.3 620.74 573.3 619.87 588.98 618.44 599.27 619.82 604.72 620.74 622.28 625.36 634.29 623.51 646.3 630.9 659.24 643.83 677.72 648.45 702.67 641.06 710.99 623.51 710.06 613.35 703.6 611.51 693.43 609.66 686.96 593.04 691.58 577.33 691.58 563.48 689.74 554.24 684.19 544.08 668.48 539.24 666.11 531.15 664.78 514.53 665.71 502.02 669.05 499.41 672.1 493.28 685.11 490.51 708.22 489.25 711 484.92 709.3 480.51 706.62 473.45 705.85 466.54 704.83 462.57 699.6 464.78 697.05 469.33 694.75 470.22 690.92 469.33 686.07 470.95 677.9 468.75 675.47 463.31 673.43 463.01 667.82 467.42 664.24 465.95 659.39 469.92 654.54 469.78 649.05 468.01 645.35 458.45 645.35 452.28 642.29 447.43 639.48 440.52 636.04 435.22 635.02 429.64 636.16 434.34 638.72 424.05 639.1 421.4 642.93 416.99 645.61 420.52 648.29 424.34 652.63 426.55 657.09 424.19 660.54 422.14 665.01 424.34 666.67 428.16 668.33 425.96 672.54 427.14 674.71 428.61 677.52 428.9 684.41 426.99 687.22 423.9 686.96 420.08 684.15 418.75 678.54 416.4 675.35 411.55 670.37 408.76 667.82 407.43 662.71 405.37 658.5 402.14 647.27 395.96 642.67 387 641.14 377.73 640.5 373.47 641.65 370.38 645.48 364.35 649.18 358.03 650.58 349.06 650.33 346.86 647.39 345.97 640.25 342.44 635.14 338.18 631.31 335.53 626.98 333.77 621.62 331.27 620.85 326.27 619.83 323.62 617.41 325.24 604.52 323.18 596.86 320.24 591.25 317.74 584.36 312.3 582.45 308.63 580.02 308.48 578.24 315.68 573.9 319.36 569.69 323.18 564.07 328.77 565.22 332.89 567.77 333.62 559.35 336.86 557.06 340.24 552.08 343.03 549.92 348.77 544.81 336.42 544.94 331.12 547.11 323.33 548.51 311.57 552.47 302.6 554 293.33 551.45 288.34 549.66 287.89 545.2 273.93 545.07 268.34 545.2 260.99 542.26 257.31 542.9 252.9 543.16 244.81 543.67 237.02 543.28 234.08 538.95 237.76 534.74 232.76 532.44 223.2 529.12 216.29 526.45 207.03 526.96 205.26 529.63 206.29 534.1 203.5 536.01 200.41 534.86 198.5 530.91 195.41 527.85 191.15 528.36 187.18 528.36 186.44 530.02 182.62 531.17 179.97 530.78 179.82 535.5 176.44 541.88 171.59 537.93 168.5 536.78 166.89 539.46 168.21 545.45 166.3 549.53 163.36 552.08 152.33 553.36 146.74 555.27 139.24 557.95 131.74 557.06 128.66 553.36 124.83 553.23 117.19 553.49 111.75 551.45 105.72 548.26 99.84 548.13 89.84 547.36 84.84 544.94 87.05 540.73 88.81 537.42 85.72 531.29 83.81 526.32 81.31 523.51 72.78 521.73 56.32 519.81 50.43 521.98 46.46 524.53 41.1 530.78 36.76 535.31 31.39 541.05 31.39 541.08 5.62 541.89 1.7 529.05 1 522.48 4.69 509.54 13.93 506.77 20.39 489.22 22.24 479.05 30.95 453.1 34.83 444.79 37.21 437.67 39.79 431 45.6 418.83 49.73 409.52 58.46 395.23 67.46 378.23 69.35 374.63 69.35 360.77 74.89 349.68 80.43 337.67 89.67 336.75 101.68 345.57 108.14 351.53 120.15 351.53 132.15 342.29 147.85 335.82 159.95 325.45 169.1 320.12 191.26 329.36 196.81 319.19 196.81 302.56 187.57 290.54 170.02 275.76 164.48 263.75 171.87 251.73 172.52 248.35 180.18 240.65 183.87 224.94 Z"/>
</g>
</svg>