<?xml version="1.0"?>
<svg xmlns="http://www.w3.org/2000/svg" version="1.2" baseProfile="tiny" fill="#f9c113" width="800" height="842" viewBox="0 0 800 842" stroke-linecap="round" stroke-linejoin="round">
<g fill="#c0392b" id="id_186">
<path d="M 482.4 523.65 487.78 522.52 492.04 521.24 496.12 522.2 497.97 524.29 495.38 527.66 492.78 530.87 497.04 531.35 501.12 529.26 503.53 528.78 505.57 526.53 509.46 526.53 514.28 520.12 523.37 513.54 529.86 509.69 533.75 502.79 535.23 509.69 537.08 514.34 542.83 513.38 545.98 510.97 548.39 505.84 554.32 503.75 558.96 500.39 560.81 496.7 565.26 494.77 579.16 483.39 580.46 484.51 578.79 492.85 580.28 494.93 596.22 494.45 602.89 492.05 609.75 489.16 610.31 494.61 615.87 491.08 620.5 487.07 626.99 483.55 631.26 482.26 632.55 478.42 637 478.1 644.6 480.82 649.98 478.9 654.06 474.41 654.43 471.68 652.39 469.28 652.57 465.91 658.51 461.9 662.77 458.7 662.77 456.45 657.95 453.41 653.31 452.28 648.68 452.28 648.87 449.72 651.83 447.15 661.1 439.94 666.29 432.41 668.7 425.84 670.37 430.17 671.3 434.81 672.22 437.7 677.23 434.33 680.56 429.85 685.76 427.76 691.87 426.8 694.84 428.88 694.1 432.09 692.98 435.78 690.95 444.59 689.28 459.98 689.28 464.95 687.98 467.67 692.8 468.8 699.1 470.56 705.03 470.24 708 469.44 706.33 465.59 710.41 465.11 720.98 464.79 724.31 462.7 728.95 461.58 732.65 459.18 735.81 459.5 737.1 461.58 739.7 468.47 737.47 474.89 731.91 480.02 726.35 484.99 723.2 489.48 721.35 494.45 718.2 501.83 716.34 507.6 717.45 512.58 722.27 516.75 727.46 520.28 735.81 525.73 738.77 529.9 741.37 530.06 743.78 525.73 743.41 521.4 740.07 518.19 738.03 508.57 738.22 502.95 740.26 497.82 735.99 495.41 736.92 491.08 739.7 485.47 744.33 482.42 750.45 482.58 756.01 479.22 754.16 483.87 756.57 485.31 761.57 485.63 768.8 484.19 774.55 481.14 776.77 478.26 781.22 475.21 782.71 473.61 785.45 472.28 789.48 476.93 790.38 478.21 793.8 485.32 799 495.49 787.11 497.47 786.03 501.44 782.76 513.83 783.64 520.89 783.5 532.48 784.24 534.22 788.57 546.89 792.2 563.96 779.84 565.42 782.63 568.41 787.47 574.14 796.38 580.75 798.02 582.13 796.93 587.58 769.3 591.58 754.39 609.02 764.3 617.26 774.39 626.46 765.66 653.35 760.57 670.43 748.21 679.52 744.94 691.51 735.13 695.5 732.05 698.93 723.02 708.61 719.13 713.31 712.59 722.07 702.04 738.74 690.04 754.71 682.05 759.46 670.05 769.99 676.6 781.62 676.94 792.17 676.96 793.98 668.5 800.85 665.81 796.16 662.42 789.81 661.81 788.59 653.62 772.23 651.71 766.5 650.36 762.32 650.73 759.46 651.1 757.42 651.01 754.47 651.44 749.31 636.15 737.3 638.76 734.37 640.41 733.3 642.86 729.28 644.89 727.48 637.24 707.83 625.71 701.34 623.4 699.04 619.77 698 609.51 693.73 606.19 692.33 594.65 687.09 576.09 694.73 562.98 704.55 553.44 714.09 553.15 716.75 553.15 729.2 553.02 731.71 552.19 745.04 551.76 747.63 548.99 752.38 548.11 754.93 545.71 758.01 544.66 759.81 543.17 762.4 535.68 775.51 528.03 791.88 512.75 807.16 499.96 815.38 497.24 817.14 483.26 826.81 459.76 834.28 457.33 834.87 429.75 841 424.29 815.89 401.35 800.61 410.09 791.88 402.48 774.49 401.17 773.36 383.88 759.13 382.1 758.4 380.15 757.61 376.13 755.84 359.81 748.42 349.31 748.06 347.27 747.95 345.74 747.98 344.15 747.83 341.16 747.76 339.44 747.72 335.76 747.55 331.77 747.32 328.05 747.21 324.81 747.2 319.99 747.18 316.72 747.2 304.08 747.2 301.31 746.99 296.63 747.12 277.91 747.12 236.45 742.76 210.24 732.93 205.61 729.17 203.69 728.41 198.58 723.44 180.75 708.92 166.55 687.09 141.43 677.26 114.13 669.62 95.57 669.62 81.63 665.53 77.57 664.46 64.13 661.3 37.69 655.43 18.03 646.7 6.02 635.78 1 629.86 47.25 592.99 72.48 504.68 85.62 489.17 115.5 463.75 123.51 441.98 121.8 411.31 130.38 395.98 132.67 371.26 146.4 364.34 148.69 341.61 179.59 332.22 201.34 305.54 187.61 296.16 145.83 297.15 134.39 303.57 120.08 317.89 105.77 317.4 109.21 309.49 116.65 289.24 114.93 275.91 96.04 286.28 93.18 277.89 90.32 264.56 89.56 247.19 91.23 216.66 90.57 201.28 73.16 191.75 115.85 97.78 124.75 86.73 127.41 85.83 130.93 82 139.55 78.09 148.35 75.86 159.11 71.63 167.82 68.6 179.22 64.21 187.38 64.14 191.08 62.78 196 62.38 196.92 61.03 194.51 57.36 194.14 54.25 197.2 47.71 197.57 40.93 199.05 37.5 198.68 31.92 196.92 27.46 197.2 22.68 199.61 25.71 201.74 28.97 205.45 30.97 208.6 31.92 209.81 34.95 214.26 35.19 219.35 33.92 220.93 34.31 221.49 39.18 218.61 44.6 217.59 49.78 219.63 55.44 220.65 58.63 219.72 65.01 224.17 65.49 230.66 65.97 236.5 66.93 238.82 66.61 240.95 55.68 241.88 52.57 243.82 41.65 244.56 33.68 245.58 28.81 246.14 23.95 250.4 14.39 253.37 9.05 263.57 8.81 268.85 8.01 279.23 3.71 282.94 1 284.88 1.48 286.83 3.15 286.55 6.34 284.61 13.11 283.31 19.17 285.07 32.32 285.81 39.97 283.96 49.7 283.21 55.2 284.79 62.54 283.21 70.91 280.99 79.85 279.41 83.28 278.58 87.03 276.82 91.1 276.08 100.19 275.89 108.33 274.78 117.75 273.11 124.93 275.06 125.33 275.99 127.72 275.8 129.72 270.42 138.42 268.66 140.89 267.55 144.72 264.12 153.27 263.19 161.41 259.3 168.44 256.98 174.43 258.28 178.02 258 181.3 256.52 188.96 257.36 195.19 257.91 198.79 255.41 207.18 254.3 219 250.77 225.72 247.44 237.06 245.21 249.05 247.62 262.01 252.07 267.92 255.59 276.4 255.59 283.44 256.71 288.39 255.41 292.55 256.71 297.35 256.89 303.75 259.67 308.55 259.86 314.79 263.19 317.99 264.12 322.47 266.35 329.19 273.76 336.72 281.73 341.36 297.86 343.28 309.17 344.88 317.88 348.4 318.07 352.24 313.62 363.13 309.72 368.74 308.05 375.62 306.76 381.23 304.9 386.19 304.16 388.91 303.79 395.96 294.15 407.81 291.93 411.66 287.66 418.23 287.29 424.32 286.18 429.93 283.21 438.9 280.62 444.83 276.91 447.23 272.83 448.36 265.42 449.32 260.23 449.64 257.45 452.04 255.41 455.09 252.63 458.13 251.52 463.59 252.81 466.63 248.74 470 246.33 474.17 243.92 478.01 241.51 481.06 239.84 485.87 239.1 489.72 236.69 493.25 235.2 496.94 233.53 500.95 233.91 503.35 236.13 504.16 237.43 507.68 237.06 514.58 236.87 519.39 238.91 521.64 241.32 527.42 246.88 533.67 254.85 538.65 259.49 540.57 261.9 545.71 266.9 549.08 270.79 552.29 273.02 555.34 275.06 556.14 278.77 557.43 284.88 561.6 287.29 561.76 289.33 557.27 291.74 553.57 294.52 551.81 297.86 551.81 299.71 553.89 304.35 563.04 308.24 561.12 313.8 560.48 316.4 562.56 315.84 566.41 314.17 568.66 318.99 571.07 321.4 573.8 323.44 578.78 323.44 587.61 324 595.47 330.67 603.02 334.19 606.4 337.16 606.23 339.57 606.56 344.94 605.75 348.47 604.31 351.8 599.97 359.4 596.12 361.81 593.55 368.86 589.53 372.94 582.31 374.79 572.68 377.57 564.97 381.65 553.89 381.83 539.93 382.58 532.55 385.36 527.58 393.14 526.77 403.71 522.28 417.8 519.72 423.54 519.23 426.88 514.74 426.88 505.12 427.07 501.91 431.51 499.18 436.7 496.3 440.23 494.85 442.27 495.17 446.34 498.7 447.83 503.03 448.75 513.3 450.98 517.63 453.39 517.47 461.92 512.66 468.4 506.88 474.52 503.03 476.75 502.55 476.93 506.72 474.52 516.35 472.48 520.36 474.15 520.68 477.3 520.04 479.34 523.08 482.4 523.65 Z"/>
</g>
</svg>