<?xml version="1.0"?>
<svg xmlns="http://www.w3.org/2000/svg" version="1.2" baseProfile="tiny" fill="#f9c113" width="800" height="489" viewBox="0 0 800 489" stroke-linecap="round" stroke-linejoin="round">
<g fill="#c0392b" id="id_182">
<path d="M 44 156.6 35.82 146.71 33.87 141.28 28.99 124.18 33.94 118.78 38.71 113.61 41.16 110.9 51.95 99.12 53.89 96.76 63.05 92.67 73.31 87.79 74.01 83.43 81.35 82.18 90.38 81.12 99.41 78.3 109.26 78.3 112.54 74.96 114.8 71.78 121.78 71.08 126.91 72.49 129.78 74.78 137.38 68.79 142.92 66.5 145.38 63.68 148.25 61.39 152.56 61.39 155.85 64.56 160.77 68.09 169.39 66.68 172.06 65.09 171.24 63.15 169.8 61.57 172.47 57.87 176.98 58.05 187.45 63.86 196.68 66.15 204.69 67.38 209.82 73.37 215.15 75.48 221.93 75.31 223.57 77.42 230.54 75.66 236.7 73.9 239.37 67.73 238.55 58.58 241.22 49.77 243.88 43.08 239.78 38.68 239.37 33.22 239.98 20.19 258.66 20.54 268.1 18.08 275.9 17.72 281.03 19.49 282.67 22.13 282.47 27.23 289.24 27.23 293.14 25.47 296.63 24.77 297.45 29.7 297.86 37.8 296.83 43.43 295.8 46.42 295.39 51.36 298.68 54.35 302.78 54.88 304.42 52.76 306.27 50.3 310.58 48.89 322.07 48.89 328.23 48.01 342.8 47.66 348.96 46.78 359.63 46.25 362.91 42.73 360.86 40.44 359.63 36.39 357.99 28.64 354.7 25.65 350.8 23.71 347.11 18.25 343.83 15.61 356.14 15.79 369.48 16.67 380.76 16.32 379.74 8.92 384.05 5.93 403.75 6.11 414.63 5.23 415.45 1 420.37 1.18 427.35 2.41 428.79 8.75 432.48 9.8 439.87 9.45 441.71 9.98 441.92 17.2 440.07 23.36 440.48 30.58 440.89 37.27 439.05 42.37 438.02 46.42 437.61 48.89 440.48 55.23 442.13 61.57 444.38 63.51 442.13 68.26 441.92 76.36 442.54 78.83 446.64 79.89 449.31 78.13 450.13 74.96 459.98 75.13 468.39 76.19 474.96 75.66 475.99 74.07 474.55 70.73 476.4 68.44 493.02 68.26 494.05 75.48 494.66 77.24 492.81 80.59 492.4 88.34 491.17 91.16 487.48 92.92 487.68 103.32 497.33 103.32 501.64 104.2 505.33 103.14 511.49 101.91 514.16 100.32 514.77 98.74 520.31 98.03 523.6 99.26 528.11 97.33 534.68 96.97 534.47 100.32 530.16 107.37 527.09 112.65 525.03 117.23 522.98 122.7 524.21 126.04 527.91 126.22 528.93 137.5 530.16 142.26 526.47 144.02 525.24 145.25 524.62 153.89 528.32 157.94 528.73 163.93 532.42 165.52 551.1 164.99 557.25 158.12 561.77 150.71 565.87 147.37 572.85 147.9 574.49 155.83 575.11 160.23 575.11 166.4 576.54 168.34 590.7 167.11 590.5 171.69 591.73 173.63 589.06 179.62 607.74 179.27 610.81 176.8 611.23 170.1 609.58 163.93 623.54 164.46 625.39 167.81 626.21 177.86 637.7 178.74 649.4 177.51 654.73 176.27 656.37 180.15 668.07 174.69 676.07 169.93 707.68 168.34 710.96 169.93 713.01 179.8 720.61 179.97 722.66 178.39 723.68 175.57 734.56 175.57 735.79 190.9 735.18 194.61 739.49 201.48 741.13 210.12 745.44 215.41 747.08 224.76 751.39 230.05 754.06 236.92 755.29 244.86 767.19 259.68 771.71 267.97 777.25 272.73 781.35 276.96 782.17 281.02 787.92 288.25 792.23 294.78 793.66 306.07 796.33 312.78 797.77 318.25 792.84 326.9 792.23 338.37 792.23 341.55 797.36 352.84 799 358.14 798.87 370.5 797.97 369.76 795.28 366.56 789.32 363.5 786.12 362.11 765.59 351.29 754.25 346.13 751.6 344.09 748.13 343.07 731.51 344.2 725.21 344.09 715.44 339.13 709.78 333.21 702.45 328.31 697 327.29 672.99 322.96 664.64 321.05 643.32 319.26 640.56 318.59 621.33 324.04 615.08 325.88 597.2 321.71 593.98 320.73 590.2 319.81 570.29 327.43 569.9 347.82 570.18 364.74 556.72 379.67 551.98 385.38 540 408.78 544.81 417.66 551.98 429.71 549.62 437.82 544.45 451.58 531.22 462.56 518.61 470.39 515.98 471.44 493.12 478.89 487.61 477.52 459.78 469.51 451.08 471.49 440.29 472.65 430.63 474.03 413.52 482.97 403.33 488 398.73 487.58 383.74 486.31 367.14 468.52 364.3 467.48 358.93 466.5 346.29 466.14 319.7 466.73 312.31 466.75 297.75 450.35 272.88 450.35 257.29 452.61 248.24 456.25 230.44 457.38 225.55 457.31 221.91 457.64 182.64 451.63 153.96 463.71 138.77 467.57 114.52 471.61 90.25 475.25 86.39 477.75 76.42 443.19 77.32 436.45 78.17 430.3 78.7 426.16 80.76 411.08 81.3 406.9 81.86 402.73 82.3 398.01 81.54 393.54 80.32 357.86 79.69 339.79 79.31 334.07 72.23 323.36 68 315.3 62.38 315.45 34.57 310.81 23.77 309.26 7.22 306.25 9 283.94 9.39 279.71 9.55 277.14 10.09 270.3 10.69 263.15 11.18 256.72 11.52 252.45 11.5 246.96 10.03 243.4 6.1 234.45 1 226.11 3.18 221.35 4.03 219.19 6.44 213.66 18.88 217.55 27.43 218.33 46.09 218.33 50.76 208.21 61.64 195.76 68.64 175.54 63.2 165.42 53.87 168.53 44 156.6 Z"/>
</g>
</svg>