<?xml version="1.0"?>
<svg xmlns="http://www.w3.org/2000/svg" version="1.2" baseProfile="tiny" fill="#f9c113" width="800" height="541" viewBox="0 0 800 541" stroke-linecap="round" stroke-linejoin="round">
<g fill="#c0392b" id="id_104">
<path d="M 300.6 483.29 304.06 479.49 314.43 466.84 299.61 472.32 265.52 439.43 265.52 398.94 259.84 394.27 247.22 393.15 231.45 393.82 212.53 405.04 209.63 404.37 199.38 408.63 200.43 413.79 195.44 416.26 192.29 413.56 178.36 411.77 159.43 397.41 166.26 391.35 160.74 390.46 166 383.95 143.66 366.01 122.89 367.58 94.51 345.82 83.21 363.76 82.15 368.7 75.58 374.31 45.36 382.38 6.98 366.9 1 347.61 6.78 306.57 49.36 212.16 110.61 189.96 142.15 159.25 178.16 45.37 225.21 19.6 247.02 58.6 344.8 61.29 377.66 12.65 393.95 1 408.67 8.17 385.02 62.86 411.57 62.41 393.69 97.6 411.57 170.01 430.23 158.57 476.49 156.33 492.52 217.54 500.93 237.72 540.89 284.36 550.87 317.56 627.62 321.15 751.69 204.09 799 223.37 795.58 244.62 780.86 273.32 780.86 313.69 742.12 414.17 648.46 417.49 643.2 337.63 555.67 365 540.69 368.81 523.6 376.44 506.26 385.86 471.56 411.43 417.41 371.28 396.39 406.27 387.71 420.52 397.31 428.71 384.03 444.19 384.69 448.34 380.48 453.5 396.91 463.71 370.23 482.55 389.29 495.79 374.31 509.93 368.66 506.34 358.67 514.53 353.54 513.07 353.28 522.05 349.21 519.8 345.26 521.37 333.7 530.8 332.91 534.95 328.7 540 313.72 525.75 306.16 526.65 297.23 514.98 297.23 510.49 313.44 496.79 300.6 483.29 Z"/>
</g>
</svg>