<?xml version="1.0"?>
<svg xmlns="http://www.w3.org/2000/svg" version="1.2" baseProfile="tiny" fill="#f9c113" width="800" height="597" viewBox="0 0 800 597" stroke-linecap="round" stroke-linejoin="round">
<g fill="#c0392b" id="id_145">
<path d="M 653.76 41.41 651.15 52.13 654.29 60.2 661.85 69.6 665.15 74.42 666.59 84.18 666.85 88.77 662.17 94.27 661.53 97.35 672.07 109.09 672.55 114.36 666.37 126.65 662.01 137.34 652.11 144.91 643.17 145.73 643.59 151.15 645.67 155.64 644.18 160.32 637.85 169.5 631.03 177.02 620.97 182.34 614.75 183.49 610.01 180.37 598.36 187.16 590.96 197.76 583.13 204 594.95 204.27 605.27 208.86 610.6 210.61 613.36 205.47 618.9 203.27 624.22 204 636.78 198.77 640.29 200.51 644.13 214.1 648.06 215.1 646.25 220.98 655.94 220.98 656.15 226.58 645.94 236.22 630.93 246.22 621.35 251.64 620.92 255.58 624.97 259.99 628.05 259.44 636.67 255.4 656.37 247.51 661.69 248.42 671.27 254.02 675.42 256.5 678.51 244.75 686.7 245.21 687.87 252.55 691.81 252.74 693.09 258.71 715.02 258.43 712.14 265.13 705.97 269.17 685.64 277.62 678.72 279.18 677.87 281.57 680.74 287.35 688.73 284.69 691.39 285.06 694.47 290.2 720.13 290.93 722.89 287.35 723.43 283.86 726.94 283.59 728.32 279.45 731.83 277.62 735.13 280.56 734.92 291.57 738.11 293.87 781.86 293.59 799 307.09 770.37 307.37 770.47 320.96 773.77 322.34 773.88 322.34 776.22 329.23 776.54 341.9 780.37 345.21 783.67 345.3 787.82 350.63 787.61 354.85 780.37 357.61 762.7 362.47 751.21 367.44 751.31 367.44 739.92 373.5 731.52 377.08 727.68 379.38 725.34 383.6 725.45 383.6 724.86 388.43 642.48 413.6 513.04 448.34 426.18 470.58 374.03 488.05 357.85 491.17 354.87 489.15 351.67 488.41 347.31 490.8 349.97 495.03 354.87 497.42 356.14 501.83 353.48 505.79 341.78 508.73 336.35 510.2 337.52 526.29 336.45 534.38 329.43 537.78 328.9 543.95 331.13 545.32 334 544.68 335.18 547.9 333.79 551.95 321.44 552.04 321.02 554.7 322.72 558.75 328.04 560.5 328.15 568.68 345.82 568.22 348.37 562.8 348.37 560.13 355.19 561.79 355.61 576.5 358.06 594.71 355.51 594.8 347.1 585.7 341.03 581.28 335.71 577.97 327.09 578.98 314.95 581.65 303.88 583.67 296.86 583.12 281.32 581.74 268.97 583.95 258.11 589.84 243.95 596 221.81 595.63 217.02 595.36 220.11 588.55 226.6 584.41 226.6 572.82 218.2 573.1 214.47 574.11 214.68 561.14 219.26 559.3 225.11 553.32 222.88 538.34 220.22 529.88 204.89 532.73 193.29 539.53 186.48 543.12 176.9 545.97 154.44 552.59 134.74 562.43 117.71 571.63 105.79 579.17 102.6 578.98 94.62 584.69 92.12 586.89 61.62 589.72 31.62 590.6 15.57 589.54 6.11 584.23 6.11 584.25 4.97 583.59 2.28 582.08 1 581.2 5.86 578.42 19.8 559.88 18.92 540.11 20.86 532.87 23.15 524.05 14.2 516.94 11.21 514.58 12.15 503.14 17.26 492.76 19.07 477.41 21.94 467.66 19.39 450.84 25.99 440.83 44.4 427.59 53.34 432.65 58.66 437.24 60.47 441.74 69.63 437.88 76.55 432 91.02 416.29 109.97 397.73 109.65 412.71 107.31 419.51 108.59 435.4 142.43 435.49 148.18 433.29 147.12 415.09 140.73 408.66 142.75 401.04 150.74 394.15 163.62 387.07 173.73 384.22 181.07 380.55 189.06 380.64 198.64 386.98 211.84 386.43 213.33 383.12 217.16 374.21 218.75 361.9 225.35 352.26 225.89 336.92 224.18 333.06 228.87 321.58 228.12 318.82 229.93 314.23 236.96 299.45 241 294.95 246.43 281.45 249.09 271.9 251.01 262.26 253.19 257.76 259.84 257.67 279.64 252.72 335.2 234.36 381.82 217.47 381.4 214.35 377.57 213.25 374.59 200.4 360.96 188.65 374.37 187.55 392.89 183.33 407.58 190.67 423.76 195.26 438.03 181.68 454.42 153.23 449.52 131.4 446.75 125.71 447.18 98.38 457.19 96.36 508.92 51.79 522.12 46.11 527.86 31.99 538.93 9.25 546.38 1.18 553.41 1 568.1 7.05 590.66 11.82 598.33 18.23 607.7 21.35 621.75 21.17 639.2 26.49 650.49 32.17 655.48 35.82 653.76 41.41 Z"/>
</g>
</svg>