<?xml version="1.0"?>
<svg xmlns="http://www.w3.org/2000/svg" version="1.2" baseProfile="tiny" fill="#f9c113" width="800" height="619" viewBox="0 0 800 619" stroke-linecap="round" stroke-linejoin="round">
<g fill="#c0392b" id="id_113">
<path d="M 151.35 589.35 150.86 575.94 158.74 576.78 169.58 576.36 173.52 575.52 180.41 574.27 178.94 568.4 192.03 568.68 170.53 545.96 158.99 538.84 164.19 533.64 173.47 525.93 185.92 522.47 194.29 493.59 201.76 491.67 202.44 485.89 207.42 489.36 216.25 480.7 216.93 461.64 224.67 452.79 222.81 450.87 223.04 445.1 219.87 444.33 214.21 450.1 206.06 451.25 206.06 458.37 201.54 457.03 199.05 448.37 184.79 449.71 181.62 441.44 169.4 439.32 161.93 429.9 163.97 415.66 147.44 423.93 141.1 420.66 116.89 423.36 102.85 414.31 109.19 413.54 115.3 415.66 120.06 410.85 114.85 406.62 116.89 401.04 103.31 397 105.12 404.5 97.87 405.85 92.89 398.35 79.99 404.7 76.6 410.66 74.33 419.89 61.21 424.13 55.77 431.44 47.85 434.71 24.99 433.36 4.85 417.58 1 392 8.7 383.54 1.23 375.85 3.94 366.81 3.94 361.81 12.09 357.58 13.45 345.47 20.92 343.93 28.16 334.89 30.77 330.45 38.75 331.37 54 326.45 65.31 314.65 80.56 305.8 88.43 287.61 99.74 286.14 113.51 285.64 125.81 280.73 131.22 266.96 133.19 255.66 141.06 242.87 160.73 235.5 181.88 245.33 205 244.84 223.69 235.99 239.43 244.84 259.1 244.84 275.33 245.33 283.69 232.06 297.47 227.14 306.32 235.5 333.86 238.45 354.52 236.48 369.28 221.24 385.51 205.51 404.69 199.12 430.76 170.61 452.89 152.91 469.61 134.23 501.58 130.29 510.44 110.63 507.98 89.98 527.65 77.69 558.15 77.69 573.39 70.81 575.36 53.6 616.19 27.55 641.56 10.53 643.93 5.64 643.32 3.31 646.19 1 663.4 4.93 667.83 19.19 671.76 45.24 681.6 53.6 702.26 73.76 711.6 88.02 728.82 115.55 777.02 156.84 794.73 177.98 799 184.07 798.25 184.11 798.04 184.15 798.32 184.65 796.21 184.56 793.97 184.57 791.54 184.52 788.42 184.5 781.7 184.65 779.41 184.66 779.1 186.68 778.78 187.71 777.75 191.29 776.67 194.33 775.54 194.98 774.01 193.73 773.8 192.54 773.99 192.19 774.47 191.88 774.11 191.75 772.97 191.53 769.5 190.52 767.23 190.03 765.38 189.57 766.11 190.9 766.53 191.94 766.82 192.47 767.29 193.13 767.73 193.49 768.26 194.07 768.1 194.41 767.55 195.88 766.88 195.02 765.24 196.36 764.99 196.68 766.65 197.82 765.18 198.7 764.52 199.27 763.52 200.32 762.48 200.91 760.81 202.19 759.85 200.63 757.02 203.01 755.95 204.21 755.36 205.23 754.67 206.09 753.99 206.1 753.96 206.62 753.73 208.59 753.85 208.81 753.79 209.64 753.52 212.74 752.4 214.97 752.35 215.18 752.65 216.65 752.98 217.53 752.14 218.22 751.75 218.61 751.4 218.61 751.18 219.38 750.23 219.77 749.56 220.11 748.64 220.66 744.98 217.61 744.06 216.92 742.28 219.41 740.75 221.4 740.18 221.88 737.89 225.24 736.26 227.74 735.37 227.43 735.15 227.47 733.96 228.55 732.51 230 732.12 230.54 730.95 233.05 730.36 233.99 729.41 232.84 728.48 234.13 726.68 236.82 724.21 241.39 719.78 241.12 718.71 241.81 717.62 242.4 716.9 242.67 714.86 244.18 713.4 243.81 712.38 243.46 710.31 242.56 706.54 239.64 705.17 238.66 695.92 233.92 693.73 233.42 690.85 232.85 685.22 233.48 685.17 244.37 686.17 249.05 688.51 249.28 688.72 249.4 688.2 250.29 688.03 251.76 687.63 252.92 687.36 253.87 686.84 255.67 686.25 256.81 685.53 259.11 684.9 260.84 684.16 262.64 682.6 262.82 680.43 262.74 678.88 262.59 677.27 262.6 675.18 262.48 674.19 262.62 673.49 262.93 672.23 263.3 671.52 263.93 670.97 264.6 669.99 266.1 668.15 269.55 667.21 271.39 666.56 272.72 665.93 274.31 664.74 276.78 664.01 280.21 662.96 287.35 662.66 289.58 659.06 288.07 658.14 287.65 654.07 286.27 652.79 285.05 651.53 286.6 649.43 289.08 648.16 290.71 645.92 293.44 644.3 294.75 643.84 295.15 642.83 295.83 640.98 299.31 639.93 301.32 638.9 303.09 637.51 302.4 636.68 303.64 635.59 305.08 635.49 305.93 635.58 307.05 635.59 309.44 635.49 311.59 635.36 313.2 635.31 316.79 635.44 318.6 636.04 325.51 636.33 329.41 636.94 330.33 637.32 331.1 638.88 333.4 636.35 335.71 635.12 337 633.82 337.89 633.28 338.39 632.71 339 631.6 340.53 629.86 342.22 629.3 342.88 628.43 343.6 627.75 343.55 626.15 343.3 625.01 344.16 624.24 344.61 622.28 346.01 621.91 346.33 621.47 346.64 619.76 347.6 619.43 347.88 618.56 348.49 618.36 348.68 618.58 348.83 619.33 349.19 619.74 349.68 620.26 350.15 621 350.52 621.6 350.76 622.34 351.36 622.03 351.86 622.79 352.41 626.02 354.8 628.78 357.08 629.85 357.97 630.12 358.42 630.57 359.39 630.82 359.6 630.88 360.11 628.51 360.99 625.7 361.93 624.71 362.46 623.71 362.89 621.98 363.24 619.7 363.9 618.79 364.42 618.1 364.94 617.52 365.09 617.28 365.59 616.7 366.19 615.2 366.83 614.81 369.94 614.81 371.21 614.77 372.24 614.66 373.81 614.04 375.35 612.26 377.4 610.74 378.75 610.02 381.47 609.43 383.95 610.39 385.31 612.03 387.25 613.22 388.48 613.88 389.89 613.88 390.21 614.78 391.78 614.57 392.14 615.62 393.17 616.75 394.49 616.77 395.03 616.6 395.31 615.88 395.84 615.79 396.38 615.23 398.99 615.16 399.15 614.91 399.38 614.56 399.58 614.32 399.84 615.5 400.91 618.78 402.72 620.27 403.22 621.13 403.58 623.13 404.53 623.52 404.97 621.75 407.9 621.29 409.15 621.56 409.48 620.87 409.9 620.81 410.13 620.74 410.8 620.57 411.17 620.39 412.06 619.34 412.73 618.29 413.46 617.87 413.71 616.99 414.1 616.6 414.35 615.86 414.7 615.36 414.9 614.14 415.66 612.83 416.4 610.63 417.6 609.48 418.13 607.39 418.9 603.89 419.83 603.63 420.37 603.67 421.22 604.13 423.51 600.21 423.81 596.32 424.25 591.42 424.76 588.63 424.83 584.58 424.96 581.96 425.63 580.76 426.01 578.53 426.8 577.04 427.41 568.92 431.32 558.8 436.22 555.67 435.63 555.12 435.42 554.44 435.12 554.02 434.83 553.49 434.42 552.81 433.74 552.14 433.31 549.94 434.09 545.37 435.77 547.05 436.41 545.39 439.81 544.87 442.77 544.46 443.72 544.19 444.59 543.88 445.89 544 450.38 544.2 451.78 540.2 452.16 540.01 452.54 538.12 453.37 537.43 453.73 535.35 454.51 532.39 455.72 531.24 456.39 530.42 457.45 528.8 458.29 527.83 458.11 527.44 458.37 527.42 458.81 527.75 458.99 527.37 459.39 526.11 460.25 524.91 461.89 524.25 462.72 524.07 463.26 523.35 464.91 523.23 465.69 523.01 466.73 522.77 467.59 522.03 469.87 523.47 470.59 526.26 472.07 525.95 472.09 501.77 488.42 488.04 492.34 482.16 502.79 468.44 504.1 456.67 500.18 456.02 508.02 473.67 528.27 456.02 534.8 429.23 561.58 414.85 570.73 391.98 551.78 374.33 534.8 362.57 530.88 348.84 545.25 325.32 562.89 318.73 566.01 318.99 569.27 321.77 571.42 317.66 580.42 313.8 586.52 301.1 590.96 299.77 583.01 299.85 580.79 297.75 576.95 297 574.22 295.55 571.65 291.98 570.32 286.7 569.48 282.7 567.6 280.79 566.64 280.76 563.46 279.8 562.17 277.37 560.74 277.13 558.28 278.32 555.54 273.28 554.26 270.96 554.03 265.22 554.28 264.4 555.56 264.4 556.6 262.55 556.62 261.97 557.64 260.84 558.15 260.84 559.41 259.68 560.2 259.53 560.87 259.36 561.83 258.49 562.69 257.53 562.13 255.13 562.03 255.04 561.31 254.02 560.82 253.82 558.97 250.49 559.63 249.79 560.74 249.53 561.41 247.59 562.15 247.88 564.89 247.24 565.16 247.27 567.01 247.5 569.5 245.62 569.72 244.92 570.61 245.27 571.25 246.11 573.23 244.22 574.12 242.11 575.35 241.53 576.16 241.32 577.45 241.9 578.88 241.88 580.93 241.64 582.38 240.08 582.53 239.18 583.27 239.06 584.7 238.11 584.78 237.64 585.44 237.99 587.96 235.79 589.04 231.44 588.81 230.22 588.44 225.38 585.68 223.02 588.06 216.25 584.09 203.35 591.03 202.67 598.73 186.37 594.69 185.69 599.7 192.26 612.99 180.04 618 177.09 613.38 170.76 615.11 157.17 617.81 137.03 599.12 147.41 593.55 151.35 589.35 Z"/>
</g>
</svg>