<?xml version="1.0"?>
<svg xmlns="http://www.w3.org/2000/svg" version="1.2" baseProfile="tiny" fill="#f9c113" width="800" height="945" viewBox="0 0 800 945" stroke-linecap="round" stroke-linejoin="round">
<g fill="#c0392b" id="id_178">
<path d="M 336.71 270.49 346.39 261.8 352.63 251.2 360.75 245.76 374.18 244.41 378.24 237.88 383.86 235.03 389.33 231.5 394.17 226.47 400.88 226.74 406.81 232.04 406.81 232.18 415.71 230.55 419.46 225.11 425.86 220.36 433.82 220.77 437.88 223.35 446.63 218.87 451 215.2 454.44 210.58 453.65 206.23 467.55 203.79 472.86 200.26 481.76 198.76 485.35 193.6 486.91 188.58 484.88 181.65 490.35 180.29 501.12 176.9 512.52 167.39 513.92 163.05 516.58 158.02 521.11 155.17 522.67 150.01 525.17 146.35 530.32 149.47 533.6 153.81 531.57 160.74 536.25 168.34 543.75 171.33 552.49 167.8 556.71 169.43 562.64 163.59 574.82 159.79 587.15 152.59 585.59 143.49 586.53 136.3 589.34 132.77 585.44 128.42 583.09 122.99 582.78 119.46 569.2 116.88 565.29 110.23 556.08 106.7 551.24 100.19 547.96 100.05 537.81 104.13 539.06 92.99 537.97 89.33 527.66 88.38 525.01 91.09 521.42 88.24 520.17 76.17 524.7 68.7 529.85 63.68 524.85 55.4 524.23 51.06 517.98 44.55 516.42 39.66 520.64 32.2 525.79 25.69 524.54 19.58 522.2 14.02 520.79 4.93 522.82 1 528.45 5.07 531.26 6.83 534.07 14.29 540.94 15.24 545.31 15.65 550.62 21.35 558.42 24.06 564.2 25.82 572.79 23.79 578.25 22.7 587 23.65 587.31 23.45 591.53 28.54 596.21 29.08 599.33 30.98 601.52 46.18 608.7 52.15 613.39 46.18 621.82 45.63 628.69 52.15 635.25 56.22 639.93 57.3 644.93 64.36 650.86 79.02 660.23 83.09 674.59 87.16 685.21 89.33 687.08 91.5 683.96 97.47 687.08 104.53 693.33 107.52 691.77 114.85 693.95 119.19 696.76 126.25 705.51 131.41 713.77 135.31 712.42 142.71 716.29 151.67 718.27 155.15 727.79 173.44 737.3 188.8 737.3 199.04 738.77 211.48 740.24 224.96 741.7 237.82 743.89 250.98 746.67 266.96 747.38 273.74 749.01 286.83 757.07 304.39 764.5 307.56 773.17 310.97 781.95 302.19 792.2 300 799 300.42 797.18 314.25 792.45 322.51 784.19 327.23 778.28 329.01 770.02 330.78 763.52 334.91 758.8 340.81 758.8 353.2 761.16 362.05 762.34 376.22 763.98 382.62 765.29 386.25 749.94 393.33 737.54 403.96 720.42 406.32 709.2 406.32 699.16 407.5 689.13 418.12 680.27 425.2 669.64 424.61 656.06 418.71 648.43 421.25 646.62 430.51 640.12 437.6 627.13 442.91 612.37 440.55 601.74 437.6 586.65 448.33 581.08 460.02 575.17 473.6 574.08 482.91 586.98 492.48 603.51 501.92 616.5 510.18 628.31 516.68 633.04 527.3 633.04 543.23 629.49 552.09 620.04 553.86 607.65 553.27 591.11 546.19 579.31 544.41 567.5 534.97 563.2 538.2 566.32 546.78 572.81 555.04 577.53 570.97 577.53 583.96 569.86 591.04 565.91 598.36 545.88 586.77 513.42 576.39 493.54 565.24 483.56 560.81 462.78 566 464.08 604.94 447.34 607.08 435.52 608.83 403.06 591.96 376.8 586.96 361.51 616.62 351.12 649.06 332.94 695.78 312.17 726.93 288.8 719.14 266.72 719.14 259.17 728.2 254.07 734.11 242.46 749.23 242.52 749.24 231.67 763.27 219.98 807.4 197.91 828.16 158.96 837.24 126.12 839.23 124.67 841.85 113.51 854.12 113.51 885.26 95.33 900.84 74.52 906.81 64.17 909.92 33.01 920.31 9.72 937.8 2.26 944 1.88 934.21 1.33 931.26 1 927.06 5.82 905.02 15.4 880.99 20.91 856.2 19.53 840.36 31.09 811.13 30.55 799.04 58.11 791.47 57.78 786.94 54.67 770.81 54.55 767.75 53.33 732.57 53.09 729.03 51.22 705.39 60.97 686.74 62.25 684.04 58.17 678.6 57.74 674.62 51.96 659.89 48.83 655.99 47.09 652.36 33.31 637.21 24.6 638.29 18.15 638.59 35.06 623.91 39.98 617.63 44.33 615.86 54.64 613.32 58.11 611.04 58.94 603.32 59.84 595.21 61.56 578.68 82.98 560.71 89.78 554.31 100.94 543.87 107.52 537.44 129.77 509.82 126.81 493.82 123.87 480.94 122.88 476.07 120.14 467.4 117.3 457.26 111.73 438.12 115.82 423.37 117.36 418.23 126.54 412.61 137.1 405.81 137.06 399.1 136.18 393.63 135.87 389.92 134.59 383.79 109.1 369.33 109.26 363.69 108.44 353.76 109.79 345.23 124.65 345.96 149.15 347.2 151.8 347.29 153.88 305.19 153.59 279.03 153.21 265.93 160.28 250.48 169.73 231.61 200.57 230.21 205.05 230.16 219.73 229.47 235.87 228.85 239.28 222.97 245.68 219.41 258.48 224.57 268.16 227.29 277.84 232.99 283.46 241.69 291.58 244.13 294.7 248.48 293.14 257.99 300.33 269.41 301.26 279.73 297.83 290.06 301.89 288.98 303.45 283.54 308.44 284.08 312.19 282.72 331.87 277.02 336.71 270.49 Z"/>
</g>
</svg>