<?xml version="1.0"?>
<svg xmlns="http://www.w3.org/2000/svg" version="1.2" baseProfile="tiny" fill="#f9c113" width="800" height="744" viewBox="0 0 800 744" stroke-linecap="round" stroke-linejoin="round">
<g fill="#c0392b" id="id_105">
<path d="M 389.18 623.3 376.69 615.07 367.85 625 346.33 608.72 357.09 598.86 353.82 595.36 357.45 591.44 357.85 589.53 343.46 580.77 335.47 569.14 329.44 575 323.83 570.76 311.55 559.4 308.56 563.87 295.45 567.03 293.96 577.32 291.58 584.96 284.78 591.57 279.02 588.75 278.63 584.75 279.05 577.85 279.91 560.81 276.25 551.5 290.64 544.29 284.72 537.03 269.05 540.22 258.87 534.62 249.61 530.81 241.68 530.08 203.58 517.43 187.73 510.17 172.92 506.98 155.78 498.57 142.86 486.81 120.49 497.63 112.5 494.13 111.28 489.95 113.41 486.45 106.89 480.18 102.93 487.54 93.3 480.12 93.91 469.41 90.07 465.6 62.57 499.66 39.77 483.05 32.52 493.13 28.31 487.65 22.46 493.6 16.91 488.33 12.46 492.61 8.44 488.27 6.48 489.89 4.71 490.23 4.28 486.35 1 472.15 5.37 444.84 9.74 421.9 33.7 413.18 55.54 413.18 55.55 413.16 55.59 413.16 67.59 391.34 80.65 392.43 82 392.28 82.37 392.71 101.75 390.67 102.84 374.28 102.53 374.01 102.54 373.83 87.26 360.72 74.46 341.51 76.64 324.03 93.02 325.12 117.04 321.84 125.77 305.46 126.87 285.79 126.54 285.72 126.56 285.33 100.36 279.87 94.9 273.32 108 254.74 101.45 244.91 103.63 225.24 118.92 214.32 153.86 220.88 154.36 220.72 154.26 221.3 181.46 212.59 218.58 208.22 237.14 173.26 262.26 163.43 289.55 183.1 329.95 173.26 381.27 175.45 405.29 177.63 416.84 180.85 416.7 180.43 421.01 181.63 427.62 183.47 427.1 183.7 444.6 188.56 477.35 185.28 498.28 161.61 498.92 161.46 498.29 161.6 502.46 156.88 550.5 136.12 592 116.45 613.83 94.6 640.47 62.24 639.93 62.07 644.1 57 680.13 27.5 704.85 1 724.81 31.86 727.44 34 727.3 34.1 749.73 52.38 772.54 77.03 786.95 90.95 787.02 90.85 798.7 102.13 798.64 102.25 799 102.59 789.88 121.76 784.4 140.02 762.51 152.8 757.03 174.71 732.4 208.49 709.59 226.74 708.12 227.74 707.32 227.62 683.74 243.63 666.41 246.37 648.16 254.59 646.81 256.62 647.28 256.82 639.34 268.74 642.08 298.86 651.2 318.95 659.41 336.29 644.81 360.94 649.38 383.76 650.29 402.93 639.34 433.97 622.01 449.49 596.46 454.05 575.48 463.18 591.9 476.87 627.48 496.96 647.55 486.92 672.19 465.92 703.21 485.09 728.64 501.45 728.64 501.69 718.72 516.13 712.33 530.73 715.42 541.55 717.7 549.33 724.49 565.93 724.84 567.43 724.81 567.44 725.1 568.16 691.34 584.59 687.7 593.72 682.22 614.72 681.31 635.72 680.4 655.8 663.7 668.33 663.33 667.95 661.86 669.04 639.98 689.77 640.67 703.37 641.83 716.5 632.85 732.74 632.74 732.77 632.65 732.93 627.53 734.05 626.74 734.24 624.99 734.6 611.67 737.5 601.13 743 587.01 728.69 592.86 723.04 575.79 702.33 569.45 722.62 560.67 728.27 550.43 739.99 541.9 735.81 504.83 685.17 500.69 688.1 495.32 680.78 480.2 691.45 477.28 704.21 473.13 706.72 467.28 703.79 462.16 708.6 440.94 688.1 468.25 651.28 457.04 646.26 451.43 642.08 440.45 642.91 436.55 652.95 431.43 655.04 424.12 652.74 418.75 654.84 398.24 627.1 389.18 623.3 Z"/>
</g>
</svg>