<?xml version="1.0"?>
<svg xmlns="http://www.w3.org/2000/svg" version="1.2" baseProfile="tiny" fill="#f9c113" width="800" height="1158" viewBox="0 0 800 1158" stroke-linecap="round" stroke-linejoin="round">
<g fill="#c0392b" id="id_132">
<path d="M 199.8 572.91 182.83 561.46 191.13 545.22 186.44 526.51 184.45 508.73 158.63 501.92 158.63 495.58 108.07 454.15 122.16 439.77 139.13 430.03 162.97 412.25 147.62 383.97 147.98 375.01 150.69 330.97 115.66 313.51 84.24 307.95 88.93 299.92 77.02 298.99 106.09 242 106.09 230.26 85.68 228.56 67.09 219.76 52.46 220.53 44.52 210.49 47.77 197.99 40.72 194.28 33.32 174.98 39.28 164.02 28.45 143.95 18.51 144.26 1 126.05 20.68 110 16.89 99.19 22.85 89.63 15.99 81.14 42.71 61.08 51.92 47.19 52.64 35.93 58.42 33.31 60.73 30.32 68.4 35.23 73.03 30.76 76.64 22.14 77.38 18.11 78.72 13.73 83.25 10.76 86.45 8.75 90.75 5.62 96.85 1 98.94 2.29 114.71 13.71 117.81 20.71 120.22 31.77 119.8 39.32 120.03 46.48 121.88 49.92 121.47 57.11 122.85 60.71 123.36 65.61 123.06 71.34 122.41 76.87 122.78 81.66 130.51 95.1 135.27 90.51 148.83 82.25 155.3 77.11 157.99 68.89 160.35 64.9 162.15 62.09 167.38 55.76 170.11 54.89 173.99 49.95 172.51 45.72 171.63 43 170.94 40.11 170.43 34.81 174.73 27.58 176.31 25.92 178.43 22.88 183.2 19.12 186.11 17.07 189.17 13.31 190.69 8.02 200.04 7.82 208.78 9.2 213.64 10.03 216.46 11.45 220.02 14.02 225.53 21.34 229 23.67 234.74 25.25 237.6 26.99 238.62 29.44 240.52 36.36 241.03 39.24 242.04 42.36 243.76 47.98 249.77 49.83 253.29 50.27 255.04 49.48 256.76 48.17 258.33 45.64 264.62 44.97 264.39 46.16 262.63 49 260.13 52.21 258.93 54.26 265.04 58.89 266.15 60.94 267.63 64.78 273.09 69.76 275.49 72.72 274.98 81.03 272.44 89.29 272.07 91.78 269.8 94.43 266.01 95.66 262.45 105.66 255.6 106.73 254.03 107.99 252.5 111.75 256.29 115.03 261.66 118.79 264.39 118.83 266.05 119.97 267.3 121.75 265.68 123.81 264.53 125.91 262.17 128.28 264.39 135.4 263.14 137.61 259.39 139.98 252.22 140.58 246.81 141.05 242.27 142.67 241.26 144.53 247.69 143.9 251.99 144.49 257.4 147.22 261.66 151.65 266.7 157.27 271.28 159.76 276.97 162.41 282.8 165.38 290.66 168.78 295.38 171.07 297.46 173.25 297.88 177.04 301.44 177.16 302.18 172.38 302.28 169.88 303.29 166.8 311.21 161.76 321.2 156.78 326.34 154.32 331.01 154.01 336.88 155.31 352.01 157.05 356.22 158.36 358.3 160.73 360.39 157.81 360.52 152.66 362.14 149.14 369.55 143.21 377.46 131.78 379.94 126.57 381 125.07 379.98 123.33 385.4 121.27 389.56 119.06 393.91 116.05 397.7 112.77 413.38 99.96 415.61 97.59 416.95 96.68 423.79 92.41 437.86 85.92 442.62 83.35 445.07 82.21 451.46 82.01 457.1 82.48 457.61 80.74 457.38 75.41 454.46 68.33 457.38 63.43 462.14 60.86 488.56 48.6 492.54 46.55 497.95 40.54 512.77 34.91 521.33 38.65 541.69 47.07 568.57 66.88 610.39 49.21 630.14 45.09 652.3 42.6 664.93 46.83 671.59 49.84 678.81 54.19 682.69 55.02 683.88 82.62 685.45 90.34 688.2 94.04 691.34 99.75 694.49 104.45 697.24 108.14 703.13 111.16 710.2 114.52 714.92 116.54 717.67 116.87 727.1 120.57 736.92 122.25 743.99 123.25 750.67 123.59 757.35 122.92 762.07 129.64 770.71 133.67 785.64 133.67 798.21 132.32 799 138.7 798.21 139.38 793.5 146.43 790.36 149.45 785.64 156.17 786.43 161.21 788 165.58 791.14 169.27 788 174.31 786.03 181.7 778.18 188.08 772.28 186.07 758.14 180.69 753.03 178.01 748.71 174.31 745.17 169.94 739.28 167.59 739.67 174.65 739.28 180.02 737.71 185.06 737.31 187.41 741.64 190.44 749.1 191.44 754.21 192.45 754.6 193.46 754.6 195.14 752.64 197.83 749.49 202.87 747.53 203.88 747.53 205.89 746.35 209.25 747.14 211.27 745.56 214.29 745.17 218.32 738.89 226.05 738.1 228.07 738.1 229.75 738.89 234.45 738.49 238.49 731.81 251.59 738.49 255.96 736.92 279.49 745.83 292.27 726.33 286.4 719.83 276.52 705.38 279.6 685.52 266.63 671.43 253.04 670.35 266.63 660.96 281.77 654.46 286.09 638.21 286.4 617.27 277.75 606.43 278.68 606.21 278.32 603.72 284.78 604.27 309.34 596.86 324.33 595.78 342.87 572.31 327.11 499.54 327.11 482.2 364.65 498.63 378.72 490.51 397.11 510.55 406.38 530.96 428.95 549.55 428.02 545.22 439.92 550.82 456 549.55 466.2 555.87 467.6 547.39 493.26 538.36 509.19 548.65 518.31 545.04 525.43 559.67 537.03 574.65 530.68 590 540.89 582.96 547.39 588.56 561.15 577.54 560.23 574.47 574.92 586.57 587.76 602.82 589.77 610.04 599.36 595.06 605.55 583.32 615.61 588.38 640.67 600.65 651.97 606.79 667.75 620.7 677.35 627.92 667.13 650.67 666.98 661.5 672.24 673.06 674.1 671.25 688.03 662.95 726.1 669.27 736.48 708.45 746.69 719.28 769.61 732.1 771 743.66 777.97 749.8 784.32 775.98 799.34 778.15 804.78 776.76 804.82 769.66 811.39 767.51 814.36 761.75 820.1 753.95 826.66 751.73 828.09 749.84 831.46 745.93 835.04 743.68 834.52 742.25 834.48 727.45 834.34 723.51 834.64 717.66 835.65 712.55 837.24 709.1 840.12 709.03 840.91 710.35 846.03 711.18 854.4 709.94 857.28 707.69 863.57 707.37 864.96 706.3 866.67 701.84 870.16 700.11 872.64 698.28 881.77 703.39 885.84 709.91 890.24 722.43 897.17 725.99 899.67 729.13 901.39 739.47 906.95 744.06 910.32 744.06 910.44 734.99 914.83 730.66 915.25 730.45 912.73 726.47 911.72 723.31 914.47 722.43 915.07 720.07 915.61 716.85 916.84 706.22 916.99 713.1 925.97 714.58 928.87 711.66 934.86 703.82 938.78 703.6 938.84 701.05 937.34 699.36 937.34 698.15 936.63 694.95 935.91 689.96 937.89 688.86 937.15 686.52 936.26 685.8 936.09 685.32 931.86 684.73 931.01 683.89 927.04 671.18 922.14 670.82 922.11 666.14 923.2 664.73 923.51 662.83 923.76 655.22 924.86 654.8 924.96 650.64 927.25 650.57 927.36 650.52 929.6 650.63 929.77 650.84 929.86 652.34 929.83 652.48 929.92 652.52 930.4 652.39 930.54 651.32 931.01 651.29 931.22 652.27 933.06 652.71 933.5 653.32 933.77 654.41 933.98 654.57 934.16 654.64 934.54 654.51 934.78 654.05 934.82 649.73 934.13 644.96 932.34 642.62 930.93 641.14 930.41 637.3 930.55 634.27 931.11 633.49 931.51 631.27 931.76 627.94 932.42 610.94 940.16 610.75 941.19 610.29 944.11 610.22 946.35 610.22 950.13 611.79 951.71 612.18 954.87 612.76 955.37 614.82 957.39 614.01 958.11 612.62 960.07 612.14 960.27 611.28 961.84 611.33 962.43 609.18 967.64 608.35 969.72 608.18 974.47 608.41 977.11 609.43 981.61 608.02 983.68 604.76 987.41 601.75 989.85 595.21 995.35 590.23 998.95 589.33 999.74 586.95 1002.53 581.43 1011 579.82 1013.01 577.51 1016.86 571.67 1023.23 571.32 1028.75 569.89 1032.19 565.34 1030.54 559.61 1040.79 559.65 1047.22 555.63 1052.55 563.17 1053.94 565.99 1058.29 569.3 1062.78 572.49 1063.13 581.54 1063.81 578.99 1069.65 570.83 1084.98 567.24 1084.9 561.27 1089.89 558.59 1089.67 555.35 1089.89 544.92 1094.24 544.09 1094.38 542.98 1094.3 538.17 1092.53 531.2 1095.68 524.25 1096.58 520.15 1096.26 517.88 1095.87 513.61 1096.88 511.62 1097.75 510.46 1097.52 498.13 1091.64 496.51 1090.49 490.72 1089.97 488.32 1091.04 483.07 1095.12 480.62 1100.34 482.31 1105.58 488.78 1112.6 491.3 1115.38 499.51 1127.42 505.23 1134.12 505.99 1135.03 507.59 1138.69 508.54 1138.69 510.04 1141.09 510.8 1150.09 510.71 1152.61 512.16 1157 504.59 1156.28 473.18 1131.77 468.48 1117.5 450.79 1098.58 457.65 1088.04 449.34 1075.94 451.87 1064.47 445.73 1058.88 441.03 1044.93 417.56 1042.14 417.56 995.01 450.42 969.9 451.51 946.97 432.37 941.39 425.87 946.35 412.51 928.37 418.28 910.09 408.89 902.65 380.37 915.67 358.7 905.44 343.89 911.64 338.47 923.1 338.11 948.52 335.95 958.44 292.61 958.13 281.78 941.7 274.92 947.59 262.28 950.07 256.14 942.32 264.8 918.77 257.58 907.3 244.58 899.86 233.75 884.06 243.5 872.6 241.33 857.11 229.05 845.03 215.69 856.49 204.86 853.39 190.41 867.64 172.72 841 175.61 832.33 165.49 824.58 165.49 807.24 137.69 789.27 151.77 763.88 197.27 779.67 229.05 773.48 225.08 753.97 247.83 754.9 267.69 759.54 287.19 748.71 247.47 701.34 251.89 642.37 236.09 635.1 238.08 593.25 201.97 576.31 200.24 571.61 199.8 572.91 Z"/>
</g>
</svg>