<?xml version="1.0"?>
<svg xmlns="http://www.w3.org/2000/svg" version="1.2" baseProfile="tiny" fill="#f9c113" width="800" height="491" viewBox="0 0 800 491" stroke-linecap="round" stroke-linejoin="round">
<g fill="#c0392b" id="id_17">
<path d="M 249.12 473.97 238.06 473.47 232.3 467.53 220.24 456.46 225.26 443.89 223.76 433.32 207.16 424.77 172.18 402.04 149.56 398.77 109.61 398.62 106.09 381.51 112.1 369.85 126.71 361.39 124.19 327.69 105.01 303.16 98.05 302.8 44.72 302.95 18.1 286.2 1.5 273.12 1 264.07 13.57 255.01 36.7 254.51 38.71 248.47 38.21 237.91 23.12 232.38 23.12 217.29 36.7 215.28 41.23 197.67 57.32 184.59 73.41 172.52 72.4 164.98 63.85 163.47 64.86 151.9 72.91 147.87 76.93 130.27 94.02 116.69 114.14 102.6 139.88 93.86 149.91 101.5 154.08 107.41 167.03 102.76 176.33 103.14 177.09 115.09 186.01 118.73 188.78 129.42 195.6 137.56 196.1 151.14 201.47 153.31 211.19 170.26 211.69 180.32 234.91 164.63 248.65 170.01 258.95 169.75 260.21 161.2 292.2 159.55 306.53 148.08 327.59 145.86 347.96 128.51 369.83 148.13 394.72 149.89 403.58 160.76 425.64 157.93 425.64 146.11 436.71 145.11 442.58 165.64 444.09 179.47 459.68 181.23 472.75 154.07 489.35 107.54 482.72 95.56 482.72 82.99 489.76 74.44 485.2 64.79 496.29 55.83 512.89 57.59 523.2 54.57 534.51 52.05 544.82 54.57 550.35 63.62 552.61 75.44 572.98 78.96 587.06 82.74 601.13 81.23 609.93 69.41 613.2 55.07 620.24 45.52 632.56 43.25 640.1 25.65 648.15 20.11 657.96 20.87 671.03 24.89 687.62 23.13 708.49 18.1 716.79 9.8 726.84 1 770.1 38.78 794.1 49.89 796.01 64.35 786.58 73.07 785.98 88.48 799 100.19 777.14 132.8 762.22 129.46 749.44 126.83 724 132.32 712.06 146.06 721.37 164.7 735.7 175.69 735.23 204.12 714.92 232.55 688.89 275.32 676.47 302.56 689.6 309.25 692.71 314.98 671.69 328.36 653.3 342.22 654.48 352.84 661.38 356.21 659.37 364.34 637.06 387.14 637.53 401 644.22 403.39 682.92 390.25 687.69 401.72 680.53 410.08 672.17 434.45 642.55 423.22 620.74 441.18 619.14 434.69 613.41 434.21 613.4 434.15 608.39 434.69 566.12 455.24 558.71 463.84 537.22 469.09 522.05 456.79 525.39 450.58 525.75 439.35 515.96 438.99 511.42 425.13 511.06 424.53 495.3 424.17 487.65 415.81 474.4 414.74 447.41 428.24 442.99 411.87 422.57 412.35 421.13 416.53 425.67 439.59 425.91 452.13 407.64 469.45 402.38 486.06 389.25 490 370.97 470.65 378.97 449.5 394.86 429.31 386.14 414.26 394.14 409.48 392.11 399.8 370.5 398.73 340.76 408.29 323.92 408.64 292.27 433.37 294.9 444.84 277.1 458.7 258.95 466.11 256.44 471.84 249.12 473.97 Z"/>
</g>
</svg>