<?xml version="1.0"?>
<svg xmlns="http://www.w3.org/2000/svg" version="1.2" baseProfile="tiny" fill="#f9c113" width="800" height="522" viewBox="0 0 800 522" stroke-linecap="round" stroke-linejoin="round">
<g fill="#c0392b" id="id_161">
<path d="M 582.25 454.52 577.63 455.08 571.97 451.06 563.63 444.59 553.99 435.65 548.85 430.63 539.48 424.49 534.47 421.25 528.3 412.76 523.17 407.63 516.1 400.26 513.4 395.01 508.91 387.98 494.65 384.3 479.75 382.51 469.22 383.52 461.51 381.62 456.76 379.95 448.41 377.6 442.89 372.02 437.75 368.45 430.81 362.54 424.52 356.4 421.57 351.38 417.84 345.8 413.34 341.34 410.01 337.65 403.2 333.75 400.5 326.39 401.78 317.46 407.31 313.34 420.28 309.1 436.21 300.29 441.09 298.5 437.75 289.8 434.54 282.78 429.53 280.1 425.42 281.22 420.02 288.91 418.48 294.82 416.04 290.14 414.24 284.45 406.79 286.01 405.89 289.58 399.09 290.14 383.55 289.13 375.84 285.45 364.79 285.34 356.96 283.89 350.41 281.88 346.68 286.35 350.53 290.14 352.98 292.26 346.42 296.05 335.51 296.05 326.26 296.38 322.92 300.17 280.92 299.95 278.61 319.58 274.24 321.37 267.82 321.26 263.83 336.87 255.49 333.41 244.44 329.73 232.49 328.17 228.64 326.72 227.1 320.59 219.01 320.14 219.01 313.78 221.96 307.31 221.7 299.95 218.62 297.72 214.25 293.71 217.47 289.58 229.28 289.13 256.38 289.02 257.03 279.32 253.3 278.32 243.28 277.65 238.15 279.88 232.36 278.54 232.11 263.6 225.69 266.61 219.39 271.4 215.41 273.74 210.79 269.95 202.05 270.62 185.1 271.63 175.21 270.96 169.68 264.6 165.96 260.48 155.68 259.58 144.38 251.11 140.14 249.33 130.89 248.99 121.52 249.77 114.97 251.56 107.52 249.1 104.69 242.86 103.28 236.4 106.62 232.27 112.65 223.58 112.91 216.56 109.7 212.88 103.92 216.78 102.38 221.57 95.57 223.36 89.15 226.03 89.02 226.25 87.35 229.37 79.9 231.38 74.38 227.15 69.75 221.91 68.73 216.56 67.57 212.21 65.64 211.43 58.06 212.66 53.06 215 49.72 220.12 45.61 221.13 41.49 219.12 37.13 216.78 22.74 213.66 10.15 204.08 1 197.04 5.38 182.79 1.55 164.16 3.19 155.4 13.6 150.47 20.72 141.7 40.43 140.6 46.46 140.6 54.13 148.82 57.96 157.59 63.98 168.55 68.37 175.67 89.73 175.67 93.01 168.55 89.73 159.78 80.42 152.66 81.51 143.34 86.99 137.32 93.01 130.74 93.01 121.43 90.82 110.47 86.44 103.89 85.89 97.32 91.92 91.29 103.42 83.62 108.9 76.49 120.94 75.4 132.45 76.49 145.04 75.95 152.71 79.78 166.4 90.19 169.69 101.7 174.62 114.85 180.09 124.71 186.12 131.84 191.05 139.51 192.14 128.55 191.43 120.02 203.14 123.98 209.82 125.99 216.5 126.77 218.56 131.22 222.41 138.35 224.47 142.36 219.07 145.48 222.92 147.93 227.81 148.37 230.37 154.16 236.28 151.49 239.62 149.04 246.56 149.71 250.41 155.05 256.32 161.52 263.26 165.97 268.91 164.19 279.95 164.86 290.74 169.31 295.37 173.55 295.88 181.79 303.07 185.13 305.13 198.5 315.4 200.06 323.88 198.28 336.98 191.6 341.35 194.49 346.75 199.62 347.26 214.33 351.88 222.35 360.36 222.35 370.12 219.9 376.29 216.11 387.33 211.88 395.55 214.11 404.03 217 409.17 215.89 414.05 212.1 413.28 204.3 409.94 202.52 399.15 203.85 390.93 201.4 384.77 196.5 380.66 188.92 379.63 182.46 384.77 179.56 395.3 176.44 404.03 178 413.02 181.35 422.79 184.69 431.26 184.02 436.14 182.01 455.67 180.23 465.17 178.45 470.05 173.32 478.02 167.53 478.79 163.52 475.96 155.72 473.39 149.04 473.39 141.69 481.1 139.24 495.74 133 510.9 126.32 525.28 127.43 543.52 128.99 554.83 131.89 560.48 129.22 572.81 124.54 580.52 122.09 578.98 118.97 575.12 115.63 576.66 114.07 580 111.84 592.33 110.95 592.33 72.88 599.53 68.87 607.75 64.42 624.7 57.74 646.54 49.06 657.07 38.83 656.3 23.92 664.26 22.36 673 15.24 681.73 7.67 690.47 12.79 697.92 11.9 703.05 5.45 711.79 4.56 716.15 1 719.49 3.89 720.52 15.91 713.59 25.47 708.45 36.82 696.89 41.5 696.12 53.52 703.31 60.42 718.98 64.64 728.23 59.53 731.83 45.73 740.82 39.72 751.09 55.07 764.45 71.55 755.72 77.33 768.56 87.13 779.09 96.04 788.86 102.94 793.48 110.95 799 115.13 796.02 123.46 793.38 132.39 791.7 137.92 782.01 171.11 774.79 195.51 764.06 232.28 750.22 279.46 738.55 318.12 738.38 318.64 737.21 322.47 734.84 330.19 733.85 333.54 732.99 336.31 731.56 341.08 730.05 345.74 728.7 350.36 727.71 353.51 726.24 358.49 725.08 362.24 720.63 376.26 719.11 380.8 717.59 385.16 716.43 389.13 716.24 389.68 714.93 394.22 713.96 397.16 713.16 399.82 712.31 402.28 710.71 407.37 709.45 411.28 708.57 413.97 707.38 417.78 705.84 422.56 704.71 426.17 699.74 441.77 697.72 448.14 696.37 452.47 695.51 455.02 693.6 461.12 692.16 465.54 691.1 469.43 689.98 472.47 688.2 477.85 687.04 481.54 686.1 484.51 685.47 486.65 684.77 488.86 683.85 491.98 682.14 497.29 680.73 502.2 679.57 505.61 677.97 509.83 675.92 515.08 673.72 521 657.9 511.16 651.87 507.75 643.58 504.51 639.54 501.94 634.34 500.66 630.03 499.15 621.49 495.41 613.66 485.8 612.76 476.97 607.62 471.5 601.84 468.15 596.7 460.56 588.74 451.84 582.25 454.52 Z"/>
</g>
</svg>