<?xml version="1.0"?>
<svg xmlns="http://www.w3.org/2000/svg" version="1.2" baseProfile="tiny" fill="#f9c113" width="800" height="545" viewBox="0 0 800 545" stroke-linecap="round" stroke-linejoin="round">
<g fill="#c0392b" id="id_164">
<path d="M 59.1 320.73 52.29 325.33 34.12 331.59 23.52 327.64 14.82 329.62 1.27 324.99 1.59 317.72 1.54 311.74 1.41 303.69 1 295.22 1.32 292.47 1.48 286.82 2.34 285.12 5.55 280.36 6.25 277.99 9.7 272.81 10.86 271.75 12.6 269.65 15.48 269.61 21.98 269.92 24.77 273.84 25.67 278.87 26.76 281.66 27.93 284.72 32.2 287.84 37.32 287.84 43.02 288.13 43.58 284.15 40.74 278.18 39.89 270.79 43.58 265.39 46.14 261.69 51.26 261.69 58.09 264.82 63.21 270.22 63.21 285.57 62.93 292.68 64.07 299.22 68.62 300.35 73.17 296.66 74.31 291.54 74.31 287.56 74.03 281.59 74.31 275.62 77.15 275.05 82.56 279.89 87.11 284.72 90.53 288.41 98.5 290.69 100.77 287.84 100.2 281.31 98.5 277.33 92.81 272.78 88.82 269.08 83.42 263.4 78.87 263.68 75.45 256.86 72.61 252.88 76.3 249.18 82.28 245.49 87.97 245.77 95.36 245.77 98.21 249.75 103.9 252.31 108.46 248.9 113.29 246.91 117.84 244.64 121.54 247.76 122.96 254.87 125.52 258.85 130.64 261.12 140.32 260.56 146.3 260.56 150.85 259.7 155.97 259.7 157.96 250.61 160.24 245.77 163.08 238.38 169.34 234.4 175.03 236.68 177.31 240.94 181.01 247.76 181.86 253.16 189.26 255.72 196.09 256.01 203.77 255.44 211.45 249.47 208.89 240.66 210.03 228.15 214.01 220.47 206.9 217.35 206.62 211.38 212.59 213.08 219.99 217.06 225.17 217.64 229.28 217.88 239.37 223.12 244.21 222.72 251.07 221.91 260.35 220.3 263.98 215.06 268.82 209.82 275.68 204.98 280.52 202.16 284.56 201.76 284.56 197.32 282.94 191.68 282.54 186.44 282.94 181.2 289.8 176.36 296.26 175.96 299.08 173.54 299.08 161.04 302.31 158.22 306.35 145.32 306.35 139.68 307.56 130.81 309.98 124.76 314.82 126.37 321.28 129.19 325.71 130.81 335.4 130.4 341.45 130.4 349.92 127.18 351.14 120.73 349.92 116.29 345.08 113.88 341.45 108.23 339.84 102.99 337.01 99.77 334.59 96.14 329.75 89.69 327.33 85.66 327.33 80.82 329.35 77.59 336.21 78 338.22 73.97 340.24 67.11 341.45 55.42 346.7 53 352.34 46.96 353.56 42.12 359.2 40.51 361.63 40.1 366.87 41.72 376.15 45.34 382.2 46.15 384.02 46.44 389.87 47.04 394.31 47.04 397.95 47.77 391.89 41.72 392.7 39.7 395.92 38.89 397.94 41.72 404.8 47.76 408.43 42.52 406.82 34.06 414.89 28.82 418.92 23.57 426.99 20.75 430.22 14.71 438.69 13.09 442.73 15.51 449.18 18.74 456.85 19.54 461.69 13.5 466.13 7.05 471.38 3.01 481.87 1 485.1 5.43 495.18 14.3 501.64 17.53 508.1 18.33 513.74 17.53 518.18 12.29 529.88 10.27 532.24 13.8 529.88 21.24 529.91 21.47 529.88 21.56 530.69 28.41 538.36 32.85 543.2 29.22 548.04 26.8 552.48 25.19 556.92 25.19 557.32 30.83 560.55 36.07 565.17 36.07 564.5 31.03 565.3 24.58 568.53 21.75 568.88 21.23 569.43 20.75 573.46 14.71 579.92 17.12 583.55 20.75 590.01 25.59 593.64 30.83 597.27 37.28 598.88 43.33 616.05 43.73 617.53 53.32 615.13 62.92 611.92 69.73 613.92 80.53 616.33 85.34 621.14 90.54 620.33 98.14 620.74 102.95 627.55 105.35 630.75 107.35 628.75 113.75 628.35 120.16 638.36 125.76 650.78 130.96 655.99 136.57 668.41 142.57 679.62 146.17 685.63 150.98 685.23 160.98 684.43 172.19 684.43 176.99 691.24 175.79 696.05 172.99 699.65 171.79 699.65 179.79 703.26 187 706.86 182.19 708.07 179.39 710.47 180.99 715.28 181.79 716.48 185.79 718.48 192.2 712.87 193.4 710.07 196.2 710.07 199.8 710.47 202.6 711.27 209.01 710.07 212.61 706.06 213.01 704.46 216.21 708.47 217.41 708.07 222.62 714.07 224.22 722.09 225.82 726.49 222.62 730.9 226.22 734.1 231.82 736.51 234.62 744.92 235.42 744.12 239.03 744.52 244.63 746.12 249.03 744.92 251.83 741.71 260.24 736.51 260.24 732.9 261.84 734.5 266.24 740.91 265.44 747.72 273.45 753.33 276.25 754.53 285.85 755.74 294.66 755.74 318.27 755.34 326.28 752.13 330.28 746.52 332.28 740.51 334.28 735.31 335.08 733.3 341.08 733.3 351.89 723.29 353.49 713.27 357.89 704.46 364.7 694.04 367.1 686.83 371.1 683.23 374.3 680.82 374.3 678.42 379.51 678.42 387.51 677.62 399.92 676.42 405.12 673.21 411.53 673.97 414.35 673.98 414.35 674.82 417.53 679.62 425.53 681.63 431.14 689.64 431.14 695.65 436.74 699.65 441.54 702.46 445.54 707.26 446.74 712.87 443.94 720.88 439.54 724.49 435.54 726.49 430.74 734.1 433.14 736.51 439.94 741.71 449.15 740.91 459.15 743.72 467.56 749.33 464.36 754.53 458.75 760.94 457.55 764.55 454.75 770.16 460.75 774.96 461.55 780.97 458.35 789.39 451.55 794.99 449.95 790.19 456.75 787.38 463.95 787.78 466.76 799 464.36 790.99 470.76 782.58 470.76 776.17 475.16 771.36 475.16 762.95 472.76 754.53 471.96 744.92 471.56 733.3 474.36 721.68 482.37 719.68 488.37 721.68 497.17 723.69 502.38 716.08 505.18 712.87 509.18 720.88 509.58 726.49 506.78 733.7 503.58 736.11 504.38 735.31 511.58 740.51 514.38 743.32 510.78 746.92 509.58 749.73 507.98 754.93 506.78 757.34 513.98 760.14 518.79 761.34 526.39 768.15 526.39 782.98 525.99 784.18 530.39 780.17 534 771.76 532.79 766.95 532.79 763.75 532.39 759.74 535.2 755.34 536.4 744.52 539.2 737.71 536.8 730.9 535.6 726.49 540.4 721.28 540.8 716.88 544 711.27 542.4 710.07 538.8 700.05 538.8 691.64 539.2 682.43 536.8 674.82 532.39 670.01 527.99 659.59 519.99 652.78 514.78 643.57 510.78 634.76 510.78 620.74 512.38 611.52 512.78 603.51 513.98 600.31 516.39 590.69 515.99 586.68 513.18 578.67 513.98 569.06 516.39 563.67 505.54 560.64 491.02 554.58 499.6 554.58 485.74 543.98 477.83 524.3 478.49 506.13 481.79 504.62 461.34 519.38 427.71 474.71 409.25 473.58 412.22 471.31 414.19 462.6 411.56 459.57 408.59 457.3 405.95 458.82 396.07 448.6 386.84 453.9 379.27 450.87 376.96 459.95 374.65 456.17 370.37 461.09 365.76 466.39 362.14 478.5 379.59 482.66 377.95 483.8 375.64 474.71 367.41 480.77 362.14 490.61 357.52 492.5 366.75 507.27 372.02 528.09 376.96 522.79 366.75 494.02 342.37 484.18 337.44 475.09 323.94 481.15 326.57 485.31 323.28 479.64 319 479.64 316.2 475.66 314.22 473.2 311.75 469.79 309.62 462.6 306.82 458.63 305.17 460.9 302.87 468.09 302.21 471.88 299.41 475.47 296.12 477.55 292.99 479.07 288.39 478.5 286.41 476.8 282.79 472.82 278.18 469.98 276.87 472.63 274.73 475.66 271.27 474.9 264.53 473.39 258.77 470.55 254.66 468.28 251.54 463.93 248.57 457.11 245.61 452.87 243.6 448.22 262.72 436.48 272.92 429.29 278.84 414.91 281.48 405.82 275.22 394.09 272.26 387.66 280.49 374.79 289.04 366.08 293.65 358.13 299.9 354.72 306.16 346.02 312.74 336.18 320.31 316.49 324.59 310.44 321.3 302.87 318.34 296.06 314.39 288.48 312.41 274.1 310.44 266.91 314.72 264.26 320.97 260.85 325.58 254.8 326.24 245.33 332.5 242.31 338.75 237.39 343.36 217.7 352.25 207.86 353.9 203.7 353.24 191.96 358.84 184.77 357.52 177.96 353.9 163.57 364.77 162.06 368.39 150.71 364.44 145.41 355.55 136.32 350.94 118.15 354.89 118.91 332.5 81.64 319.64 79.37 314.97 73.87 317.76 66.3 323.69 59.1 320.73 Z"/>
</g>
</svg>