<?xml version="1.0"?>
<svg xmlns="http://www.w3.org/2000/svg" version="1.2" baseProfile="tiny" fill="#f9c113" width="800" height="1075" viewBox="0 0 800 1075" stroke-linecap="round" stroke-linejoin="round">
<g fill="#c0392b" id="id_172">
<path d="M 279.5 186.4 278.37 172.41 302.81 172.41 303.38 156.41 373.85 154.91 394.32 142.91 360.21 112.92 456.84 43.96 468.21 38.97 484.12 38.97 497.76 46.96 517.09 70.94 525.04 44.96 537.55 35.97 538.68 17.98 551.19 3 553.46 1 556.87 30.97 564.83 34.97 552.32 53.96 553.46 62.95 568.24 74.94 578.47 89.93 584.15 106.93 601.21 113.92 597.79 124.92 589.84 146.91 580.74 155.91 584.15 169.91 594.38 177.91 609.16 177.91 636.44 165.91 661.45 156.91 680.78 163.91 695.56 156.91 719.43 151.91 745.57 158.91 762.62 156.41 775.13 178.41 786.5 209.4 799 249.41 784.22 287.42 783.09 318.44 746.71 348.46 714.88 366.47 701.24 440.54 705.79 496.61 671.68 538.67 676.23 586.76 685.32 612.81 698.97 613.81 695.56 641.87 681.91 655.89 688.74 688.97 679.64 724.05 671.68 742.1 642.13 766.16 630.76 786.22 598.93 799.25 619.39 811.29 640.99 824.32 627.35 853.41 630.34 941.26 589.28 953.16 570.46 958.58 556.9 962.53 535.64 965.39 530.12 966.12 490.19 971.16 480.52 972.31 458.26 975.01 437.04 977.55 423.98 979.13 395.83 1007.89 391.68 1012.15 371.19 1033.11 360.8 1043.61 347.38 1057.23 330.79 1074 304.51 1051.62 317.02 1014.47 307.92 995.4 288.6 975.32 274.96 958.26 255.63 942.21 238.58 927.15 228.35 909.09 211.3 889.03 182.88 875.98 177.2 848.9 204.48 787.72 203.34 757.64 168.1 766.66 140.82 730.57 114.68 727.56 111.27 703.5 71.48 661.41 81.71 649.38 90.8 655.39 108.99 643.37 81.71 625.33 41.92 622.33 21.46 652.39 1 598.28 30.56 542.18 7.82 543.18 1 499.11 23.74 499.11 16.91 483.09 21.46 465.07 57.84 455.06 80.57 473.08 119.22 507.13 116.95 541.18 164.69 557.21 198.79 523.15 221.53 489.1 166.97 487.1 149.91 474.08 135.71 452.55 156.17 448.55 166.4 435.53 186.86 419.52 211.87 402.5 231.19 403.5 246.54 388.99 246.54 308.93 243.7 285.92 224.94 267.91 259.61 264.41 269.27 262.91 269.84 187.9 279.5 186.4 Z"/>
</g>
</svg>