<?xml version="1.0"?>
<svg xmlns="http://www.w3.org/2000/svg" version="1.2" baseProfile="tiny" fill="#f9c113" width="800" height="739" viewBox="0 0 800 739" stroke-linecap="round" stroke-linejoin="round">
<g fill="#c0392b" id="id_173">
<path d="M 456.14 478.44 457.83 492.09 457.83 539.57 448.73 548.18 437.26 547.59 422.43 557.68 410.29 567.18 404.23 574.9 392.09 577.27 400.52 590.04 410.63 597.76 443 598.95 429.51 619.14 409.28 639.34 380.96 629.84 382.31 609.64 359.39 589.45 345.9 578.76 324.33 584.7 321.63 595.38 325.68 604.89 312.19 604.89 316.24 631.02 302.75 633.4 283.87 658.35 277.13 683.31 239.37 728.49 219.14 738 224.54 715.41 209.7 690.44 208.36 707.09 194.87 698.76 188.13 697.58 182.73 696.39 178.69 679.75 163.86 682.12 143.63 671.43 173.3 657.16 180.04 653.6 197.57 646.47 212.4 613.2 192.17 602.51 185.43 587.07 198.92 565.69 221.84 555.01 224.54 521.76 200.27 513.45 172.52 516.6 153.71 519.61 143.45 518.6 123.5 514.59 106.97 508.07 98.99 505.56 89.87 500.04 64.8 487.5 54.54 482.99 44.28 471.45 38.01 459.92 24.9 450.39 18.63 440.36 13.5 425.82 12.36 425.32 8.94 417.8 5.52 412.29 1 398.79 20.76 396.65 55.46 384.91 82.69 364.08 84.83 313.36 109.39 296.27 119.53 295.74 127.54 269.04 138.75 263.7 161.18 275.45 173.99 283.99 187.88 282.92 209.23 255.16 217.24 234.34 243.4 208.17 263.7 196.42 257.29 187.34 231.66 183.61 216.17 171.86 217.19 153 219.05 150.3 233.79 135.55 258.35 120.6 306.41 114.2 340.02 114.53 355.55 114.5 359.8 114.73 377.42 109.39 382.35 100.45 388.19 88.81 394.51 78.42 387.56 54.39 358.73 30.9 385.43 22.89 389.7 9.01 402.51 1 421.2 19.15 436.69 13.82 461.25 19.15 479.93 17.02 487.12 11.56 488.84 17.98 496.6 30.1 499.13 39.27 518.68 52.27 533.18 55.82 540.26 81.55 546.32 109.94 535.87 122.36 531.15 134.49 540.93 138.04 567.23 145.44 589.81 148.99 587.79 134.49 589.48 120.88 594.2 110.82 602.62 98.4 610.04 120.88 623.53 125.91 638.36 125.91 645.78 131.24 654.88 135.08 660.61 142.18 663.98 159.34 673.42 172.36 684.88 184.5 702.41 185.68 717.58 178.58 725.68 172.66 738.15 166.45 747.76 175.91 753.15 187.16 747.76 198.41 735.62 206.7 736.97 220.31 719.44 233.34 761.24 277.76 748.43 290.2 737.64 292.57 728.88 297.31 732.25 347.68 739.67 348.27 741.69 340.57 745.06 325.16 760.57 328.12 773.38 337.61 784.84 329.31 799 335.83 793.61 361.91 790.23 381.47 781.47 390.96 769.33 395.7 763.94 401.63 753.83 403.11 738.32 398.96 724.16 401.93 715.39 406.08 703.93 401.93 689.1 407.26 672.92 414.38 664.15 414.38 658.08 409.64 656.06 401.33 661.45 396 666.17 382.95 668.2 376.43 658.08 372.28 654.71 362.2 648.64 353.31 639.88 346.2 639.2 340.87 646.62 329.61 641.9 327.23 639.88 309.46 638.53 310.64 631.11 319.53 630.44 330.2 623.02 335.53 618.3 350.94 606.84 336.72 598.75 331.98 589.31 331.98 582.57 334.94 525.25 375.84 545.48 393.63 533.35 400.74 491.54 401.63 491.2 411.12 476.71 411.12 477.38 419.42 471.65 420.31 471.31 464.8 465.58 465.69 445.02 467.76 456.14 478.44 Z"/>
</g>
</svg>