<?xml version="1.0"?>
<svg xmlns="http://www.w3.org/2000/svg" version="1.2" baseProfile="tiny" fill="#f9c113" width="800" height="482" viewBox="0 0 800 482" stroke-linecap="round" stroke-linejoin="round">
<g fill="#c0392b" id="id_197">
<path d="M 742.7 153.76 735.07 152.64 738.89 163.16 749.07 170.68 748.22 177.07 746.94 177.07 741.01 183.09 748.22 197 757.55 204.9 755.43 215.43 765.18 225.96 769 233.49 764.76 241.76 762.21 250.79 763.06 257.19 764.34 272.62 770.7 291.44 776.21 301.22 786.52 309.24 781.12 314.31 774.54 320.06 774.14 322.23 772.74 325.92 771.55 334.62 766.99 338.75 764.31 343.94 763.17 348.34 757.31 354.82 748.75 368.71 752.81 375.01 758.27 383.29 765.75 389.93 771.76 393.61 773.72 394.66 784.12 394.42 796.44 394.03 797.6 399.4 797.74 402.06 798.08 405.86 799 408.35 796.84 409.61 792.8 409.84 781.92 410.11 772 409.49 762.05 410.39 761.15 413.24 759.19 422.72 757.17 424.25 752.75 432.48 751.31 438.79 749.37 447.33 743.01 469.76 739.15 478.33 736.37 481 732.31 480.51 704.6 480.77 691.4 480.22 683.2 477.61 677.02 475.5 660.7 470.87 651.81 467.51 643.83 462.84 634.33 457.12 630.99 455.98 627.21 456.58 610.37 460.71 604.31 462.22 595.88 464.05 585.64 465.58 581.49 465.87 571.48 466.57 544.63 467.26 521.21 467.69 498.67 468.01 473.68 468.4 445.84 468.74 443.28 468.76 435.69 466.71 430.63 461.8 425.55 458.03 422.68 457.45 413.38 462.17 408.76 466.69 400.98 466.67 391 465.07 386.4 465.07 383.48 463.93 370.24 462.51 351.97 462.62 339.25 464.2 324.51 465.32 310.2 466.26 302.5 466.14 290.41 459.76 286.2 457.53 279.82 455.21 270.84 450.92 263.82 446.04 259.12 444.53 257.28 443.82 258.3 437.97 258.58 437.15 261.08 432.49 259.66 429.54 257.88 427.75 251.84 424.13 252.08 422.24 249.5 415.6 245.23 414.42 239.69 414.66 237.25 413.07 238.83 409.59 237.81 407.98 235.27 406.27 233.23 401.6 234.53 396.45 233.57 392.56 228.83 391.49 223.21 391.97 220.63 392.82 216.99 393.05 213.91 392.38 208.49 392.97 203.43 393.23 198.39 392.93 195.05 391.67 187.28 392.36 183.7 389.7 176.6 389.45 173.46 391.78 163.76 400.16 161.06 410.68 159.62 415.01 154.22 415.42 151.9 413.95 153.2 408.83 154.24 406.02 152.34 399.02 151.2 393.98 148.48 393.09 144.58 393.52 142.5 394.51 137.88 395.1 131.51 396.87 127.33 400.25 125.19 402.04 122.79 403.18 118.75 401.33 117.49 399.18 116.49 395.67 115.73 393.23 113.03 393.45 111.61 393.82 110.65 389.91 109.99 387.37 107.17 387.37 103.93 387.58 100.05 388.58 98.57 386.86 94.39 387.34 92.35 388.05 91.51 386.43 88.19 386.27 86.25 386.96 83.41 389.73 80.77 388.9 79.06 386.29 76.7 385.93 75.66 385.45 72.76 382.98 69.78 382.38 68.56 379.8 66.58 376.38 64.16 375.97 61.84 374.71 58.24 371.9 55.4 368.76 55.74 367.3 55.44 365.7 51.92 363.41 50.12 361.48 47.4 360.52 43.96 358.28 42.4 357.66 35.4 355.32 34.12 354.71 31.82 353.93 29.64 351.3 25.78 349.44 23.63 350.54 22.17 351.45 20.75 351.64 18.73 350.22 9.89 351.78 6.87 351.06 1 347.15 3.08 329.26 5.14 312.42 6.61 300.36 12.08 235.91 33.55 213.62 58.78 190.63 73.16 169.09 75.98 130.95 85.61 109.27 137.82 75.74 159.45 59.9 161.73 60.93 169.31 62.75 178 63.9 184.2 63.78 191.42 65.53 201.46 68.52 209.12 72.06 222.86 73.62 228.03 73.76 237.61 75.64 256.35 78.19 264.67 80.92 276.77 83.78 288.54 85.48 301.94 88.76 306.92 88.64 313.35 87.14 328.95 89.22 330.57 81.9 330.75 78.73 332.03 71.03 332.43 68.6 333.21 62.25 334.77 54.22 335.79 51.21 337.35 44.8 337.83 41.51 339.39 34.54 339.75 31.83 339.75 25.88 339.05 21.17 338.39 16.84 337.81 6.17 338.37 1 347.4 7.48 355.1 19.58 382.27 41.78 392.75 52.86 398.03 59.37 401.13 67.78 405.83 70.88 412.93 73.25 427.31 73.87 463.72 74.45 495.86 76.91 499.08 79.35 512.78 87.95 526.61 104.24 531.29 115.53 542.61 118.52 550.17 123.99 554.01 136.61 557.75 138.41 562.91 139.05 568.75 149.33 574.97 154.42 584.54 161.4 593.62 164.91 602.8 166.94 611.8 167.08 625.32 167.02 632.12 165.59 639.17 164.28 644.91 163.28 650.25 160.84 658.69 159.7 665.73 161.99 672.31 161.74 675.21 159.42 679.85 158.64 685.25 152.71 688.27 149.7 693.41 148.94 696.77 149.81 711.83 150 715.92 148.55 718.2 142.91 718.42 137.3 720 130.37 722.04 126.36 724.18 124.08 730.03 125.28 734.97 126.96 739.11 130.24 744.64 134.24 744.02 139.42 742.7 153.76 Z"/>
</g>
</svg>