<?xml version="1.0"?>
<svg xmlns="http://www.w3.org/2000/svg" version="1.2" baseProfile="tiny" fill="#f9c113" width="800" height="522" viewBox="0 0 800 522" stroke-linecap="round" stroke-linejoin="round">
<g fill="#c0392b" id="id_13">
<path d="M 17.52 75.29 25.45 78.84 29.4 77.14 46.73 58.46 54.27 57.81 71.29 46.92 92.56 57.76 116.48 58.86 123.37 61.85 143.25 62.85 145.89 69.85 155.13 68.75 182.44 61.55 198.02 47.71 197.77 40.42 210.9 24.98 210.9 8.74 226.63 1 236.92 2.7 253.9 12.44 271.92 16.39 292.94 35.07 296.24 41.12 322.15 56.11 329.94 53.41 343.53 55.56 379.28 53.31 391.26 47.46 403.5 53.61 411.83 51.66 414.28 47.21 426.61 37.27 432.61 41.77 445.24 42.07 450.93 60.11 465.21 62.25 470.46 59.76 494.72 54.96 500.12 58.76 520.29 61.15 526.38 56.96 551.05 50.46 579.13 44.74 621.95 45.04 639.43 53.71 645.72 54.33 671.31 49.54 685.14 49.24 714.55 75.32 736.37 82.2 768.47 82.48 772.64 79.48 785.57 80.15 796.08 83.65 795.45 108.38 799 114.33 794.71 127.07 773.88 130.61 772.64 138.41 751.81 154.99 749.32 163.59 739.73 169.53 731.69 188.52 725.45 206.05 705.68 211.5 692.39 219.79 686.1 213.05 674.87 213.5 672.32 217.95 678.96 229.29 679.81 236.93 670.47 247.02 646.95 257.02 631.83 271.2 625.73 290.09 615.8 280.75 614.3 260.21 601.07 242.88 597.9 226.99 584.06 225.99 571.48 230.79 563.19 236.58 562.69 245.17 552.46 251.27 547.46 247.97 539.08 245.52 531.04 232.88 526.89 220.04 521.85 217.4 510.81 220.64 504.27 223.94 495.33 218.94 483.05 222.74 470.47 229.64 460.58 232.43 449.7 238.93 442.01 244.92 441.97 244.92 449.48 265.3 443.49 284.28 429.91 303.67 429.31 318.46 419.92 330.45 417.13 356.83 412.33 366.42 413.13 373.61 405.54 385.8 405.54 392 376.98 400.39 367.59 401.09 358.81 404.69 349.72 399.09 337.73 402.19 318.86 385.65 311.42 412.03 307.57 422.38 307.37 445.46 302.38 451.55 303.43 463.04 299.49 474.54 301.48 481.88 290.75 490.27 287.5 503.61 266.78 518.75 253.8 520 241.96 518.55 238.07 521 229.33 513.56 222.54 517.4 207.16 495.57 205.96 483.43 172.41 481.98 166.12 496.67 144.74 497.92 137.35 495.32 123.47 496.27 111.24 510.41 95.56 509.66 81.88 497.47 73.49 494.87 63.7 479.58 56.21 473.49 50.72 459.2 53.12 456.4 52.92 447.61 48.92 441.61 48.02 411.63 52.92 403.94 53.62 390.75 58.71 379.36 49.82 373.06 54.3 371.67 49.48 372.88 42.09 365.48 42.89 350.49 44.69 336.7 50.68 324.71 48.69 317.32 45.09 299.73 44.49 287.14 46.69 282.35 47.49 263.26 56.97 257.47 69.56 252.87 82.94 245.47 81.24 238.88 81.44 226.79 85.44 212.6 95.72 206 109 205.51 137.27 189.32 147.65 193.11 170.02 194.01 175.42 183.32 180.31 176.43 179.11 167.63 171.62 152.05 166.83 151.05 143.26 150.85 126.38 143.15 106.01 125.67 73.15 122.07 58.77 112.68 47.39 113.58 42.69 112.08 29.11 104.43 16.53 103.93 10.64 100.39 2.7 95.39 1 91.24 2.3 85.4 9.24 74.46 17.52 75.29 Z"/>
</g>
</svg>