<?xml version="1.0"?>
<svg xmlns="http://www.w3.org/2000/svg" version="1.2" baseProfile="tiny" fill="#f9c113" width="800" height="766" viewBox="0 0 800 766" stroke-linecap="round" stroke-linejoin="round">
<g fill="#c0392b" id="id_18">
<path d="M 397.37 87.34 410.73 102.12 424.1 100.41 429.5 100.98 438.03 109.51 440.02 117.75 436.89 121.16 422.11 123.72 418.41 126.85 429.78 133.95 457.93 134.8 463.34 149.58 470.73 150.72 480.97 161.24 493.19 160.1 509.68 170.05 516.51 173.74 520.49 188.81 525.04 190.37 525.04 198.76 533.43 202.03 533.71 207.85 532.43 210.98 519.35 211.41 512.1 216.52 512.67 221.78 523.33 230.31 536.7 238.27 571.1 239.12 581.76 253.05 583.19 271.24 575.08 276.07 571.81 282.89 573.94 292.55 596.55 292.7 609.06 294.54 629.39 307.62 638.63 312.02 639.2 318.56 636.36 325.38 646.17 334.91 652.99 335.05 653.7 352.24 660.95 355.8 659.53 364.89 643.18 374.41 636.07 386.21 650.5 413.78 650.5 413.78 670.12 413.35 671.97 410.65 685.69 409.94 697.85 418.04 710.64 424.51 715.19 431.33 720.74 432.19 720.88 440.14 715.48 444.62 711 449.38 708.37 475.18 697.99 486.9 700.05 497.91 694.01 501.82 675.74 502.53 656.76 518.17 673.18 536 674.25 541.05 670.69 546.66 672.18 555.76 682.92 570.18 693.94 567.13 707.87 559.45 717.47 558.95 728.13 556.25 737.8 549.36 737.65 538.63 746.89 538.84 750.59 543.11 777.18 541.76 784.85 536 791.54 541.47 792.46 547.87 765.31 562.72 763.67 570.82 775.04 572.74 781.66 575.58 798.15 573.88 799 585.03 774.26 598.11 773.13 604.65 776.96 618.86 789.26 618.57 796.3 615.09 796.87 643.23 786.06 647.78 789.06 660.63 748.62 673.29 737.48 676.11 723.9 681.44 617.32 708.4 563.66 730.3 502.4 762.07 469.46 765 468.02 747.9 453.76 745.49 438.29 741.06 431.44 734.58 417.11 733.66 412.11 732.87 397.65 732.98 395.45 733.4 385.86 734.41 371.78 731.03 367.59 725.79 366.3 718.18 362.44 703.72 358.22 695.34 361.9 692.07 378.35 689.61 386.84 682.45 390.7 677.04 395.35 669.29 385.34 663.67 383.1 656.31 373.45 643.75 358.91 637.08 352.43 647.76 347.72 654.43 344.83 656.53 336.13 662.02 332.3 661.98 338.54 656.26 339.85 652.11 332.24 642.18 336.65 634.62 339.58 634.72 341.75 632.64 342.57 626.79 356.88 622.32 359.26 600.07 352.9 581 336.21 578.62 314.75 581.8 299.65 579.41 295.86 567.05 293.3 517.44 275.01 503.94 267.98 505.56 265.16 504.46 264.68 506.33 253.56 518.24 233.69 528.57 220.97 539.69 230.51 549.22 232.89 556.37 213.82 557.96 199.51 562.73 201.9 573.06 201.1 587.36 193.95 588.15 189.3 599 172.41 602.5 149.21 606.44 125.6 608.02 118.44 604.84 116.06 591.33 99.37 592.92 77.91 596.1 84.22 573.05 104.13 561.05 104.93 546.05 117.65 545.25 135.1 534.08 124.01 518.24 103.34 508.7 69.17 500.76 46.91 502.35 31.02 493.61 11.94 492.02 6.38 453.09 1.61 446.73 1 442.92 20.26 442.42 24.81 445.26 35.05 450.94 50.4 450.38 60.64 435.6 80.54 429.91 82.82 425.93 99.31 420.25 120.35 402.62 129.45 392.39 131.73 376.48 136.84 363.4 143.1 358.85 144.24 346.91 163 334.98 163.57 324.18 211.91 294.62 242.62 278.13 244.32 242.32 256.83 231.51 257.4 213.89 248.87 205.93 250.01 188.31 257.97 165.57 265.93 151.36 267.64 134.31 263.66 126.35 260.82 116.68 243.19 107.02 228.4 108.16 227.26 101.9 240.34 92.24 243.19 86.55 232.38 77.46 220.44 73.48 207.36 79.16 195.42 81.44 195.99 75.75 222.15 34.26 227.26 31.41 234.37 14.93 257.12 1.57 271.9 1 300.05 22.03 315.98 22.6 318.54 18.05 326.5 15.21 342.42 6.4 345.26 12.94 350.38 22.32 354.65 22.89 364.03 15.21 375.97 15.5 377.68 33.97 385.07 37.67 385.71 49.18 379.6 68.08 379.04 75.78 397.37 87.34 Z"/>
</g>
</svg>