<?xml version="1.0"?>
<svg xmlns="http://www.w3.org/2000/svg" version="1.2" baseProfile="tiny" fill="#f9c113" width="800" height="752" viewBox="0 0 800 752" stroke-linecap="round" stroke-linejoin="round">
<g fill="#c0392b" id="id_120">
<path d="M 653.27 745.25 644.85 745.55 634.81 744.77 633.89 735.81 625.67 732.69 617 731.52 610.15 726.07 602.39 727.24 598.73 723.73 588.23 737.37 565.4 745.16 559.01 743.21 543.49 751 537.55 744.38 538.92 730.35 548.96 716.33 540.29 714.38 541.2 705.43 533.44 701.14 530.24 677.77 522.94 670.77 512.44 667.26 505.13 674.66 497.82 668.82 492.35 669.21 486.87 679.72 482.3 675.05 467.23 680.5 432.99 664.14 421.11 662.2 436.64 639.61 443.49 638.45 443.03 625.6 429.79 621.7 417.92 614.69 408.33 594.45 398.74 592.11 388.7 606.13 387.33 601.07 379.56 596.01 378.65 583.16 367.69 594.45 358.56 593.67 353.08 586.66 362.21 581.99 378.65 562.53 406.5 576.54 407.87 568.37 431.62 558.64 422.94 541.12 434.36 536.84 438.47 529.06 429.79 524.78 432.53 519.72 439.38 513.49 444.4 512.71 453.99 512.71 462.21 515.05 471.34 495.98 468.6 484.3 417.01 500.65 417.01 494.81 396.46 463.29 402.85 450.07 406.5 443.84 400.57 441.89 390.52 448.9 380.93 466.41 380.93 476.52 369.06 474.19 370.89 462.9 363.58 459.79 358.1 455.9 328.88 461.74 324.77 468.74 310.16 472.24 308.79 478.47 283.68 484.3 338.01 519.72 322.94 558.25 235.73 619.37 201.03 574.79 185.96 568.95 217.7 532.37 218.15 480.41 221.12 442.28 230.25 424 243.04 396.38 241.67 371.88 229.34 370.32 242.58 362.15 243.27 345.04 244.64 315.1 232.76 317.04 223.63 299.55 215.41 294.1 204.45 292.94 199.43 287.11 192.13 289.05 188.02 282.05 182.08 279.33 179.8 271.56 172.95 267.28 176.6 263 176.6 259.89 142.81 260.67 140.07 257.56 136.42 258.73 131.85 237.74 128.66 227.63 112.22 226.07 109.94 231.13 102.17 217.52 84.82 217.91 77.52 214.03 78.89 230.74 76.6 240.07 68.84 231.13 56.97 231.13 51.95 231.91 39.96 233.95 36.08 222.48 29.46 221.12 23.07 205.57 17.59 195.86 8 187.31 6.64 185.23 1.48 181.25 1 175.21 13.21 169.41 56.84 136.7 82.29 110.05 104.1 117.32 136.82 148.82 179.23 183.95 205.88 166.99 255.57 117.32 288.28 105.21 255.57 67.66 256.78 53.12 278.59 60.39 304.04 57.96 314.94 38.58 340.39 31.31 385.22 1.03 385.81 1 390.9 3.67 394.97 5.32 398.66 6.47 400.81 7.24 405.56 9.14 407.41 9.83 409.72 11.02 411.26 15.23 409.67 16.37 410.16 17.35 415.28 25.01 420.02 28.22 418.81 30.58 417.81 32.37 418.29 33.11 417.35 35.49 417.28 36.52 418.62 37.54 417.53 39.12 415.68 41.12 416.84 42.18 415.65 43.61 417.27 44.66 416.45 45.58 417.82 46.4 420.13 47.15 420.98 47.47 422.79 48.25 424.3 48.81 428.59 49.96 430.6 51.79 432.62 52.78 435.02 54.12 436.02 54.59 438.05 55.26 446.74 58.89 447.8 59.36 449.2 60.09 450.26 60.71 451.73 61.71 453.65 62.92 454.26 63.1 454.72 63.34 456.17 63.85 457.73 64.29 460.24 65.07 463.8 66.1 466.35 66.53 469.38 67.67 471.08 67.29 472.32 67.35 473.34 68.74 474.02 69.58 474.68 70.12 475.33 70.56 476.02 71.41 476.77 72.83 477.52 73.97 479.15 75.69 482.9 78.42 483.43 78.75 485.3 79.57 488.88 80.71 489.89 81.14 491.64 82 492.09 83.24 492.62 84.33 493.04 85.83 493.14 87.67 493.29 88.26 493.52 88.48 494.1 88.62 498 88.98 498.24 90.05 498.43 90.65 499.45 90.67 499.33 92.76 498.61 95.02 496.93 97.13 497.36 98.57 497.46 99.73 497.94 100.68 497.51 101.16 495.97 101.94 493.29 103.8 491.89 104.87 489.81 106.86 485.86 111.19 485.13 112.43 484.96 114.1 484.59 114.5 484.19 116.07 484.13 116.59 484.23 117.59 483.72 118.78 485.1 119.12 486.69 119.27 488.1 119.55 488.23 119.43 489.52 119.49 493.4 122.57 496.1 124.53 498.51 125.87 502.48 127.77 506.54 130.12 508.64 132.1 511.01 134.01 512.5 134.95 511.78 137.66 511.38 138.46 509.54 141.02 508.89 141.83 507.74 142.75 507.11 143.43 507.03 143.9 507.45 144.78 506.2 146.26 505.26 146.51 505.7 147.69 504.8 148.03 505.98 150.15 505.63 150.76 505.41 151.85 505.87 153.1 506.09 153.98 506.67 155.49 507.24 157.81 507.97 159.93 508.67 161.84 509.32 163.11 509.59 163.84 509.5 164.26 512.36 165.5 514.07 166.28 514.42 166.62 514.76 168.23 517.52 167.19 519.78 166.2 522.06 164.98 522.97 164.44 523.87 164.05 525.15 165.36 525.55 165.53 528.02 170.22 528.29 170.63 528.43 172.62 531.01 177.95 531.29 179.37 531.84 182.63 531.55 187.26 531.21 188.55 528.7 192.86 528.64 194.14 528.68 197.21 528.94 198.54 529.24 199.5 530.03 200.81 527.74 201.52 527.42 201.83 527.77 202.07 530.3 204.84 531.28 205.96 531.69 206.67 532.92 209.38 536.54 218.5 538.23 221.34 539.78 223.48 540.86 225.02 541.25 226.97 541.44 227.49 541.47 232.86 540.58 234.75 539.89 236.93 539.73 238.9 539.79 240.66 540.46 241.37 541.19 242.38 542.68 243.79 544.55 245.24 548.95 248.9 550.24 250.82 548.46 252.05 551.29 254.79 552.92 256.51 551.97 260.6 550.82 263.77 550.46 265.29 553 265.58 555.72 265.98 558.52 266.53 561.23 266.91 563.37 266.66 566.01 266.08 569.14 266.15 573.5 266.93 575.55 267.08 577.78 267.3 579.83 267.43 580.58 267.55 584.76 268.62 585.04 269.53 586.94 269.65 589.99 270.1 591.65 270.75 593.45 271.15 594.92 271.53 594.48 272.85 595.01 275.38 595.54 275.39 597.39 275.03 597.91 275.04 598.41 275.09 600.48 275.14 600.72 277.74 600.68 278.24 600.8 279.75 600.91 280.98 601.19 283.08 602.43 282.91 602.6 283.86 604.29 283.86 606.13 284.37 607.82 284.96 609.26 285.85 605.5 286.5 604.92 288.2 604.65 288.44 604.44 288.97 602.66 288.69 601.86 288.67 601.12 288.85 599.23 288.58 599.02 290.59 599.33 291.12 600.16 292.23 602.21 294.62 603.2 295.75 604.81 297.24 606.52 297.74 607.05 297.39 610.04 297.81 610.53 298.06 611.23 298.94 614.22 299.47 614.48 300.27 614.48 301.58 614.37 302.61 614.03 303.8 614.78 303.99 615.12 305.66 615.76 305.96 615.35 307.76 613.95 307.49 614.14 308.61 614.77 310.64 615.36 313.26 616.12 312.96 617.8 315.25 617.05 315.61 616.34 315.05 614.3 317.05 614.41 317.33 616.03 318.75 616.47 319 618.68 319.86 621.34 321.35 623.41 322.57 625.02 321.07 626.53 322.4 624.9 323.6 626.19 324.53 627.27 325.13 629.47 326.69 627.6 327.99 626.99 328.77 625.29 331.76 627.65 333.53 629.16 334.58 630.08 335.08 633.23 336.59 634.66 337.34 638.32 340.53 639.07 341.92 640.41 342.84 641.65 343.87 642.34 346.48 642.82 347.94 642.3 350.01 643.44 350.35 647 351.08 649.29 351.4 651.39 351.87 656.46 352.26 658.5 352.32 661.3 352.5 666.3 353.53 668.71 354.67 673.01 356.59 677.38 358.89 679.35 360.03 680.26 360.4 682.65 361.71 683.75 362.42 685.11 362.53 685.22 362.99 686.14 363.51 686 364.88 686.98 366.01 689.28 366.59 689.29 367.56 691.05 367.82 691.48 366.07 691.68 364.5 694.33 364.95 694.95 363.25 701.83 362.64 701.78 365.01 699.73 365 699.06 366.83 697.02 366.61 695.93 367.92 692.45 366.7 691.52 368.27 691.27 368.85 690.96 369.38 687.04 368.39 686.57 369.1 684.55 368.48 684.24 369.36 683.85 370.33 683.73 371.01 683.59 371.6 683.26 372.49 681.51 373.73 680.09 375.11 679.4 375.97 679.42 376.78 679.23 377.09 679.4 377.53 679.38 377.81 678.84 378.99 680.79 379.75 682.74 380.86 683.47 381.39 684.09 381.7 685.2 382.07 685.78 382.47 687.16 383.9 687.64 384.29 688.67 384.4 690.29 385 689.46 387.43 689.43 387.92 692 389.07 696.23 390.54 697.69 391.14 700.14 391.46 702.39 391.55 703.48 393.17 704.21 395.06 704.41 396.92 704.4 398.19 704.86 399.48 704.72 402.48 707.46 403.53 708.4 403.75 709.01 406.45 707.85 407.5 704.71 407.3 704.42 407 700.81 406.77 698.1 407.57 698.12 409.94 698.28 410.98 698.6 412.37 698.52 414.57 698.23 416.36 699.5 419.42 699.73 420.68 699.57 425.15 698.97 426.12 698.31 425.94 697.72 427.1 696.44 427.36 694.5 426.9 694.29 428.59 694.37 430 693.94 433.6 694.74 433.8 695.48 437.33 695.64 439.28 695.92 441.3 696.36 442.87 697.05 445.16 697.77 447.08 697.79 447.87 696.96 449.02 696.41 450.04 695.46 451.46 695.14 452.46 693.98 456.49 693.34 457.47 692.9 458.3 692.65 459.35 692.72 460.44 694.13 464.88 694.35 466.91 694.23 467.3 693.85 467.51 691.92 467.78 689.23 467.56 686.89 467.88 683.46 469.04 682.09 469.79 679.5 471.62 677.2 472.84 675.01 474.28 671.62 475.56 668.92 474.63 667.3 474.27 662.97 474.14 657.35 472.01 652.01 470.5 650.02 471.68 648.68 472.94 645.7 475.53 645.02 476.46 644.56 476.69 644.46 476.9 643.43 477.3 642.79 477.66 642.36 477.96 641.8 478.25 639.85 478.75 638.43 479.41 635.37 479.76 635.19 480.95 634.68 481.01 634.38 481.92 631.89 481.84 628.78 481.66 627.92 481.81 626.79 482.19 623.78 483.52 622.49 483.59 621.14 487.83 620.46 489.88 619.41 492.44 618.8 494.47 618.73 496.38 618.85 497.11 619.53 498.11 619.13 500.29 618.88 501.05 618.19 502.64 617.87 503.29 617.27 504.05 616.26 505.08 614.31 505.92 613.44 506.48 612.59 507.78 613.16 508.1 614.1 508.02 615.03 507.87 616.99 508.36 616.95 509.19 618.15 509.35 620.66 509.49 620.61 509.68 621.13 509.62 621.39 511.16 621.37 512.67 620.19 512.81 619.98 514.31 620.49 516.08 621.75 516.12 622.38 516.91 622.23 518.66 620.44 519.06 619.45 518.4 619.24 517.7 618.2 516.05 616.92 515.53 614.45 515.53 612.22 515.87 612.28 518.02 613.02 519.75 614.47 519.29 614.78 518.58 617.07 519.23 618.07 519.64 619.48 520.56 620.79 521.06 622.08 521.37 623.65 521.98 626.94 523.21 630.17 525.11 629.51 526.39 628.6 528.35 627.09 530.94 625.63 533.03 625.23 533.36 623.54 535.07 620.6 533.6 619.13 534.56 616.85 533.89 615.81 533.96 615 538.64 613.15 538.32 613.02 537.06 612.21 535.89 611.8 534.43 610.45 534.35 609.57 534.15 608.97 536.2 608.11 536.06 607.98 535.74 608.55 533.86 606.83 533.39 604.42 532.63 603.01 531.73 601.72 531.58 600.81 531.62 600.42 531.8 600.41 532.69 600.29 533.29 603.31 535.85 605.35 537.48 605.82 537.94 607.37 539.74 608.65 539.49 611.63 539.43 612.08 539.46 612.63 539.63 613.88 540.45 615.01 540.92 616.04 541.32 617.15 541.51 619.66 543.41 620.1 543.21 621.03 543.6 621.79 544.19 623.76 544.48 626.44 544.67 628.65 544.7 630.5 545.38 631.86 544.99 634.1 544.11 632.91 542.67 636.1 543.1 637.87 543.37 639.83 543.89 644.67 545.02 646.03 545.26 647.44 543.4 648.45 540.34 647.55 540.03 648.08 538.4 647.74 538.19 648.13 533.93 649.03 531.75 651.25 532.35 652.74 532.65 655.58 532.99 657.27 533.09 657.54 534.14 658.74 535.39 659.04 535.68 661.09 536.37 662.05 536.34 663.36 536.22 664.55 536.02 667.35 535.27 669.19 534.49 669.86 534.42 670.16 535.26 670.35 535.55 670.76 535.82 671.56 536.02 672.3 538.06 672.46 538.93 675.87 539.56 677.37 539.62 678.3 539.71 679.17 536.25 681.51 536.76 682.17 536.78 683.49 536.52 683.93 536.29 684.77 536.39 685.22 536.04 685.93 536.18 686.66 536.09 688.96 537.98 691.6 540.74 694.14 544.36 694.74 545.44 695.19 546.46 696.29 549.51 696.52 550.57 696.45 552.03 696.41 553.83 696.16 555.84 696.96 558.71 697.93 561.79 698.44 562.84 699.85 564.81 700.76 565.93 703.44 568.98 705.33 570.74 707 571.51 708.96 571.94 708.99 573.01 711.19 573.04 714.18 572.92 717.8 572.61 718.06 572.69 717.85 574.66 716.67 577.89 716.74 578.63 717.17 578.8 718.34 579.04 718.56 579.49 717.85 580.71 719.63 581.63 719.89 580.09 720.56 578.45 721.27 577.34 723.54 577.58 727.03 579.01 727.6 576.5 725.05 576.12 725.23 575.02 725.13 573.39 724.88 570.99 726.28 571.01 727.92 571.13 729.81 571.73 730.5 571.45 731.47 570.81 733.27 572.05 734.91 570.76 736.73 569.6 738.35 570.47 739.02 570.71 739.88 571.39 742.33 569.39 743 569.45 743.55 570.8 744.69 571.27 745.36 571.66 746.16 572.04 747.23 572.08 748.2 572.07 749.06 571.79 751.05 572.29 751.81 572.72 752.53 573.19 753.94 573.79 753.43 574.41 752.92 574.47 752.62 574.82 752 575.06 750.94 574.72 749.97 574.1 749.16 574.72 748.82 575.23 747.72 576.36 746.94 579.35 745.73 579.68 745.02 580.08 743.92 580.16 743.07 580.64 742.25 581.24 741.09 582.42 739.99 581.28 739.52 581.03 739.41 579.89 739.85 578.14 738.8 576.86 737.48 576.49 736.71 576.08 736.81 575.45 736.24 575.3 735.34 576.96 734.37 579.11 736.21 580.26 734.46 582.88 732.05 585.59 732.76 587.46 734.98 588.87 733.9 590.3 733.02 591.18 732.26 592.16 731.61 593.51 732.85 594.24 734.01 594.72 734.72 593.93 736.05 592.62 738.16 593.95 738.44 593.95 739.16 593.37 740.05 594.26 741.29 593.65 742.38 593.56 743.09 593 742.91 591.7 743.51 590.98 743.84 591.01 744.31 590.52 747.34 591.39 748.65 591.63 748.95 590.94 750.86 591.27 753.04 591.49 752.88 592.35 752.39 593.09 753.89 594.02 753.38 594.88 754.61 595.56 754.37 595.92 755.26 597.1 755.89 598.23 757.19 600.09 757.66 601.3 758.27 603.11 758.42 603.64 758.85 604.36 760.79 605.38 761.35 605.81 762.72 606.76 764.58 608.16 766.23 609.56 767.52 610.54 769.31 611.47 770.99 612.59 771.02 612.99 772.64 613.26 772.75 613.64 774.88 615.36 775.93 616.64 776.92 618.17 777.86 618.67 779.4 620.22 780.53 620.7 781.72 622.01 782.35 623.26 782.96 624.94 783.6 626.6 785.22 628.95 785.88 630.09 786.02 630.69 786.64 632.23 786.92 633.24 787.87 634.84 788.27 635.84 790.03 638.09 791.23 639.81 792.9 642.75 793.61 644.57 794.29 645.51 795.46 647.72 795.36 648.46 795.35 649.77 794.65 649.68 794.05 651.2 792.55 653.24 790.58 656.05 787.88 655.8 785.42 656.21 783.96 656.32 781.63 656.56 780.79 656.72 779.34 657.1 776.63 658.2 774.88 658.48 774.11 658.68 772.85 659.12 771.75 659.67 769.43 660.97 765.87 663.34 763.89 664.88 762.85 665.76 761.81 667.11 761.07 668.71 760.48 669.82 759.96 671 759.22 673.37 758.81 675.4 760.75 681.05 760.73 682.1 760.91 683.99 761 684.27 761.2 684.45 762.22 684.99 764.7 685.53 765.25 687.28 767.73 687.87 767.7 689.74 767.6 691.53 769.86 692.05 769.6 694.33 772.03 695.81 773.04 696.58 775.54 697.79 776.59 698.65 777.11 698.58 777.46 701.26 779.55 701.21 780.21 702.61 781.13 702.54 781.59 704.99 782.85 705.33 783.64 706.19 785.27 707.12 788 709.18 792.49 712.85 794.48 714.86 795.68 715.55 797.41 716.45 797.61 716.6 797.28 717.12 797.57 717.91 798.51 718.53 798.91 720.32 799 721.14 796.39 722.47 792.19 719.82 790.19 721.59 789.08 722.33 788.12 723.11 786.63 724.74 783.04 726.51 781.5 728.07 779.16 731.39 778.08 733.7 776.07 735 776.44 738.67 775.62 740.3 774.87 741.16 773.93 741.48 772.91 741.42 771.96 742.7 771.63 744.4 771.01 745.73 768.82 745.61 768.59 746.09 767.71 745.7 767.16 745.37 763.86 744.1 762.59 743.09 761.55 744.1 760.27 743.38 758.95 741.72 756.25 741.07 756.07 740.15 753.94 739.97 751.88 738.95 750.76 738.99 747.99 739.12 746.37 739.22 745.69 737.97 744.68 734.71 744.18 733.57 744.08 732.76 743.73 731.62 743.33 731.44 743.25 731.32 743.2 730.38 742.81 726.65 742.44 724.42 741.12 724.08 740.58 721.99 736.41 722.02 734.38 720.52 733.61 718.55 732.65 716.38 731.83 714.28 730.91 712.36 727.97 712.42 725.06 711.9 722.75 711.35 720.36 710.91 718.09 710.55 716.9 714.79 716.51 717.12 715.84 719.86 715.22 722.52 714.89 724.41 714.51 725.58 712.98 728.94 711.04 732.73 710.42 736.34 706.4 735.31 703.83 734.46 701.56 733.59 701.31 733.2 698.45 731.93 696.74 731.38 693.37 730.43 689.18 729.77 689.27 729.02 686.82 727.79 684.52 726.92 684.02 728.82 684 730.84 681.22 732.62 679.95 734.74 678.75 735.2 675.68 735.82 675.38 736.72 673.74 736.53 672.59 736.31 671.11 735.7 669.33 734.66 668.71 734.7 668.21 734.83 667.98 736.04 665.17 736.11 668.28 740.38 668.76 741.33 669.17 742.42 669.2 743.47 668.93 743.89 668.9 745.09 668.72 746.9 667.82 746.98 666.14 747.06 662.82 747.18 661.04 746.53 660.55 746.39 655.72 745.87 653.27 745.25 Z"/>
</g>
</svg>