<?xml version="1.0"?>
<svg xmlns="http://www.w3.org/2000/svg" version="1.2" baseProfile="tiny" fill="#f9c113" width="800" height="610" viewBox="0 0 800 610" stroke-linecap="round" stroke-linejoin="round">
<g fill="#c0392b" id="id_175">
<path d="M 375.86 363.18 382.16 364.39 387.18 360.26 392.35 355.76 397.4 350.72 399.01 348.79 398.95 344.22 401.42 340.1 401.84 333.5 401.84 321.96 405.55 318.67 413.38 318.67 419.53 317.22 418.74 306.3 419.15 298.05 422.45 294.76 427.4 294.76 433.99 295.17 435.67 295.39 438.94 295.17 442.65 293.11 445.54 288.16 446.36 283.63 445.32 281.41 441.41 274.97 445.95 272.5 453 267.8 450.89 261.37 444.71 253.54 441 249 437.7 242.82 440.59 235.81 450.51 232.35 458.73 229.22 468.62 225.51 477.28 223.45 477.23 218.81 478.52 214.38 480.17 206.96 481.85 204.59 484.29 199.54 489.24 196.24 496.02 195.49 504.49 197.06 512.74 200.36 518.51 204.48 525.1 205.31 529.64 202.01 532.88 200.24 534.59 199.12 537.87 195.05 542.96 188.61 548.19 178.51 553.3 173.7 555.5 172.51 559.73 168.62 565.09 167.39 575.81 167.8 579.52 161.61 582.7 157.72 584.06 154.19 590.65 150.07 598.07 142.65 600.46 139.01 602.2 135.23 603.43 127.81 600.62 120.82 591.48 112.15 588.59 106.38 582 95.25 582.72 88.98 582 80.41 586.12 75.05 590.65 70.52 595.85 69.65 601.69 65.88 608.54 65.08 614.45 65.34 621.3 66.02 623.58 63.33 622.64 59.84 620.5 53.79 613.91 47.21 613.44 33.03 628.85 32.49 632.72 32.68 653.82 31.86 657.27 31.76 672.02 25.86 674.55 15.75 680.02 1 710.37 9.01 720.09 8.92 729.33 9.01 733.79 4.96 736.27 1.9 736.41 2.03 747.66 13.28 758.38 16.5 768.56 21.85 770.34 25.09 771.24 26.68 777.67 35.78 779.54 36.27 791.06 35.78 799 40.19 799 47.01 791.98 57.23 790.34 59.94 790.04 60.41 780.59 73.09 769.95 76.7 762.26 80.59 756.42 80.58 754.65 80.75 754.86 80.4 751.16 82.16 745.8 86.93 745.8 86.93 744.4 88.18 737.64 94.47 731.44 98.45 726.44 101.6 720.42 102.15 715.72 102.52 715.68 102.54 714.68 103.45 710.33 105.67 710.33 105.65 705.72 105.6 704.09 105.65 700.56 106.46 698.3 106.96 689.78 109.65 689.78 109.67 689.76 109.68 689.62 112.44 689.5 114.46 689.38 117.33 689.31 118.63 686.62 126.24 685.01 126.75 676.78 131.61 673.29 138.58 673.21 138.8 672.77 139.02 669.75 140.81 662 145.49 655.73 153.99 653.07 156.35 651.36 157.69 650.74 158.41 647.83 161.01 645.45 161.29 645.42 161.21 640.96 160.71 635.59 156.23 632.64 155.39 627.53 152.21 619.33 153.16 615.89 155.35 614.1 160.72 614.02 168.31 616.34 173.25 621.71 174.59 617.23 179.51 611.12 175.01 600.66 174.59 592.61 169.21 583.2 174.14 579.62 176.38 578.28 179.96 565.74 178.62 557.81 180.68 555.45 182.08 555.45 187.57 567.53 196.52 575.29 198.19 580.07 199.21 580.07 206.82 578.76 213.87 564.85 214.43 561.18 220.54 554.94 225.84 551.76 227.6 549.01 231.99 544.62 238.12 542.64 238.69 530.37 244.87 522.31 250.03 519.82 252.37 507.99 256.95 504.7 263.43 505.3 269.04 506.12 278.21 504.93 287.19 504.85 295.45 500.06 301.33 498.92 303.08 494.34 308.02 491.42 311.12 490.12 320.45 486.05 322.31 479.33 322.31 472.58 315.91 471.46 317.24 464.56 320.97 464.65 324.61 465.9 328.58 475.31 334.4 475.31 338.42 468.59 344.24 461.87 352.3 461.43 355.13 460.53 362.6 452.47 363.05 448.18 365.64 447.33 367.28 443.07 371.1 440.93 373.2 439.79 375.13 438.15 376.47 435.46 382.74 429.64 378.71 429.64 384.98 426.95 389.01 423.74 388.85 420.68 389.01 421.13 399.3 415.95 401.72 414.86 402.89 411.28 405.12 409.49 413.18 403.22 416.76 403.67 426.61 398.75 432.88 397.43 436.42 395.17 439.59 391.14 451.23 393.25 459.59 395.17 468.24 392.03 474.06 392.16 476.66 392.93 478.54 395.17 487.49 395.38 490.97 396.06 495.55 396.51 505.4 389.34 514.8 383.47 521.36 381.73 523.75 379.03 523.6 372.96 525.4 375.91 532.7 374.12 540.31 370.41 544.05 370.09 545.68 366.51 551.5 369.2 557.32 377.7 564.49 382.18 570.3 382.18 578.36 379.5 583.29 368.75 578.81 364.32 581.4 358.45 586.42 350.84 589.55 345.02 594.03 339.2 594.03 336.07 591.14 330.25 586.87 325.77 587.32 323.08 593.14 320.4 598.51 320.4 605.22 319.48 606.97 318.41 609 316.61 608.25 315.18 607.26 313.74 604.61 313.26 599.56 312.79 593.36 310.11 593.94 307.63 597 307.34 600.14 306.29 598.32 305.05 596.01 303.24 592.12 303.43 588.89 300.85 585.01 295.59 583.52 290.82 583.02 286.52 582.03 280.22 582.44 276.11 579.63 273.63 581.61 271.81 584.01 267.9 584.92 265.89 581.2 265.99 576.16 263.31 578.14 260.64 577.98 259.59 575.49 257.49 573.51 255.96 569.04 253.09 568.88 252.04 573.59 247.07 574.25 244.11 577.31 241.15 580.13 241.34 584.1 239.34 589.22 234.47 591.13 229.69 594.6 226.73 598.24 222.72 598.9 221.86 596.09 221.38 593.86 219.66 593.19 211.93 593.61 208.58 592.7 207.63 589.47 206.29 584.26 208.01 581.28 211.73 576.07 215.08 572.19 214.03 570.45 214.12 562.59 212.21 559.78 210.21 560.77 209.82 565.16 205.91 570.04 204.09 575 197.5 577.48 190.44 579.71 185.28 577.98 181.17 574.67 179.93 568.38 178.4 565.74 178.78 561.85 177.45 559.28 175.54 561.77 173.34 563.34 169.8 565.82 165.41 568.3 162.55 569.79 159.01 571.61 155.38 575.08 152.61 577.07 146.02 576.16 145.07 573.1 143.06 571.19 141.34 572.19 140.48 575.99 133.22 576.98 131.69 571.61 128.92 569.79 128.64 573.67 126.06 574.83 126.06 576.98 127.87 580.46 127.11 582.77 123.86 581.7 114.31 580.95 112.69 577.89 110.01 574.92 109.25 577.81 110.3 581.53 109.34 584.43 103.14 584.18 96.64 581.53 94.54 579.63 92.25 581.45 91.29 584.59 93.78 587.16 96.93 588.07 98.46 590.8 95.21 592.62 91.96 591.46 86.61 588.89 84.42 585.01 83.27 586 80.12 587.98 79.07 591.21 79.07 594.93 79.64 597.66 73.15 597.83 67.7 596.75 62.83 592.45 59.87 592.7 54.71 594.68 46.02 592.62 43.44 591.87 36.56 594.1 32.27 592.7 30.83 588.65 29.78 584.76 25.87 578.8 22.05 577.98 11.25 577.31 8.66 576.42 6.59 570.36 5.74 568.34 5.9 554.89 4.88 546.71 8.67 532.34 9.92 527.73 23.71 525.44 17.67 513.64 13.72 505.4 12.67 503.92 8 498.52 3.18 490.65 1 486.2 3.91 484.12 8.22 480.5 10.47 480.02 13.07 479.84 25.44 474.89 32.03 474.89 37.65 471.14 44.28 465.05 47.7 457.99 55.53 455.11 63.36 459.23 66.77 465.74 67.07 467.88 79.24 470.24 81.6 469.97 91.4 470.36 104.18 470.77 112.42 470.77 120.26 471.18 122.05 468.95 124.38 463.76 128.35 459.99 131.29 457.14 132.61 455.95 138.25 450.35 139.41 445.82 148.04 439.69 156.95 439.85 166.02 437.38 175.09 436.26 175.09 427.08 167.26 424.19 164.33 421.04 157.92 414.36 155.72 414.83 151.91 414.71 148.13 408.44 146.57 407.06 144.96 406.5 147.15 374.52 150.33 375.8 154.74 376.48 157.22 373.81 158.47 370.71 160.18 368.32 160.92 365.96 165.38 367.41 166.02 363.18 167.67 355.35 161.07 346.28 163.69 340.37 171.79 338.86 177.15 338.04 181.4 339.72 184.57 341.34 190.72 341.48 192.82 341.75 197.76 341.75 199.5 339.86 202.71 337.21 213.02 338.86 224.15 340.51 226.62 340.92 246.41 340.92 256.72 340.51 263.73 339.69 268.67 339.28 272.38 341.75 278.16 345.05 287.64 347.93 297.12 347.11 307.01 347.52 321.03 348.34 326.39 347.11 336.7 342.99 340.82 338.04 349.07 328.97 358.36 321.27 368.03 321.96 377.1 328.15 378.75 334.33 378.87 339.68 375.04 344.22 373.8 349.58 372.15 354.94 372.26 360.66 375.86 363.18 Z"/>
</g>
</svg>