<?xml version="1.0"?>
<svg xmlns="http://www.w3.org/2000/svg" version="1.2" baseProfile="tiny" fill="#f9c113" width="800" height="577" viewBox="0 0 800 577" stroke-linecap="round" stroke-linejoin="round">
<g fill="#c0392b" id="id_147">
<path d="M 226.68 329.33 227.85 318.86 223.78 306.65 228.43 294.43 236.57 282.21 248.79 266.5 265.66 258.94 267.04 256.18 274.96 248.47 277.29 239.74 281.36 235.09 283.69 225.78 283.69 214.73 289.51 211.82 297.65 211.82 298.81 203.67 299.97 197.86 300.56 187.97 306.37 181.57 313.38 174.55 322.66 164.11 316.26 150.15 308.12 137.35 305.46 137.55 305.68 137.18 307.38 135.67 312.82 131.79 315 131.91 323.13 126.77 348.16 113.8 370 107.35 382.55 100.27 393 98.32 394.81 104.09 396.33 114.3 392.34 118.38 389.22 119.63 389.08 128.46 391.62 127.78 397.35 127.59 397.35 135.48 392.92 138.3 390.82 142.94 409.17 143.38 418.82 139.18 426.22 135.17 434.64 133.67 450.02 134.98 457.57 133.6 465.84 131.79 471.71 131.1 475.34 133.35 479.48 136.36 485.21 142.57 486.95 142.5 485.05 129.56 484.99 120.07 480.35 118.94 480.35 120.76 478.61 124.45 466.56 124.77 466.49 119.19 462.86 118 461.7 115.24 461.99 113.42 470.41 113.36 471.35 110.6 470.55 108.41 468.6 108.85 467.07 107.91 467.43 103.71 472.22 101.39 472.95 95.88 472.15 84.92 483.83 81.91 485.65 79.22 484.77 76.21 481.44 74.58 479.62 71.7 482.6 70.07 484.77 70.57 486.81 71.95 497.83 69.82 533.38 57.92 592.59 42.76 680.81 19.09 736.97 1.94 741.76 1 744.95 1.13 746.83 3.38 747.63 10.2 750.39 10.83 751.19 12.96 751.48 17.97 754.24 18.72 759.31 17.65 759.97 19.97 758.52 22.98 759.97 31.68 752.2 31.49 749.52 33.62 749.37 46.83 745.31 47.9 744.8 54.54 745.96 56.85 752.13 58.55 752.86 62.87 754.74 66.5 754.53 71.89 758.15 74.14 758.59 81.97 756.34 97.07 752.2 107.16 752.35 112.48 755.4 117.5 756.12 121.13 754.53 125.46 751.7 127.02 747.92 126.9 746.11 130.03 739.07 130.03 734.79 129.22 729.93 132.6 708.82 131.54 699.75 131.28 698.01 135.17 695.69 138.12 686.54 139.31 680.09 138.3 676.17 140.25 671.67 143.26 670.22 145.45 668.12 151.34 669.13 153.54 674.93 154.85 676.68 155.98 676.82 158.49 676.24 162.06 678.56 163.75 681.46 162.94 684.87 161.56 688.94 161.43 692.57 165.88 689.45 168.14 683.13 169.58 682.92 172.4 681.39 175.54 682.34 178.36 686.25 178.42 689.66 177.17 687.99 181.06 691.69 183.88 695.98 183.63 697.14 186.07 700.11 188.2 702.58 189.27 708.38 185.63 718.97 186.89 723.11 186.32 732.83 182.18 734.57 183.56 737.98 187.64 741.83 193.09 743.93 194.41 748.58 193.41 754.45 191.21 760.04 190.52 762.43 189.52 770.49 181.87 773.53 181.37 775.35 183.25 774.99 187.76 776.73 190.27 776.29 194.29 778.1 196.36 783.47 198.93 783.33 200.68 781.66 204.88 781.22 208.9 784.42 211.09 790.08 212.41 796.46 214.6 799 216.11 798.56 218.68 793.92 224.07 787.61 228.84 785.58 232.35 782.31 235.8 780.06 236.68 768.53 225.71 756.05 225.71 753.15 224.45 750.53 224.45 748.5 232.73 749.08 242.77 752.57 256.07 753.65 265.96 742.61 272.92 739.13 286.87 742.62 301.41 756.58 315.37 750.18 317.7 741.5 315.4 732.72 310.71 719.97 311.31 704.22 316.48 690.62 330.08 682.21 347.2 675.72 361.95 667.58 371.8 656.53 379.37 646.65 372.38 641.68 369.41 630.36 362.49 620.03 363.64 614.46 366.82 608.84 370.06 593.69 371.82 576.26 368.93 571.56 367.61 564.74 363.13 548.93 355.51 535.55 347.37 523.92 346.79 513.44 359.59 503.56 368.89 488.43 362.49 480.87 369.48 475.64 381.69 480.29 398.56 470.98 406.71 454.7 410.78 438.99 410.78 426.2 404.96 412.82 399.73 402.35 399.15 391.88 418.93 380.24 427.65 371.52 420.67 371.52 407.29 360.47 412.53 352.91 418.93 344.76 430.56 338.95 442.19 330.8 449.18 315.31 451.76 313.35 452.08 301.14 448.59 267.98 430.56 252.28 428.82 247.04 442.78 256.35 447.43 249.37 457.9 240.7 468.89 230.17 484.08 223.78 502.12 215.05 500.37 207.49 500.37 206.92 516.72 184.81 518.99 175.5 509.68 167.94 509.68 168.52 518.99 154.76 521.63 135.36 533.53 133.04 542.26 142.93 550.98 135.36 556.8 141.18 563.78 141.18 573.09 130.71 576 118.5 571.35 108.61 567.86 93.48 568.44 73.13 560.29 60.33 548.66 51.6 536.44 54.51 523.06 62.66 517.24 64.04 507.1 61.49 492.23 48.7 492.81 41.13 498.04 32.8 506.38 31.25 502.7 21.94 493.39 13.21 492.81 5.65 488.74 1.58 484.08 1 471.86 11.47 470.12 18.45 472.45 24.85 475.94 28.34 479.43 35.32 481.75 44.62 472.45 50.44 464.3 53.93 454.41 62.66 456.16 65.56 448.01 69.05 442.19 72.39 441.85 83.01 442.19 93.48 443.36 102.21 439.87 113.84 436.96 117.91 429.4 132.46 418.34 147 417.18 153.98 411.94 160.96 403.8 167.36 402.05 169.68 405.54 178.41 399.73 187.71 401.47 189.46 386.35 194.11 374.13 199.93 366.57 207.49 360.17 211.56 350.28 217.47 340.61 226.68 329.33 Z"/>
</g>
</svg>