<?xml version="1.0"?>
<svg xmlns="http://www.w3.org/2000/svg" version="1.2" baseProfile="tiny" fill="#f9c113" width="800" height="424" viewBox="0 0 800 424" stroke-linecap="round" stroke-linejoin="round">
<g fill="#c0392b" id="id_188">
<path d="M 248.04 379.89 238.74 379.06 228.86 382.87 221.65 387.35 207.03 388.34 193.17 387.84 170.57 387.01 160.5 383.2 135.25 378.73 119.87 377.9 106.01 376.9 103.59 375.6 101.46 363.05 109.46 347.2 125.11 328.02 125.9 296.42 136.14 268.75 148.83 243.6 146.53 229.24 133.76 231.51 121.34 236.91 103.89 247.51 83.06 256.07 80.98 240.23 78.66 227.85 71.33 220.99 61.73 213.92 64.33 204.08 74.01 190.4 78.19 175.81 71.68 164.35 59.1 151.48 39.86 139.16 21.23 139.2 6.1 147.53 1 144.32 1.36 131.48 8.31 108.37 14 94.3 21.57 82.9 27.32 64.38 25.44 48.05 25.26 46.62 28.34 45.95 30.81 44.3 34.51 43.72 37.93 43.06 42.58 42.57 48.28 43.72 53.79 44.05 61.1 45.79 67.18 47.02 70.5 47.77 78.38 49.09 86.92 48.76 89.58 48.92 95.56 50.16 101.17 49.83 107.43 49.25 112.46 48.76 122.15 48.43 132.21 47.44 148.45 45.62 157.56 43.81 177.4 43.89 186.9 44.55 190.7 45.13 200 44.88 204.65 45.62 209.88 44.71 217.66 41.99 223.26 38.36 227.44 36.55 228.1 34.73 228.58 33 228.2 27.64 226.87 24.26 225.3 21.74 223.83 20.13 223.31 18.4 222.12 17 221.22 15.39 219.56 13.08 219.08 11.55 219.51 7.76 220.89 4.13 223.55 1.21 226.97 1 229.48 2.15 233.47 2.36 239.88 4.01 242.49 4.75 250.32 4.83 259.1 5.95 264.99 6.57 292.86 6.57 299.88 7.84 304.25 9.86 308.24 12.63 310.09 16.42 312.84 21.57 315.45 29.58 317.35 37.54 318.59 43.76 317.54 53.29 314.17 59.57 316.45 70.83 321.05 72.07 328.6 72.48 333.63 73.89 342.75 76.53 355.85 80.65 369.9 81.97 395.92 82.14 403.89 83.79 407.5 86.1 414.34 89.24 418.32 90.73 424.59 90.73 426.77 89.65 426.87 88.41 423.83 86.1 422.69 84.53 422.6 82.8 422.88 81.07 424.02 78.67 425.54 76.44 424.02 74.96 420.89 74.38 419.99 73.6 418.47 72.85 415.71 71.45 413.86 70.46 413.2 69.35 411.68 68.36 410.11 67.65 407.6 67.24 403.99 66.42 401.04 64.56 398.67 63.32 396.63 61.88 395.16 60.76 394.97 59.94 393.83 59.07 393.21 58.25 393.21 55.15 393.16 46.57 392.64 44.75 391.27 42.53 390.6 41 389.98 39.64 388.51 36.92 387.13 32.88 387.04 30.15 387.7 26.69 387.61 22.23 388.75 19.43 402.8 18.77 407.55 19.43 410.59 19.76 414.95 20.67 420.74 24.79 424.45 26.28 434.04 28.59 437.64 30.15 438.21 31.64 434.13 32.96 432.42 34.53 434.8 35.51 440.11 35.43 445.53 34.03 448.18 33.04 451.22 34.28 453.31 41.04 454.73 44.42 458.15 47.56 463.47 49.79 466.79 52.59 470.21 54.33 475.72 54.82 483.5 51.52 489.1 50.86 497.93 52.1 503.63 50.78 506 48.06 512.75 42.36 517.68 38.15 523.19 35.27 525.94 33.45 528.41 32.55 530.59 33.29 531.73 34.44 531.92 36.83 533.63 37.66 533.16 39.14 539.42 44.26 539.9 46.65 543.98 46.49 545.88 46.16 548.54 44.42 552.34 43.1 555.56 42.44 557.37 41.78 558.79 41.78 560.5 43.02 563.35 44.75 567.53 50.12 568.19 51.69 570.66 52.68 573.6 52.35 573.89 49.71 574.65 47.48 574.27 45.25 575.69 45.91 578.54 46.74 580.53 46.82 582.62 46.16 583.76 45.42 585.85 44.51 583.67 44.18 581.86 43.76 580.25 42.53 578.35 41.37 576.36 40.71 574.08 39.14 572.08 38.48 569.71 37.16 567.24 36.59 559.74 36.17 560.79 35.27 562.5 34.94 564.39 33.95 566.96 32.96 569.71 31.23 572.94 28.42 575.22 27.1 576.17 26.19 577.69 24.87 580.44 24.3 581.1 24.71 583.38 31.31 585.09 31.23 592.02 29.08 592.31 33.04 591.36 35.76 591.64 38.48 597.62 44.42 602.66 43.93 608.83 42.2 611.68 44.09 612.91 45.91 614.14 46.49 621.27 46.41 623.83 45.66 623.73 43.93 622.22 39.39 621.36 35.43 620.7 31.97 617.56 28.83 612.72 25.45 618.42 27.27 622.41 26.94 625.54 25.86 626.49 24.96 629.62 25.2 634.08 28.5 637.6 31.8 641.01 32.71 643.96 33.21 648.13 33.87 648.04 36.59 647.47 40.13 647.28 44.42 645.67 46.08 640.44 46.74 637.03 46.9 637.31 47.73 640.35 48.47 643.1 49.38 644.15 50.78 646.14 52.59 643.77 55.48 640.06 56.06 637.79 54.16 633.61 54 631.04 54.49 630.48 56.06 629.72 61.59 629.53 64.81 625.25 65.96 620.41 64.31 614.24 62.5 611.39 64.23 611.68 67.03 606.64 68.6 603.04 69.84 602.94 72.15 605.88 75.87 610.73 79.83 613.39 83.71 615.38 88 617.94 90.15 622.88 89.32 626.87 90.31 628.1 94.36 629.43 95.84 633.42 97 634.46 98.49 634.84 101.38 636.84 103.19 639.21 104.02 643.1 103.94 644.91 104.68 645.19 108.73 646.14 115.25 647.85 118.55 648.61 121.61 648.7 124.33 647.38 127.14 646.33 129.37 646.62 130.53 648.04 131.93 653.26 132.76 656.87 133.01 678.14 133.09 681.55 132.26 684.21 130.45 686.3 130.12 690.1 129.46 693.42 127.56 695.89 126.4 697.79 123.59 698.93 122.27 701.3 121.11 701.68 118.8 702.92 116.24 704.82 114.34 705.77 111.12 705.77 108.06 707.09 104.18 709.18 101.62 712.03 98.82 715.64 95.51 718.01 93.53 720.39 92.95 723.24 91.72 724.75 90.4 725.61 88.25 725.32 86.02 723.14 84.7 722.1 83.13 721.81 82.14 723.9 80.41 725.61 78.76 727.89 77.6 732.54 75.62 735.01 75.12 739.19 73.47 740.14 72.48 740.23 69.76 741.37 68.52 743.36 68.85 744.03 70.83 743.84 74.88 744.03 79.99 744.6 83.05 746.69 84.2 748.68 83.38 750.39 81.73 751.72 79.75 753.52 77.02 754.38 75.95 755.42 74.3 758.46 73.8 760.74 73.39 762.16 72.15 760.93 71.08 759.6 69.51 758.08 68.77 757.98 66.87 760.07 66.04 762.54 64.89 764.73 66.21 767.86 67.28 772.23 67.86 777.54 71.16 782.2 75.04 784.28 75.7 788.75 78.26 791.78 78.76 796.34 78.51 799 80.08 797.48 82.06 793.49 83.54 790.46 84.2 787.61 85.85 786.66 87.59 784.47 89.57 785.8 90.15 786.94 90.89 786.28 91.39 784.57 91.96 780.58 94.77 782.48 96.01 786.09 98.07 788.94 99.56 790.27 100.55 792.64 101.87 795.3 103.28 797.22 104.5 792.79 113.36 789.47 120.6 789.65 126.75 789.78 139.02 788.81 158.77 787.56 158.72 776.06 158.15 769.09 157.8 768.46 161.81 768.84 166.46 768.77 169.11 780.73 175.89 781.33 178.77 781.47 180.51 781.89 183.07 781.91 186.22 776.95 189.41 772.64 192.04 771.92 194.46 770 201.38 772.62 210.35 773.95 215.11 775.23 219.18 775.7 221.46 777.08 227.51 778.46 235.01 768.02 247.97 764.94 250.98 759.7 255.88 756.51 258.88 746.46 267.31 745.65 275.07 745.23 278.87 744.84 282.49 743.21 283.56 738.37 284.76 736.33 285.59 734.02 288.53 726.09 295.42 729.11 295.27 733.2 294.77 739.67 301.88 740.48 303.58 741.95 305.41 744.66 312.32 744.87 314.18 746.78 316.74 746.18 318 741.61 326.75 737.1 326.36 731.97 325.61 722.57 325.86 715.16 325.78 708.71 323.79 703.87 320.48 701.87 319.4 699.78 321.89 697.89 321.06 694.94 319.24 688.11 318.99 680.13 316.34 675.76 316.26 674.05 318.99 675 324.95 672.54 327.6 667.31 329.67 662.19 334.31 661.9 343.42 668.45 347.82 674.34 349.06 680.04 351.71 685.92 354.36 687.92 358.34 691.05 362.23 688.3 364.64 687.82 367.79 691.52 371.43 687.54 376.9 686.4 380.55 678.14 378.39 673.58 376.24 672.63 372.68 669.97 369.94 665.13 364.72 663.14 357.76 657.91 355.27 654.5 351.3 651.36 347.9 646.52 339.86 645.38 336.96 642.82 335.8 640.16 337.13 636.74 337.79 634.46 336.47 633.13 332.08 631.23 330.58 627.82 327.85 627.06 323.3 624.11 320.98 621.46 323.54 620.41 330.67 620.98 337.13 617.56 343.26 617.37 348.98 617.56 354.03 612.25 361.16 606.07 367.62 601.99 373.34 601.52 380.8 604.18 386.85 609.11 388.67 616.04 392.4 617.85 396.47 618.23 403.51 612.82 407.41 607.88 409.15 606.83 413.38 598.86 419.19 592.69 419.19 585.95 415.87 586.71 413.13 582.15 410.64 577.4 409.73 566.67 409.65 564.3 413.8 564.3 418.02 563.26 421.26 561.26 422.25 555.47 422.75 551.48 423 550.44 421.43 552.62 418.19 552.05 414.29 547.49 409.73 545.5 406.58 548.35 397.13 543.22 395.31 537.34 393.9 528.7 390.5 520.25 386.93 501.54 389.09 491.57 391.16 482.17 391.33 471.73 389.92 464.8 389.34 461.29 391.41 457.11 394.56 453.12 394.81 446.28 394.56 439.26 395.89 440.59 399.28 438.88 404.34 436.89 409.32 431.85 411.14 428.25 410.89 421.03 408.99 414.1 406.58 408.78 404.01 405.65 402.02 409.73 397.46 414.76 390.33 412.86 388.84 405.93 388.09 399.29 389 390.17 387.6 381.91 386.27 373.37 385.03 362.45 384.94 347.54 380.8 346.02 376.16 343.46 369.86 340.33 369.44 335.77 374.08 332.73 376.9 328.46 383.95 324 390 313.55 391.16 299.69 387.51 290.2 384.36 273.68 381.88 260.39 380.05 248.04 379.89 Z"/>
</g>
</svg>