<?xml version="1.0"?>
<svg xmlns="http://www.w3.org/2000/svg" version="1.2" baseProfile="tiny" fill="#f9c113" width="800" height="481" viewBox="0 0 800 481" stroke-linecap="round" stroke-linejoin="round">
<g fill="#c0392b" id="id_129">
<path d="M 190.7 1 322.4 69.58 417.72 78.67 486.04 94.87 591.7 97.14 604.36 117.03 620.02 113.34 620.36 129.82 665.35 97.99 716.34 66.45 734.01 91.46 774.34 98.28 799 143.18 783.67 149.71 755.67 154.26 737.01 170.74 731.01 187.79 707.01 187.51 699.01 198.59 691.01 219.05 682.35 245.2 671.68 260.83 651.35 268.22 643.69 284.71 643.69 301.48 625.36 310.57 602.69 297.21 578.36 292.95 562.03 285.28 547.03 317.39 512.71 310.86 489.38 332.74 505.37 335.59 517.04 347.81 496.37 365.72 489.38 383.34 482.38 404.66 486.04 428.26 510.37 449.29 414.39 480 390.39 461.8 355.73 458.39 350.39 426.55 354.39 409.49 403.72 384.48 337.06 351.5 229.08 335.59 327.73 232.13 286.4 215.07 106.43 217.35 27.77 205.98 1 199.27 109.15 74.42 190.7 1 Z"/>
</g>
</svg>