<?xml version="1.0"?>
<svg xmlns="http://www.w3.org/2000/svg" version="1.2" baseProfile="tiny" fill="#f9c113" width="800" height="581" viewBox="0 0 800 581" stroke-linecap="round" stroke-linejoin="round">
<g fill="#c0392b" id="id_179">
<path d="M 396.82 554.7 399.21 551.56 401.52 548.99 402.76 544.43 401.36 543.15 397.48 542.22 391.45 541.51 389.88 539.16 388.14 537.87 381.62 532.95 380.05 527.82 377.49 525.83 368.9 525.18 361.72 523.76 355.27 521.41 350.65 519.91 351.64 516.63 350.4 513.64 346.6 510.15 340.82 509.65 334.3 509.72 322.57 510.64 317.04 511.86 305.39 511.5 298.04 513.42 294.33 514.35 289.87 513.71 287.97 511.36 288.46 509.22 291.93 504.52 294.16 501.95 296.06 499.17 296.14 494.4 297.71 492.54 297.88 489.76 296.23 488.41 290.94 487.27 284.17 485.99 278.63 483.85 270.38 483.49 266.25 482.64 264.1 479.5 259.64 479.15 257.9 480.79 256.09 477.15 253.94 476.94 251.05 478.58 247.75 478.65 247 478.08 244.28 479.93 241.14 481.71 240.23 484.71 238.58 483.85 235.77 482.14 231.23 480.93 232.22 479.01 232.39 475.44 235.11 473.09 234.86 471.1 234.45 469.32 236.84 469.03 240.97 467.96 242.05 467.18 242.13 464.4 239.57 461.77 235.69 458.7 231.06 456.57 225.94 454.29 222.72 453.72 218.1 454.14 214.79 454 211.24 454.22 208.52 452.08 205.87 449.8 203.31 449.59 201.42 448.66 204.06 446.95 204.39 444.39 203.89 442.53 204.39 440.83 206.21 438.33 205.87 436.12 207.61 434.56 209.67 432.21 208.35 430.29 206.45 429.72 205.3 426.3 205.21 426.23 203.56 423.02 202.08 420.03 203.31 419.6 206.29 420.32 206.78 419.25 206.62 415.4 205.63 413.55 208.1 414.76 210 414.9 213.23 413.62 212.15 415.62 213.14 417.61 216.12 416.9 217.85 414.33 219.91 416.26 223.05 415.19 224.7 413.12 227.35 411.91 231.15 409.78 239.32 409.85 241.22 408.57 244.2 406.5 247.17 404.94 252.37 403.37 254.6 399.67 255.59 395.97 253.03 395.68 250.88 395.04 248.74 396.32 247.5 398.67 244.28 400.02 237.26 400.59 234.2 399.45 233.62 396.18 231.97 391.77 230.07 390.91 225.94 392.69 221.07 392.41 220.49 389.35 217.6 387.85 212.73 386.85 204.31 387.21 201.83 389.49 199.76 387.92 194.48 387.57 191.26 388.85 190.35 391.34 191.67 393.83 189.52 395.33 185.81 397.18 183.91 399.6 181.1 397.32 174.16 397.11 158.97 395.04 152.36 394.68 153.27 392.62 153.18 390.91 148.48 390.98 145.01 390.13 142.03 390.13 140.63 391.55 140.3 394.26 137.33 396.96 131.96 397.6 129.73 396.75 120.98 396.25 113.21 394.83 110.65 395.25 113.96 399.95 114.37 401.45 111.64 406.22 113.13 407.36 112.96 411.42 111.48 412.98 109 413.98 104.95 413.48 102.31 412.27 100.99 410.49 95.62 410.35 92.9 411.06 92.48 401.88 92.4 397.25 90.91 393.4 87.69 390.56 85.3 388.71 82.99 387.07 76.21 382.58 72.25 379.88 70.18 377.67 61.76 373.05 54.33 372.97 48.3 375.82 45.16 376.25 36.8 375.93 35.67 373.37 35.6 366.07 35.17 362.6 35.18 343.6 29.26 342 24.77 341.06 22.16 339.99 17.12 338.72 1.98 318.23 1 294.8 6.41 286.68 9.38 282.29 14.67 274.3 4.91 249.41 1.98 230.87 17.67 218.25 24.72 211.96 25.8 209.11 27.37 204.02 12.72 194.26 12.72 180.6 22 174.25 23.35 172.7 25.42 168.89 18.58 157.66 4.42 151.8 4.62 146.64 4.42 140.97 4.43 136.68 4.42 132.28 12.72 126.91 32.25 123.99 51.77 120.74 64 117.64 87.09 107.93 118.69 112.76 121.62 112.49 125.56 112.55 139.88 111.64 147.16 108.72 159.71 106.9 179.74 106.9 191.46 120.08 197.4 120.06 218.8 119.59 228.97 119.89 233.29 120.67 235.58 121.5 248.95 135.81 261.01 136.83 264.71 137.16 272.91 133.12 286.68 125.94 294.46 124.83 303.14 123.9 310.14 122.3 332.55 128.74 336.98 129.84 355.38 123.85 357.49 123.01 367.64 116.72 378.29 107.89 382.46 96.83 384.35 90.31 378.59 80.62 374.71 73.49 384.35 54.68 388.17 50.09 399 38.09 398.77 24.49 399.09 8.1 415.12 1.97 418.16 2.72 420.75 3.51 435.14 6.86 440.17 5.38 455.65 1 457.87 1.53 475.03 2.97 481.75 4.51 501.08 7.99 505.46 8.81 511.36 12.75 515.92 17.51 523.78 21.5 528.85 21.58 542.23 20.68 545.02 21.5 547.15 23.14 556.29 27.28 572.81 35.98 575.39 37.09 580.18 39.55 582.34 42.13 585.04 44.32 587.32 46.43 591.15 49.7 619.74 76.16 631.45 89.34 643.09 101.24 649.08 108.21 654.19 112.83 674.01 131.48 686.91 141.36 704.38 154.62 707.15 156.68 730.77 168.91 732.24 170.34 748.8 179.37 768.38 187.97 787.24 196.22 787.79 212.65 795.42 220.27 797.91 227.27 799 231.31 796.35 234.42 788.42 233.65 781.57 233.34 773.63 234.27 766.86 238.63 760.84 239.64 755.59 244.89 750.81 251.09 751.65 261.02 750.81 268.28 758.45 281.17 761.8 287.85 772.39 297.89 775.65 306 774.22 314.59 772.21 318.96 769.44 323.18 760.84 331.78 753.2 336.55 751.63 340.63 747.94 345.14 743.64 352.31 731.22 351.83 725.01 353.26 720.1 357.76 717.56 359.15 711.64 364.72 705.57 376.41 699.68 383.87 695.87 388.59 693.9 389.88 690.14 391.93 684.89 395.75 677.24 394.8 670.55 390.02 661 386.2 651.19 384.37 643.32 385.25 637.59 389.07 634.76 394.92 632.81 397.66 630.9 406.25 629.41 411.39 629.47 416.76 619.44 419.14 607.97 423.44 598.45 427.07 586.95 431.08 583.61 439.19 587.43 446.36 591.73 451.61 598.9 460.68 601.34 468.12 593.17 473.57 587.91 476.43 592.44 483.89 593.64 486.46 592.69 491.71 589.34 497.44 585.04 499.83 581.26 500.08 579.31 499.83 571.67 499.35 565.94 499.35 562.11 503.17 561.64 512.71 562.55 525.37 555.43 527.04 546.35 527.04 542.05 530.86 542.05 544.22 541.57 551.86 538.71 556.64 538.77 561.92 536.91 564.16 531.06 570 525.06 575.22 519.25 580 511.95 578.6 507.78 575.68 507.66 569.05 509.57 562.84 511 556.64 515.44 551.38 515.3 545.18 513.39 538.02 502.88 530.86 491.68 530.06 480.9 538.97 471.35 549.48 466.57 555.2 454.63 559.98 448.42 561.41 432.18 560.46 420.71 559.98 409.72 560.93 398.74 557.59 395.58 555.79 396.82 554.7 Z"/>
</g>
</svg>