<?xml version="1.0"?>
<svg xmlns="http://www.w3.org/2000/svg" version="1.2" baseProfile="tiny" fill="#f9c113" width="800" height="714" viewBox="0 0 800 714" stroke-linecap="round" stroke-linejoin="round">
<g fill="#c0392b" id="id_112">
<path d="M 360.37 258.1 360.38 258.1 360.38 251.42 358.64 249.31 349.11 238.04 352.57 232.1 354.06 229.5 351.21 219.59 349.92 218.08 349.86 218.09 347.3 215.06 342.33 210.62 339.06 209.47 334.49 205.36 330.06 203.21 327.96 201.62 325.91 200.71 323.92 199.24 321.32 196.86 319.24 193.55 316.93 190.35 316.14 184.5 316.35 182.62 315.8 181.24 315.77 179.63 316.12 177.27 312.93 173.58 338.36 149.25 348.94 148.19 356.82 135.9 363.77 131.21 383.47 156.51 392.08 159.25 402.96 152.88 406.9 157.3 410.22 153.85 417.38 164.47 415.62 176.77 406.9 180.75 421.84 204.56 431.38 196.24 432.1 185.18 437.91 176.24 437.81 169.43 447.76 171.11 463.11 164.56 444.03 154.74 442.37 139.79 448.07 133.24 445.69 126.96 450.35 122.54 473.27 119.89 479.18 122.1 486.13 133.6 494.32 137.93 516.93 162.79 527.71 180.13 550.94 190.13 554.26 195.97 561.42 195.27 559.03 185.62 566.39 185 572.31 175 566.19 161.82 561.31 146.33 565.15 133.68 566.5 124.48 555.3 118.03 551.98 110.16 558.41 105.38 569.51 112.37 576.14 105.56 563.18 98.04 555.09 97.69 551.05 93.18 554.88 79.21 561.94 74.08 563.59 53.92 561.42 41.99 558.62 39.44 562.33 37.1 568.98 34.21 572.93 32.73 584.47 32.15 597.16 31.57 607.54 28.69 617.92 30.42 625.41 33.88 632.47 28.48 635.25 26.37 637.98 22.41 638.2 21.91 638.68 21.19 642.72 11.96 644.78 6.79 645.03 6.19 652.52 2.15 663.48 1 668.09 10.23 673.86 25.23 680.78 29.84 687.7 35.04 688.85 44.27 691.74 54.65 704.47 56.96 707.86 55.65 716.53 52.34 726.91 50.03 738.52 46.56 741.27 45.78 743.35 45.2 743.29 45.22 745.08 53.03 745.15 53.07 748.92 69.47 747.27 72.74 741.16 84.97 733.45 93.97 718.02 97.83 710.31 109.4 698.74 115.83 689.74 126.12 685.89 141.54 687.17 153.12 698.74 164.69 709.02 156.97 724.45 156.97 745.01 160.83 750.16 178.84 751.53 179.38 763.01 183.98 781 180.12 790 191.69 795.14 204.55 795.14 214.83 784.86 223.83 778.43 228.98 791.29 237.98 799 241.84 796.43 259.84 788.72 268.84 781.02 283.27 769.16 283.27 760.17 294.65 767.36 309.62 782.93 334.18 785.73 338.5 782.62 341.01 773.91 347.55 773.91 350.39 779.89 356.62 776.94 357.55 769.76 365.33 767.43 364.08 766.53 363.49 765.38 362.98 761.97 361.14 744.01 360.54 727.24 373.12 723.34 374.86 723.44 375.1 723.28 374.88 716.46 377.91 716.2 377.97 716.18 377.91 696.8 377.91 696.78 377.88 683.54 377.88 679 379.77 670.35 383.3 664.96 394.69 653.58 398.88 639.81 406.07 639.21 415.03 643.51 416.68 643.5 416.69 651.79 419.85 651.19 433.02 641.01 447.4 640.75 447.7 640.77 447.72 635.91 453.39 630.83 459.38 599.93 459.38 600.05 459.68 599.99 459.6 599.9 459.38 599.69 459.38 582.88 464.7 568.02 465.32 551.8 468.3 538.43 469.04 538.43 469.13 530.82 469.56 525.43 464.17 511.66 472.56 494.89 477.35 478.72 479.75 448.78 493.53 435.6 501.91 433.51 507.79 427.02 523.88 424.25 530.6 412.85 536.06 404.84 536.86 404.84 536.79 400.86 537.16 395.1 528.11 393.69 525.87 392.09 526.62 384.77 529.98 384.73 530.06 384.7 530.07 378.72 542.05 366.74 555.23 350.65 561 350.64 560.98 343.41 563.54 337.72 565.03 330.16 567.13 319.39 570.73 307.77 573.23 305.06 573.8 304.87 573.88 291.41 578.64 292.12 579.46 285.89 582.18 276.31 594.16 276.31 611.53 273.32 622.32 261.34 629.51 251.68 625 251.68 624.98 247.93 623.25 243.38 621.12 237.06 616.2 232.59 612.71 215.88 612.09 191.24 613.33 172.79 622.25 166.97 624.03 166.95 624.06 152.95 628.31 148.83 627.99 139.77 627.27 139.76 627.29 137.38 627.11 111.63 628.31 87.08 634.3 78.7 648.67 64.92 655.26 56.54 666.65 53.55 684.62 45.76 690.01 33.19 693.6 23.01 702.59 6.24 713 1 699.91 1.71 689.31 6.19 681.34 8.11 677.99 2.54 668.94 2.65 665.3 4.53 656.83 10.18 656.12 12.3 641.99 18.14 632.16 19.18 630.29 19.36 629.99 30.65 619.39 51.13 603.15 61.72 597.5 63.13 584.79 63.08 584.74 63.09 584.72 56.07 577.7 56.5 573.44 56.9 569.86 57.52 563.55 67.37 547.36 84.31 525.46 101.96 510.63 112.55 513.46 120.32 513.46 123.89 510.51 132.62 503.76 140.09 508.51 148.56 510.63 164.09 510.63 172.56 506.39 174.67 501.28 174.65 501.24 177.5 494.31 193.1 494.31 197.43 489.97 197.44 489.99 201.51 485.91 212.1 473.2 224.1 458.37 231.16 452.01 241.05 449.89 242.45 442.18 242.5 442.04 244.6 431.54 253.05 435.06 266.47 427.29 275.64 415.29 291.18 411.05 303.85 401.9 305.34 401.2 313.06 397.63 320.07 393.32 322.24 392 322.61 389.4 322.98 382.71 320.88 370.82 329.3 365.87 334.24 357.38 339.07 347.29 343.41 340.47 343.41 326.4 343.42 326.3 337.77 315.71 333.54 303.7 338.48 288.16 343.62 283.32 347.13 280.16 349.11 278.3 350.84 276.19 353.63 272.86 360.37 264.86 360.37 258.1 Z"/>
</g>
</svg>