<?xml version="1.0"?>
<svg xmlns="http://www.w3.org/2000/svg" version="1.2" baseProfile="tiny" fill="#f9c113" width="800" height="605" viewBox="0 0 800 605" stroke-linecap="round" stroke-linejoin="round">
<g fill="#c0392b" id="id_127">
<path d="M 764.28 116.02 799 155.01 777.8 171.58 788.4 188.15 774.27 201.7 768.97 261.96 717.74 280.04 747.77 355.37 758.37 397.56 751.31 475.91 694.78 478.92 693.01 493.99 641.78 478.92 602.92 472.9 592.32 487.96 514.6 489.47 475.74 483.44 408.61 604 382.11 600.99 360.92 573.86 330.89 552.76 295.56 555.78 283.19 594.96 223.13 560.3 217.83 524.13 131.72 504.16 133.48 468 163.51 440.88 159.98 403.21 174.11 379.1 177.65 347.46 195.31 335.41 182.95 305.27 188.25 282.68 144.08 282.68 142.32 258.57 154.68 216.39 117.59 192.29 18.66 199.82 1 177.23 18.66 166.68 16.9 136.56 53.99 116.97 76.96 44.68 175.88 1 240.8 75.18 260.23 177.6 373.28 219.78 424.51 130.91 454.54 132.41 608.22 70.66 643.55 75.18 700.08 228.82 712.44 158.02 738.94 144.46 764.28 116.02 Z"/>
</g>
</svg>