<?xml version="1.0"?>
<svg xmlns="http://www.w3.org/2000/svg" version="1.2" baseProfile="tiny" fill="#f9c113" width="800" height="1111" viewBox="0 0 800 1111" stroke-linecap="round" stroke-linejoin="round">
<g fill="#c0392b" id="id_155">
<path d="M 650.69 678.78 652.14 684.23 647.78 686.67 646.77 689.1 644.98 692.51 642.96 695.23 647.44 698.44 649.57 702.43 654.49 705.35 655.16 708.08 658.86 710.51 659.53 716.36 663 720.74 665.13 717.62 668.48 714.21 682.92 714.6 685.05 723.66 690.09 720.74 699.94 718.59 701.17 716.74 707.88 715.19 720.87 711.49 732.17 704.48 740.57 702.14 740.23 708.18 744.15 707.89 744.38 711.29 747.62 714.12 746.05 715.77 743.48 726.67 748.52 727.16 752.77 731.44 757.7 729.21 765.87 728.82 770.34 732.13 776.95 738.45 785.12 740.99 788.14 744.78 787.69 748 789.37 751.31 793.85 752.18 797.32 750.72 799 758.03 798.78 764.26 795.87 766.5 786.8 764.26 782.66 762.7 785.68 772.63 785.12 792.5 782.1 794.54 780.08 796.59 781.99 799.61 780.19 801.75 775.94 800.68 765.31 796.1 759.6 794.25 757.25 797.76 761.05 802.33 762.51 806.52 763.63 809.93 769.11 810.52 772.7 811.68 773.14 816.26 768.78 819.48 764.86 819.18 760.49 816.55 758.48 816.55 752.77 812.17 746.95 810.61 750.53 815.97 753.33 820.84 742.36 821.23 740.75 823.57 737.15 822.06 706.14 830.28 702.35 840.41 702.35 864.46 704.88 872.68 692.22 877.11 679.57 891.67 669.44 905.59 670.71 915.72 650.46 904.33 640.33 899.9 630.84 911.29 609.96 928.37 601.1 923.94 584.01 917.62 566.3 911.92 547.31 912.55 515.67 923.94 490.36 940.4 488.46 948.63 484.03 966.98 484.67 987.86 472.64 994.19 467.58 989.76 451.76 979 443.53 972.67 430.24 980.9 417.59 990.39 408.1 1000.52 402.4 1008.75 380.89 1015.71 354.94 1022.67 349.25 1010.01 353.04 998.62 334.69 981.53 320.77 975.84 304.32 972.67 290.39 987.86 287.23 999.89 285.97 1014.44 284.7 1026.47 284.07 1039.76 273.94 1046.72 264.45 1051.15 253.06 1053.68 242.93 1053.68 234.08 1060.64 235.97 1071.4 243.57 1082.79 243.57 1093.55 235.34 1092.28 234.08 1110 222.05 1109.37 209.4 1091.65 195.48 1080.89 186.62 1060.01 181.55 1044.18 167 1029 155.61 1023.3 144.85 1022.03 129.66 1022.03 117.01 1025.83 101.19 1032.16 83.47 1032.16 72.08 1029.63 65.12 1044.82 64.49 1054.94 55 1062.54 42.97 1077.09 32.85 1069.5 32.85 1054.94 28.42 1042.29 21.46 1033.43 10.7 1020.77 1.21 1016.34 1 1016.04 1.03 1016.03 12.7 996.29 24.36 980.13 34.24 961.28 51.29 953.21 62.95 942.44 71.03 933.46 61.16 917.31 53.08 905.64 36.93 900.26 27.95 884.1 32.44 867.95 44.11 862.56 60.26 858.97 48.59 843.71 31.55 831.15 18.09 831.15 12.97 808.97 13.48 783.51 13.99 776.82 14.3 765.84 18.08 750.38 28.85 746.79 50.39 743.2 50.39 737.85 48.67 733.28 42.52 723.76 46.2 709.2 55.77 702.81 68.67 702.74 78.21 702.81 81.79 701.58 85.76 700.7 94.36 698.33 91.53 690.72 88.89 685.56 87.51 680.87 112.04 671.3 122.18 666.92 124.87 642.68 132.95 625.63 136.54 595.12 145.51 562.81 141.92 532.3 132.05 518.84 130.26 496.4 143.72 491.01 153.59 491.01 165.25 468.58 168.84 454.22 169.74 436.27 159.87 419.22 148.2 426.4 135.64 432.68 118.59 410.24 125.77 394.99 128.46 364.47 142.82 356.39 135.64 342.93 140.13 333.06 142.82 310.62 148.77 297.99 151.3 295.02 163.46 291.78 179.61 290.88 187.47 292.17 192.18 294.47 202.05 309.73 211.02 315.11 224.48 316.91 239.74 316.91 255.89 312.42 257.69 318.7 259.48 328.57 269.35 334.86 286.4 335.75 293.58 327.68 289.1 303.44 276.53 285.49 269.35 272.93 271.15 261.26 266.66 249.6 265.76 232.55 264.43 227.25 265.81 217.26 266.66 202.03 277.43 202.03 295.38 209.21 296.54 201.06 295.91 197.55 311.11 182.4 331.27 191.26 339.35 201.13 336.66 219.08 355.5 226.26 367.17 206.52 354.49 181.42 351.91 162.54 341.14 148.18 340.78 144.32 341.14 132.03 356.4 117.67 355.5 104.21 359.99 88.95 364.48 80.87 375.92 65.85 388.06 54.79 390.18 52.34 395.89 47.67 404.43 42.62 420.82 34.63 435.37 27.03 452.42 9.97 464.09 1.9 483.83 1 488.32 19.85 485.63 39.59 473.06 48.57 468.58 69.21 482.04 88.05 501.78 106 533.19 118.57 556.52 117.67 571.78 123.05 590.62 130.23 594.61 134.05 597.63 141.81 594.61 148.99 590.69 160.83 588.56 171.51 588.9 179.18 587.33 185.58 582.52 185.29 583.19 179.57 573.23 179.57 574.46 183.16 573.11 184.61 566.51 183.45 563.26 186.07 556.66 186.07 550.06 183.55 547.93 187.53 546.36 195.29 542 197.14 541.44 204.13 544.01 208.01 548.26 208.59 550.95 211.31 555.43 211.99 557.22 213.93 566.06 213.74 566.85 206.16 568.41 205.1 571.88 206.26 572.55 208.79 573.23 217.52 574.12 226.65 573.11 232.28 561.7 232.28 560.02 235.68 561.59 239.27 561.36 247.43 557.67 251.12 552.29 252.77 549.83 256.85 548.82 262.48 542.33 263.45 541.88 267.82 537.97 269.09 535.39 272.58 525.32 273.36 521.18 275.4 517.15 276.56 512.78 277.53 511.77 282.29 506.4 286.28 508.64 289.48 506.29 293.85 511.33 295.41 513.23 300.55 518.6 300.55 518.94 304.63 521.74 307.45 521.85 315.61 519.83 317.84 519.39 320.18 519.05 324.84 510.65 325.62 505.84 326.98 503.04 332.9 502.37 338.54 507.41 339.22 507.3 349.13 492.41 349.42 487.82 352.53 488.49 357.97 478.86 359.33 473.49 360.01 473.94 364.96 475.73 368.36 479.87 368.56 483.12 370.31 484.01 382.75 486.59 385.56 489.27 387.9 491.85 393.82 495.54 394.8 512 395.77 515.8 392.75 517.37 390.13 522.97 389.35 523.53 384.3 527.44 383.33 536.06 382.75 537.07 377.5 545.02 376.82 547.82 378.86 551.96 379.73 555.76 382.94 565.61 383.33 564.83 385.95 566.06 397.81 568.08 400.92 570.99 406.75 570.99 411.22 568.3 412.39 561.47 413.16 550.39 409.86 545.47 411.71 545.13 405.29 537.52 405.58 528.12 409.08 527 411.8 526.77 419.68 526.1 424.63 528.45 429.01 525.77 431.92 528.23 434.45 533.83 433.96 533.71 443.2 530.47 449.13 533.27 454.47 533.71 460.5 526.1 458.56 509.54 459.34 509.42 462.25 510.09 472.65 511.33 483.84 510.43 491.81 511.66 495.02 517.71 496.57 525.32 502.89 525.32 511.16 526.89 517.48 528.79 525.45 532.71 529.83 536.18 534.11 538.86 536.05 541.44 535.08 541.66 541.89 544.46 545.29 546.47 543.74 553.64 542.76 560.58 544.03 562.59 539.56 573.45 538.97 579.16 535.37 579.94 526.33 582.96 523.41 586.99 519.62 586.66 517.19 588.9 515.05 595.84 519.42 603 526.33 611.51 532.16 616.88 534.98 621.25 536.05 624.72 537.32 627.63 538.58 631.1 534.98 636.25 534.98 641.95 535.28 646.21 535.96 645.98 538.87 647.44 540.43 651.92 541.31 654.04 543.15 656.95 544.42 659.53 545.49 663 548.79 663.78 550.45 665.69 553.76 668.6 554.63 674.53 553.37 679.12 554.53 678.11 558.72 678.89 563.87 682.92 567.86 685.83 573.7 685.27 578.85 679.01 580.12 672.29 580.31 669.15 582.84 670.5 585.17 673.86 588 679.45 592.67 681.8 596.46 679.68 600.93 679.79 604.24 680.8 608.62 679.9 614.07 678.11 620.59 672.62 622.44 667.81 619.81 666.02 626.33 659.75 631.1 660.2 635.28 659.53 640.15 661.21 643.55 662.33 653.19 662.77 660.58 658.97 662.43 658.41 665.55 656.62 667.49 656.06 671.09 653.32 673.09 650.69 678.78 Z"/>
</g>
</svg>