<?xml version="1.0"?>
<svg xmlns="http://www.w3.org/2000/svg" version="1.2" baseProfile="tiny" fill="#f9c113" width="800" height="722" viewBox="0 0 800 722" stroke-linecap="round" stroke-linejoin="round">
<g fill="#c0392b" id="id_123">
<path d="M 363.46 129.09 396.88 172.05 480.87 113.15 495.38 76.01 443.05 41.88 467.24 36.25 468.56 30.25 482.63 26.88 486.59 20.13 514.73 14.5 520.01 18.25 527.05 21.25 525.29 32.13 536.72 34.38 536.72 24.63 545.96 7.75 555.63 1 561.35 2.88 557.83 8.88 551.67 21.63 571.46 52 571.46 57.63 621.15 41.88 623.79 53.13 615 71.51 607.08 69.26 597.85 69.26 593.01 70.01 586.41 76.01 583.77 80.88 592.13 85.01 588.17 92.51 577.18 96.64 585.53 113.52 562.67 122.9 561.35 130.78 534.52 117.27 518.69 136.03 509.9 140.53 515.17 147.29 523.97 148.04 534.52 137.16 535.4 149.54 542.88 154.42 544.2 159.3 553.87 145.79 563.11 148.04 572.34 167.55 583.77 174.31 596.53 178.06 596.97 190.44 590.37 191.57 575.42 213.34 586.85 215.21 619.83 230.98 634.34 225.72 638.74 230.23 644.02 220.09 649.3 219.72 656.33 225.35 663.37 218.22 673.48 221.59 680.52 228.35 683.6 250.87 691.07 255 690.19 263.64 698.55 265.51 688.87 279.03 687.55 292.54 693.27 298.93 708.22 291.42 714.38 293.3 736.36 285.79 746.48 272.65 750 276.02 757.47 274.9 764.07 280.15 772.42 281.28 780.34 284.28 781.22 292.92 790.89 293.67 799 293.39 798.35 300.09 798.02 300.96 797.35 302.38 796.63 302.53 794.85 305.03 794.02 305.94 793.67 306.6 793.23 308.02 793.52 309.85 793.46 311.63 793.2 313.97 791.41 316.04 790.13 317.6 788.94 319.24 788.63 319.89 787.33 323.82 786.41 325.7 785.75 328.24 785.11 329.42 784.62 330.61 783.75 330.56 780.45 333.77 779.91 334.21 778.11 336.26 776.7 337.44 776.25 338.38 775.68 340.71 775.49 342.94 775.06 344.96 775.3 346.08 775.42 348.46 775.07 352.21 774.88 353.47 774.76 354.5 774.75 356.17 773.89 360.91 774.43 364.84 774.21 366.82 773.82 369.19 772.29 373.97 770.81 379.03 769.92 380.67 767.4 381.71 767.59 383.36 760.39 386.71 760.38 387.6 757.72 388.77 756.78 389.35 755.66 389.73 754.01 390.8 755.51 393.28 753.08 394.07 749.81 394.19 748.56 394.33 747.27 394.69 744.82 395.16 743.12 395.2 741.64 396.26 740.75 396.74 740.39 397 739.81 397.6 739.07 401.61 737.42 401.57 735.92 400.26 734.8 399.59 733.25 399.52 728.99 400.48 727.94 400.63 725.11 401.29 724.03 401.78 722.34 403.33 718.39 405.67 717.39 406.1 716.05 406.62 714.15 407.11 713.57 407.41 712.12 408.19 709.48 409.13 709.01 409.35 707.46 410.31 704.45 411.79 702.35 412.12 700.59 412.82 699.31 413.22 698.16 413.31 696.12 413.6 694.07 415.16 693.14 416.38 692.16 417.31 690.97 418.64 690.7 421.16 690.69 422.57 689.58 424.49 689.12 424.87 688.76 426.51 687.84 426.48 687.06 428.92 687.35 430.68 687.17 432.8 687.62 434.28 688.39 436.41 690.01 436.56 693.1 437.13 694.14 437.71 694.38 438.01 693.96 438.76 693.56 440.11 692.31 441.98 692.21 442.81 691.28 444.01 630.18 434.42 603.37 446.61 577.78 456.36 559.5 464.89 550.97 433.19 538.79 421 521.73 419.78 497.35 419.78 487.6 446.61 462.01 449.05 458.36 461.24 449.83 501.47 444.95 523.42 427.89 546.58 427.89 567.31 421.14 596.59 420.64 598.91 420.58 599.01 419.55 604.73 420.94 613.85 420.84 619.34 420.58 630.32 421.05 635.19 421.88 642.72 423.17 653.43 421.98 658.29 416.13 663.25 416.13 669.67 410.49 671.4 410.33 688.49 405.93 687.96 405.26 698.32 398.21 699.74 399.3 709 380.87 714.13 358.61 721 359.18 708.86 351.31 711.3 352.5 700.8 343.33 700.94 347.37 691.19 354.2 691.15 352.86 687.39 354.72 681.19 350.79 679.9 355.04 669.7 357.32 664.61 357.42 660.09 354.83 651.06 357.89 650.97 369.69 647.56 371.76 637.95 370.62 632.82 368.34 633.35 363.43 633.3 356.49 633.66 347.37 636.05 340.8 639.28 329.25 645.83 326.51 652.82 323.71 655.17 306.63 656.89 292.34 659.68 283.22 659.37 245.12 660.12 237.66 662.07 230.31 667.3 221.66 672.88 213.17 677.26 208.82 676.33 200.74 671.46 193.29 668.09 179.15 663.36 154.35 666.15 132.24 670.75 85.44 690.55 55.35 668.36 32.57 658.93 22.98 654.74 8.92 625.54 1 622.53 4.52 602.98 10.23 597.34 13.75 588.69 20.35 586.06 40.58 579.3 45.41 563.13 49.81 549.97 52.01 544.34 79.6 549.13 87.08 550.63 98.07 546.87 98.51 546.5 123.58 549.5 124.46 539.36 120.06 517.18 100.27 499.89 101.59 485.24 108.19 490.87 113.03 482.98 121.38 480.35 132.81 484.11 139.85 480.73 146.45 482.98 147.77 492 170.63 501.4 171.07 491.63 165.79 474.34 167.99 470.96 175.47 472.46 201.85 452.17 200.09 440.52 204.93 436.39 205.81 428.5 211.53 425.12 227.8 427.37 226.92 417.61 227.8 413.47 223.84 402.96 232.64 395.82 231.32 371.78 224.28 372.16 218.56 367.27 214.17 368.78 209.77 359.01 199.22 357.51 192.18 336.1 186.9 331.6 187.78 324.46 181.63 318.83 184.26 310.57 193.5 312.82 197.9 295.17 208.89 305.31 214.17 318.08 230 334.6 244.51 333.1 244.95 350 251.55 353.38 249.79 362.77 250.67 366.15 253.74 371.78 262.98 370.65 266.06 379.67 273.97 386.43 272.21 395.44 290.24 401.45 295.08 399.2 316.63 409.34 325.86 410.85 330.26 416.86 345.65 411.22 348.29 407.09 338.61 399.95 338.61 396.2 321.46 384.93 326.3 360.89 321.46 356.76 328.06 348.12 330.7 341.74 314.87 331.97 322.34 324.09 327.62 323.33 331.58 306.06 320.59 283.91 322.34 267.39 306.51 267.77 299.48 264.39 294.2 258.38 293.76 249 284.53 246.74 277.05 250.5 270.89 245.62 266.06 249.75 248.47 244.87 246.71 242.24 248.03 235.86 243.19 233.23 236.59 220.47 234.4 216.71 237.91 210.71 237.91 205.45 253.52 196.64 304.53 205.83 304.53 171.12 309.81 166.61 302.56 161.17 317.95 146.35 322.56 151.98 328.94 151.23 338.4 160.23 346.75 155.73 354.89 140.72 363.46 129.09 Z"/>
</g>
</svg>