<?xml version="1.0"?>
<svg xmlns="http://www.w3.org/2000/svg" version="1.2" baseProfile="tiny" fill="#f9c113" width="800" height="738" viewBox="0 0 800 738" stroke-linecap="round" stroke-linejoin="round">
<g fill="#c0392b" id="id_137">
<path d="M 785.44 183.92 778.35 196.37 799 197.43 789.45 206.17 794.99 221 764.17 221.53 750.61 232.92 732.42 239.81 719.17 240.34 690.2 254.12 672.01 271.87 694.51 270.01 709.31 277.96 725.03 276.37 740.44 265.77 740.13 281.14 748.45 293.07 763.25 292.8 763.55 307.38 778.35 314.8 767.87 330.44 759.55 326.46 730.27 324.08 729.96 334.68 733.04 346.61 719.48 345.28 717.94 334.41 707.46 329.91 708.69 319.83 696.36 312.68 688.04 314.8 679.41 342.63 656.29 343.69 628.24 363.84 620.84 380.28 608.21 378.95 610.06 359.07 605.43 356.95 596.49 362.78 583.24 365.43 565.36 354.56 528.68 372.85 537.01 392.48 551.49 392.74 550.88 399.11 549.34 410.78 549.95 421.12 561.67 427.48 564.75 434.65 571.53 439.95 578.62 428.81 577.69 416.34 581.08 398.05 596.19 421.38 609.75 425.89 619.3 440.48 611.29 456.93 601.12 468.34 573.07 463.83 562.59 474.17 572.76 481.07 571.84 500.97 558.58 501.24 542.25 512.38 526.84 504.16 527.45 487.18 534.23 475.24 521.29 475.5 499.71 448.97 475.05 455.07 469.2 443.93 473.2 427.48 468.89 415.28 470.74 400.96 464.88 398.84 450.7 384.26 435.52 400.03 430.59 407.39 434.75 419.26 444.77 423.24 448.7 429.74 437.14 435.51 439.38 451.16 434.06 464.22 439.45 477.16 434.37 494.07 443.54 500.24 453.25 508.27 436.29 526.78 438.45 561.49 444.69 568.39 451.94 567.2 460.95 572.04 463.49 562.48 479.06 568.26 478.75 558.7 487.07 558.97 487.38 550.21 499.1 550.61 507.96 576.75 500.1 584.99 484.07 589.03 473.9 606.1 459.72 603.97 459.8 627.61 449.7 627.41 439.68 636.84 432.44 631.19 423.81 612.47 411.4 600.85 383.9 593.35 386.13 605.36 395.45 613.2 397.69 636.3 370.02 639.89 399.46 663.73 394.61 676.95 412.64 678.81 421.42 667.58 432.36 673.29 440.69 689.03 437.99 711.42 453.4 715.34 460.95 721.59 473.74 702.19 482.68 700.46 498.09 703.32 491.39 715.67 497.55 730.02 482.76 736.27 472.2 729.89 466.65 736.67 458.41 737 445.69 727.23 428.13 727.63 419.5 735.94 407.86 722.25 398.23 723.45 386.13 715.34 379.5 728.3 368.33 728.89 356.08 723.51 338.28 723.25 323.41 715.14 323.79 698.6 319.78 693.55 329.26 685.71 327.87 657.49 313.62 644.47 292.04 644.87 281.64 647.59 269.16 633.91 268.46 622.1 271.7 612.4 253.13 614.13 245.27 619.24 230.86 643.41 215.29 662 202.12 679.6 194.74 687.44 186.79 683.11 170.02 678.91 154.93 671.36 147.12 674.12 147.15 674.03 140.88 676.17 126.61 680.63 113.23 680.63 100.81 679.37 88.1 678.11 88.07 678.09 87.87 678.07 69.43 668.85 62.72 656.27 49.31 645.37 37.57 642.01 36.73 625.23 28.35 619.36 22.56 620.19 16.3 624.04 11.61 626.85 7.39 629.43 1.52 616.01 2.22 614.72 7.38 604.92 9.9 590.65 11.16 588.71 20.77 573.08 35.03 559.78 32.54 547.22 21.64 527.94 8.23 522.07 11.79 504.29 11.79 491.29 14.25 480.67 2.85 473.51 1 459.45 3.77 452.29 13.64 457.06 29.36 455.47 48.16 459.18 39.84 446.98 40.14 439.55 48.16 441.68 52.17 436.9 49.08 432.13 50.32 418.07 61.72 410.11 77.44 422.58 82.99 418.6 93.78 423.37 108.88 419.39 95.32 412.76 94.08 401.89 101.17 400.3 103.64 407.73 116.89 401.36 125.22 402.42 136.31 417.8 147.41 398.44 139.39 394.73 137.54 383.33 148.95 380.68 145.87 368.21 154.81 366.89 160.97 372.19 178.85 369.01 202.89 345.15 196.72 340.38 214.29 332.69 221.38 319.97 231.55 316.12 228.78 298.37 238.33 299.69 244.5 284.06 247.58 274.52 259.91 268.42 276.56 268.42 279.64 258.09 291.66 257.03 315.08 242.72 327.1 253.32 337.28 246.17 338.51 255.97 346.21 250.41 358.24 251.47 363.78 244.84 375.5 249.61 374.57 236.1 382.59 226.03 376.42 216.76 371.49 198.49 377.65 196.63 358.85 177.04 358.24 166.71 367.79 159.83 368.1 151.62 361.93 141.29 361.32 122.76 353 109 342.21 110.32 332.96 101.06 320.94 111.38 300.6 91.26 471.86 1 492.24 18.39 508.24 23.93 562.38 12.24 580.22 44.24 601.14 70.71 613.45 89.8 612.83 115.03 618.99 127.96 642.36 129.81 670.67 130.42 682.97 138.43 694.05 137.81 706.97 137.19 719.89 137.19 728.5 130.42 730.35 124.27 738.34 124.27 754.96 132.27 761.11 133.5 761.73 148.27 764.8 160.59 774.03 164.9 783.87 169.2 785.44 183.92 Z"/>
</g>
</svg>