<?xml version="1.0"?>
<svg xmlns="http://www.w3.org/2000/svg" version="1.2" baseProfile="tiny" fill="#f9c113" width="800" height="906" viewBox="0 0 800 906" stroke-linecap="round" stroke-linejoin="round">
<g fill="#c0392b" id="id_165">
<path d="M 91.78 252.06 113.18 246.34 118.14 246.34 121.06 245.17 123.4 244 128.07 244 131.57 243.42 132.45 248.09 134.79 250.43 139.46 250.43 140.34 247.51 141.21 243.71 146.18 241.96 150.27 244.29 153.48 241.96 155.52 240.79 157.86 239.04 162.24 238.16 165.16 233.19 173.05 229.98 178.59 226.47 182.1 224.43 184.73 220.63 188.23 217.42 191.74 213.62 194.95 210.4 197.29 207.77 200.21 206.02 199.49 209.86 203.95 211.16 206.42 211.59 208.15 211.59 210.63 208.99 212.61 205.97 218.31 207.91 220.54 211.81 224.25 218.73 241.09 220.46 257.92 210.94 268.82 208.34 281.7 210.94 292.59 209.21 299.52 206.61 324.29 206.61 336.11 191.26 351.37 191.26 363.39 192.47 383.73 191.26 390.89 191.04 392.38 191.04 395.84 191.69 400.05 193.64 403.03 193.2 405.75 192.56 406.74 189.31 405.5 186.29 404.02 182.61 402.53 178.72 399.31 172.88 399.06 172.45 397.83 171.37 395.6 168.99 394.37 167.61 403.15 160.58 433.66 166.63 435.51 165.82 442.45 148.88 455.85 141.21 473.89 151.7 487.75 147.67 497.46 140.41 530.29 133.15 502.09 112.98 518.27 107.74 530.29 111.37 530.29 103.31 528.9 102.91 533.06 92.02 522.89 69.06 533.99 66.64 539.54 69.46 542.77 74.9 549.71 77.32 550.63 75.1 559.42 68.45 563.58 70.67 567.97 71.47 575.14 68.05 577.68 68.45 583.69 67.45 595.71 62.01 598.71 59.19 600.56 55.36 606.34 51.54 610.04 51.14 612.12 48.32 613.74 44.49 618.13 41.88 626.92 43.08 631.54 44.29 635.7 46.71 640.32 48.52 644.02 50.53 656.04 47.91 662.05 43.28 667.37 39.26 669.45 35.43 674.3 31.61 679.62 28.79 687.48 23.56 691.41 18.53 698.58 20.34 704.13 24.16 712.91 22.55 717.3 18.93 724.47 12.69 727.31 1 729.9 2.23 734.06 4.04 736.72 5.85 738.11 7.77 739.84 10.28 740.76 13.8 741.23 17.93 739.38 20.04 737.76 21.35 739.49 22.15 741.92 24.97 742.96 27.18 743.31 28.39 742.38 31.21 741.11 33.12 738.92 35.13 736.6 36.84 732.21 37.25 730.82 38.65 733.25 39.66 737.64 41.37 739.72 42.68 741.23 44.19 743.65 45.4 743.65 47.11 747.12 49.73 744.58 51.74 740.88 50.13 746.43 58.38 752.44 61.41 770.01 76.31 773.24 82.55 760.53 79.53 751.51 76.31 750.36 70.67 744.35 73.49 740.65 76.71 746.2 81.75 745.5 83.16 742.96 84.17 735.56 73.49 732.33 75.7 729.32 78.53 731.63 81.14 726.09 82.55 727.93 83.96 724.7 88.6 730.94 94.24 730.02 100.29 731.4 101.9 733.25 103.71 738.57 105.32 739.96 104.12 740.65 102.3 767.93 113.59 758.91 134.15 759.84 146.66 770.93 144.64 782.95 144.24 789.42 149.08 789.42 157.55 793.12 152.31 794.97 161.18 798.27 167.82 799 173.94 792.64 172.47 789.21 172.71 786.52 173.69 785.54 179.08 783.1 183.97 776 184.46 769.15 186.42 763.04 186.42 753.74 186.17 746.16 184.95 740.04 185.19 733.68 185.93 728.79 188.87 724.14 187.15 719 183.97 714.6 177.85 714.6 172.71 709.95 170.51 707.5 171 703.1 171.49 699.67 175.4 694.05 177.36 689.15 176.14 683.77 176.63 680.35 176.63 679.12 179.81 680.59 183.48 681.57 186.66 676.68 186.17 674.23 189.35 676.92 192.05 680.83 194.49 680.59 198.9 676.92 202.08 674.47 204.77 673.25 208.69 676.43 211.38 679.37 214.81 680.35 217.26 676.43 224.84 679.12 227.78 682.3 228.03 682.79 231.21 681.32 236.1 680.1 240.26 680.83 242.22 685.97 241.73 688.17 241.73 690.38 242.96 691.35 249.81 691.6 256.42 694.29 260.09 697.47 259.84 699.18 256.91 701.63 252.01 702.12 249.81 706.03 249.81 708.72 250.3 710.68 247.36 710.44 241.98 708.72 236.1 710.68 235.37 714.84 239.53 719 242.96 724.14 246.14 728.05 249.56 734.66 258.37 739.55 267.19 745.91 275.51 751.29 285.05 756.43 295.33 758.14 301.94 759.61 308.55 760.84 318.83 762.06 326.66 767.69 337.18 771.11 346.97 774.78 355.54 778.45 363.37 784.81 374.88 790.49 382.44 790.91 383.05 784.19 386.68 772.65 391.12 770.67 391.87 768.64 392.66 764.94 394.07 763.61 394.59 759.17 396.28 755.96 397.49 750 399.5 745.65 401.44 742.76 404.21 740.83 406.1 738.72 408.19 733.16 414.2 730.34 416.9 728.94 418.24 726.41 420.82 725.1 422.17 723.89 423.39 721.47 425.81 720.6 426.68 715.79 432.46 714.41 434.08 713.21 435.49 710.62 438.5 708.06 441.48 705.38 444.39 702.76 447.38 700.28 450.39 699.06 451.68 697.57 453.26 695 456.25 692.39 459.17 691.23 462.78 689.65 467.71 688.38 471.72 687.33 475.2 686.74 477.27 686.15 479.2 685.06 482.97 682.65 491.07 681.44 494.54 679.63 499.65 677.99 504.16 677.51 505.39 677.06 506.74 675.93 510.35 674.48 513.88 674.19 514.71 673.23 517.44 671.94 521.01 668.92 529.5 668.12 531.71 667.61 533.13 666.85 535.26 665.58 538.82 665.32 539.58 662.73 546.83 658.34 559.28 656.85 563.73 654.07 572.1 652.1 578.07 650.35 583.33 647.8 591.09 645.17 599.31 644.95 599.77 638.18 607.42 637.24 608.39 630.35 615.57 624.12 622.12 622.86 623.47 622.26 624.12 616.85 630 612.94 634.49 607.27 641.02 599.16 646.94 593.75 650.75 589.55 653.74 586.68 655.91 583.88 658.05 579.96 660.97 578.07 662.38 575.4 664.3 566.76 670.62 564.91 672.01 561.08 674.87 557.14 677.82 542.08 689.14 541 690.49 534.99 698.04 533.2 700.24 517.94 719.46 512.74 726.02 511.78 727.24 509.31 730.33 502.86 738.5 501.22 747.41 500.18 753.07 499.78 755.19 498.24 763.53 497.33 768.47 495.39 778.98 494.68 782.88 494.3 785.04 493.39 790.36 492.42 795.95 491.7 799.93 490.68 805.82 490.21 808.47 489.59 811.91 488.96 815.44 488.29 819.18 488.28 821.05 484.89 821.05 480.24 822.15 478.42 822.79 477.06 823.28 475.21 823.96 473.96 824.42 473.49 824.59 471.52 825.3 467.11 826.92 462.86 828.5 461.15 829.15 457.6 830.47 455.39 831.3 452.94 832.21 451.88 832.61 450.59 833.1 449.94 833.33 447.57 834.19 445.45 834.95 442.78 835.93 440.59 836.71 433.6 839.25 425.9 842.05 424.33 842.6 421.1 843.77 418.96 844.55 416.99 845.25 410.82 847.53 404.41 849.91 401.82 850.85 396.52 852.81 394.43 853.59 384.28 857.38 379.2 859.31 376.74 860.24 373.89 861.33 369.96 862.82 362.34 862.89 362.07 862.89 358.98 862.94 336.06 863.18 328.92 863.29 308.6 863.63 304.92 863.69 301.3 863.75 284.06 864.64 283.04 864.7 278.78 864.89 275.63 865.04 271.92 865.06 266.81 865.06 258.27 864.66 256.27 864.76 249 865.04 243.94 865.14 237.04 865.24 234.55 865.28 225.55 865.51 224.54 865.63 222.02 866.11 205.76 869.84 196.8 871.79 192.97 872.62 179.51 875.5 149.16 881.86 142.67 883.23 140.34 883.62 138.55 883.9 135.11 884.46 134.15 884.85 118.52 891.19 111.17 894.01 109.33 894.67 107.04 895.48 104.42 896.74 99.72 899.04 92.98 901.86 90.97 902.72 88.42 903.82 85.72 905 85.66 904.83 81.88 890.65 77.94 870.97 76.19 858.29 75.32 844.29 67.01 826.36 65.7 812.8 60.02 789.19 47.78 755.07 47.78 742.39 41.22 729.71 32.48 719.65 26.79 708.71 19.8 692.97 16.74 677.23 13.24 661.48 13.24 650.55 14.55 634.8 15.86 621.25 12.8 599.82 7.56 572.26 4.06 545.59 1 521.53 7.56 497.91 13.24 480.86 14.99 468.17 21.11 446.75 28.98 429.69 38.16 413.94 43.41 401.7 50.84 389.89 58.71 365.4 59.14 352.72 61.33 342.66 54.77 338.28 51.27 329.97 55.65 329.1 57.83 323.85 57.39 316.42 58.27 308.11 61.77 299.36 56.52 293.24 48.65 288.43 52.15 285.8 59.58 279.68 59.14 266.56 74.88 254.75 91.78 252.06 Z"/>
</g>
</svg>