<?xml version="1.0"?>
<svg xmlns="http://www.w3.org/2000/svg" version="1.2" baseProfile="tiny" fill="#f9c113" width="800" height="596" viewBox="0 0 800 596" stroke-linecap="round" stroke-linejoin="round">
<g fill="#c0392b" id="id_151">
<path d="M 238.11 221.99 240.32 219.13 242.25 214.47 239.21 211.85 233.97 211.61 235.62 207.49 236.18 203.61 238.73 201.22 240.59 199.43 241.7 192.87 242.94 188.27 253.85 189.41 260.06 192.27 262.82 195.2 272.55 197.4 278.01 198.48 281.53 199.13 287.6 195.91 293.47 194.96 296.64 195.55 301.34 195.91 307.2 195.37 311.28 193.94 311.97 190.66 311.69 188.81 313.69 187.56 315.28 187.38 316.66 185.29 317.35 182.6 318.46 181.35 322.8 180.1 322.94 177.71 323.22 173.71 320.6 171.03 318.94 168.52 319.97 166.02 318.59 163.45 316.59 161.6 316.73 158.68 317.42 156.47 315.07 153.31 314.11 150.44 314.59 147.88 311.14 145.25 308.86 141.79 309.83 136.54 307.24 134.68 311.1 132.05 314.69 128.59 318.01 126.09 321.32 122.51 328.22 118.45 334.16 115.35 336.51 112.49 333.88 106.64 330.57 103.3 325.05 99.6 325.6 96.86 349.76 98.17 364.39 101.99 380.96 101.27 390.21 102.35 398.49 102.94 402.36 105.09 417.54 104.38 420.99 103.54 424.58 108.19 426.79 109.39 428.73 105.69 432.04 105.93 434.25 106.28 443.5 102.71 443.5 105.81 441.98 109.15 448.61 110.7 453.71 110.22 455.78 108.43 457.58 104.14 463.79 100.2 465.72 97.34 466.28 94 472.21 94.83 478.15 97.58 482.15 95.19 486.29 95.79 490.44 96.5 492.78 99.84 494.03 97.1 505.21 96.02 512.94 94.59 523.29 92.57 535.86 91.49 543.31 92.92 550.49 97.81 557.39 92.09 558.77 88.87 565.26 87.08 570.65 86.48 575.75 88.75 583.21 92.45 592.6 94.59 600.47 95.91 601.57 93.28 600.05 89.58 600.33 81 599.22 76.7 595.36 72.65 595.91 70.26 599.36 67.16 598.39 61.2 602.4 59.77 605.85 55.95 606.13 50.94 605.71 46.17 602.95 42.47 609.58 24.35 611.51 18.27 615.1 14.09 616.07 9.09 618 3.72 620.72 1 622.02 3.33 631.7 11.23 644.64 14.65 646.5 13.94 649.99 12.66 658.6 9.43 669.73 5.13 680.12 6.38 684.3 6.85 691.47 7.71 694.51 10.1 703.61 17.32 701.27 26.29 699.3 33.65 700.2 53.74 686.03 72.57 681.09 75.39 682.39 76.29 685.13 77.82 686.29 78.49 686.29 78.47 695.9 83.87 712.21 84.95 742.69 84.05 773.69 81.18 773.36 81.74 777.32 81.45 789.46 100.53 799 121.35 785.13 136.96 774.72 147.37 766.05 156.92 765.18 171.66 763.45 180.34 761.71 192.48 749.57 192.48 740.9 196.82 740.9 213.3 737.43 227.18 731.36 234.12 727.89 247.14 716.08 258.64 714.01 262.75 688.87 274.03 670.65 297.45 658.51 315.67 651.58 333.89 657.65 352.1 655.91 367.72 646.19 379.39 642.17 384.53 633.36 398.95 627.29 413.69 616.02 423.24 607.35 434.51 600.41 452.73 597.81 475.29 583.93 472.68 570.93 481.36 567.46 476.15 557.92 478.76 547.51 490.9 537.11 498.71 515.43 500.44 493.75 516.93 487.67 528.2 470.33 532.54 457.32 537.75 441.71 536.01 425.88 535.5 420.9 536.01 415.7 544.69 411.36 556.83 398.35 554.23 393.15 568.98 384.48 581.12 370.6 595 360.2 591.53 354.99 586.33 345.45 581.12 335.05 577.65 319.44 580.25 317.97 575.81 315.56 571.74 316.18 566.3 317.7 561.58 316.66 558.53 314.24 554.16 313.69 548.72 314.45 545.43 316.59 541.6 319.49 539.75 319.7 536.52 317.7 532.63 315.49 529.41 316.52 522.71 317.49 518.4 319.7 516.37 323.08 510.45 322.39 507.46 319.28 505.79 316.73 506.63 309.27 507.58 300.3 511.65 296.09 511.59 290.64 512.61 288.64 515.65 287.74 519.42 281.73 522.11 279.52 527.55 276.14 528.45 273.31 529.82 272.14 532.75 273.45 537 270.62 543.4 270.07 551.95 266.69 555.66 264.48 558.53 264.41 562.95 263.1 565.22 260.2 566.66 259.99 562.77 257.57 558.23 252.67 552.25 250.74 549.2 249.43 545.91 246.87 541.06 247.01 538.97 244.94 537.36 241.15 536.82 241.28 534.97 240.87 530.24 240.59 525.7 240.11 521.69 242.11 513.44 243.63 513.14 247.56 512.31 248.53 510.03 252.05 509.38 257.09 510.75 260.89 511.65 264.41 512.78 266.82 510.39 268.69 508.66 270.96 508.06 275.8 507.64 280.01 507.58 283.11 506.15 283.87 502.68 285.67 497.42 285.81 495.93 286.77 493.59 288.15 491.02 287.32 488.81 284.56 485.41 283.73 479.97 283.6 477.4 283.87 474.41 287.53 474.95 290.84 473.81 291.81 469.69 291.26 464.55 287.6 460.42 288.84 459.58 293.33 459.46 297.61 459.41 301.54 457.67 304.79 455.58 308.79 452.11 311.21 451.1 313.76 445.18 310.66 442.25 307.41 440.04 305.62 436.16 304.51 432.63 301.54 428.33 298.16 423.79 297.47 420.56 296.02 417.69 292.71 413.99 288.08 408.01 286.56 405.68 284.36 402.52 283.32 404.85 280.84 406.22 276.49 405.92 268.89 407.3 265.1 406.28 255.85 404.91 252.53 406.88 248.12 407.36 243.7 406.04 240.87 404.13 239.28 398.69 235.14 392.24 231.76 388.72 230.51 384.29 226.99 380.17 224.72 377.42 220.71 371.33 219.75 366.73 218.57 363.45 215.33 358.13 213.05 353.77 209.32 348.93 207.05 343.56 205.32 338.18 203.94 334.78 201.87 333.76 200.56 340.09 198.62 344.27 193.86 345.53 192.76 344.57 188.62 343.74 182.54 342.96 177.36 342.18 170.46 339.85 158.93 336.03 156.52 334 152.58 333.4 146.79 334.12 143.68 334.12 140.23 336.33 137.4 338.18 134.98 340.57 133.74 343.2 133.88 347.38 132.36 351.44 132.43 356.1 133.19 359.21 135.46 363.21 134.57 365.42 131.74 368.7 126.42 369.84 121.38 366.25 117.59 362.49 110.61 361.77 107.16 364.28 107.78 367.09 109.79 370.85 110.13 375.81 107.23 380.11 104.06 380.95 97.78 381.19 93.29 380.23 89.56 377.01 86.59 377.78 85.63 380.83 84.73 385.79 81.9 389.67 79.62 397.56 76.93 401.26 77.69 404.13 76.93 411.3 75.14 417.33 71.27 424.21 69.82 431.2 71.55 434.54 68.72 434.66 60.57 432.51 58.22 429.76 55.05 426 52.77 424.92 49.8 423.13 49.04 421.7 48.28 419.37 48.56 415.42 47.04 413.09 45.25 410.04 45.11 404.79 47.25 402.64 50.49 400.07 50.56 397.2 56.36 392.42 58.71 389.01 59.4 385.01 60.43 375.63 62.02 371.69 64.09 368.23 66.78 364.52 66.78 362.43 63.26 361.71 59.26 362.85 52.15 365.78 47.73 367.21 44.49 366.85 38.83 366.73 33.3 365.84 28.13 363.03 27.92 358.55 29.3 353.41 31.51 348.27 31.1 343.2 33.86 339.32 32.55 337.52 29.09 335.85 22.19 332.92 20.88 329.04 17.64 324.86 11.35 322.29 6.87 320.92 9.56 318.29 13.77 316.8 17.22 313.69 21.57 311.37 25.37 308.44 27.37 307.66 30.75 308.8 34.82 305.87 39.45 300.32 41.8 298.65 43.8 301.15 45.87 304.44 48.49 305.57 52.49 302.17 51.87 296.8 56.5 290.71 62.16 286.35 67.4 283.84 70.72 281.15 71.55 275.84 71.06 271.48 68.65 269.33 68.65 266.4 71.34 263.06 67.33 262.35 62.64 264.43 53.67 262.82 49.11 264.02 46.83 266.46 46.28 269.75 47.8 273.27 41.59 272.91 32.75 272.97 27.3 272.32 23.43 273.21 19.43 271.48 17.77 267.84 19.29 263.66 16.81 258.76 15.63 256.38 17.08 253.03 16.19 249.87 11.63 251.6 8.25 253.09 6.73 253.81 3.55 251 1 247.66 2.45 244.56 3.55 240.56 2.52 238.17 3.42 235.84 5.21 235.12 8.73 236.56 11.22 234.95 13.7 232.68 15.22 233.87 17.64 235.6 19.22 237.03 19.15 240.32 20.53 242.35 23.85 243.54 27.92 245.09 30.27 246.35 34.13 247.78 37.45 247.78 40.76 247.18 44.35 246.23 49.11 245.27 51.25 242.88 52.77 240.32 55.39 237.81 55.74 234.95 56.91 231.54 57.33 228.02 61.88 225.75 65.82 223.13 69.47 221.63 74.72 220.08 75.96 219.61 75.55 227.84 79.55 228.5 82.18 229.39 82.45 230.89 80.73 233.15 79.97 234.11 79.97 236.97 81.21 240.68 82.38 244.67 81.55 247.72 78.59 251.18 77.76 254.47 77.97 256.14 77 257.69 77.62 260.26 81.76 258.7 86.94 256.79 91.77 255.66 92.25 253.09 100.88 252.85 105.09 250.58 112.13 252.5 117.31 251.66 120.55 250.88 122.49 251.72 120.69 257.27 116.14 261.81 111.86 266.17 106.54 270.64 104.82 273.63 102.88 278.29 105.16 279.12 109.92 277.75 114.76 276.61 120.07 275 125.94 274.17 131.46 272.79 135.4 270.58 138.16 269.57 139.54 270.58 141.33 274.29 141.4 277.21 145.96 275.6 149.13 273.51 149.82 271.12 152.1 268.67 154.45 268.73 157.28 272.2 160.04 274.41 162.52 272.55 163.56 272.32 164.66 272.67 165.63 274.64 165.56 278.7 164.32 281.21 164.87 283.78 166.39 285.15 166.6 290.47 165.91 294.29 166.32 298.05 166.39 304.86 165.28 311.43 165.91 315.01 166.8 320.02 169.98 322.23 172.12 322.35 176.47 320.08 184.06 318.29 187.37 314.47 189.79 312.68 192.07 309.75 191.51 306.29 189.58 304.14 190.2 300.32 192.96 296.38 194.55 292.26 194.28 287.24 192 283.54 192.14 280.26 193.72 277.57 194.55 272.43 195.03 267.06 194.07 263.3 191.03 260.55 195.59 259.84 196.42 256.85 200.28 257.45 203.46 255.9 205.94 253.99 203.59 253.03 201.94 250.29 204.97 247.66 207.87 248.61 210.5 250.76 214.36 252.2 216.85 254.7 216.85 256.85 219.61 258.05 229.27 258.05 232.03 260.79 232.72 263.3 231.21 265.09 229.13 266.17 229 267 228.03 268.91 227.34 270.82 227.62 273.21 224.72 274.64 223.75 275.72 222.37 278.23 224.44 280.5 226.65 283.12 226.51 285.15 225.96 287.3 223.2 288.97 218.78 289.21 214.78 290.53 210.08 290.41 206.36 289.81 201.8 290.53 200.28 292.91 202.08 295.78 203.32 297.81 208.7 297.57 208.56 299.72 211.05 302.23 215.19 302.71 220.44 300.92 225.13 300.8 230.65 301.27 234.1 300.32 237.69 299.48 239.9 301.63 241.7 298.05 243.49 294.59 244.73 287.3 245.42 281.45 244.87 278.46 243.35 276.2 243.77 273.45 244.87 270.46 246.11 267.84 248.74 265.57 246.67 263.78 244.73 257.21 247.22 253.87 251.36 249.93 252.05 244.2 248.19 242.41 241.42 241.45 236.59 239.54 237.42 235.72 238.25 232.26 237.69 227.6 238.11 221.99 Z"/>
</g>
</svg>