<?xml version="1.0"?>
<svg xmlns="http://www.w3.org/2000/svg" version="1.2" baseProfile="tiny" fill="#f9c113" width="800" height="1003" viewBox="0 0 800 1003" stroke-linecap="round" stroke-linejoin="round">
<g fill="#c0392b" id="id_16">
<path d="M 615.37 718.59 595.98 719.86 556.88 722.13 538.27 746.57 557.79 771.13 549.09 796.02 502.69 824.1 479.96 861.81 474.66 891.68 369.55 942.83 335.33 946.87 302.96 976.87 298.28 981.21 231.89 1002 227.38 982.64 243.64 975.79 242.79 933.41 232.2 938.65 213.69 939.08 207.91 917.67 209.62 907.83 246.85 888.13 245.57 871.33 220.75 873.9 210.8 869.61 193.68 866.72 196.14 854.52 237.01 832.15 235.62 822.52 225.56 814.28 214.02 822.97 173.68 824.98 168.33 818.34 154.42 818.34 154.63 834.4 139.82 844.94 124.03 848.74 109.74 849.62 88.39 861.41 72.47 865.87 55.99 843.82 53.64 830.33 58.99 822.2 57.49 814.49 32.67 787.3 61.36 764 88.6 762.98 97.72 756.69 94.29 740.42 110.55 722.87 113.12 693.11 114.4 684.77 120.82 676.63 129.17 670.42 128.53 657.58 120.61 656.72 114.19 646.45 94.93 636.81 76.75 624.4 55.67 625.3 52.82 629.77 23.47 630.18 1 589.08 12.55 570.88 37.8 556.75 37.8 542.41 28.39 537.7 26.46 510.94 32.9 509.78 34.73 505.1 50.38 498.6 65.42 486.8 62.98 477.45 89.82 456.09 104.45 456.09 129.66 447.55 148.16 448.36 149.79 457.11 143.08 460.97 150.6 473.78 136.98 491.07 129.86 509.17 145.92 525.24 156.9 522.39 161.37 507.95 177.02 493.31 176.62 482.33 172.76 462.4 174.18 459.35 191.46 458.74 194.91 472.77 217.88 461.58 229.27 462.4 235.77 469.11 249.39 469.72 253.66 482.12 262.2 482.33 261.59 492.09 258.74 497.17 271.96 507.75 290.05 503.27 296.25 495.85 332.23 478.36 336.5 477.95 341.38 478.36 342.74 483.89 361.3 468.6 386.5 478.16 393.62 457.41 399.72 450.3 395.65 440.53 362.72 451.72 357.03 449.69 356.62 437.89 375.62 418.48 377.32 411.57 371.45 408.69 370.44 399.66 386.1 387.86 403.99 376.47 401.34 371.59 390.16 365.9 400.73 342.71 422.89 306.31 440.17 282.11 440.58 257.91 428.38 248.55 420.45 232.69 430.62 220.99 452.26 216.32 475.84 221.4 494.44 193.64 483.37 183.68 483.87 170.56 491.9 163.13 490.28 150.83 469.85 141.37 433.04 109.21 433.33 108.6 434.98 97.66 440.29 90.02 443.58 87.3 446.49 87.1 459.81 92.22 464.81 95.23 471.36 93.22 475.15 90.5 478.91 85.7 497.97 71.1 504.36 63.42 506.72 57.6 511.02 53.86 512.92 48.42 511.14 39.27 510.71 28.65 516.02 26.63 518.93 23.23 523.42 21.47 534.46 12.52 540.5 13.35 546.2 15.01 554.02 14.02 557.24 13.12 561.15 13.67 566.88 14.95 574.16 9 574.9 6.15 575.33 3.53 576.29 1 577.65 1.53 578.93 2.19 580.5 3.18 582.91 5.03 584.58 7.3 584.77 8.24 584.45 10.13 584.61 11.47 585.56 13.63 586.73 16.51 587.57 17.67 588.6 18.4 590.36 19.37 594.04 21.07 597.92 24.4 598.55 24.89 599.51 25.89 599.78 26.73 599.81 28.25 599.39 30.22 598.94 31.16 598.53 32.44 598.5 32.94 598.86 33.31 599.44 33.32 600.26 33.46 600.84 33.93 601.36 35.2 601.34 35.49 600.88 36.12 599.94 36.8 599.33 37.91 599.03 39.07 599.13 40.47 599.6 41.31 600.4 42.42 601.7 43.34 602.16 45.17 602.42 48.11 602.56 49.37 603.58 51.38 604.85 52.76 606.52 53.6 608.67 53.85 609.96 53.54 610.88 52.85 612.34 51.58 613.03 50.62 613.48 49.82 613.47 48.98 613.62 47.15 614.21 46.23 614.78 45.87 615.37 46.09 616.49 46.7 618.44 47.59 620.3 48.37 621.77 49.31 622.89 50.14 624.03 51.37 624.98 52.59 625.88 53.96 625.89 54.47 625.06 54.94 624.4 56.29 624.29 56.87 624.7 57.42 626.41 58.3 628.1 58.29 628.9 58.17 629.47 57.58 630.14 57.13 631.29 56.86 632.56 56.94 634.11 56.82 636.36 56.59 637.95 56.6 639.53 56.45 641.45 56.75 643.51 57 645.4 56.97 646.88 56.98 647.3 57.7 647.16 58.53 646.75 59.45 646.53 60.39 646 60.94 645.41 61.3 643.89 61.69 641.65 62.61 640.89 62.89 640.65 63.28 639.88 65.78 639.42 67.14 639.21 67.44 638.62 67.73 635.52 68.66 634.7 69.09 634.49 69.32 634.41 69.57 634.42 69.75 634.52 69.93 634.99 70.11 636.21 70.59 638.42 71.43 640.28 72.12 642.46 72.93 643.57 73.82 643.76 75.25 644.18 76.19 644.31 77.64 644.22 78.28 643.73 78.85 643.17 79.42 640.82 80.25 640.49 80.7 640.42 81.32 640.5 81.73 640.65 82.04 641.25 82.26 642.74 82.5 645.32 82.68 646.21 82.72 647.76 83.01 648.07 83.08 648.09 83.26 648.03 83.98 647.64 85.9 647.76 86.46 648.39 87.89 650.13 90.03 650.68 90.54 651.43 90.69 653.89 90.46 654.57 90.45 655.08 90.55 655.42 90.79 655.06 91.53 654.92 92.25 655 92.96 655.13 93.54 655.46 94.07 655.96 94.54 658.18 95.35 659.79 95.48 661.08 95.3 661.87 95.41 662.88 95.62 664.56 96.64 665.71 96.94 668.03 97.64 672.04 97.84 672.61 98.5 672.74 98.99 672.56 99.63 672.28 100.33 672.98 101.79 673.47 104.01 674.04 107.86 674.36 109.35 675.02 110.64 675.61 111.61 675.62 112.83 674.86 113.66 674.71 114.28 676 116.68 679.23 121.77 680.18 123.87 680.33 124.97 680.12 125.72 679.59 126.42 678.77 127.14 676.59 127.7 674.44 128.18 673.48 128.69 673.3 129.28 671.68 131.05 670.47 131.68 670.42 132.55 670.62 133.9 671.09 134.53 673.76 134.93 674.5 135.27 676.49 137.96 677.92 139.59 679.22 140.46 681.54 141.8 682.81 142.36 683.96 142.46 685.48 142.27 687.94 143.63 688.48 144.59 689.06 145.31 689.25 145.77 689.09 146.31 688.77 147.12 687.36 148.4 687.12 148.87 687.25 149.16 687.67 149.41 689.12 149.98 690.04 150.47 690.84 151.49 691.68 152.05 692.84 152.18 694.11 152.51 695.73 153.92 697.21 154.5 698.15 153.91 698.99 153.6 699.92 153.52 700.26 154 700.81 155.04 701.04 156.48 701.07 157.27 700.55 158.17 700.05 160.22 699.93 162.18 699.26 164.47 698.31 166.87 698.15 168.03 698.18 169.21 698.59 169.72 699.87 170.69 701.37 173.14 701.52 174.3 701.21 175.06 700.92 175.38 699.86 175.26 695.84 173.44 693.17 172.88 692.09 173.3 691.51 173.47 690.99 174.22 690.37 175.29 690.09 176.17 690.41 177.18 690.86 177.82 692.65 178.75 694.49 180.03 694.88 180.87 695.2 181.97 695.37 182.34 696.1 183.02 697.19 184.19 698.61 184.25 703.59 184.64 705.55 184.44 706.15 184.25 707.56 184.04 708.37 183.37 708.92 181.81 709.29 180.42 708.94 178.56 708.65 176.79 708.66 176.3 709.14 175.25 710.69 174.26 711.48 174.15 712.29 174.13 713.13 174.37 715.18 175.28 716.36 175.48 717.04 175.33 722.26 173.18 723.89 171.93 724.87 170.65 725.05 169.44 724.88 167.6 725.31 166.85 726.14 166.22 726.29 165.48 726.26 164.06 726.33 162.1 726.51 160.96 726.47 159.59 726.3 158.84 726.1 157.16 726.14 156.4 726.42 156 727.34 155.66 728.39 155.44 729.68 155.57 731.53 155.59 732.53 155.05 733.54 154.62 736.46 156 738.04 157.25 739.14 157.92 742.35 160.51 742.72 162.28 741.86 165.72 740.49 168.13 740.47 169.47 741.1 172.06 742.14 173.51 744.34 175.24 746.98 177.65 748.85 181.36 749.04 183.49 748.45 185.55 746.72 187.15 744.25 189.86 742.85 190.81 739.85 192.59 737.81 193.36 731.4 199.55 729.14 201.72 726.08 207.04 725.91 209.21 725.11 212.67 725.25 214.58 725.55 218.43 725.47 220.73 726.35 224.28 726.65 226.46 727.24 228.34 727.59 230.14 729.57 233.01 730.85 235.81 732.65 238.52 733.16 239.91 733.98 243.76 734.59 246.51 735.8 249.16 736.14 250.85 737.52 253.82 738.3 256.34 739.4 258.57 740.27 259.91 742.89 262.81 744.22 264.87 745.73 267.61 750.07 274.23 751.15 275.75 753.17 277.93 754.13 279.25 755.48 280.61 758.78 282.81 760.92 285.2 762.78 288.24 764.21 290.74 764.75 291.96 765.29 293.98 765.94 295.43 766.18 296.64 766.46 297.76 767.06 299.25 767.7 300.2 768.54 300.85 768.56 301.91 768.28 304.84 767.97 306.13 767.85 307.12 767.9 308.09 767.71 308.77 766.11 310.42 764.67 311.09 762.83 311.55 761.77 311.75 760.71 312.53 760.5 313.53 760.76 314.49 761.71 315.63 763.11 317.84 764.68 320.06 765.08 321.16 765.65 322.24 765.65 323.41 765.97 324.93 765.96 326.66 766.05 327.52 765.79 328.39 765.73 329.34 765.03 330.34 764.47 331.68 763.77 333.21 763.58 334.38 763.15 336.34 762.94 337.09 762.61 337.39 761.21 337.86 760.23 339.58 759.89 340.62 758.74 342.55 757.82 344.17 757.04 346.21 756.84 347.55 757.24 349.66 757.82 351.65 758.39 352.93 758.81 354.83 759.01 356.19 759.58 358.31 759.61 359.63 759.87 363.02 760.62 364.19 760.83 365.39 761.02 366.17 760.57 367.56 759.12 370.43 758.7 371.12 758.77 371.8 758.65 372.86 757.82 373.77 757.02 374.58 756.53 377.56 756.56 378.84 756.55 379.88 756.81 380.28 758.21 381.89 758.98 383.28 759.41 384.27 760.19 386.54 761.07 388.83 761.09 390.08 760.54 391.56 759.94 392.5 758.54 394.15 756.68 397.29 756.73 398.27 757.09 399.16 758.03 400.62 759.56 402.52 760.07 403.16 760.36 403.95 760.14 405.08 760.2 406.65 760.37 408.29 760.4 409.95 761.15 412.2 762.31 414.36 763.91 417.55 763.88 419.2 763.54 420.09 761.05 421.67 759.41 423.25 757.75 425.12 758.02 426.75 758.52 427.79 759.34 429.63 759.83 430.49 761.35 432.22 763.26 433.9 765.69 435.21 768.23 436.93 769.37 438.16 770.04 440.19 769.91 441.39 768.46 443.75 767.4 444.4 765.95 445.45 764.79 445.96 761.73 446.95 758.18 448.33 757.78 449.7 758.54 451.97 759.79 454.98 760.82 457.64 761.91 459.8 762.8 462.09 764.16 464.98 765.03 467.15 766.58 470.69 767.58 473.48 767.99 474.6 768.36 477.26 768.76 480.01 768.81 482.72 768.69 484.35 767.77 485.75 767.32 486.64 766.87 488.31 766.47 490.31 765.83 493.02 765.65 494.74 767.45 497.94 768.66 499.11 769.46 500.38 770.05 500.74 770.57 501.35 771.62 502.14 775.14 507.19 774.64 509.14 771.79 548.72 791.07 611.66 799 675.68 716.79 644.18 681.3 671.89 661.56 707.11 615.37 718.59 Z"/>
</g>
</svg>