<?xml version="1.0"?>
<svg xmlns="http://www.w3.org/2000/svg" version="1.2" baseProfile="tiny" fill="#f9c113" width="800" height="585" viewBox="0 0 800 585" stroke-linecap="round" stroke-linejoin="round">
<g fill="#c0392b" id="id_185">
<path d="M 485.47 82.34 481.11 78.97 480.81 74.3 478.55 68.46 477.05 63.66 472.54 65.21 467.72 67.94 462.76 73.91 464.11 65.86 469.68 58.47 474.94 50.16 479.6 48.35 488.18 47.83 496.45 45.1 502.17 44.32 507.73 41.47 508.78 37.06 508.48 28.37 513.3 26.94 520.37 27.46 521.27 33.56 524.28 35.11 532.25 33.56 538.57 30.57 542.02 32.65 546.09 36.28 550.45 38.36 550.15 42.12 548.64 47.96 547.74 56.91 548.04 61.84 554.21 64.56 561.28 65.73 567.14 67.03 570.45 71.96 571.35 79.1 569.4 92.47 566.99 95.19 563.38 101.81 556.46 110.38 551.65 118.17 551.05 129.72 548.19 132.71 545.33 138.29 541.57 144.78 540.52 151.53 538.26 160.88 536.31 170.1 532.7 175.43 525.78 179.32 520.52 183.09 516.45 187.37 511.12 190.69 512.02 192.24 513.37 201.99 512.62 208.74 506.6 211.21 504.95 214.07 509.46 215.89 516.98 215.76 530.52 211.99 541.65 211.47 546.91 209.78 555.49 203.03 553.83 201.47 552.93 196.92 557.44 191.21 561.95 187.83 572.18 184.32 579.7 178.61 578.35 173.02 564.96 171.98 563.31 165.1 566.84 157.18 563.31 153.09 560.45 146.4 565.41 142.05 570.98 135.63 585.12 123.94 591.66 121.02 602.56 119.98 613.62 122.25 620.09 121.61 627.23 114.01 633.1 104.73 635.28 98.76 641.3 94.09 648.14 87.92 648.59 81.17 652.28 78.84 659.87 76.24 666.71 71.44 669.8 66.97 666.94 61.52 657.01 60.35 644.3 59.96 638.44 64.56 634.9 65.93 636.78 53.6 636.71 43.55 631.82 36.8 624.22 26.42 621.89 18.83 624 16.17 631.44 16.37 651.52 16.5 665.59 16.24 668.44 14.1 673.03 8.26 681.53 1.65 688.6 1 696.57 1.06 700.48 5.86 707.02 14.42 721.61 24.09 727.78 24.8 734.1 20 740.57 14.75 749.82 13.84 753.88 15.98 766.29 23.5 770.42 24.28 784.56 24.35 790.73 25.19 794.04 28.37 797.87 32.71 799 38.16 793.66 47.18 784.49 59.44 774.18 71.96 769.44 75.53 763.43 73.91 758.77 67.09 757.04 67.35 755.83 74.3 753.35 82.15 758.01 85.13 762.15 86.5 763.05 98.95 759.82 102.78 749.97 108.11 743.27 116.35 737.86 119.59 733.87 119.53 735.83 113.62 734.62 107.91 737.03 99.86 738.23 93.44 735.08 91.75 726.05 91.3 721.99 91.43 720.94 83.77 720.49 82.15 716.88 91.1 713.49 93.11 706.87 92.85 703.26 90.52 696.12 91.75 689.2 94.93 688.07 102.07 686.04 109.34 681.15 114.14 674.61 119.98 667.24 124.72 663.33 126.6 661 125.11 656.71 126.34 655.06 133.42 655.88 139 660.4 145.17 660.85 152.12 661.3 160.3 661.68 169.13 654.23 176.66 647.39 178.93 641.07 180.49 631.44 189.91 627.76 189.32 618.13 187.05 612.79 188.41 606.55 195.69 603.69 204.26 603.77 211.66 602.34 219.85 597 229.72 591.81 232 582.18 240.44 577.22 248.5 574.29 252.98 572.78 262.92 566.02 269.36 561.73 273.65 562.41 277.61 566.62 280.79 572.78 281.18 574.21 284.76 574.51 287.55 571.96 293.79 565.86 303.61 568.2 311.41 578.2 316.09 590.68 316.74 597.07 314.85 602.26 311.15 602.94 313.94 603.92 319.99 602.79 324.6 604.97 328.37 610.01 331.89 616.48 333.58 620.09 335.85 622.64 341.05 624.45 345.21 623.92 349.38 620.09 352.3 613.17 355.49 610.01 358.22 613.24 360.82 617 363.29 621.67 368.3 622.49 373.7 620.46 379.29 619.18 385.21 614.97 389.18 611.51 393.53 600.38 398.22 589.55 402.12 563.68 402.9 561.28 399.52 563.98 385.99 561.88 384.17 539.32 402.64 532.1 405.76 529.09 411.75 521.57 417.21 511.94 420.6 508.03 428.92 502.92 432.83 493.59 434.39 490.58 426.84 488.18 415.65 481.86 426.84 471.33 433.09 456.59 443.76 448.77 454.17 442.45 454.17 439.14 457.82 435.23 458.6 428.62 461.98 421.7 461.2 425.91 455.99 430.12 450.53 427.11 447.14 420.49 445.58 413.57 447.66 404.85 449.49 399.89 448.58 396.58 443.63 391.46 444.67 388.76 444.15 392.07 437.64 395.98 422.03 395.68 415.26 392.07 416.04 382.14 422.29 371.61 431.66 357.77 439.47 353.86 439.73 350.25 432.7 348.75 416.04 346.34 409.02 339.72 403.29 336.41 402.77 330.7 405.11 322.28 409.8 315.06 414.22 314.76 419.43 314.76 435.04 309.34 442.33 300.02 443.11 277.15 447.27 260.01 454.56 247.37 455.86 242.86 463.93 241.66 475.91 241.36 498.56 234.74 516.53 230.22 529.03 227.22 544.66 220.6 556.38 209.17 562.9 205.26 567.06 192.92 573.32 187.51 580.35 181.79 582.7 173.07 584 169.16 583.48 164.35 583.74 158.63 578.27 147.8 566.02 146.9 553.26 146.9 538.93 143.59 530.86 139.68 526.43 131.86 522.52 134.56 518.87 135.47 512.62 131.26 509.24 122.23 510.28 115.91 513.41 108.39 498.56 105.38 495.18 99.97 495.18 95.46 498.04 91.55 504.03 88.24 511.32 84.33 511.06 74.4 504.29 68.38 502.21 65.07 500.91 61.46 495.96 55.15 490.75 47.03 485.28 43.11 476.95 35.59 473.83 22.66 465.76 13.63 455.6 9.72 446.23 6.41 442.59 6.72 434.78 7.32 423.59 5.21 417.86 1.6 416.56 1 412.66 3.71 406.15 6.11 400.17 10.02 394.45 11.23 388.2 13.94 380.4 17.85 375.45 21.76 369.21 25.67 362.45 32.29 356.98 30.18 352.04 31.98 343.2 36.5 338.26 39.81 333.32 44.32 329.41 52.74 328.89 64.77 327.33 71.39 325.51 77.41 321.61 81.62 311.99 86.43 297.43 88.24 288.33 88.84 278.45 95.76 267.8 99.37 261.56 115.01 242.33 115.61 230.89 116.82 226.47 119.82 218.42 121.93 209.33 124.64 198.15 130.95 189.06 138.17 171.4 137.98 167.37 147.05 164.91 158.93 166.33 173.22 168.41 187.36 165.95 198.49 162.44 208.42 164 218.34 171.01 223.31 172.7 236.39 168.02 252.03 164.65 263.62 165.3 275.05 169.97 286.48 177.24 287.23 187.5 275.95 197.77 274.14 204.26 278.36 209.59 283.92 218.16 288.58 225.31 298.36 234.01 301.22 241.03 318.82 247.91 326.19 247.78 331.45 243.24 333.11 237.78 337.47 234.79 342.88 233.36 352.51 235.83 360.78 238.3 376.72 240.25 386.05 239.21 388.76 236.87 393.27 229.98 397.48 226.22 409.66 226.73 425.46 226.22 435.23 215.69 437.64 201.27 446.21 191.53 449.97 171.01 448.32 165.69 445.46 161.79 442.75 153.09 442.45 141.01 438.99 140.88 435.38 145.17 432.53 151.4 428.47 155.43 423.95 156.34 420.94 145.95 417.03 142.31 405.75 141.53 411.77 138.81 419.29 129.85 429.22 119.72 438.54 109.21 452.98 97.53 471.63 92.08 480.88 90.45 485.47 82.34 Z"/>
</g>
</svg>