<?xml version="1.0"?>
<svg xmlns="http://www.w3.org/2000/svg" version="1.2" baseProfile="tiny" fill="#f9c113" width="800" height="716" viewBox="0 0 800 716" stroke-linecap="round" stroke-linejoin="round">
<g fill="#c0392b" id="id_180">
<path d="M 49.33 7.06 66.45 7.72 72.88 6.84 85.23 1 100.46 1.15 117.72 10.64 121.95 15.16 130.07 20.71 143.94 29.91 148.68 33.27 153.58 37.06 160.18 42.9 163.22 50.79 163.39 60.28 164.24 79.12 169.82 77.66 180.82 77.95 183.53 81.6 188.94 84.08 197.23 85.11 202.31 83.06 205.35 79.85 205.69 71.53 202.64 69.19 208.23 59.4 207.38 56.34 200.61 46.7 205.86 45.82 221.76 48.74 239.69 49.77 244.26 51.52 255.26 50.2 261.35 44.66 262.03 39.11 264.9 36.19 270.99 36.19 278.1 37.94 287.74 37.79 287.91 41.3 286.05 45.53 299.58 46.26 330.71 50.5 344.92 50.93 350.68 55.61 354.57 50.64 362.18 46.85 366.58 43.78 363.87 38.67 365.73 33.56 372.33 30.93 383.16 31.66 387.39 34.87 392.46 30.2 409.72 29.47 419.7 31.51 425.62 34.58 426.81 40.86 436.79 41.44 445.25 37.79 449.14 39.55 452.52 48.6 453.71 55.32 459.96 57.65 474.35 56.48 480.94 53.71 483.48 48.89 487.88 46.26 492.28 47.58 497.52 48.16 495.49 55.75 490.92 63.35 480.27 66.56 474.18 69.77 468.09 74.01 464.19 76.64 447.45 76.49 439.66 80.87 434.25 83.35 430.87 87.59 424.44 89.78 420.21 85.84 416.66 91.1 410.56 92.56 408.53 88.47 410.73 84.38 404.14 87.01 400.24 86.71 395.17 84.23 397.2 88.03 397.54 95.91 396.52 98.11 390.43 96.65 387.89 97.52 390.94 103.66 394.32 110.23 394.49 110.37 396.86 117.39 400.75 118.55 403.46 122.5 399.23 127.32 395.68 130.53 396.35 135.06 392.63 140.17 391.62 143.68 392.63 147.48 391.95 152.74 386.54 156.24 390.43 158.14 395.68 158.58 401.09 163.26 406.67 167.64 413.95 167.2 420.72 167.49 430.19 166.62 436.79 167.79 447.28 172.46 456.75 176.84 464.7 183.13 469.95 188.53 469.78 194.23 467.58 195.84 459.12 198.03 454.21 198.62 455.06 202.27 455.57 206.36 449.98 211.18 449.65 218.49 447.61 222.43 456.92 224.92 462.67 228.43 466.06 230.18 467.92 224.04 474.35 220.39 479.93 216.59 481.45 217.76 488.22 217.61 494.14 214.25 498.54 214.69 502.26 222.14 505.81 218.78 514.95 219.51 519.35 225.94 527.81 227.7 544.72 228.43 556.06 232.81 569.93 235.44 580.76 237.78 584.14 240.56 583.8 246.26 580.59 250.06 580.42 259.85 576.53 265.55 571.96 270.81 564.86 280.46 563.84 284.85 567.73 289.67 576.87 290.99 584.48 289.08 599.54 285.14 623.39 285.87 634.73 283.38 658.75 281.48 672.12 281.34 683.96 282.36 691.74 289.52 694.28 295.66 692.25 302.39 701.72 305.46 714.92 310.28 729.64 313.21 747.23 314.52 752.48 318.62 755.69 329.14 769.06 339.23 772.61 341.86 775.82 346.69 788.17 348.15 796.12 350.05 799 352.68 796.46 362.04 791.73 367.31 786.82 373.74 784.28 375.98 777.05 371.85 768.25 365.97 756.5 366.95 739.87 368.91 715.4 369.89 668.43 369.89 662.56 368.91 636.14 364.99 611.67 361.08 604.05 367.36 599.93 371.85 588.19 371.85 583.22 371.21 568.61 370.87 561.09 367.02 551 363.03 538.28 364.99 519.06 368.57 512.84 382.62 528.49 404.16 524.58 422.77 523.07 432.8 512.47 429.35 510.72 434.97 506.66 440.64 503.69 448.01 497.82 454.35 487.33 452.75 479.79 449.7 474.58 525.68 478.41 527 482.11 530.28 491.09 545.16 500.13 545.45 505.37 544.35 520.58 560.21 527.51 567.7 546.11 574.55 546.11 596.38 524.58 599.03 503.05 604.91 481.9 604.52 461.41 619.09 458.65 629.83 445.27 643.14 442.15 645.97 435.16 652.75 425.74 661.7 420.21 674.04 415.96 679.33 397.36 678.35 377.79 678.35 347.45 677.37 324.2 676.44 318.59 677.09 289.72 671.5 288.99 666.41 280.91 650.93 262.32 641.14 243.72 648 235.62 664.76 219.88 679.24 206.54 688.15 190.88 688.15 161.52 699.9 155.35 700.32 150.01 701.47 139.79 710.07 132.88 715 115.04 678.53 96.04 640.49 94.29 584.5 93.39 560.06 93.07 552.24 91.65 521.77 83.03 486.33 52.02 448.29 3 399.24 1.41 381.47 1 369.21 28.01 350.19 45.02 348.19 47.9 343.41 55.02 327.16 48.02 289.12 47.02 258.09 46.55 246.7 44.15 228.11 45.02 209.04 46 165.72 46.02 157.49 46.02 125.95 71.03 78.9 66.03 44.87 49.33 7.06 Z"/>
</g>
</svg>