<?xml version="1.0"?>
<svg xmlns="http://www.w3.org/2000/svg" version="1.2" baseProfile="tiny" fill="#f9c113" width="800" height="536" viewBox="0 0 800 536" stroke-linecap="round" stroke-linejoin="round">
<g fill="#c0392b" id="id_144">
<path d="M 718.54 191.99 715.03 189.42 707.07 185.41 694.77 181.66 684.87 181.79 678.26 179.59 672.86 175.07 656.96 171.71 646.6 167.44 641.65 167.57 636.4 173.26 628.6 189.29 624.55 199.25 615.24 203.25 578.78 234.68 571.73 236.1 571.43 255.38 573.38 259.39 576.83 274.78 565.28 294.84 555.22 304.41 543.82 301.18 533.47 296 520.41 298.98 510.96 299.75 520.56 308.04 522.66 317.1 525.36 317.87 525.66 320.07 492.8 331.98 453.64 344.93 439.69 348.42 435 348.49 433.46 351.66 432.11 358.46 430.23 365.19 426.41 374.71 423.56 377.88 418.6 388.3 417.33 391.54 417.85 393.48 414.55 401.58 415.75 404.3 415.38 415.11 410.73 421.91 409.6 430.59 406.9 436.88 405.85 439.21 396.55 439.6 389.8 435.13 384.17 435.06 378.99 437.65 371.86 439.66 362.79 444.65 357.16 449.51 355.73 454.89 360.24 459.42 360.99 472.25 356.93 473.81 333.08 473.74 332.18 462.53 333.83 457.74 334.05 447.18 320.7 460.26 310.49 471.34 305.62 475.49 299.17 478.21 297.89 475.04 294.14 471.8 287.84 468.23 274.86 477.56 270.21 484.63 272.01 496.49 269.98 503.36 268.71 514.18 265.1 521.51 264.44 529.57 259.47 528.97 256.57 528.65 249.36 527.78 241.65 530.77 235.68 533.01 233.25 533.9 231.96 534.39 222.99 532.01 216.28 526.54 210.93 516.95 202.23 524.37 198.28 527.76 191.66 534.39 183.82 535 181.98 533.9 182 533.88 178.02 531.49 177.97 531.51 171.75 527.78 168.94 523.29 166.48 519.45 162.92 520.19 153.22 519.32 144.02 517.32 139.29 516.33 125.49 512.72 118.25 507.27 118.25 507.26 115.91 505.5 115.66 494.55 120.14 487.45 123.75 480.23 124.37 474.38 124.87 470.03 124.89 470.03 124.9 469.97 133.32 465.16 132.08 463.06 132.09 463 128.51 456.73 121.29 461.55 115.28 468.17 103.85 463.35 92.42 460.34 92.2 460.25 78.85 456.21 77.36 448.87 77.92 446.78 77.98 446.77 80.39 438.07 82.19 427.23 70.77 423.02 64.75 417.6 64.41 417.08 57.83 407.79 59.92 399.68 59.94 399.54 65.88 399.54 62.31 396.59 53.36 391.11 45.4 389.62 35.32 385.14 31.72 391.73 26.37 393.85 22.64 395.34 19.65 386.88 13.06 381.28 11.45 377.54 5.23 367.09 1 356.38 4.21 356.01 8.12 352.51 8.96 351.53 11.25 349.73 14.83 346.57 23.25 335.13 33.66 328.83 37.72 326.43 38.31 326.14 38.42 325.84 43.1 316.47 54.16 309.93 56.33 309.24 59.94 299.01 60.03 297.25 60.2 293.4 60.35 290.68 60.54 286.97 60.57 286.96 60.57 286.93 72.01 283.32 75.05 282.65 79.79 281.55 81.99 281.48 88.18 281.55 88.18 281.58 94.02 278.59 95.36 277.38 95.41 277.34 101.74 276.85 109.82 276.1 116.53 271.87 124.87 266.52 133.95 258.05 135.83 256.38 135.83 256.37 143.02 249.96 148 247.6 147.72 248.06 150.1 247.84 157.95 247.85 168.27 242.62 182.57 237.76 195.26 220.71 195.67 220.09 197.87 216.44 207.3 202.69 207.3 193.52 209.6 194.8 219.67 183.27 239.83 176.07 254.34 172.16 261.42 170.3 263.3 168.06 265.9 166.82 274.6 157.48 277.34 154.87 278.74 150.41 280.17 145.98 281.58 141.49 284.53 133.94 286.47 128.96 287.16 127.22 288.06 124.92 299.81 115.9 306.48 110.72 311.71 106.73 313.89 105.16 313.79 105.1 316.13 103.3 326.93 103.3 339.17 104.02 349.24 88.89 371.35 77.53 371.33 77.52 371.35 77.53 375.88 75.21 390.99 62.96 404.77 62.35 406.3 62.26 406.3 62.28 423.39 61.52 439.22 75.21 442.1 82.41 456.5 85.29 465.14 79.53 480.97 71.6 500.41 70.88 513.37 83.13 513.62 83.21 518.85 84.17 530.65 88.89 547.2 79.53 547.2 44.23 547.21 44.23 547.21 44.21 563.75 42.72 567.36 42.84 580.04 43.34 586.01 42.1 586.04 42.07 586.07 42.07 624.22 1 642.93 6.76 663.09 9.65 690.04 6.53 688.79 8.23 694.46 6.87 700.55 5.38 714.6 7.25 726.42 7.49 737.11 10.98 737.55 11.08 750.91 15.41 760.99 19.44 761.74 19.44 774.55 24.55 778.12 23.65 799 22.16 793.4 33.22 781.76 54.17 776.77 63.25 766.61 81.97 753.69 106 741.23 128.52 730.93 147.39 728.18 154.22 721.69 179.19 719.69 187.05 718.54 191.99 Z"/>
</g>
</svg>