<?xml version="1.0"?>
<svg xmlns="http://www.w3.org/2000/svg" version="1.2" baseProfile="tiny" fill="#f9c113" width="800" height="567" viewBox="0 0 800 567" stroke-linecap="round" stroke-linejoin="round">
<g fill="#c0392b" id="id_193">
<path d="M 639.19 273.78 642.72 278.46 655.08 273.78 667.44 264.42 676.26 259.74 683.32 261.3 718.63 273.78 727.46 276.9 738.05 278.46 743.35 278.46 771.59 264.42 768.06 248.82 799 260.39 796.06 272.69 794.27 279.76 792.84 284.61 789.26 306.32 778.69 313.81 762.91 312.9 745.56 328.12 752.42 339.07 755.61 346.74 758 359.72 747.12 375.29 744.23 379.09 720.87 402.45 711.11 411.67 707.24 415.32 689.1 430.99 684.24 435.22 669.72 435.08 655.25 436.71 638.96 441.59 634.57 443.75 612.95 438.62 609.93 437.43 588.47 424.53 581.74 420.19 571.04 425.86 559.79 433.45 543.73 439.36 521.85 440.94 516.73 452.59 523.72 466.43 514.88 475.67 501.74 483.1 488.67 486.43 461.98 485.88 458.99 493.28 440.44 516.09 429.03 527.34 421.36 527.9 417.23 529.41 408.65 533.62 404.78 534.68 398.34 537.69 388 541.19 384.12 541.65 378.51 540.38 360.38 534.86 351.65 534.96 348.68 535.21 341.67 535.05 338.37 534.47 334.81 532.77 328.62 529.6 325.38 529.78 318.46 531.64 310.07 535.89 299.94 541.51 289.49 548.84 277.26 558.51 263.23 566 248.17 557.37 238.87 550.15 235.34 546.67 227.7 542.76 221.91 540.99 214.55 535.66 207.95 532.6 198.6 529.91 192.57 528.11 189.56 522.73 190.18 514.82 191.45 511.07 192.05 508.24 190.99 505.53 184.75 504.77 180.83 504.82 164.33 502.91 154.58 501.23 147.49 500.01 137.41 499.53 132.37 497.8 122.26 492.68 121.79 486.61 121.9 481.85 119.07 474.54 120.65 470.05 120.55 465.64 118.6 458.37 118.44 452.17 118.13 446.35 119.2 440.58 114.86 432.86 110.91 426.61 101.35 418.89 100.49 414.64 96.82 408.94 95.27 402.78 92.46 397.54 83.6 392.26 73.31 384.77 69.54 381.16 62.61 377.55 60.32 373.07 62.4 365.88 63.07 360.9 62.73 355.27 56.19 348.31 52.03 346.27 42.49 343.19 31.63 342.76 24.83 338.9 21.58 334.03 20.31 332.4 17.27 328.38 15.78 326.86 11.37 318.21 10.3 312.24 10.82 308.17 11.11 306.11 10.98 301.95 9.96 299.47 6.64 291.14 4.25 284.55 2.35 279.29 1 275.32 15.57 272.21 26.69 268.61 43.17 265.17 52.44 267.49 56.94 268.47 69.25 263.84 74.58 260.74 88.06 260.78 89.41 251.27 85.36 238.95 81.49 227.73 80.06 217.61 75.44 210.52 71.93 201.64 72.99 191.18 76.97 184.23 77.54 176.54 77.64 172.87 84.11 157.81 84.43 151.96 82.61 136.09 81.57 123.66 82.17 110.96 82.71 102.68 88.53 85.83 89.02 75.15 90.53 65.44 92.71 51 93.91 46.87 95.83 43.91 103.73 39.26 106.22 37.98 115.13 37.68 124.72 38.16 135.37 39.58 147.04 40.52 149.07 40.91 150.39 41.67 153.61 41.3 158.94 40.98 161.3 41.89 164.34 43.02 170.01 44.87 174.17 45.13 179.13 45.15 183.42 44.67 197.34 41.18 206.33 38.57 210.8 37.27 221.38 35.07 226.34 34.04 229.51 33.35 243.15 30.67 247.15 29.11 252.74 25.03 256.63 22.42 262.82 16.49 267.6 12.59 275.03 8.35 285.94 1.78 289.61 1 291.9 22.78 294.11 33.47 301.27 43.19 305.13 52.92 305.68 64.58 304.58 78.19 307.89 90.35 311.19 101.53 317.26 112.72 320.56 119.04 325.1 139.19 328.25 146.43 334.1 155.68 344.88 175.81 348.67 192.26 351.4 211.3 362.03 236.89 374.84 241.91 378.29 254.86 383.59 267.57 386.53 271.68 388.4 276.56 398.59 283.13 422.75 288.54 439.48 292.17 445.82 295.06 452.78 295.02 454.08 295.71 457.12 303.12 468.09 303.01 476.17 300.39 483.42 299.65 489.34 298.85 493.39 295.68 494.69 289.64 496.28 287.81 503.42 283.63 506.36 283.77 517.43 293.18 525.64 298.35 532.42 304.02 536.45 306.47 543.64 307.87 546.87 306.38 550.58 301.61 555.86 298.6 558.48 295.66 557.02 287.85 554.61 283.4 552.06 280.44 549.49 277.98 549.67 275.66 550.17 274.56 549.93 272.98 550.19 270.71 551.36 269.21 554.37 267.01 554.95 266.71 560.19 264.97 571.29 263.34 578.69 263.04 583.37 260.45 639.19 273.78 Z"/>
</g>
</svg>