<?xml version="1.0"?>
<svg xmlns="http://www.w3.org/2000/svg" version="1.2" baseProfile="tiny" fill="#f9c113" width="800" height="575" viewBox="0 0 800 575" stroke-linecap="round" stroke-linejoin="round">
<g fill="#c0392b" id="id_181">
<path d="M 262.6 313.71 262.05 309.84 253.14 309.94 252.16 311.16 252.93 312.96 252.38 313.81 248.86 314.09 244.35 313.52 239.07 313.43 238.63 315.13 237.21 316.07 235.01 315.5 234.68 314.18 234.79 309.84 236 307.3 234.79 306.26 233.91 302.86 232.37 299.47 232.59 298.15 233.14 295.98 234.13 293.24 233.91 289.66 233.69 285.79 234.68 282.49 234.57 278.63 233.58 278.35 229.62 278.53 227.64 277.97 226.87 274.57 223.14 273.91 220.5 273.82 220.06 276.08 214.23 276.55 203.68 276.46 201.37 278.06 201.92 282.02 195.87 282.21 188.73 281.74 182.13 281.65 183.89 283.06 185.87 285.98 187.96 287.02 189.72 288.62 190.6 292.77 191.26 294.94 192.36 296.17 190.6 298.05 184.88 298.34 181.58 298.81 173.78 299 170.48 299.47 164.33 299.47 162.02 300.22 161.03 301.54 160.15 302.68 157.95 302.39 156.19 300.79 156.41 298.15 156.96 296.55 157.51 293.53 157.29 289.19 156.85 286.55 154.98 286.93 152.89 287.87 149.27 287.87 149.38 285.13 148.5 283.72 145.75 282.78 141.57 282.97 136.52 284.29 126.51 284.1 126.18 291.08 126.4 294 128.6 296.36 127.17 299.94 125.74 304.66 126.18 309.56 124.75 312.86 121.46 313.81 117.72 314.75 116.84 313.62 113.21 313.71 110.35 312.58 107.61 309.37 103.32 308.71 98.37 307.49 92.77 304.37 90.35 304.28 88.92 306.26 89.69 307.11 90.13 308.15 88.7 309 84.08 309.75 81.44 307.86 79.68 306.17 77.38 306.17 75.84 307.39 74.52 308.9 71.55 310.13 67.48 313.33 65.94 312.11 63.2 311.35 59.46 311.73 58.25 313.43 56.49 315.22 51.21 315.22 46.38 316.73 41.54 317.3 37.61 317.97 38.9 308.96 36.4 296.45 24.63 296.82 23.08 296.88 20.88 292.21 20.16 289.38 28.07 281.82 29.39 280.07 30.26 273.38 30.51 271.08 29.75 267.5 26.4 253.12 26.4 250.97 26.7 244.87 27.16 232.48 27.24 229.94 28.06 207.35 28.12 203.98 28.36 198.98 28.49 195.61 23.91 193.94 21.3 189.66 20.62 188.58 18.03 184.34 20.54 177.68 20.79 172.33 21.02 168.96 19.44 165.96 17.72 164.35 16.52 161.15 12.61 154.72 11.67 152.77 7.66 144.77 8.12 141.27 9.08 137.86 10.99 128.48 11.27 125.76 11.83 124.35 14.72 113.73 15.65 109.18 17.57 103.39 18.35 100.41 19.32 96.85 14.33 91.84 6.41 91.43 1 83.09 5.79 78.12 9.63 74.07 15.63 67.8 17.71 65.74 19.74 63.51 19.67 60.33 20.19 58.4 27.1 57.81 30.56 46.98 32.57 42.22 39.34 33.38 43.49 29.78 48.34 17.64 48.58 19.19 63.09 23.9 78.9 26.43 95.54 21 105.52 15.99 109.82 12.59 116.36 5.57 118.81 4.72 129.31 1 137.19 1.42 137.62 10.3 133.47 17.19 132.2 25.58 139 28.54 140.51 28.88 155.5 26.43 157 26.22 159.16 26 163.34 25.32 173.31 24.03 177.9 23.53 188.47 23.47 198.43 23.47 214.85 22.88 222.15 22.6 226.45 22.79 235.19 23.52 240.1 23.14 246.78 23.36 249.34 23.45 251.3 23.23 263.38 25.58 265.89 27.9 270.44 30.16 275.85 35.57 284.61 33.99 288.79 32.63 290.76 31.95 297.1 29.74 305.9 33.56 312.97 34.93 315.06 34.73 325.07 30.49 326.22 49.71 326.36 54.56 326.67 56.84 328.2 59.34 331.08 62.38 347.88 84.04 349.88 86.14 351.24 87.68 352.31 89.84 356.25 95.9 361.65 104.76 372.63 113.6 373.73 114.35 380.14 111.14 387.47 108.1 389.86 112.47 392.12 124.31 392.83 127.79 394.97 142.27 395.8 159.77 407.88 173.94 419.96 178.52 432.87 173.11 463.27 170.6 476.49 170.59 487.94 170.08 494.93 169.76 511.58 168.94 521.99 159.77 532.4 145.18 539.89 128.1 539.89 116.43 546.97 110.18 560.72 108.1 573.21 105.6 596.95 107.26 622.35 111.85 647.91 130.01 678.99 153.52 704.39 150.19 724.8 150.19 732.3 156.85 738.59 161.59 737.58 163.27 734.98 176.27 744.73 196.44 755.45 218.55 768.77 234.49 767.8 253.67 762.93 267.01 755.13 276.44 743.1 289.12 745.05 303.1 749.6 306.68 764.87 320.99 775.92 327.17 773.32 337.25 764.23 347.66 766.17 359.04 770.73 364.24 778.53 367.82 788.6 367.82 799 369.12 793.8 379.2 786.65 385.38 779.17 393.19 770.08 395.79 762.6 393.19 760.65 400.34 759.02 412.7 755.45 424.73 745.7 427.66 739.1 427.62 733.03 427.66 722.95 430.91 714.83 439.36 711.58 450.75 697.93 456.6 691.4 462.05 688.18 465.71 684.6 475.46 687.2 492.05 683.3 496.6 667.05 500.83 663.15 505.06 666.08 518.39 665.75 532.7 658.6 547.66 656.48 549.98 654.56 552.34 651.13 555.46 644 555.4 636.5 555.46 613.1 549.28 608.88 560.67 606.93 568.47 595.55 573.02 592.9 573.1 576.62 573.74 573.64 573.59 561.75 574 549.2 568.51 536.17 562.77 525.15 556.76 524.17 555.81 508.45 547.66 506.61 546.28 494.98 537.45 486.4 530.86 473.21 518.44 469.81 515.35 465.82 510.71 458.07 502.78 450.28 494 431.25 476.37 428.71 474.19 427.19 472.79 425.88 471.72 425.95 465.1 425.07 462.26 422.32 456.21 422.32 454.51 422.65 448.37 425.29 443.73 424.52 440.8 423.09 437.21 422.32 431.17 420.01 427.67 416.93 423.79 416.49 421.62 414.29 419.35 411.33 416.8 408.91 412.36 402.53 404.43 401.87 400.18 400.44 396.49 398.13 393.66 397.26 388.65 394.95 385.82 394.07 381.19 391.76 377.51 392.09 375.53 391.43 367.32 385.6 367.32 385.05 368.83 383.95 369.68 379.89 369.58 378.79 364.29 377.03 363.44 360.1 364.29 355.81 366.84 349.55 369.77 348.67 367.69 345.81 368.35 339.55 369.01 333.39 368.54 332.95 363.16 331.96 361.37 324.49 361.08 325.36 364.39 325.15 367.98 323.5 369.3 313.49 369.49 314.92 366.28 314.26 365.24 314.37 362.78 306.79 363.44 306.02 362.41 306.02 359.1 305.69 356.74 304.81 352.49 301.07 352.21 298.87 354 296.45 357.97 293.16 361.65 283.15 361.93 281.18 361.08 280.96 357.87 278.98 355.7 279.31 351.08 279.97 350.42 281.94 349.47 281.29 346.93 280.74 340.89 278.76 340.79 278.1 339 279.2 336.07 280.3 333.62 281.94 330.79 284.25 327.01 284.36 325.22 280.85 325.41 278.43 326.45 276.67 325.79 273.7 326.17 273.37 327.01 271.94 327.86 268.64 328.52 266.67 329.09 264.36 328.62 259.19 328.62 259.08 323.05 261.06 322.11 261.72 320.6 261.94 316.45 262.93 314.66 262.6 313.71 Z"/>
</g>
</svg>