<?xml version="1.0"?>
<svg xmlns="http://www.w3.org/2000/svg" version="1.2" baseProfile="tiny" fill="#f9c113" width="800" height="938" viewBox="0 0 800 938" stroke-linecap="round" stroke-linejoin="round">
<g fill="#c0392b" id="id_217">
<path d="M 8.61 704.83 9.65 694.55 8.57 681.76 5.88 674.25 4.93 660.45 1 654.29 28.22 663.3 32.15 667.06 36.08 674.2 46.67 681.72 54.08 683.14 62.27 682.62 70.92 674.8 69.06 660.18 63.43 648.15 61.86 636.3 65.42 622.69 58.47 602.84 47.42 584.34 42.99 571.22 37.86 551.98 36.59 541.75 32.5 526.69 32.12 518.14 37.15 513.37 42.28 500.19 44.64 486.33 43.82 475.64 44.27 464.03 45.8 453.31 55.23 428.17 64.54 408.15 70.46 399.52 85.89 381.94 89.16 376.78 91.19 371.56 91.1 358.04 91.14 352.51 93.69 336.51 94.58 330.94 107.54 323.29 109.65 320.9 119.83 310 126.2 307.16 138.07 298.99 144.69 295.78 155.66 287.98 160.21 284.43 166.74 278.2 179.32 266.89 182.55 263.57 192.19 252.48 203.98 252.56 206.75 253.83 215.98 245.95 220.44 241.1 235.75 231.18 240.47 227.71 242.62 221.51 247.63 212.15 219.45 196.7 202.09 188.04 205.03 182.48 208.8 178.38 216.62 169.91 222.61 166.22 228.08 151.82 235.23 142.38 240.69 137.23 247.48 128.36 240.69 103.89 248.35 79.98 253.81 78.9 256.66 73.79 269.8 78.93 288.75 84.03 295.29 82.21 298.64 73.97 305.18 61.88 304.68 54.72 299.18 51.29 313.95 35.63 323.38 30.27 347.71 15.46 367.69 11.77 394.79 4.62 411.59 1 473.69 8.98 500 8.23 536.9 15.65 561.68 23.03 573.06 24.52 590.81 25.57 619.81 29.78 649.06 36.42 674.71 95.11 678.06 103.02 679.79 108.65 680.12 113.54 679.5 119.06 675.86 131.74 668.58 159.42 661.59 184.64 653.77 211.83 650.09 239.6 645.37 276.58 639.33 319.47 637.02 337.54 635.61 347.25 636.85 355.68 655.3 400.19 658.5 407.86 673.3 443.33 675.49 449.34 678.14 454.05 681.45 458.87 706.93 484.27 732.21 509.89 738.87 516.69 742.22 521.14 763.03 557.76 771.58 572.63 780.49 588.14 785 596.03 786.95 600.85 788.52 608.17 791.13 643.2 793.4 677.41 795.68 713.15 799 769.3 777.28 766.79 775.46 778.16 770.74 795.4 754.86 800.34 752.7 806.63 745.46 814.29 740.87 819.42 731.19 828.51 728.3 836.97 709.63 838.99 707.27 844.53 705.78 848.05 703.47 851.6 696.93 855.16 682.78 860.69 674.01 862.94 662.63 860.88 651.75 862.94 644.88 866.35 644.25 868.59 645.29 872.71 649.3 877.91 651.04 882.32 655.01 894 658.94 906.8 653.48 910.58 617.67 910.48 597.44 909.5 582.34 913.06 562.53 922.27 544.98 926.01 525.58 930.16 503.69 931.96 476.24 933.41 449.43 937 438.51 932.32 444.06 915.52 448.98 899.76 454.52 887.64 468.13 860.32 472.52 848.08 473.32 842.7 457.35 837.05 422.39 834.96 390.41 833.43 375.6 836.34 365.75 842.11 336.71 840.42 323.1 838.21 293.23 828.75 280.59 825.59 265.28 820.92 250.93 812.36 244.31 806.67 226.97 803.72 200.62 804.05 180.84 809.18 174.97 815.8 163.34 825.3 145.43 823.06 119.65 813.44 113.76 810.57 108.59 800.13 97.09 790.4 78.47 775.55 63.33 764.67 59.07 758.87 49.56 745.74 42.52 732.8 22.64 717.81 8.61 704.83 Z"/>
</g>
</svg>