<?xml version="1.0"?>
<svg xmlns="http://www.w3.org/2000/svg" version="1.2" baseProfile="tiny" fill="#f9c113" width="800" height="502" viewBox="0 0 800 502" stroke-linecap="round" stroke-linejoin="round">
<g fill="#c0392b" id="id_264">
<path d="M 490.66 3.29 506.78 3.29 529.16 4.07 523.79 14.12 522.89 24.96 530.05 34.24 534.53 39.66 528.26 47.4 538.11 57.46 548.85 59.78 539.9 72.94 530.05 100.03 521.1 130.22 522 142.61 535.42 136.41 543.48 148.8 520.21 172.8 508.57 196.81 509.46 219.26 510.36 230.11 515.73 245.6 531.84 256.44 532.74 260.31 530.95 271.16 537.22 278.13 548.85 290.52 556.91 295.94 548.85 306.02 554.22 321.51 576.6 321.51 583.77 327.71 588.24 328.48 596.3 331.58 597.19 346.3 660.75 343.2 660.19 327.71 660.08 326.35 659.75 324.61 659.41 321.61 660.42 321.22 661.43 321.41 664.89 321.99 668.92 322.67 675.97 322.48 675.64 324.03 679.67 323.93 679.33 322.48 699.92 320.15 700.81 330.23 711.56 330.23 731.25 331 742.89 329.45 755.42 327.9 769.75 323.25 799 320.67 797.63 327.15 789.67 337.28 772.81 351.46 772.81 358.26 772.81 364.74 777.5 379.88 784.93 384.81 789.67 400.55 790.99 404.93 796.89 416.93 796.89 421.49 787.46 424.51 769.52 428.94 761.51 431.4 747.49 430.12 732.84 434.23 728.15 435.83 717.29 435.83 711.55 433.96 698.84 434.23 689.2 435.05 673.71 435.05 651.99 434.5 641.08 436.79 635.92 435.55 626.64 435.55 614.57 438.16 608.3 441.3 598.18 440.12 592.07 442.58 587.7 445.27 580.69 444.09 568.46 452.35 559.45 460.56 551.28 461.93 538.84 459.6 527.25 460.93 512.81 455.09 481.45 444.95 457.42 437.61 416.42 427.11 396.55 424.65 390.64 428.8 382 440.66 364.35 451.25 360.02 473.39 360.55 482.1 355.02 495.57 344.16 501 333.22 497.15 324.52 493.68 317.99 490.81 298.06 485.15 292.64 486.65 286.89 489.03 272.08 485.1 264.18 480.63 243.33 473.3 242.22 466.05 237.69 452.36 236.21 444.51 231.42 429.4 231.36 422.83 227.31 408.92 235.53 405.17 242.17 401.89 239.32 393.13 257.56 379.35 257.35 373.78 257.45 369.41 257.29 357.45 254.13 346.6 254.14 343.09 259.56 340.36 265.99 336.21 271.21 323.34 271.95 318.83 276.48 314.77 276.75 304.51 275.69 297.99 277.54 281.2 276.59 274.09 274.85 269.3 273.37 259.09 259.25 258.36 251.03 254.98 232.37 250.01 217.14 236.06 213.92 229.63 209.76 212.4 207.81 206.29 200.96 198.36 180.14 195.12 164.39 188.51 152.53 185.91 126.91 177.52 114 173.51 97.4 166.81 75.21 158.7 66.31 155.51 49.71 143.29 45.02 140.79 39.1 150.25 33.41 160.1 29.41 163.29 23.98 165.34 21.18 168.49 10.8 182.57 1 200.81 1.88 158.86 7.25 144.93 9.04 132.54 14.42 107.77 28.74 76.81 18 52.04 14.42 42.76 69.92 56.69 308.04 113.96 342.06 113.96 340.27 148.03 338.48 177.45 334.9 206.87 329.53 231.65 338.48 233.2 358.17 236.3 428.45 244.18 428.77 212.63 445.32 170.64 445.9 163.44 453.17 149.27 459.6 141.29 463.5 130.13 467.45 114.45 469.19 103.78 469.67 98.91 469.67 88.88 469.61 85.6 471.09 78.36 474.67 67.56 473.62 56.12 468.51 48.1 474.57 32.16 473.94 26.24 475.78 4.51 476.99 1 490.66 3.29 Z"/>
</g>
</svg>