<?xml version="1.0"?>
<svg xmlns="http://www.w3.org/2000/svg" version="1.2" baseProfile="tiny" fill="#f9c113" width="800" height="437" viewBox="0 0 800 437" stroke-linecap="round" stroke-linejoin="round">
<g fill="#c0392b" id="id_27">
<path d="M 540.55 1.89 545.4 8.39 564.91 7.63 568.86 10.43 574.35 10.3 575.11 8.27 579.71 9.54 586.34 17.32 595.78 19.1 598.58 23.82 604.45 25.98 609.68 34.65 614.4 35.16 622.05 41.66 624.6 47.27 632.26 50.71 633.91 55.56 633.15 59.13 629.83 64.1 631.87 67.16 628.68 73.4 627.28 77.35 626.64 83.47 622.05 87.3 622.43 90.61 623.33 92.52 618.23 97.37 614.14 101.06 615.04 106.29 619.63 109.6 623.58 106.8 627.04 107.31 629.58 111.26 627.28 118.14 626.13 124.39 629.58 129.87 633.28 131.53 635.44 129.36 634.93 124.01 646.8 122.61 651.13 125.03 658.28 129.49 673.07 126.43 679.58 127.07 691.18 125.28 697.82 124.64 718.17 131.33 718.23 134.53 717.52 136.69 712.32 138.24 706.34 140.78 704.32 143.13 701.59 147.44 696.88 150.67 692.93 154.08 687.46 155.08 686.43 164.55 686.85 166.16 684.18 169.2 681.72 169.85 679.37 171.74 675.64 176.86 676.22 181.75 675.78 186.06 669.95 191.27 667.76 196.02 666.25 201.74 668.15 207.72 674.31 211.19 682.44 220.9 686.52 226.13 687.98 228.6 688.15 230.52 687.37 232.7 688.96 233.23 695.4 237.37 702.14 243.84 702.61 246.83 699.36 251.9 704.88 258.6 705.79 261.37 706.63 265.21 707.58 267.13 705.55 274.01 705.56 277.81 706.2 279.13 710.38 282.75 716.32 286.37 719.4 289.76 721.45 292.19 722.04 295.13 723.2 295.44 725.83 294.22 729.64 292.84 731.25 292.5 733.21 292.37 736.04 293.02 737.58 294.12 738.08 296.52 737.92 299.56 739.1 301.66 742.04 303.26 743.88 303.43 745.32 304.74 745.15 306.33 745.04 310.11 749.24 312.35 751.7 314.8 753.47 317.92 754.78 320.85 755.74 323.75 770.09 337.31 770.08 339.96 772.54 342.82 774.56 345.96 775.4 346.5 780.78 352.68 782.49 354.85 784.51 357.66 785.35 359.18 788.43 361.75 791.83 366.78 795.28 370.37 799 374.72 795.36 384.46 792.72 388.5 791.19 392.35 791.04 395.51 789.05 399.07 785.46 402.56 782.88 407.69 781.68 409.28 777.56 411.64 775.06 413.68 770.53 415.53 768.8 418.52 769.1 419.69 767.64 425.03 766.38 431.54 755.77 426.95 747.16 428.03 731.15 425.23 722.54 426.38 715.72 428.35 714.19 425.04 705.83 428.16 690.59 426.19 683.19 423.32 678.67 420.39 672.93 418.98 665.97 417.9 660.36 417.65 657.24 417.84 655.01 416.43 651.31 416.31 648.31 420.9 643.84 424.85 641.29 424.46 636.19 417.39 627.33 410.95 619.67 406.75 612.21 400.25 602.97 395.59 600.99 392.28 589.06 376.47 574.33 376.92 555.33 365.96 538.23 372.27 529.43 381.32 523.63 380.11 514.06 383.16 508.77 379.91 497.61 369.08 489.38 371.25 469.23 359.14 450.74 363.41 438.17 361.94 429.5 359.26 425.16 360.73 418.21 359.65 407.11 362.9 387.6 362.96 384.73 366.72 386.96 371.69 388.62 380.81 391.04 388.77 395.13 395.02 389.26 397.57 383.96 400.31 374.21 400.31 368.08 401.27 352.91 401.39 342.26 405.92 332.82 411.53 323.76 412.23 321.27 408.34 317.45 407.32 314.45 409.74 312.09 409.3 307.44 406.49 296.79 406.17 295.25 404.26 292.89 404.58 283.27 411.59 273.95 411.53 269.55 414.08 252.4 414.9 245.7 419.94 232.56 421.66 222.87 425.42 206.93 425.17 204.25 428.73 199.47 432.11 191.75 432.88 186.58 436 183.9 431.73 178.87 431.54 173.45 426.89 164.96 421.47 161.07 420.51 159.16 419.56 160.95 415.73 160.24 413.5 156.04 407.51 152.66 399.48 145.13 392.41 137.73 391.64 132.95 392.85 127.46 393.04 118.73 400.44 118.66 407.57 110.37 408.98 106.55 407.45 102.4 404.83 99.47 401.78 99.02 398.97 103.17 394.25 104.12 388.14 101.32 387.43 96.79 384.44 94.68 375.71 94.88 360.98 87.29 359.97 84.1 362.64 78.49 365.89 74.21 366.72 68.66 364.3 64.65 363.66 61.65 359.52 62.16 353.78 53.74 353.08 48.19 354.04 44.18 356.4 41.18 352.57 43.67 346.64 43.03 331.67 34.67 325.8 25.68 321.92 24.66 323.64 20.71 323.89 20.83 320.13 16.56 320 13.12 318.09 8.72 319.37 4.06 316.12 4 308.47 1 305.47 5.91 300.82 4.06 295.78 3.04 286.29 3.46 282.65 6.39 282.78 14.62 288.01 21.18 288.07 25.07 286.42 28.52 287.44 32.92 289.22 43.82 288.33 47.84 285.97 53.84 285.27 56.71 283.23 64.49 287.88 76.8 287.5 80.88 285.27 85.85 284.82 91.72 280.3 99.12 276.15 99.63 275.52 131.32 275.33 132.41 277.43 137.38 277.05 143.82 279.79 146.31 281.38 152.56 278.89 161.42 278.32 163.59 276.79 166.91 277.17 169.01 278.58 173.67 275.39 191.97 275.45 196.5 274.05 199.18 273.8 202.24 271.69 209.06 273.48 223.03 273.73 233.3 274.31 242.55 272.01 249.31 272.08 253.96 273.16 267.54 269.65 279.66 263.66 285.4 264.04 288.72 262.32 297.26 259.46 302.68 260.03 307.08 262.13 308.74 265.83 314.06 267.44 314.02 267.41 320.91 266.39 326.52 260.14 333.28 258.11 342.08 252.62 348.46 249.95 347.31 246.63 342.85 239.11 349.74 238.47 358.79 238.86 372.31 232.74 378.05 225.6 389.79 226.49 398.2 228.79 411.09 228.53 421.16 216.81 427.54 209.54 437.62 208.9 452.28 209.16 461.6 203.55 466.32 198.83 465.04 194.63 461.6 192.71 461.6 185.07 458.79 178.31 459.04 170.02 464.27 164.8 472.31 161.48 471.29 156.38 473.97 150.01 488.76 138.03 497.95 132.68 496.93 120.69 495.52 115.72 496.29 99.15 501.52 89.08 506.49 86.4 505.35 81.82 497.44 77.86 492.34 72.89 495.27 61.67 493.23 52.62 498.58 46.76 504.2 41.53 508.66 40.77 512.23 36.31 517.46 31.85 514.53 24.33 519.5 21.01 518.35 13.49 523.97 9.79 525.88 7.5 529.07 7.25 528.05 3.8 532.39 1 540.55 1.89 Z"/>
</g>
</svg>