<?xml version="1.0"?>
<svg xmlns="http://www.w3.org/2000/svg" version="1.2" baseProfile="tiny" fill="#f9c113" width="800" height="447" viewBox="0 0 800 447" stroke-linecap="round" stroke-linejoin="round">
<g fill="#c0392b" id="id_237">
<path d="M 720 199.5 724.22 194.39 727.74 189.93 732.67 184.82 735.49 177.16 734.78 172.05 743.23 166.31 755.91 154.82 799 227.3 738.17 261.11 779.33 329.53 680.23 372.04 600.57 402.8 491.94 438.4 471.36 402.45 388.26 446 343.29 340.94 338.33 325.73 286.12 344.05 171.77 277.35 145.09 282.19 116.11 205.92 68.57 128.31 39.34 104.03 1 72.19 8 68.38 16.25 63.89 48.36 45.68 52.58 21.42 68.07 17.59 90.6 12.49 117.35 7.38 141.29 1 162.41 2.28 232.01 14.52 333.26 73.95 370.8 112.06 397.55 98.01 455.28 92.91 480.63 107.59 491.19 103.12 496.12 112.69 514.42 124.82 518.65 122.27 526.39 114.61 543.29 107.59 564.41 113.33 594.68 128.65 615.8 138.86 634.11 152.27 656.91 213.36 663.09 224.87 704.66 225.09 720.7 202.05 720 199.5 Z"/>
</g>
</svg>