<?xml version="1.0"?>
<svg xmlns="http://www.w3.org/2000/svg" version="1.2" baseProfile="tiny" fill="#f9c113" width="800" height="680" viewBox="0 0 800 680" stroke-linecap="round" stroke-linejoin="round">
<g fill="#c0392b" id="id_253">
<path d="M 427.95 105.82 425.86 105.55 423.72 105.2 422.36 104.95 420.44 105.17 419.45 106.13 418.72 107.9 417.66 109.6 418.27 113 419.51 114.7 420.85 115.6 417.79 117.61 414.24 118.76 411.55 119.17 409.96 119.67 408.02 120.86 406.6 121 405.29 121.11 404.52 121.76 403.37 123.48 402.57 123.98 401.66 125.15 401.35 125.4 399.98 126.72 398.91 128.41 397.83 129.14 396.41 130.34 394.35 130.89 392.28 131.6 391.05 132.19 388.55 132.76 385.79 133.22 384.77 133.53 381.06 133.97 377.3 133.65 374.92 134.08 370.92 134.6 368.44 134.68 366.19 135.21 363.63 135.82 361.49 136.59 358.81 136.67 355.53 136.66 354.02 136.9 351.53 137.72 349.25 137.39 345.32 137.28 343.76 137 341.67 137.13 340.34 137.38 338.26 137.82 335.93 137.54 332.61 138.33 331.13 138.18 329.36 137.55 326.09 137.17 323.16 136.9 320.79 136.37 319.02 136.34 316.63 136.58 316.06 137.15 315.72 138.34 315.65 139.29 315.1 139.85 314.49 140.61 314.51 141.16 315.67 142.25 314.93 143.92 314.79 145.5 315.4 146.3 316.33 147.18 317.02 146.89 317.97 147.37 320.5 148.86 321.66 149.42 325.38 150.63 328.85 151.93 331.56 153.25 333.19 154.68 336.46 155.86 338.48 158.45 339.57 160.73 340.15 161.38 343.74 162.39 344.52 163.22 345.76 164.81 346.44 165.62 348.17 166.51 350.49 168.49 352.75 168.7 358.31 168.38 359.43 169.48 360.84 170.43 362.73 171.33 363.61 172.03 366.86 172.99 367.79 173.39 369.7 174.33 370.51 174.85 372 176.03 372.34 176.4 373.04 178.03 373.78 178.77 374.52 179.16 376.35 180.59 376.92 181.43 381.1 183.54 387.97 188.28 389.66 188.93 391.69 190.47 393.42 193.55 394.84 196.09 396.85 198.4 399.26 200.52 402.97 202.24 409.56 205.55 414.91 208.35 415.53 208.83 419.24 210.36 423.02 210.94 426.82 211.65 428.57 212.15 433.62 213.7 437.74 214.41 442.39 215.28 444.36 215.91 447.94 217.09 453.09 218.63 454.77 218.36 458.49 218.26 461.86 217.86 464.14 217.92 467.94 217.52 472.16 217.54 477.93 217.51 482.95 217.53 486.54 216.46 490.59 216 493.42 215.61 497.16 214.37 498.41 213.7 503.08 211.62 507.39 208.03 510.02 206.87 513.03 205.48 517.34 203.17 519.44 202.67 521.72 201.97 524.11 199.85 527.61 197.91 530.46 196.87 531.7 195.47 532.62 195.11 534.97 195.04 536.12 194.89 538.22 193.61 540.96 191.81 541.65 191.1 544.71 189.28 547.64 188.41 550.04 187.43 553.19 186.36 554.24 185.3 554.36 186.23 555.76 186.71 559.73 188.09 559.6 188.93 560.25 189.59 561.47 190.82 564.88 193.38 567.76 193.04 569.73 192.86 573.42 193.7 579.45 193.05 581.49 192.51 583.74 193.78 585.73 194.89 588.62 195.04 592.13 194.69 593.65 193.1 594.78 191.77 596.31 191.21 597.18 190.36 599.05 190.46 603.93 191.96 605.99 192.37 610.45 192.71 612.69 192.72 617.99 192.81 620.19 192.22 622.31 190.76 623.62 190.11 625.74 189.14 627.56 187.5 629.96 186.94 633.47 186.76 635.47 186.77 636.5 186.47 638.45 185.95 644.11 186.68 645.73 186.25 647.36 186.16 652.69 188.18 655.56 187.77 656.91 187.65 657.55 187.64 660.18 187.17 661.38 186.52 662.83 186.71 664.16 187.04 665.5 187.04 666.19 186.78 668.14 186.45 669.56 186.38 670.23 186.11 673.02 185.76 674.93 185.03 676.78 184.76 677.96 180.49 678.64 179.54 681.34 174.97 683.82 170.98 684.28 173.34 685.07 176.39 694.27 170.98 710.61 166.56 718.45 167.24 719.24 170.09 715.95 172.95 715.84 177.66 709.59 183.37 709.48 185.53 712.66 188.19 706.53 195.37 704.83 200.38 695.97 208.06 688.71 212.29 683.94 218.79 683.14 223.61 680.76 224.7 663.16 228.24 659.42 232.08 650 233.46 635.69 240.26 611.06 252.18 599.37 260.66 597.44 266.77 584.83 271.5 580.21 273.05 572.8 275.54 566.1 281.17 566.33 284.32 571.21 288.47 577.46 295.67 593.46 301.49 600.27 303.57 607.54 307.81 614.8 311.76 623.77 313.04 634.44 316.3 647.95 316.2 669.52 309.19 683.37 302.97 695.74 299.22 704.14 291.43 717.88 286.39 735.25 282.65 750.01 280.87 757.24 282.31 756.16 284.23 753.84 288.37 751.42 292.66 749.66 297.71 745.09 296.75 742.69 299.22 742.43 303.09 741.95 310.09 743.96 326 744.8 333.3 742.23 341.57 738.86 346.66 736.32 352.95 733.21 363.27 733.05 369 735.33 370.44 742.08 366.72 750.39 366.7 758.97 372.2 764.58 377.95 767.49 383.07 765.62 389.59 761.3 395.7 760.14 400.09 764.43 403.25 767.7 406.32 768.73 411.85 769.66 418.92 778.96 415.1 786.74 410.36 792.28 407.95 797.98 406.93 799 413.35 793.34 424.59 788.77 436.94 788.42 451.06 781.44 459.63 777.87 466.71 778.82 472.31 768.54 473.47 758.81 477.95 754.22 485.09 744.85 495.02 739.74 503.1 737.34 511.16 730.79 512.6 726.6 515.25 720.6 520.24 712.66 524.16 709.55 529.19 709.2 529.77 708.3 539.97 705.09 545.37 703.19 548.57 707.56 551.43 713.08 551.59 718.48 553.37 719.88 563.47 712.32 577.47 704.33 591.98 699.13 600.58 690.09 617.2 683.84 628.21 674.55 631.82 662.05 634.64 653.85 638.63 648.72 642.01 650.25 648.21 656.41 657.57 659.19 665.26 676.26 677.81 668.47 678.88 655.01 678.97 651.41 679 639.08 678.84 630.74 678.73 626.03 678.66 625.37 678.63 613.87 677.99 608.77 677.7 591.12 676.72 572.69 678.14 568.54 678.46 561.68 678.67 562.08 675.88 562.1 675.29 561.86 673.97 560.12 673.38 555.72 672.9 554.74 673.04 552.8 672.68 550.03 672.08 548.52 672.04 546.74 672.03 545.39 672.21 543.47 672.78 535.4 675.21 528.3 677.22 525.46 677.49 524 677.53 520.3 677.56 517.99 677.61 516.11 677.38 514.53 676.68 512.52 675.89 511.29 675.24 503.95 671.85 494.83 667.78 489.17 665.25 485.98 663.75 482.39 660.87 476.85 656.36 473.95 654.79 472.08 653.82 467.27 652.74 462.21 651.49 455.62 649.88 454.05 649.22 451.77 647.53 449.95 645.43 446.06 641.37 442.88 637.92 439.02 633.85 438.97 633.79 435.78 630.32 434.2 628.86 431.86 627.48 430.36 626.83 421.83 623.75 410.95 619.5 402.08 615.99 395.53 613.35 393.1 612.55 391.35 612.08 390.94 611.05 390.5 608.5 390.44 606.29 389.87 600.92 389.81 597.77 389.96 592.68 390.4 588.21 391.06 583.09 392.03 576.88 392.12 575.07 392.35 571.87 393.38 565.97 394.05 563.09 394.92 558.48 395.31 554.33 395.45 548.66 395.52 544.65 395.25 539.27 393.92 532.05 391.58 528.44 388.21 522.26 384.54 517.04 383.19 513.51 382.99 512.52 381.34 509.01 380.57 505.13 379.56 502.93 378.7 501.05 371.87 491.97 369.32 489.61 362.49 493.46 360.49 494.6 357.97 495.04 355.55 495.55 354.55 496.03 352.04 497.03 350.99 497.5 350.42 498.19 350.11 498.71 348.71 499.65 347.02 501.74 346.59 502.33 346.05 503.86 345.03 505.32 342.24 506.68 341 507.36 337.95 508.44 337.01 508.99 334.6 509.54 333.38 509.6 330.63 510.82 329.91 511.82 327.27 512.62 326.6 513.27 324.69 514.89 323.64 515.79 322.01 517.72 321.17 518.4 320.67 518.99 321.92 520.72 322.52 521.29 324.3 521.69 327.16 521.96 329.29 522.63 331.17 525.05 331.37 525.58 331.64 526.67 330.89 528.25 330.29 531.5 329.57 533.37 329.31 534.42 328.14 537.71 327.99 538.56 326.48 540.73 325.98 543.92 325.38 545.05 323.67 546.63 323.33 548.5 323.05 549.36 322.67 551.16 321.73 551.83 320.88 552.59 319.47 553.06 316.26 553.48 314.19 554.1 311.74 554.4 308.05 555.38 305.38 555.81 300.12 555.49 296.21 555.59 294.87 556.12 289.76 556.55 286.18 556.71 283.12 557.73 281.49 558.18 277.41 558.54 273.58 559.62 269.34 560.22 263.42 561.59 259.42 563.27 256.7 565.59 255.87 566.73 254.82 565.92 253.94 565.16 253.12 563.91 252.76 563.55 250.44 561.7 247.11 559.99 246.33 559.28 242.58 557.34 240.35 554.68 241.13 553.07 241.56 552.5 242.64 551.32 243.16 550.65 243.38 549.92 243.26 549.22 243.24 548.82 243.61 547.93 243.75 547.36 245.55 546.64 246.31 545.67 247.27 544.82 247.3 544.04 246.85 542.4 246.82 541.84 246.34 540.47 245.88 539.71 245.8 538.47 246.01 537.92 246.09 537.1 246.44 536.14 246.39 535.21 246.91 534.69 247.03 533.54 247.03 532.87 247.19 531.56 247.53 530.89 248.62 530.09 248.98 529.1 248.76 528.45 247.56 526.93 247.56 526.17 247.65 525.62 247.38 524.58 246.92 523.81 247.67 522.2 246.66 520.29 244.74 518.3 243.8 517.08 240.75 515.98 240.01 515.07 239.6 513.1 239 512.21 238.37 510.43 237.01 509.17 234.49 506.84 233.15 505.44 231.49 503.13 227.56 499.98 227.07 498.29 227.87 497.28 228.05 496.67 229.79 496.07 230 495.83 229.92 495.2 229.77 494.57 229.29 493.24 230.01 491.83 230.43 491.26 230.76 490.8 230.96 488.91 231.03 488.12 231.55 487.26 231.58 486.57 231.51 485.15 230.93 484.34 230.87 483.27 230.83 481.7 230.71 481.12 230.07 480.67 229.86 479.9 229.47 478.62 230.98 477.49 231.07 476.7 231.36 475.72 231.83 475.12 232.67 474.13 233.91 473.83 235.15 472.88 237.1 472.06 239.37 471.69 240.28 469.31 240.83 467.86 241.45 467.14 242.04 466.18 242.39 465.07 242.41 463.3 242.32 462.07 242.81 460.07 243.82 458.99 244.42 457.82 244.85 455.51 242.65 452.26 242.73 450.55 242.77 448.79 243.32 445.98 243.47 444.74 243.14 443.29 242.95 442.27 243.33 440.34 243.33 439.49 243.14 437.19 243.07 436.34 242.76 433.63 241.78 430.98 241.37 429.67 240.93 427.1 239.03 421.45 238.21 417.43 237.79 413.61 237.77 410.84 237.57 407.76 237.57 404.78 237.66 400.96 238.1 399.25 238.98 397.53 239.28 396.64 240.93 394 241.27 393.49 239.51 393.83 238.49 394.2 237.66 394.15 233.76 395.68 232.51 395.7 231.01 395.92 230.07 397.11 227.94 398.45 223.84 399.97 220.49 400.29 218.03 400.27 216.72 400.68 212.53 400.76 211.97 399.79 212.14 399.29 211.9 398.72 210.9 397.77 210.85 397.41 210.7 396.24 210.48 395.02 211.95 394.53 212.24 394.13 212.78 393.29 213.27 392.79 213.75 391.84 214.78 390.58 215.2 389.5 215.17 386.91 214.71 385.98 214.4 385.3 214.48 383.98 214.48 383.29 214.8 381.91 214.78 381.06 214.97 379.56 214.85 378.87 215.19 377.2 215.02 376.39 214.61 375.45 213.67 374.13 213.36 373.76 213.07 373.04 212.56 372.04 212.05 371.39 212.05 370.79 211.94 369.96 211.52 368.99 210.64 368.33 209.8 367.6 209.43 366.92 209.01 366.03 208.3 365.27 207.99 364.52 206.78 363.97 205.11 363.04 202.75 361.75 198.75 361.62 196.38 360.01 195.37 359.34 194.98 359.22 193.68 359.19 193 358.75 191.81 357.7 191.24 357.09 190.82 355.94 190.07 354.49 189.34 352.78 188.8 351.51 189.02 350.2 189.41 347.23 190.01 345.31 190.52 343.19 190.7 342.12 190.75 340.75 190.39 339.66 189.9 338.62 188.99 337.16 189.53 336.29 190.35 335.86 190.45 335.43 189.91 334.93 189.35 334.1 188.74 332.84 186.89 331.91 184.67 331.49 184.47 331.03 185.16 330.3 186 329.25 186.01 328.74 185.71 328.14 184.96 327.41 184.46 326.63 184.59 326.04 185.34 325.57 185.94 324.83 185.59 324.1 185.64 323.39 185.33 322.91 184.61 322.13 183.13 321.19 181.91 320.68 180.81 320.1 180.34 319.55 180.13 318.61 180.03 318.27 178.36 318.07 177.07 317.76 176.88 317.48 175.13 315.58 174.22 314.86 172.27 313.98 171.14 314 169.04 313.85 168.36 313.45 165.5 312.76 164.17 312.89 162.92 313.2 162.3 312.86 161.97 311.51 161.35 311.17 160.46 311.23 160.04 311.62 159.93 311.96 158.92 312.43 158.72 312.34 158.49 312.07 158.35 311.85 157.89 311.49 155.95 311.07 154.99 310.74 154.38 310.16 154.09 309.73 153.03 308.94 151.97 308.24 152.12 307.61 151.78 307.05 150.94 307.08 150.26 307.24 149.9 306.83 150.08 306.13 151.49 305.71 151.88 305.21 151.56 304.8 151.21 304.62 149.31 304.67 148.27 304.59 147.46 304.51 146.3 304.42 144.37 303.94 143.52 302.79 143.2 302.61 142.35 302.27 141.91 301.66 140.88 300.87 140.44 300.21 139.4 299.61 138.33 298.36 137.8 298.36 137.38 297.99 137.05 297.71 136.32 296.75 135.81 296.97 135.04 297.43 134.58 297.47 134.03 296.56 133.45 296.59 132.63 296.05 131.67 296.14 130.19 296.39 129.66 296.34 129.04 296.9 128.44 297.02 127.58 296.65 126.85 296.28 125.99 296.28 125.91 296.11 125.68 295.55 124.26 295.58 124.17 294.93 123.83 294.78 122.99 294.78 122.54 295.32 122.61 295.82 122.2 296.1 121.22 295.65 120.49 295.58 118.6 295.26 117.65 294.77 117.3 294.2 116.87 294.06 116.35 293.44 115.17 293.29 113.92 292.92 112.19 291.95 111.58 291.88 109.96 292.5 109.09 292.76 108.43 292.56 107.43 292.24 106.56 291.36 105.68 291.18 105.43 290.65 105.2 289.96 104.56 289.09 103.8 288.67 103.14 287.91 102.23 287 101.33 286.11 101.02 285.21 100.87 283.81 100.72 282.71 99.93 281.21 98.57 279.2 98.15 278.83 97.66 278.54 97.16 278.27 96.48 277.79 95.56 277.37 95.22 276.28 94.61 275.71 93.41 275.6 92.87 275.25 92.83 274.38 92.67 273.71 92.45 273.25 91.93 271.74 91.68 271.06 91.36 269.65 91.04 268.78 90.8 268.01 89.96 265.68 89.44 264.61 89.77 262.35 89.71 261.82 88.59 261.55 88.16 260.69 87.72 260.01 87.71 259.16 87.86 258.4 88.04 257.21 88.04 256.93 88.66 255.48 89.25 254.99 90.31 254.23 90.59 253.88 89.61 252.25 89.95 251.67 89.51 249.46 89.22 248.68 88.68 247.44 87.91 246.59 88.03 245.67 88.45 244.49 88.16 243.51 86.81 242.49 86.12 241.37 85.38 240.54 84.87 239.13 84.19 237.46 83.73 236.46 82.98 235.67 81.89 234.43 81.21 230.58 81.27 229.91 80 228.56 79.11 228.41 78.17 226.43 77.11 224.92 77.19 224.2 76.4 222.88 75.88 221.62 75.74 221.38 74.39 220.21 72.39 219.71 71.05 219.9 69.85 219.64 68.66 219.48 68.23 219.2 67.48 218.32 67 218.55 66.4 218.54 65.47 218.19 63.8 217.25 62.56 217.83 60.9 217.85 59.42 217.77 58.8 217.55 58.41 217.25 58.03 217.18 57.25 217.14 57.36 216.33 57.05 215.4 57.69 214.14 57.82 213.3 57.73 211.63 57.73 210.37 55.58 209.67 56.16 208.25 56.1 207.31 56.43 206.41 55.22 205.48 54.78 204.61 54.35 203.19 54.68 202.24 51.91 202.37 49.78 202.01 48.87 201.58 48.4 200.8 48.12 198.8 48.54 198.18 50.46 197.03 51.25 196.56 52.58 196.2 55.58 196.02 56.45 195.68 57.53 193.98 57.7 193.5 59.09 192.2 60.07 192.1 60.44 191.04 60.31 189.89 60.32 188.59 59.1 187.52 59.1 186.46 60.31 185.5 60.28 184.64 60.34 183.69 61.55 182.57 62.08 182.12 64.1 181.56 64.5 180.99 64.22 179.27 64.64 178.58 65.03 176.53 66.43 174.7 69.3 173.37 69.68 172.56 70.13 172.14 71.24 171.82 71.63 171.55 71.86 170.94 72.7 169.38 73.31 168.47 73.56 167.86 72.68 167.28 72.41 166.98 71.61 166.72 70.15 166.29 70.18 165.44 69.6 164.61 69.47 162.53 68.91 160.93 68.92 159.93 68.94 158.78 69.6 157.84 70.09 156.68 70.38 155.67 70.6 154.28 71.07 150.67 70.78 149.83 70.46 148.27 70.28 147.69 70.07 145.6 69.98 145.02 69.23 143.1 68.9 142.28 67.67 140.94 67.39 140.44 66.67 139.69 66.13 137.48 65.93 136.83 65.34 134.9 65.17 134.41 64.4 132.44 63.78 131.69 63.06 130.75 61.73 129.83 60.87 129.1 59.85 127.9 59.66 127.74 59.31 128.22 59.14 128.89 58.98 129.94 58.68 130.4 57.47 131.25 57.15 131.56 56.84 132.12 56.5 132.4 55.94 132.71 56.15 133.43 56.04 133.79 55.5 133.81 55.06 133.62 54.5 133.53 54.17 133.26 53.76 133.01 53.27 132.96 53.23 133.21 53.23 133.56 53.04 133.8 52.55 133.95 51.93 133.06 51.62 132.84 50.92 132.88 50.48 132.92 50.13 132.82 49.6 132.61 49 132.74 48.29 133.28 47.4 132.96 46.33 132.82 45.03 132.62 43.11 132.93 41.55 133.52 40.45 134.02 39.91 131.91 37.93 131.29 36.93 130.89 36.63 129.95 35.81 129.34 33.53 127.34 32.85 126.82 31.92 126.32 30.62 124.99 29.92 124.42 29.02 122 28.79 121.5 27.23 120.1 26.23 119.33 25.98 117.96 26.34 116.86 26.67 115.74 26.85 114.89 27.05 113.25 27.04 112.68 26.1 111.62 24.61 110.98 23.29 109.88 22.03 109.24 20.92 108.6 20.44 108.96 18.52 108.99 16.36 109.48 15.39 110.26 15.2 111.63 15.29 112.85 14.3 114.92 13.35 117.06 12.69 117.3 12.38 117.24 11.25 116.82 10.44 116.43 8.6 117.3 6.95 116.89 6.26 116.48 4.47 116.66 3.55 116.06 3.09 115.73 4.15 115.41 4.87 114.9 5.17 114.36 6.84 113.56 7.84 112.95 9.09 111.07 9.1 110.36 9.31 109.53 11.22 108.24 12.22 107.44 12.84 106.56 13.83 105.9 15.51 104.45 16.23 103.68 16.68 102.96 18.48 101.95 19.99 101.21 20.08 100.78 20.97 99.92 21.08 99.33 21.39 97.92 21.01 97.17 20.88 96.45 21.37 94.12 21.8 93.2 22.27 91.67 22.81 90.69 22.77 88.86 22.66 87.61 22.56 86.64 22.8 84.26 21.62 84.15 19.76 84.54 18.73 84.16 18.61 83.59 17.31 83.03 16.09 82.5 15.81 81.99 15.47 79.73 15.98 79.13 16.37 77.85 16.91 77.08 17 76.26 15.17 74.19 13.44 73.14 11.84 71.89 10.7 70.54 9.75 69.42 9.2 67.74 7.47 66.92 5.46 65.59 5.16 62.09 5.3 60.88 5.15 59.31 3.84 58.05 3.8 57.49 4.22 55.18 4.98 52.79 6.09 51.87 4.64 51.22 1 49.97 1.34 49.46 1.77 49.08 2.44 48.45 3.08 48.1 3.44 47.06 3.68 46.31 3.86 46.07 4.05 45.6 4 45.21 4.32 45.06 4.31 44.76 3.56 44.6 3.51 44.27 3.76 44.27 4.02 44.02 4.13 43.54 3.82 43.41 3.77 42.93 4.02 42.6 3.95 42.3 4.13 42.19 4.48 41.82 4.73 41.41 4.37 41.05 4.57 40.7 4.61 40.08 4.84 39.37 5.36 38.3 5.89 38.06 7.16 37.69 8.75 36.66 9.86 35.93 9.5 35.4 9.62 35.05 9.83 34.28 10.13 33.36 11.08 32.76 11.4 31.85 12.17 31.41 13.78 31.11 16.42 29.63 16.59 28.46 17.69 28.03 20.41 26.7 21.64 25.38 22.15 24.98 23.22 24.58 23.78 24.77 24.97 25.03 25.99 24.55 26.15 23.95 26.57 23.31 27.05 21.9 28.04 21.36 29.78 20.6 31 19.73 32.59 17.5 35.22 14.87 36.01 14.16 36.71 13.3 37.52 11.92 39.36 11.3 41.76 10.1 44.16 8.27 44.75 7.11 45.28 6.65 47.41 5.4 48.26 4.98 49.69 4.81 51.97 4.49 53.89 3.87 56.18 3.11 57.75 2.91 60.17 1.83 60.81 1.77 62.35 2.08 63.42 2.12 65.35 1.89 67.97 2.12 69.88 3.36 71.54 5.25 72.74 6.78 74.85 9.46 75.86 11.37 76.78 13.29 77.94 14.68 79.03 16.36 79.13 17.82 79.37 19.71 80.36 21.32 81.41 23.33 81.86 23.81 84.07 25.18 85.03 25.58 85.54 25.89 85.71 26.27 87.48 27.6 89.96 27.96 91.47 27.56 96.68 26.43 97.32 25.62 97.72 24.7 98.1 22.09 99.54 19.74 101.85 18.79 102.7 17.83 104.37 18.03 105.5 18.54 108.93 18.46 109.05 17.06 109.09 15.41 109.67 13.98 110.18 11.43 110.33 9.54 110.54 7.15 111.27 6.54 113.04 5.78 116.02 5.15 116.72 4.86 118.48 4.16 119.2 3.77 119.71 3.55 123.59 3.97 125.82 3.73 127.3 3.2 127.64 2.93 129.4 2.5 129.77 2.43 131.32 2.39 132.22 2.34 132.96 1.77 133.44 1.7 133.71 1.8 134.69 1.68 135.84 1.5 136.73 1.84 137.13 2.22 139.07 2.93 139.32 3.18 139.55 3.21 139.99 3.39 140.3 3.04 140.85 3.11 141.2 3.46 141.77 3.58 142.16 3.44 142.32 2.82 142.59 2.37 142.89 1.98 143.44 1.77 143.98 1.88 144.33 1.92 144.79 1.79 145.51 1.18 146.11 1 146.72 1.02 147.07 1.45 147.56 1.77 148.14 2.07 148.64 2.13 149.3 2.19 149.93 2.25 150.42 2.16 150.96 2.43 151.66 3.99 152.4 4.71 152.75 5.3 152.91 6.56 152.91 7.21 153.23 8.15 154.7 8.86 156.4 9.53 157.99 9.87 158.99 10.74 161.25 11.57 164.88 13.37 166.23 15.76 167.09 17.08 170.18 18.08 170.73 19.71 171.1 20.29 172.92 21.13 173.62 21.44 174.8 22.78 175.17 23.09 176.08 24.59 176.57 25.14 177.47 25.51 178.26 25.73 179.2 27 179.54 27.51 180.59 28.45 183.48 29.94 184.64 29.3 185.73 28.04 187.25 27.54 188.46 27.29 190.55 26.69 192.08 27.29 193.54 27.16 195.32 27.35 196.83 27.45 198.46 28.62 199.25 29.1 200.05 30.43 201.21 30.75 202.19 31.25 203.6 32.03 204.04 32.34 206.6 33.02 208 32.77 208.81 32.65 209.71 32.43 210.37 32.31 212.06 32.75 213.42 33.09 214.09 33.87 216.04 35.36 217.48 36.21 218.85 37.25 220.81 38.74 222.49 40.06 223.99 40.65 225.46 40.87 227.67 41.85 229.24 42.08 231.49 42.61 232.75 42.96 233.76 42.31 235.91 40.97 236.23 39.82 237.47 37.95 238.52 35.93 239.39 34.58 241.68 32.51 243.3 31.47 244.55 28.83 245.58 26.92 246.94 25.08 248.84 24.14 249.61 24.1 250.42 23.53 252.16 21.34 253.13 20.74 255.83 20.03 259.25 19.11 260.84 18.88 263.15 19.88 264.51 20.79 267.75 21.29 269.63 21.1 272.05 20.22 273.7 19.77 276.63 18.58 277.7 18.2 278.45 18.13 279.22 18.72 282.23 19.71 283.17 20.04 285.65 20.93 287.26 20.77 290.44 21.28 291.45 21.69 293.15 22 297.38 22.98 298.26 23.6 299.62 23.56 300.69 23.23 301.62 22.56 303.4 21.71 304.27 21.87 304.51 21.39 305.05 21.52 305.74 21.76 306.57 21.51 306.97 21.78 307.94 21.38 308.59 21.28 309.17 21.18 309.39 21.04 309.89 21.09 310.71 20.68 311.23 20.71 312.88 20.87 313.68 21.42 314.76 21.64 315.52 21.9 316.73 23.92 316.94 24.77 317.71 25.33 319.52 24.87 321.04 24.76 321.56 25.08 322.59 27.12 322.42 28.25 322.74 28.8 323.97 29.94 324.65 30.47 325.57 31.75 327.09 32.4 327.55 32.9 328.21 34.79 328.7 35.44 328.82 35.97 328.58 37.17 328.65 37.65 328.91 39.28 329.31 40.15 330.87 43.11 332.25 44 333.35 44.61 334.01 44.54 335.58 44.42 338.57 43.93 339.08 44.06 341.79 44.25 344.01 44.85 347.45 45.88 347.7 48.8 347.85 50.63 348.42 52.69 348.82 54.06 349.86 56.27 349.46 59.41 349.34 61.81 349.69 63.88 350.16 65.52 350.84 67.05 352.46 67.77 353.27 70.09 354.25 70.51 357.55 70.62 358.55 71.1 361.73 71.41 364.83 71.69 367.89 71.71 371.01 71.5 373.52 71.5 375.63 71.22 377.53 70.85 379.97 70.69 381.44 70.02 384.92 69.33 387.99 68.14 390.04 66.69 391.7 65.85 392.67 65.27 394.83 64.4 396.73 64.31 398.07 64.33 400.24 64.64 403 64.12 405.47 63.37 406.1 63.55 406.17 64.53 406.21 65.43 406.19 66.95 405.49 68.14 405.29 68.84 405.34 70.78 405.61 71.47 406.32 72.84 406.63 74.33 405.48 75.21 403.6 76.23 403.16 76.9 401.75 77.57 400.97 78 399.9 79.22 399.46 80.1 399.25 81.42 399.9 82.98 400.83 83.64 401.94 84.51 402.5 85.26 403.81 86.31 404.66 87.25 405.73 88.41 406.56 89.47 406.92 90.35 407.26 92.26 408.36 93.58 410.37 96.07 410.8 97.92 411.43 98.33 412.61 99.31 414.63 98.26 416.76 97.55 417.84 97 419.59 96.56 421.61 95.9 422.73 95.8 425.05 95.71 428.72 95.37 429.93 97.46 429.97 99.43 430.71 101.46 431.2 103.09 431.16 104.31 430.35 105.82 427.95 105.82 Z"/>
</g>
</svg>