<?xml version="1.0"?>
<svg xmlns="http://www.w3.org/2000/svg" version="1.2" baseProfile="tiny" fill="#f9c113" width="800" height="589" viewBox="0 0 800 589" stroke-linecap="round" stroke-linejoin="round">
<g fill="#c0392b" id="id_265">
<path d="M 382.02 156.12 384.7 155.23 387.64 153.32 389.81 152.11 392.08 151.22 396.69 150.98 398.29 150.37 402.17 148.28 403.21 147.64 403.93 144.91 405.43 143.9 410.48 142.04 411.7 141.44 413.12 140.77 414.31 140.42 418.99 137.16 424.24 134.59 425.8 133.2 428.22 132.49 430.1 131.88 430.86 132.09 432.25 132.06 433 132.59 433.61 132.2 434.37 131.53 435.11 126.01 434.83 124.69 434.24 123.55 432.95 120.15 434.39 107.28 436.09 101.65 436.51 97.8 438.41 92.47 440.81 84.82 441.24 83.43 443.71 78.12 444.66 73.72 445.52 72.18 448.86 70.22 449.42 68.69 450.49 67.77 451.52 67.07 452.89 65.12 452.44 64.52 452.51 63.05 453 61.93 454.43 60.01 454.95 58.3 456.53 58.1 457.4 57.81 458.38 56.93 460.55 55.81 460.4 51.33 460.84 47.18 462.08 42.5 462.01 40.8 463.36 36.88 464.9 33.05 466.08 27.42 465.71 26.65 466.07 26.34 466.61 26.24 467.21 26.99 468.85 27.09 469.29 25.36 468.64 24.95 467.88 24.99 466.96 24.72 466.96 24.27 468.38 23.83 468.6 23.23 468.9 21.89 468.74 20.79 468.9 19.77 469.1 19.82 469.24 19.97 469.66 20.22 469.87 20.16 469.99 20.19 470.46 20.45 470.76 20.54 471.02 20.66 471.45 20.92 471.67 20.97 471.84 20.96 472.1 20.78 472.31 20.56 472.47 20.27 472.53 20.05 472.64 19.52 472.63 19.29 472.7 18.83 472.64 18.33 472.58 18.19 472.48 18.08 472.35 17.64 472.38 17.5 472.43 17.4 472.61 17.33 472.95 17.38 473.85 17.78 473.92 17.92 473.87 18.23 473.94 18.35 474.02 18.37 474.2 18.37 474.44 18.25 474.86 18.1 475.31 17.77 476.03 17.06 476.64 16.57 477.17 16.31 477.44 16.26 478.01 16.22 478.22 16.27 479.32 16.74 479.44 17 479.48 17.32 479.55 17.5 479.61 17.53 479.7 17.53 479.86 17.47 480.36 17.44 480.55 17.4 480.75 17.2 480.76 17.13 480.73 17.06 480.1 16.46 479.9 16.19 479.99 15.92 480.1 15.77 480.2 15.47 480.33 15.47 480.52 15.54 480.82 15.85 480.99 15.92 482.02 16.17 482.75 16.26 483.07 16.21 483.31 16.12 483.57 15.96 483.69 15.77 483.73 15.59 483.65 15.43 483.71 15.01 483.84 14.62 484.11 14.2 484.28 14.07 484.58 13.58 485.13 12.96 485.56 12.66 485.94 12.34 486.16 12.22 486.55 12.45 487.15 13.03 487.27 13.28 488 14.27 488.11 14.51 488.35 14.74 488.55 14.88 489.56 14.58 489.81 14.57 490.1 14.72 490.22 14.71 490.86 14.54 490.99 14.42 491.09 14.44 491.15 14.66 491.09 14.91 490.77 15.79 490.69 17.13 490.98 17.62 491.19 17.82 491.43 17.94 492.27 18.2 492.84 18.23 493.27 18.22 493.56 18.27 493.82 18.24 494.43 18.29 494.65 18.28 494.83 18.2 494.91 17.98 495.05 16.75 494.97 16.57 494.94 16.27 494.99 15.94 495.09 15.52 495.57 15.17 495.9 14.88 495.98 14.68 496.09 14.74 496.2 14.88 496.38 15.3 496.52 15.51 496.89 15.78 497.04 15.78 497.32 15.47 497.66 15.35 497.83 15.42 498 15.57 498.17 15.77 498.52 15.84 498.86 15.71 499.01 15.57 499.44 15.35 499.72 15.37 500.01 15.43 500.73 15.64 501.16 15.7 501.86 15.64 502.22 15.67 502.48 15.72 502.87 15.83 503.07 15.95 503.24 16.13 503.29 16.43 503.24 16.69 502.95 17.06 502.75 17.72 502.81 17.83 503 17.97 503.34 18.04 503.74 18.04 504.17 18 505.14 17.48 505.22 17.33 505.33 16.95 505.3 16.04 505.32 15.77 505.41 15.55 505.86 15.43 506.3 15.49 506.43 15.55 506.55 15.64 506.74 15.72 506.78 15.69 506.92 15.66 507.14 15.69 507.35 15.74 507.58 15.84 508.38 16 508.86 16.18 509.06 16.3 509.4 16.44 510.2 16.69 510.69 16.8 511.85 16.85 512.15 16.9 512.46 16.84 512.62 16.69 512.62 16.49 512.47 16.28 511.91 14.97 511.95 14.52 512.01 14.2 512.1 13.91 512.37 13.73 513 13.54 513.84 13.56 514.36 13.61 516.24 13.31 517.44 13.27 517.54 13.23 517.58 13.14 517.71 13.02 517.93 12.95 518.27 12.79 518.46 12.86 518.66 13.14 518.78 13.58 518.77 13.86 518.89 14.21 519.03 14.32 519.53 14.5 519.62 14.49 519.71 14.44 519.81 14.27 520.59 13.8 521.78 13.23 522.7 12.95 523.07 13 523.15 13.11 523.13 13.31 523.02 13.53 522.82 13.65 522.49 14.04 522.48 14.26 522.69 14.43 523.16 14.48 523.39 14.52 524.07 14.42 524.36 14.49 524.66 14.68 524.87 14.98 525.17 15.26 525.5 15.47 526.01 15.73 526.23 15.79 526.43 15.78 526.96 15.64 527.17 15.54 527.26 15.38 527.31 14.91 527.42 14.75 527.54 14.63 528.03 14.45 528.43 14.41 529.03 14.46 529.73 14.74 530.02 14.97 530.24 15.09 530.43 15.1 530.81 14.9 531.1 14.58 531.3 14.43 531.41 14.24 531.4 14.12 530.99 13.81 530.59 13.3 530.69 13.03 530.91 12.66 531.36 12.4 532.05 11.94 532.83 11.65 533.06 11.59 533.22 11.57 534.51 12.63 534.6 12.74 534.71 12.82 534.82 12.79 535.06 12.14 535.21 11.99 535.7 11.76 535.96 11.72 536.24 11.72 536.45 11.75 537 11.9 537.46 12.19 537.58 12.31 537.54 12.54 537.28 12.68 537.23 12.79 537.22 13.08 537.33 13.23 537.4 13.4 537.62 14.06 537.78 14.23 538.11 14.44 538.26 14.66 538.35 14.86 538.58 15.11 538.64 15.12 538.75 15.09 538.89 14.94 539.47 14.51 539.61 14.28 539.72 14.23 540.1 14.16 540.33 14.15 540.4 14 540.55 13.38 540.61 13.01 540.75 12.65 540.95 12.39 541.07 12.18 541.45 12.02 541.77 11.74 542.09 11.71 542.29 11.72 542.63 11.6 542.79 11.7 542.96 11.93 543.34 12.32 544.09 12.72 544.7 12.97 545.07 13.16 545.46 13.25 545.7 13.25 547.08 12.9 547.42 12.74 547.78 12.34 547.94 12.29 548.11 12.06 548.12 11.8 547.67 11.32 547.42 11.13 547.32 10.97 547.14 10.79 546.79 10.32 546.72 10.12 546.74 9.91 546.89 9.53 547.2 9.16 547.53 8.66 547.81 8.31 548 8.17 548.57 7.61 548.83 7.59 549.17 7.63 549.35 7.63 549.73 7.56 550.18 7.07 550.54 6.82 550.96 6.44 551.24 6.31 551.44 6.28 551.61 6.31 551.77 6.39 551.78 7.28 551.89 7.66 552.55 8.34 552.98 8.63 553.3 8.8 553.61 8.88 553.84 8.88 554.27 8.93 554.65 9.08 555.17 9.16 555.4 9.15 555.53 9.09 555.74 8.83 555.99 8.62 556.66 8.17 557.08 7.98 557.39 7.96 557.53 7.89 557.6 7.68 557.58 7.53 557.48 7.3 557.5 7.17 557.62 6.99 558.38 6.35 558.63 6.1 558.86 5.93 559.87 6.02 560.58 6.22 561.12 6.27 561.3 6.24 561.49 6.13 561.95 5.56 562.07 5.34 561.99 5.19 561.9 5.14 561.72 5.1 561.58 5.02 561.54 4.94 561.61 4.67 562.33 3.32 562.75 2.72 562.86 2.48 563.16 2.07 563.36 2.12 563.71 2.65 564.49 3.56 564.77 3.84 565 3.89 565.19 3.9 565.45 3.67 565.59 3.47 565.8 2.94 565.88 2.9 565.9 2.86 566.08 2.81 566.23 2.83 566.41 2.97 566.48 3.07 566.5 3.35 566.48 3.42 566.42 3.45 566.19 3.47 566.13 3.56 566.1 3.68 566.19 3.85 566.37 4.04 566.56 4.11 566.79 4.14 567.05 4.14 567.19 4.21 567.44 4.2 567.89 4.01 567.98 4.04 568.04 4.14 568.01 4.38 567.99 4.44 567.91 4.52 567.86 4.69 567.95 4.93 568.11 4.96 568.23 4.94 568.39 4.81 568.95 4.53 569.23 4.26 569.51 4.05 570.27 3.79 571.5 3.53 572.07 3.59 572.32 3.68 572.39 3.78 572.56 3.87 572.78 3.91 573.08 3.91 573.5 3.78 574.07 3.81 574.39 3.78 574.89 3.64 575.56 3.23 575.85 3.1 576.19 3.04 576.57 3.05 576.71 3.03 576.8 2.93 576.83 2.79 576.79 2.55 576.69 2.39 576.63 2.04 576.72 1.58 576.72 1.38 576.8 1.18 576.97 1 577.84 2.86 578.45 3.76 580.33 5.23 581.7 6.64 585 8.83 585.35 10.35 585.05 11.81 587.13 13.98 587.66 14.81 588.51 15.63 589.27 19.53 590.72 20.63 591.94 21.34 593.68 21.21 598.11 19.79 600.79 19.33 602.19 19.76 605.08 20.36 606.59 21.12 608.54 21.34 614.34 22.92 615.96 23.2 619.34 25.01 621.99 25.48 626.68 25.53 628.59 25.15 632.12 24.16 634.32 23.37 635.91 23.43 637.77 24.36 640.27 26.42 639.78 27.5 640.04 28.85 640.52 29.56 641.86 30.66 645.59 30.89 647.03 30.95 650.27 31.67 651.32 32.95 653.71 36.06 654.15 36.65 654.44 37.58 654.14 38.51 653.67 40.22 653.22 40.95 652.78 41.82 653.34 42.53 654.22 43.16 654.43 43.62 654.32 45.03 654.86 46.2 655.49 47.67 655.91 48.96 656.43 49.3 656.71 49.84 657.44 49.89 657.9 50.16 659.78 50.68 660.22 50.99 660.94 51.01 661.71 51.28 662.17 52.04 663.51 51.88 664.68 52.32 666.54 52.32 668.98 52.04 669.98 52.35 670.84 52.67 672.11 52.66 672.97 52.67 675.61 52.42 679.77 52.16 680.05 52.43 681.16 52.39 682.27 51.83 684.58 51.38 685.58 51.69 687.11 51.58 689.58 51.82 690.96 51.2 694.25 51.59 696.51 51.56 698.39 51.15 700.11 50.85 701.28 50.13 701.97 50.37 703.19 50.92 705.03 50.48 709.91 51.1 712.78 50.55 715.87 49.86 717.73 49.98 718.71 51.3 722.29 51.28 725.83 50.58 729.86 50.89 736.26 52.09 738.76 52.18 740.77 52.19 745.09 52.64 749.34 52.83 753.77 53.82 758.18 54.37 759.92 54.55 761.75 54.53 763.66 54.49 766.82 55.66 768.91 55.62 770.95 55.55 772.55 56.11 773.85 56.73 775.4 56.66 777.46 56.76 779.24 57.59 781.21 57.59 783 57.48 784.22 57.19 784.87 56.29 788.06 55.46 791.1 55.7 792.58 56.33 793.8 56.59 795.3 56.51 795.49 56.38 797.99 56.27 799 56.42 798.09 57.7 797.78 58.5 797.82 59.54 796.16 63.12 794 68.17 793.19 71 792.46 71.95 792.8 73.98 792.02 75.6 789.62 77.5 788.86 78.88 786.15 82.13 782.38 84.69 781.29 86.59 779.08 89.09 778.19 91.42 776.91 92.67 773.37 93.2 767.93 94.35 762.4 97.05 763.63 97.95 764.14 98.83 765.05 99.38 765.28 99.84 766.06 100.23 766.65 101.49 767.99 101.69 769.86 102.9 771.09 104.47 771.74 105.67 770.93 106.78 770.17 108.16 770.31 109.69 770.13 110.64 769.59 111.25 768.91 111.59 768.3 111.91 767.16 112.73 766.13 114.42 765.87 115.08 765.78 116.52 765.54 117.47 765.15 119.22 764.58 119.56 763.7 119.78 763.09 120.33 763.48 121.54 763.28 122.36 762.45 122.57 760.28 123.3 758.31 123.76 757.4 124.05 756.15 124.41 753.77 124.94 752.59 125.07 751.69 124.66 750.87 124.79 750 125.82 749.1 127.12 746.82 127.85 745.54 129.29 744.59 130.71 740.95 131.69 739.93 132.38 738.5 132.95 737.37 134.28 735.61 135.42 734.69 135.98 733.91 136.12 732.87 136.39 731.16 135.68 730.77 135.79 730.87 136.29 730.65 136.55 730.36 137.05 730.1 137.34 729.76 137.58 729.27 137.58 728.92 137.75 728.3 137.87 727.4 138.08 727.76 139.21 727.46 139.46 728.05 140.09 726.94 140.81 727.27 141.24 727.01 141.77 725.67 142.36 725.03 142.58 724.55 143.25 724.63 143.99 724.76 144.61 724.46 144.59 722.92 144.44 722.36 145.71 721.28 145.43 720.37 145.84 720.19 146.51 719.09 146.36 718.31 146.36 717.82 147.78 717.29 149.46 717.17 149.78 716.05 149.97 715.26 150.27 713.73 150.76 713.08 150.8 713.34 151.72 712.91 152.19 712.18 152.3 712.1 152.83 711.4 152.75 710.13 152.14 709.41 152.8 708.55 152.98 708.22 153.74 707.25 153.77 706.06 154.86 705.45 156.05 704.88 157.43 704.56 158.82 704.91 159.54 704.6 161.19 703.76 162.4 703.46 163.52 702.31 165.18 698.92 167.22 697.29 170.27 695.84 171.07 692.41 173.49 691.32 174.48 690.2 176.96 686.81 180.15 683.24 182.2 681.29 184.01 677.49 187.21 673.41 189.58 671.4 191 669.64 192.76 664.6 197.75 662.25 198.86 660.62 199.19 658.56 200.13 656.99 199.98 653.58 201.12 651.12 200.87 649.44 201.24 644.77 203.07 642.07 204.38 637.48 206.76 635.49 207.78 630.78 207.25 624.33 210.32 620.77 211.34 615.27 214.18 609.2 217.11 606.46 217 603.24 218.61 601.74 218.83 599.33 220.67 596.87 222.87 591.88 224.46 590.54 224.85 586.76 225.48 585.71 226.89 584.26 229.54 582.34 230.87 581.07 231.51 580.57 233.45 579.94 234.86 579.42 236.74 578.98 238.14 578.02 238.92 576.6 241.3 576.28 242.55 575.93 244.55 574.07 246.51 576.12 247.67 577.59 247.56 579.1 246.89 580.32 246.71 581.32 247.43 582.01 248.33 583.5 249.22 584.17 249.62 585.11 249.99 586.55 250.89 586.98 252.61 587.78 252.76 588.03 253.98 588.24 254.96 590.01 255.41 590.97 255.68 593.98 256.55 596.12 257.46 597.08 258.95 598.65 260.18 598.11 261.33 598.34 262.59 597.23 263.69 597.43 266.61 598.18 268.08 598.03 269.31 597.71 270.36 597.76 272.76 597.5 274.11 594.54 275.84 592.48 278.2 589.47 281.48 586.65 283.86 586.57 284.57 584.83 285.27 583.27 286.84 582.76 288.36 580.47 290.99 579.86 291.75 576.57 293.94 574.79 294.88 575.33 296.87 571.92 299.89 570.75 301.02 570.78 303.48 569.63 305.35 568.31 308.33 567.65 310.32 566.4 311.48 564.29 312.99 560.83 315.69 557.85 317.05 554.74 317.34 557.44 321.12 556.97 325.17 557.29 326.29 558.88 325.26 560.4 324.83 561.43 324.58 562.66 323.41 563.18 323.31 564.66 323.55 565.83 323.65 566.96 323.03 567.76 322.56 568.47 322.9 569.95 322.67 570.91 322.46 571.11 323.22 572.16 322.81 573.25 322.44 574.28 322.04 574.58 321.04 573.83 320.67 574.27 320.07 575.52 319.76 576.56 317.76 577.48 317.13 578.06 317.06 579.88 317.61 580.48 318.01 581.35 317.24 582.08 317.41 582.22 318.05 582.72 318.57 583.43 318.55 584.41 318.45 585.5 318.54 586.95 320.47 588.19 322.46 588.47 323.73 589.84 325.77 591.64 326.59 593.26 327.25 596.67 329.04 596.74 330.37 598.33 332.13 599.37 334.11 600.43 334.39 602.09 337.6 603.54 341.03 606.25 345.17 608.54 345.38 613.45 344.91 615.69 345.77 617.42 346.15 620.9 346.78 623.12 346.54 628.54 346.1 630.05 346.56 632.74 346.56 634.17 346.45 638.6 345.99 640.63 346.06 642.59 346.25 644.41 345.23 645.82 343.68 648.44 343.18 650.73 342.67 651.55 342.46 654.5 341.8 655.98 341.29 660.88 341.41 662.82 340.58 664.2 340.31 666.55 340.03 671.41 340.85 674.75 340.51 676.62 340.17 677.74 339.12 681.52 338.45 683.47 337.69 685.51 337.42 686.4 337.42 689.67 337.35 691.88 336.9 692.91 336.2 694.53 335.79 699.12 335.58 700.26 334.75 702.54 335.15 705.36 335.88 708.41 335.8 711.7 336.39 714.92 337.39 715.07 339.53 716.89 342.32 718.67 344.16 720.03 347.36 721.25 348.39 722.72 349.06 723.97 352.64 723.16 356.42 722.72 360.26 724.02 363.62 723.28 367.98 722.68 369.71 722.51 372.29 722.71 374.47 722.35 376.81 722.37 378.19 721.87 379.91 721.83 380.41 720.68 382.46 720.41 383.68 720.64 384.49 721.03 386.12 721.67 388.24 720.64 390.24 719.72 390.42 718.51 390.31 717.25 390.19 716.28 390.06 715.17 389.49 714.24 388.89 713.57 388.06 712.4 388.03 711.26 388.36 709.88 389.54 709.01 389.78 708.33 389.72 707.29 389.49 706.25 389.91 705.67 390.64 705.16 391.49 704.85 392.68 704.11 392.95 703.02 392.73 702.34 392.07 701.29 391.93 700.7 392.59 699.86 392.24 699.41 392.2 698.95 391.71 695.23 390.35 694.48 389.64 692.76 388.99 690.56 389.32 688.69 389.55 688.19 389.37 687.26 389.49 685.85 390.59 684.12 390.68 681.17 390.77 680.45 390.9 677.1 391.72 676.45 392.23 673.62 393.25 669.34 393.7 661.93 392.9 660.95 393.32 659.57 394.06 656.22 395.41 654.88 395.96 649.17 397.17 645.79 398.62 644.39 399.78 644 404.34 643.71 407.96 642.74 412.84 641.63 415.58 641.56 418.72 641.32 421.4 634.76 421.56 632.6 420.58 629.42 420.19 627.78 422.03 623.37 423.85 620.62 428.34 619.88 433.34 619.12 435.1 617.89 436.64 607.93 438.81 605.05 439.56 600.32 438.87 596.92 436.34 596.6 435.6 595.63 435.01 593.78 434.26 589.57 431.63 588.71 430.72 586.69 426.87 584.79 423.8 584.35 420.18 584.16 417.39 582.06 414.18 579.86 411.53 578.1 407.84 576.16 404.19 572.13 399.08 569.83 396.15 566.65 392.53 563 390.16 557.99 389.72 554.3 390.16 552.26 390.09 549.32 389.5 548.1 389.61 543.47 391.68 540.47 392.06 536.09 393.5 532.41 394.7 528.06 395.32 525.31 395.63 523.69 396.43 519.63 398.83 518.62 399.71 517.49 401.93 512.89 405.41 508.3 407.72 504.79 408.89 503.23 411.54 501.91 413.18 500.4 414.55 495.37 419.57 492.33 423.83 489.99 425.49 486.66 426.94 484.78 427.98 483.85 430.67 483.05 431.9 482.75 433.05 480.8 433.95 478.51 433.46 477.45 433.1 475.41 433.88 474.42 434.63 472.08 437.15 466.87 439.69 464.77 440.53 464.45 442.76 459.39 445.58 456.31 446.16 454.86 447 454.23 448.74 452.43 449.89 451.86 451.64 451.45 453.11 451.22 453.78 451.91 454.8 449.79 456.19 446.75 458.17 444.32 458.87 443.3 459.34 442.32 461.38 441.87 462.73 441.79 463.93 441.41 464.59 442.1 465.27 441.62 466.05 440.94 466.77 440.61 466.99 440.74 467.56 440.27 468.17 440.36 469.09 440.94 469.34 440.74 470.27 440.24 470.74 439.76 470.75 439.87 471.37 441.29 471.68 441.32 472.25 440.7 472.53 440.79 473.29 440.42 474.19 440.09 474.65 439.63 476.09 438.94 478.07 437.72 478.73 436.45 479.93 435.62 480.67 434.97 481.63 431.57 480.82 429.03 480.64 427.29 480.54 424.98 479.97 423.07 479.18 422.09 479.35 420.62 479.39 417.04 478.75 414.96 478.28 413.02 479.11 407.81 483.34 402.36 487.12 400.78 487.18 396.24 488.96 394.3 488.9 392.3 487.6 389.27 486.94 387.38 485.93 385.91 484.82 383.61 481.62 381.79 480.42 379.67 479.87 378.8 481.07 374.71 482.42 372.62 485.05 374.24 486.38 373.02 488.62 364.91 491.75 359.4 495.99 355.88 499.54 351.34 502.26 350.07 503.96 346.93 507.7 344.3 511.83 342.01 516.22 338.44 516.76 336.68 517.81 330.65 520.49 329.43 520.94 327.34 521.99 325.32 522.83 322.97 524.21 319.25 524.56 316.77 523.93 315.13 524.37 314.27 524.35 313.75 524.06 312.86 524.3 311.74 524.19 308.53 522.89 307.03 522.89 305.79 522.77 304.49 523.06 303.94 525.86 302.58 526.08 300.41 526.18 298.73 525.66 295.52 524.25 292.78 524.69 291.11 524.19 289.37 522.78 285.95 520.6 282.91 517.64 280.33 515.51 278.43 514.24 277.36 512.83 277.22 512.02 278.19 510.54 279.31 509.33 279.6 508.6 279.22 507.35 278.69 506.68 277.83 505.71 277.05 504.97 273.89 502.4 272.89 501.24 272 500.26 271.05 499.78 269.64 498.16 269.38 497.79 268.27 495.09 267.38 494.24 267.25 492.69 266.97 491.88 266.67 491.39 267.17 489.44 266.38 488.52 265.83 486.82 265.9 486 265.3 485.19 265.6 483.69 266.84 483.15 266.63 481.65 265.41 481.09 265.47 480.42 267.07 479.81 266.89 478.81 267.02 476.71 266.46 475.68 265.31 473.88 265 472.3 262.47 470.34 263.33 469.06 263.35 467.72 263.68 467.32 262.29 465.21 260.14 464.12 259.83 463.45 259.35 462.15 259.3 460.49 259.36 459.37 260.16 458.15 261.47 456.5 261.89 455.64 261.6 454.83 260.99 454.08 261.29 453.4 261.9 452.72 261.96 452.32 260.65 452.15 259.61 452.58 257.79 453.04 256.49 453.4 254.28 453.79 252.02 454.77 248.42 455.77 247.16 455.84 242.98 456.06 233.15 456.31 230.56 457.77 224.48 457.88 220.7 459.95 214.89 462.37 212.29 464.54 208.03 467.27 205.69 468.07 203.43 471.13 189.56 471.84 181.74 473.1 172.64 480.12 170.72 481.68 169.63 485.54 166.48 489.34 165.04 491.18 163.04 495.25 160.85 498.08 156.94 500.71 142.89 510.51 137.24 514.39 131.27 522.8 129.67 527.87 129.14 532.59 127.54 536.85 123.81 541.88 117.95 548.41 113.24 553.85 103.68 567.87 100.77 577.45 91.84 584.96 86.86 586.18 82.1 587.52 74.46 588 71.46 586.81 63.26 584.85 61.92 583.97 51.59 581.58 49.2 581.07 37.37 580.93 30.65 580.46 26.96 579.75 22.41 577.2 18.91 575.92 4.23 574.36 1 573.32 2.42 569.44 3.92 567.55 5.02 565.15 5.47 563.58 4.9 559.3 5.6 557.72 6.63 554.41 7.5 552.48 8.75 548.63 9.19 547.55 11.68 542.35 12.54 540.07 13.2 535.13 14.36 533.39 17.12 527 17.91 522.05 17.87 517.67 19.57 512.64 20.2 510.49 21.09 504.61 21.6 500.22 22.31 495.51 23.93 484.05 26.94 478.39 29.27 472.01 29.41 464.7 31.65 455.89 33.38 449.39 33.47 443.86 34.91 432.44 38.77 421.94 42.58 415.31 47.18 411.35 47.1 405.03 47.31 399.86 48.06 395.65 48.36 390.88 51.22 391.92 53.91 391.92 61.05 392.04 62.82 390.77 64.24 390.32 68.84 390.14 72.69 389.65 77.95 389.39 81.07 388.29 88.04 385.76 91.78 385.17 98.54 385.2 107.31 385.4 113.52 385.85 115.38 385.76 121.11 384.9 122.78 384.03 130.77 382.44 140.53 381.93 148.3 383.95 156.46 384.24 163.78 386.55 165.59 386.86 166.28 386.98 173.08 388.65 175.34 389.04 183.17 390.73 187.94 392.38 190.54 392.45 198.39 391.51 200.86 391.72 206.67 393.44 209.23 393.71 210.68 393.45 212.27 392.55 212.21 391.49 212.24 389.96 214.02 386.41 213.24 384.86 212.09 382.36 210.26 378.99 209.57 376.85 207.52 371.12 205.02 366.41 201.58 365.35 198.36 363.99 196.98 362.23 195.98 361.15 194.37 359.63 195.73 358.24 196.54 357.36 196.46 356.82 195.73 356.79 195.01 356.57 194.6 356.51 194.47 356 195.16 355.15 194.18 354.66 193.55 353.98 193.13 353.43 192.03 352.38 192.29 351.7 192.32 351.14 190.89 350.38 190.8 349.77 191.14 348.92 191.44 348.24 190.97 346.72 189.99 346.14 190.08 345.23 190.67 344.46 191.84 343.2 192.04 342.19 191.87 341.55 191.43 339.64 190.67 339.08 190.3 338.58 190.18 337.94 190.06 336.95 189.86 335.07 189.71 334.45 188.56 331.68 186.85 330.51 186.36 328.62 185.28 325.71 182.37 321.48 178.54 318.95 177.26 314.71 174.88 312.09 173.61 310.32 169.56 308.77 168.24 306.93 167.87 304.08 167.87 302.3 165.25 297.86 164.92 293.5 165.88 288.49 173.86 284.13 176.07 281.36 177.96 278.94 178.99 278.07 182.16 275.49 183.96 272.52 186.58 269.43 189.57 265.65 189.71 263.24 190.92 261.09 191.46 258.85 193.3 255.46 195.11 254.65 197.29 251.96 199.62 246.24 201.46 242.35 203.46 239.09 203.74 238.08 204.41 236.89 205 235.49 206.38 233.84 206.51 232.71 206.86 231.9 207.23 229.41 207.27 228.24 208.12 226.99 208.88 224.65 211.63 222.39 211.88 221.51 212.31 219.67 213.42 218.02 214.64 217.39 216.1 215.9 216.26 215.04 218.39 213.02 219.39 212.35 221.17 210.28 221.73 209.24 224.65 206.23 224.18 203.91 222.64 203.14 221.74 201.85 222.64 200.3 222.93 199.04 222.54 197.59 218.66 195.42 217.59 193.87 215.16 193.01 213.4 193.11 212.89 192.23 212.89 191.76 212.22 190.68 212.17 189.42 211.7 188.79 208.48 186.14 208.22 185.63 208.09 185 206.31 183.25 206.45 182.18 205.88 180.75 206.53 179.8 208.07 179.54 212.04 174.91 212.39 173.94 212.67 173.21 213.97 171.56 216.29 169.69 217.34 170.25 218.33 171.99 219.91 171.61 221.25 171.59 222.76 171.57 225.61 171.2 228.34 174.31 230.61 175.86 232.25 178.65 232.21 179.84 233.01 180.72 234.18 182.43 236.09 184.39 236.48 185.34 237.12 186.34 237.82 186.89 238.19 188.06 240.66 189.58 245.85 191.87 248.83 191.56 249.9 190.91 250.61 190.31 253.54 188.59 256.71 188.66 263.52 189.82 264.94 188.56 267.27 186.86 267.79 186.38 268.18 184.45 268.55 183.57 269.48 182.16 270.56 181.28 271.21 180 273.48 178.93 277.4 176.89 281.46 176.05 285.35 175.74 286.09 172.68 285.66 171.12 286.05 170.18 286.18 168.76 287.46 167.05 287.25 165.76 289.05 164.49 289.76 163.87 290.65 162.64 291.41 161.67 294.28 159.98 294.8 159.4 297.19 157.98 300.37 156.49 302.32 155.94 305.03 156.05 309.15 156.98 311.23 158.11 314.1 158.15 318.14 160.71 321.53 163.59 323.21 165.06 324.64 165.43 326.91 167.77 328.17 168.43 330.31 174.06 333.35 177.85 336.7 181.35 338.87 182.22 342.24 180.76 343.27 180.21 345.96 179.84 350.18 178.61 351.73 178.05 353.7 177.75 356.93 177.62 358.37 177.3 363.1 174.73 364.1 173.54 370.92 166.77 371.47 164.4 372.25 163.02 374.71 159.39 377.49 157.76 378.83 157.12 382.02 156.12 Z"/>
</g>
</svg>