<?xml version="1.0"?>
<svg xmlns="http://www.w3.org/2000/svg" version="1.2" baseProfile="tiny" fill="#f9c113" width="800" height="614" viewBox="0 0 800 614" stroke-linecap="round" stroke-linejoin="round">
<g fill="#c0392b" id="id_223">
<path d="M 786.68 290.56 793.1 294.11 797.63 298.06 799 301.35 798.86 304.12 795.33 305.77 793.2 306.55 791.34 308.7 790.39 311.38 789.7 314.59 785.86 317.11 781.97 319.54 775.72 324.21 771.72 321.82 770.8 319.6 767.52 319.51 763.01 319.72 760.53 323.78 752.87 326.04 750.78 328.13 747.46 332.02 743.15 333.85 737.4 336.53 734.75 338.59 729.28 342.3 727.09 343.29 724.28 343.54 720.96 344.02 716.25 345.12 711.72 348.04 709.09 351.57 704.59 355.6 700.4 358.23 697.09 357.75 694.61 358.16 691.9 359.76 688.21 362.08 687.27 363.77 687.43 366.59 687.23 372.6 685.69 375.46 683.23 376.79 682.92 377.55 684.01 379.83 685.53 382.28 685.46 385.6 683.93 387.18 681 387.18 678.48 386.47 676.26 385.12 674.28 385 671.47 385.58 669.95 386.44 666.45 389.44 666.92 391.87 667.82 395.92 667.62 399.69 669.6 402.1 670.18 402.6 669.89 404.91 667.82 406.94 662.16 409.58 660.07 411.11 659.54 412.21 659.75 414.43 661.71 418.04 661.81 419.48 660.98 421.63 659.91 425.5 659.72 432.15 657.57 435.83 656.98 438.42 658.97 442.55 659.38 444.48 657.78 447.22 654.56 451.66 651.32 454.51 649.95 456.87 646.9 464.68 644.56 470.68 644.7 472.43 647.57 476.96 653.72 483.15 655.63 485.23 655.99 486.74 655.91 488.43 654.09 490.79 645.44 496.75 642.9 498.86 640.64 501.82 640.13 502.99 639.52 507.19 641.06 510.17 645.03 518.07 650.4 522.82 659.11 529.36 661.04 533.19 662.25 539.18 669.73 551.92 674.5 556.21 674.16 556.89 673.67 557.85 673.59 559.11 671.77 559.93 670.02 560.15 668.36 560.77 666.88 562.2 665.01 563.1 664.32 564.3 661.36 565.83 657.8 567.7 654.24 569.55 649.97 571.78 645.7 574.01 641.91 575.99 638.11 577.98 634.28 579.98 630.51 581.94 626.71 583.93 622.9 585.93 619.2 587.85 617.35 591.04 612.37 594.57 607.36 598.15 603.45 600.09 599.85 601.87 595.46 602.83 591.31 602.94 586.82 602.29 582.54 601.66 578.54 600.53 574.41 598.75 572.9 595.05 571.42 591.65 569.83 587.57 568.71 583.94 567.49 580.07 566.23 576.24 564.94 572.41 563.73 568.85 562.04 565.24 560.07 561.51 558.46 558.3 556.33 554.76 554.34 551.45 551.62 548.12 549.17 545.11 546.31 541.24 543.7 537.71 541.09 534.18 538.49 530.67 535.83 531.77 533.43 534.15 530.14 535.75 526.76 537.4 523.2 539.31 519.44 541.35 516.36 543.09 512.59 545.21 508.79 547.35 506.18 549.25 503.36 551.31 500.45 555.65 498.54 559.19 496.72 562.56 494.91 565.93 493.57 569.44 492.79 570.84 492.42 572.25 492.21 573.03 490.85 576.61 489.7 580.27 488.54 583.91 488.05 586.86 487.56 589.83 486.21 592.83 484.08 597.59 482.35 601.44 480.62 605.3 478.89 609.15 476.44 610.34 473.81 613 470.01 612.91 466.31 612.82 466.26 612.82 457.81 611.29 456.3 607.66 454.69 603.89 453.52 600.18 452.34 596.37 452.32 596.36 452.34 596.35 450.8 592.58 449.22 588.7 448.35 584.82 447.48 580.97 447.05 576.97 446.6 572.97 446.17 568.97 446.27 564.95 446.39 560.89 446.1 557.14 445.82 553.4 444.15 548.97 442.49 544.54 440.83 540.12 439.17 535.69 437.5 531.27 435.83 526.84 434.21 522.49 432.29 519.18 429.98 517.18 427.25 519.49 424.55 521.78 419.02 521.24 413.46 520.7 408.25 522.73 403.01 524.76 397.76 526.8 392.82 528.91 387.85 531.03 377.95 535.26 374.04 536.8 374.04 536.78 367.64 498.88 360.84 468.44 290.79 469.78 238.69 475.82 218.84 477.99 200.37 477.4 188.3 477.47 174.34 477.14 174.04 478.86 157.93 479.86 152.07 478.74 148.68 480.21 115.37 478.98 113.52 484.44 75.02 484.95 75.08 480.83 62.58 480.72 48.87 479.88 45.98 466.6 32.78 468.49 31.04 465.5 34.46 461.52 40.55 455.58 42.96 451.18 45.9 444.21 39.15 442.98 31.86 445.26 20.48 451.02 14.34 450.22 13.91 446.12 14.22 435.74 14.2 432.83 14.55 428.21 16.35 417.14 16.37 414.48 15 408.61 15.1 391.95 13.79 385.66 14.07 382.43 16.1 380.02 11.64 374.67 10.57 371.79 10.57 369.98 10.49 366.45 10.43 364.21 10.75 358.31 11.29 355.88 11.74 350.66 13.87 342.05 14.1 339.59 10.69 339.29 8.19 340.04 5.82 335.4 1 329.15 1.04 326.38 3.62 311.24 3.32 303.91 4.85 295.85 4.79 291.15 4.93 284.76 5.14 283.53 5.3 277.75 5.8 275.97 6.55 268.82 7.25 266.73 9.59 258.21 12.58 252.39 13.11 250.51 13.04 246.78 14.94 246.25 16.66 246.25 18.02 246.25 20.02 246.25 22.03 245.82 25.56 240.32 25.97 239.1 26.73 237.3 28.39 235.18 29.41 234.25 31.01 233.4 31.89 231.77 32.2 229.59 31.85 228.22 30.15 226.27 27.07 224.21 24.8 222.46 18.47 220.98 13.41 218.55 9.76 216.44 8.63 215.56 7.81 213.8 7.5 213.02 6.62 213.02 5.15 213.71 4.02 213.89 3.63 213.59 3.61 212.88 3.36 210.48 3.75 209.56 6.25 208.12 7.67 207.13 9.7 202.91 10.97 202.34 11.64 201.83 12.5 202.02 12.77 202.98 12.81 206.01 14.86 206.03 16.07 205.61 19.06 203.27 20.25 197.8 20.15 195.91 19.22 192.2 18.18 190.16 19.61 188.56 20.33 187.62 19.78 184.33 20.17 182.39 18.28 178.24 16.85 177.06 16.77 174.47 16.97 173.7 16.93 172.34 14.96 168.69 15.43 167.91 17.28 164.93 18.02 163.62 19.61 162.45 20.52 159.88 18.98 158.3 18.61 156.88 17.97 155.69 17.97 154.45 17.98 152.75 18.36 150.32 18.32 148.44 17.54 147.4 15.7 145.32 13.71 143.05 12.32 141.12 12.38 139.42 16.07 133.34 15.31 131.57 14.61 128.77 14.14 125.54 14.04 123.4 14.88 121.59 16.91 119.04 19.22 116.13 23.49 113.37 28.97 109.21 31.19 106.93 35.87 100.91 41.87 97.24 49.99 96.21 56.85 96.05 77.68 94.44 87.47 93.75 89.56 93.5 90.79 92.91 91.79 92.45 92.59 91.67 93.08 90.5 92.86 88.64 92.55 87.9 91.85 85.24 90.6 81.65 90.27 79.34 90.66 76.38 91.57 72.7 92.24 70.79 94.05 66.06 96.61 59.84 97.45 55.89 97.53 53.37 97.02 48.31 96.51 41.94 95.89 37.61 96.14 35.4 95.85 27.82 96.59 20.3 96.47 16.31 99.36 11.58 101.71 11.69 102.88 13.02 105.28 14.52 106.43 15.36 108.03 17.36 108 21.93 107.37 24.55 107.14 29.36 110.55 37.08 116 42.33 122.56 33.61 124.01 30.13 126.94 23.06 132.16 13.79 133.86 12.26 139.09 12.44 145.18 14.57 152.1 15.44 162.08 16.59 170.06 20.91 175.31 24.96 179.82 29.37 182.75 28.27 190.43 27.86 195.9 26.73 203.51 26.75 211.52 27.84 218.02 28.32 222.81 30.91 230.52 34.66 235.46 31.08 237.01 28.59 241.13 21.01 246.32 17.01 248.64 15.47 254.15 10.37 259.8 7.11 266.92 5.96 269.22 5.37 271.15 2.86 275.1 1 285.61 2.15 289.41 2.77 295.31 5.94 298.08 9.37 296.58 11.52 291.76 13.46 285.43 15.16 287.71 20.35 287.61 23.27 281.85 26.44 277.69 28.16 268.49 31.26 260 33.37 263.67 38.52 269.78 41.14 278.96 46.7 281.95 50.23 287.22 54.02 288.96 56.75 289.61 60.64 284.04 65.24 281.05 74.76 272.83 81.68 279.55 90.7 285.95 93.06 293.71 92.28 303.35 94.79 307.06 95.96 312.77 95.8 313.72 88.4 313.41 84.41 317.85 80.99 322.24 78.76 328.33 81.15 331.75 81.86 331.69 83.81 329.95 88.38 332.22 93.09 336.55 94.67 341.89 92.49 342.8 93.27 350.36 92.06 358.08 93.76 362.37 98.73 371.12 104.57 377.93 114.11 385.35 118.88 392.07 117.85 400.1 116.31 414.26 115.78 413.55 120.29 413.98 124.74 412.83 130.29 412.71 135.55 415.39 135.2 421.52 135.09 424.16 135.11 425.82 135.45 428.84 137.11 428.9 147.82 434.98 145.04 441.03 145.39 441.58 140.56 449.55 137.67 456.75 137.67 465.54 137.49 471.99 137.21 475.48 137.85 483.39 137.53 489.64 135.12 498.55 135.23 509.54 133.6 522.02 130.89 525.5 130.72 527.42 132.88 528.96 133.33 530.78 135.92 532.28 141.37 535.09 145.08 538.7 150.86 539.72 153.98 540.5 162.31 545.09 175.06 546.57 188.53 544.95 192.17 546.32 195.03 549.07 197.35 553.37 193.15 557.49 195.81 559.7 194.58 563.76 195.63 567.24 197.71 573.2 196.08 579.15 196.73 582.98 197.18 589.58 195.79 594.4 197.16 600.65 201.2 604.58 202.07 610.99 201.97 615.71 206.66 619.58 206.7 621.24 211.45 627.08 216.23 630.69 216.79 633.27 219.9 635.03 225.73 633.6 230.59 633.74 235.13 634.91 237.78 634.99 240.1 632.59 242.46 633.84 245.57 636.82 248.65 636.57 252.49 637.56 258.42 637.95 258.9 639.39 264.35 641.68 271.18 645.78 279.22 646.25 283.46 649.37 291.43 648.81 302.51 652.03 306.01 658.08 309.01 673.69 310.43 676.01 309.66 680.44 306.56 684.64 302.1 687.71 299.85 688.08 297.5 692.43 296.9 696.98 299.79 702.2 301.85 705.87 301.73 715.87 303.7 724.68 302.9 734.11 304.8 744.91 302.97 753.13 300.11 758.27 299.55 769.73 300.24 782.74 296.83 784.73 294.95 784.26 290.1 786.68 290.56 Z"/>
</g>
</svg>