<?xml version="1.0"?>
<svg xmlns="http://www.w3.org/2000/svg" version="1.2" baseProfile="tiny" fill="#f9c113" width="800" height="695" viewBox="0 0 800 695" stroke-linecap="round" stroke-linejoin="round">
<g fill="#c0392b" id="id_250">
<path d="M 799 150.91 722.38 234.44 713.29 250.27 713.05 258.94 708.03 269.12 718.55 277.8 708.98 291.67 716.4 300.56 703.48 309.23 692.01 320.72 684.35 321.58 677.42 325.27 672.16 331.99 663.31 336.11 655.9 343.26 655.42 354.1 636.05 368.41 631.98 376.43 620.74 394.21 606.39 396.7 593.6 404.83 585.59 408.52 570.4 408.41 559.88 418.27 563.59 440.6 558.81 446.35 543.62 451.99 536.45 469.22 529.03 480.71 505 476.48 494.6 478.22 493.64 486.57 500.46 489.93 497.95 498.71 488.62 498.27 484.08 506.4 481.56 522.45 477.86 525.05 477.38 542.39 460.04 547.38 453.59 559.63 441.51 563.32 436.37 577.19 438.88 589.55 421.42 595.19 419.63 608.85 401.93 616.55 392.84 624.79 380.74 643.65 368.97 648.99 363.08 648.99 354.25 654.32 348.68 665.7 304.12 659.05 261.56 649.4 212.65 635.84 211.94 615.35 214.09 607.87 192.21 597.25 166.02 576.98 122.74 564.51 108.01 592.06 106.04 608.07 113.89 625.86 121.74 638.31 123.7 645.43 135.48 654.32 147.25 666.78 54.56 694 52.44 665.1 51.64 650.66 51.37 643.91 58.54 635.49 62 629.71 61.2 622.24 60.93 612.61 61.47 606.11 64.39 603.94 68.1 601.05 72.09 597.68 73.15 593.83 76.6 588.53 81.12 584.68 79.79 576.25 71.03 570.47 56.95 550 49.6 539.71 22.25 540.19 7.11 538.26 1 527.19 15.87 523.82 33.13 521.17 48.54 515.87 65 505.52 143.35 448.7 169.11 429.92 208.2 389.67 216.11 381.52 260.62 329.91 299.77 284.5 317.53 251.73 332.14 224.8 337.74 214.45 345.18 198.32 348.9 187.49 347.57 157.4 355.54 128.03 355.27 84.22 359.52 66.41 370.14 45.71 381.22 15.43 385.91 18.99 393.32 14 402.41 4.47 426.56 6.42 448.8 1 456.69 77.29 609.98 66.02 792.79 56.66 799 150.91 Z"/>
</g>
</svg>