<?xml version="1.0"?>
<svg xmlns="http://www.w3.org/2000/svg" version="1.2" baseProfile="tiny" fill="#f9c113" width="800" height="643" viewBox="0 0 800 643" stroke-linecap="round" stroke-linejoin="round">
<g fill="#c0392b" id="id_242">
<path d="M 621.22 456.08 575.35 463.01 539.68 463.01 432.13 529.07 402.16 524.89 390.63 544.76 338.75 545.8 308.78 565.67 262.67 537.44 164.69 609.58 145.09 628.41 120.89 625.27 94.37 642 71.32 637.82 80.54 608.54 113.97 602.27 134.72 574.03 169.3 554.17 158.93 534.3 199.27 535.35 216.56 521.75 175.06 502.94 162.38 483.07 122.04 452.75 109.36 436.02 21.75 379.57 1 346.12 30.97 314.76 77.08 287.59 72.47 256.23 28.67 260.41 14.83 237.41 127.8 183.07 163.82 151.82 187.98 149.79 204.95 143.41 223.83 136.74 232.63 136.88 245.11 136.59 262.07 134.85 275.2 135.86 288.16 135.14 296.48 136.59 302.24 137.75 312.8 137.03 327.52 145.44 329.6 147.91 326.08 155.16 340 160.24 345.28 162.12 356.33 174.31 362.57 180.4 372.97 196.07 368.01 200.57 354.41 206.37 346.09 210.29 344.49 214.35 345.77 220.74 341.6 225.53 329.12 232.64 313.44 247.29 320.32 257.45 329.44 260.06 351.37 261.22 358.09 263.68 364.17 271.23 377.29 281.24 381.93 288.06 381.3 289.84 378.57 297.49 381.61 303.44 389.29 310.84 388.81 314.18 457.27 333.67 463.51 303.2 463.35 292.02 463.99 287.81 463.51 279.54 472.79 284.19 487.67 256.04 494.23 245.59 515.36 228.33 529.6 213.24 530.88 211.61 534.88 206.56 545.76 198.87 553.12 194.09 564.16 185.67 574.4 177.4 582.22 174.1 586.09 172.47 598.89 165.5 612.17 148.53 615.53 144.61 623.37 139.54 631.69 133.01 638.89 125.9 647.85 122.13 655.38 120.1 657.3 115.6 667.86 97.46 675.7 87.6 683.54 77.74 697.78 55.98 711.22 38.57 728.99 23.63 753.47 1 782.11 21.02 799 34.47 788.29 54.22 737.89 112.68 733.12 117.59 709.56 141.84 694.04 153.16 646.84 187.4 636.91 193.64 627.63 196.83 617.23 198.43 608.27 200.46 611.95 207.13 621.07 208.29 637.55 208 641.98 214.21 650.47 226.54 655.75 230.02 656.55 235.1 653.83 237.42 651.75 240.61 651.11 242.93 648.71 244.96 646.47 246.71 644.7 248.01 644.38 251.93 644.54 257.73 645.02 262.23 642.94 265.71 638.62 270.79 638.78 274.85 639.26 283.56 640.54 300.97 642.14 320.56 642.62 329.27 641.98 338.7 640.54 344.94 638.62 351.32 638.62 355.68 645.66 370.33 653.83 378.6 662.47 387.17 664.23 403.42 662.79 410.1 662.47 433.17 660.39 447.54 660.39 455.08 621.22 456.08 Z"/>
</g>
</svg>