<?xml version="1.0"?>
<svg xmlns="http://www.w3.org/2000/svg" version="1.2" baseProfile="tiny" fill="#f9c113" width="800" height="650" viewBox="0 0 800 650" stroke-linecap="round" stroke-linejoin="round">
<g fill="#c0392b" id="id_26">
<path d="M 387.1 87.79 391.2 88.1 395.5 93.02 401.47 96.56 406.03 95.12 408.54 92.65 419.83 88.35 423.49 86.05 425.8 84.3 433.11 83.53 434.99 81.27 443.6 81.47 446.22 79.43 449.13 78.88 452.42 74.85 458.2 72.88 463.38 72.62 466.5 70.08 470.21 67.98 471.27 63.78 480.57 63.59 483.7 68.01 490.76 68.13 497.65 63.58 500.22 61.01 504.54 58.88 513.54 63.11 518.58 68.67 524.36 75.95 531.16 79.64 536.21 79.41 541.73 80.63 545.66 81.37 553.98 75.77 562.21 69.62 572.8 67.82 583.13 63.41 590.68 62.4 597.27 57.14 604.97 60.4 616.39 62.5 624.56 64.96 629.2 69.5 629.3 75.74 635.75 84.39 634.72 87.55 621.18 98.48 611.9 113.43 600.36 115.23 599.28 117.06 601.16 120.72 604.22 123.51 604.45 135.52 606.78 137.4 606.18 148.75 603.87 156.38 604.75 160.34 610.69 173 616.01 178.52 615.31 204.59 615.66 210.83 633.11 224.85 645.96 236.18 656.69 244.61 658.65 251.55 660.13 253.81 669.98 246.64 683.03 243.33 687.69 239.97 692.71 239.37 695.89 243.96 704.72 243.55 710.34 238.39 712.17 233.65 709.64 227.96 709.46 222.44 713.85 218.98 731.41 223.22 734.94 227.98 746.58 237.66 742.97 248.54 745.9 257.77 743.75 262.21 746.68 273.27 752.27 277.2 751.32 286.05 749.06 291.39 750.07 302.6 755.43 307.36 763.51 307.44 776.73 303.43 782.65 305.01 791.95 313.38 799 322.31 786.91 336.65 777.68 336.1 775.5 342.64 762.38 343.62 756.09 353.3 746.41 360.39 743.8 377.32 725.69 378.95 715.98 388.2 719.22 391.73 701.03 394.39 678.21 406.85 668.1 406.45 662.94 404.37 659.58 408.43 659.98 412.7 658.02 420.39 662.81 426.56 652.23 432.45 635.27 442.63 651.98 457.68 643.57 460.36 630.36 460.96 625.39 458.18 619.87 467.83 611.14 472.22 608.38 474.37 617.84 481.17 609.51 485.66 616.74 493.53 624.64 506.04 616.61 515.49 614.93 529.81 613.58 535.93 603.97 544.13 585.03 548.16 584.53 558.77 594.69 559.35 602.47 566.39 598.78 571.08 590.83 572.13 580.7 582.76 585.44 589.16 569.08 593.95 552.83 601.93 550.67 600.66 544.39 598.92 541.16 598.45 538.54 597.46 532.79 594.55 531.55 596.8 528.44 598.67 522.91 600.59 523.52 605.19 522.91 606.74 521.63 608.12 521.14 610.22 520.19 610.56 519.51 611.25 519.24 612.3 520.01 614.25 519.1 615.41 510.34 619.85 506 622.38 502.98 624.82 502.73 626.6 501.21 627.43 501.16 633.24 502.51 634.77 500.38 641.26 494.68 643.87 489.96 648.75 457.96 638.21 447.03 639.3 429.25 642.02 418.85 640.97 395.76 645.71 376.71 635.02 359.02 637.15 359.81 645.58 356.43 649 350.55 646.37 345.2 637.81 347.13 627.94 350.64 617.15 346.62 610.95 341.07 610.17 334.84 614.51 327.75 609.34 326.35 601.02 340.9 587.48 339.19 584.37 338.59 579.55 346.21 573.34 346.82 563.71 349.42 557.69 354.14 547.76 350.93 542.95 356.25 535.13 357.65 529.21 354.74 521.59 342.7 516.47 339.09 507.75 326.85 497.12 319.43 496.71 311.3 482.87 301.97 479.56 297.66 472.44 282.31 469.44 272.48 457.2 265.55 455.09 264.95 455.32 263.65 458.43 255.22 458.53 248.7 453.81 218.1 455.22 210.48 445.09 197.53 443.69 191.01 448.2 192.82 439.67 198.24 421.02 184.79 419.82 177.17 421.02 172.55 418.61 165.53 420.62 160.72 416.61 157.71 412.8 148.48 411.99 137.24 410.19 132.42 404.57 131.22 394.54 137.04 388.12 134.83 377.29 126.4 368.87 114.57 368.07 107.14 363.85 88.08 359.44 79.85 356.23 64.61 352.42 60.79 341.59 56.98 340.39 51.16 337.98 44.34 333.16 43.14 327.15 28.69 323.94 25.08 317.32 24.48 307.89 19.06 300.87 15.65 281.82 1 271.38 1.6 264.36 10.43 254.94 5.01 248.32 6.62 242.7 16.85 235.88 13.84 229.86 14.64 218.23 25.28 205.79 30.09 191.75 48.95 176.11 74.64 164.07 82.46 163.47 86.68 166.68 93.5 167.88 97.11 159.66 103.33 149.03 108.75 139.4 120.18 128.77 129.01 114.53 124.2 109.92 123.19 102.09 117.17 100.29 112.16 95.47 111.76 89.66 105.54 81.83 104.73 74.21 102.73 70.8 99.92 63.18 106.54 47.53 111.76 41.92 117.98 40.51 119.58 33.09 125.8 29.88 148.68 24.87 171.35 19.05 171.95 5.21 195.23 1 199.99 7.37 202.6 14.59 214.39 25.87 223.47 28.23 230.39 28.28 233.5 30.28 239.57 26.62 240.57 19.1 245.69 16.49 247.65 11.93 254.32 5.51 257.13 5.81 268.06 17.3 276.69 24.02 276.69 30.18 298.91 50.24 306.03 61.12 309.29 62.28 308.24 66.34 308.29 72.11 305.58 74.61 305.18 79.08 302.87 83.34 304.93 86.1 319.18 86 323.24 90.16 326.35 90.36 330.21 86.05 334.73 85.75 337.64 83.59 347.57 83.69 348.02 85.6 363.77 85.7 365.23 83.79 376.51 83.74 379.92 86.25 383.43 89.76 384.29 91.52 383.58 90 387.1 87.79 Z"/>
</g>
</svg>