<?xml version="1.0"?>
<svg xmlns="http://www.w3.org/2000/svg" version="1.2" baseProfile="tiny" fill="#f9c113" width="800" height="940" viewBox="0 0 800 940" stroke-linecap="round" stroke-linejoin="round">
<g fill="#c0392b" id="id_228">
<path d="M 788.68 77.49 778.67 75.73 769.49 73.61 762.41 74.08 752.42 75.47 740.63 74.08 724.48 73.74 718.11 86.58 727.15 89.05 738.2 89.87 747.72 91.85 759.9 92.43 765.62 93.96 759.5 99.3 750.17 105.3 748.38 106.88 744.26 110.5 734.52 115.14 724.73 118.69 721.15 120.38 712.6 119.91 703.6 122.9 685.99 130.68 676.24 137.66 659.48 155.03 663.23 157.48 668.67 166.4 669.64 172.85 672.83 174.69 679.28 181.08 682.2 185.37 690.05 190.84 693.23 192.8 699.37 193.98 703.58 195.48 711.55 198.23 715.8 200.89 725.46 210.24 726.21 215.27 727.23 217.43 721.53 227.88 721.57 233.89 724.8 244.76 725.65 250.38 725.19 257.29 722.2 264.94 719.39 276.65 718.95 287.18 718.72 294.64 744.25 318.33 747.2 320.45 750.99 317.91 762 316.86 762.21 328.34 755.18 335 747.35 342.89 740.06 347.93 730.62 352.85 727.83 355.14 726.91 358.72 724.19 366.96 718.63 376.3 709.63 382.93 697.68 386.13 682.05 389.78 673.51 391.43 664.77 394.37 656.73 402.97 653.88 406.44 643.59 414.27 634.43 420.85 628.21 428.11 626.34 437.87 623.53 446.51 623.08 449.51 609.45 452.64 600.08 451.15 599.14 448.99 596.89 445.23 595.96 445.39 593.39 449.49 592.9 449.83 586.98 449.03 579.78 446.98 578.05 447.01 572.6 448.82 566.91 449.55 562.15 451 559.19 449.81 549.97 444.31 545.35 443.67 538.57 442.72 529.55 446.79 530.32 454.95 528.6 462.98 532.78 470.75 530.84 474.6 539.61 481.48 537.11 487.96 542.23 497.13 538.15 501.34 540.04 506.37 541.54 512.05 541.19 515.13 529.14 527.29 520.9 533.74 502.39 540.48 489.42 536.38 483.74 541.84 479.32 545.03 473.93 551.37 466.4 556.83 466.71 560.52 479.96 577.87 536.44 636.2 519.63 672.79 518.43 676.34 504.19 672.64 499.63 669.58 472.31 659.09 436.11 652.8 418.85 648.23 411.06 646.82 401.94 644.83 397.22 643.54 390.98 641.79 390.54 646.56 389 650.72 386.6 653.49 383.42 661.55 382.77 662.91 381.11 667.84 377.3 673.49 374.4 679.35 373.2 681.44 366.49 689.07 364.77 691.58 365.02 695.12 365.54 697.42 367.89 704.13 367.56 706.6 366.99 710.61 366.89 712.68 366.99 717.67 366.14 724.02 365.16 726.37 358.46 732.72 356.92 735 354.67 739.31 354.67 745.83 353.13 750.89 352.46 757.35 351.61 760.99 345.63 769.86 344.28 779.24 344.49 784.77 352.02 790.34 355.58 795.59 360.83 801.45 360.39 809.09 358.98 814.57 359.21 817.32 359.91 823.73 362.81 827.48 372.05 841.59 375.65 845.12 375.76 849.42 375.59 850.99 374.24 853.11 374.93 858.62 376.13 869.2 376.17 871.18 376.13 874.9 377.84 877 382.61 881.97 390.33 888.12 392.57 894.06 392.07 897.71 390.47 904.59 385 906.5 382.85 909.51 382.94 913.27 379.37 917.17 376.02 920.69 373.4 921.55 362.05 928.79 360.03 927.46 356.82 921.05 352.39 916.15 330.94 924 322.3 927.31 311.23 930.57 305.54 932.79 301.9 934.51 296.35 937.09 292.4 939 291.86 917.41 284.14 895.35 261.27 858.73 237.76 845.65 214.04 814.2 201.29 778.32 192.51 764.48 166.1 722.85 142.75 667.19 119.42 622.29 96.53 584.78 69.09 543.3 45.02 508.27 22.68 443.86 12.9 388.66 4.58 339.12 1 317.81 6.06 274.26 24.83 256.04 22.98 231.65 19.75 197.18 10.82 102.09 11.43 94.49 14.05 95.53 18.5 96.16 24.37 100.19 28.31 102.08 33.89 103.72 36.03 103.83 37.68 103.29 38.28 99.78 40.07 92.8 44.67 92.87 46.17 95.77 46.92 98.15 51.79 101.4 52.37 102.68 56.66 111.31 59.87 116.01 66.8 122.82 69.78 126.72 73.03 133.13 74.11 134.91 76.69 140.23 79.46 142.23 82.19 144.07 83.31 145.3 83.56 146.28 82.56 149.22 81.54 150.01 76.4 151.3 75.44 153.52 82.1 155.61 83.87 157.37 85.23 160.4 87.31 167.18 92.81 172.06 98.09 173.14 99.97 171.73 103.49 167.01 110.71 162.66 116.29 162.55 128.99 162.94 132.28 163.83 136.82 162.7 142.13 161.7 144.48 159.77 149.7 153.97 157.3 151.61 163.36 155.83 165.84 158.28 170.42 160.04 173.12 157.46 174.1 151.8 173.56 145.8 170.23 137.79 173.42 120.28 174.52 114.71 171.85 109.62 170.79 105.02 171 100.88 172 98.54 170.17 93.95 168.07 88.79 167.61 85.19 164.82 80.59 165.42 78.02 163.76 72.55 166.46 69.8 167.61 65.33 170.06 61.13 171.44 56.48 170.06 49.35 168.71 44.67 169.84 39.87 170.21 36.23 170.81 34.98 177.47 35.65 179.24 33.59 186.4 32.18 199.04 34.37 203.33 36.39 213.76 36.28 217.65 36.41 229.37 35.43 247.79 35.91 259.52 40.01 259.91 42.7 270.34 43.41 323.28 40.77 337.27 42.15 353.76 42.78 357.36 49.42 360.92 59.5 363.78 56.45 364.55 50.27 366.4 27.99 366.42 22.12 380.24 22.25 383.05 25.48 380.93 39.25 376.78 47.1 376.12 49.75 377.35 55.23 379.51 60.48 380.01 65.62 389.69 60.24 391.84 58.1 391.75 56.9 391.54 51.2 391.9 48.71 390.17 45.8 390.13 43.48 394.67 41.4 394.58 40.55 394.25 38.84 392.86 34.93 396.52 34.17 396.96 32.12 395.2 27.74 404.49 25.14 413.02 21.1 417.69 17.18 419.12 20.63 421.75 24.73 425.89 28.39 429.89 30.82 434.09 30.71 437.4 31.41 438.21 33.06 461.18 29.17 463.95 32.82 464.36 37.55 466.67 38.95 466.59 45.81 466.78 49.71 465.8 52.36 462.88 55.87 464.05 56.19 474.42 56.2 475.38 58.62 486.99 59.64 498.11 61.05 498.9 64.01 501.36 73.1 502.42 76.54 508 80.88 511.93 85.08 515.47 86.34 523.22 86.38 524.63 87.21 525.13 88.44 524.55 91.91 523.22 97.01 522.26 99.11 523.88 104.4 527.51 107.52 539.85 114.69 544.31 115.43 551.18 115.49 548.87 112.31 548.43 109.08 547.12 104.22 543.42 99.19 541.69 95.73 538.77 88.01 543.65 84.64 547.98 81.65 550.27 80.74 554.1 74.84 553.35 72.03 552.45 71.07 560.95 66.89 566.88 64.52 575.62 61.04 578.79 60.38 583.22 58.84 585.03 57.87 588.59 54.75 593.17 51.03 598.57 49.31 602.36 47.91 611.97 44.11 614.35 43.44 635.02 51.81 640.27 53.82 649.43 58.72 650.93 60.2 653.24 61.22 655.51 61.33 660.44 59.72 665.45 54.27 666.41 53.55 672.59 50.51 676.15 50.75 682.3 51.79 688.62 54.44 691.75 55.33 697.81 56.57 701.43 58.47 707.61 57.3 714.71 54.42 710.46 38.7 696.35 30.6 700.51 24.66 703.49 25.77 718.98 22.32 723.45 25.18 726.12 26.62 734.49 27.13 736.3 25.25 739.46 20.22 740.01 16.94 740.63 10.84 741.53 6.59 742.19 4.71 741.54 1.19 748.93 1 750.6 9.98 749.53 19.66 748.7 26.08 744.06 50.28 761.34 59.5 793.13 70.69 799 73.55 794.7 78.85 788.68 77.49 Z"/>
</g>
</svg>