<?xml version="1.0"?>
<svg xmlns="http://www.w3.org/2000/svg" version="1.2" baseProfile="tiny" fill="#f9c113" width="800" height="958" viewBox="0 0 800 958" stroke-linecap="round" stroke-linejoin="round">
<g fill="#c0392b" id="id_266">
<path d="M 85 700.84 84.84 700.78 84.37 700.49 83.6 699.9 83.56 699.73 83.14 699.64 82.85 699.45 82.78 699.21 82.31 698.92 82.14 698.71 81.79 698.65 81.4 698.62 81.16 698.46 81.17 698.31 81.11 698.12 80.83 697.96 80.39 697.64 80.34 697.43 80.05 697.13 80.05 696.87 79.97 696.68 79.93 696.16 79.8 695.58 79.18 695.27 79.1 694.63 78.57 694.25 78.46 694.06 78.23 693.93 77.98 693.56 77.76 693.33 77.66 693.11 77.49 692.9 77.28 692.9 76.82 692.69 75.67 692.69 75.33 692.49 74.86 692.3 74.68 692.18 74.37 692.1 73.71 692.1 73.5 691.94 73.35 691.67 73.18 691.62 72.52 691.68 72.21 691.82 71.93 691.86 71.73 691.79 71.58 691.4 71.45 691.17 71.53 690.86 71.5 690.74 71.42 690.57 70.98 690.13 70.25 689.2 70.02 688.6 69.98 688.22 69.8 688.01 69.55 687.9 68.81 687.89 68.37 688.05 67.87 687.48 67.43 687.12 67.16 686.69 67.01 686.6 66.84 686.56 66.67 686.39 66.58 685.95 66.6 685.75 66.55 685.54 66.4 685.43 66.05 685.29 65.12 685.07 64.88 684.72 65.05 684.36 65.03 684.19 64.9 684.07 64.79 683.67 64.64 683.45 64.7 683.23 64.81 683.02 64.78 682.9 64.36 682.67 64.12 682.65 63.87 682.16 63.98 681.95 64.41 681.72 64.52 681.55 64.52 681.38 64.78 681.22 65.05 680.96 65.17 680.72 65.2 680.07 65.31 679.73 65.3 679.53 65.35 679.23 65.5 679 65.72 678.9 65.76 678.73 65.69 678.52 65.72 678.35 65.44 677.75 65.56 677.41 65.73 677.21 66.23 677.27 66.48 677.37 66.77 677.34 67.06 677.38 67.37 677.34 67.99 677.13 68.06 676.95 67.98 676.7 67.65 676.47 67.68 676.26 68.26 675.92 68.39 675.69 68.54 675.58 68.77 675.31 68.86 675.1 68.82 674.81 69.18 674.59 69.22 674.3 69.11 674.06 69.08 673.8 68.94 673.52 69.09 673.3 69.28 672.58 69.45 672.25 69.98 671.69 70.03 671.46 69.79 671.18 69.9 670.88 70.18 670.72 70.56 670.76 71.04 670.73 71.34 670.34 71.19 669.4 71.21 669 71.3 668.65 71.44 668.59 71.75 668.76 72.28 668.92 72.49 669.03 72.67 669.03 73.15 668.86 73.33 668.72 73.19 668.4 73.19 668.22 73.48 668.01 73.74 667.94 73.95 667.99 74.12 667.96 74.35 667.76 74.42 667.59 74.44 667.4 74.73 667.25 74.97 667.04 74.92 666.91 74.72 666.75 74.87 666.37 74.76 666.1 74.63 665.51 74.97 665.32 75.08 664.97 75.37 664.93 75.64 664.75 75.8 664.54 75.84 664.36 75.38 664.02 75.66 662.76 76.02 662.42 76.46 662.38 76.54 662.24 76.6 661.93 76.69 661.68 76.73 661.41 76.61 661.19 76.62 660.95 77 660.65 77.23 660.41 77.27 660.2 77.22 659.92 77.3 659.6 77.27 659.33 77.4 658.98 77.65 658.79 77.76 658.47 77.84 658.09 77.85 657.78 77.52 657.56 76.89 657.37 76.69 657.26 76.95 656.82 77.55 656.55 77.63 656.36 77.62 656.17 77.74 656 77.77 655.83 77.61 655.41 77.71 655.19 77.68 655.06 77.53 654.85 77.52 654.64 77.42 654.5 77.13 654.34 77 654.19 77.01 654.03 77.36 653.7 77.38 653.57 77.25 653.47 77.14 653.29 77.08 653.04 77.26 652.66 77.45 652.51 77.5 652.37 77.46 652.1 77.32 651.91 77.17 651.87 76.65 651.93 76.28 652.02 75.93 652.16 75.53 652.09 74.66 652.2 74.39 652.3 74.17 652.44 73.59 652.37 73.13 653.17 72.49 653.55 72.33 653.72 72.06 653.87 71.91 654.11 71.63 654.3 71.29 654.32 70.6 654.1 70.48 653.98 70.48 653.37 70.43 653.17 70.27 653.03 69.58 652.87 69.24 652.85 69.16 652.73 68.93 652.53 68.54 652.4 68.22 652.62 67.92 652.72 67.78 652.67 67.4 652.63 66.62 652.25 66.69 651.85 66.13 651.32 65.96 651.23 65.59 651.19 65.31 650.9 64.86 650.63 64.58 650.6 63.82 650.78 63.75 650.74 63.42 650.68 63.18 650.59 62.16 650.05 61.16 649.48 60.81 649.19 60.58 648.86 60.45 648.58 59.96 648.31 59.75 648 59.42 647.64 58.92 647.36 58.74 647.08 58.42 646.83 57.93 646.34 57.84 646.01 57.59 645.77 57.11 645.17 56.77 644.52 56.59 644.28 56.03 643.73 55.87 643.51 55.76 643.28 55.53 642.96 55.28 642.45 55.07 642.19 54.29 641.39 54.12 641.44 53.94 641.35 53.56 641.03 53.17 641.15 52.85 641.14 52.4 641.02 51.79 640.93 51.5 640.72 51.25 640.61 51.03 640.63 50.93 640.57 50.63 640.26 50.46 639.97 50.31 639.83 50.05 639.72 49.75 639.69 49.34 639.54 49.05 639.19 48.52 639.12 48.37 638.99 48.05 638.97 47.71 639.03 47.11 639.47 46.72 639.67 46.07 639.88 45.76 640.1 45.43 640.51 45.17 640.74 45.04 640.91 44.17 640.87 43.84 640.78 43.33 640.55 42.95 640.41 42.18 640.27 42.11 640.05 41.86 639.79 41.67 639.71 41.38 639.65 41.05 639.68 40.59 639.67 40.38 639.54 39.85 639.28 39.62 638.98 39.66 638.42 40.22 637.97 40.37 637.71 40.38 637.15 40.43 636.71 40.6 636.48 40.33 635.81 40.26 634.87 39.54 634.81 38.98 634.59 38.92 634.34 38.72 634.01 38.72 633.61 38.61 633.26 38.81 632.99 38.98 632.76 39.25 632.68 39.49 632.36 39.92 631.96 40.12 631.67 40.36 631.41 40.24 631.1 40.09 630.83 39.86 630.62 39.68 630.49 39.49 630.49 39.28 630.31 39.07 630.22 38.81 630.27 38.22 629.97 37.96 630.07 37.83 630.17 37.65 630.2 37.36 630 37.32 629.84 36.78 629.87 36.45 629.85 36.34 629.72 36.07 629.56 35.87 629.71 35.37 629.64 35.28 629.39 34.78 629.25 34.61 629.25 34.45 629.46 34.22 629.41 34.12 629.36 33.99 629.11 33.54 628.62 33.46 628.42 33.29 628.23 33.07 628.13 32.99 627.89 32.81 627.8 32.61 627.61 32.4 627.58 32.21 627.63 31.94 627.6 31.64 627.52 31.49 627.22 31.37 627.19 30.55 627.37 30.24 627.34 29.99 627.41 29.83 627.56 29.68 627.64 29.53 627.45 29.44 627.15 29.54 626.86 29.78 626.47 30.1 626.19 29.9 625.93 29.78 625.63 29.6 625.42 29.18 625.14 28.94 625.04 28.73 625.14 28 625.18 22.66 619.01 25.65 611.8 27.75 602.58 21.56 590.57 15.97 585.07 23.93 579.2 23.91 578.85 43.27 510.9 62.9 442.06 84.08 367.88 97.88 320.02 101.87 306.19 104.43 300.99 110.51 300.88 112.76 297.5 115.65 295.47 117.29 295.65 117.68 294.3 118.75 294.44 120.23 294.61 122.08 291.04 123.86 290.77 123.13 286.96 123.05 286.2 123.62 285.09 124.64 285.35 125.78 284.64 129.2 284.1 130.61 284.12 132.83 283.33 134.5 283.36 135.16 283.59 137.5 284.56 138.46 284.77 139.1 281.86 142.35 281.69 145.06 282.1 148.23 282.35 150.53 283.01 152.67 283.03 154.75 281.2 154.09 279.38 183.69 274.92 227.6 268.31 236.28 267.18 252.13 264.5 254.06 262.65 262.97 254.47 264.08 253.86 264.45 253.11 266.66 251.09 267.26 250.59 267.9 249.87 268.31 249.74 269.08 249.68 269.23 249.46 269.13 249.15 270.16 248.23 271.06 246.84 271.04 246.53 270.68 246.19 271.55 244.28 272.64 244.64 274.17 244.74 274.65 243.65 274.65 243.36 274.45 243.05 274.45 242.49 274.81 241.51 276.59 240.02 277.84 239.68 278.36 239.41 278.28 239.08 278.41 238.81 278.31 238.51 278.31 237.87 278.41 237.67 278.64 237.56 279.1 237.48 279.85 237.48 279.86 237.33 280.15 236.5 284.31 233.27 285.53 232.31 286.84 231.06 295.36 222.9 301.28 217.23 326.73 192.86 327.21 192.4 327.67 192.38 327.93 192.32 328.08 192.46 328.24 192.48 328.83 192.43 329.01 192.47 329 192.8 329.16 193.36 329.45 193.49 329.53 193.6 329.64 193.89 329.89 194.05 329.98 194.16 330.05 194.61 330.45 194.78 330.65 194.9 330.77 195.03 331 195.08 331.22 195.2 331.33 195.23 331.47 194.81 331.56 194.69 331.94 194.4 332.05 194.35 332.22 194.33 332.46 194.44 332.88 194.51 333.14 194.4 333.65 194.46 333.83 194.3 334.01 194.09 334.22 193.74 334.33 193.67 334.33 193.36 334.43 193.19 334.68 192.95 335 192.83 335.17 192.72 335.29 192.29 335.3 191.94 335.42 191.82 335.72 191.59 336.01 191.58 336.21 191.24 336.71 190.85 337.87 190.28 337.92 190.08 337.89 189.97 337.26 189.59 337.09 189.57 336.99 189.49 337.05 189.37 337.49 189 337.99 188.66 338.35 188.49 338.72 188.25 338.81 188.18 338.91 188.03 339.24 187.88 339.35 187.78 339.33 187.64 339.36 187.56 339.86 186.93 340.07 186.79 340.29 186.77 341.07 186.45 341.2 186.31 341.25 186.13 341.41 186.05 341.47 186.07 341.5 186.02 341.62 185.59 341.5 185.4 340.71 185.42 340.1 185.27 340.01 185.07 339.82 184.81 339.63 184.44 339.65 184.2 339.69 184.12 339.76 184 339.86 183.81 339.99 183.42 340.02 183.2 340.22 183.12 340.32 183.01 340.11 182.57 339.99 182.47 339.69 182.35 339.53 182.23 339.13 181.75 338.53 181.42 338.31 181.28 338.25 181.16 338.27 180.78 338.22 180.46 338.11 180.12 338.36 179.88 338.44 179.28 338.36 179.26 338.3 179.18 338.46 179.1 338.67 178.9 338.91 178.46 339.27 178.26 339.27 178.02 339.21 177.92 339.33 177.77 339.65 177.52 339.62 177.36 339.64 177.2 339.13 176.51 338.79 175.58 338.58 175.57 338.56 175.5 338.65 175.14 338.58 174.79 338.63 174.72 338.57 174.5 338.38 174.3 338.35 174.1 338.39 174 338.69 173.84 338.93 173.54 339.17 173.41 339.43 173.19 339.62 173.14 340.4 173.24 341.4 173.33 341.9 173.32 342 173.29 342.06 173.27 342.06 173.17 342.13 173.02 342.44 172.93 342.58 172.87 342.75 172.69 342.82 172.56 343.02 172.34 343.08 172.25 343.07 172.1 343.05 171.72 343.07 171.55 343.1 171.28 343.16 171.11 343.18 170.9 343.76 170.26 343.94 170.13 344.11 170.04 344.37 169.94 344.53 169.86 344.64 169.78 344.82 169.52 344.88 169.4 344.88 169.33 344.9 169.24 344.67 169.04 344.56 168.95 344.57 168.72 344.61 168.59 344.63 168.38 344.56 168.25 344.46 167.92 344.63 167.55 345.04 167.38 345.21 167.16 345.33 166.93 345.52 166.65 345.6 166.3 345.55 166.15 345.46 166.01 345.48 165.86 345.44 165.58 345.5 165.25 345.44 165 345.32 164.79 345.26 164.46 345.34 164.26 345.35 164.02 345.39 163.89 345.31 163.81 345.06 163.66 344.99 163.56 344.7 163.42 344.65 163.36 344.7 163.21 344.74 162.66 344.63 162.56 344.67 162.41 344.63 162.29 344.59 162.21 344.46 161.92 344.31 161.81 344.24 161.71 344.07 161.59 343.87 161.53 343.65 161.45 343.34 161.54 343.07 161.69 342.99 161.78 342.95 161.9 342.93 162.22 342.76 162.24 342.58 162.31 342.44 162.53 342.27 162.6 342.14 162.58 341.89 162.44 341.57 162.38 341.41 162.28 341.41 162.13 341.14 161.84 341.03 161.77 340.93 161.75 340.96 161.39 341.02 161.29 341.05 161.03 341.27 160.71 341.01 160.11 340.81 159.91 340.79 159.32 340.53 158.68 340.73 158.44 340.86 158.42 341.07 158.21 341.2 158.14 341.01 157.93 340.92 157.75 340.93 157.61 340.81 157.46 340.8 156.82 340.63 156.54 341.08 156.39 341.2 156.08 341.32 156.01 341.6 156.01 342.01 155.67 342.27 155.3 342.23 155.2 342.1 155.09 342.1 154.95 342.43 154.49 342.13 154.16 342.11 153.99 342.2 153.45 341.7 153.31 341.76 153.23 341.72 152.63 341.53 152.39 341.55 151.9 341.69 151.83 342.03 151.73 342.23 151.61 343.12 151.67 343.47 151.8 343.76 151.59 343.94 151.52 344.11 151.32 344.86 150.89 344.99 150.77 345.29 150.36 345.39 150.04 345.74 149.45 345.82 149.19 345.8 149.09 345.84 148.92 345.84 148.9 346.02 148.54 346.14 148.4 346.69 148.02 346.91 147.93 347.08 147.79 347.23 147.59 347.29 147.4 347.68 147.13 348.2 146.71 348.25 146.52 348.53 146.41 348.62 146.21 348.78 146.25 349.05 146.22 349.17 145.92 349.19 145.39 349.43 145.23 349.57 145.23 349.86 144.89 350.01 144.54 349.55 144.23 349.22 144.17 348.83 143.99 348.87 143.7 349 143.54 349.21 143.43 349.45 143.04 349.56 142.92 349.86 142.71 349.92 142.64 350.02 142.51 350.04 142.29 349.68 142.05 349.65 141.9 349.79 141.61 350.01 141.47 350.41 140.85 350.01 140.11 349.58 139.83 349.55 139.72 349.56 139.33 349.72 138.96 349.66 138.72 349.69 138.59 349.82 138.19 349.96 138.08 349.97 137.63 350.09 137.4 349.74 136.87 349.63 136.81 349.55 136.64 349.66 136.39 349.7 135.89 349.97 135.43 350.48 135.23 350.69 135.04 350.73 134.71 351 134.42 351.28 134.23 351.48 133.91 351.26 133.69 351.12 133.26 350.97 133.11 350.93 132.93 351.13 132.76 351.39 132.61 351.42 132.51 351.37 132.4 351.71 131.97 351.94 131.74 351.97 131.58 352.44 131.15 352.55 131.09 352.68 131.08 352.83 131.18 352.98 131.22 353.43 131.04 353.46 130.91 353.58 130.83 353.72 130.64 354.07 130.4 354.6 129.91 354.74 129.84 354.93 129.78 355.18 129.79 355.38 129.85 355.74 129.64 356.09 129.58 356.34 129.22 356.46 128.84 356.82 128.27 357.06 128.31 357.39 127.58 357.62 127.21 357.59 127.13 357.31 126.81 357.42 126.42 358.02 126.12 358.66 125.75 358.81 125.59 358.75 125.41 358.67 125.3 358.94 124.86 359.61 124.39 359.75 124.23 359.7 124.16 359.63 123.72 359.49 123.56 359.12 123.36 359.05 123.27 358.96 122.9 358.83 122.73 358.5 122.61 358.35 122.64 358 122.55 357.94 122.5 357.91 122.38 357.78 122.33 357.69 122.09 357.83 121.83 357.95 121.7 357.85 121.58 357.57 121.49 357.41 121.11 357.29 120.96 357.11 120.83 356.78 120.75 356.75 120.7 356.59 120.61 356.29 120.49 355.9 120.5 355.58 120.05 355.61 119.94 355.76 119.83 356.08 119.71 356.64 119.56 357.11 119.28 357.39 119.07 357.65 118.72 357.82 118.6 358.39 118.33 358.56 117.92 358.73 117.73 359.22 117.51 359.45 117.45 359.43 117.26 359.57 116.91 359.45 116.53 359.28 116.29 359.25 116.01 359.45 115.6 359.66 115.44 359.61 115.22 359.64 115.12 360.37 114.77 360.75 114.7 360.87 114.56 361.11 114.42 361.56 114.28 361.69 114.32 361.86 114.3 362.01 114.05 362.01 113.92 362.25 113.65 362.29 113.44 362.26 113.28 362.36 113.18 362.86 112.97 362.35 112.29 362.32 112.1 362.34 111.97 362.23 111.82 362.15 111.79 362.03 111.82 361.95 111.63 362.13 110.85 362.2 110.77 362.44 110.63 362.56 110.44 362.74 110.02 362.82 109.94 362.9 109.76 362.93 109.35 362.73 109.22 362.73 109.01 362.69 108.97 362.61 108.94 362.51 108.99 362.54 108.8 362.47 108.69 362.51 108.52 362.45 108.45 361.96 108.34 361.76 108.35 361.62 108.29 361.49 108.31 361.35 108.23 360.9 108.26 360.81 108 360.57 107.91 360.35 107.7 360.23 107.64 360.12 107.47 360.12 107.31 359.93 107.06 360.11 106.09 360.09 105.87 360 105.81 360.01 105.66 360.19 105.56 360.3 105.65 360.37 105.52 360.72 105.29 360.84 105.25 360.91 105.15 361.13 105.04 361.2 104.95 361.37 104.85 361.37 104.78 361.53 104.51 361.55 104.35 361.52 104.15 361.4 103.92 361.26 103.9 361.26 103.82 360.96 103.52 360.8 103.51 360.68 103.46 360.55 103.48 359.93 103.41 360 103.38 360.11 103.26 360.14 103.1 360.17 102.69 360.01 102.48 360.02 102.39 360.21 102.14 360.13 101.99 360.42 101.46 360.31 101.12 360.37 100.97 360.31 100.84 360.28 100.41 360.02 99.96 360.15 99.84 360.54 99.6 360.57 99.5 360.66 99.43 360.82 99.37 361.22 99.34 361.25 99.28 361.25 99.16 361.09 99.04 361.07 98.93 360.94 98.72 360.83 98.38 360.92 98.22 360.91 98.09 360.71 97.84 361.16 97.77 361.65 97.32 361.85 97.25 361.94 97.17 362.02 96.99 362.08 96.65 362.22 96.51 363.08 95.99 363.32 95.52 363.4 95.19 363.39 95.03 363.46 94.27 363.72 93.82 363.72 93.69 363.84 93.47 363.78 93.28 363.92 92.27 363.76 91.72 363.8 91.62 363.9 91.53 364.17 91.48 364.45 91.69 365.22 91.72 365.58 92.1 366.01 91.8 366.41 91.67 366.91 91.43 366.94 91.24 366.98 90.98 366.97 90.71 366.98 90.47 367.05 90.32 367.13 90.18 367.12 90.08 367.23 89.94 367.42 89.88 367.64 89.67 367.93 89.56 368.13 89.59 368.28 89.73 368.4 89.67 368.53 89.56 368.84 89.5 369 89.4 369.43 89.07 369.63 88.81 369.84 88.71 370.02 88.62 370.13 88.55 370.4 88.38 370.36 88.33 370.36 88.14 370.42 87.76 370.66 87.28 370.7 87.08 370.87 86.89 370.9 86.77 370.83 86.53 370.5 86.27 370.37 86.04 370.41 85.92 370.41 85.79 370.54 85.59 370.52 85.4 370.59 84.94 370.56 84.66 370.46 84.54 370.48 84.47 370.57 84.19 370.74 84.04 371 83.88 371.27 83.59 371.33 83.38 371.29 83.21 371.37 82.91 371.68 82.76 371.86 82.36 371.96 82.25 371.98 81.94 372.12 81.77 372.34 81.67 372.62 81.56 373.55 81.44 373.67 81.45 373.79 81.52 373.99 81.66 374.12 81.73 374.79 81.68 374.91 81.61 375.18 81.66 375.49 81.57 375.55 81.58 375.66 81.73 375.86 81.83 375.98 81.98 376.17 82.08 376.18 82.33 376.12 82.56 376.29 82.65 376.48 82.89 376.77 83.11 376.84 83.28 376.88 83.52 377.16 83.52 377.5 83.74 377.87 83.89 378.03 83.93 378.38 84.26 378.57 84.51 378.94 84.59 379.4 84.53 379.66 84.6 379.85 84.86 380.13 84.92 380.58 84.81 380.72 84.89 380.8 84.89 380.86 84.84 381.02 84.88 381.32 85.04 381.64 84.88 381.92 84.94 382.16 84.94 382.35 84.9 382.49 84.82 382.66 84.65 382.86 84.58 383.03 84.41 383.22 84.39 383.32 84.47 383.47 84.43 383.61 84.43 383.87 84.29 384.43 84.12 384.54 84.14 384.72 84.07 384.98 84.12 385.25 84.11 385.39 84.16 385.5 84.07 385.87 84.02 386.29 84.15 386.42 84.12 386.63 83.93 386.88 83.8 387.05 83.81 387.2 83.88 387.28 84.14 387.52 84.23 387.73 84.23 387.94 84.15 388.22 84.13 388.25 84.03 388.48 83.82 388.63 83.8 388.94 83.61 389.06 83.59 389.17 83.64 389.47 83.54 389.6 83.45 389.72 83.43 389.91 83.49 390.18 83.69 389.8 84.45 389.96 84.73 389.89 84.89 389.89 85.02 389.98 85.22 390.16 85.25 390.59 85.51 390.79 85.78 391.09 85.84 391.43 86.06 392.13 85.94 392.27 85.94 392.69 85.73 392.96 85.66 393.42 85.72 393.59 85.72 394.12 86.27 394.18 86.64 394.29 86.68 394.41 86.81 394.55 86.89 394.78 87.23 394.78 87.42 395.31 87.66 395.41 87.77 395.81 87.85 396.06 87.83 396.29 87.9 396.39 87.98 396.42 87.9 396.54 87.78 396.69 87.76 397.37 87.82 397.55 87.79 397.87 87.83 397.95 87.98 398.06 87.97 398.27 87.92 398.55 87.7 398.66 87.55 398.74 87.51 399.13 87.52 399.48 87.96 399.65 88.08 399.72 88.28 399.79 88.35 399.77 88.46 399.84 88.68 400 88.73 400.24 88.7 400.41 88.64 400.54 88.67 400.9 88.83 400.98 88.94 401.32 89.18 401.45 89.38 401.95 89.28 402.2 89.54 402.34 89.52 402.67 89.29 402.88 89.23 403.24 88.84 403.45 88.77 403.64 88.77 403.84 88.68 404.18 88.68 404.23 88.59 404.21 88.52 404.36 88.23 404.67 88.07 404.8 88.05 404.98 87.92 405.14 87.94 405.3 87.89 405.76 87.91 406.62 87.62 406.7 87.32 406.54 86.97 406.53 86.87 406.62 86.7 406.62 86.59 406.61 86.46 406.54 86.32 406.75 86.22 406.9 86.07 407.07 86.02 407.27 85.84 407.35 85.7 407.55 85.7 407.5 85.27 407.41 85.15 407.43 84.96 407.29 84.77 407.28 84.62 407.2 84.51 407.17 84.2 407.31 84.26 407.57 84.11 408.25 83.87 408.49 83.73 408.58 83.53 408.86 83.4 409.27 83.37 409.64 83.23 409.87 83.2 410.27 82.93 410.43 82.88 411.12 83.7 411.34 83.77 411.44 83.86 411.54 84.14 411.52 84.28 411.56 84.4 412.08 84.16 412.19 84.13 412.75 84.13 413.07 84.03 413.49 83.84 413.77 83.95 413.91 83.96 414.12 84.07 414.29 84.23 414.45 84.23 414.59 84.28 414.97 83.76 415.27 83.65 415.63 83.46 416.09 83.45 416.35 83.14 416.59 83.08 416.59 82.87 416.65 82.77 416.75 82.7 416.85 82.54 417.14 82.29 417.26 82.24 417.47 81.95 417.6 81.86 417.82 81.85 418.41 81.44 418.45 81.35 418.7 81.16 418.99 80.75 419.17 80.56 419.4 80.53 419.95 80.58 420.22 80.78 420.68 80.6 421.02 80.57 421.16 80.48 421.29 80.48 421.54 80.68 421.63 80.6 421.78 80.61 421.99 80.54 422.11 80.56 422.47 80.8 422.49 80.95 423.17 80.9 423.27 81.07 423.46 81.04 423.6 81.16 423.65 80.98 423.83 80.99 423.74 80.81 423.88 80.74 423.86 80.69 423.92 80.57 424.02 80.57 424.07 80.39 424.55 80.33 424.79 79.76 424.79 79.52 424.85 79.38 425.43 79 425.42 78.93 425.76 78.61 425.84 78.41 425.93 78.35 426.13 78.32 426.18 78.22 426.64 78 426.77 77.97 427.15 77.57 427.26 77.53 427.35 77.33 427.55 77.24 427.63 77.17 427.73 76.99 427.86 76.85 427.84 76.65 427.7 76.32 427.92 76.05 427.88 75.47 428.02 75.05 428.39 74.95 428.58 74.71 428.84 74.64 429.05 74.46 429.28 74.38 429.39 74.28 429.61 74.16 430.06 74.23 430.21 74.13 430.41 74.06 430.59 74.08 430.75 73.99 431.03 73.91 431.35 74.06 431.58 74.23 431.71 74.25 431.85 74.32 432.02 74.45 432.26 74.49 432.32 74.47 432.42 74.28 432.69 74.01 432.83 73.94 433.17 73.9 433.31 73.78 433.45 73.72 433.41 73.35 433.44 73.19 433.58 73.13 433.61 72.96 433.76 72.8 433.78 72.52 434.28 72.45 434.4 72.47 434.46 72.65 434.6 72.76 434.71 72.55 434.93 72.44 434.97 72.29 435.17 72.14 435.48 72.01 435.67 71.99 435.63 71.88 435.89 71.28 436.51 70.83 436.39 70.59 436.35 70.39 436.37 70.16 436.45 69.89 436.37 69.65 436.39 69.55 436.29 69.08 436.44 68.88 436.45 68.71 436.39 68.55 436.26 68.44 436.19 68.27 436.19 67.71 436.07 67.5 435.96 67.37 436.04 67.28 436.02 67.14 436.22 66.97 436.32 66.84 436.31 66.66 436.68 66.31 436.7 66.2 436.87 66.03 437.27 65.99 437.37 65.68 437.55 65.47 437.89 65.19 438.05 65.12 438.54 65.03 438.58 64.78 438.57 64.59 438.41 64.29 438.36 64.09 438.09 63.71 438.04 63.52 438.11 63.21 438.09 63.04 437.87 62.76 437.97 62.33 437.96 61.97 437.88 61.77 437.96 61.21 437.93 61.07 437.95 60.93 437.89 60.79 438.13 60.57 438.21 60.45 438.56 60.34 438.88 60.03 439.08 60.04 439.55 59.81 440.09 59.6 440.14 59.42 440.3 59.19 440.34 59.08 440.32 58.87 440.4 58.78 440.38 58.71 440.61 58.56 441.01 58.21 441.28 57.67 441.6 57.33 441.64 57.1 441.85 56.85 441.93 56.69 441.88 56.51 441.89 56.38 442.1 56.33 442.36 56.2 442.66 56.1 442.72 56 442.82 55.93 443.2 55.84 443.36 55.71 443.47 55.7 443.66 55.75 443.91 55.63 444.18 55.36 444.59 55.06 444.4 54.59 444.38 54.4 444.24 54.26 444.16 54.09 444.13 53.91 444.18 53.66 444.15 53.48 445 51.36 445.67 50.75 446.35 49.67 446.49 49.09 446.72 48.51 446.84 47.84 447.02 47.63 446.99 47.51 447.39 47.18 447.44 47.07 447.41 46.95 447.3 46.79 447.33 46.63 447.3 46.5 447.37 46.34 447.48 46.22 447.53 45.96 447.47 45.82 447.55 45.67 447.55 45.5 448.25 45.28 448.53 45.06 448.6 44.79 448.58 44.66 448.67 44.45 448.62 44.37 448.62 44.19 448.99 43.74 449.12 43.42 449.21 43.35 449.3 42.79 449.8 42.2 450.04 41.34 450.04 41.15 450.13 40.96 450.26 40.79 450.61 40.56 450.75 40.5 450.84 40.52 451 40.47 451.09 40.47 451.16 40.53 451.27 40.45 451.41 40.41 451.62 40.16 451.81 40.11 451.96 39.76 452.23 39.44 452.26 39.3 452.19 39.15 452.43 38.99 452.68 38.74 452.85 38.67 452.93 38.52 452.91 38.45 453.16 38.01 453.27 37.95 453.69 37.94 453.79 37.89 453.99 37.67 454.39 37.61 454.71 37.47 454.96 37.5 455.18 37.64 455.32 37.59 455.51 37.69 455.64 37.59 456.18 37.39 456.32 37.26 456.42 37.05 456.8 36.85 457.19 36.72 457.55 36.92 457.91 37.04 458.05 36.92 458.27 36.87 458.52 36.71 458.82 36.65 459.17 36.48 459.39 36.32 459.59 36.36 459.77 36.47 460.25 36.55 460.35 36.44 460.56 36.33 460.68 36.21 460.96 36.14 461.12 35.92 461.08 35.74 461.1 35.63 461.29 35.48 461.49 35.4 461.57 35.24 461.85 35.29 462.07 35.22 462.4 35.26 462.85 34.99 463.98 35.21 464.13 35.2 464.24 35.14 464.65 34.91 464.65 34.57 465 34.19 465.09 34.05 465.37 33.92 465.73 33.99 465.92 34.07 466.25 34.01 466.52 33.9 466.65 34.24 466.88 34.43 467.27 34.49 467.4 34.54 467.74 34.57 467.87 34.52 468.86 34.67 469.11 34.66 469.56 34.75 469.82 34.71 469.96 34.8 470.08 34.76 470.43 34.55 470.59 34.36 470.63 34.26 470.57 34.2 470.56 34.11 470.7 33.93 470.69 33.68 471.22 33.75 471.76 33.43 472.16 33.47 472.38 33.14 472.36 32.99 472.52 32.88 473 32.66 473.06 32.55 473.05 32.3 473.21 32.36 473.34 32.32 473.63 32.01 473.88 31.94 473.83 31.82 473.86 31.69 473.92 31.59 474.04 31.49 474.25 31.35 474.63 31.25 474.87 31.07 474.88 30.98 475.12 30.74 475.27 30.68 475.55 30.5 475.71 30.45 475.69 30.32 475.86 30.09 476.1 29.93 476.19 29.58 476.24 29.53 476.36 29.49 476.37 29.41 476.45 29.31 476.64 29.17 476.72 29.05 476.82 28.98 477.35 28.85 477.41 28.55 477.49 28.43 477.51 28.28 477.59 28.16 477.64 28.12 477.82 28.07 477.94 27.93 478.35 27.66 478.4 27.55 478.63 27.4 479.45 27.38 479.72 27.19 479.85 27.2 479.99 27.15 480.46 27.15 480.79 26.9 480.87 26.89 480.92 26.94 481.04 26.93 481.1 26.97 481.11 27.06 481.17 27.12 481.56 27.07 481.61 26.97 481.49 26.74 481.66 26.6 481.78 26.43 481.77 26.35 481.99 26.15 482.06 26.13 482.36 26.2 482.49 26.28 482.68 26.33 482.77 26.24 482.98 26.21 483.1 26.14 483.25 25.97 483.27 25.86 483.64 25.46 483.78 25.48 483.94 25.39 484.28 25.36 484.15 25.24 484.1 25 484.04 24.87 483.88 24.7 483.8 24.41 484.11 24.36 484.52 24.36 485.38 24.03 485.52 24.02 485.75 24.27 485.85 24.28 485.95 24.19 486.08 24.14 486.23 24.21 486.44 24.2 486.62 24.12 486.77 24.12 487.04 23.85 487.55 23.5 487.7 23.54 488.53 23.15 488.8 22.95 488.93 22.64 489.02 22.59 489.28 22.48 489.52 22.45 489.63 22.47 489.69 22.38 489.93 22.21 490.13 22.12 490.27 22.17 490.73 21.92 490.91 21.91 491.49 21.66 492.11 21.29 492.41 21.16 492.54 21.08 492.64 20.95 492.82 20.89 493.28 20.55 493.72 20.3 493.97 20.11 494.36 20.05 494.52 20.05 494.73 19.82 495.01 19.64 495.25 19.26 495.48 19.12 495.68 18.93 496.13 18.65 496.46 18.64 496.64 18.58 497.06 18.64 497.4 18.76 497.68 18.6 497.74 18.6 498.27 18.72 498.55 18.36 498.66 18.36 498.8 18.26 499.1 18.17 499.24 18.04 499.45 18 499.73 17.9 499.95 17.89 500.1 17.8 500.28 17.84 500.46 17.73 500.98 17.62 501.06 17.52 501.32 17.39 501.4 17.28 501.62 17.23 501.73 17.27 502.05 17.27 502.17 17.31 502.22 17.36 502.44 17.39 502.72 17.3 503.06 17.3 503.27 17.23 503.38 17.17 503.76 16.84 504.14 16.79 504.4 16.6 504.48 16.27 504.6 16.18 504.66 15.87 505.13 15.83 505.68 15.55 506.07 15.24 506.38 15.41 506.64 15.67 506.73 15.93 506.9 15.98 507.1 15.84 507.27 15.79 507.63 15.8 507.8 15.84 507.89 15.93 508.16 16.03 508.27 15.98 508.43 15.82 508.62 15.7 508.75 15.65 509.19 15.78 509.44 15.69 509.82 15.47 510.3 15.74 510.39 15.92 510.53 16.07 510.67 15.96 511.16 15.95 511.27 15.9 511.52 15.68 511.74 15.88 511.9 15.97 511.93 16.18 512.1 16.29 512.37 16.24 512.56 16.32 512.71 16.3 513.07 16.06 513.6 15.86 513.72 15.84 513.84 15.88 514.16 15.67 514.27 15.7 514.44 15.63 514.62 15.61 514.76 15.63 514.94 15.78 515.05 15.75 515.45 15.96 515.53 16.07 515.85 16.2 516.08 16.11 516.36 16.18 516.43 16.25 516.57 16.21 516.76 16.42 516.75 16.51 517.04 16.77 517.06 17.01 517.12 17.1 517.13 17.36 517.24 17.41 517.27 17.49 517.46 17.54 517.55 17.52 517.69 17.41 517.96 17.42 518.23 17.52 518.34 17.52 518.43 17.47 518.88 17.02 519.12 16.86 519.2 16.72 519.4 16.54 519.75 16.54 519.96 16.14 520.15 15.97 520.18 15.8 520.46 15.52 520.77 15.6 520.85 15.57 521.33 15.26 521.46 15.22 521.66 15.22 522.17 14.94 522.23 14.6 522.43 14.31 522.57 14.26 522.69 14.33 522.77 14.3 522.9 14.33 523.6 14.65 523.92 14.51 524.18 14.46 524.35 14.16 524.35 14.01 524.69 13.91 524.95 13.68 525.06 13.64 525.31 13.63 525.52 13.71 525.87 13.52 526.24 13.48 526.26 13.42 526.24 13.33 526.3 13.24 526.37 13.23 526.54 13.1 526.87 12.93 527.22 12.93 527.37 12.96 527.56 12.81 528.04 12.61 528.23 12.65 528.7 12.61 528.95 12.58 529.3 12.47 529.69 12.57 529.87 12.57 529.97 12.33 530.15 12.12 530.25 11.8 530.51 11.57 530.5 11.43 530.74 11.56 531.05 11.54 531.3 11.66 531.46 11.48 531.42 11.36 531.59 11.2 531.66 11.07 531.77 11.08 531.99 11.01 532.09 11.03 532.36 10.99 532.72 10.77 532.81 10.67 532.9 10.67 533.16 10.52 533.29 10.54 533.81 10.33 533.96 10.45 534.37 10.37 534.57 10.44 534.74 10.42 535.14 10.2 535.3 10.07 535.57 9.62 535.6 9.52 535.57 9.4 535.92 9.4 536.06 9.44 536.17 9.51 536.29 9.49 536.55 9.63 536.7 9.55 536.68 9.44 536.95 9 537.35 8.83 537.65 8.85 537.76 8.91 537.81 8.85 538.33 8.73 538.48 8.37 538.57 8.26 538.83 8.24 538.93 8.19 539.44 8.17 539.7 8.09 539.89 8.14 539.94 8.06 540.09 7.99 540.32 8.02 540.47 7.73 540.68 7.57 540.81 7.54 540.97 7.57 541.08 7.44 541.3 7.3 541.56 7.2 541.71 7.16 542.09 7.51 542.55 7.42 542.87 7.28 543.12 7.36 543.3 7.31 543.54 7.3 543.65 7.25 544.07 7.16 544.25 7.08 544.33 7.01 544.5 6.81 544.6 6.56 544.73 6.47 544.92 6.4 545.04 6.44 545.13 6.35 545.24 6.33 545.36 6.24 545.48 6.07 545.59 5.99 545.85 5.89 546.42 5.61 546.69 5.31 546.77 5.12 546.89 5.06 547 4.88 547.27 5.02 547.38 4.99 547.76 4.68 547.93 4.59 548.13 4.44 548.97 4.06 549.16 4.21 549.27 4.38 549.32 4.6 549.49 4.86 549.65 4.81 549.74 4.84 549.86 4.79 550.11 4.94 550.19 5.29 550.6 5.23 550.91 5.37 551.01 5.34 551.44 5.09 551.95 4.98 552.16 4.97 552.31 4.92 552.44 4.74 552.59 4.63 552.94 4.51 553.03 4.4 553.24 4.46 553.67 4.43 553.85 4.31 554.19 4.18 554.51 4.12 555.09 3.91 555.38 3.92 555.43 3.96 555.45 4.27 555.56 4.49 555.47 4.62 555.54 4.78 555.47 4.93 555.58 4.96 555.82 5.24 555.95 5.5 555.9 5.94 555.95 6.02 555.91 6.11 556.14 6.21 556.41 6.26 556.51 6.34 556.94 6.45 556.92 6.63 556.99 6.86 557.07 6.95 557.15 7.25 557.33 7.33 557.49 7.32 557.81 7.42 557.99 7.38 558.14 7.4 558.2 7.37 558.28 7.23 558.46 7.12 558.51 7.01 558.66 6.93 558.94 7.07 559.29 7.17 559.68 7.08 559.93 6.94 560.15 6.87 560.4 6.9 560.57 6.87 561.04 6.48 561.19 6.47 561.57 6.36 561.96 5.92 562.08 6.04 562.43 5.98 562.77 5.87 562.87 5.96 562.86 6.2 563.19 6.02 563.44 5.95 563.63 5.95 563.81 6.14 564.19 6 564.49 6.02 565.02 5.82 565.2 5.64 565.03 5.28 565.41 5.28 565.5 5.25 565.63 5.16 565.8 4.63 566.17 4.64 566.29 4.74 566.38 4.67 566.63 4.67 566.96 4.31 567.31 4.19 567.56 4.2 567.89 4.03 568.28 3.48 568.83 3.02 568.95 3.11 569.14 3.19 569.28 3.19 569.38 3.25 569.73 3.74 569.82 3.94 569.81 4.04 570.05 4.22 570.32 4.26 570.49 4.58 570.95 4.42 571.76 4 572.16 4.03 572.23 3.94 572.86 3.79 573.28 3.61 573.5 3.82 573.67 3.92 573.75 4.2 573.9 4.51 574.1 4.63 574.25 4.82 574.83 4.68 574.91 4.61 575.23 4.5 575.49 4.31 576.15 4.16 576.26 4.19 576.36 4.06 576.67 3.85 576.8 3.98 577.11 4.06 577.19 4.11 577.36 4.05 577.5 3.97 577.87 3.58 578.02 3.21 578.09 3.15 578.52 2.96 578.7 3.24 579.19 3.53 579.52 3.56 579.66 3.52 579.82 3.51 579.69 3.78 579.75 3.93 579.86 4.02 579.91 3.91 580.2 3.73 580.61 3.61 580.72 3.69 580.98 3.63 581.18 3.4 581.46 3.37 581.64 3.58 581.67 3.69 581.82 3.7 582.08 3.54 582.45 3.43 582.48 3.38 582.62 3.36 582.86 3.22 583.06 3.2 583.39 3.08 583.59 3.04 583.7 3.22 583.83 3.14 584.04 3.16 584.13 3.22 584.3 3.25 584.3 3.34 584.45 3.4 584.62 3.69 584.56 4.03 584.72 4.14 584.76 4.21 584.75 4.34 584.83 4.39 585.1 4.48 585.16 4.45 585.26 4.51 585.48 4.74 585.67 4.56 585.78 4.55 586.02 4.61 586.29 4.63 586.34 4.69 586.64 4.75 586.59 4.93 586.66 5 586.62 5.39 586.76 5.57 586.79 6.03 586.86 6.06 587.14 6.05 587.25 6.15 587.33 6.34 587.48 6.43 587.86 6.38 588.13 6.29 588.3 6.39 588.59 6.22 588.92 6.19 589.16 6.35 589.7 6.12 589.81 6.05 589.93 5.9 590.36 5.8 590.66 6.16 590.77 6.2 591 6.14 591.16 6.24 591.35 6.3 591.44 6.4 591.45 6.81 591.97 6.67 592.17 6.57 592.25 6.61 592.41 6.57 592.5 6.71 592.48 6.77 592.09 7.42 592.13 7.53 592.58 7.5 592.88 7.37 593.07 7.46 593.09 7.57 593.15 7.58 593.23 7.67 593.37 7.7 593.58 7.6 594.03 7.53 594.18 7.43 594.05 7.29 594.02 7.15 593.75 6.85 594.22 6.49 594.19 6.33 594.27 6.15 594.75 5.83 594.91 5.65 595.21 5.56 595.3 5.58 595.45 5.49 595.83 5.38 596.03 5.28 596.68 5.07 596.81 5.08 597.26 5.31 597.11 5.09 597.14 4.92 597.22 4.82 597.62 4.5 597.84 4.51 598.18 4.44 598.21 4.36 598.49 4.24 598.81 4.2 599.3 3.86 599.49 3.8 599.69 3.74 599.8 3.9 599.98 3.92 600.07 3.96 600.91 3.6 601.06 3.7 601.12 3.82 601.56 3.66 601.83 3.52 602.01 3.24 602.5 3.13 602.74 3.01 603.06 2.91 603.13 3.11 603.32 3.37 603.6 3.31 603.99 3.37 604.04 3.46 604.11 3.49 604.47 3.9 604.69 3.82 605.2 3.79 605.36 3.67 605.64 3.6 605.8 3.5 606.8 3.13 607.24 3.1 607.31 3.04 607.32 2.96 607.52 2.67 607.73 2.5 607.95 2.5 608.49 2.41 608.91 2.43 609 2.38 609.27 2.35 609.49 2.25 609.72 1.99 610.21 2.23 610.34 2.4 610.32 2.49 610.44 2.42 610.68 2.38 610.8 2.51 610.96 2.34 611.1 2.32 611.27 2.31 611.38 2.35 611.43 2.42 611.56 2.38 611.72 2.17 611.83 2.18 612.06 2.14 612.21 2.03 612.66 1.86 612.9 1.68 613.05 1.44 613.24 1.31 613.52 1.23 613.77 1 613.96 1.27 614.57 1.69 614.11 1.86 614.14 1.96 614.11 2.12 613.78 2.3 613.68 2.33 613.74 2.61 614.01 2.79 614.18 2.83 614.64 3.22 614.78 3.62 614.89 4.13 615.04 4.5 615.07 4.74 615.19 4.96 615.49 4.92 615.64 5 615.73 5 615.88 5.18 615.92 5.18 615.81 5.49 615.86 5.72 616.07 5.82 616.35 5.79 616.47 5.9 616.44 5.96 616.48 6.05 616.25 6.31 616.33 6.47 616.41 6.89 616.5 6.99 616.68 7.33 616.61 7.44 616.61 7.5 616.78 7.67 616.7 7.89 616.54 7.94 616.26 8.16 616.01 8.26 615.86 8.25 615.6 8.45 615.29 8.57 615 8.77 614.53 8.95 614.53 9.01 614.76 9.26 614.75 9.37 614.79 9.46 614.98 9.45 615.21 9.57 615.48 9.43 615.68 9.42 615.99 9.28 616.2 9.28 616.43 9.37 616.73 9.66 617.02 9.74 617.27 9.74 617.3 9.78 617.28 10.03 617.35 10.15 617.31 10.31 617.91 10.39 618.1 10.51 618.06 10.77 618.13 10.96 617.97 11.48 617.99 11.66 618.29 11.64 618.6 11.43 618.72 11.4 619.1 11.02 619.65 11.36 619.86 11.36 620.24 11.21 620.38 11.22 620.49 11.26 620.52 11.49 620.53 11.67 620.43 11.97 620.45 12.15 621.14 12.58 621.44 12.37 621.77 12.22 621.81 12.17 621.91 12.15 622.45 11.81 622.5 11.83 622.65 12.08 622.85 12.25 622.88 12.35 623.02 12.52 623.1 12.74 623.36 12.77 623.53 12.74 623.72 13.06 623.69 13.32 623.75 13.73 623.61 13.84 624.09 14.16 624.15 14.25 624.39 14.34 624.55 14.3 624.68 14.32 625.15 14.47 625.14 14.55 625.2 14.67 625.14 14.8 625.18 15.12 625.14 15.4 625.18 15.53 625.29 15.57 625.33 15.71 625.62 15.9 625.59 16.02 625.66 16.22 625.62 16.28 625.96 16.46 626.09 16.42 626.4 16.48 626.36 16.63 626.21 16.76 626.2 16.86 626.1 16.99 626.16 17.41 626.27 17.58 626.42 17.65 626.59 17.83 626.73 17.82 626.87 17.85 627.12 18.09 627.44 18.21 627.5 18.28 628.07 18.55 628.38 19.17 628.55 19.37 628.57 19.65 628.49 19.79 628.5 19.96 628.56 20.11 628.93 20.4 629.01 20.56 629.17 20.68 629.57 20.85 629.87 21.06 629.57 21.34 628.97 21.62 628.91 21.62 628.76 21.89 628.55 22.14 628.42 22.17 628.43 22.29 628.63 22.32 628.64 22.44 628.69 22.51 628.53 22.64 628.43 22.8 628.03 23.03 627.86 23.24 627.63 23.35 627.48 23.46 627.27 23.55 627.63 23.93 627.54 24.21 627.27 24.42 627.4 24.88 627.04 24.85 626.77 24.87 626.68 25.21 626.6 25.37 626.25 25.62 626.09 25.7 625.85 25.91 625.77 25.97 625.64 25.97 625.49 26.03 625.26 26.35 625.21 26.44 625.25 26.56 625.08 26.81 624.68 27.03 624.49 27.26 624.53 27.32 624.61 27.3 624.59 27.36 624.64 27.43 624.69 27.42 624.78 27.55 624.84 27.76 624.99 28.03 624.97 28.21 625.02 28.47 625.12 28.61 625.14 28.81 624.87 29.38 624.87 29.45 624.92 29.49 624.85 29.57 624.67 29.64 624.34 29.92 624.23 29.89 624.04 30.07 623.53 30.36 623.37 30.55 623.56 30.7 623.59 30.78 623.49 31.07 623.54 31.11 623.57 31.42 623.64 31.45 623.67 31.63 623.65 31.7 623.56 31.79 623.46 31.99 623.22 32.02 622.82 32.18 622.39 32.57 622.01 32.66 621.94 32.74 621.41 32.99 621.27 33.14 621.2 33.32 620.88 33.53 620.54 33.88 620.2 34 619.7 34.36 619.09 34.5 618.71 34.79 618.59 34.9 618.68 35.45 618.53 35.63 618.31 35.78 618.2 35.91 618.19 36.03 617.64 36.22 617.4 36.27 617.27 36.36 617.22 36.46 617.07 36.51 616.58 36.53 616.18 36.34 615.81 36.32 615.66 36.25 615.63 36.37 615.23 36.61 615.07 37.26 614.62 37.51 614.54 37.87 614.31 37.83 613.97 37.85 613.7 37.71 613.2 37.67 612.58 37.88 612.21 38.1 612.06 38.54 611.81 38.75 611.65 38.76 611.58 38.9 611.62 39.09 611.54 39.35 611.44 39.48 611.21 39.59 610.5 39.48 610.31 39.41 610.22 39.44 610.03 40.34 609.82 40.43 609.52 40.63 609.21 40.44 609.06 40.39 608.63 40.56 608.37 40.57 607.79 40.9 607.79 41.01 607.7 41.12 607.35 41.4 607.1 41.43 606.79 41.53 606.6 41.94 606.33 42.01 606.05 42.14 605.92 42.43 605.74 42.67 605.49 42.85 605.34 42.96 604.73 43.09 604.65 43.32 604.31 43.71 604.27 43.87 604.18 44 603.95 44.14 603.61 44.14 603.51 44.21 603.25 44.26 602.92 44.4 602.46 44.68 602.65 55.99 602.44 59.7 610.87 56.19 611.23 56.24 611.97 56.63 612.59 56.79 612.87 56.92 613.51 57.39 613.64 57.55 613.62 57.68 613.46 58.32 613.25 58.57 613.2 58.76 613.56 59.2 613.77 59.37 614.25 59.65 614.5 59.72 615.3 59.57 615.61 59.48 615.87 59.35 615.94 59.17 615.98 58.87 615.89 58.42 615.92 58.23 616.02 58.03 616.22 57.77 616.43 57.68 616.74 57.43 617.26 56.81 617.44 56.71 617.67 56.34 617.81 56.22 618.46 56.08 618.67 56.1 618.98 56.31 619.43 56.86 619.52 57.11 619.78 57.6 620.06 57.77 620.39 58.14 620.56 58.5 620.54 58.75 620.47 58.88 620.46 59.05 620.6 59.16 622.29 59.29 622.6 59.26 622.88 59.06 623.09 58.99 623.85 58.94 625 58.98 625.64 59.17 625.74 59.28 625.58 59.87 625.72 60.35 625.51 60.52 625.37 60.57 625.26 60.7 625.24 60.86 625.17 60.96 625.15 61.24 625.08 61.47 624.77 61.67 624.39 61.83 624.44 62.16 624.7 62.4 624.84 62.63 624.85 62.73 624.97 62.89 625.24 63.01 625.24 63.17 625.28 63.21 625.21 63.42 625.23 63.68 625.12 63.78 625.19 63.92 625.2 64.12 625.27 64.2 625.28 64.27 625.25 64.35 625.18 64.38 624.51 64.54 624.42 64.61 624.11 64.7 623.84 64.89 623.8 65 623.85 65.24 623.8 65.36 623.84 65.94 623.89 66.05 623.77 66.61 623.75 66.96 623.66 67.2 623.92 67.45 623.94 67.61 624.16 67.59 624.34 67.72 624.21 67.97 624.23 68.13 624.32 68.22 624.31 68.38 624.39 68.58 624.54 68.68 624.63 68.8 624.51 68.93 624.59 69.16 624.58 69.33 624.48 69.58 624.5 69.7 624.59 69.92 624.69 70.05 624.82 70.37 624.9 70.47 624.88 70.6 625.02 70.83 625.5 71.34 625.54 71.5 625.64 71.68 625.95 71.86 626.17 71.89 626.54 72 626.97 71.85 627.57 71.88 627.75 72.05 628.13 72.24 628.33 72.23 628.5 72.26 628.72 72.19 629.13 72.28 629.3 72.41 629.57 72.4 629.62 72.53 629.8 72.6 629.97 72.73 630.13 72.74 630.42 73.03 630.51 73.1 630.57 73.1 630.68 73.22 630.78 73.25 630.88 73.23 631.18 73.37 631.35 73.26 638.72 78.05 655.31 70.27 660 69.4 664.65 69.49 664.58 66.62 664.56 66.33 664.45 65.87 664.43 65.44 664.47 65.32 664.64 65.17 664.95 65.18 665.08 64.99 665.2 64.89 665.36 64.87 665.62 64.76 665.74 63.9 665.8 63.69 666.18 63.66 666.45 63.58 666.68 63.56 667.09 63.64 667.57 63.51 667.99 63.31 668.12 63.02 668.22 62.93 668.77 62.6 669.16 62.25 669.65 62.1 670.05 61.81 670.19 61.76 670.42 61.72 670.99 61.91 671.09 61.88 671.28 61.71 671.49 61.73 671.69 61.88 672.1 61.74 672.4 61.73 672.93 61.58 673.35 61.32 673.46 61.32 673.65 61.22 673.99 61.18 674.11 61.11 674.11 61.02 674.2 60.94 674.52 60.89 674.52 60.78 674.67 60.68 675.48 60.65 675.93 60.71 676.19 60.5 676.36 60.43 676.6 60.36 676.77 60.42 677.01 60.3 677.13 60.17 677.34 60.12 677.47 60.12 677.56 60.16 677.64 60.07 677.88 59.99 678.19 59.78 678.34 59.8 678.5 59.87 678.72 59.82 678.84 59.85 679.3 59.81 679.46 59.82 679.56 59.88 679.96 59.9 680 59.84 680.47 59.55 680.46 59.35 680.93 59.3 681.35 58.88 681.68 58.65 681.77 58.62 681.89 58.64 682.03 58.78 682.14 58.78 682.25 58.74 682.56 58.47 683.04 58.34 683.3 58.53 683.53 58.63 683.49 58.77 683.62 59.04 684 59.51 684.08 59.56 684.2 59.75 684.25 59.76 684.45 59.73 684.7 59.77 684.84 59.84 685.15 59.68 685.49 59.58 685.8 59.59 686.15 59.7 686.49 59.66 686.66 59.68 686.94 59.79 687.1 59.79 687.39 59.9 687.44 60.01 687.73 60.26 688.02 60.21 688.4 60.27 688.57 59.92 688.62 59.69 688.96 59.37 689.21 59.19 689.4 59.31 689.89 59.45 690.2 59.63 690.16 59.85 690.18 59.91 690.27 59.95 690.38 59.9 690.7 59.86 690.85 60.06 691.54 60.33 691.67 60.42 691.8 60.43 691.89 60.63 691.87 60.78 692.2 60.91 692.62 60.97 692.6 60.72 692.75 60.53 692.98 60.49 693.33 60.17 693.49 60.1 693.72 60.08 693.92 60.15 694.22 60.05 694.28 60.06 694.41 59.89 694.46 59.73 695 59.55 695.01 59.32 695.15 59.08 695.43 58.96 695.81 58.63 696 58.55 696.36 58.59 696.66 58.72 696.79 58.58 696.79 58.39 696.99 58.14 697.19 58.13 697.59 57.99 697.88 58.11 698.07 58.03 698.22 57.83 698.52 57.59 698.65 57.55 698.78 57.39 698.87 57.34 699.4 57.36 699.58 57.27 699.64 57.2 699.75 56.78 699.9 56.41 699.84 56.36 699.86 56.25 699.65 56.15 699.66 56.08 699.6 55.96 699.36 55.58 699.26 55.2 699.49 54.91 699.52 54.74 699.25 54.21 699.22 54.08 699.11 53.97 698.92 53.92 699.12 53.75 699.29 53.51 699.5 53.42 699.95 53.39 700.28 53.22 700.89 53.18 701.13 53.1 701.34 53.08 701.87 53.17 702.17 53.13 702.23 53.1 702.64 53.16 702.92 53.09 702.99 53.01 703.06 52.79 703.33 52.52 703.43 52.3 703.46 52.08 703.62 51.9 704.69 51.37 705 50.98 705.26 51.05 705.68 50.92 706.05 50.97 706.18 51.03 706.26 51.13 706.3 51.23 706.27 51.36 706.3 51.45 706.41 51.52 706.32 51.77 706.33 51.87 706.54 51.88 706.66 51.96 706.69 52.05 706.42 52.73 706.97 53.1 706.93 53.22 707.01 53.33 707.12 53.37 707.2 53.6 707.41 53.57 707.55 53.62 707.74 53.59 707.91 53.6 708.17 53.53 708.3 53.55 708.51 53.84 708.62 53.9 708.75 53.89 709.22 53.66 709.29 53.56 709.83 53.16 710.05 53.12 710.23 53.15 710.39 53 710.66 52.89 710.72 52.91 710.79 53.15 711.05 53.21 711.2 53.34 711.36 53.34 711.73 53.46 711.79 53.57 712.08 53.55 712.19 53.5 712.25 53.53 712.43 53.46 712.73 53.58 712.81 53.7 713.01 53.78 713.33 53.67 713.71 53.47 713.89 53.65 714.49 53.34 714.65 53.05 715.18 52.87 715.34 52.87 715.45 52.92 715.73 52.89 715.99 53.02 716.51 53.01 716.67 53.15 717.02 53.29 717.16 53.5 717.2 53.71 717.29 53.81 717.6 54.64 717.58 54.78 717.65 54.92 717.88 55.21 718.1 55.71 718.38 56.02 718.61 56.21 718.63 56.33 718.77 56.63 722.48 63.04 725.85 70.42 738.84 75.45 764.12 77.88 780.96 77.32 781.14 77.64 781.27 77.75 781.46 77.85 782.34 78.14 782.81 78.35 783 78.39 783.73 78.4 784.17 78.44 784.77 78.41 785.47 78.59 785.91 78.83 786.21 79.09 786.34 79.08 787.6 78.62 787.78 78.61 787.97 78.69 788.04 78.82 788.08 79.05 788.04 79.44 787.95 79.66 787.76 79.95 787.01 80.31 786.74 80.64 786.68 80.91 786.77 81.19 787.46 81.93 788.49 83.25 789.23 83.83 789.88 84.16 790.42 84.3 790.71 84.43 790.9 84.73 790.58 85.06 790.19 85.13 789.59 85.31 789.02 85.51 788.93 85.59 788.88 85.9 789.99 86.15 790.63 86.2 790.95 86.53 790.9 86.71 790.41 87.41 789.92 87.77 789.82 87.95 789.82 88.06 789.95 88.19 790.38 88.44 791.79 88.97 793.69 89.38 794.52 89.61 795.24 89.86 796.01 90.01 796.25 89.97 796.58 90 796.92 89.53 797.56 89.12 798.22 88.83 798.49 88.74 798.29 90.06 798.49 91.49 798.11 93.23 797.82 94.01 795.98 94.58 795.98 95.17 797.18 95.51 798.16 95.46 799 95.99 798.43 98.24 796.3 98.11 795.52 97.13 794.82 97.26 794.36 97.66 794.83 98.66 793.3 105.98 791.31 110.94 789.55 116.02 789.64 118.23 788.03 124.31 787.46 129.69 787.66 135.5 784.84 136.95 783.56 138.1 782.43 138.47 780.39 138.73 779.71 140.95 777.86 143.44 777.22 144.9 777.13 146.8 777.71 147.58 775.94 150.11 774.6 151.02 773.2 152.22 772.48 154.2 768.14 156.74 767.03 158.75 765.8 164.45 762.59 171.34 762.03 173.15 758.91 183.07 756.45 189.99 755.91 194.98 753.7 202.28 751.82 218.99 753.5 223.4 754.27 224.87 754.63 226.59 753.66 233.75 752.69 234.62 751.89 235.12 750.91 234.44 749.11 234.47 748.13 234.2 745.68 234.99 742.54 235.92 740.52 237.73 733.7 241.05 727.63 245.29 726.08 245.74 724.24 246.6 722.65 247.38 716.11 249.8 714.15 251.11 713.22 254.66 711.87 255.48 706.83 258.2 704.75 258.98 698.77 259.3 695.82 260.46 693 262.02 689.19 264.51 685.71 265.66 681.56 266.95 679.83 267.79 676.21 269.9 673.03 274.62 672.01 276.39 671.3 279.48 662.45 288.26 661.15 289.8 655.01 293.13 653.13 293.55 648.95 293.73 646.38 294.12 644.38 294.84 638.89 296.43 635.4 296.91 634.06 297.63 629.69 299.52 626.87 298.39 622.52 293.85 618.57 288.93 615.81 281.62 614.17 280.77 611.22 277.73 609.36 277.26 607.18 275.35 602.78 271.61 597.53 268.29 593.8 268.24 591.11 266.77 585.76 265.57 582.25 265.42 579.72 266.13 575.58 268.07 572.48 269.91 571.8 270.66 568.08 272.86 567.1 274.12 565.93 275.71 565.02 276.52 562.68 278.17 562.95 279.83 561.29 282.06 561.12 283.9 560.62 285.11 561.17 287.14 560.21 291.12 555.17 291.52 549.89 292.61 544.81 295.25 541.86 296.64 541.01 298.3 539.61 299.44 538.41 301.28 537.92 302.42 537.41 304.92 536.74 305.55 533.72 307.75 531.88 309.38 523.04 307.88 518.92 307.79 515.11 310.02 514.2 310.8 512.8 311.64 508.93 312.04 502.2 309.08 498.99 307.1 498.51 305.58 497.6 304.87 496.78 303.57 496.27 302.34 493.79 299.79 492.27 297.58 491.22 296.43 491.28 294.89 489.15 291.27 486.2 289.26 482.65 285.22 478.96 285.7 477 285.73 475.26 285.76 473.2 286.25 471.92 283.99 470.56 283.27 467.55 285.68 465.87 287.82 465.49 288.78 465.04 290.04 459.89 296.04 457.88 296.39 457.04 297.62 457.78 299.47 457.6 300.86 459.91 303.13 460.08 303.94 460.42 304.61 464.6 308.05 465.21 308.86 465.27 310.49 466.15 311.9 466.15 312.51 466.81 313.66 469.09 313.53 472.24 314.64 473.64 316.65 478.67 319.46 479.18 321.34 478.81 322.98 477.64 325 478.8 326.66 480.81 327.66 481.42 330.67 477.62 334.58 476.89 335.92 474.58 338.62 473.28 339.49 470.52 342.11 470.31 343.22 468.42 345.16 466.84 345.97 465.39 348.11 464.83 350.5 464.51 351.65 460.95 354.58 459.95 357.61 458.85 359.23 458.8 360.75 458.31 363.98 457.86 365.04 457.69 366.5 455.9 368.64 455.14 370.45 454.26 372 453.91 373.31 451.31 377.53 448.92 382.59 445.9 390.01 443.06 393.5 440.72 394.56 438.32 398.95 437.63 401.86 436.06 404.64 435.87 407.77 431.99 412.68 428.58 416.68 426.26 420.54 422.14 423.89 420.81 425.02 418.34 428.16 415.47 431.76 405.11 437.41 403.87 443.9 404.3 449.57 407.7 455.33 407.7 457.63 408.19 461.33 409.89 463.72 415.15 465.74 416.81 468.03 419.89 471.42 421.55 476.94 426.53 480.21 430.31 485.7 431.71 489.48 432.35 491.93 434.56 493.44 436.06 497.04 436.24 497.85 436.51 500.28 436.66 501.57 436.82 502.4 437.31 503.05 438.28 503.78 438.86 506.26 439.08 507.09 438.82 508.39 437.31 510.03 436.53 511.03 436.41 512.21 437.69 512.96 438.3 514.94 437.91 515.82 437.47 516.93 437.59 517.71 439.45 518.7 439.4 519.42 439.06 520.31 440.49 521.67 441.03 522.38 441.86 523.27 443.13 523.91 442.23 525.01 442.4 525.66 442.94 525.75 443.87 526.02 444.81 526.07 444.91 526.76 443.87 527.91 442.1 529.71 444.19 531.68 445.49 533.09 447.28 535.37 451.46 537.14 455.93 538.51 459.17 544.62 461.84 552.05 462.73 554.84 465.11 559.21 466.6 562.45 467.61 564.46 465.3 569.07 465.26 571.06 465.34 572.43 463.27 573.6 461.4 573.93 458.07 573.59 450.53 571.35 447.33 571.07 437.13 572.29 433.76 572.21 427.57 570.07 417.39 567.88 414.46 567.37 405.63 565.21 404.74 565.05 402.39 564.64 392.9 561.65 382.3 561.27 372.21 558.64 359.54 559.31 349.16 561.37 347 562.51 339.56 563.62 337.15 563.74 329.08 563.14 317.69 562.9 308.92 562.85 304.06 563.62 295.02 566.91 290.97 568.33 284.14 568.66 279.14 569.3 273.17 569.53 271.33 570.11 269.03 571.77 259.75 571.61 256.26 571.61 252.55 570.26 252.17 576.45 251.19 581.92 250.92 588.63 251.02 596.82 245.05 601.96 240.1 610.56 235.09 624.19 233.22 639 233.1 646.18 230.86 654.61 227.96 666.04 227.77 675.53 224.75 683.81 220.84 691.15 218.74 706.02 217.81 712.13 217.16 717.83 215.99 725.46 215.18 728.25 212.97 734.77 213.02 740.46 211.99 746.88 208.42 755.18 206.92 757.43 206.05 763.84 204.94 766.79 201.7 773.55 201.13 774.95 199.51 779.94 198.38 782.45 197.04 786.74 196.13 788.79 196.88 794.34 196.29 796.38 194.87 799.5 192.91 801.95 191.07 806.99 186.9 807.05 182.69 807.27 156.84 813.78 145.94 814.15 138.01 813.32 133.96 813.64 124.64 817.57 122.77 818.68 118.4 819.67 109.8 820.43 102.69 823.38 96.82 826.87 92.81 828.22 89.43 828.28 80.03 828.03 73.09 829.94 70.88 834.92 63.76 840.77 62.9 842.27 59.26 849.28 58.78 855.7 58.73 861.81 57.57 864.13 54.87 869.86 54.24 872.22 52.74 879.2 50.97 881.33 48.54 887.46 47.71 893.99 46.57 899.56 45.67 901.41 43.65 906.65 42.67 908.94 38.91 915.66 37.34 917.81 32.78 922.88 30.37 924.63 22.17 929.7 20.57 932.12 18.54 937.4 14.8 940.29 14.19 941.66 12.3 945.4 10.43 947.12 9.21 950.87 9.06 951.73 4.86 955.71 3.51 956.6 1.57 956.96 1.33 957 1.37 956.83 1.26 956.7 1.1 956.61 1 956.49 1 956.31 1.73 955.44 1.87 955.04 1.7 954.54 1.69 954.27 1.6 954.04 1.44 953.71 1.21 953.48 1.18 953.36 1.42 952.89 1.49 952.5 1.61 952.39 1.69 952.25 1.89 951.82 2.14 951.54 2.5 951.28 2.56 951.15 2.5 951.09 2.34 951.03 2.15 950.81 2.1 950.65 2.2 950.32 2.05 949.51 2.04 949.19 2.14 948.25 2.22 947.88 2.21 947.72 2.28 947.57 2.42 947.43 2.53 947.18 2.44 946.88 2.12 946.73 2.02 946.61 2.11 946.48 2.45 946.3 2.62 946.15 2.77 945.7 2.87 945.56 3.07 945.44 3.29 945.37 3.47 945.21 3.54 944.98 3.41 944.73 3.45 944.4 3.4 943.79 3.43 943.61 3.55 943.46 3.77 943.34 3.84 943.21 3.76 942.97 3.5 942.63 3.48 942.51 3.78 942.01 3.86 941.68 3.77 941.25 3.4 941.03 3.2 940.87 2.91 940.48 2.89 940.31 2.97 940.17 3.09 940.09 3.29 940.04 3.6 940.05 3.85 940 4.06 939.89 4.2 939.38 4.48 938.72 4.42 938.25 4.04 937.92 3.99 937.64 4.02 936.75 4.25 936.2 4.27 935.72 4.32 935.55 4.69 935.22 4.8 935.02 4.93 934.92 5.37 934.71 5.51 934.53 5.61 934.14 5.73 934.1 6.04 934.06 6.53 933.91 6.84 933.92 7.03 934.03 7.19 934.36 7.52 934.41 7.62 934.27 7.66 934.07 7.62 933.92 7.65 933.71 7.89 933.42 7.3 932.88 7.17 932.67 6.9 931.97 6.72 931.8 6.32 931.6 6.19 931.45 6.16 931.14 6.3 930.92 6.45 930.81 6.88 930.72 7.04 930.5 7.13 930.31 7.15 930.12 7.29 929.87 7.42 929.79 7.63 929.74 7.9 929.78 8.13 929.75 8.62 929.41 8.81 929.37 9.16 929.52 9.5 929.59 9.83 929.55 10.26 929.35 11.55 929.36 11.83 929.3 12.11 929.18 12.4 929.03 12.66 928.8 12.82 928.36 13.25 927.81 13.6 926.72 13.7 926.54 14.57 925.66 15 925.16 15.53 924.28 15.71 923.7 15.75 923.16 15.65 922.75 15.69 922.53 15.79 922.37 15.97 922.3 16.23 922.27 16.48 922.18 16.71 922.05 16.83 921.86 16.92 921.56 17 921.44 17.5 921.13 18.07 920.61 18.17 920.41 18.16 920.03 18.27 919.86 18.56 919.61 19.13 919.3 19.67 918.84 19.99 918.29 20.3 918.16 20.8 917.8 21.07 917.76 21.28 917.68 21.37 917.54 21.31 917.44 21.08 917.29 20.75 916.97 20.4 916.56 20.32 915.93 20.38 915.69 20.8 915.19 21.34 914.75 21.92 914.4 22.53 913.9 22.89 913.73 23.14 913.79 23.45 913.64 23.72 913.45 23.94 913.1 24.19 912.45 24.54 911.91 24.46 911.2 24.19 910.55 24.04 910.41 23.68 910.18 23.52 910.2 23.36 910.18 23.28 910.05 23.27 909.85 23.44 909.35 23.37 908.89 23.38 908.67 23.26 908.32 23.34 907.95 23.58 907.52 23.78 907.29 24.15 907.02 24.42 906.39 24.87 905.94 24.98 905.75 24.67 905.45 24.67 905.04 24.5 904.91 24.15 904.73 24.01 904.56 23.63 903.86 23.49 903.38 23.68 903.22 23.74 903.03 23.7 902.86 23.57 902.71 23.55 902.59 23.64 902.13 23.59 901.88 23.49 901.71 23.36 901.67 22.98 901.76 22.74 901.66 22.63 901.59 22.5 900.98 22.13 900.22 22.19 899.96 22.13 899.83 22.15 899.68 22.2 899.6 22.57 899.48 22.84 899.28 23.05 899.04 23.19 898.85 23.46 898.1 23.63 897.81 23.76 897.34 23.69 896.85 23.83 896.62 23.9 896.38 24.22 895.96 24.21 895.63 24.05 895.24 24 894.9 24.33 894.34 24.86 893.71 25.13 893.47 25.66 893.31 25.97 893.09 26.22 893.02 26.52 892.89 26.67 892.61 26.67 891.87 26.81 891.15 26.6 889.77 26.7 889.5 27.09 888.9 27.39 888.77 27.86 888.67 28.15 888.52 28.46 888.06 29.53 887.01 29.72 886.72 29.88 886.32 30.2 885.9 30.18 884.52 30.11 884.15 29.91 883.69 29.81 883.14 29.89 882.74 30.09 882.3 30.23 881.66 30.4 881.43 30.8 881.16 30.98 880.93 31.06 880.5 31.29 880.19 31.46 879.66 31.62 879.38 31.65 878.69 32.41 878.58 32.7 877.72 33.01 877.32 32.99 877.17 32.91 877.01 32.75 877 32.55 877.09 32.43 877.03 32.3 876.86 32.21 876.59 32.09 876.37 32.1 876.1 32.57 875.23 32.61 874.43 32.54 874.22 32.42 874.03 32.45 873.87 32.82 873.69 33.02 873.51 33.13 873.35 33.22 872.78 33.71 871.74 34.46 870.58 34.44 870.41 34.11 870.19 34.06 870.06 34.16 869.84 34.16 869.72 34.1 869.38 34 869.27 33.81 869.16 33.79 868.94 34.23 868.2 34.7 867.92 34.97 868.03 35.17 868.06 35.45 867.97 35.81 868.14 35.97 868.14 36.12 867.91 36.27 867.8 36.44 867.84 36.67 868.18 36.82 868.25 36.99 868.24 37.12 868.19 37.48 867.82 38.05 867.53 38.46 867.29 38.73 867.23 39.13 867.38 39.34 867.54 39.61 867.61 39.9 867.59 40.24 867.44 40.42 867.19 40.71 866.95 40.86 866.55 40.67 866.15 40.43 865.9 40.36 865.73 40.4 865.56 40.53 865.46 41.01 865.33 41.19 865.22 41.81 864.54 41.98 864.58 42.7 864.91 42.84 864.91 43.18 864.68 43.65 864.24 43.89 863.92 44.17 863.2 44.2 862.93 44.13 862.78 43.95 862.63 43.79 862.55 43.64 862.4 43.66 862.2 43.8 861.98 43.82 861.81 43.7 860.96 43.8 860.31 44.07 859.85 44.07 859.49 44.03 859.25 43.86 859.11 43.73 858.9 43.64 858.63 43.72 858.4 43.71 858.22 43.62 858.02 43.62 857.82 43.87 857.4 43.98 857.04 44.15 856.74 44.33 856.67 44.44 856.74 44.59 856.96 44.76 857.04 45.28 857.02 45.44 856.92 45.85 856.38 46.54 855.83 46.76 855.53 46.68 855.1 46.75 854.94 47.11 854.73 47.42 854.42 47.81 853.98 47.97 853.73 48.06 853.13 48.18 852.84 48.22 852.5 48.16 852.32 47.91 852.31 47.61 852.24 47.27 851.98 47.21 851.77 47.2 851.49 47.1 851.19 46.94 851.09 46.93 850.95 47.02 850.81 46.92 850.27 47.02 849.89 46.93 849.61 46.79 849.35 46.83 849.06 46.94 848.89 47.1 848.82 47.6 848.9 48.22 849.12 49.11 849.23 49.27 848.92 49.63 848.57 49.33 848.09 49.17 846.94 49.06 846.76 48.87 846.59 48.79 846.31 49 845.77 49.31 845.46 49.34 845.19 49.28 844.98 49.26 844.77 49.7 843.27 50.18 842.88 50.95 842.37 51.36 842.05 51.51 841.89 51.63 841.87 51.76 841.72 51.71 841.57 51.82 840.99 51.68 840.77 51.72 840.52 51.89 840.25 52.47 839.86 52.72 839.75 53.02 839.35 53.3 839.07 53.65 838.47 53.86 838.28 54.04 837.78 53.81 837.38 53.81 837.27 53.63 837.05 53.39 836.85 52.81 836.68 52.08 836.6 51.88 836.51 51.85 836.33 52.1 836.1 52.2 835.85 52.09 835.62 51.69 835.11 51.63 834.84 51.72 834.19 51.95 833.77 52.54 833.16 52.81 833.01 52.88 832.68 52.99 832.45 52.93 832.28 52.6 831.89 52.42 831.87 52.13 831.95 51.57 832.15 51.35 832.07 51.32 831.88 51.44 831.72 51.35 831.3 51.97 830.44 51.99 830.24 51.92 830.09 51.57 830 51.49 829.8 51.55 829.67 52.02 829.3 52.13 829.02 52.05 828.81 51.82 828.52 51.68 828.25 51.76 827.9 51.59 827.7 51.56 826.84 51.61 826.49 51.71 826.31 51.91 826.14 51.96 825.94 51.84 825.61 51.89 825.48 52.72 825.04 52.9 824.8 52.96 824.58 52.85 824.46 52.64 824.4 52.45 824.21 52.35 823.67 52.58 823.02 52.54 822.88 52.35 822.72 52.2 822.52 52.19 822.33 52.35 822.01 52.31 821.83 52.16 821.77 51.87 821.82 51.76 821.76 51.55 821.37 51.57 821.19 51.97 820.86 52.17 820.63 52.39 820.3 52.52 820 53.12 819.62 53.35 819.17 53.52 819.06 53.81 818.96 53.96 818.86 53.79 818.61 53.75 818.47 53.8 818.17 53.92 817.94 54.7 817.56 54.96 816.88 55 816.53 54.93 816.18 54.93 815.77 54.88 815.36 54.78 815.15 54.78 814.81 54.69 814.56 54.25 814.5 53.82 814.65 53.23 814.13 52.96 814.01 52.93 813.86 53.01 813.67 53.12 813.14 53.47 812.68 53.63 812.37 53.45 812.06 53.44 811.88 53.8 811.13 53.82 810.91 53.8 810.75 53.5 810.35 53.4 810.13 53.15 810.13 52.56 809.32 52.55 809.2 52.84 808.72 53.05 808.52 53.2 808.2 53.23 807.94 53.15 807.64 53.2 807.4 53.02 807.25 53.25 806.82 53.75 806.48 53.89 806.05 53.86 805.87 53.93 805.67 53.92 805.6 53.62 805.29 53.41 805.13 53.08 805.02 53.03 804.95 53.16 804.73 53.39 804.48 53.57 804.15 53.82 803.97 53.83 803.65 54.1 803.26 54.55 803.26 54.81 803.01 54.97 802.7 55.15 801.94 55.26 801.7 55.53 801.63 55.63 801.5 55.65 801.07 55.86 800.79 55.89 800.65 56.04 800.39 56.05 800.09 55.91 799.78 55.72 799.12 55.79 798.86 55.72 798.62 55.86 798.33 56.09 798.15 56.47 798.3 56.6 798.29 56.89 798.02 57.18 798.02 57.9 797.76 58.09 797.65 58.07 797.42 58.14 797.01 58.08 796.74 58.31 796.67 58.45 796.57 58.59 796.07 58.62 795.77 58.92 795.58 59.18 795.25 59.2 794.85 59.64 794.58 59.51 794 59.41 793.72 59.85 793.45 60.09 793.19 60.27 793.06 60.38 792.73 60.56 792.51 60.7 792.25 60.98 792.05 61.16 791.78 61.11 791.43 60.99 791.34 60.87 791.1 60.92 790.87 61.05 790.56 61.25 790.25 61.31 790.02 61.42 789.87 61.44 789.72 61.86 789.05 62.03 788.6 62.07 788.34 62.35 788.32 62.63 788.37 62.97 788.31 63.28 787.86 63.7 788.02 63.88 787.98 64.11 787.77 64.48 787.56 64.57 787.39 64.75 786.82 64.74 786.66 64.6 786.5 64.33 786.31 64.31 786.19 64.42 786.01 64.48 785.75 65.07 784.82 65.16 784.69 65.29 784.65 65.41 784.55 65.49 784.42 65.48 784.22 65.14 783.87 65.13 783.74 65.37 783.31 65.52 783.13 65.57 782.92 65.5 782.69 65.23 782.4 65.13 782.43 64.99 782.54 64.81 782.61 64.62 782.52 64.55 782.34 64.41 782.24 64.37 782.08 64.27 781.95 63.82 781.85 63.69 781.73 63.7 781.35 63.74 781.25 63.85 781.17 63.89 780.87 63.83 780.67 63.58 780.58 63.52 780.13 63.55 779.77 63.65 779.59 64.11 779.5 64.25 779.41 64.37 779.22 64.57 778.47 64.83 778 64.91 777.69 64.99 777.25 64.97 776.92 64.91 776.67 64.8 776.64 64.62 776.67 64.19 776.84 63.94 776.55 63.95 776 63.9 775.18 63.92 774.78 64.02 774.36 64 773.96 63.72 773.54 63.71 773.36 63.79 773.1 63.79 772.84 63.68 772.52 63.6 772.17 63.65 771.87 63.78 771.56 63.84 771.17 63.73 770.86 63.65 770.14 63.58 769.98 63.2 769.9 62.92 769.54 62.71 769.34 62.58 769.12 62.54 768.86 62.69 767.57 62.87 767.05 63.09 766.11 63.28 765.73 63.53 764.98 63.92 764.34 64.41 763.06 64.72 762.58 64.81 762.05 64.75 760.77 64.64 760.11 64.4 759.4 64.33 758.85 64.31 757.94 64.16 756.25 64.03 756.03 63.8 755.96 63.29 755.98 63.22 755.6 63.13 755.33 62.87 754.98 62.57 754.17 62.38 753.96 62.01 753.87 61.79 753.9 61.4 754.19 61.2 754.24 60.92 754.17 60.16 753.62 59.91 753.37 59.81 753.04 59.74 752.55 59.76 751.74 59.82 751.62 60.06 751.54 60.8 751.52 62.45 751.68 63.18 751.66 63.71 751.47 64.2 751.38 65.14 751.41 65.99 751.58 66.65 751.82 67 752.12 67.31 752.64 68.08 753.29 68.31 753.35 68.59 753.25 69.04 752.55 68.96 752.32 68.75 751.3 68.62 750.94 68.33 750.53 68.17 750.19 68.14 749.8 68.26 749.28 68.48 748.78 68.58 748.28 68.62 747.8 68.55 747.49 68.36 747.29 67.47 747.27 66.93 747.17 66.36 746.92 66.01 746.6 65.99 746.2 66.23 745.72 66.96 743.87 67.13 742.94 67.17 742.15 67 741.51 66.72 740.78 66.6 739.99 66.57 739.06 66.62 737.54 66.74 737.2 67.07 736.83 67.65 736.39 68.09 736 68.36 735.44 68.4 734.76 68.33 733.96 68.15 733.38 67.65 732.57 67.31 732.13 66.84 731.61 66.26 731.16 65.99 730.88 65.92 730.56 66.02 730.2 66.33 729.99 66.93 729.76 67.78 729.51 68.46 729.11 69.18 728.42 69.82 727.65 70.38 726.7 70.64 725.56 70.69 724.54 70.58 722.55 70.66 722.15 70.8 721.82 71.02 721.66 71.43 721.57 72.14 721.63 72.9 721.76 73.76 721.78 74.33 721.61 74.82 721.15 74.94 720.53 74.86 719.77 74.56 719.05 74.38 718.46 74.42 717.86 74.69 717.12 74.9 716.42 75.03 715.76 74.98 715 74.85 714.19 74.82 713.58 74.98 713.04 75.22 712.65 75.62 712.26 76.17 712 76.77 711.76 77.38 711.24 77.76 710.8 77.97 710.22 78.29 708.77 78.59 708.16 78.95 707.66 80.43 706.38 81.58 705.28 81.87 704.84 81.96 704.38 82 703.84 82.25 703.23 82.71 702.8 83.33 702.55 84.04 702.44 84.85 702.26 85.45 701.95 85.83 701.51 85 700.84 Z"/>
</g>
</svg>