<?xml version="1.0"?>
<svg xmlns="http://www.w3.org/2000/svg" version="1.2" baseProfile="tiny" fill="#f9c113" width="800" height="1139" viewBox="0 0 800 1139" stroke-linecap="round" stroke-linejoin="round">
<g fill="#c0392b" id="id_29">
<path d="M 245.34 822.8 162.5 685.29 172.13 670.91 152.87 667.71 145.17 670.91 133.61 656.52 107.86 621.62 183.37 573.14 191.9 534.47 257.23 521.13 305.82 520.31 332.25 516.22 310.42 473.75 295.65 472.52 268.23 488.31 228.18 497.98 211.77 492.53 213.41 468.03 203.23 456.87 198.96 441.21 185.01 440.26 169.09 417.6 156.04 399.9 139.05 379.42 105.48 362.27 90.95 388.68 53.53 405.35 30.81 378.06 44.99 352.48 63.7 329.34 65.35 290.43 63.05 267.3 46.96 255.33 34.81 259.95 20.7 255.87 13.48 246.89 1.66 243.63 1 225.4 13.48 215.88 27.92 220.23 57.47 230.84 63.05 225.13 49.92 211.25 35.14 179.7 26.61 154.4 52.21 149.5 66.99 129.38 92.92 137.81 116.56 129.92 138.88 117.95 167.45 114.96 172.7 103.54 188.13 60.03 189.47 44.08 208.74 55.25 228 49.66 246.3 41.68 260.75 34.5 275.19 25.73 290.61 14.56 310.83 4.99 330.1 1 358.03 3.39 402.33 16.16 442.79 32.11 473.61 35.3 498.65 38.49 512.14 36.9 535.25 25.73 573.78 17.75 592.08 4.19 611.49 6.51 601.98 29.08 601.06 37.16 596.94 51.1 589.62 62.03 586.59 69.14 584.49 81.82 583.98 95.06 580.95 107.74 591.55 127.18 606.13 164.17 610.93 178.87 624.89 188 627.26 192.56 642.64 222.09 670.82 258.61 683.52 263.84 691.84 277.58 701.94 297.1 702.95 318.15 706.9 324.85 707.74 338.23 720.61 359.5 735.75 388.09 723.58 392.79 701.37 396.62 678.08 407.78 672.94 431.49 698.94 471.88 688.42 481.99 714.24 514.15 726.19 511.08 731.23 497.62 735.27 489.11 742.17 481.09 746.96 476.97 749.91 478.72 751.17 486.04 755.79 505.29 763.11 528.46 768.16 534.67 761.93 562.57 767.99 576.18 787.98 608.52 796.89 630.3 783.86 642.65 726.07 645.37 692.68 669.03 686.62 657.38 681.32 640.84 675.44 634.35 655.92 620.18 638.68 626.6 621.18 626.18 600.83 641.53 589.31 663.66 589.31 673.94 609.41 694.25 624.47 713.02 638.93 724.05 659.03 749.12 671.32 771.32 679.53 780.49 685.95 787.65 694.53 811.19 679.89 826.06 701.84 825.74 707.9 825.66 726.24 823.21 741.72 832.22 753.32 854.15 774.18 865.88 779.4 877.82 796.22 909.56 792.86 920.74 791.77 941.13 793.62 953.5 799 968.73 796.22 975.15 798.16 993.39 798.16 998.49 791.26 1016.86 752.74 1028.18 735.41 1062.49 682.62 1138 659.5 1126.79 672.99 1080.38 674.91 1067.57 672.99 1022.77 667.21 995.56 646.02 981.16 609.42 973.16 565.11 960.36 536.22 944.36 497.69 944.36 451.46 921.97 423.02 891.12 378.38 909.11 316.66 923.83 268.45 829.2 245.34 822.8 Z"/>
</g>
</svg>