<?xml version="1.0"?>
<svg xmlns="http://www.w3.org/2000/svg" version="1.2" baseProfile="tiny" fill="#f9c113" width="800" height="1071" viewBox="0 0 800 1071" stroke-linecap="round" stroke-linejoin="round">
<g fill="#c0392b" id="id_245">
<path d="M 301.75 536.85 261.07 487.67 215.88 530.7 154.86 518.41 209.1 465.12 292.71 409.79 326.6 377 276.89 205.89 297.23 173.11 292.71 109.59 283.67 64.52 308.52 35.83 525.46 1 590.99 56.32 615.85 66.56 650.36 69.36 646.38 81.56 719.17 92.93 743.34 97.09 778.51 114.28 791.05 135.36 795.94 165.31 799 188.89 778.51 215.51 766.58 244.91 751.59 277.91 716.96 315.42 712.07 337.88 724.89 352.65 731.33 360.07 733.17 375.88 730.42 401.4 712.68 449.94 700.44 473.79 695.55 494.32 695.85 544.8 686.68 578.65 688.21 613.32 683.93 625.81 675.36 644.39 668.9 656.32 652.09 687.35 619.81 661.62 565.06 623.33 518.27 666.61 484.32 695.18 458.63 728.48 435.43 763.94 431.41 770.09 416.42 788.95 401.43 807.82 381.25 842.5 377.57 851.1 363.2 854.99 346.07 862.2 332.31 875.79 316.4 888.28 301.42 897.99 294.99 905.48 269.61 937.94 245.14 951.26 237.75 954.38 222.81 960.7 203.24 976.51 182.14 992.61 168.07 1001.76 147.27 1016.47 139.63 1026.13 137.18 1029.23 109.95 1058.09 95.39 1070 84.72 1050.99 79.77 1028 79.77 998.52 48.92 1002.01 25.24 969.53 39.01 962.04 49.47 972.03 57.18 972.03 70.4 961.04 74.81 944.05 93.54 913.07 140.91 861.1 99.6 842.61 76.46 815.13 91.88 809.64 106.76 792.65 75.91 794.65 73.16 779.66 53.88 775.16 36.25 778.66 21.38 795.65 23.03 780.16 7.06 772.66 1 766.42 13.94 756.18 7.33 728.95 7.89 729.2 19.73 713.46 6.51 709.96 5.13 680.73 24.13 686.98 31.29 678.98 19.18 667.49 24.13 655.5 6.23 643.26 13.67 622.78 59.39 643.76 109.79 667.74 119.43 648.26 124.93 636.27 301.75 536.85 Z"/>
</g>
</svg>