<?xml version="1.0"?>
<svg xmlns="http://www.w3.org/2000/svg" version="1.2" baseProfile="tiny" fill="#f9c113" width="800" height="1408" viewBox="0 0 800 1408" stroke-linecap="round" stroke-linejoin="round">
<g fill="#c0392b" id="id_256">
<path d="M 371.07 270.54 370.86 267.55 367.51 264.87 367.51 263.28 364.95 260.81 364.5 258.19 364.25 257.35 362.88 255.78 363.31 254.56 363.18 252.31 361.42 251.25 359.67 250.34 358.38 250.01 357.55 249.59 357.3 249.14 353.32 247.57 351.5 247.15 350.76 247 349.62 246.14 349.52 245.75 350.13 244.99 350.7 242.83 351.28 241.78 350.49 239.99 349.72 239.17 348.01 238.12 345.28 237.37 342.67 237.8 341.12 235.43 339.23 233.71 338.31 231.62 338.07 230.55 336.14 227.03 333.4 225.29 332.3 222.69 333.27 220.28 333.2 216.91 332.69 215.55 332.21 214.2 330.84 212.29 330.76 208.63 329.59 206.33 329.47 202.04 329.96 198.96 331.51 196.35 333.1 193.33 333.7 192.17 333.2 190.33 334.09 187.72 334.21 185.54 335.08 184.91 336.53 182.67 337.94 181.69 341.19 179.46 342.02 176.86 343.29 172.89 343.29 170.67 343.91 169.64 345.7 166.96 347.49 164.94 350 162.21 354.11 159.68 355.94 159.33 357.32 160.17 360.55 160.35 361.71 161.11 363.72 161.35 366.94 160.99 368.44 161.05 370.01 160.48 371.28 159.45 372.84 158.45 374.8 157.04 375.69 155.55 377.09 154.12 379.36 152.94 380.89 150.82 383.1 150.02 384.71 150.22 386.25 150.57 388.06 148.34 389.37 147.09 392.24 147.14 393.91 146.3 395.93 146.65 398.5 145.18 401.5 143.49 403.89 142.16 405.83 140.01 407.6 136.44 409.07 133.45 411.75 130.04 415.07 127.4 418.37 124.46 420.89 122.2 422.83 120.27 424.1 118.88 425.05 117.71 426.09 115.72 427.47 114.21 430.19 112.1 431.59 109.98 433.38 108.61 435.66 108.14 436.72 107.14 437.8 105.78 440.07 105.13 441.18 103.17 442.42 101.08 444.15 100.31 445.38 98.64 447.41 96.25 448.03 93.69 449.09 92.47 449.9 90.81 451.05 88.35 452.65 85.31 452.98 82.95 454.02 80.6 455.38 78.33 455.76 77.58 456.25 75.9 456.69 74.74 456.7 72.59 457.01 71.8 457.56 68.37 458.12 66.41 460.69 63.86 461.31 62.73 462.03 61.53 462.44 60.67 461.85 60.5 460.92 60.04 460.89 58.41 461.55 57.95 462.48 57.72 463.39 56.72 463.71 55.44 464.63 54.62 465.42 54.52 466.02 53.54 466.49 52.38 467.12 50.31 467.92 47.09 468.67 44.4 469.42 42.41 470.35 40.84 472.34 38.63 473.58 36.7 475.77 34.84 476.67 33.24 478.53 32.55 479.55 30.81 479.78 28.63 479.96 27.49 481.49 25.7 482.27 24.65 484.92 24.63 488.05 24.03 489.33 21.9 491 19.84 493.05 17.29 493.86 17.3 497.19 18.29 498.51 17.97 500.29 18.18 501.37 17.69 503.7 16.97 504.83 16.33 506.22 16.46 508.35 16.93 510.9 17.16 512.37 18.38 515.59 18.91 518.29 18.55 520.09 19.34 523.48 20.05 525.14 20.77 527.53 21.93 528.33 20.77 530.26 20.23 531.91 20.05 534.57 19.83 537.38 19.09 540.09 18.77 540.87 18.11 541.74 17.55 543.54 17.38 545.72 17.04 547.71 17.04 548.97 17.54 550.37 18.37 552.3 18.32 554.31 18.65 554.97 19.09 557.1 19.14 557.9 18.05 559.51 18.08 561.15 18.08 562.59 18.08 563.54 18.15 567.39 18.11 568.59 18.57 569.08 18.42 569.4 17.93 570.41 16.34 571.7 15.71 572.95 15.89 574.06 16.21 575.03 16.17 576.91 15.4 579.04 15.94 580.24 16.33 581.78 16.07 584.99 17.22 586.23 16.72 587.39 16.73 589.55 17.2 590.99 16.77 592.32 16.83 593.24 17.34 594.36 17.77 596.06 17.32 597.12 17.47 597.91 18.01 598.59 17.96 599.51 17.59 600.95 17.57 601.73 17.21 602.62 17.01 603.46 16.07 603.97 16.14 604.73 16.68 605.36 17.47 607.22 18.39 608.94 18.4 610.77 17.53 611.47 17.28 612.35 16.69 613.75 16.21 616.33 17 617.13 17.7 618.19 17.55 618.77 17.09 620.47 16.85 621.69 17.05 622.35 17.83 622.89 18.98 624.93 19.47 626.53 19.61 627.83 18.97 628.64 19.35 631.4 21.56 633.11 22.3 635.27 24.27 638.07 24.63 640.31 24.7 643.55 25.34 647.54 26.15 649.97 26.44 650.62 25.82 651.9 24.56 652.91 23.94 655.54 22.54 657.02 22.19 658.25 22.19 659.75 22.84 660.66 22.59 661.16 21.96 663.85 21.8 664.94 21.54 666.48 21.91 667.37 22.22 670.36 22.67 671.34 22.39 672.01 21.28 672.91 19.76 673.97 18.59 675.41 18.67 677.04 17.18 678.01 16.45 682.21 16.57 684.51 15.94 686.21 16 687.42 14.81 688.86 14.11 691.41 14.54 694.92 13.62 695.76 12.93 697.51 11.14 700.94 10.86 703.71 9.17 709.64 8.52 712.94 7.53 715.13 6.42 720.58 4.97 721.6 2.24 724.46 2.48 726.79 2.84 729.81 2.51 730.26 2.1 731.82 2.38 732.99 1.27 734.32 1 735.66 1.08 736.91 1.22 734.87 3.98 734.63 6.5 734.68 9.12 732.55 12.21 731.84 12.87 730.01 15.86 729.72 17.11 730.21 19.82 729.82 21.77 726.98 23.61 725.45 26.72 725.3 28.17 722.14 30.39 722.07 31.51 721.49 32.2 719.31 33.64 718.59 34.36 717.5 35.04 716.75 37.66 717.03 38.92 716.07 39.68 714.57 40 711.9 41.4 711.55 42.78 712.19 44.46 712.42 46.22 712.09 47.25 712.68 48.22 713.11 50.52 713.08 51.91 712.47 54.04 712.31 55.12 711.94 58.01 711.34 59.81 708.74 63 707.48 63.83 704.11 66.41 702.24 67.51 702.15 70.66 702.44 71.68 702.19 72.68 703.04 73.34 704.18 74.37 706.49 74.45 707.42 75.49 709.32 78.04 708.73 78.95 708.39 80.04 707.11 83.71 706.92 85.78 706.73 87.79 706.84 88.63 706.57 89.77 706.05 91.86 706.13 93.06 706.33 97.4 706.44 98.25 706.1 101.17 705.05 103.38 703.4 106.04 702.91 109.62 702.01 112.58 701.6 114.07 701.9 115.96 701.99 117.64 702.35 120.23 702.72 122.44 702.69 123.67 703.42 126.26 703.19 128.08 702.48 129.49 702.03 129.89 701.43 130.49 700.98 132.06 700.62 132.4 699.56 133.16 698.59 134.36 698.07 136.22 697.6 137.74 697.15 139.88 696.47 141.16 696.32 143.01 695.97 143.67 695.05 144.38 694.3 145.35 694.03 146.57 693.74 148.13 692.62 148.32 691.78 149.49 690.93 151.64 690.28 152.43 688.73 153.01 687.65 153.19 686.08 154.68 685.99 155.19 684.43 156.49 683.87 157.63 683.3 158.18 682.27 158.4 680.9 158.84 680.61 158.95 679.7 159.4 678.72 159.67 677.84 160.94 677.42 161.21 676.83 161.52 676.43 162.25 676 164 675.81 164.88 675.65 165.87 675.36 166.98 675.67 168.22 675.46 168.86 674.44 170.15 674.71 170.79 675.83 171.47 676.58 172.25 677.41 172.31 677.89 172.34 679.02 171.67 681.64 170.66 682.98 170.66 684.38 172.02 685.71 173.02 688.43 173.25 691.49 173.48 693.38 174.08 694.19 175.1 697.59 177.01 699.17 177.73 702.31 178.57 704.13 179.03 706.05 180.18 707.22 182.89 707.76 184.07 711.7 186.18 713.01 187.05 715.75 188.17 717.93 188.26 721.01 189.5 724.13 191.23 725.07 191.96 730.61 194.13 732.68 194.43 734.03 196.05 736.2 198.37 738.28 201.22 740.63 201.5 743.82 203.3 747.78 204.51 751.25 205.17 754.95 206.15 754.67 208.53 753.29 210.79 753.07 211.77 752.44 213.66 751.56 214.54 751.32 216.5 750.98 218.27 750.67 219.65 749.49 222.38 749.01 224.55 748.65 226.61 748.15 227.95 749.24 229.9 750.74 230.6 752.61 231.18 754.53 233.51 754.8 234.01 755.76 234.71 757.36 235.01 758.46 235.8 759.03 236 760.14 237.06 761.06 238.4 761.8 240.98 762.59 241.63 765.11 242.87 765.66 243.81 765.48 245.04 767.17 248.59 766.56 251.99 765.43 255.57 765.24 258.56 764.18 261.63 763.77 264.62 765.27 270.4 767.06 282.96 762.47 289.08 765.21 293.03 764.92 296.42 764.79 299.2 767.82 302.12 767.87 304.02 768.61 306.74 768.43 309.02 768.53 312.47 769.69 314.6 770.48 316.95 770.27 318.81 769.98 321.42 770.53 324.6 769.77 326.5 770.6 329.03 770.13 331.26 770.68 334.32 770.84 336.57 771.16 340.56 771.64 343.08 772.09 345.74 773.35 347.37 775.05 349.87 776.29 351.48 777.71 351.99 779.1 354.18 779.79 356.2 781.89 356.89 783.7 359.86 785.47 362.74 784.61 366.16 783.07 369.72 782.74 372.06 782.88 375.11 782.69 380.85 780.77 388.32 780.56 393.53 779.7 400.72 781.04 404.28 783.29 406.09 784.27 406.9 786.03 409.21 786.77 409.88 788.27 412.08 789.06 414.67 788.19 419.03 786.77 421.04 786.4 424.39 787.24 429.37 788.13 433.11 789.71 436.46 790.72 439.66 792.53 442.47 795.05 446.11 797.22 451.25 798.29 453.92 799 455.36 794.51 466.48 792.49 480.82 788.95 491.71 784.98 504.85 784.22 507.38 773.81 524.88 762.92 532.85 736.63 549.72 731.78 560.63 730.36 579.83 723.12 590.67 710.42 602.24 699.61 613.46 696.86 645.9 696.12 651.97 695.08 660.44 694.03 669.45 692.53 682.37 688.34 695.65 675.84 710.58 667.7 732.92 679.1 759.5 683.17 783.7 686.97 806.29 687.69 830.11 681.97 854.03 679.01 873.58 678.61 890.81 677.63 902.98 677.34 906.65 681.66 952.62 683.22 969.29 684.12 981.08 675.03 989.89 635.79 998.18 593.13 1022.95 585.67 1047.73 634.72 1127.87 646.45 1158.43 663.51 1176.58 665.65 1257.87 637.92 1362.28 642.19 1396.81 611.26 1406.41 600.89 1404.94 597.35 1405.41 591.17 1407 585.87 1405 585.63 1399.72 584.6 1377.63 581.4 1333.52 533.41 1229.16 532.35 1203.34 490.76 1136.46 471.56 1088.74 435.31 1103.05 418.24 1109.73 390.52 1094.46 374.64 1100.02 365.99 1103.05 330.8 1091.6 299.87 1101.14 278.55 1092.55 252.74 1113.57 238.01 1111.82 228.91 1082.88 182.22 1035.23 181.53 1015.95 183.46 991.27 179.7 976.99 175.8 951.32 175.87 917.22 167.76 910.42 140.9 902.23 105.89 878.74 100.53 869.19 108.24 851.12 135.11 825.96 128.54 815.58 98.24 812.29 89.17 805.01 89.66 797.53 89.25 794.88 88.64 790.89 67.89 787.04 53.82 773.15 51.88 754.9 62.78 703.26 59.6 693.46 54.77 688.22 57.92 674.15 53.01 671.65 31.76 670.85 13.91 659.47 2.05 648.99 1 643.66 4.68 639.38 1.98 617.76 4.91 611.84 13.88 603.89 16.33 582.55 18.96 579.46 23.29 574.36 35.14 570.26 41.41 560.16 41.57 558.3 42.87 555.78 43.95 555.22 46.85 553.85 47.86 552.99 49.72 551.67 52.01 550.18 52.25 548.83 52.17 546.44 54.93 543.7 57.36 542.41 57.77 540.26 58.1 539.21 58.21 535.97 58.69 534.35 59.43 531.6 59.88 529.95 60.02 527.3 60.18 526 61.12 522.97 61.75 520.11 62.92 517.94 65.13 516.02 71.31 512.57 72.56 512.1 76.22 509.36 76.7 508.07 79.28 505.85 80.22 504.47 80.27 500.57 80.83 499.38 82.55 496.73 83.51 495.85 84.13 494.89 84.48 491.98 84.92 491.06 86.94 487.81 88.52 486.75 91.27 484.68 92.5 483.73 94.36 481.5 95.06 479.63 95.63 478.64 98.88 476.32 99.58 475.38 100.1 473.56 101.29 469.65 101.72 468.41 102.2 464.14 103.78 461.78 104.39 460.25 106.78 456.29 107.24 453.58 107.4 452.47 108.05 449.36 109.28 447.66 110.35 446.83 111.66 444.36 112.16 443.29 111.3 440.29 109.79 438.95 109.68 438.14 109.71 435.48 111.49 435.84 113.98 436.12 116.75 434.77 118.83 434.45 119.46 434.61 120.22 434.63 121.71 434.65 125.41 434.51 126.95 434.13 128.5 433.65 133.01 431.91 135.21 430.09 138.08 430.18 142.46 429.93 144.01 429.7 146.92 428.33 149.36 427.89 151.96 428.37 154.6 428.21 159.5 427.05 162.26 426.34 165.76 426.42 167.73 426.72 170.22 426.68 171.21 426.34 172.81 425.46 174.97 424.28 176.56 424.2 179.4 424.45 180.99 424.41 184.85 424.07 189.05 422.46 189.65 421.72 191.76 419.01 192.43 418.07 194.15 416.54 196.5 415.68 200.35 412.67 201.32 412.42 203.77 411.69 204.23 410.93 206.33 408.61 207.58 406.32 208.96 404.89 210.59 401.95 212.3 399.98 213.75 397.6 215.77 396.61 218 394.75 218.96 393.97 221.83 392.62 225.18 391.59 227.09 391.64 228.78 391.08 229.09 389.46 232.11 387.5 234.66 387.04 237.18 387.21 238.92 386.77 243.19 385.96 245.44 382.84 246.38 382.36 249.31 379.44 251.45 378.04 256.99 376.45 260.55 374.5 262.32 373.67 266.36 373.66 272.3 369.79 276.15 368.53 279.69 367.31 281.34 366.6 283.27 366.1 285.75 365.57 290.31 363.1 293.91 360.32 298.95 358.86 301.29 357.82 305.3 356.82 306.51 355.29 310.79 353.11 312.23 353.12 317.77 351.48 319.4 349.96 320.73 348.36 324.27 346.86 326.48 346.31 328.88 343.16 329.82 341.91 331.87 339.4 335.68 338.87 336.51 337.7 337.17 337.16 340.68 334.71 341.85 334.11 346 333.08 349.31 332.44 353.99 332.71 357.78 333.79 359.29 334.01 359.84 333.56 360.88 331.61 362.53 327.85 362.85 327.03 363.37 326.33 364.01 325.08 364.77 324.74 365.42 324.18 365.47 323.3 366.05 322.23 366.45 319.08 368.05 312.98 367.96 310.09 370.33 308.13 371.45 306.68 371.65 305.66 371.52 303.72 371.19 302.21 371.42 301.38 372.37 300.24 374.01 298.74 374.59 297.58 375.15 294.99 375.27 293.48 374.06 290.82 373.49 287.01 373.93 284.85 374.52 282.55 373.95 278.85 373.55 277.27 370.81 273.79 371.07 270.54 Z"/>
</g>
</svg>