<?xml version="1.0"?>
<svg xmlns="http://www.w3.org/2000/svg" version="1.2" baseProfile="tiny" fill="#f9c113" width="800" height="451" viewBox="0 0 800 451" stroke-linecap="round" stroke-linejoin="round">
<g fill="#c0392b" id="id_236">
<path d="M 1 255.48 5.47 249.88 10.48 238.86 11.37 236.62 16.01 225.04 20.16 216.54 26.13 209.29 38.16 202.34 58.28 197.51 72.44 194.12 79.79 189.29 84.36 181.56 86.71 172.58 87.33 168.06 88.2 161.85 92.03 144.94 94.16 138.95 97.25 134.99 107.25 129.39 122.8 122.14 131.1 117.12 135.36 110.07 138.24 101.47 139.62 93.55 139.51 81.09 138.56 75.88 138.13 73.55 134.62 62.54 128.12 49.76 198.11 1.35 242.02 39.97 277.87 14.05 292.25 1 316.03 18.74 314.11 24.48 345.56 75.11 346.71 93.2 413.05 85.02 455.61 79.46 466.73 69.89 474.02 71.98 532.5 60.32 560.69 63.63 645.44 49.53 660.4 45.82 664.87 51.52 688.61 65.62 715.01 78.37 739.82 96.54 774 102.52 799 102.06 793.46 112.88 791.44 126.02 789.95 132.98 787.61 146.99 785.05 155.3 781.33 178.87 775.15 195.78 772.06 203.32 769.19 209.02 766.21 216.07 763.76 223.12 763.76 225.25 751.84 226.41 743.1 226.6 693.81 227.09 673.26 225.64 656.87 224.67 569.8 221.93 554.05 265.71 535.31 326.69 502.47 322.05 489.8 318.38 480.11 315.19 464.46 315.38 416.98 315.29 391.72 314.87 351.82 314.22 349.69 324.47 334.68 332.97 330.95 340.61 327.86 346.02 327.54 349.59 329.46 365.73 302.21 373.47 294.75 378.2 269.09 387.1 258.13 393.47 249.5 400.53 246.63 404.01 244.28 410.66 242.15 414.43 238.21 417.13 236.72 420.32 238 425.06 217.34 427.67 192.64 429.8 179.44 424.77 136.96 450 133.34 442.85 108.21 411.53 117.39 372.24 114.32 354.14 109.52 352.4 109.52 347.7 75.97 304.36 71.75 306.97 67.53 315.33 64.66 312.89 58.71 312.37 50.28 314.98 49.7 308.71 43.37 306.63 41.94 300.36 41.94 297.75 67.63 292.01 66.1 281.56 58.43 269.56 68.4 271.47 71.66 274.26 78.94 273.56 82.78 260.68 94.28 263.46 97.16 269.9 109.24 272.17 107.9 262.59 111.92 260.16 113.26 251.46 117.67 251.81 120.17 246.76 126.3 247.11 128.03 255.63 134.74 253.89 128.6 261.38 132.63 270.77 159.47 269.03 177.69 262.07 164.27 249.72 186.51 243.28 186.51 237.88 177.88 237.54 136.88 208.08 33.88 263.12 1 255.48 Z"/>
</g>
</svg>