<?xml version="1.0"?>
<svg xmlns="http://www.w3.org/2000/svg" version="1.2" baseProfile="tiny" fill="#f9c113" width="800" height="894" viewBox="0 0 800 894" stroke-linecap="round" stroke-linejoin="round">
<g fill="#c0392b" id="id_222">
<path d="M 598.88 390.4 601.75 399.21 607.63 408.39 616.95 418.29 622.11 425.57 626.76 434.48 631.25 445.71 641.48 443.53 649.7 443.46 656.49 442 665 443.24 670.59 442.59 676.33 441.55 698.2 442.55 713.1 443.7 717.1 443.9 726.09 443.09 740.4 442.73 755.72 442.35 770.53 442.22 775.59 441.74 783.86 440.93 788.91 441.77 790.5 444.42 792.51 448.27 789.13 451.52 790.22 458.77 797.33 466.56 798.57 473.54 798.16 484.15 795.57 491.32 790.21 502.98 789.39 514.31 789.41 523.86 794.13 529.56 796.24 533.6 799 541.01 798.06 549.89 795.92 558.18 795.57 567.87 793.59 579.97 793.27 592.92 794.39 601.26 795.06 608.95 794.91 629.4 782.66 633.64 779.19 635.24 772.16 638.08 756.39 644.05 751.02 644.34 751.3 656.88 789.72 657.54 789.23 667.51 788.98 671.86 784.97 673.9 779.21 675.41 771.19 678.25 762.44 680.1 752.53 681.38 748.83 684.02 746.15 686.89 744.36 690.47 740.81 698.66 738.43 701.55 731.77 705.79 727.65 708.07 725.59 709.4 718.78 714.41 716.32 717.79 710.66 728.44 707.58 733.76 704.95 735.41 702.44 735.95 700.2 736.56 698.89 737.24 704.55 739.49 710.41 740.66 717.09 742.24 729.66 746.69 741.21 753.3 748.54 756.5 750.97 758.78 751.81 762.71 749.36 765.19 744.29 766.07 740.56 766.21 738.48 767.45 737.53 770.07 733.98 772.82 729.81 776.79 729.54 782.43 729.01 788.68 731.52 797.53 732.57 811.59 727.65 822.77 724.15 827.42 720.92 827.19 718.51 823.94 715.85 817.64 711.68 811.21 709.64 808.16 704.53 799.5 703.06 796.09 702.34 794.8 699.96 793.6 698.42 793.97 696.33 795.43 694.39 797.94 692.88 798.84 690.57 798.98 688.13 798.91 685.85 800.31 685.65 802.77 687.07 806.83 689.3 811.14 697.5 818.34 702.12 822.88 709.15 828.3 718.56 835.21 722.83 840.56 722.18 844.85 719.01 850.06 716.12 853.31 713.57 854.94 706.66 856.88 703.13 859.28 700.18 861.89 699.33 865.6 699.33 867.07 699.74 867.14 700.34 873.31 697.8 875.7 681.26 880.04 666.68 879.16 660.15 879.88 649.69 883.51 635.96 885.84 623.96 883.42 612.76 884.44 600.05 881.93 595.38 882.09 588.75 879.47 582.96 875.79 577.42 876.56 576.95 879.54 573.05 882.41 567.71 888.08 562.07 892.03 559.12 893 539.27 891.19 531.57 887.38 527.47 882.92 528.19 868.83 524.22 858.69 523.62 853.29 518.41 843.07 515.5 834.37 513.67 827.44 513.17 826.83 511.91 819.28 512.24 814.41 508.44 810.48 506.85 806.53 509.9 803.53 509.8 800.57 508.31 797.21 508.14 791.43 509.95 785.25 507.72 777.82 504.44 773.87 499.84 773.15 492.42 767.08 490.31 761.03 485.39 760.99 479.38 755.01 471.23 755.14 466.24 754.04 458.29 748.89 452.16 747.15 443.76 748.91 438.89 748.35 431.32 747.52 423.74 749.59 419.32 746.94 414.15 745.61 411.35 747.17 406.11 743.79 400.64 749.13 397.14 746.18 395.4 742.54 397.46 737.92 395.57 720.77 389.74 704.56 388.74 693.95 387.45 689.98 382.86 682.63 379.28 677.92 377.37 670.97 375.06 667.68 373.1 667.12 370.66 664.36 366.24 664.58 350.37 668.03 336.39 670.1 325.06 669.96 317.11 673.02 307.05 673.43 302.6 672.62 294.41 672.98 283.23 673.2 274.07 673.2 263.93 676.88 263.24 683.03 255.54 682.58 247.81 686.12 247.74 672.5 243.89 670.38 241.78 669.95 238.43 669.93 230.63 670.06 227.23 670.51 227.37 663.82 228.84 656.76 228.29 651.1 229.19 645.35 211.18 646.03 200.97 647.99 192.43 649.3 182.99 643.23 174.33 631.1 163.21 623.66 157.74 617.34 154.79 610.42 154.24 608.26 155.68 605.01 157 601.81 154.81 594.76 151.08 583.38 148.28 578.94 146.99 577 145.77 572.87 145.25 560.41 144.9 553.43 144.65 548.76 146.71 539.32 147.48 535.79 148.63 534.88 148.97 533.28 148.68 529.52 149.67 528.24 152.73 521.94 152.76 520.63 152.76 517.86 153.67 515.2 159.83 516.42 162.37 518.63 171.75 519.06 177.84 520.45 184.79 522.37 192.52 524.58 196.29 524.48 201.7 517.16 209.95 494.16 210.84 486.44 210.99 478.01 209.55 474.93 205.05 466.35 202.88 460.71 203.33 455.13 203.87 451.05 206.98 441.35 208.09 437.18 206.73 433.66 206.73 431.52 207.85 425.36 207.94 421.08 208.42 416.51 209.29 415.11 209.86 413.13 210.5 411.65 210.16 409.87 207.25 407.05 207.4 405.88 208.19 405.12 206.85 404.17 201.66 402.24 200.96 402.18 196.1 401.81 190.98 401.09 189.84 400.64 187.08 399.81 184.03 399.81 180.57 399.04 178.96 396.95 176.9 394.14 175.14 391.3 169.6 384.23 168.26 381.76 165.82 379.39 161.4 376.27 159.02 374.67 156.26 374.8 154.62 374.92 151.12 375.1 148.71 374.78 141.01 373.52 138.95 372.53 137.95 371.32 136.12 367.99 132.54 362.75 129.53 360.38 124.91 357.8 119.03 356.27 116.92 356.85 115.33 357.47 112.22 355.58 106.26 354.84 103.18 352.64 97.74 351.62 90.24 342.53 82.72 334.26 74 330.09 65.6 327.82 64.34 330.1 56.91 325.47 53.71 324.39 50.73 325.74 46.78 327.92 43.37 328.98 42.41 327.2 27.25 317.86 16.48 313.43 10.71 309.77 4.23 305.11 3.34 299.19 1 295.22 6.22 292.68 13.37 292.92 20.42 291.84 22.66 290.25 28 280.13 29.47 275.66 33.35 269.54 37.2 267.38 42.17 262.86 44.38 258.3 48.23 252.38 52.12 247.48 53.54 242.53 58.61 236.04 63.97 229.11 66.36 226.42 72.54 219.58 77.76 210.25 83.34 205.15 85.73 201.06 90.75 184.92 92.31 178.63 89.18 175.69 85.13 175.55 81.98 176.11 77.68 179.84 66.95 186.36 63.62 192.36 57.14 198.29 46.56 195.68 33.09 190.99 23.51 188.99 7.56 181.88 4.66 179.52 10.45 173.01 17.24 168.23 19.89 165.55 29.7 161.28 58.94 160.65 58.54 154.97 59.08 151.04 58.76 147.55 58.58 142.86 60.64 141.13 61.14 127.98 65.87 125.94 80.45 126.43 85.77 128.39 95.4 129.35 106.68 127.62 103.9 124.45 103.18 118.16 92.15 110.68 82.69 98.82 86.44 93.34 86.61 90.22 88.45 83.89 89.57 75.18 91.83 73.18 95.18 62.96 100.35 53.1 105.24 42.66 111.08 36.29 118.66 38.18 136.59 43.86 144.76 45.19 162.2 46.2 168.11 42.74 177 40.99 196.2 41.91 217.19 43.17 226.77 46.56 226.29 49.78 223.66 57.13 215.49 73.52 212.16 80.79 209.21 90.25 205.88 100.33 212.44 103.14 228.53 100.99 245.01 100.12 258.15 99.04 269.8 96.55 280.33 94.3 292.22 88.78 301.29 86.64 313.43 87.23 334.93 87.29 338.21 85.02 335.85 77.34 333.46 70.33 332.42 67.68 330.01 64.56 329.39 62.09 329.76 60.74 333.89 58.7 340.42 57.46 347.25 58.7 352.52 57.35 361.01 54.03 364.94 51.89 366.33 49.76 367.22 47.65 368.64 44.33 379.84 43.11 381.58 38.04 387.39 32.58 390.15 29.51 394.5 24.91 395.79 21.13 405.32 18.17 408.16 7.82 409.25 1 422.29 2.5 422.38 4.41 423.11 19.41 424.08 29.84 424.35 37.59 425.32 50.27 426.54 69.9 426.83 78.39 428.32 95.46 428.89 108.66 431.04 139.79 432.14 156.73 433.6 191.36 434.25 198.56 435.64 201.3 437.45 204.87 440.83 207.86 464.57 225.19 464.32 238.82 479.45 245.68 488.17 250.56 494.75 253.82 495.69 254.7 497.26 256.9 500.51 260.59 500.93 262.7 505.48 268.41 506.27 277.7 507.63 282.63 510.09 285.71 515 291.07 517.07 292.89 522.93 301.3 526.48 309.01 527.52 318.64 527.45 320.82 528.34 324.04 531.57 328.9 533.01 331.85 535.37 334.03 540.39 337.54 544.04 343.68 545.28 345.77 551.81 353 561.67 360.69 563.88 366.97 568.53 371.4 577.82 376.65 594.55 387.57 598.88 390.4 Z"/>
</g>
</svg>