<?xml version="1.0"?>
<svg xmlns="http://www.w3.org/2000/svg" version="1.2" baseProfile="tiny" fill="#f9c113" width="800" height="544" viewBox="0 0 800 544" stroke-linecap="round" stroke-linejoin="round">
<g fill="#c0392b" id="id_215">
<path d="M 17.1 399.42 17.21 397.26 16.69 394.94 16.43 393.54 18.43 391.82 19.3 391.34 20.91 391 22.04 391.07 23.32 391.84 24.76 392.25 26.44 392.25 27.31 391.35 27.35 389.44 26.48 388.04 25.85 386.74 26.03 386.3 27.44 385.53 28.33 383.9 28.44 380.46 28.35 378.84 28.89 377.87 31 376.54 32.56 375.62 33.98 375.39 35.87 375.66 38.27 374.16 40.84 371.85 42.35 369.82 44.95 368.15 47.64 367.52 49.55 367.25 51.16 367.1 52.41 366.54 55.54 364.41 57.06 363.23 60.35 361.69 62.82 360.64 64.73 358.42 65.92 357.22 70.31 355.92 71.73 353.59 74.31 353.48 76.19 353.53 76.72 354.8 79.01 356.17 82.59 353.5 84.82 352.1 87.02 350.66 87.41 348.82 87.96 347.28 89.02 346.05 90.24 345.6 92.27 344.66 92.34 343.07 91.56 341.19 88.97 338.92 85.29 336.89 83.9 336.62 83.72 336.59 83.72 335.93 84.1 334.26 85.43 333.08 87.02 332 90.13 331.13 91.28 330.4 92.58 328.93 94.01 326.58 94.3 324.65 92.38 322.24 88.14 319.13 84.97 316.69 82.89 314.65 79.2 311.4 78.19 309.46 77.56 307.63 77.65 306.52 78.67 305.89 79.77 305.92 80.81 305.86 81.49 305.46 82.37 304.33 83.31 303.67 84 303.5 85.07 304.04 85.4 304.62 86.06 306.16 88.36 310.06 89.28 311.43 91.16 314.33 92.35 317.17 93.44 318.63 94.89 318.73 96.47 316.64 98.69 311.61 98.22 305.27 97.09 301.29 97.32 298.47 97.44 295.93 99.32 294.14 100.92 292.9 101.35 291.72 102.29 291.17 103.97 291.1 106.25 290.71 107.36 289.59 106.97 287.82 105.88 286.8 102.58 285.35 97.38 282.38 91.72 280.37 88.71 279.66 86.07 279.13 83.52 278.12 84.11 277.81 85.12 277.54 86.25 277.29 87.43 276.55 88.82 274.15 91.37 269.36 92.48 267.84 95.54 265.58 96.47 264.98 98.33 263.95 101.33 262.04 102.4 260.74 104 257.06 104.8 255.44 106.01 254.15 107.68 252.96 112.14 252.38 116.08 251.55 119.69 250.27 122.29 249.59 124.09 248.67 124.2 246.71 124.43 242.22 107.12 241.93 107 236.28 109.41 236.15 116.52 233.46 119.68 232.18 121.25 231.46 126.76 229.55 126.83 220.34 126.53 216.88 126.03 213.12 126.17 207.29 130.34 207.29 136.23 212.64 143.91 212.88 144.32 212.89 145.67 214.32 149.89 216.77 152.41 217.6 153.32 217.29 154.03 215.34 153.33 212.95 153.24 210.63 153.49 209.61 153.13 206.82 154.33 203.69 155.46 202.27 158.07 199.5 160.92 198.73 164.6 198.57 166.82 198.58 169.24 198.81 173.52 198.13 175.18 197.98 176.78 197.12 177.24 196.07 178.04 192.34 182.01 186.93 182.55 186.34 184.08 186.46 185.95 187.21 186.9 188.55 188.24 189.34 190.26 190.12 193.9 191.41 195.51 191 198.04 188.12 201.77 183.97 203.2 183.33 205.01 183.39 206.68 184.65 207.21 185.54 207.95 186.05 208.65 186.04 210.97 184.6 213.63 182.12 215.07 180.77 216.86 180.23 220.53 182.93 222.05 181.24 225.11 180.54 227.79 179.04 230.25 175.64 234.25 172.61 236.16 171.81 238.96 169.86 242.29 166.78 242.6 164.77 238.83 160.07 237.93 157.76 239 153.85 239.81 150.64 241.46 148.33 243.95 147.48 246.18 145.38 249.3 144.55 252.14 144.04 256.04 139.64 258.34 135.18 261.45 130.29 263.98 125.75 265.47 121.45 271.3 114.8 274.71 112.78 278.13 111.66 282.69 108.38 286.68 106.48 290.9 105.07 296.81 102.18 304.63 97.49 312.02 92.12 318.64 89.1 321.37 86.71 349.66 94.23 359.29 94.58 359.46 90.9 358.76 84.87 358.45 79.8 358.6 73.89 358.34 67.5 358.31 62.17 358.59 59.47 359.85 52.67 359.86 48.5 359.97 40.66 360.14 34.99 360.35 29.86 360.99 24.77 360.99 24.69 361.23 15.88 363.32 13.16 372.01 10.42 385.21 7.07 387.67 6.34 394.96 4.87 402.63 3.37 408.01 1.35 409.74 1.1 420.22 1.95 428.45 1 439.72 1.12 446.73 1.64 458.05 4.06 467.09 6.23 476.44 6.38 496.16 7.92 518.02 10.55 513.3 24.34 513.77 29.92 517.09 34.22 518.99 38.94 519.94 46.67 519.94 56.12 518.52 61.28 514.72 67.72 510.21 72.67 512.07 75.03 522.16 75.38 527.48 74.6 540.76 80.19 537.92 94.37 549.3 102.97 552.15 112.43 539.81 109.42 525.1 106.41 522.26 110.71 509.44 110.28 510.87 120.6 510.87 129.2 509.44 135.22 506.59 148.55 505.17 152.43 505.27 155.44 499.98 154.85 531.66 158.36 539.37 157.89 546.58 157.61 559.52 164.14 565.9 165.5 574.82 166.72 585.37 165.51 601.06 166.8 610.77 169.68 623.64 170.02 654.3 168.89 667.72 168.37 680.14 163.46 696.32 163.18 708.59 163.9 719.15 164.46 727.28 164.72 742.84 167.12 760.39 171.18 770.15 174.88 779.54 182.21 784.05 187.65 785.36 192.72 793.69 200.86 795.48 204.83 796.53 211 794.54 219.31 794.67 223.37 794.41 232.21 795.24 237.59 797.93 242.49 799 248.07 798.32 253.43 790.24 267.84 786.74 273.68 772.99 299.1 767.52 304.18 760.02 309.56 755.06 313.79 749.97 318.29 742.45 325.44 736.9 330.99 733.84 336.28 728.86 345.58 724.48 351.04 719.9 355.99 717.64 361.53 714.98 366.09 715.52 371.97 716 376.59 717.38 381.14 720.03 386.43 725.08 396.19 728.55 412.56 734.36 420.18 740.58 423.18 744.07 424.41 747.56 426.19 746.99 426.39 744.5 427.55 740.96 428.91 739.08 429.51 736.52 430.09 733.72 430.5 731.96 430.79 729.28 430.93 727.04 431.39 724.75 431.86 722.04 432.22 719.2 432.99 716.48 433.73 713.45 434.66 710.48 435.58 707.5 436.49 703.72 438.57 701.67 440.11 700.54 440.83 698.84 442.59 697.28 444.21 695.35 445.18 693.04 445.61 689.2 446.89 687.22 447.93 685.47 449.01 685.08 449.26 683.6 449.52 682.22 449.44 679.85 448.5 677.46 447.54 675.7 447.78 673.45 448.85 671 448.9 668.5 448.94 665.96 448.82 663.3 448.65 661.97 448.94 660.22 449.44 657.88 449.9 655.58 450.36 654.09 450.82 650.25 451.81 646.41 452.96 643.64 453.86 641.42 454.53 638.01 455.89 635.68 456.9 631.77 458.1 629.78 458.96 627.86 459.78 626.61 461.47 625.25 462.55 623.08 463.01 620.18 463.08 617.89 463.56 616.42 463.76 613.48 463.42 611.12 463.85 609.08 464.02 606.6 464.28 604.65 464.69 602.03 465.79 599.64 466.9 597.28 468 595.18 468.77 592.84 469.47 590.48 470.18 588.13 470.88 585.89 471.8 583.64 472.72 580.42 473.69 579.43 473.98 577.96 474.13 575.68 473.98 573.45 473.84 571.32 473.91 569.19 473.98 565.54 474.3 563.26 474.83 560.98 475.36 558.49 475.94 556 476.53 553.09 477.47 550.2 478.39 548.99 481.09 547.77 483.78 546.56 486.46 545.51 488.8 544.45 491.13 543.4 493.46 542.34 495.8 541.29 498.12 540.23 500.45 539.18 502.79 538.13 505.12 537.07 507.45 536.02 509.79 534.97 512.12 533.91 514.45 532.86 516.78 531.81 519.11 530.75 521.45 529.7 523.78 528.65 526.1 527.59 528.44 525.55 529.67 523.51 530.9 521.48 532.13 519.44 533.36 517.84 535.1 516.25 536.82 514.64 538.57 513.04 540.31 510.7 541.2 508.31 542.11 505.95 543 503.41 543 500.51 543 497.69 543 494.45 543 491.2 543 489.44 543 486.68 543 483.93 543 481.18 543 478.43 543 475.68 543 472.93 543 470.17 543 467.42 543 464.67 543 461.92 543 459.16 543 456.41 543 453.67 543 450.91 543 448.16 543 445.4 543 442.66 543 439.9 543 437.15 543 434.4 543 431.65 543 428.9 543 426.15 543 423.39 543 420.64 543 417.89 543 415.14 543 412.38 543 409.63 543 406.88 543 404.13 543 401.37 543 398.62 543 395.87 543 393.12 543 390.37 543 387.62 543 384.86 543 382.11 543 379.36 543 376.61 543 373.85 543 371.09 543 368.32 543 365.6 543 362.85 543 360.1 543 357.34 543 355 543 352.95 543 351.23 541.48 349.54 539.98 347.85 538.49 345.88 536.74 343.89 534.99 341.91 533.23 339.93 531.48 337.95 529.73 335.97 527.98 334.27 526.47 332.57 524.97 330.82 523.42 328.85 521.68 326.86 519.92 324.88 518.17 322.9 516.41 320.91 514.66 318.93 512.91 316.95 511.15 314.97 509.4 312.99 507.65 311.01 505.91 309.03 504.15 308.79 503.94 307.04 502.4 305.06 500.64 302.56 498.44 301.09 497.14 299.11 495.39 297.13 493.64 295.14 491.89 293.16 490.14 291.18 488.38 289.2 486.63 287.21 484.88 285.23 483.13 283.24 481.38 281.41 479.76 278.74 480.49 276.28 481.33 274.07 482.07 271.87 482.81 269.44 483.75 267.33 484.77 265.1 485.42 262.88 486 260.24 486.43 257.89 486.82 255.36 487.08 253.12 487.85 250.68 488.61 248.46 489.3 246.06 489.91 243.57 490.44 241.43 490.9 239 491.42 236.7 491.83 234.13 492.29 231.58 492.44 229.12 492.56 226.69 492.6 224.38 492.37 222.04 492 219.52 491.5 216.52 490.84 214.37 489.97 212.23 489.09 210.13 488.23 208.42 487.53 206.13 486.73 204.36 486.13 203.31 485.96 201.39 486.28 199.22 486.76 198.55 486.98 196.94 487.52 195.13 487.95 192.2 488.64 189.93 489.16 187.66 489.69 185.38 490.21 182.64 490.84 180.15 491.15 177.72 491.42 175.11 491.5 172.49 491.65 170.16 491.79 167.81 491.75 165.23 491.71 162.81 491.5 160.48 491.01 158.09 490.43 155.71 489.85 153.49 489.26 153.47 489.25 150.93 488.82 148.59 488.47 146.08 488.09 143.73 487.61 141.44 486.93 139.15 486.24 136.82 485.71 134.65 485.47 131.8 486.55 129.02 487.6 126.25 488.66 123.69 489.62 121.13 490.6 118.62 491.55 116.07 492.52 113.53 493.48 110.98 494.45 108.44 495.41 105.89 496.38 103.35 497.35 100.79 498.32 98.23 499.29 95.72 500.25 93.17 501.21 90.63 502.18 88.08 503.14 85.54 504.11 83 505.08 80.46 506.04 77.91 507 75.38 507.97 72.82 508.94 70.29 507.97 67.75 506.99 65.2 506.02 62.66 505.05 60.03 504.03 57.58 503.1 55.03 502.12 52.5 501.15 49.96 500.18 47.41 499.2 44.89 498.24 42.34 497.26 39.79 496.28 37.26 495.32 34.71 494.34 32.17 493.37 29.63 492.4 27.09 491.43 24.98 490.62 22.29 489.59 21.04 489.11 18.3 486.65 14.02 479.35 13.33 475.91 12.22 473.72 7.23 469.97 4.15 467.25 1.88 462.73 1 461.02 1.35 458.61 1.64 457.94 2.94 456.25 4.39 455.03 9.34 451.62 10.38 450.27 10.43 449.3 10.23 448.43 9.13 447.24 5.61 443.7 3.96 441.1 3.89 440.1 5.23 436.66 6.97 432.19 7.76 430.83 9.61 429.2 11.46 426.66 12.38 425.09 12.14 423.98 11 421.61 11.34 420.13 12.57 418.02 12.68 414.21 13.29 411.99 13.76 410.76 13.71 409.94 12.59 407.87 12.47 406.6 12.77 405.96 13.96 405.09 17.21 403.57 18.39 402.41 18.56 401.09 18.23 400.8 17.1 399.42 Z"/>
</g>
</svg>