<?xml version="1.0"?>
<svg xmlns="http://www.w3.org/2000/svg" version="1.2" baseProfile="tiny" fill="#f9c113" width="800" height="730" viewBox="0 0 800 730" stroke-linecap="round" stroke-linejoin="round">
<g fill="#c0392b" id="id_201">
<path d="M 171.84 156.37 172.87 155.79 172.5 154.22 172.31 152.32 172.87 150.83 172.97 146.27 177.09 144.62 182.89 145.44 189.07 144.95 200.68 142.13 205.73 143.46 209.48 145.77 210.04 144.78 210.04 141.14 207.79 139.15 206.85 135.18 208.54 133.52 211.54 133.19 213.78 133.19 215.47 133.02 218.28 134.35 219.59 135.01 221.83 135.18 221.65 131.87 221.83 129.88 220.9 125.24 217.9 121.77 215.09 117.79 213.41 113.99 201.99 99.92 216.96 88 221.83 86.34 226.33 77.08 224.08 66.49 218.84 59.87 214.34 55.9 226.33 47.96 231.57 39.36 232.32 27.45 244.3 26.13 254.78 23.48 250.29 40.02 251.04 49.28 262.27 53.92 271.26 58.55 280.25 67.81 285.49 79.06 291.48 78.4 299.72 73.11 289.98 54.58 283.24 42.67 289.98 34.73 301.96 20.84 310.2 4.96 323.63 1 323.72 3.54 322.94 7.42 322.14 9.93 321.26 14.47 320.55 18.71 320.47 20.38 320.08 25.04 319.65 27.73 320.45 31.56 320.64 35.38 323.89 41.24 329.87 51.56 332.66 57.35 338.51 65.57 345.41 74.38 352.54 83.42 358.56 86.23 363.87 89.94 365.64 101.72 372.38 107.25 376.42 112.3 381.45 119.47 387.35 123.12 389.61 125.16 393.14 130.28 395.31 132.79 391.29 135.57 389.24 137.31 388.41 138.88 386.5 142.58 388.65 145.38 391.49 149.97 395.13 156.12 395.43 161.01 394.39 171.32 394.31 173.68 377.01 179.41 368.01 181.77 344.6 171.96 343.25 172.73 342.27 178.35 340.75 185.43 317.52 198.97 295.56 199.58 291.29 199.88 291 213.94 307.45 212.36 325.76 212.97 335.29 224.22 341.63 230.85 349.32 235.57 360.85 240.02 365.33 246.85 376.6 254.29 397.95 259.15 400.29 264.52 406.33 277.04 407.1 289.39 409.04 298.31 413.6 308.07 424.63 322.04 429.96 338.84 452.49 346.32 461.75 349.17 470.84 354.97 483.96 356.44 502.48 356.95 552.49 366.12 559.83 367.92 581.05 363.41 584.41 384.6 587.05 400.09 588.04 410.2 587.46 419.11 586.08 426.74 584.51 430.41 799 522.15 792.39 526.14 786.61 529.63 784.97 530.62 779.86 533.78 776.66 535.75 773.3 537.81 767.62 541.33 763.96 543.6 762.26 544.65 761.34 545.22 760.2 546.05 755.71 549.44 751.73 552.43 751.35 552.74 750.46 553.7 747.61 556.8 746.08 558.47 742.38 562.45 741.3 563.46 733.2 571.02 732.63 571.55 727.49 576.74 724.88 579.37 723.6 580.69 721.79 582.51 716.64 587.82 713.21 591.38 711.75 592.91 709.05 595.74 704.04 601.05 698.39 605.77 691.26 611.77 690.2 612.68 680.67 618.67 679.96 619.12 678.97 619.7 674.78 622.24 670.99 624.52 667.62 626.55 664.21 629.26 662.04 630.95 656.36 635.49 654.14 640.77 653.11 643.2 650.09 650.44 649.45 651.93 647.42 656.73 645.49 661.3 641.08 671.72 640.45 673.21 638.46 677.89 637.96 679.07 632.5 691.93 631.82 693.54 629.38 699.27 626.83 705.32 624.6 710.59 622.78 714.89 620.28 720.82 616.81 729 608.39 724.75 582.21 716.29 571.46 716.96 550.07 720.39 538.05 711.31 525.14 706.7 492.58 699.6 481.7 692.72 451.16 662.71 439.78 658.94 425.04 653.77 405.41 644.34 389.58 638.75 370.21 633.6 347.35 633.77 333.58 636.69 324.63 638.83 317.36 639.83 311.25 637.13 302.48 632.61 295.1 628.8 288.84 624.73 285.62 623.57 285.06 622.13 284.05 618.27 278.42 612.1 274.34 611.3 262.02 612.1 260.77 613.07 250.16 611.85 244.42 614.31 240.17 615.57 231.5 614.81 226.12 615.25 221.72 617.57 216.32 619.08 208.57 619.9 202.62 617.31 198.99 615.83 190.99 615.08 182.73 613.04 177.88 611.52 175.51 612.73 173.29 611.94 168.93 606.98 162.02 604.36 152.88 603.15 144.2 603.48 128.03 599.14 122.2 597.49 120.19 596.01 109.26 591.32 99.8 587.08 96.08 584.23 90.66 581.44 83.14 577.7 67.98 566.64 66 565.58 63.51 562.05 61.8 560.54 58.78 559.08 56.4 557.64 47.43 550.28 42.13 545.8 37.37 538.1 37.81 534.26 36.22 528.2 35.67 521.65 35.94 515.68 38.88 499.36 39.41 494.49 47.28 480 50.5 473.97 52.77 470.12 56 464.77 59.52 459.51 63.75 456.19 66.52 451.85 68.87 447.88 72.72 444.28 73.96 442.56 72.65 440.33 71.04 437.97 70.07 435.98 69.19 434.38 67.25 429.12 62.89 421.71 64.05 419.71 64.95 417.64 67.21 412.5 70.95 408.93 75.91 403.94 80.68 397.03 81.16 395.62 82.43 393.43 83.12 392.29 83.56 390.57 74.54 389.86 61.46 391 53.71 392.52 52.65 393.35 45.75 393.12 34.79 390.91 35.72 386.81 35.79 382.16 36.5 374.52 31.22 372.39 27.3 370.64 24.94 369.68 18.99 368.84 7.95 366.57 3.88 360.21 1 355.6 3.74 351.72 5.92 344.47 6.95 337.82 12.21 328.04 14.73 324.29 18.12 314.9 19.2 306.42 24.05 299.34 25.24 295.77 28.77 287.19 32.4 275.58 34.15 273.72 39.38 269.13 43.89 265.22 51.31 260 51.17 257.2 50.64 255.46 46.95 251.41 45.39 248.21 43.75 243.68 41.14 239.88 40.38 234.41 39.96 231.4 45.26 229.59 51.91 226 67.24 219.67 73.98 216.67 80.69 215.47 85.63 214.11 92.43 212.95 98.94 212.17 102.52 208.55 105.34 198.47 107.2 192.01 110.57 185.56 113.37 180.69 119.04 176.19 122.36 168.54 128.73 164.1 132.95 158.65 137.4 153.4 141.11 153.91 151.5 156.43 159.57 158.64 168.96 158.96 170.82 157.37 171.84 156.37 Z"/>
</g>
</svg>