<?xml version="1.0"?>
<svg xmlns="http://www.w3.org/2000/svg" version="1.2" baseProfile="tiny" fill="#f9c113" width="800" height="1087" viewBox="0 0 800 1087" stroke-linecap="round" stroke-linejoin="round">
<g fill="#c0392b" id="id_214">
<path d="M 634 447.73 636.85 462.92 639.63 476.74 640.98 483.5 641.96 488.4 644.51 499.32 645.62 503.97 647.18 510.82 647.8 513.31 648.38 515.56 649.92 521.52 651.34 526.16 651.65 527.21 653.33 532.72 653.9 534.52 655.77 540.54 656.5 542.89 657.21 545.1 659.01 550.7 659.77 553.05 660.75 556.18 662.84 562.8 663.95 565.08 665.07 567.4 666.1 569.56 666.96 571.33 667.42 572.27 667.82 572.8 669 574.24 671.64 577.5 675.72 581.8 677.62 584.26 679.54 586.75 680.81 588.4 684.25 592.91 686.56 595.97 689.37 599.69 694.67 606.7 695.77 608.15 701.36 615.95 703.73 619.76 708.45 627.57 711.5 632.21 713.59 635.36 714.67 637.66 719.44 646.27 721.09 649.22 723.06 651.62 725.34 654.4 727.26 656.73 728.79 661.55 730.95 667.48 734.92 676.95 737.12 681.77 738.81 685.5 740.72 689.7 742.15 692.85 743.34 695.51 743.89 696.73 745.58 700.51 747.07 703.82 747.47 704.74 749.09 708.48 752.64 716.62 754.5 720.86 755.4 722.91 758.06 725.31 763.14 729.89 764.25 730.89 767.55 733.89 770.99 737 772.52 738.39 776.55 742 775.56 746.92 773.54 750.13 772.68 751.46 770.78 753.55 770 755.53 767.17 758.14 764.64 760.48 761.95 762.96 759.06 763.94 756.18 764.93 755.03 765.68 754.69 766.86 753.25 767.88 749.96 769.42 748.92 770.53 747.1 770.84 746.03 771.55 743.95 772.68 742.69 772.91 741.94 772.93 739.92 773.61 736.27 774.84 732.63 776.07 728.98 777.31 725.33 778.55 721.68 779.78 718.02 781.01 714.37 782.24 713.18 786.9 710.02 789.94 707.34 791.57 705.78 794.83 704.22 798.09 702.67 801.35 701.11 804.61 699.55 807.87 698.02 811.08 699.03 814.23 700.04 817.39 700.54 819.42 700.73 820.4 700.6 821.6 701.12 824.75 701.62 827.81 702.12 830.87 702.62 833.93 701.84 837.01 701.06 840.09 700.28 843.17 699.4 846.64 698.87 848.75 701.66 850.72 704.52 852.75 705.65 853.91 707.82 856.19 709.96 858.43 710.19 859.03 711.55 863.45 711.39 864.79 710.7 868.09 710 871.42 709.68 873.88 709.33 876.51 708.68 880.96 708.71 882.71 708.46 883.88 708.59 885.17 708.24 887.75 707.9 890.32 707.16 893.65 706.44 896.84 705.14 898.38 706.95 900.18 705.74 902.68 705.3 904.95 705.9 907.44 706.15 910.7 706.38 913.99 706.62 917.25 706.86 920.51 710.86 919.49 714.27 920.16 716.52 920.98 718.81 921.8 722.87 923.7 726.92 925.6 730.97 927.5 735.01 929.4 736.83 928.59 740.39 927.73 744.29 927.28 748.31 926.81 752.2 926.34 756.1 925.89 759.47 925.82 762.82 925.76 766.32 925.94 769.58 926.1 772.84 926.27 776.11 926.44 779.37 926.6 782.62 926.77 785.37 928.66 788.09 930.55 790.82 932.43 793.55 934.32 796.28 936.2 799 938.08 798.22 940.99 797.47 943.77 796.73 946.55 796.2 948.48 794.57 950.85 793.59 951.39 791.27 952.69 788.95 953.99 785.26 955.21 781.96 955.49 778.71 955.76 775.46 956.04 772.21 956.31 768.96 956.59 765.62 958.93 763.19 961.62 760.72 964.35 758.26 967.09 755.79 969.82 753.79 973.2 751.79 976.58 749.75 980.02 748.73 980.99 743.71 984.42 741.81 984.31 738.32 985.99 738.38 988.05 737.29 986.3 733.64 987.42 729.98 988.53 726.33 989.64 722.56 990.79 718.53 989.92 714.47 989.05 710.41 988.18 707.31 985.61 704.21 983.05 701.12 980.49 697.81 977.75 694.36 979.43 691.09 981.01 687.62 982.7 684.36 984.28 681.24 985.8 678.99 987.26 676.86 988.64 675.27 989.39 672.43 989.63 669.52 989.88 666.67 992.3 663.81 994.74 660.95 997.17 658.09 999.61 655.23 1002.04 652.26 1004.57 652.97 1005.9 651.45 1006.2 648.63 1008.06 647.59 1009.75 646.51 1010.01 645.36 1010.22 642.32 1011.88 639.15 1013.62 635.98 1015.36 632.62 1017.19 629.26 1019.03 625.9 1020.87 622.91 1022.26 619.8 1023.69 622.51 1024.8 618.59 1026.11 616.68 1028.72 616.82 1032.91 616.98 1037.26 617.58 1038.97 620.17 1041.66 622.75 1044.36 626.25 1045.74 629.61 1047.08 632.97 1048.41 636.33 1049.75 639.68 1051.08 641.08 1051.27 641.82 1051.59 641.77 1052.85 640.38 1054.38 637.17 1055.54 633.95 1056.7 630.75 1057.85 627.58 1058.99 624.56 1060.65 621.6 1062.29 618.59 1064.2 614.84 1064.4 611.15 1064.61 606.72 1064 603.9 1064.4 600.48 1064.87 598.12 1066.94 594.95 1069.67 592.16 1072.09 589.36 1074.51 585.92 1076.16 582.31 1077.89 578.71 1078.93 574.81 1080.04 570.93 1081.17 567.04 1082.29 563.66 1082.35 560.01 1082.41 556.21 1082.49 552.49 1082.56 548.77 1082.63 545.05 1082.71 541.04 1083.17 536.95 1083.63 532.88 1084.1 528.38 1083.81 523.89 1083.52 522.03 1083.57 520.13 1083.52 516.17 1084.13 512.21 1084.75 508.26 1085.36 504.23 1085.99 500.89 1086 496.98 1085.15 493.58 1084.39 490.47 1083.7 488.25 1084.51 488.74 1083.32 487.28 1083 483.34 1083.05 479.4 1083.1 475.46 1083.16 471.51 1083.21 467.71 1083.26 463.07 1082.23 459.79 1081.5 458.01 1081.1 454.49 1080.32 451.37 1079.62 450.48 1079.42 448.01 1078.47 443.38 1076.69 438.75 1074.91 434.13 1073.14 429.6 1071.4 425.9 1070.01 422.39 1068.7 418.89 1067.39 415.38 1066.08 411.86 1064.76 408.35 1063.45 406.04 1065.4 405.2 1062.64 401.46 1061.3 397.6 1059.92 397.57 1058.22 398.25 1056.78 398.06 1056 398.81 1055.15 399.89 1050.9 402.41 1047.6 404.97 1044.26 407.52 1040.93 407.43 1037.94 407.34 1034.95 407.25 1031.94 405.69 1030.93 403.42 1028.31 403.83 1026.29 404.26 1025.24 404.99 1024.43 405.33 1021.95 404 1019.1 402.74 1016.45 401.41 1013.61 399.85 1010.27 398.59 1007.08 397.35 1003.89 396.11 1000.69 394.86 997.5 393.61 994.31 392.37 991.12 391.22 988.19 390.92 986.96 390.92 985.91 391.17 985.15 392.05 984.31 395.14 983.03 398.22 981.76 401.29 980.49 404.2 979.29 406.02 975.35 407.66 971.79 409.35 968.13 410.86 964.82 412.35 961.44 413.75 958.3 415.12 955.16 416.5 952.01 417.66 949.35 417.6 948.31 420.16 946.72 416.69 945.04 413.23 943.36 409.76 941.69 406.19 939.97 402.72 938.3 399.09 936.54 398.91 936.45 398.8 936.73 393.58 936.95 390.36 937.53 387.95 938.25 384.83 940.27 381.91 942.16 381.8 943.54 381.21 943.99 380.85 943.7 380.51 942.98 376.9 944.67 374.28 945.9 371.26 946.9 368.35 947.55 365.43 948.21 361.25 948.92 357.08 949.62 353.95 950.8 351.35 951.93 348.3 952.83 344.51 953.8 341.18 954.84 337.63 956.11 332.78 953.65 327.93 951.93 319.3 947.76 311.23 937.18 306.42 914.45 299.4 900.89 295.71 893.56 293.8 887.23 293.14 880.81 292.39 872.66 296.08 866.32 299.22 858.62 305.57 851.76 311.66 844.17 318.57 831.24 322.83 823.9 330.54 816.19 340.98 806.27 348.05 800.02 354.93 794.15 365.36 786.68 372.95 779.62 392.05 744.31 396.91 736.21 408.12 716.19 409.07 708.74 407.58 701 403.85 694.19 402.7 686.72 403.06 674.44 402.87 668.81 405.64 657.27 404.18 648.7 401.69 643.18 390.13 631.88 388.31 624.83 382.05 617.28 369.01 607.11 355.45 601.97 331.07 596.33 309.47 592.99 298.17 592.63 283.51 591.85 266.47 590.85 243.99 591.24 226.76 598.06 208.11 598.78 165.53 600.36 147.65 599.88 134.17 595.88 112.39 594.09 97.72 595.77 85.34 594.08 76.49 592.19 58.51 583.12 48.5 583.51 37.79 584.16 1.14 580.1 1 575.92 2.98 570.54 6.93 552.02 8.91 543.66 8.91 531.72 6.93 517.38 24.73 517.98 28.68 512.01 49.11 516.19 66.25 520.37 62.29 507.23 46.48 495.29 50.43 475.6 31.98 467.84 24.59 468.93 10.58 468.43 8 465.15 14.26 458.29 19.54 449.34 21.51 442.18 21.51 429.06 20.2 418.32 17.56 411.76 12.95 405.79 12.29 398.04 18.84 378.89 36.47 378.62 48.56 383.57 58.44 384 70.6 383.38 79.12 380.64 90.46 375.43 107.87 375.22 124.98 376.83 124.94 369.1 129.15 356.89 128.95 342.14 127.34 331.86 125.55 321.66 122.99 308.66 121.24 299.72 120.55 290.51 118.25 280.27 114.59 273.14 113 267.2 112.85 260.11 116.55 242.28 120.48 227.35 122.78 217.55 124.6 209.8 122.9 202.83 119.55 189.19 121.27 166.53 135.05 154.45 136.26 147.5 140.12 140.19 141.89 131.84 140.41 119.13 141.2 108.85 150.95 95.3 153.73 91.32 154.46 85.15 150 78.15 140.3 71.35 134.99 63.47 135.36 56.62 137.28 45.75 153.2 32.47 161.59 24.38 166.5 18.4 178.45 1.87 179.43 2.27 180.48 2.7 183.49 3.93 188.8 6.01 197.84 9.44 203.76 11.66 209.79 13.92 213.13 15.23 218.45 17.12 225.37 19.61 229.93 21.25 237.96 24.2 243.13 26.05 248.26 27.15 251.61 27.89 254.87 28.64 260.02 29.81 264.16 30.75 273.68 29.51 284.92 28.02 294.83 26.7 300.37 25.93 308.9 24.86 319.73 24.29 331.38 23.63 333.92 23.47 338.54 23.24 344.14 22.95 347.05 22.79 352.09 23.05 356.12 23.27 366.54 23.72 367.79 23.78 369.81 22.95 373.12 21.6 378.39 19.45 381.97 18.14 384.07 17.4 385.9 16.48 389.31 14.79 398.83 10.67 408.92 6.3 411.31 5.26 413.9 4.14 418.19 2.88 421.37 1.95 424.59 1 427.97 1.08 438.44 1.64 441.64 1.88 444.98 2.12 446.82 2.27 449.25 2.4 450.79 2.51 452.36 3.03 455.31 4.94 458.02 7.11 461.62 10.05 461.9 10.29 462.59 11.62 463.84 13.99 465.12 16.44 466.89 19.8 468.6 23.02 469.53 24.75 470.98 27.45 471.94 29.26 471.92 32.3 471.89 37.84 471.85 41.35 471.77 45.17 471.75 46.81 471.66 51.82 470.72 55.12 469.73 58.75 469.22 60.6 469.49 65.12 469.64 67.66 469.81 70.83 470.13 76.16 468.64 89.28 468.61 93.28 468.6 94.9 468.57 99.54 468.5 102.94 468.39 105.84 468.25 109.48 468.14 112.25 468.08 113.66 467.98 116.37 467.81 120.34 467.53 125.91 467.21 130.83 467.02 133.86 470.39 135.58 475.23 138.01 474.97 140.87 474.15 149.98 473.84 153.19 473.31 158.77 473.04 161.69 472.71 165.04 472.06 172.01 471.47 176.74 470.73 180.94 470.07 184.75 470.79 186.31 471.11 187.04 471.05 189.34 471 190.99 470.8 197.29 470.78 198.8 470.7 203.87 470.67 205.87 470.61 208.55 470.56 210.43 470.48 214.17 469.41 217.72 468.21 221.6 467.13 225.21 465.82 229.4 465.28 231.12 467.27 233.08 469.73 235.5 472.72 238.45 476.62 242.2 481.46 246.83 483.14 248.34 484.99 250.01 486.3 251.2 487.46 252.23 489.81 254.35 492.57 256.73 495.31 259.1 497.15 260.68 498.5 261.86 501.39 264.32 503.36 266.01 505.69 268 507.06 269.18 509.92 271.55 513.66 274.67 517.38 277.77 517.73 278.94 519.4 284.89 520.26 287.93 521.32 292.04 521.78 293.81 523.82 301.64 524.55 304.23 525.02 305.99 525.27 306.87 525.86 309.07 526.2 310.28 527.03 313.26 528.16 317.38 534.03 322.96 535.6 324.46 537.69 326.52 544.39 333.13 547.03 335.63 551.12 339.51 551.98 340.31 554.16 342.39 555.08 343.25 559.83 347.76 561.87 349.67 563.42 351.11 566.78 354.24 569.66 356.94 573.78 360.83 576.55 363.44 579.85 366.66 585.72 372.4 588 374.68 590.43 377.14 593.69 380.4 596.64 382.88 601.91 388.02 605.48 391.33 607.92 393.59 608.61 394.23 609.51 395.07 612.18 397.48 618.49 403.18 621.9 406.29 626.06 410.09 626.97 410.94 627.22 411.18 627.38 411.84 629.11 419.62 629.52 421.5 629.9 423.73 632.07 436.4 634 447.73 Z"/>
</g>
</svg>