<?xml version="1.0"?>
<svg xmlns="http://www.w3.org/2000/svg" version="1.2" baseProfile="tiny" fill="#f9c113" width="800" height="447" viewBox="0 0 800 447" stroke-linecap="round" stroke-linejoin="round">
<g fill="#c0392b" id="id_235">
<path d="M 22.68 285.4 26.65 280.23 29.95 275.93 35.77 268.38 35.9 256.63 41.19 246.56 41.32 240.92 38.81 233.13 35.77 226.18 34.84 221.38 34.97 211.91 36.96 202.08 37.75 196.45 38.41 191.77 39.34 187.46 43.44 183.02 47.4 180.03 49.65 175.95 49.38 171.64 46.87 168.16 39.73 162.53 37.09 156.65 36.16 148.02 38.02 135.2 40.39 122.97 50.44 114.1 52.03 107.27 51.76 99.84 47.4 86.17 42.64 75.15 40.26 66.28 39.07 55.97 43.7 43.15 43.7 34.04 41.72 29 41.54 22.38 42.26 22.27 167.32 14.36 179.88 17 192.7 6.45 198.65 1.3 230.28 1 281.93 3.28 332.03 3.28 368.52 3.28 392.98 4.36 429.06 8.43 473.75 4.12 488.88 5.34 572.7 7.85 638.14 6.53 639.06 25.59 655.85 43.33 681.31 73.18 725.6 100.63 764.07 137.91 787.07 161.16 799 177.26 782.21 198 761.98 213.1 710.96 233.84 684.11 266.28 638.51 321.36 659.27 320.04 666.14 347.62 682.4 387.18 663.83 391.8 558.6 409.29 523.6 405.18 450.99 419.65 441.94 417.06 428.13 428.94 375.28 435.85 292.9 446 291.47 423.54 252.43 360.7 254.81 353.57 225.29 331.55 207.43 347.74 162.91 379.92 108.39 331.98 21.49 392.08 18.58 386.35 14.88 379.64 7.74 373.28 3.51 366.93 1 362.13 1 357.1 4.57 346.79 8.01 337.2 7.21 327.48 6.29 319.93 5.1 311.42 6.42 303.02 11.97 297.03 21.41 286.78 22.68 285.4 Z"/>
</g>
</svg>