<?xml version="1.0"?>
<svg xmlns="http://www.w3.org/2000/svg" version="1.2" baseProfile="tiny" fill="#f9c113" width="800" height="473" viewBox="0 0 800 473" stroke-linecap="round" stroke-linejoin="round">
<g fill="#c0392b" id="id_200">
<path d="M 321.39 464.86 322.5 458.43 320.13 455 316.66 453.46 308.25 451.3 295.97 450.04 281.64 448.95 266.19 446.76 257.93 445.4 230.26 439.35 218.58 445.12 202.98 463.17 197.92 469.02 170.28 467.81 163.53 467.56 158.03 467.53 151.73 466.83 145.69 466.3 136.4 463.88 131.42 460.95 130.28 457.37 124.04 452.61 121.27 449.03 116.49 442.78 111.61 434.05 107.77 425.23 99.09 409.54 95.5 408.88 66.9 408.63 17.81 410.74 1 410.4 13.51 398.08 33.86 373.09 37.13 364.97 66.4 365.58 80.73 361.92 95.15 353.79 104.84 343.67 97.18 328.5 102.79 315.73 126.78 313.99 144.39 307.52 156.73 299.21 168.47 292.99 175.85 297.75 199.39 311.88 202.69 313.19 226.4 318.8 231.21 316.44 249.08 311.1 264.95 309.31 280.88 309.46 286.21 304.83 306.1 287.65 310.34 283.65 321.05 273.55 346.67 247.95 349.83 243.79 361.77 226.73 359.15 212.51 355.64 204.1 348.12 192.1 367.15 175.42 384.45 176.42 396.04 168.22 399.97 144.42 401.54 139.11 403.51 131.36 406.73 117.88 421.71 121.63 435.73 116.29 455 106.18 480.83 91.35 483.23 81.19 514.17 65.93 538.96 61.91 565.89 61.71 570.93 51.65 577.26 37.6 588.6 20.01 602.91 6.41 612.14 1 616.7 9.8 621.95 19.45 633.66 28.32 642.46 35.56 652.06 46.57 656.65 52.78 663.55 44.88 667.68 39.05 675.43 33.1 690.35 21.22 700.12 30.17 713.83 36.68 723.97 39.55 742.38 46.64 770.42 45.38 799 45.43 793.23 49.71 787.73 54.91 776.16 58.33 764.02 60.09 755.33 59.91 755.04 61.7 763.34 66.7 774.14 83.4 778.3 90.59 780.29 100.3 758.62 106.69 745.32 132.3 725.98 154.71 715.1 167.52 725.98 186.73 741.69 216.63 728.39 225.17 718.72 226.24 710.26 208.09 695.76 193.14 681.25 185.67 663.12 178.19 661.91 163.25 669.16 136.57 652.24 140.84 632.89 142.97 631.69 162.18 623.22 176.06 603.88 188.87 611.14 195.27 619.6 205.95 623.22 223.04 615.97 237.99 608.11 240.66 583.94 259.88 602.37 282.58 605.09 288.72 609.62 295.13 614.46 300.74 615.97 308.22 615.67 311.43 615.97 316.77 612.34 316.5 610.23 315.43 605.7 313.3 602.98 313.56 599.35 313.56 594.51 314.1 591.79 316.77 593.3 323.18 596.93 326.38 596.93 332.26 596.02 333.87 589.98 330.12 581.82 327.99 563.08 332.53 553.11 333.33 543.74 332 537.09 334.67 536.94 342.01 536.04 344.42 536.34 347.49 536.94 350.03 535.28 350.96 533.62 352.57 530.63 355.13 515.47 354.63 502.45 351.05 485.66 347 479.68 346.16 472.49 354.64 465.68 363.43 455.4 370.59 450.04 382.94 440.89 390.19 436.36 398.06 430.92 408.46 427.93 418.87 423.38 435.14 417.59 440.98 407.08 442.25 396.11 444.11 388.13 446.3 377.3 448.24 366.42 453.09 341.69 463.3 330.94 469.09 322.39 472 321.39 464.86 Z"/>
</g>
</svg>