<?xml version="1.0"?>
<svg xmlns="http://www.w3.org/2000/svg" version="1.2" baseProfile="tiny" fill="#f9c113" width="800" height="441" viewBox="0 0 800 441" stroke-linecap="round" stroke-linejoin="round">
<g fill="#c0392b" id="id_21">
<path d="M 18.38 297.91 10.28 283.62 5.91 266.49 3.73 253.42 1 238.09 3.73 221.86 4.28 204.74 5.91 192.57 11.23 170.78 27.77 167.16 31 153.44 36.93 150.08 56.12 148.89 64.62 141.18 78.92 140.06 91.84 134.98 97.64 118.96 104.76 109.66 103.44 91.26 102.99 90.28 102.98 90.28 98.37 73.46 93.49 64.36 114.32 52.63 123.35 45.64 125.72 34.69 143.65 20.91 154.66 8.12 177.86 5.22 188.68 5.62 203.44 15.97 224.67 18.93 241.28 33.05 266.92 56.06 268.11 67.46 270.61 78.15 274.83 82.89 268.76 92.32 276.61 93.57 282.94 86.39 277.2 75.77 276.21 64.89 286.23 58.5 293.68 51.44 299.55 41.55 323.28 24.28 326.9 13.13 353.73 1.07 367.11 1 379.5 6.08 386.62 10.23 392.62 5.68 418.86 6.47 426.04 18.14 442.98 20.58 456.1 28.63 461.9 33.51 462.16 42.21 474.29 50.25 480.42 49.99 490.51 58.83 487.34 77.16 484.51 81.9 488.6 86.85 487.81 93.57 484.64 97.93 485.04 104.26 482.01 105.58 488.86 117.84 509.43 128.13 509.43 128.13 527.55 129.44 537.64 137.81 542.42 137.75 543.21 143.65 547.07 146.91 556.03 146.42 567.27 154.33 573.3 152.42 579.2 143.48 598.88 140.88 613.02 137.25 624.72 140.25 638.89 135.51 647.09 135.14 652.04 137.29 672.14 142.92 682.13 143.42 686.05 140.55 691.56 143.48 706.22 143.95 708.29 146.76 714.45 146.69 722.11 161.37 739.92 175.52 749.25 181.76 784.93 181.76 792.67 190.19 792.69 198.76 796.13 203.14 798.52 208.24 798.34 214.65 795.11 217.57 795.34 220.21 799 225.55 783.91 239.29 770.59 243.64 759.91 254.59 735.92 269.49 718.78 286.76 685.56 286.37 678.44 288.61 672.37 303.25 657.87 306.41 656.29 313.14 661.43 329.09 663.94 342.28 650.49 353.76 645.88 363.78 631.11 375.65 634.8 385.4 640.47 396.09 655.1 408.22 653.79 417.98 646.53 424.97 638.23 425.1 631.64 422.2 619.38 419.96 592.88 412.04 576.79 412.83 561.24 408.22 548.71 411.52 521.82 417.32 494.66 425.23 472.91 428.26 472.51 439.87 468.95 440 458.93 425.36 452.61 425.23 443.38 431.03 435.2 422.72 434.15 414.15 458.54 386.72 455.77 383.95 429.14 383.16 425.58 386.72 417.8 387.12 408.84 380.92 401.72 381.18 388.4 389.49 372.98 389.76 365.07 392.79 349.78 392.79 348.11 385.29 346.79 385.85 343.55 378.56 340.22 380.61 331.78 369.78 326.77 368.52 326.57 361.14 316.42 350 306.6 345.97 297.5 338 297.9 333.05 298.63 333.34 295.2 331.87 293.62 321.58 283.33 305.76 274.89 303.91 271.99 307.87 254.33 305.49 246.42 303.12 240.88 304.7 229.02 310.51 211.35 312.09 202.91 313.41 196.06 318.15 194.48 323.16 190.52 331.08 174.7 331.34 170.22 328.97 154.1 328.2 142.4 330.15 135.55 324.88 130.27 332.79 120.25 334.9 117.62 344.92 111.82 345.45 97.58 337.53 75.96 334.9 61.19 323.29 34.3 313.8 18.48 297.97 18.37 297.97 18.38 297.91 Z"/>
</g>
</svg>