<?xml version="1.0"?>
<svg xmlns="http://www.w3.org/2000/svg" version="1.2" baseProfile="tiny" fill="#f9c113" width="800" height="768" viewBox="0 0 800 768" stroke-linecap="round" stroke-linejoin="round">
<g fill="#c0392b" id="id_204">
<path d="M 389.96 692.59 382.67 695.87 373.81 703.25 371.67 705.18 363.95 712.15 354.14 719.63 347.08 722.07 340.02 724.51 325.73 729.12 311.95 739.2 304.94 751.56 293.49 767 282.4 760.26 272.57 754.3 266.93 751.12 261.65 750.28 252.04 747.53 240.61 742.32 235.26 738.88 230.83 734.63 223.91 724.07 219.65 719.37 212.02 712.78 207.36 709.37 208.93 700.87 202.59 693.09 195.41 687.54 191.07 683.37 185.66 681.31 182.52 682.07 175.74 682.74 166.85 681.9 153.04 677.93 144.73 677.75 138.64 678.26 136.24 679.61 130.72 683.47 121.74 686.53 119.2 687.16 114.88 686.93 110.91 686.83 107.08 685.79 104.19 683.63 99.07 680.68 78.46 673.86 69.8 669.2 65.8 669.08 62.68 668.77 62.2 668.34 60.68 666.76 59.68 666.46 48.39 658.19 44.1 656.79 35.7 655.98 22.1 654.12 12.32 650.92 1 650.64 13.49 638.81 17.21 632.02 21.27 625.74 23.93 616.67 26.41 610.74 37.82 608.46 43.31 603.7 45.34 597.45 44.48 592.8 41.99 585.86 41.51 575.59 43.28 567.81 44.85 554.29 46.82 547.28 53.86 536.96 61.2 526.34 69.44 518.39 82.36 508.73 95.16 497.86 106.71 498.32 130.53 497.78 141.59 492.96 160.71 493.42 170.55 494.13 182.32 496.64 199.08 497.1 208.42 496.39 217 493.85 222.32 488.94 227.49 476.42 225.43 463.09 223.16 456.85 221.86 453.29 217.63 441.76 213.43 432.77 207.17 425.02 198.13 416.8 193.3 412.91 175.84 400.45 163.49 393.82 152.85 383.41 145.96 376.08 139.67 366.89 135.21 357.65 131.83 343.6 125.37 332.23 122.37 323.45 123.57 318.73 128.94 318.09 133.32 315.61 138.46 309.85 148.04 304.39 161.39 295.75 163.05 294.68 171.71 277.71 177.43 269.57 192.78 256.22 202.24 240.22 207.04 231.5 209.33 218.52 205.64 197.63 204.3 187.94 205.27 175.37 217.19 157.37 221.85 150.86 227.43 150.3 247.89 156.79 260.12 158.8 267.99 160.09 287.6 161.25 316.27 160.44 331.22 152.41 341.31 145.56 356.87 138.8 386 129.07 405.49 128.43 415.5 126.08 422.06 119.07 423.86 111.34 423.78 108.28 423.26 103.74 421.15 99.97 414.37 93.38 408.6 86.21 405.84 81.97 404.94 80.59 401.88 72.46 394.93 61.87 382.67 52.83 373 45.34 388.43 37.09 401.9 26.46 413.39 18.38 424.54 12.2 433.77 7.52 441.37 5.47 444.95 5.27 451.75 8.77 455.67 10.64 459.3 11.27 467.02 11.45 470.28 11.17 479.88 11.07 499.84 17.15 506.01 18.54 510.27 18.03 521.65 14.18 528.74 10.87 533 9.7 542.43 5.07 546.97 3.4 555.42 2.78 572.29 3.12 621.53 1 650.23 1.25 653.83 1.91 662.53 17.68 666.39 26.54 671.28 35.3 676.08 41.58 678.86 45.18 685.12 49.96 686.26 53.56 691.26 56.5 700.58 58.93 706.64 59.46 712.96 60.17 718.48 60.19 725.25 60.45 752.98 61.66 758.06 55.78 762.24 62.31 764.01 69.81 763.38 78.57 766.15 83.03 771.5 85.36 776.45 88.37 781.76 90.15 791.88 94.94 798.97 97.65 799 102.61 798.6 106.87 797.77 109.71 797.4 114.65 792.05 122.6 792 128.71 789.09 130.19 776.85 126.87 767.73 124.21 751.61 119.8 747.78 121.3 736.59 127.96 723.79 131.53 717.44 131.35 708.26 128.44 682.88 128.69 671.41 133.48 668.18 139.06 667.33 144.51 664.53 148.64 662.41 152.77 659.84 160.55 661.92 164.15 670.83 174.12 675.54 182.13 677.35 189.74 676.23 195.54 673.4 200.59 671.94 205.96 672.83 213.92 671.97 221.48 672.37 227.64 673.2 231.78 672.17 237.89 670.43 240.52 666.44 246.07 658.33 250.66 652.58 258.34 646.03 265.95 643.06 268.21 638.15 275.26 628.55 280.11 618.51 280.79 600.65 280.61 587.15 280.59 572.23 280.06 558 276.38 548.05 274.83 540.96 278.38 538.76 287.34 543.07 298.17 554.39 303.75 568.83 306.49 580.95 310.75 592.17 314.51 603.34 324.41 609.06 333.19 612.29 342.98 612.29 360.87 601.57 370.29 595.85 374.73 584.16 378.64 576.59 386 567.4 391.72 553.25 396.98 544.85 401.65 538.84 405.84 532.75 412.29 523.29 424.37 520.21 430.11 511.17 437.73 501.82 442.15 501.28 445.7 499.85 452.79 494.59 456.49 489.22 454.54 479.76 454.21 472.81 456.26 465.66 464.29 464.75 469.88 466.01 472.47 466.78 474.65 470.35 476.79 474.72 478.95 478.87 479.83 483.64 480.8 495.36 483.24 500.17 485.14 497.07 491.99 490.27 507.01 478.35 533.25 471 548.75 471.08 553.88 472.14 560.57 472.06 566.59 470.94 569.82 467.05 575.03 472.63 577.22 472.09 579.43 467.12 585.72 461.48 590.62 457.88 597.61 452.59 600.38 448.85 601.48 440.64 603.41 437.61 604.81 431.4 619.87 423.55 638.88 407.77 667.33 396.19 688.9 389.96 692.59 Z"/>
</g>
</svg>