<?xml version="1.0"?>
<svg xmlns="http://www.w3.org/2000/svg" version="1.2" baseProfile="tiny" fill="#f9c113" width="800" height="613" viewBox="0 0 800 613" stroke-linecap="round" stroke-linejoin="round">
<g fill="#c0392b" id="id_240">
<path d="M 159.83 275.71 169.62 270.13 179.97 270.38 190.89 271.4 199.84 268.35 259.99 193.43 283.21 163.21 246.83 143.95 222.09 121.49 182.51 103.53 157.77 132.72 180.04 161.91 167.67 188.86 128.09 179.88 98.4 132.72 83.56 159.67 81.09 132.72 52.68 157.62 1 76.53 60.12 48.98 92.43 40.52 179.11 34.6 213.91 34.88 238.76 40.24 269.21 56.32 291.27 63.08 331.91 65.66 349.06 66.75 373.91 56.6 407.16 31.22 437.3 4.71 441.32 1 467.17 54.09 458.96 128.38 472 147.4 499.49 133.61 510.05 155.61 564.42 121.21 570.63 133.61 579.02 144.33 566.59 151.1 618.54 194.29 621.67 196.9 660.42 260.25 684.04 322.49 705.79 318.54 799 372.98 462.26 574.91 400.71 605.4 376.93 612 289.5 609.84 287.94 609.95 232.7 546.09 154.4 530.29 102.21 520.7 80.77 520.98 53.44 523.14 54.92 519.03 63.03 499.98 63.31 499.73 89.61 459.09 127.38 441.31 156.75 417.69 169.34 359.52 158.43 338.7 169.9 325.49 164.03 317.11 159.83 275.71 Z"/>
</g>
</svg>