<?xml version="1.0"?>
<svg xmlns="http://www.w3.org/2000/svg" version="1.2" baseProfile="tiny" fill="#f9c113" width="800" height="1128" viewBox="0 0 800 1128" stroke-linecap="round" stroke-linejoin="round">
<g fill="#c0392b" id="id_261">
<path d="M 26.1 917.96 26.65 916.99 27.23 916.26 27.96 915.8 28.56 913.91 28.51 912.56 29.25 911.49 30.12 910.46 30.59 909.87 31.54 909.23 33.41 907.4 34.68 906.63 35.28 906.19 35.53 905.6 35.77 904.88 36.26 904.36 37.09 903.56 37.57 902.93 38.06 902.56 39.68 901.76 40.08 900.08 41.29 898.02 41.99 897.71 42.62 896.9 42.8 895.61 44.75 894.86 45.68 893.76 46.58 893.41 47.33 892.92 47.82 892.35 48.35 891.29 48.76 890.01 49.12 888.91 50.1 888.44 51.38 887.65 51.86 887.15 52.39 886.37 52.94 885.93 54.68 883.95 56.88 883.22 56.7 882.44 57.5 881.61 59.18 881.04 59.17 880.04 59.54 879.79 61.14 879.93 61.85 879.5 62.51 878.85 62.95 877.12 64.13 876.73 65.48 876.42 66.28 876.03 67.6 874 68.99 873.36 69.82 872.59 70.35 871.89 70.48 870.43 70.65 869.45 72.03 868.02 72.58 867.24 73.46 867.1 74.58 866 74.94 864.94 75.6 864.07 77.65 862.09 79.38 860.6 79.65 859.58 80.55 858.69 80.9 857.48 80.81 856.18 81.43 855.47 82.38 855.23 82.87 854.85 83.12 853.28 83.06 852.12 84.62 851.11 85.21 850.18 86.06 849.15 87.17 848.53 87.54 847.91 87.74 846.83 88.02 846.37 88.73 846.02 88.96 845.7 89 844.45 89.33 843.64 89.51 843.17 89.73 842.27 90.37 841.56 91.2 841.08 91.9 840.62 92.61 839.85 93.36 838.69 94.25 838.73 94.64 838.13 95.23 837.52 95.55 837.31 95.89 837.46 96.6 837.23 96.84 836.93 97.32 836.26 97.57 835.9 98.36 834.89 98.43 833.53 99.36 832.53 99.97 831.95 100.47 831.44 101.62 830.99 102.03 829.85 102.19 829.24 102.51 828.1 103.34 827.59 104.07 827.1 104.72 826.16 106.37 824.26 106.63 823.39 106.69 822.74 109.06 820.99 108.74 819.39 108.93 819.03 108.15 818.33 108.72 817.64 109.17 816.85 110.32 815.63 111.42 815.16 112.2 814.53 112.91 813.34 112.45 812.24 112.59 811.59 113.11 810.76 113.47 809.89 112.67 809.43 112.28 808.8 113.01 807.3 113.01 805.36 113.74 804.62 114.41 803.89 115.75 803.14 116.56 801.44 115.87 798.73 116.06 797.91 116.45 797.7 116.81 797.13 117.29 796.8 117.94 796.05 118.39 795.56 118.67 793.96 118.97 793.08 118.66 792.68 119.02 792.38 119.56 791.56 118.76 790.84 118.9 789.99 119.46 789.18 119.83 788.3 120.52 787.07 120.8 785.93 120.81 784.99 121.11 784.27 121.16 782.66 121.38 781.66 121.84 780.76 121.95 778.91 122.29 778.34 123.14 778 124.05 777.53 124.33 776.99 125 776.4 125.98 775.2 126.49 774.52 127.09 774.06 126.96 773.04 127.14 771.52 127.6 769.75 128.05 768.53 128.72 767.11 129.75 765.87 129.97 765.18 130.06 764.54 129.18 764.06 129.17 763.75 129.27 763.1 128.95 762.21 128.83 760.92 128.83 760.46 128.33 759.95 127.78 758.16 127.26 757.1 127.3 756.59 127.58 754.17 128.05 753.02 128.29 752.32 127.9 750.44 127.6 748.78 128.22 747.92 129.67 745.82 131.57 744.23 131.65 742.1 130.33 741.98 128.69 742.18 127.85 741.42 126.13 739.98 125.76 739.36 123.64 739.36 123.23 738.27 121.76 737.61 119.14 737.6 117.64 741.09 117.13 742.11 116.15 743.66 115.74 744.38 114.73 745.28 112.68 747.09 111.78 747.56 110.57 749.34 110.18 750.27 109.5 750.56 108.83 751.02 108.88 752.21 107.33 752.72 105.76 752.36 104.53 752.03 103.43 752.19 102.05 752.53 100.73 752.43 100.3 751.96 99.77 750.81 98.65 750.1 97.64 749.26 97.26 748.07 96.41 747.23 95.21 745.26 95.19 744.56 94.09 743.59 94.53 741.24 94.25 740.45 94.36 739.19 96.45 736.01 96.09 733.48 95.86 732.68 95.8 731.45 95.45 729.38 95.27 728.24 95.02 726.78 96.11 725.88 96.37 725.03 96.36 724.39 95.49 722.8 95.05 722.31 94.91 721.69 94.91 720.63 95.19 719.13 95.26 718.41 94.96 717.55 95.13 716.96 95.43 715.46 96.42 713.98 96.68 713.27 96.88 711.95 96.75 711.11 96.82 710.29 97.2 706.75 97.31 706.08 98 704.26 97.51 702.9 96.91 701.92 96.6 701.16 96.22 700.34 96.54 698.49 97.31 696.7 98.59 696.68 98.97 696.25 100.24 696.15 101.76 694.76 102.54 693.88 103.07 693.31 103.23 692.94 104.29 692.42 104.9 691.44 105.8 690.17 106.43 689.58 106.41 688.5 110.3 687.78 111.27 687.67 111.72 687.45 112.4 686.34 113.26 686.12 115.34 685.94 116.4 685.92 117.38 686.05 119.55 685.7 120.41 684.97 121.08 684.56 121.83 683.81 123.6 683.67 123.73 682.93 123.01 682.49 122.81 681.81 123.06 680.5 123.1 679.58 123.52 679.15 123.96 678.9 124.33 676.94 123.78 676.06 123.69 675.02 123.93 673.21 124.82 671.87 125.89 670.98 127.68 669.19 127.41 668.64 126.3 667.93 126.47 667.06 127.01 665.95 127.3 664.89 127.22 664.39 126.42 663.61 125.57 663.35 125.54 662.61 126.33 660.89 127.63 660.25 127.57 659.44 126.71 658.73 126.58 657.91 127.58 655.77 127.27 653.9 126.82 653.07 126.79 652.38 126.35 651.05 127.89 647.64 128.46 644.78 128.46 643.14 128.91 642.31 129.91 640.95 130.86 639.15 131.12 637.04 130.92 634.99 131.62 634.26 132.72 634.06 132.8 633.2 132.4 631.2 132.55 630.02 132.92 629.29 133.02 627.94 132.65 626.74 133.15 625.76 133.49 624.93 133.67 623.08 134.52 622.09 135.65 621.67 135.88 620.85 136.67 620.17 136.84 619.13 136.54 617.87 138.83 616.35 139.77 615.1 138.97 614.72 138.97 614.04 139.16 613.09 139.14 611.78 139.49 610.66 138.38 609.59 137.74 608.75 138.01 608.27 138.45 608.02 138.41 607.27 137.68 606.52 138.68 603.99 139.13 601.78 139.49 600.67 139.25 599.25 139.92 598.08 139.95 597.13 140.61 596.37 141.72 595.57 141.79 593.82 142.1 593.4 144.18 592.36 144.6 590.9 146.09 590.16 147.06 588.13 146.42 587.23 146.43 586.09 147.07 585.62 147.18 584.21 148.91 583.14 148.43 581.95 149.93 581 149.95 580.6 149.78 579.66 151.02 578.94 150.9 577.65 149.43 576.93 149.41 576.17 150.22 575.75 151.85 574.39 152.22 573.39 152.67 571.63 152.98 570.99 152.6 569.88 152.24 568.82 152.54 567.87 153.93 566.69 154.21 565.7 153.06 564.9 153.06 564.11 152.8 563.43 151.83 562.98 151.23 561.81 151.03 561.31 149.81 560.39 150.46 559.8 149.88 559.12 148.34 558.53 147.82 557.62 147.55 556.72 146.38 556.33 146.11 554.69 144.5 553.71 143.48 553.27 141.72 551.86 141.72 551.08 140.42 550.57 138.46 549.84 137.12 549.62 136.5 549.28 135.44 548.36 136.65 547.38 135.94 546.81 136.09 545.25 135.84 544.29 136.63 542.61 136.01 540.96 134.89 539.68 134.89 538.81 134.27 536.79 134.68 535.54 133.4 533.96 133.88 532.55 133.72 531.58 133.14 530.82 132.47 529.75 133.2 528.68 132.87 527.79 133.03 527.01 133.76 525.34 134.93 524.23 135.35 523.85 136.52 523.04 137.6 522.64 138.08 522.12 138.75 520.4 139.16 518.63 139.46 517.79 139.66 514.66 140.42 513.82 139.25 512.91 140.2 512.2 140.5 511.53 140.63 510.21 140.2 509.63 139.97 508.72 140.81 507.35 141.18 505.91 141.84 504.94 142.45 503.19 142.88 501.02 144.14 500.17 144.4 499.18 145.37 497.08 146.03 495.55 148.01 493.1 148.82 491.49 149.26 490 149.94 488.76 150.97 487.76 152.12 485.17 153.8 483.35 154.61 482.38 154.84 479.47 154.49 478.71 154.07 478.59 152.69 478.12 151.78 476.91 151.67 475.55 152.26 474.69 152.78 473.95 154.02 473.31 154.25 471.53 153.66 470.6 153.8 469.85 153.86 468 154.36 466.93 155.21 466.41 155.31 465.75 155.26 464.62 156.67 463.4 158.39 462.86 158.71 462.53 158.63 461.65 159.4 459.87 159.12 458.7 158.92 457.02 160.23 455.74 160.9 455.1 161.68 453.47 161.42 452.29 160.6 450.96 160.02 449.34 159.65 448.25 160.19 446.98 160.6 446.44 160.94 445.14 161.26 444.57 162.81 444.18 163.46 443.36 167.62 441.51 169.18 441.73 170.35 440.87 171.79 438.95 173.18 438.24 173.83 437.48 175.12 436.31 176.73 435.68 177.76 435.14 179.94 435.29 180.4 434.42 181.34 433.44 181.76 432.57 182.23 430.41 182.51 430.31 182.59 429.78 182.78 428.89 183.31 428.3 183.32 427.04 183.68 426.13 184.21 424.98 184.26 424.19 184.21 423.31 184.61 422.59 185.44 421.57 185.46 420.49 185.83 419.82 185.91 418.8 185.44 417.43 186.29 416.16 187.3 415.82 187.97 415.28 189.05 414.07 189.65 411.32 189.8 409.64 190.06 408.83 190.16 407.88 189.9 407 189.97 406.02 190.16 404.4 189.35 402.65 189.58 400.93 189.45 400.62 190.1 399.09 190.61 397.7 190.63 396.74 190.38 395.83 190.36 394.97 191.2 394.04 191.97 391.66 192.54 390.45 193.31 388.82 193.37 387.94 193.74 386.68 192.69 384.01 192.38 383.17 192.28 381.29 191.78 380.15 191.65 378.81 191.74 377.7 191.71 376.29 192.51 375.87 192.85 374.84 193.33 373.81 193.1 372.94 193.01 371.44 193.18 369.16 193.45 368.04 193.57 365.67 194.83 364.82 195.32 363.75 195.65 361.57 195.96 360.2 196.01 358.94 196.41 357.75 196.79 356.97 197.23 355.32 197.47 354.54 197.4 352.91 197.05 352.04 196.93 351.22 197.04 350.24 197.15 349.5 197.01 347.76 198.04 346.95 198.71 344.19 200.46 342.44 201.21 341.4 200.89 340 201.87 338.66 202.43 337.23 203.82 336.57 205.26 335.57 206.3 334.73 207.67 334.17 208.23 333.94 210.65 330.59 210.6 330.02 209.37 328.65 208.42 326.76 208.56 325.73 209.36 324.85 210.8 322.73 211.32 321.77 211.45 320.95 211.89 319.99 211.71 317.19 212.93 316.12 214.75 314.7 215.29 313.77 216.31 311.85 216.43 311.36 216.19 310.09 215.3 309.02 215.38 308.48 216.28 305.91 214.21 303.71 213.56 302.61 212.83 301.73 212.68 301.01 210.56 300.24 209.75 299.97 209.39 299.21 209.6 298.04 209.58 297.47 210.69 297.06 210.76 296.44 212.32 294.89 212.7 294.02 213.08 292.68 213.59 292.21 213.84 291.57 215.21 289 216.57 286.54 216.68 285.72 216.2 283.82 217.18 280.79 218.45 279.67 219.62 279.06 220.2 278.18 220.09 276.44 221.13 275.72 221.49 275.2 222.53 272.91 222.78 272.26 221.64 270.84 220.48 270.18 221.17 269.24 221.25 268.04 221.64 267.46 222.2 266.1 222.17 265.41 222.63 264.77 223.27 263.47 224.02 262.8 224.13 262.05 224.32 261.29 224.17 260.22 224.23 259.58 224.5 258.53 225.73 256.73 226.28 255.53 226.75 253.63 226.47 252.76 225.54 251.57 225.68 250.31 225.88 249.85 226.37 248.42 227.01 247.35 225.75 245.35 224.81 244.53 224.73 243.66 224.88 241.65 224.89 239.87 225.51 238.39 225.41 237.31 224.28 235.91 224.4 234.87 224.77 232.5 224.24 231.38 223.7 230.18 224.03 229.27 224.39 227.75 224.09 226.68 223.35 225.53 224.01 224.42 223.66 222.77 223.44 221.84 223.17 219.45 224.19 218.73 224.39 216.86 224.79 215.95 224.99 215.27 224.88 214.43 225.79 214.06 228.27 212.91 229.56 212.42 230.32 211.9 230.78 211.58 230.22 209.9 230.22 209.45 230.95 208.6 231.44 208.08 231.85 206.89 231.96 205.31 232.8 203.86 232.8 203.05 232.69 201.39 232.22 199.99 230.77 198.56 229.22 197.68 228.63 195.11 227.66 193.82 227.39 192.85 227.03 191.26 232.81 191.66 235.92 192.26 238.13 192.61 242.66 192.23 249.29 192.36 251.18 192.56 257.75 192.81 265.08 192.94 270.53 193.16 273.97 193.59 277.41 194.67 281.3 194.66 290.87 193.48 292.22 194.78 293.24 196.1 303.26 201.5 304.51 202.55 308.53 203.68 311.69 204.07 313.86 205.8 316.43 207.59 317.3 208.62 319.23 210.45 320.78 210.72 321.62 211.29 322.05 212.79 323.66 214.28 324.42 215.23 326.25 217.6 327.04 218.39 328.18 219.11 330.84 219.13 331.37 218.2 332.76 218.36 333.46 218.91 338.81 219.09 341.01 217.81 341.96 217.08 342.42 216.04 343.05 215.83 344.24 215.32 344.48 214.79 344.74 213.99 344.82 213.54 345.7 212.71 347.21 212.06 348.44 210.39 348.94 209.45 349.68 209.06 350.23 208.4 351.13 206.39 352.59 204.84 353.25 203.07 353.48 201.26 353.86 198.82 354.27 196.25 354.38 195.09 354.77 193.5 356.02 190.35 356.8 188.85 358.69 187.25 359.82 186.7 360.85 184.42 361.67 183.24 362.04 182.12 362.05 181.36 363.22 179.51 364.31 178.94 364.62 178.16 366.52 175.33 366.92 173.62 370.38 171.07 371.84 169.09 371.99 168.9 372.16 167.52 372.79 166.12 374.58 163.61 375.39 162.19 375.74 160.98 377.24 158.46 378.99 157.48 379.42 155.34 379.82 151.58 379.68 149.96 380.78 146.85 381.19 145.72 382.63 143.14 383.77 140.41 384.5 139.08 385.61 136.2 386.64 134.71 389.24 132.29 390.06 130.83 390.7 128.6 392.52 127.49 393.04 126.51 395.14 124.13 395.7 123.35 396.21 122.86 397.33 122.21 398.47 120.97 400.12 120.08 401.07 118.12 401.89 117.03 403.75 114.98 403.87 114.01 404 111.92 404 110.57 405.65 108.9 406.12 108.44 406.33 107.04 407.2 104.96 409.13 102.67 411.13 100.96 411.8 100.33 411.73 98.65 414.27 94.91 415.17 91.3 415.52 90.49 417.5 88.39 418.95 86.56 419.61 83.59 420.33 80.49 422.06 77.74 423.07 75.99 422.76 74.93 422.58 72.61 422.67 71.52 422.8 70.67 423.83 68.03 424.21 67.51 424.04 65.26 424.35 64.33 425.08 63.26 425.44 61.81 426.04 60.55 427.98 56.95 430.03 54.17 430.58 53.55 431.65 53.14 432.44 52.51 433.57 50.57 434.74 48.69 435.66 49.19 438.94 51.6 440.7 52.23 445.08 53.84 448.36 55.16 450.91 55.95 455.97 57.61 458.32 58.12 461.43 59.43 465.54 60.07 466.9 61.64 467.28 62.84 468.1 66.25 468.74 67.52 471.75 70.27 475.43 71.26 477.06 71.92 479.85 72.07 480.14 74.09 480.48 75.03 480.67 76.44 480.31 79.75 480.51 81.04 480.46 83.07 479.57 83.87 479.42 84.76 478.39 87.3 477.12 88.12 476.05 88.66 476.05 89.36 476.67 91.5 476.7 93.86 476.68 94.73 476.72 95.83 473.12 98.55 473.68 100.28 472.37 100.93 470.75 101.67 471.55 104.42 471.56 105.72 472.51 108.7 472.8 110.25 473.69 112.96 473.91 114.39 478.03 115.84 479.59 116.72 482.52 117.5 483.65 117.03 484.72 116.73 488.66 117.85 489.95 118.42 491.67 119.1 493.83 119.86 495.98 118.79 497.07 116.13 496.97 114.41 497.82 110.03 501.31 107.94 503.01 105.6 504.18 104.78 508.11 105.26 516.21 107.34 520.95 108.79 527.15 110.79 530 111.94 532.29 111.68 534.75 112.14 536.36 111.87 538.14 110.25 540.56 108.62 541.94 108.85 542.81 108.32 544.01 107.83 546.01 108.07 547.25 107.45 549.64 106.93 551.47 106.93 552.49 107.18 554.64 106.72 558.93 106.83 561.99 106.83 563.9 106.67 566.41 106.62 567.54 106.99 569.69 106.99 570.61 106.67 573.51 105.86 576.28 106.11 577.86 105.62 581.4 104.75 583.27 104.15 583.27 103.25 582.1 100.88 581.84 100.02 580.9 96.91 579.44 95.93 578.51 92.94 578.51 91.66 578.51 90.32 581.84 87.52 583.41 85.51 583.68 84.24 584.9 82.02 587.24 80.9 588.15 79.43 587.47 76.89 588.4 74.59 588.41 73.06 588.47 70.18 589 68.87 589.85 65.7 589.73 61.5 589.76 59.92 590.49 57.92 594.63 57.37 597.84 55.67 601.23 53.78 604.49 50.81 604.29 49.78 603.69 48.46 602.49 46.98 602.54 46.01 601.75 44.71 602.02 42.57 601.94 41.59 601.34 39.4 603.62 38.12 607.08 37.13 609.84 37.75 613.79 36.17 615.61 34.71 617.23 33.97 620 32.15 626.3 33.13 628.97 33.01 631.87 32.72 632.73 31.45 634.9 30.34 635.68 29.74 636.53 28.67 638.66 26.05 639.07 24.53 639.35 23.76 642.06 21.72 642.77 20.77 646.01 18.72 648.67 16.6 650.97 16.01 651.91 15.35 654.04 14.81 656.13 14.79 659.72 14.7 660.68 14.23 667.94 13.81 668.47 13.14 672.53 12.42 677.11 11.91 677.81 12.43 679.22 13.33 681.95 13.06 683.02 13.69 685.54 14.32 688.36 12.98 689.6 13.58 691.33 14.23 691.81 14.32 692.81 13.95 694.27 10.67 695.79 7.5 695.66 5.64 695.95 3.54 697.43 2.34 700.74 1.59 703.67 1.55 704.41 1 706.12 1.98 708.04 2.95 710.06 4.64 712.35 5.62 713.79 7.24 713.81 8.12 713.49 10.62 713.21 11.93 712.71 13.64 712.16 15.32 712.55 17.42 714.07 18.6 716.46 20.75 716.82 21.51 718.19 25.22 719.26 26.1 721.25 28.13 722.68 28.89 723.73 29.69 727.22 32.76 728.47 33.69 728.93 35.13 730.47 35.75 733.5 36.68 734.32 39.93 736.01 39.16 738.4 38.25 741.34 37.77 743.32 38.08 744.97 38.3 746.33 38.79 747.42 37.95 748.34 37.76 749.15 38.09 749.69 38.23 750.36 38.18 751.43 38.12 751.9 38.45 752.86 39.82 753.6 39.58 753.9 39.22 753.9 38.68 753.95 38.3 754.7 38.37 755.33 38.76 755.84 39.18 756.7 39.3 757.38 39.6 758.2 39.57 758.37 39.02 758.05 37.92 758.91 37.44 759.43 37.02 759.9 36.15 760.39 35.68 762.24 34.37 762.71 33.67 762.95 32.07 763.21 31.04 763.74 30.31 764.04 30.55 765.59 32.39 766.92 33.5 768.96 34.91 770.06 36.35 771.01 37.5 772.18 40.51 772.44 41.27 773.35 44.22 773.65 45.22 774.49 48.6 775.58 49.76 776.01 50.51 777.89 52.57 778.4 53.83 779.56 56.76 779.69 57.65 780 60.85 780.28 61.74 780.77 64.13 781.22 65.42 780.49 70.94 780.16 73.08 779.72 74.63 778.96 76.4 777.95 77.84 777.93 79.59 777.91 81.12 778.76 83.57 778.97 86.76 779.86 88.03 779.82 89.33 782.04 90 783.27 90.4 783.69 90.85 785.03 91.74 784.65 92.68 783.71 94.06 782.43 96.46 782.07 97.39 781.48 97.8 779.78 98.29 779.09 98.94 778.51 100.17 774.11 102.21 771.96 105.02 771.37 108.15 770.73 109.21 771.15 111.84 770.54 112.72 767.46 113.57 766.64 114.27 764.78 115.98 764.7 117.43 764.74 118.76 762.89 120.23 762.89 121.85 764.76 123.48 764.74 125.48 764.93 127.23 764.37 128.86 762.87 129.02 760.75 131 760.49 131.74 758.82 134.34 757.49 134.86 752.9 135.14 750.86 135.69 749.65 136.41 746.71 138.16 746.08 139.11 746.5 142.18 747.21 143.38 748.61 144.03 751.88 144.59 756.12 144.38 755.61 145.84 756.26 148.02 756.94 149.35 758.79 150.77 758.3 152.14 758.39 153.6 757.49 155.77 760.79 156.84 760.79 158.77 760.93 161.32 760.72 162.6 759.74 164.53 760.22 165.96 760.05 167.2 759.45 167.74 758.49 168.32 757.68 168.66 756.53 168.65 755.37 167.63 752.72 169.17 751.62 170.53 750.61 170.9 748.46 171.2 744.51 171.95 743.66 172.33 741.84 172.48 740.08 168.79 735.72 168.98 734.32 170.08 731.11 169.54 729.75 169.91 727.37 167.57 727.38 166.87 728.09 164.18 728.12 161.21 727.72 160.6 726.41 158.42 725.83 155.88 724.88 154.58 724.57 152.21 723.79 151.76 722.04 149.18 720.61 148.15 719.51 144.83 720.13 140.48 719.2 139.42 716.81 138.36 715.57 137.81 713.44 137.42 712.97 137.53 712.2 138.98 712.1 140.26 712.89 142.3 712.09 142.66 711.83 143.52 711.35 144.33 711.23 146.49 711.05 147.28 710.37 148.4 707.58 149.62 706.49 150.86 705.39 151.52 703.72 152.15 702.63 152.02 701.5 151.3 700.1 149.3 699.41 146.83 697.75 145.23 697.07 144.96 695.32 144.47 695.14 143.75 694.44 141.24 694.16 140.46 690.51 139.57 688.27 139.33 686.96 138.34 686.54 137.44 684.28 136.21 683.13 135.55 681.47 135.09 677.63 136.93 677.06 137.48 674.53 137.76 673.1 137.78 671.93 136.25 670.47 133.18 669.78 132.7 667.68 131.36 665.28 129.61 664.46 129.96 663.13 129.88 661.7 129.05 660.3 128.47 659.71 128.73 658.66 129.67 656.81 133.66 656.05 134.25 654.94 135.24 652.62 137.4 651.59 139.12 650.55 140.83 647.29 142.95 645.39 144.93 644.38 145.98 644 149.07 643.25 151.63 641.69 153.51 641.33 154.31 641.47 158.57 640.78 159.65 639.05 161.07 637.54 161.07 635.95 161.96 633.63 164.29 632.92 166.41 630.82 168.41 630.95 169.09 631.44 171.57 631.32 173.19 632.74 174.78 634.15 174.97 636.31 174.78 637.19 175.43 638.22 176.52 638.33 177.37 639.57 177.81 640.61 178.19 642.24 179.34 643.87 179.89 644.33 181.01 644.76 182.8 644.98 183.78 644.88 184.51 643.56 186.2 643.45 188.08 643.93 190.71 644.42 191.65 645.04 192.85 646.1 193.2 646.52 194.15 645.82 195.81 645.28 196.75 645.9 198.22 646.25 198.95 646.2 199.73 646.31 201.58 647.66 204.05 648.07 205.37 648.05 206.69 648.01 207.82 648.32 209.46 648.12 210.22 644.59 211.45 644.17 212.47 645.67 213.71 647.56 215.15 648.14 215.85 648.52 216.96 648.54 218.38 648.55 219.6 649.47 220.43 649.77 221.63 650.36 223.19 650.32 224.73 649.67 225.95 649.8 227.43 649.62 230.04 651.42 230.86 653.08 231.59 656.56 232.72 657.74 235.06 658.37 235.89 661.49 238.06 661.33 239.96 662.51 240.54 663.26 241.07 664.01 243.34 664.35 243.77 667.45 245.97 669.03 247.79 669.65 248.09 670.17 248.33 673.29 247.53 675.32 246.47 676.54 245.82 677.72 245.39 678.54 245.46 681.38 249.7 682.48 251.11 684 252.52 687.03 253.48 688.67 254.73 689.34 256.75 688.69 259.42 689.12 260.38 689.88 263.53 690 265.1 690.75 266.07 693.05 266.75 694.2 266.76 696.98 266.85 698.06 266.96 700.87 266.82 701.71 267.51 702.01 268.12 702.82 269.02 703.48 270.49 703.94 273.12 703.39 274.71 703.5 276.35 702.75 279.36 702.06 282.69 701.73 284.11 699.39 285.73 698.15 286.03 692.71 287.3 688.92 286.59 685.98 286.95 681.81 289.29 680.76 289.97 676.85 291.07 675.64 294.45 675 295.75 674.21 297.41 673.68 300.89 673.68 303.01 673.11 304.7 672.11 305.46 671.16 306.29 670.67 307.23 669.49 308.51 669.27 309.97 669.23 311.89 668.96 313.07 667.92 316.42 666.7 317.41 664.91 318.18 662.06 318.83 661.64 321.3 659.07 323.07 658.72 325.15 658.48 326.49 657.11 328.2 656.39 330.41 655.49 331.64 655.53 333.9 654.6 335.43 652.95 336.65 650.52 338.04 648.34 339.54 647.74 342.22 647.45 344.36 646.47 346.43 643.9 347.76 641.61 348.53 640.16 352.55 639.77 356.3 639.96 358.53 638.39 359.85 635.2 360.61 632.88 361.03 631.38 361.45 631.69 362.11 631.81 362.29 632.23 362.32 632.84 362.2 633.69 362.69 634.72 362.81 635.32 362.59 636.23 362.18 637.67 361.95 639.93 362.43 642.72 359.82 643.84 360.08 645.52 360.9 647.02 361.98 649.51 360.72 650.57 360.48 651.39 361.2 652.39 362.25 653.26 363.19 654.37 363.19 655.59 363.71 656.63 364.43 657.65 364.7 658.6 364.97 660.65 364.68 661.2 364.67 662.09 364.73 663.39 365.72 664.28 365.33 666.1 365.69 668.11 366.23 669.24 366.22 670.83 365.88 674.63 366.16 676.76 366.87 678.26 366.77 680.58 366.2 683.25 366.18 685.44 365.46 688.02 364.75 691.81 365.93 698.98 366.83 701.99 366.45 704.67 364.56 706.34 363.95 710.32 362.28 713.6 361.05 715.03 359.72 717.42 359.05 718.45 357.53 719.39 356.33 720.78 354.09 723.93 353.56 724.36 354.47 725.48 357.34 725.86 358.67 726.31 360.22 727.29 360.97 728.87 361.3 735.21 364.27 735.6 366.66 736.5 369.87 739.45 373.52 739.69 374.71 741.27 374.87 743.84 375.26 744.97 377.08 745.59 377.45 747.63 378.75 748.86 378.35 749 376.67 749.26 375.4 749.8 374.63 751.22 371.81 752.3 368.97 754.3 367.21 755.37 367.18 756.16 368.76 756.67 371.16 756.69 372.51 757.29 375.35 756.09 377.7 756.05 379.83 756.65 382.04 756.59 383.25 756.91 384.46 756.76 388.29 758.01 390.84 759.18 392.64 761.32 394.91 762.44 395.98 764.09 397.21 765.01 399.79 766.09 400.89 767.85 401.82 768.68 401.88 770.53 402.25 771.94 402.57 773.54 404.1 773.99 405.46 773.44 407.13 774.29 410.67 774.58 415.2 775.39 415.75 776.86 416.94 777.6 417.67 779.6 419.2 782.1 421.35 783.34 422.42 783.56 424.02 783.11 426.19 783.28 429.86 784.57 435.79 784.39 436.75 785.02 438.98 784.86 440 784.52 442 783.82 444.62 785.51 446.93 786.22 447.86 787.62 449.16 787.97 451.68 787.92 453.8 787.8 454.2 787.04 455.14 786.6 456.17 785.99 457.63 785.99 458.7 789.45 461.04 790.65 462.13 790.55 463.36 790.19 464.28 789.84 465.57 789.04 468.09 789.7 469.53 791.24 471.04 793.25 473.55 792.69 477.43 794.79 480.37 795.74 481.56 796.94 482.7 796.69 486 796.83 487.22 796.74 487.99 796.73 489.16 797.39 489.96 797.96 490.15 798.05 491.41 797.95 492.19 798.21 493.33 798.68 493.97 797.17 495.47 797.17 496.73 797.8 496.91 798.12 497.36 799 497.65 798.92 498.1 798.02 499.67 797.42 500.87 797.45 501.7 797.67 503.84 797.33 504.79 797.48 506.04 797.42 507.23 797.11 508.11 797.32 509.41 796.72 510.53 795.76 513.54 795.19 515.14 794.15 517.27 793.22 519.35 792.81 520.22 792.17 520.95 789.63 523.02 789.47 524.31 789.86 527.73 788.95 531.14 787.95 533.59 787.26 535.49 787.5 537.02 787.23 538.31 786.77 540.63 787.03 542.44 786.54 543.58 786.7 545.66 786.05 547.15 785.82 547.79 786.56 549.41 786.11 550.69 779.93 554.31 777.72 555.74 774.99 556.29 773.54 557.27 771.44 558.95 769.55 560.4 767.62 562.85 766.19 564.69 765.25 566.66 764.29 567.4 761.53 571.96 758.39 575.33 758.22 577.18 757.61 578.16 756.32 581.43 755.17 582.92 753.98 585.6 753.95 588.64 752.87 590.6 753.11 591.66 753.47 592.79 753.41 595.08 753.72 597.57 753.19 599.87 751.8 601.51 751.39 603.12 750.15 605.72 748.78 608.79 748.34 610.5 748.34 612.47 747.81 613.77 746.68 616.36 745.49 619.42 743.37 620.58 741.42 623.85 741.15 625.62 739.79 628.93 739.44 630.74 738.25 633.73 737.67 636.19 737.21 638.7 737.09 640.34 736.78 641.68 735.65 646.28 734.91 648.86 734.48 650.63 734.51 652.33 735.07 652.62 736.19 653.54 736.34 654.26 735.73 655.59 734.77 657.45 733.79 660.07 732.75 661.77 731.88 663.18 730.96 665.13 730.2 666.79 729.41 668.07 728.19 669.52 726.83 670.8 725.46 672.87 724.14 674.18 720.71 675.59 718.39 676.25 716.83 676.58 715.23 676.61 714.01 677.22 713.27 677.34 712.4 677.35 711.31 677.16 710.67 677.37 710.06 677.18 708.77 677.03 707.39 676.95 706.01 677.23 704.8 678.38 703.19 678.09 702.72 678.51 699.6 678.86 697.19 678.48 694.24 678.24 693.17 681.06 687.54 682.56 685.27 683.7 681.87 684.73 675.74 685.41 672.87 687.15 669.32 687.44 667.51 689.29 666.65 690 663.01 690.95 660.38 690.52 658.89 691.24 657.63 692.47 655.88 692.4 653.5 693.05 649.16 692.93 648.16 693.69 646.47 695.23 644.98 695.15 643.88 696.35 642.95 697.92 642.25 699.07 641.24 699.37 638.15 698.9 637.23 698.58 635.64 698.2 634.52 698.46 631.73 698.64 631.22 699.28 630.27 699.54 628.72 698.87 627.45 698.87 625.92 699.23 623.2 700.68 622.16 701.32 620.83 702.62 620.16 703.27 617.65 702.97 613.52 702.13 610.17 701.46 607.85 701.4 604.96 701.02 602.73 698.98 600.96 698.22 598.11 695.93 597.26 695.54 595.92 696.19 594.26 696.06 592.16 695.55 591.6 694.36 590.91 693.55 589.66 693.35 587.9 693.6 587.29 694.07 586.2 694.22 585.37 693.5 582.7 692.68 581.26 693.18 580.35 693.79 579.62 694.05 577.73 694.95 575.96 694.94 574.03 693.99 573.37 693.17 572.59 692.61 572.06 692.54 571.2 693.51 570.27 693.71 569.47 694.09 567.98 694.12 567.02 694.49 566.33 694.54 565.5 693.99 564.41 693.83 562.65 694.3 561.5 693.85 560.55 693.32 559.17 693.26 557.67 693.7 555.45 693.22 554.25 693.21 552.97 693.72 549.65 692.54 548.05 692.81 546.82 692.4 544.61 691.84 542.66 692.64 541.66 692.68 540.52 692.35 539.23 692.16 537.88 692.82 536.84 694.46 536.51 694.97 536.01 695.13 534.76 694.64 530.78 694.69 529.8 694.62 528.32 694.62 526.62 694.62 524.95 694.59 524.12 695.71 521.92 695.66 521.24 695.21 519.16 694.86 517.16 694.92 515.72 694.06 514.42 693.54 512.35 693.54 510.11 693.9 508.24 694.07 507.34 694.64 506.53 695.33 503.73 695.66 500.83 696.42 498.07 696.65 496.36 696.84 494.37 697.4 493.54 698.6 491.07 697.4 489.36 696.65 485.85 695.92 483.99 695.1 481.19 695.47 477.87 694.93 476.35 693.67 473.71 693.43 471.51 692.94 470.07 692.8 468.91 693.47 466.49 694.22 465.38 694.72 463.53 694.5 462.17 694.84 458.72 693.81 457.89 693.8 455.77 696.44 454.04 698.57 452.72 700.77 449.48 701.4 446.74 701.42 445.94 702.5 444.36 704.35 444.17 705.53 443.93 707.78 442.88 709.58 440.95 710.29 440.02 711.96 437.76 713.87 436.47 715.87 434.41 718.16 433.46 719.79 432.67 721.84 431.9 724.63 431.07 727.95 430.43 730.09 429.94 731.29 429.32 732.31 428.5 732.41 427.55 733.26 427.22 734.59 426.28 735.62 425.32 735.86 424.63 736.33 424.66 738.01 425.63 738.49 426.23 738.67 425.82 739.56 425.07 740.8 424.42 741.97 421.77 744.61 421.19 746.63 420.62 750.18 420.3 751 420.29 753.22 419.83 754.43 419.33 756.16 418.93 756.94 417.53 759.29 416.46 761.72 416.11 764.16 414.46 767.3 413.27 769.84 412.43 771.57 411.33 772.83 410.69 775.47 408.6 777.94 407.33 779.67 405.54 780.47 404.25 782.62 403.1 784.65 400.76 785.33 399.64 786.74 398.54 787.77 396.19 788.25 394.33 789.67 392.89 791.86 390.07 794.05 388.65 795.61 387.58 797.67 386.59 798.88 385.28 800.31 383.27 802.31 380.66 804.64 377.25 807.69 373.82 810.42 371.04 813.94 369.52 817.04 367.7 820.73 365.69 822.96 363.22 824.33 360.12 826.08 357.46 827.6 355.37 827.24 353.64 828.11 350.67 828.05 349.32 829.35 347.45 831.66 345.85 831.29 344.19 831.09 341.91 831.91 340.32 834.11 337.97 835.32 336.52 836.81 335.61 838.34 333.58 839.81 331.96 840.84 330.66 841.9 329.03 842.49 327.48 842.43 324.15 842.8 322.08 842.56 320.87 841.77 317.53 841.58 316.1 840.71 314.22 841.08 309.96 843.69 307.37 846.52 305.51 848.61 303.67 851.38 303.02 852.44 303.02 854.74 301.71 858.85 300.85 861.53 297.49 863.84 296.03 864.85 294.53 867.17 293.64 867.82 293.51 870.08 292.59 872.78 293.11 874.68 292.48 875.88 290.84 879.01 289.23 881.71 288.74 884.89 288.86 889.32 290.07 891.7 290.15 895.5 291.56 897.47 292.06 898.87 292.58 900.27 292.67 903.75 291.66 906.25 292.79 908.94 295.63 910.73 297.62 914.38 297.87 915.48 298.83 917.64 300.78 919.42 302.38 921.88 305.08 921.43 307.91 922.21 309.67 923.3 310.47 924.14 311.28 925.99 310.69 927.08 310.09 929.31 309.47 930.1 309.57 930.5 310.75 931.39 311.51 931.55 313.39 931.98 317.51 933.61 317.77 934.07 318.63 934.51 319.96 934.84 321.77 935.79 323.59 936.89 323.73 939.22 323.28 940.47 324.7 942.1 324.96 942.97 325.43 945.67 328.07 948.23 328.07 949.87 331.54 952.65 331.75 955.74 331.49 959.11 334.32 962.7 334.72 964.33 335.32 968.16 334.7 970.54 334.26 972.77 334.84 976.72 336.1 979.47 335.97 981.03 335.39 983.7 334.79 984.91 333.1 986.46 332.11 987.64 331.87 988.49 332.21 990.06 332.35 992.06 332.14 993.12 330.99 994.62 328.54 996.64 328.63 999.64 326.98 1005.95 326.56 1009.2 325.96 1010.31 325.9 1011.22 325.24 1011.8 324.45 1012.16 323.79 1013.44 323.25 1014.17 322.92 1015.02 321.22 1018.91 320.13 1020.92 319.57 1021.39 318.01 1021.16 314.08 1020.05 309.25 1019.76 305.83 1020.42 301.54 1021.49 300.32 1022.11 296.7 1024.65 296.01 1025.21 295.16 1026.42 291.21 1026.96 289.1 1029.56 288.12 1030.86 285.64 1034.11 283.35 1034.68 279.7 1036.23 278.32 1037.88 276.63 1039.46 270.91 1041.15 269.42 1041.14 264.98 1043.4 263.74 1044.98 259.59 1046.02 257.18 1047.09 251.96 1048.6 248.23 1051.48 243.52 1054.04 240.96 1054.58 238.96 1055.1 237.25 1055.83 233.6 1057.1 229.61 1058.4 223.47 1062.4 219.29 1062.41 217.46 1063.27 213.78 1065.28 208.06 1066.93 205.84 1068.38 202.81 1071.39 201.84 1071.89 199.51 1075.13 195.1 1075.96 193.29 1076.41 190.69 1076.24 188.06 1076.72 184.93 1078.74 184.61 1080.42 182.86 1081 180.88 1080.94 177.43 1082.01 174.45 1083.41 173.46 1084.22 171.16 1086.14 169.07 1087.16 167.57 1089.62 165.8 1091.66 164.11 1094.7 162.69 1096.18 161.39 1098.55 159.22 1100.95 158.75 1101.73 156.21 1102.49 155.21 1102.74 151.23 1105.86 148.8 1106.75 147.02 1108.34 146.32 1109.31 144.15 1112.11 143.52 1112.87 139.18 1114.54 135.19 1114.89 133.55 1114.93 130.6 1114.67 128.97 1114.76 126.73 1115.98 125.08 1116.89 124.06 1117.24 121.47 1117.28 119.44 1116.97 115.82 1116.89 112.97 1117.63 107.9 1118.82 105.17 1118.99 102.48 1118.49 99.95 1118.94 96.94 1120.37 95.34 1120.6 90.81 1120.85 87.85 1120.76 85.58 1122.65 80.91 1124.45 79.31 1124.95 77.72 1125.33 73.88 1125.48 72.34 1125.46 71.56 1125.44 70.91 1125.28 68.76 1125.61 65.9 1127 63.32 1126.71 61.48 1126.34 61.27 1123.23 64.13 1120.64 66.5 1117.2 66.97 1115.91 69.47 1113.59 70.18 1111.19 69.56 1108.34 71.78 1104.54 72.36 1102.97 72.14 1101.56 72.58 1097.48 74.22 1092.68 73.91 1091.33 73.56 1087.3 74 1085.97 73.29 1084.2 72.32 1083 72.32 1082.17 70.32 1080.52 70.27 1078.52 68.51 1076.97 67.15 1076.25 64.13 1074.93 62.8 1074.2 60.17 1072.19 58.52 1069.55 55.19 1069.33 52.02 1069.56 50.1 1070.54 47 1072.79 45.26 1073.74 42.43 1074.08 41.75 1073.88 40.55 1073.44 38.8 1073.15 38.11 1071.76 37.24 1070.76 37.51 1070.06 38.26 1068.34 37.78 1066.58 38.01 1065.06 38.21 1063.72 36.88 1060.75 37.44 1058.87 38.22 1056.09 38.05 1053.45 38.22 1051.8 38.95 1049.01 39.69 1047.16 40.11 1045.7 41.62 1043.09 42.59 1042.34 44.87 1038.61 46.4 1035.92 46.11 1033.59 45.68 1032.23 44.84 1030.4 43.8 1028.84 42.2 1028.74 40.05 1027.7 37.38 1027.83 36.91 1027.27 35.57 1025.74 35.22 1024.32 30.55 1023.96 29.63 1023.25 29.26 1022.3 26.93 1016.64 27.42 1014.51 27.84 1013.29 28.71 1011.06 28.51 1007.99 29.52 1005 29.92 1003.89 29.43 999.63 27.9 998.88 24.96 996.41 22.85 995.67 22.4 994.57 20.31 993.93 18.48 993.64 11.67 992.44 8.5 992.52 6.35 992.81 3.95 992.41 3.48 992.19 3.78 991.54 3.65 990.9 3.75 990.26 3.33 989.57 3.05 988.92 3.41 987.77 3.34 987.05 3.38 986.22 4.56 984.71 4.74 984.1 4.32 983.46 4.48 982.4 4.31 982.06 2.45 979.34 2.29 978.12 2.07 977.11 1.15 976.67 1 975.96 1.85 975.07 2.68 975.07 2.84 974.04 3.31 973.49 4.86 972.54 6.27 972.24 6.94 971.48 7.7 970.62 8.57 969.95 9.55 969.72 10.2 968.41 10.33 967.96 9.88 966.61 9.88 965.77 10.34 965.25 9.93 964.53 10.04 964.08 9.84 963.59 9 962.65 9.27 961.98 9.93 960.77 10.81 960.27 10.92 959.2 11.39 958.21 12.13 957.35 12.2 956.2 12.33 955.26 13.4 954.54 13.94 954.02 14.13 953.28 14.86 952.1 15.91 951.44 15.7 950.49 15.71 949.82 16.82 948.45 17.16 945.64 17.2 943.31 17.03 941.51 18.56 940.34 18.43 938.1 19.41 936.87 20.66 934.84 21.18 933.99 22.62 932.04 22.79 931.25 23.07 929.77 23.32 927.96 24.79 925.06 25.16 924.16 25.94 923.26 25.66 921.89 25.9 919.85 25.77 918.7 26.1 917.96 Z"/>
</g>
</svg>