<?xml version="1.0"?>
<svg xmlns="http://www.w3.org/2000/svg" version="1.2" baseProfile="tiny" fill="#f9c113" width="800" height="902" viewBox="0 0 800 902" stroke-linecap="round" stroke-linejoin="round">
<g fill="#c0392b" id="id_22">
<path d="M 5.6 435.03 9.08 429.99 13.43 425.67 12.56 418.48 9.08 415.6 3.86 408.4 4.73 397.61 9.08 391.85 20.4 381.78 15.18 370.27 28 356.99 50.31 347.77 57.09 330.91 55.44 308.06 43.06 291.51 25.01 300.89 17.32 308.43 6.12 298.66 1 290.23 9.75 275.73 35.06 250.59 42.94 251.7 61.54 262.34 83.07 262.97 97.49 249.81 110.58 248.62 126.43 240.59 138.96 195.12 134.55 159.19 139.12 143.82 139.16 87.24 119.13 70.34 108.96 67.9 118.42 48.83 122.29 36.85 138.61 25.55 158.67 22.39 201.08 18.69 229.5 4.74 242.75 1 261.55 6.63 303.92 12.27 310.86 2.93 330.96 7.11 355.64 44.85 359.34 69.75 365.73 72.67 365.02 84.33 386.7 103.4 410.19 112.85 434.47 139.72 434.94 157.14 434.94 157.26 446.93 160.29 467.03 186.06 474.99 181.49 482.84 198.78 485.99 197.29 489.97 215.25 526.55 215.25 545.43 208.04 582.36 207.33 614.17 187.52 631.16 186.93 652.68 201.7 671.25 200.75 679.8 192.28 743.54 194.21 750.12 200.79 692.02 266.2 694.31 286.76 713.78 306.62 736.01 292.99 750.99 293.07 774.88 327.98 783.39 327.5 783.08 354.77 799 385.03 796 435.61 762.89 451.06 772.35 487.46 788.12 537.27 764.16 554.92 764.16 575.09 751.54 604.72 757.22 640.65 750.28 672.8 763.52 727.01 757.22 788.79 750.28 849.31 702.98 860.66 675.86 849.31 643.07 846.16 635.5 852.46 608.38 843.63 564.23 875.15 561.08 901 501.16 900.37 508.73 875.78 540.27 846.79 532.07 794.46 506.21 728.27 506.84 704.32 540.9 702.43 545.31 694.23 519.45 673.43 512.52 662.08 518.82 646.95 516.3 610.39 500.53 593.37 475.31 590.22 452.6 615.43 440.62 614.8 425.48 607.24 363.68 607.24 357.37 617.96 334.04 628.04 322.05 627.41 303.76 643.17 294.93 643.17 274.12 621.11 272.86 588.96 253.94 566.89 251.42 556.81 255.83 549.87 293.67 532.85 325.84 526.55 378.18 522.77 398.99 500.7 397.73 470.44 393.95 446.49 379.44 433.88 356.11 419.38 344.77 423.79 342.43 431.4 316.57 454.88 294.18 489.24 275.42 509.25 263.28 508.15 249.56 496.33 223.55 496.01 195.48 521.39 195.17 585.06 186.65 600.82 168.05 615.63 146.61 629.18 142.19 629.18 134.94 624.14 111.29 606.49 90.48 571.66 88.58 557.79 98.05 546.76 95.84 526.75 104.04 511.77 103.56 477.57 83.56 453.96 83.42 454.13 64.58 454.68 55.44 460.99 22.32 460.36 14.05 454.76 6.79 454.61 3.86 442.95 5.6 435.03 Z"/>
</g>
</svg>