<?xml version="1.0"?>
<svg xmlns="http://www.w3.org/2000/svg" version="1.2" baseProfile="tiny" fill="#f9c113" width="800" height="991" viewBox="0 0 800 991" stroke-linecap="round" stroke-linejoin="round">
<g fill="#c0392b" id="id_219">
<path d="M 205.87 222.98 191.45 184.04 172.53 164.75 144.63 133.86 127.3 118.96 116.12 109.03 130.8 91.36 140.45 82.99 147.57 80.36 159.55 79.86 168.54 78.5 175 78.59 181.28 76.81 196.07 69.53 211.99 63.52 246.45 54.89 259.69 67.42 274.86 77.49 283.1 82.23 289.75 83.42 295.37 84.43 302.77 86.21 311.94 84.09 333.95 75.88 355.86 68.27 351.93 58.88 351.37 55.41 363.54 57.18 371.87 57.1 375.24 59.81 390.98 53.46 418.13 41.28 431.24 34.42 437.52 26.64 444.07 17.25 453.34 7.85 482.09 1 490.14 20.97 502.41 36.37 497.54 40.43 487.71 50.75 492.48 54.14 501.66 64.04 503.25 70.98 501.57 81.38 497.63 92.64 490.89 109.9 487.43 120.88 486.19 127.71 486.29 135.07 486.66 146.92 487.04 157.67 497.34 189.66 508.76 235.2 516.81 257.97 540.79 315.95 563.07 368.53 578.05 420.26 589.76 447.11 600.53 462.43 635.83 504.52 662.24 535.1 681.67 554.35 684.01 565.79 683.26 589.59 678.77 634.74 678.48 638.97 682.14 651.68 691.97 649.39 698.15 650.41 716.32 634.48 739.26 606.11 735.61 597.81 757.99 589.34 776.06 640.24 788.98 686.67 799 714.96 784.95 719.45 756.49 732.5 748.25 748.18 732.8 772.15 727.27 789.95 732.42 802.83 742.35 814.78 750.03 825.54 751.81 836.39 752.84 850.28 749.65 869.52 720.9 875.96 697.87 893.33 672.77 921.56 666.76 946.37 618.25 953.49 614.22 947.98 589.78 953.66 557.85 958.92 532.1 948.83 513.75 946.2 496.7 945.95 497.55 905.94 493.89 886.7 456.72 895.52 417.95 916.62 393.53 946.4 360.19 943.86 329.57 949.71 299.89 969.2 286.87 990 239.42 966.58 160.71 945.06 136.04 938.37 91.99 933.94 47.75 921.83 3.7 892.36 1 805.31 59.43 738.79 107.08 689.54 180.19 608.83 210.86 572.24 228.43 535.47 243.84 503.99 246.74 483.94 254.23 461.27 261.92 428.84 261.02 417.19 263.93 400.25 261.3 369.86 246.42 321.01 223.19 262.26 205.87 222.98 Z"/>
</g>
</svg>