<?xml version="1.0"?>
<svg xmlns="http://www.w3.org/2000/svg" version="1.2" baseProfile="tiny" fill="#f9c113" width="800" height="952" viewBox="0 0 800 952" stroke-linecap="round" stroke-linejoin="round">
<g fill="#c0392b" id="id_218">
<path d="M 481.66 166.68 485.97 170.27 502.35 183.44 538.01 215.36 567.53 225.75 592.93 228.52 614.17 231.01 629.63 232.14 638.84 227.39 647.43 227.39 655.6 230.03 660.76 233.27 661.22 244.04 666.38 262.98 667.98 275.85 674.43 300.07 680 316.58 693.9 339.85 702.64 364.83 698.17 381.95 700.15 396.86 707.22 412.01 709.57 430.4 698.69 440.23 688.38 440.89 679.06 439.1 665.74 429.65 660.79 420.66 655.85 415.92 621.59 404.59 626.54 412.35 627.74 429.71 631.12 439.16 632.47 455.25 631.17 468.19 648.82 484.52 673.84 503.39 682.69 519.67 694.66 536.19 700.02 543.48 719.07 557.18 742.5 575.86 756.97 588.1 763.48 601.23 770.89 604.85 768.81 611.91 777.19 625.94 780 632.2 783.9 640.54 783.8 653.06 784.53 679.82 789.53 699.27 792.34 709.06 799 728.56 786.3 739.11 768.44 734.25 743.09 728.6 718.89 730.35 716.81 741.51 718.26 746.41 717.43 760.3 716.18 766.47 715.87 783.38 717.57 790.76 715.9 799.14 716.68 811.2 719.39 819.92 719.86 835.51 719.91 843.85 723.19 862.51 720.8 868.11 708.98 878.19 699.19 887.81 691.75 880.41 669.05 867.36 661.72 854.03 655.21 839.42 653.44 834 638.03 812.85 622.83 801.64 600.34 793.73 594.3 796.84 590.71 808.33 596.91 813.94 608.98 821.99 610.96 836.92 621.32 857.32 626.84 870.19 636.47 880.13 639.7 889.5 637.82 905.29 626.77 904.03 620.26 909.63 614.43 918.4 609.12 922.92 604.54 922.03 600.43 917.22 597.46 912.89 591.48 898.75 580.39 890.98 550.3 900.59 535.99 910.72 514.28 927.31 494.71 935.36 474.15 949.45 464.52 949.78 459.28 951 456.38 950.34 434.19 945.3 408.94 933.7 403.11 925.69 370.89 915.89 350.07 903.17 348.93 905.85 342.58 902.79 338.67 883.8 330.65 879.23 334 865.44 347.95 849.75 360.76 840.09 376.74 836.51 378.51 825.82 377.93 818.09 376.94 812.06 372.68 806.08 367.16 799.44 364.3 792.28 367.37 782.39 375.96 769.06 380.54 760.35 396.36 753.09 404.17 750.6 398.6 734.87 391.42 709.06 381.37 680.76 368.93 685.47 370.96 690.08 358.2 705.86 348.11 714.71 344.67 714.15 339.2 715.42 337.17 708.35 337.33 706 339.83 680.9 340.25 667.67 338.94 661.32 328.14 650.61 313.46 633.62 293.84 610.22 287.85 601.7 281.35 586.78 273.02 558.02 260.63 528.79 247.3 496.56 242.83 483.9 236.48 458.59 230.75 440.8 230.54 434.83 230.33 428.24 230.28 424.15 230.97 420.36 290.36 436.63 296.24 432.3 293.17 425.06 284.95 404.17 277.55 392.13 264.44 379.48 255.64 370.49 249.08 360.81 246.25 350.68 244.69 344.37 251.51 331.49 256.35 321.66 255.83 317.8 248.75 299.46 245.58 293.77 236.88 294.1 237.77 285.36 214.45 275.58 224.13 264.48 220.75 262.6 213.98 262.65 212.78 268.95 198.57 266.08 196.07 257.8 188.01 252.07 185.95 259.71 181.78 279.31 172.72 277.53 167.73 273.63 161.95 279.88 157.89 284.91 150.45 292.25 157.06 296.05 163.3 297.18 166.69 297.14 166.63 300.71 165.02 302.54 161.95 301.65 156.43 297.61 142.32 288.77 117.65 271.32 97.66 256.93 86.31 249.08 79.29 244.47 71.84 242.92 61.07 241.42 60.44 245.18 66.43 247.48 73.56 249.74 84.6 255.01 106.93 269.86 128.89 285.29 144.04 295.87 141.54 298.45 136.96 301.09 134.15 301.84 131.24 303.77 130.09 305.69 130.04 309.27 127.72 312.04 121.37 317.03 119.7 314.96 109.24 323.61 102.11 333.16 100.81 337.11 96.28 336.55 100.18 352.21 92.38 350.7 92.01 352.16 90.55 353.24 86.02 365.19 88 370.08 92.79 378.97 97.01 383.67 77.85 388.47 69 391.81 60.78 395.86 57.29 396.84 53.7 396.8 48.7 397.55 42.04 397.83 38.08 399.29 32.72 403.95 24.56 413.77 19.01 408.84 14.53 406.02 7.19 401.79 3.86 395.58 1 382.74 1.94 371.03 4.38 352.17 10.79 335.09 18.59 320.09 24.27 296.44 26.77 288.59 28.59 278.95 27.91 261.31 27.34 244.72 33.64 233.34 36.34 218.3 30.05 200.15 17.87 178.53 10.73 162.92 8.7 143.7 12.09 130.26 19.74 118.42 29.63 107.33 48.27 99.34 64.66 91.3 81.37 88.39 96.57 81.25 104.85 71.38 118.75 52.26 125.05 33.46 130.67 11.9 133.95 6.31 137.38 2.6 142.59 1 150.76 1.52 167.11 12.98 170.18 17.11 174.71 20.54 187.1 25.19 210.99 28.72 215.93 27.21 220.37 24.03 221.29 23.36 228.22 13.73 231.91 7.11 236.23 8.38 255.55 17.63 263.56 18.95 267.36 17.68 267.99 12.98 270.69 7.72 280.12 5.65 291.57 16.97 293.13 26.18 291.41 42.15 299.01 48.5 320.98 67.34 344.3 79.84 353.15 82.7 365.6 99.41 386.16 110.54 401.1 109.84 411.2 113.79 425.46 118.58 434.31 122.48 442.28 130.52 446.22 139.26 450.82 144.51 460.06 150.7 465.8 156.05 472.24 161.53 481.66 166.68 Z"/>
</g>
</svg>