<?xml version="1.0"?>
<svg xmlns="http://www.w3.org/2000/svg" version="1.2" baseProfile="tiny" fill="#f9c113" width="800" height="663" viewBox="0 0 800 663" stroke-linecap="round" stroke-linejoin="round">
<g fill="#c0392b" id="id_25">
<path d="M 378.92 33.64 380.69 29.01 389.83 19.03 398.37 15.62 404.89 6.79 409.16 2.41 409.17 1.89 409.67 2.13 418.42 1 430.21 7.82 442 8.8 470.3 28.28 481.5 28.28 499.37 40.33 494.67 44.82 495.21 64.05 500.55 68.32 510.8 68.53 523.61 82.95 519.76 88.08 519.34 92.46 528.73 102.71 533.85 107.41 534.28 124.93 541.54 129.42 546.03 134.12 557.13 139.46 570.79 139.25 576.35 144.59 632.5 143.73 654.07 178.34 676.48 194.15 691.71 238.59 692.45 238.57 712.14 286.87 728.69 338.03 767.76 391.52 763.97 396.58 765.68 410.24 779.77 423.49 798.99 428.63 799 437.41 795.58 438.96 774.45 443.24 744.13 448.58 715.73 453.28 683.49 458.19 671.1 463.96 671.1 483.4 646.33 526.55 613.03 575.48 587.4 622.69 557.51 661.36 540.86 662 538.72 648.33 529.11 635.08 486.62 639.78 460.36 640.21 446.91 629.31 444.35 600.9 403.99 576.76 380.29 550.91 383.92 542.15 367.69 523.99 367.6 524.04 360.77 520.84 324.9 521.16 295.54 530.77 276.11 547.87 262.45 547.12 225.74 534.48 243.49 533.92 253.75 533.92 261.82 527.02 262.34 515.76 261.76 507.65 258.38 497.86 254.68 493.29 240.42 480.79 219.49 473.02 208.87 466.77 187.68 460.56 170.04 450.65 157.33 446.25 150.57 443.02 142.65 441.38 131.25 439.83 123.55 436.07 114.07 430.77 102.36 430.51 84.71 434.01 80.08 432.28 75.55 427.67 64.88 423.79 46.08 413.61 37.39 402.15 27.65 398.92 1 390.81 52.13 373.43 52.65 366.13 52.67 365.85 37.03 340.93 36.24 335.99 20.53 295.35 31.53 279.54 31.35 279.46 37.58 265.7 48.79 252.04 41.71 248.14 55.86 242.77 72.37 232.53 80.62 223.75 65.88 220.34 59.99 211.56 53.5 206.2 52.91 191.57 67.06 197.91 88.35 186.99 149.07 185.22 149.2 185.29 135.11 161.36 133.62 155.16 139.81 149.02 155.05 149.25 185.07 149.82 189.98 153.67 198.31 153.56 206.64 153.45 244.86 123.54 288.63 102.61 308.06 85.94 326 64.15 342.22 50.91 357.6 44.5 357.56 44.47 378.92 33.64 Z"/>
</g>
</svg>