<?xml version="1.0"?>
<svg xmlns="http://www.w3.org/2000/svg" version="1.2" baseProfile="tiny" fill="#f9c113" width="800" height="649" viewBox="0 0 800 649" stroke-linecap="round" stroke-linejoin="round">
<g fill="#c0392b" id="id_244">
<path d="M 439.11 457.64 430.81 454.22 408.9 435.74 336.4 447.37 328.09 456.96 331.11 472.02 332.62 493.24 325.83 504.2 342.44 561.37 331.11 572.33 303.17 590.81 285.04 608.62 305.43 612.73 320.54 598.35 334.13 614.78 275.04 648 274.67 642.41 255.89 619.04 248.34 614.78 244.57 606.44 247.61 602.85 244.94 589.83 246.23 566.38 244.48 558.37 246.69 543.93 245.95 524.15 250.37 518.98 243.1 501.29 237.85 502.45 228.83 499.03 217.69 499.12 216.77 491.94 207.11 491.11 207.29 480.76 201.31 481.93 198.91 488.1 184.92 494.95 185.38 506.63 179.95 510.47 174.43 517.56 179.95 525.65 173.69 538.42 155.93 539.92 123.68 539.08 116.43 529.16 104.26 510.62 96.09 496.35 75.13 458.73 69.2 448.72 55.61 431.21 35.16 403.69 1 359.94 5.72 356.32 43.59 311.28 112.73 272.71 151.68 243.17 190.65 174.24 237.89 104.7 272.58 54.13 337.51 9.82 347.07 1 385.31 32.21 424.66 52.86 451.24 54.34 485.08 51.28 499.08 60.17 512.37 69.34 525.26 71.64 538.23 73.97 559.34 73.58 582.96 115.06 605.25 166.75 631.94 200.65 649.52 220.65 677.32 243.44 685.7 251.03 698.48 267.43 721.36 287.99 731.38 295.59 736.8 302.91 749.27 312.82 761.38 336.65 783.16 372.31 794.2 392.6 797.36 401.03 799 416.04 794.4 420.03 784.48 428.18 774.77 426.14 678.07 432.26 677.51 432.34 665.91 434.11 630.23 435.13 582.35 438 555.94 439.58 513.11 441.71 494.09 443.01 467.8 452.64 460.97 455.15 450.65 458.58 439.11 457.64 Z"/>
</g>
</svg>