<?xml version="1.0"?>
<svg xmlns="http://www.w3.org/2000/svg" version="1.2" baseProfile="tiny" fill="#f9c113" width="800" height="560" viewBox="0 0 800 560" stroke-linecap="round" stroke-linejoin="round">
<g fill="#c0392b" id="id_203">
<path d="M 320.01 484.89 317.26 485.14 313.46 486.59 310.58 488.04 308.24 488.38 305.82 486.24 303.74 481.71 301.1 476.86 297.59 474.02 293.51 468.37 288.98 465.53 286.33 462.98 281.56 458.51 280.51 455.48 279.59 452.7 278.73 450.11 277.93 446.62 277.99 442.15 276.95 437.79 274.46 435.72 272.35 433.22 269.41 430.81 268.01 428.45 268.01 427.06 267.97 425.04 266.47 422.01 264.81 421.59 261.99 421.8 256.74 422.8 251.79 424.35 247.47 427.12 245.72 427.97 242.9 430.45 238.23 432.67 234.65 433.58 233.07 432.17 231.01 423.23 227.51 413.78 225.55 406.42 221.88 403.14 216.45 394.53 211.82 389.96 205.5 384.22 200.71 381.62 174.95 378.91 158.43 374.41 140.44 369.69 115.73 363.08 90.63 357.43 84.05 356.84 69.72 356.07 63.4 355.82 59.67 355.1 54.67 354.1 50.14 353.34 44.96 353.34 41.88 353.12 38.77 352.67 33.7 351.59 30.96 351.29 25.71 351.29 25.27 348.32 25 347.69 23.83 347.32 22.06 346.65 17.57 345.47 14.27 344.23 11.74 343.62 10.09 342.75 6.98 341.32 4.42 340.04 3.21 338.55 2.55 336.45 2.49 333.73 2.43 330.72 2.31 328.34 1.59 327.04 1.21 325.61 1 323.91 1.2 321.69 1.81 319.61 1.71 317.36 2.08 315.16 2.42 311.7 2.93 310.39 4.05 309.06 4.49 307.45 5.35 305.4 6.12 303.78 6.72 302 7.25 300.76 7.78 298.33 9.17 295.05 9.6 294.04 10.3 292.67 10.37 291.61 10.19 290.54 11.02 288.97 12.97 284.76 14.5 281.35 14.66 280.34 13.81 278.95 12.1 277.67 9.98 276.18 8.12 272.3 7.95 271.47 8.01 269.52 8.14 266.94 8.57 266.43 8.49 265.24 8.83 264.9 9.36 263.8 10.15 260.57 11.13 257.6 11.95 255.18 11.9 253.28 12.09 251.56 12.53 248.53 12.87 245.14 15.57 241.77 16.88 240.04 20.19 237.52 21.07 235.55 23.07 233.25 24.04 230.92 25.35 228.37 25.58 227.91 26.67 225.97 28.36 223.14 29.15 220.84 30.77 218.17 32.94 214.7 33.3 213.44 33.44 211.52 33.84 209.75 34.09 208.6 36.23 204.89 37.11 203.59 38.32 203.1 40.91 202.97 42.11 202.72 43.54 201.62 46.63 200.57 48.89 199.49 50.89 198.07 54.54 192.97 56.67 190.75 57.59 189.93 59.29 187.9 62.56 184.48 64.21 181.41 65.68 173.97 65.85 168.86 65.91 167.24 66.05 165.25 66.31 163.28 66.04 160.77 64.71 158.42 64.91 154.9 64.63 153.14 63.95 151.48 63.17 149.54 61.79 145.99 61.62 145.42 60.09 143.34 57.53 141.25 56.57 140.78 54.91 139.25 54.39 137.47 51.7 135.81 50.81 135.25 48.06 134.14 43.75 132.65 47.38 127.75 49.6 123.83 53.98 120.64 58.51 119.18 60.75 118.4 62.99 117.63 66.1 115.26 68.55 113.05 69.23 112.43 72.05 110.09 74.36 109.05 76.34 107.88 80.01 101.05 85.02 92.02 87.51 86 92.78 87.27 95.74 88.58 98.66 90.5 102.81 91.91 107.36 94.96 108.61 98.09 111.8 102.11 113.56 106.53 116.62 110.22 119.41 112.52 122.3 115.62 126.09 116.48 128.98 116.22 131.14 115.82 135.37 115.53 139.22 114.88 144.86 113.93 146.9 113.93 150.39 114.73 152.47 116.46 155.34 116.84 157.33 116.76 166.65 117.56 168.34 117.26 169.01 112.58 169.21 109.26 168.58 104.78 167.45 102.73 164.57 100.3 162.44 98.62 162.44 97.84 162.43 95.72 162.65 95.05 165.19 95.44 167.53 95.66 169.93 96.05 174.55 97.03 176.66 96.36 176.87 94.05 177.21 92.78 177.3 87.57 174.55 86.36 165.89 84.18 165.1 82.91 161.91 80.68 160.93 78.92 161.54 77.97 161.86 75.06 163.4 70.8 166.31 69.24 167.76 68.76 168.3 67.84 169.13 67.05 172.36 65.42 173.15 64.62 175.94 61.23 177.35 59.74 179.71 59.74 181.35 59.13 183.64 58.48 185.99 58.21 186.78 57.57 185.81 55.5 185.71 54.56 185.86 52.84 187.22 52 188.82 51.39 189.09 50.52 192.49 48.82 195.67 47.15 197.46 46.7 200.54 44.85 201.49 42 202.01 40.98 202.57 38.66 209.9 32.96 215 29.75 216.06 28.71 218.37 26.1 220.93 23.45 222.62 20.46 225.43 16.95 226.39 13.49 228.73 10.09 230.49 4.67 230.68 2.82 231.09 1 232.39 1.56 237.74 8.74 240.11 10.65 242.23 11.46 243.21 11.56 244.21 14.26 244.66 15.08 245.16 16.11 245.99 17.32 246.66 18.46 246.02 19.35 244.04 21.2 242.84 23.24 241.41 25.47 239.24 27.18 237.43 29.88 235.77 32.63 234.6 34.61 232.95 37.71 228.9 45.15 228.63 47.65 227.12 56.04 226.98 59.11 227.26 62.48 228.08 65.59 227.85 67.56 230.3 71.52 233.02 73.82 237.63 77.6 238.86 78.34 240.41 79.09 241.29 79.87 242.57 81.68 243.58 82.23 251.38 87.91 255.24 89.83 258.03 91.27 259.94 92.73 264.8 94.91 270.42 97.32 271.45 98.08 274.45 98.92 282.76 101.16 287.22 100.99 291.92 101.61 295.46 102.96 297.71 105.5 298.85 105.91 300.06 105.29 302.56 106.07 306.8 107.12 310.91 107.51 312.78 108.26 315.84 109.59 319.82 109.17 322.6 108.4 324.86 107.21 327.62 106.98 332.08 107.37 334.26 106.72 337.21 105.46 342.66 106.09 343.31 105.59 349.64 105.17 351.74 105.59 354.63 108.76 355.15 110.74 355.44 111.48 357.09 112.08 360.31 114.17 364.1 116.13 368.61 118.45 371.75 119.84 375.49 119.32 380.08 118.22 387.16 116.72 398.91 116.64 408.86 119.28 417 122.15 427.09 127 434.66 129.66 440.51 131.59 456.21 147.02 461.79 150.55 478.53 154.2 485.16 156.57 491.34 161.23 502.33 159.47 507.86 159.12 521.31 163.48 525.64 165.66 523.46 170.79 522.17 173.82 521.92 174.42 519.74 179.52 519.14 180.94 518.79 181.76 518.57 182.27 517.15 185.59 516.67 186.74 515.9 188.54 514.91 190.86 514.94 191.39 515.08 194.22 514.82 196.26 514.5 198.86 514.2 201.09 513.83 203.83 513.72 204.82 512.98 211.25 512.39 216.46 512.06 219.47 511.09 227.91 510.95 228.89 510.64 231.56 510.27 234.76 510.21 235.31 510.11 236.12 509.42 242.04 509.15 244.33 509.1 244.68 508.54 249.16 508.28 251.29 507.95 252.68 507.64 253.98 507.19 255.84 506.59 258.38 506.15 260.03 505.74 261.55 505.36 262.97 504.38 266.82 503.61 270.75 503.47 271.44 503.06 273.54 502.95 274.65 502.78 276.47 502.7 277.21 502.67 277.52 503.27 279.73 503.33 280.09 503.44 280.4 503.65 280.86 506.56 287.42 508.97 292.87 509.99 295.17 513.61 303.44 517.87 305.17 520.93 306.48 523.26 307.46 527.45 309.24 531.49 310.96 534.62 312.29 537.18 313.38 541.03 315.02 543.48 316.06 545.77 317.03 546.65 317.41 558.61 322.51 568.64 326.79 580.03 331.65 590.21 335.99 591.63 336.57 592.42 336.89 594.48 337.64 596.88 338.53 602.14 341 603.32 341.54 604.59 342.17 605.71 343.05 616.55 351.56 622.44 356.35 627.77 360.77 629.68 362.36 632.67 364.84 633.34 365.04 634.09 365.26 636.86 366.08 638.81 366.66 640.93 367.29 645.88 368.76 648.76 369.23 653.1 369.93 657.9 370.71 661.8 371.33 669.71 372.63 672.21 373.03 672.51 373.08 677.43 372.79 682.72 372.51 686.71 372.28 688.94 372.16 691.05 372.04 693 371.94 699.17 371.01 702.42 370.55 705.25 370.14 714.21 368.84 718.41 368.22 719.83 368.02 720.5 367.92 722.47 367.63 725.45 367.21 725.7 367.17 726.94 366.95 731.84 366.09 733.18 365.86 737.61 365.08 742.41 364.23 744.43 363.88 746.05 364.3 750.68 365.48 757.31 366.93 765.6 368.72 768.23 369.24 770.29 369.64 775.13 372.63 776.82 374.12 778.99 375.93 784.64 378.68 786.11 379.37 788.28 380.86 789.19 381.45 791.89 383.26 794.32 384.66 795.26 391.47 795.36 392.19 796.06 397.01 796.24 399.78 796.43 402.61 796.51 403.94 797.53 405.74 797.78 407.38 798.25 409.02 798.33 409.86 798.61 412.84 798.66 414.69 798.37 416.94 798.12 418.87 798.08 419.2 796.89 425.2 796.86 425.35 796.78 426.02 796.69 426.87 796.44 429.14 796.13 431.94 795.74 435.8 795.62 437.01 795.46 438.46 795.91 441.21 796.12 442.47 796.52 444.91 796.85 446.82 797.21 448.88 797.48 450.45 797.76 452.08 797.86 452.66 798.67 457.54 799 459.5 798.72 460.94 798.26 463.34 797.8 465.68 797.41 467.6 797.04 469.43 796.73 470.96 796.35 472.85 795.62 475.13 795.26 476.27 794.51 478.59 794.17 479.66 792.23 485.59 792.14 485.87 792.01 486.28 791.77 487 790.95 489.52 789.79 493.05 790.82 496.88 791.37 498.95 791.7 500.11 792.51 503.15 792.79 504.22 792.98 504.93 793.05 505.19 793.25 505.95 794.69 511.39 794.46 512.5 793.8 515.75 793.19 518.69 791.79 525.48 789.94 529.81 786.5 537.67 783.58 544.35 780.87 550.52 780.57 550.98 780.2 551.64 774.43 559 771.67 556.97 768.27 555.82 745.15 551.47 733.46 547.21 723.2 544.58 713.85 542.3 704.27 540.86 696.6 539.1 689.62 538.03 678.91 537.91 669.19 537.85 660.08 537.32 650.85 536.51 642.22 536.14 624.99 535.34 620.25 534.64 603.08 534.3 588.9 534.43 575.86 533.8 560.11 532.6 539.65 530.26 527.33 529.99 505.69 530.71 458.27 527 422.24 524.69 392.57 523.34 380.1 522.52 374.56 522.16 360.62 520.35 356.49 516.47 353.69 514.18 345.99 505.54 341.63 500.06 336.09 494.64 332.04 492.79 329.93 491.42 325.21 488.01 321.03 485.26 320.01 484.89 Z"/>
</g>
</svg>