<?xml version="1.0"?>
<svg xmlns="http://www.w3.org/2000/svg" version="1.2" baseProfile="tiny" fill="#f9c113" width="800" height="483" viewBox="0 0 800 483" stroke-linecap="round" stroke-linejoin="round">
<g fill="#c0392b" id="id_251">
<path d="M 123.27 142.17 123.41 141.99 123.47 141.85 123.52 141.62 123.49 141.51 123.55 141.4 123.85 141.27 123.95 141.19 124.05 141.11 124.15 141 124.43 140.76 124.49 140.68 124.63 140.63 124.73 140.6 124.83 140.64 124.98 140.8 125.13 140.81 125.35 140.64 125.48 140.38 125.66 140.08 125.79 140.02 125.96 139.87 126.33 139.63 126.58 139.49 127.16 139.29 127.35 139.12 127.53 138.89 127.69 138.81 127.79 138.8 127.94 138.84 128.2 138.79 128.23 138.73 128.3 138.71 128.54 138.74 128.58 138.79 128.71 138.83 128.86 138.73 128.96 138.57 129.01 138.38 128.75 137.88 128.78 137.75 128.87 137.69 128.97 137.7 129.55 137.82 129.83 137.92 130.01 137.91 130.26 137.79 130.43 137.62 130.52 137.39 130.64 137.33 130.81 137.32 130.9 137.36 130.92 137.45 130.83 137.61 130.79 137.7 130.81 137.8 130.92 137.87 131.05 137.92 131.16 137.93 131.23 137.86 131.3 137.64 131.27 137.45 131.32 137.19 131.45 136.95 131.64 136.78 131.79 136.72 132.11 136.69 132.34 136.61 132.39 136.54 132.48 136.14 132.53 136.1 133.05 135.96 133.18 135.83 133.34 135.72 133.39 135.61 133.49 135.59 133.61 135.61 133.8 135.56 133.86 135.47 133.9 135.33 133.91 135.21 133.96 135.14 134.07 135.08 134.18 135.11 134.3 135.12 134.38 135.08 134.44 134.98 134.47 134.82 134.51 134.7 134.6 134.6 134.67 134.39 134.98 134.29 135.05 134.3 135.3 134.22 135.41 134.17 135.74 134.11 136.1 134.14 136.38 134.13 136.8 134.04 136.85 133.93 136.96 133.81 137.12 133.78 137.31 133.79 137.57 133.81 137.79 133.78 137.96 133.72 138.22 133.53 138.37 133.47 138.72 133.4 138.93 133.34 139.13 133.24 139.34 133.29 139.6 133.25 139.97 133.14 140.17 133.12 140.42 133.24 140.52 133.21 140.63 133.13 140.67 133.02 140.75 132.95 140.84 132.93 141.05 132.92 141.29 132.95 141.45 132.92 141.61 132.83 142 132.8 142.21 132.69 142.42 132.51 142.64 132.4 143.16 132.23 143.22 132.22 143.26 132.26 143.24 132.34 143.24 132.4 143.29 132.43 143.43 132.36 143.55 132.2 143.68 132.16 144.21 132.06 144.65 132.24 144.85 132.24 145 132.2 145.07 132.14 145.2 132.07 145.26 132.06 145.33 132.08 145.4 132.13 145.48 132.31 145.5 132.49 145.68 132.88 145.75 132.9 145.95 132.9 146.25 132.93 146.42 132.9 146.61 132.99 146.68 133.17 146.75 133.24 146.97 133.3 147.08 133.47 147.19 133.54 147.56 133.64 147.65 133.62 147.92 133.67 147.94 133.7 147.92 133.75 147.98 133.98 148.17 134.13 148.28 134.14 148.5 134.09 148.87 133.89 149.15 133.7 149.57 133.6 150.05 133.4 150.26 133.32 150.41 133.33 150.48 133.34 150.51 133.43 150.7 133.48 150.87 133.44 150.97 133.36 151.2 133.12 151.46 133.1 151.54 133.07 151.73 132.96 151.92 132.93 151.97 132.84 151.99 132.67 152.07 132.6 152.1 132.6 152.24 132.55 152.26 132.52 152.28 132.47 152.25 132.41 152.26 132.34 152.34 132.27 152.4 132.14 152.59 131.92 152.78 131.81 152.92 131.67 152.9 131.57 152.83 131.43 152.79 131.4 152.89 131.3 152.98 131.27 153.08 131.21 153.17 131.1 153.2 130.99 153.26 130.93 153.35 130.91 153.37 130.94 153.55 130.98 153.71 130.9 153.75 130.84 153.83 130.79 153.9 130.77 153.96 130.76 154.03 130.71 154.13 130.67 154.26 130.66 154.42 130.7 154.48 130.86 154.56 130.93 154.65 130.85 154.71 130.84 154.92 130.9 155.08 130.85 155.25 130.96 155.32 130.96 155.43 130.93 155.58 130.98 155.73 130.96 155.84 130.79 155.91 130.61 155.94 130.58 156.05 130.63 156.17 130.64 156.27 130.6 156.37 130.52 156.49 130.47 156.58 130.49 156.83 130.68 157.07 130.78 157.23 130.86 157.28 130.9 157.34 130.97 157.4 131.02 157.98 131.38 158.06 131.41 158.2 131.43 158.41 131.42 158.61 131.48 158.84 131.57 159.15 131.46 159.25 131.47 159.41 131.4 159.65 131.19 159.89 131.23 160.08 131.21 160.17 131.18 160.44 131.03 160.75 131.12 160.89 131.11 161.16 131.02 161.37 131.01 161.45 131.03 161.52 131.09 161.6 131.12 161.66 131.1 161.74 131.01 162.02 130.92 162.16 130.82 162.25 130.8 162.45 130.85 162.57 130.94 162.62 131 162.67 131.01 162.75 131 162.83 130.95 163.02 130.71 163.09 130.64 163.12 130.62 163.18 130.62 163.36 130.61 163.42 130.62 163.49 130.66 163.58 130.77 163.63 130.79 163.71 130.78 163.78 130.79 164.14 131.08 164.25 131.11 164.37 131.08 164.46 130.99 164.63 130.73 164.71 130.69 164.84 130.65 164.94 130.64 165.03 130.66 165.08 130.69 165.16 130.89 165.24 131.02 165.31 131.07 165.37 131.08 165.46 131.05 165.5 131.02 165.82 130.69 165.83 130.6 165.81 130.51 165.79 130.39 165.8 130.23 165.89 129.97 165.96 129.89 166.09 129.84 166.17 129.85 166.24 129.88 166.29 129.95 166.37 129.96 166.49 129.9 166.57 129.81 166.79 129.69 167 129.64 167.34 129.62 167.41 129.51 167.52 129.46 167.65 129.48 167.92 129.46 168 129.41 168.08 129.33 168.23 129.32 168.7 129.43 168.86 129.44 168.98 129.43 169.17 129.37 169.29 129.31 169.49 129.27 169.67 129.37 169.8 129.41 169.93 129.42 170.05 129.41 170.36 129.3 170.42 129.27 170.62 129.21 170.69 129.15 170.81 129.03 170.99 129 171.16 128.87 171.34 128.76 171.41 128.69 171.48 128.54 171.53 128.53 171.62 128.48 171.87 128.51 171.98 128.47 172.03 128.39 172.03 128.36 171.97 128.34 171.96 128.27 171.97 128.24 172.12 128.21 172.42 128.18 172.54 128.21 172.62 128.21 172.87 128.16 173.06 128.07 173.19 127.9 173.18 127.86 173.05 127.82 173.04 127.76 173.07 127.73 173.13 127.72 173.21 127.6 173.24 127.45 173.3 127.36 173.33 127.36 173.36 127.4 173.48 127.44 173.63 127.36 173.68 127.3 173.72 127.18 173.69 127.11 173.58 127.03 173.56 126.9 173.54 126.86 173.54 126.8 173.55 126.77 173.71 126.75 173.73 126.59 174 126.66 174.07 126.66 174.22 126.67 174.27 126.61 174.28 126.48 174.23 126.46 174.2 126.42 174.23 126.31 174.28 126.27 174.32 126.28 174.33 126.36 174.43 126.39 174.53 126.28 174.56 126.23 174.55 126.16 174.6 126.01 174.71 125.87 174.77 125.85 174.86 125.84 175.03 125.86 175.06 125.98 175.09 126.02 175.4 126.11 175.45 126.09 175.47 126.01 175.36 125.98 175.39 125.89 175.57 125.72 175.73 125.75 175.88 125.64 175.89 125.61 175.79 125.51 175.82 125.41 175.97 125.35 175.99 125.28 176.02 125.27 176.02 125.25 176 125.22 176 125.11 176.18 124.91 176.23 124.88 176.37 124.87 176.46 124.78 176.71 124.66 176.88 124.67 176.96 124.59 177.02 124.58 177.05 124.56 177.15 124.36 177.3 124.29 177.37 124.3 177.47 124.27 177.57 124.22 177.67 124.19 177.73 124.15 177.88 124.15 177.99 124.19 178.06 124.11 178.12 124.09 178.2 124.11 178.21 124.13 178.24 124.15 178.28 124.15 178.29 124.17 178.24 124.21 178.25 124.27 178.3 124.34 178.37 124.33 178.47 124.38 178.54 124.56 178.61 124.61 178.65 124.62 178.65 124.57 178.62 124.53 178.63 124.42 178.67 124.44 178.69 124.49 178.76 124.49 178.82 124.41 178.92 124.26 178.99 124.09 179.04 124.07 179.18 124.16 179.2 124.11 179.18 124.04 179.2 124.01 179.25 123.99 179.33 123.98 179.5 123.86 179.53 123.9 179.59 123.92 179.66 123.85 179.85 123.57 179.89 123.44 179.9 123.25 179.92 123.2 180.12 123.23 180.16 123.2 180.15 123.08 180.12 123.02 180.14 123 180.31 123.06 180.36 123.04 180.44 122.72 180.46 122.69 180.51 122.71 180.54 122.71 180.64 122.68 180.9 122.5 180.95 122.49 181.05 122.31 181.08 122.14 181.15 122.14 181.2 122.12 181.25 121.96 181.19 121.94 181.02 121.94 180.89 121.97 180.83 121.94 180.85 121.8 181 121.82 181.12 121.85 181.17 121.85 181.19 121.72 181.19 121.55 181.17 121.51 181.25 121.5 181.43 121.62 181.54 121.63 181.59 121.63 181.7 121.36 181.77 121.34 181.85 121.35 181.82 121.22 181.86 121.11 181.98 120.99 182.03 120.98 182.04 121.14 182.17 121.15 182.21 120.96 182.25 120.91 182.3 120.89 182.33 120.91 182.37 120.86 182.44 120.72 182.43 120.67 182.48 120.64 182.62 120.6 182.74 120.6 182.88 120.58 183.04 120.48 183.1 120.46 183.29 120.44 183.8 120.32 183.84 120.29 183.92 119.98 184.11 119.9 184.26 119.91 184.35 119.96 184.41 120.02 184.52 120.01 184.55 119.8 184.58 119.76 184.65 119.77 184.78 119.86 184.81 119.93 184.9 119.95 184.96 119.89 185.03 119.74 185.12 119.68 185.32 119.7 185.37 119.68 185.4 119.65 185.42 119.55 185.39 119.48 185.34 119.41 185.35 119.28 185.39 119.26 185.54 119.27 185.78 119.17 185.96 119.14 186.01 119.14 186.08 119.18 186.22 119.22 186.27 119.15 186.31 118.93 186.39 118.9 186.47 118.91 186.62 118.98 186.67 118.95 186.76 118.8 186.75 118.68 186.78 118.64 186.94 118.63 187.31 118.48 187.44 118.5 187.52 118.46 187.6 118.4 187.71 118.34 187.8 118.33 187.89 118.37 188.07 118.36 188.12 118.32 188.12 118.25 188.16 118.18 188.17 118.16 188.7 118.24 188.8 118.29 188.87 118.3 188.9 118.3 188.94 118.27 189.02 118.15 189.11 118.07 189.22 118.05 189.37 118 189.54 117.87 189.57 117.83 189.67 117.55 189.8 117.54 189.84 117.56 189.87 117.6 190 117.68 190 117.79 190.03 117.8 190.07 117.8 190.13 117.73 190.22 117.68 190.34 117.65 190.41 117.6 190.53 117.56 190.54 117.54 190.54 117.52 190.44 117.47 190.38 117.38 190.4 117.28 190.53 117.15 190.62 117.1 190.71 117.02 190.77 117.01 191.01 117.04 191.1 117 191.13 116.97 191.16 116.89 191.21 116.84 191.36 116.81 191.43 116.77 191.51 116.55 191.59 116.47 191.62 116.45 191.8 116.46 191.85 116.43 191.91 116.29 191.93 116.21 192.01 116.13 192.16 116.1 192.23 116.18 192.27 116.28 192.32 116.29 192.83 115.99 192.84 115.87 192.76 115.62 192.78 115.45 192.8 115.42 192.85 115.4 192.94 115.38 193.01 115.35 193.31 115.28 193.36 115.23 193.42 115.05 193.46 114.75 193.5 114.59 193.56 114.4 193.65 114.31 193.79 114.27 193.97 114.24 194.18 114.2 194.47 114.18 194.66 114.15 194.91 114.03 195.07 113.87 195.15 113.71 195.26 113.65 195.33 113.66 195.4 113.73 195.53 113.96 195.56 114 195.62 114.02 195.72 114.03 195.78 114.01 195.84 113.98 195.93 113.78 196.07 113.57 196.19 113.46 196.28 113.44 196.36 113.44 196.56 113.51 196.65 113.5 197.26 113.54 197.33 113.5 197.5 113.42 197.58 113.3 197.62 113.19 197.68 113.15 197.86 113.11 198.05 113.11 198.14 113.07 198.27 112.71 198.33 112.68 198.46 112.63 198.52 112.64 198.67 112.69 198.79 112.69 198.91 112.61 198.97 112.59 199.02 112.47 199.01 112.41 198.92 112.22 198.95 112.07 198.94 111.88 198.97 111.79 199.04 111.62 199.11 111.6 199.3 111.5 199.33 111.46 199.35 111.35 199.25 111.27 199.18 111.25 199.07 111.21 198.79 111.04 198.69 110.95 198.69 110.81 198.71 110.75 198.75 110.69 198.78 110.66 198.86 110.63 198.94 110.64 199.04 110.75 199.08 110.8 199.11 110.88 199.17 110.95 199.26 110.98 199.31 110.97 199.36 110.94 199.42 110.76 199.41 110.6 199.36 110.53 199.12 110.37 199.04 110.2 199.09 110.07 199.15 110.05 199.26 110.06 199.33 110.04 199.48 109.96 199.53 109.85 199.52 109.81 199.47 109.77 199.08 109.61 199.03 109.55 198.97 109.45 198.91 109.38 198.91 109.34 198.98 109.27 199.12 109.25 199.35 109.26 199.48 109.23 199.56 109.13 199.56 108.98 199.54 108.94 199.31 108.89 199.17 108.89 199.08 108.85 199.08 108.72 199.1 108.62 199.29 108.29 199.41 107.71 199.45 107.58 199.43 107.26 199.4 107.21 199.38 107.09 199.31 106.93 199.34 106.79 199.42 106.65 199.43 106.55 199.35 106.52 199.29 106.45 199.3 106.35 199.35 106.25 199.43 106.24 199.58 106.16 199.76 106.17 200.04 106.12 200.15 106.03 200.22 105.84 200.31 105.38 200.43 105.11 200.64 105.04 201.15 104.65 201.42 104.62 201.61 104.46 201.75 104.26 201.82 104.18 201.99 104.04 202.12 103.98 202.32 103.92 202.88 103.79 202.93 103.74 202.99 103.54 203 103.17 202.97 102.9 202.88 102.76 202.8 102.39 202.86 102.33 202.98 102.24 203.06 102.21 203.09 102.1 203.15 102.05 203.25 101.94 203.42 101.86 203.78 101.72 203.87 101.65 204.01 101.34 204.07 101.33 204.22 101.27 204.34 101.26 204.66 101.17 204.89 101.06 205.13 100.99 205.41 100.86 205.52 100.82 205.7 100.81 205.89 100.77 205.96 100.68 206.06 100.34 206.04 100.19 205.98 100.06 205.99 99.53 206.02 99.35 206.05 99.24 206.15 99.12 206.46 99.1 206.56 99.07 206.75 98.95 206.94 98.86 207.02 98.81 207.06 98.72 207.12 98.68 207.66 98.6 207.76 98.42 207.83 98.38 208.17 98.26 208.57 98.05 208.73 97.95 208.8 97.91 208.94 97.75 208.97 97.66 209.03 97.59 209.33 97.54 209.42 97.53 209.57 97.46 209.69 97.45 209.83 97.37 209.96 96.97 210.06 96.95 210.19 97.02 210.36 97.06 210.42 97.02 210.5 96.87 210.55 96.83 210.59 96.82 210.68 96.88 210.73 96.87 210.75 96.86 210.78 96.76 211.78 96.76 212.13 96.16 221.96 79.87 229.37 70.56 231.89 76.09 233.52 76.54 233.93 76.61 236.59 77.05 238.62 77.39 242.07 78.01 242.44 78.06 242.79 78.22 243.24 78.2 244.65 78.44 245.44 78.63 246.36 78.73 247.56 78.91 251.69 79.68 252.33 79.78 252.8 79.87 253.2 79.96 253.55 80.03 253.8 80.06 254.06 80.1 254.3 80.13 254.74 80.19 255.14 80.24 255.41 80.27 255.92 80.34 256.47 80.43 256.81 80.47 257.26 80.55 257.46 80.57 257.45 80.62 257.44 80.69 257.39 80.77 257.28 80.9 257.21 81 257.19 81.04 257.22 81.06 257.24 81.08 257.23 81.12 257.17 81.18 257.11 81.24 257.08 81.29 257.04 81.32 257.01 81.36 256.96 81.4 257.01 81.46 257 81.52 256.88 81.72 256.8 81.8 256.77 81.9 256.7 82.03 256.6 82.12 256.39 82.43 256.29 82.52 256.21 82.74 256.15 82.91 256.05 83.07 255.98 83.23 255.91 83.47 255.81 83.66 255.37 84.41 255.19 84.81 254.85 85.42 254.58 85.84 254.53 85.93 254.53 85.97 254.54 85.99 254.54 86 254.55 86.03 254.54 86.06 254.52 86.11 254.59 86.16 254.72 86.28 255.24 86.86 255.74 87.38 256.06 87.75 256.23 87.96 256.44 88.18 256.57 88.31 256.63 88.3 256.96 88.7 257.28 89.07 257.78 89.63 258.28 90.15 258.95 90.88 259.6 91.59 260.03 92.06 260.37 92.41 261.07 93.13 261.29 93.36 261.5 93.6 261.69 93.77 261.88 93.95 262.11 94.23 262.58 94.22 263.5 94.21 264.56 94.17 265.5 94.14 266.82 94.1 268.96 94.02 270.58 93.98 272.33 93.94 273.16 93.89 274.12 93.88 275.83 93.84 277.7 93.8 278.38 93.78 279.42 93.78 279.72 93.79 279.92 93.79 280.09 93.78 280.19 93.78 280.39 93.78 280.43 93.8 280.48 93.81 280.61 93.8 280.71 93.76 280.82 93.73 280.98 93.73 282.11 93.73 283.91 93.7 284.24 93.69 284.51 93.69 284.7 93.68 284.81 93.67 285.15 93.66 285.41 93.66 285.65 93.67 285.77 93.69 285.89 93.71 285.95 93.74 285.98 93.78 286.05 93.8 286.2 93.71 286.28 93.75 286.35 93.76 286.61 93.76 286.67 93.77 286.74 93.79 286.81 93.75 286.85 93.72 286.9 93.73 286.99 93.77 287.05 93.78 287.09 93.77 287.19 93.74 287.26 93.77 287.32 93.76 287.39 93.74 287.45 93.74 287.51 93.75 287.64 93.76 287.69 93.75 287.77 93.74 287.85 93.75 287.91 93.73 287.96 93.71 288.03 93.71 288.11 93.71 288.17 93.72 288.23 93.71 288.26 93.73 288.38 93.72 288.41 93.68 288.45 93.67 288.48 93.67 288.51 93.69 288.55 93.71 288.61 93.72 288.65 93.71 288.68 93.72 288.7 93.75 288.75 93.76 288.81 93.75 288.89 93.75 288.94 93.68 289.02 93.69 289.1 93.78 289.14 93.79 289.18 93.84 289.24 93.9 289.3 93.9 289.32 93.87 289.41 93.84 289.56 93.79 289.59 93.8 289.62 93.77 289.77 93.77 289.85 93.74 289.95 93.68 290.04 93.66 290.07 93.68 290.11 93.69 290.2 93.71 290.45 93.68 290.61 93.7 290.83 93.67 290.96 93.73 291.15 93.72 291.26 93.68 291.32 93.68 291.57 93.75 291.85 93.75 291.99 93.77 292.16 93.8 292.43 93.8 292.6 93.82 292.63 93.87 292.73 93.87 292.78 93.84 292.97 93.83 293.33 93.7 293.93 93.73 294.32 93.69 295.08 93.76 295.32 93.81 295.61 93.8 295.99 93.95 296.24 93.91 296.44 93.91 296.64 93.86 296.79 93.84 296.92 93.89 297.23 93.86 297.32 93.89 297.58 93.77 297.82 93.78 297.85 93.84 297.96 93.88 298.09 93.83 298.21 93.93 298.4 93.95 298.47 93.99 298.59 94 298.76 93.99 299.07 93.9 301.52 94.11 301.73 94.08 302.17 94.13 302.43 94.17 302.57 94.3 302.78 94.16 303.76 94.22 305.73 94.45 306.05 94.4 306.89 94.47 307.02 94.5 307.1 94.67 307.53 95.08 307.74 95.33 308.38 95.67 308.58 95.74 308.79 95.73 309.02 95.67 309.15 95.59 309.44 95.55 309.66 95.57 309.93 95.64 310.22 95.8 310.38 95.94 310.5 96.21 310.66 96.69 310.7 96.76 310.82 96.78 310.95 96.73 311.07 96.64 311.11 96.47 311.18 96.3 311.27 96.25 311.39 96.23 311.47 96.25 311.57 96.35 311.68 96.5 311.76 96.63 311.77 97.01 311.86 97.42 312.04 97.74 312.17 97.8 312.33 97.8 312.74 97.85 312.87 97.88 312.94 97.91 312.93 98.02 312.87 98.35 312.91 98.52 312.99 98.7 313.11 98.76 313.23 98.77 313.39 98.74 313.65 98.67 313.96 98.5 314.11 98.47 314.54 98.47 314.7 98.51 314.74 98.58 314.7 98.7 314.69 98.91 314.79 98.99 314.88 99.01 315.11 99.01 315.17 99.01 315.28 99.09 315.34 99.2 315.44 99.32 315.84 99.6 316.05 99.81 316.33 100.14 316.42 100.39 316.5 100.55 316.7 100.7 316.88 100.78 317.04 100.82 317.13 100.8 317.24 100.69 317.31 100.45 317.44 100.29 317.56 100.04 317.66 99.95 317.88 99.87 317.99 99.91 318.16 100.09 318.28 100.38 318.38 100.44 318.75 100.57 319.13 100.78 319.37 100.86 319.49 100.88 319.62 100.86 319.77 100.79 319.87 100.67 320.05 100.55 320.2 100.49 320.28 100.47 320.42 100.49 320.52 100.57 320.84 100.64 321.12 100.58 321.17 100.54 321.2 100.46 321.17 100.41 321.07 100.38 321.04 100.33 321.02 100.19 321.14 99.67 321.17 99.62 321.23 99.58 321.33 99.55 321.8 99.63 322.19 99.76 322.29 99.81 322.74 99.79 322.91 99.8 323.52 99.61 323.62 99.52 323.69 99.41 323.87 99.25 323.97 99.1 324.03 99.26 324.07 99.3 324.19 99.32 324.66 99.39 324.94 99.47 325.34 99.65 325.51 99.76 325.67 99.83 325.83 99.87 325.9 99.83 325.9 99.76 325.87 99.71 325.85 99.66 325.87 99.62 325.93 99.51 326.2 99.33 326.41 99.1 326.47 99.08 326.54 99.07 326.62 99.11 326.71 99.22 326.73 99.26 326.76 99.35 326.8 99.4 326.85 99.59 326.97 99.73 327.03 99.76 327.17 99.81 327.43 99.8 327.69 99.86 327.91 99.89 328.05 99.87 328.12 99.84 328.17 99.65 328.25 99.55 328.27 99.47 328.22 99.4 328.07 99.34 327.93 99.27 327.91 99.2 327.92 99.15 328.16 99.04 328.42 98.74 328.54 98.73 328.66 98.75 328.68 98.77 328.76 98.95 329.13 100.04 329.5 100.09 329.68 100.12 329.85 100.13 330.07 100.15 330.41 100.16 330.71 100.2 330.87 100.23 331.02 100.24 331.23 100.26 331.36 100.31 331.86 100.35 332.27 100.43 332.65 100.55 332.92 100.57 333.08 100.58 333.25 100.63 333.41 100.71 333.64 100.8 333.77 100.83 333.91 100.87 333.98 100.86 334.12 100.85 334.28 100.83 334.51 100.79 334.62 100.76 334.75 100.72 334.92 100.7 335.09 100.77 335.27 100.77 335.42 100.78 335.58 100.79 335.64 100.84 335.68 100.88 335.63 101.02 335.59 101.15 335.59 101.25 335.65 101.3 335.79 101.38 335.99 101.5 336.05 101.66 336.06 101.68 336.08 101.76 336.08 101.8 336.04 101.97 336.07 102.05 336.14 102.27 336.15 102.29 336.21 102.34 336.38 102.35 336.52 102.36 336.59 102.42 336.64 102.43 336.73 102.46 336.95 102.46 337.14 102.46 337.23 102.51 337.37 102.59 337.52 102.66 337.63 102.7 337.79 102.77 337.91 102.82 338.13 102.9 338.3 103.02 338.41 103.08 338.51 103.15 338.6 103.21 338.68 103.27 338.79 103.35 338.97 103.4 339.18 103.45 339.32 103.49 339.51 103.6 339.74 103.74 339.88 103.83 339.97 103.9 340.1 104.01 340.21 104.11 340.29 104.22 340.41 104.32 340.52 104.44 340.6 104.56 340.67 104.63 340.78 104.77 340.9 104.87 341.01 104.97 341.12 105.08 341.21 105.13 341.27 105.16 341.33 105.19 341.4 105.24 341.52 105.32 341.59 105.42 341.67 105.5 341.74 105.58 341.81 105.68 341.88 105.78 341.93 105.83 342 105.92 342.09 106.19 342.15 106.3 342.19 106.39 342.21 106.44 342.23 106.49 342.27 106.59 342.29 106.66 342.47 106.81 342.34 107.1 342.32 107.21 342.31 107.32 342.09 107.43 342.08 107.48 342.14 107.52 348.5 107.01 356.26 95.37 351.82 95.18 346.16 94.9 342.89 94.7 337.81 94.34 337.3 94.33 334.93 94.18 333.81 94.14 333.43 94.17 329.67 94.5 327.56 95.7 327.25 95.75 327.04 95.86 326.93 95.88 326.56 95.89 326.08 96 325.95 96.01 325.77 96.05 325.67 96.01 325.51 96.02 325.5 96.1 325.41 96.15 325.31 96.16 325.26 96.14 325.03 96.17 324.92 96.17 324.9 96.19 324.57 96.19 324.49 96.23 324.21 96.3 324.16 96.33 323.94 96.35 323.68 96.34 323.56 96.37 323.48 96.35 323.42 96.39 323.33 96.41 323.27 96.37 323.25 96.38 323.16 96.31 323.15 96.27 323.12 96.25 322.94 96.18 322.82 96.15 322.73 96.17 322.6 96.22 322.5 96.21 322.39 96.24 322.25 96.21 322.17 96.25 322.04 96.26 321.97 96.25 321.93 96.27 321.91 96.31 321.85 96.32 321.78 96.37 321.75 96.42 321.63 96.48 321.56 96.55 321.5 96.57 321.48 96.6 321.46 96.64 321.47 96.69 321.4 96.79 321.34 96.8 321.25 96.77 321.12 96.82 321.05 96.86 320.73 96.92 320.43 96.75 320.14 96.79 319.91 96.8 319.82 96.82 319.73 96.86 319.53 96.93 319.33 96.97 319.16 97.07 319.07 97.07 318.97 97.01 318.88 97.02 318.74 96.97 318.63 96.97 318.5 96.99 318.43 96.97 318.28 96.9 318.15 96.85 317.64 96.89 317.57 96.88 317.51 96.85 317.43 96.86 317.27 96.83 316.88 96.62 316.77 96.53 316.57 96.48 316.31 96.34 316.1 96.2 316.06 96.03 315.91 95.67 315.85 95.61 315.76 95.47 315.69 95.27 315.64 94.97 315.56 94.81 315.47 94.52 315.41 94.39 315.22 94.09 315 94 314.68 93.82 314.54 93.72 314.35 93.54 314.14 93.25 313.94 93.09 313.8 92.93 313.6 92.72 313.43 92.64 313.28 92.58 312.53 92.45 312.36 92.39 312.25 92.32 311.78 92.39 311.46 92.38 311.3 92.32 311.08 92.3 310.66 92.39 310.39 92.51 310.23 92.53 310.1 92.57 309.94 92.64 309.87 92.61 309.59 92.74 309.54 92.8 309.29 92.95 309.23 92.98 309.1 92.99 308.95 93.05 308.68 93.23 308.42 93.28 308.38 92.63 308.38 92.21 317.93 89.82 318.1 89.78 319.12 89.5 319.94 89.38 320.27 89.53 320.6 89.24 320.94 89.01 321.74 88.74 321.7 88.67 322.7 88.15 322.82 87.98 325.96 86.07 328.88 84.35 329.13 84.3 330.07 83.74 330.11 83.66 330.37 83.51 330.63 83.45 331.35 83.18 331.51 83.07 331.44 83.01 331.42 82.91 331.73 82.75 331.75 82.64 334.1 81.2 334.54 81.11 334.7 80.92 335.57 80.35 335.81 80.1 336.07 80.08 336.24 80.16 336.39 80.17 336.52 80.05 336.61 80.07 337.05 79.61 337.13 79.47 337.26 79.49 337.31 79.4 337.34 79.38 337.42 79.37 337.55 79.41 337.72 79.33 337.66 79.18 337.72 79.1 337.67 79.01 337.94 78.88 338.52 78.59 338.6 78.36 339.85 77.7 344.55 74.73 345.72 73.98 351.55 70.89 371.9 87.91 391.73 90 395.85 108.58 397.53 112.82 406.9 121.11 407.19 120.63 407.25 120.67 407.48 120.76 408.02 120.89 408.37 120.94 408.99 120.89 409.35 120.78 409.47 120.8 409.6 120.83 409.78 121.05 410.04 121.77 410.11 121.82 410.22 121.85 410.3 121.85 410.55 121.82 410.63 121.82 410.73 121.84 411.25 122.02 411.42 122.06 411.52 122.04 411.57 122 411.61 121.79 411.63 121.62 411.7 121.36 411.77 121.33 411.88 121.34 412.01 121.43 412.18 121.61 412.3 121.69 412.37 121.75 412.39 121.84 412.56 121.96 412.63 121.99 413.03 121.95 413.08 121.95 413.14 121.97 413.15 122.01 413.07 122.19 413.04 122.28 413.04 122.35 413.08 122.4 413.3 122.53 413.58 122.76 413.69 122.82 413.87 122.88 413.97 122.95 414.15 123.16 414.34 123.31 414.4 123.39 414.44 123.63 414.46 123.84 414.44 124.12 414.51 124.39 414.66 124.67 414.74 124.75 414.91 124.82 415.28 124.89 415.34 124.92 415.41 124.97 415.55 125.16 415.53 125.46 415.5 125.59 415.42 125.78 414.93 126.57 414.88 126.78 414.9 126.91 414.94 127.01 414.95 127.22 415.07 127.3 415.14 127.46 415.24 127.6 415.27 127.71 415.29 127.93 415.39 128.15 415.43 128.46 415.56 128.75 415.72 129 415.76 129.23 415.86 129.45 416.06 129.57 416.2 129.7 416.21 130.06 416.16 130.4 416.06 130.69 415.95 130.89 415.87 131.17 415.96 131.25 416.13 131.3 416.3 131.3 416.4 131.32 416.54 131.39 416.71 131.5 416.75 131.57 416.71 131.76 416.7 131.97 416.58 132.46 416.44 132.9 416.34 133.12 416.36 133.19 416.41 133.25 416.59 133.35 416.75 133.4 416.85 133.48 416.87 133.53 416.84 133.69 416.79 133.78 416.69 133.83 416.43 133.88 416.14 134.19 416.09 134.34 416.08 134.45 416.09 134.55 416.27 134.81 416.64 134.92 416.8 134.95 417.06 134.95 417.18 134.94 417.22 134.89 417.25 134.78 417.25 134.71 417.23 134.63 417.23 134.46 417.26 134.27 417.28 134.25 417.39 134.24 417.52 134.17 418 133.89 418.21 133.79 418.49 133.61 418.82 133.56 418.89 133.54 418.96 133.54 419.04 133.61 419.09 133.68 419.04 134.08 418.97 134.24 418.8 134.45 418.57 134.48 418.22 134.74 418.1 134.94 417.96 135.06 417.91 135.27 417.94 135.33 417.99 135.37 418.35 135.34 418.41 135.35 418.5 135.4 418.53 135.45 418.51 135.74 418.51 135.97 418.64 136.24 418.72 136.3 418.86 136.37 418.93 136.35 419 136.31 419.16 135.99 419.3 135.84 419.41 135.78 419.83 135.76 419.98 135.73 420.07 135.75 420.37 135.87 420.56 135.97 420.67 136.05 420.73 136.15 420.71 136.24 420.64 136.31 420.56 136.43 420.41 136.5 420.33 136.61 420.25 136.74 420.23 136.85 420.33 137.03 420.39 137.1 420.71 137.28 421.11 137.45 421.17 137.53 421.16 137.61 421.17 137.77 421.2 137.83 421.32 138 421.46 138.14 421.61 138.22 421.93 138.29 422.25 138.33 422.31 138.29 422.49 137.81 422.53 137.72 422.59 137.66 422.66 137.61 422.71 137.59 422.8 137.59 422.97 137.61 423.06 137.67 423.06 137.78 423.13 137.87 423.18 137.99 423.29 138.09 423.32 138.22 423.37 138.31 423.42 138.38 423.47 138.42 423.53 138.53 423.59 138.56 423.76 138.59 423.92 138.61 424.03 138.6 424.13 138.49 424.27 138.01 424.37 137.84 424.59 137.36 424.68 137.2 424.74 137.16 424.82 137.12 424.93 137.08 425.01 137.07 425.11 137.03 425.28 137.01 425.4 137.04 425.58 137.16 425.97 137.38 426.16 137.58 426.31 137.67 426.49 137.83 426.64 138.09 426.85 138.34 427.13 138.61 427.2 138.65 427.32 138.69 427.65 138.88 427.73 139.01 427.76 139.12 427.78 139.27 427.78 139.49 427.81 139.69 427.85 139.79 427.94 139.89 428.02 139.94 428.44 140.07 428.7 140.1 428.8 140.09 428.92 140.05 429.28 139.97 429.53 139.88 429.6 139.83 429.68 139.72 429.73 139.6 429.91 139.35 430.2 139.17 430.31 139.13 430.44 139.06 430.8 138.89 430.98 138.78 431.07 138.62 431.13 138.58 431.33 138.55 431.4 138.57 431.45 138.62 431.48 138.67 431.52 138.98 431.53 139.24 431.45 139.82 431.44 140.05 431.48 140.1 431.53 140.13 431.68 140.14 431.76 140.06 432.06 139.73 432.49 139.54 432.65 139.53 432.88 139.46 433.07 139.47 433.12 139.51 433.13 139.66 433.19 139.76 433.18 139.88 433.14 139.98 433.07 140.03 432.91 140.22 432.65 140.38 432.57 140.44 432.48 140.49 432.42 140.55 432.38 140.74 432.39 140.87 432.42 140.93 432.5 140.97 432.56 141.02 432.69 141.19 432.97 141.42 433.17 141.55 433.43 141.62 433.49 141.61 433.57 141.58 433.79 141.44 433.84 141.43 433.91 141.32 434.04 141.2 434.19 141.13 434.27 141.12 434.32 141.12 434.4 141.23 434.38 141.41 434.39 141.47 434.37 141.78 434.38 141.88 434.45 141.99 434.51 142.01 434.61 142.01 434.74 142.02 434.84 142.05 434.97 142.33 435.03 142.39 435.13 142.42 435.19 142.5 435.27 142.64 435.35 142.71 435.37 142.81 435.53 143.01 435.58 143.05 435.63 143.07 435.72 143.06 435.78 142.96 436.1 142.85 436.17 142.88 436.19 142.9 436.18 142.97 436.25 143.28 436.24 143.47 436.29 143.53 436.32 143.55 436.36 143.56 436.54 143.5 436.73 143.21 436.85 142.79 436.85 142.51 436.87 142.39 436.89 142.35 436.94 142.31 437.01 142.29 437.16 142.31 437.48 142.36 437.77 142.48 437.97 142.59 438.2 142.77 438.28 142.8 438.37 142.8 438.46 142.77 438.56 142.74 438.69 142.68 438.74 142.52 438.74 142.39 438.71 142.25 438.68 142 438.69 141.93 438.76 141.9 439.2 141.91 439.46 141.8 439.59 141.7 439.64 141.62 439.68 141.5 439.73 141.25 439.71 140.93 439.67 140.74 439.68 140.57 439.73 140.49 439.76 140.48 439.83 140.47 440.03 140.5 440.22 140.43 440.33 140.29 440.39 140.16 440.41 140.06 440.43 139.52 440.49 139.26 440.52 139.15 440.55 139.11 440.63 139.06 440.76 139.01 440.82 139.03 441 139.14 441.1 139.23 441.2 139.38 441.27 139.55 441.28 139.65 441.31 139.69 441.39 139.74 441.55 139.75 441.92 139.85 442.48 140.08 442.67 140.18 443.06 140.36 443.32 140.44 443.42 140.49 443.54 140.5 443.7 140.37 443.94 140.24 444.01 140.21 444.15 140.17 444.59 140.19 445.08 140.24 445.58 140.28 445.78 140.33 446 140.45 446.06 140.47 446.26 140.51 446.44 140.49 446.52 140.47 446.63 140.32 446.78 140.04 447.05 139.63 447.23 139.44 447.32 139.41 447.4 139.41 447.76 139.45 447.88 139.44 448.16 139.46 448.34 139.57 448.58 139.78 448.7 139.98 448.78 140.15 449.01 140.31 449.29 140.55 449.37 140.79 449.42 140.86 449.67 141.13 449.74 141.24 449.87 141.52 450.03 141.78 450.48 142.09 450.55 142.16 451.06 142.32 451.17 142.39 451.3 142.45 451.71 142.58 451.91 142.58 452.06 142.5 452.19 142.4 452.37 142.32 452.46 142.3 453.1 142.28 453.47 142.22 453.66 142.17 454.01 141.89 454.05 141.83 454.22 141.75 454.36 141.59 454.71 141.47 455.12 141.22 455.35 141.12 455.86 141.02 456.05 140.95 456.26 140.99 456.85 140.96 457.49 141.06 457.7 141.03 457.81 140.98 457.91 140.9 457.98 140.75 458.04 140.48 458.02 140.46 457.99 140.35 457.76 140.16 457.66 140.03 457.59 139.97 457.56 139.91 457.51 139.71 457.56 139.56 457.56 139.54 457.73 139.44 457.84 139.4 457.97 139.33 458.18 139.27 458.31 139.26 458.59 139.27 459.33 139.38 459.4 139.4 459.5 139.49 459.51 139.69 459.58 139.77 459.65 139.81 459.69 139.81 459.83 139.81 459.92 139.77 459.99 139.46 460.08 139.27 460.21 138.78 460.24 138.71 460.32 138.65 460.57 138.52 460.72 138.54 460.77 138.56 460.84 138.62 460.91 138.76 460.93 138.97 461.1 139.02 461.2 139.01 461.3 138.91 461.36 138.82 461.43 138.67 461.59 138.17 461.65 137.9 461.65 137.67 461.59 137.58 461.35 137.52 461.17 137.45 461.09 137.36 461.09 137.31 461.26 137.11 461.52 136.96 461.64 136.92 461.87 136.78 461.98 136.73 462.22 136.69 462.35 136.71 462.47 136.7 462.64 136.68 462.68 136.65 462.71 136.58 462.71 136.45 462.61 136.05 462.56 135.99 462.49 135.62 462.48 135.49 462.51 135.36 462.59 135.3 462.81 135.25 462.91 135.19 463.03 135.15 463.06 135.12 463.11 134.96 463.1 134.9 463.04 134.8 462.92 134.76 462.83 134.69 462.76 134.59 462.72 134.51 462.76 134.33 462.82 134.2 462.85 134.14 462.89 134.13 462.95 134.06 463 134.03 463.09 134.01 463.28 133.93 463.53 133.94 463.68 133.91 463.78 133.82 463.9 133.64 463.94 133.61 464.02 133.53 464.16 133.48 464.33 133.38 464.49 133.14 464.52 133.05 464.29 132.93 464.2 132.81 464.13 132.76 463.97 132.62 463.88 132.51 463.87 132.46 463.9 132.27 463.98 132.11 464.07 132.01 464.12 131.99 464.19 131.98 464.77 132.07 465.06 132.04 465.22 132.02 465.42 131.94 465.48 131.85 465.49 131.73 465.43 131.64 465.34 131.57 465.29 131.4 465.29 131.29 465.32 131.15 465.48 131 465.53 130.93 465.66 130.77 466.08 130.36 466.32 129.78 466.33 129.69 466.29 129.48 466.28 129.34 466.11 128.92 466.14 128.68 466.18 128.57 466.22 128.51 466.33 128.43 466.46 128.3 466.61 128 466.84 127.71 467.09 127.33 467.25 127.18 467.47 126.9 467.65 126.78 467.78 126.8 468.07 126.91 468.38 126.98 468.78 127.14 469.06 127.17 469.18 127.11 469.43 126.93 469.61 126.92 469.84 126.95 469.93 127.01 470.27 127.6 470.45 127.68 470.55 127.7 470.61 127.74 470.65 127.76 470.66 127.89 470.54 128.12 470.55 128.14 470.5 128.21 470.44 128.34 470.45 128.38 470.49 128.4 470.57 128.42 470.81 128.43 470.96 128.36 471.07 128.27 471.18 128.25 471.27 128.2 471.37 128.19 471.47 128.14 471.59 128.12 471.68 128.1 471.93 128.08 472.09 128.1 472.25 128.1 472.27 128.19 472.39 128.34 472.46 128.51 472.57 129.02 472.72 129.39 472.78 129.71 472.79 129.86 472.8 130.03 472.75 130.29 472.77 130.45 472.81 130.5 472.87 130.54 473.01 130.58 473.25 130.76 473.26 130.83 473.31 130.95 473.39 131.02 473.53 131.18 473.6 131.35 473.76 131.47 473.92 131.53 474.23 131.6 474.55 131.62 474.68 131.61 474.81 131.49 474.85 131.43 474.88 131.36 474.97 130.96 475.03 130.91 475.1 130.9 475.24 130.94 475.35 130.94 475.58 130.88 475.76 130.77 476.12 130.73 476.9 130.68 477.4 130.57 477.67 130.45 478.04 130.43 478.16 130.46 478.17 130.53 478.15 130.61 478.09 130.69 477.99 130.89 477.8 131.19 477.68 131.41 477.61 131.66 477.58 131.82 477.6 131.86 477.64 132.14 477.73 132.35 477.75 132.76 477.89 133.05 478.05 133.16 478.29 133.29 478.42 133.43 478.51 133.47 478.67 133.51 478.73 133.5 478.76 133.49 478.82 133.37 478.86 133.25 478.87 133.09 478.87 132.81 478.84 132.68 478.84 132.52 478.8 132.41 478.79 132.3 478.8 132.26 478.83 132.2 478.9 132.17 479.13 132.13 479.42 131.93 479.67 131.83 480.03 131.78 480.19 131.77 480.53 131.71 480.79 131.7 480.8 131.75 480.79 132.04 480.86 132.14 480.92 132.38 481.06 132.51 481.2 132.6 481.26 132.68 481.31 132.91 481.4 133.02 481.57 133.13 481.67 133.22 481.95 133.25 482.28 133.24 482.58 133.2 483 133.17 483.45 133.13 483.95 132.97 484.17 132.93 484.49 132.93 485.3 132.81 485.45 132.8 485.78 132.74 485.93 132.66 485.99 132.56 486.03 132.4 486.67 131.48 486.88 130.9 487.01 129.55 486.98 129.42 486.93 128.9 486.98 128.57 487.04 128.37 487.09 128.25 487.18 128.12 487.34 128.01 487.43 127.96 488.17 127.74 488.42 127.64 488.52 127.62 488.82 127.6 489.08 127.56 489.18 127.56 489.36 127.39 489.48 127.34 489.65 127.16 489.82 126.92 490.01 126.69 490.2 126.59 490.29 126.57 490.71 126.61 490.89 126.57 490.97 126.53 491.3 126.27 491.53 125.97 491.69 125.71 491.95 125.36 492.29 125 492.35 124.78 492.37 124.64 492.32 124.57 492.09 124.45 491.98 124.26 491.94 124.17 491.95 123.81 491.93 123.62 491.83 123.46 491.86 123.28 492.05 123.07 492.14 123.02 492.29 122.98 492.64 122.95 492.97 122.81 493.27 122.67 493.48 122.39 494.13 121.92 494.37 121.81 494.55 121.76 494.73 121.74 495.12 121.75 495.34 121.78 495.64 121.78 495.92 121.72 496.77 121.49 496.88 121.38 496.91 121.27 497.15 120.92 497.27 120.83 497.4 120.61 497.52 120.45 497.89 120.16 497.94 120.13 498.28 120.01 498.6 119.95 499.05 119.94 499.3 119.95 499.97 120.04 500.33 120.07 500.45 120.03 500.88 120.06 501.09 120.03 501.19 119.95 501.36 119.87 501.64 119.9 501.73 119.93 501.92 119.82 502.03 119.64 502.1 119.39 501.99 119.24 501.75 119.2 501.47 119.18 501.19 119.11 500.95 119.01 500.65 118.81 500.61 118.71 500.62 118.65 500.67 118.61 500.94 118.51 501.29 118.23 501.34 118.19 501.49 117.87 501.67 117.77 502.4 117.41 502.56 117.34 502.75 117.24 503.24 117.14 503.41 117.05 503.74 116.98 504.03 116.89 504.51 116.7 504.64 116.55 504.74 116.46 504.83 116.31 505.23 115.76 505.39 115.59 505.7 115.27 505.85 115.16 506.01 115.09 506.38 114.88 506.49 114.81 506.58 114.69 506.77 114.4 506.82 114.25 506.83 114.18 506.79 114.11 506.76 113.92 506.77 113.16 506.85 112.93 506.92 112.87 506.99 112.84 507.29 112.9 507.32 112.95 507.59 113.15 507.79 113.17 508.09 113.14 508.2 113.1 508.43 112.97 508.53 112.93 508.71 112.94 508.8 112.91 508.99 112.91 509.22 112.94 509.5 112.89 509.62 112.82 509.79 112.69 509.85 112.58 509.88 112.47 509.91 112.33 509.83 112.2 509.82 111.87 509.86 111.76 509.96 111.62 510.04 111.56 510.19 111.5 510.37 111.51 510.58 111.57 510.85 111.69 510.98 111.91 510.92 112.27 511.01 112.37 511.11 112.44 511.2 112.45 511.27 112.42 511.57 112.24 511.71 112.12 511.92 112 512.13 111.79 512.34 111.72 512.62 111.72 512.76 111.64 512.94 111.63 513.01 111.61 513.1 111.55 513.18 111.47 513.22 111.3 513.2 110.97 513.21 110.93 513.3 110.78 513.34 110.8 513.37 110.77 513.45 110.78 513.61 110.82 513.79 110.94 514.16 111.12 514.26 111.26 514.43 111.33 514.62 111.32 514.78 111.27 514.9 111.17 514.98 111.13 515.19 110.88 515.27 110.7 515.35 110.4 515.35 110.31 515.23 110.21 515.15 110.19 515.03 110.26 514.93 110.3 514.72 110.29 514.59 110.26 514.56 110.22 514.55 110.16 514.62 110.03 514.71 109.93 514.85 109.81 515.05 109.72 515.38 109.49 515.75 109.4 515.8 109.37 515.85 109.33 515.83 109.13 515.68 108.91 515.66 108.81 515.69 108.76 516.06 108.57 516.23 108.54 516.43 108.48 516.53 108.38 516.57 108.28 516.52 108.2 516.27 108.14 516.14 108.15 516.02 108.19 515.68 108.2 515.31 108.04 515.07 107.88 514.92 107.81 514.74 107.58 514.61 107.18 514.64 106.7 514.7 106.54 514.77 106.47 515.26 106.12 515.57 105.95 515.72 105.9 515.82 105.89 516.08 105.91 516.17 105.94 516.23 105.98 516.56 106.11 516.95 106.3 517.28 106.37 517.36 106.37 517.4 106.37 517.44 106.33 517.53 106.15 517.61 106.03 517.71 105.98 517.82 105.86 517.91 105.64 518 105.5 518.24 105.22 518.32 105.15 518.39 105.12 518.46 105.07 518.55 104.96 518.55 104.86 518.42 104.77 518.38 104.61 518.18 104.45 518.06 104.24 518.06 104.09 518.03 104 517.84 103.82 517.78 103.65 517.67 103.49 517.54 103.43 517.52 103.29 517.57 103 517.68 102.87 517.81 102.69 517.9 102.63 518.22 102.48 518.69 102.42 518.9 102.31 518.96 102.32 519.01 102.29 519.02 102.2 518.98 102.01 518.9 101.75 518.91 101.67 518.94 101.57 519.1 101.34 519.19 101.28 519.43 101.22 519.81 101.23 519.89 101.21 520.12 101.22 520.24 101.25 520.49 101.19 520.55 101.15 520.6 101.05 520.83 100.71 520.93 100.63 521.01 100.59 521.18 100.41 521.23 100.31 521.27 100.19 521.29 100.01 521.27 99.9 521.23 99.75 521.12 99.64 521.08 99.37 521.09 99.22 520.99 99.07 521 98.82 521.01 98.77 521.04 98.74 521.1 98.73 521.13 98.73 521.21 98.75 521.47 98.89 521.79 98.73 521.81 98.69 521.86 98.53 521.84 98.45 521.74 98.31 521.48 98.16 521.24 97.99 520.69 97.46 520.33 97.22 520.13 97 520 96.9 519.91 96.76 519.85 96.64 519.76 96.54 519.7 96.43 519.68 96.08 519.74 95.83 519.84 95.71 519.93 95.67 520.34 95.57 520.46 95.6 520.54 95.62 520.6 95.69 520.66 95.76 520.7 95.83 520.69 96.05 520.73 96.13 520.75 96.25 520.87 96.52 520.97 96.62 521.21 96.68 521.43 96.59 521.67 96.55 521.77 96.55 521.87 96.58 521.98 96.62 522.23 96.66 522.39 96.63 522.49 96.53 522.58 96.23 522.56 96.07 522.52 95.99 522.41 95.92 522.42 95.76 522.38 95.55 522.43 95.38 522.58 95.23 522.73 95.13 522.82 95.13 523.03 95.05 523.18 94.94 523.31 94.92 523.4 94.93 523.52 94.95 523.62 95.01 523.96 95.17 524.21 95.22 524.3 95.22 524.56 95.25 524.61 95.24 524.76 95.1 524.82 95.06 524.99 94.86 525.04 94.71 525.09 94.45 525 94.25 524.88 94.13 524.74 93.94 524.63 93.86 524.45 93.79 524.19 93.62 523.69 93.19 523.65 93.11 523.64 93.05 523.65 92.98 523.7 92.9 523.74 92.87 523.82 92.82 523.97 92.78 524.13 92.77 524.21 92.68 524.53 92.53 525.07 92.5 525.27 92.56 525.39 92.62 525.7 92.7 526.09 92.78 526.22 92.78 526.53 92.84 527.02 93 527.1 93.02 527.25 93.01 527.43 92.97 527.55 92.93 527.83 92.67 527.91 92.51 527.94 92.39 527.93 92.27 527.9 92.2 527.84 92.15 527.78 92.07 527.61 92 527.4 91.83 527.27 91.67 527.19 91.58 527.18 91.34 527.14 91.24 527.19 90.92 527.3 90.54 527.26 90.35 527.11 90.06 527.11 89.99 527.18 89.69 527.34 89.36 527.38 89.26 527.38 89.13 527.36 89.06 527.3 88.99 527.21 88.91 526.79 88.82 526.55 88.71 526.48 88.64 525.99 88.5 525.71 88.35 525.78 88.06 525.92 87.74 525.97 87.69 526.1 87.61 526.24 87.47 526.39 87.22 526.57 87.04 526.63 86.96 526.7 86.79 526.67 86.73 526.58 86.67 526.24 86.53 526.09 86.45 525.92 86.25 525.76 86.01 525.72 85.98 525.71 85.68 525.88 85.32 525.92 85.26 525.95 85.24 526.21 85.11 526.72 84.98 526.81 84.94 526.99 84.91 527.33 84.9 527.57 84.93 527.79 85.03 528.1 85.23 528.23 85.29 528.4 85.33 528.49 85.34 528.62 85.32 528.73 85.17 528.82 85 528.86 84.78 528.85 84.67 528.79 84.46 528.64 84.39 528.59 84.34 528.57 84.29 528.44 84.17 528.45 84.02 528.51 83.88 528.62 83.77 528.74 83.67 529.28 83.54 529.42 83.54 529.65 83.57 530.07 83.56 530.32 83.59 530.59 83.51 530.78 83.41 530.91 83.01 530.92 82.84 530.75 82.52 530.57 82.4 530.47 82.28 530.07 82.07 529.77 81.97 529.57 81.88 529.5 81.73 529.46 81.61 529.33 81.41 529.3 81.17 529.28 81.14 529.26 81.02 529.33 80.74 529.36 80.71 529.46 80.7 529.55 80.7 529.62 80.73 529.9 80.88 530.17 81.07 530.28 81.18 530.52 81.33 530.65 81.51 530.85 81.7 531.15 81.83 531.27 81.85 531.91 81.69 532.01 81.64 532.26 81.4 532.36 81.34 532.6 81.04 532.73 80.91 533.03 80.67 533.52 80.38 533.58 80.35 533.65 80.3 533.71 80.21 533.81 79.92 533.86 79.71 533.88 79.35 533.85 79.26 533.92 79.08 534.05 78.92 534.1 78.87 534.28 78.67 534.38 78.61 534.47 78.53 534.8 78.34 534.9 78.12 535 77.58 535.05 77.43 535.04 77.27 535.01 77.2 535 77.09 534.8 76.81 534.75 76.54 534.56 76.29 534.43 76.05 534.42 75.93 534.45 75.83 534.49 75.76 534.65 75.63 534.81 75.39 534.83 75.31 534.8 75.22 534.73 75.16 534.72 74.99 534.62 74.84 534.38 74.59 534.2 74.46 534.16 74.4 534.16 74.34 534.17 74.25 534.36 73.9 534.48 73.82 534.55 73.76 534.64 73.66 534.74 73.5 534.85 73.41 535.02 73.39 535.16 73.41 535.56 73.44 535.76 73.3 535.91 73.26 536.16 73.1 536.57 72.77 536.73 72.56 536.98 72.35 537.08 72.28 537.27 72.23 537.49 72.15 537.65 72.04 537.74 71.99 537.85 71.85 537.93 71.79 537.99 71.65 538.11 71.46 538.14 71.2 538.17 71.09 538.23 70.97 538.31 70.89 538.37 70.81 538.45 70.61 538.44 70.5 538.4 70.4 538.37 70.32 538.27 70.26 538.24 70.09 538.2 70.03 538.14 69.87 538.15 69.54 538 69.25 537.94 68.85 537.97 68.57 538.25 67.62 538.25 67.53 538.22 67.46 538.16 67.39 538.1 67.33 538.11 67.01 538.15 66.94 538.21 66.91 538.55 66.8 538.66 66.71 538.87 66.4 538.99 66.31 539.3 66.22 539.64 66.26 539.72 66.22 539.82 66.23 540.07 66.13 540.27 66.08 540.46 65.96 540.53 65.71 540.47 65.57 540.3 65.41 540.12 65.16 540.08 65.07 540.05 65.03 540 64.88 540.06 64.63 540.14 64.49 540.3 64.41 540.48 64.41 540.82 64.3 540.86 64.27 540.92 64.18 541.01 64.11 541.15 64.06 541.44 63.99 541.59 64.01 541.68 64 541.82 63.97 541.94 63.91 542.17 63.66 542.27 63.31 542.34 63.17 542.43 63.09 542.67 63.08 542.83 63.04 543.17 63 543.37 63.03 543.42 63.06 543.49 63.16 543.56 63.21 543.75 63.48 544.13 63.9 544.36 63.97 544.57 64.03 544.83 64.05 544.98 64 545.1 63.9 545.25 63.87 545.54 63.89 545.78 63.89 546 63.92 546.22 63.88 546.37 63.82 546.45 63.77 546.5 63.57 546.51 63.38 546.58 63.04 546.6 62.88 546.65 62.62 546.7 62.46 546.83 62.24 547.06 61.97 547.21 61.48 547.26 61.2 547.34 61.02 547.48 60.78 547.55 60.76 547.7 60.77 547.8 60.83 547.86 60.89 547.93 60.92 548.02 60.95 548.16 60.96 548.48 61.11 548.61 61.2 548.8 61.3 548.82 61.47 548.85 61.52 548.86 61.74 549.32 61.96 549.46 61.98 549.54 61.96 549.59 61.93 549.72 61.67 549.83 61.67 549.9 61.55 550.03 61.18 550.16 60.98 550.41 60.9 550.48 60.85 550.67 60.62 550.88 60.47 550.92 60.41 550.94 60.34 550.88 60.15 550.82 60.09 550.73 59.84 550.58 59.57 550.68 59.17 550.74 59.07 550.83 59.01 550.89 58.99 551.09 59.03 551.21 59.08 551.54 59.26 551.96 59.26 552.06 59.24 552.15 59.21 552.19 59.17 552.25 59.14 552.29 59.02 552.27 58.82 552.29 58.64 552.26 58.55 552.34 58.38 552.38 58.23 552.33 58.1 552.28 58.03 552.18 57.74 552.13 57.65 552.11 57.52 552.12 57.36 552.23 57.11 552.32 57.06 552.47 57.05 552.67 57.08 552.98 57.27 553.06 57.36 553.34 57.46 553.53 57.55 553.62 57.66 553.8 57.79 553.95 57.92 554.12 57.95 554.36 57.98 554.47 57.95 554.7 57.99 554.99 57.94 555.06 57.89 555.08 57.83 555.12 57.79 555.18 57.77 555.34 57.73 555.62 57.57 555.71 57.43 555.79 57.2 555.82 57.06 555.83 56.85 555.8 56.72 555.82 56.59 555.88 56.54 555.99 56.5 556.14 56.49 556.27 56.44 556.63 56.37 556.86 56.36 556.91 56.29 556.99 56.05 557.07 55.68 557.1 55.65 557.34 55.5 557.6 55.41 557.78 55.38 558.19 55.35 558.46 55.35 558.62 55.29 559.13 55.17 559.36 55.15 559.45 55.1 559.49 54.95 559.47 54.86 559.4 54.85 559.33 54.8 559.23 54.65 559.21 54.59 559.25 54.52 559.32 54.45 559.44 54.38 559.68 54.28 560.14 54.13 560.35 53.98 560.41 53.9 560.52 53.6 560.6 53.49 560.79 53.32 561.03 53.17 561.22 53.12 561.46 53.15 561.71 53.24 562.04 53.25 562.22 53.12 562.27 53.05 562.29 52.99 562.29 52.82 562.26 52.75 562.17 52.67 561.82 52.5 561.57 52.32 561.47 52.21 561.35 52.14 561.3 52.03 561.32 51.94 561.48 51.76 561.68 51.69 561.87 51.55 561.92 51.35 561.9 51.29 561.55 51.11 561.51 51.06 561.52 50.93 561.59 50.69 561.71 50.49 561.8 50.4 561.86 50.37 561.92 50.37 562.06 50.43 562.32 50.5 562.51 50.5 562.78 50.45 562.87 50.39 563.02 50.16 563.13 49.69 563.14 49.52 563.12 49.29 563.13 49.09 563.01 48.78 562.96 48.57 562.87 48.44 562.84 48.12 562.94 47.98 563.01 47.94 563.18 47.89 563.33 47.89 564.28 47.96 564.81 47.95 565.37 47.88 565.54 47.97 565.74 47.83 566.01 47.63 566.19 47.6 566.28 47.58 566.4 47.58 566.53 47.53 566.65 47.55 566.82 47.56 567.02 47.52 567.38 47.36 567.91 47.29 568.24 47.27 568.44 47.08 568.57 46.96 568.68 46.83 568.7 46.72 568.54 46.34 568.76 46.32 569.24 45.87 569.99 45.64 570.22 45.58 570.4 45.56 570.52 45.47 570.55 45.36 570.63 45.21 570.92 44.94 571.03 44.87 571.08 44.85 571.25 44.84 571.38 44.81 571.81 44.8 571.88 44.76 571.93 44.66 571.97 44.44 571.96 44.35 571.78 44.17 571.68 44.01 571.51 43.88 571.41 43.73 571.39 43.49 571.44 43.43 571.58 43.41 571.77 43.43 571.96 43.42 572.13 43.33 572.32 43.29 572.38 43.33 572.4 43.37 572.43 43.39 573.09 43.46 573.34 43.46 573.95 43.35 574.41 43.39 574.9 43.48 575.05 43.46 575.22 43.41 575.58 43.18 575.71 43.16 575.98 43.1 577.24 42.74 577.5 42.71 578.2 42.92 578.7 42.99 578.96 43.23 579.79 43.39 581.25 44.07 581.89 43.74 582.79 43.76 583.56 42.65 583.76 42.69 583.93 43.19 584.49 43.56 584.91 44 586.02 43.91 586.28 43.77 586.63 43.47 586.88 43.36 587.4 42.84 587.61 42.42 587.77 41.98 588.11 41.61 588.42 41.42 589.03 41.36 589.29 41.56 589.57 41.56 589.83 41.06 589.83 40.83 590.1 40.7 590.67 40.83 591.5 40.53 592.02 40.36 592.61 40.12 593.23 40.42 593.29 40.66 593.54 41 594.4 41.08 594.87 41.05 595.15 41.14 595.42 41.49 596.04 42.09 596.52 41.94 596.91 41.89 597.83 41.6 598.29 41.38 598.23 41.16 598.32 40.7 598.44 40.55 599.19 40.87 600.15 41.63 600.77 41.63 601.54 41.53 602.37 41.12 602.71 40.79 602.73 40.54 603.24 40.2 603.67 40.02 604.06 40.1 604.55 40.32 604.92 40.33 605.55 40.21 606.1 39.97 606.59 39.8 606.94 39.77 607.19 39.89 607.38 39.88 607.54 39.55 607.74 39.33 608.07 39.32 608.57 39.36 608.96 39.22 609.34 38.96 609.96 38.71 610.2 38.4 611.15 38.1 611.42 38.15 611.61 38.21 612.5 37.93 612.92 38.06 613.84 38.32 614.26 38.51 614.44 38.78 614.91 38.72 615.4 38.54 616.08 38.64 616.49 38.78 617.22 38.76 617.99 38.98 618.81 39.4 619.79 39.16 620.36 39.4 620.81 39.69 621.26 39.8 621.55 39.77 622.15 39.21 623.05 38.9 623.39 38.61 623.92 38.49 624.98 38.61 625.33 38.92 625.91 39.26 626.34 39.43 627.25 39.16 627.84 39.1 628.44 39.4 629.2 39.48 629.5 39.78 629.91 39.97 630.65 39.9 631.18 40.04 631.61 40.33 632.45 40.62 634.26 40.99 634.6 41.04 635.24 40.61 635.92 40.47 636.43 39.87 636.75 39.5 637.3 39.46 637.52 38.97 637.61 38.75 637.81 38.55 638.05 38.48 638.26 38.8 638.62 38.89 639.12 39.06 639.4 39.36 639.86 40.02 640.01 40.07 640.58 40.09 640.85 40.34 641.19 41.01 641.3 41.07 641.65 41.07 641.85 41.2 641.91 42 642.03 42.24 642.22 42.29 642.66 42.43 642.97 42.75 643.01 42.74 643.13 42.6 643.31 42.49 643.55 42.2 643.7 42.13 643.82 42.15 644.07 42.42 644.62 42.66 644.88 42.59 644.88 42.4 644.38 41.72 644.03 41.41 643.94 41.11 644.07 41.03 644.31 41.12 644.46 41.09 644.63 40.89 644.77 40.53 645.3 39.9 645.46 39.86 645.82 39.97 646.04 40.15 646.1 40.12 646.3 39.87 646.34 39.56 646.54 39.29 646.54 38.99 646.63 38.41 646.67 37.97 646.79 37.86 647.3 37.77 647.69 37.74 648.4 37.52 648.89 37.49 649.94 37.78 650.92 38.22 651.3 38.49 651.54 38.78 652 38.62 652.25 38.35 652.27 38.05 652.22 37.44 652.5 37.27 652.77 36.9 653.33 36.67 654.29 36.37 654.49 36.17 654.53 35.94 654.55 35.59 654.74 35.52 655.1 35.63 655.46 35.81 656.1 35.88 656.43 35.68 656.46 35.38 656.26 35.02 656 34.74 656.07 34.6 656.36 34.47 656.7 33.72 656.86 33.53 657.19 33.53 657.7 33.68 658.19 34.03 658.3 34 658.39 33.72 658.26 33.4 658.35 32.8 658.57 32.71 658.92 32.69 659.3 32.75 659.83 33.01 660.04 33.04 660.67 32.84 660.8 32.68 660.78 32.54 660.64 32.38 660.64 31.81 660.95 31 661.26 30.63 661.56 30.55 662.15 30.64 662.69 30.46 662.84 29.79 663.05 29.03 663.11 28.63 663.21 28.53 663.42 28.53 664 28.84 664.11 28.82 664.28 28.54 664.71 28.22 664.87 28.2 664.99 28.38 665.81 28.56 666.55 28.94 667.18 29.35 667.49 29.43 667.61 29.39 667.61 29.32 667.5 29.22 667.52 29.03 667.84 28.59 667.88 28.14 667.7 27.26 667.01 26.23 666.8 25.61 666.69 25.37 666.53 24.89 666.42 24.59 666.53 24.41 666.9 24.28 667.33 24.32 667.63 24.42 667.8 24.44 667.91 24.33 668.01 23.91 668.16 23.64 668.7 23.26 668.89 23.12 668.99 22.74 668.98 22.13 668.89 21.54 668.9 21.28 669.15 21.09 670.04 20.81 670.92 20.19 671.57 19.45 672.23 18.43 672.39 18.2 672.1 17.74 671.84 17.6 671.56 17.59 670.68 17.92 670.46 17.86 670.38 17.73 670.66 17.48 670.72 17.37 670.34 16.54 670.48 16.27 670.76 16.04 671.11 16.03 671.69 16.18 672.36 16.6 672.67 16.38 673.04 16.34 674 16.22 674.32 16.02 674.19 15.8 674.09 15.17 674.23 14.86 674.19 14.63 674.31 14.39 675.65 13.8 676 13.87 676.49 13.83 676.74 13.58 676.98 12.87 677.24 12.44 677.38 11.71 677.36 11.3 677.32 10.79 677.56 10.32 678.39 9.74 679.12 9.05 679.32 8.95 679.52 9.01 679.56 9.13 679.9 9.15 680.62 9.32 680.85 9.45 681.19 9.32 681.69 9.16 682.33 8.58 683.05 8.28 683.38 8.34 683.81 8.27 684.16 8.5 684.48 8.63 684.82 8.59 685.13 8.62 685.47 8.41 686.07 8.14 686.61 7.84 686.85 7.62 687.02 7.5 687.46 7.42 687.7 7.5 688.07 7.48 688.48 7.58 688.76 7.57 689.28 7.57 689.42 7.66 689.86 7.75 690.23 7.85 690.46 7.85 690.68 7.8 691.04 7.66 691.34 7.41 691.66 7.24 692.18 7.15 692.59 7.17 693 7.09 693.12 7 693.47 6.63 693.69 6.58 694.17 6.63 694.74 6.64 694.95 6.6 695.22 6.47 695.5 6.41 695.67 6.5 695.73 6.69 695.78 6.9 695.88 7.02 696.21 7.11 696.45 7.11 697.05 7.26 697.4 7.23 697.76 7.07 697.98 6.82 698.17 6.28 698.39 6.03 698.59 5.97 698.91 6.07 699.73 6.08 700.15 6.12 700.96 5.92 701.89 5.77 703.2 5.47 704.19 5.3 705.13 5.17 705.67 5.2 706.56 5.3 707.19 5.19 707.99 4.96 708.48 4.63 708.79 4.43 708.85 4.29 708.84 3.79 708.97 3.32 709.15 3.26 709.41 3.39 710.04 3.84 710.3 3.97 710.78 4.02 711.1 4.2 711.19 4.76 711.26 5.33 711.38 5.44 711.74 5.53 712.11 5.55 712.53 5.5 712.71 5.33 713.11 5.18 713.77 5.16 714.46 5.02 714.77 4.89 715.04 4.69 715.21 4.43 715.27 4.02 715.48 3.51 715.61 3.15 715.67 2.49 715.81 2.27 715.98 2.24 716.78 2.44 717.43 2.62 717.91 2.57 718.08 2.5 718.11 2.36 717.88 2.1 717.87 1.93 718.09 1.64 718.46 1.58 718.92 1.56 720.13 1.45 720.52 1.54 721.47 1.49 722.19 1.63 723.66 2.76 725.19 3.08 731.51 1 733.52 1.32 732.14 4.65 729.26 9.59 727.44 10.47 728.12 11.74 726.9 13.41 724.88 14.91 725.36 16.11 724.24 18.18 729.59 21.03 745.29 27.16 745.21 33.2 744.08 35.82 743.73 38.3 743.71 40.38 739.06 45.15 740.2 48.77 739.03 50.68 740.67 52.49 742.31 53.35 745.16 56.46 752.76 52.9 757.8 48.99 758.81 44.27 763.43 41.59 768.2 40.88 766.95 46.78 767.68 49.81 767.68 51.86 767.69 53.95 766.29 60.42 764.69 64.87 763.71 67.31 763.32 69.17 764.53 72.44 763.56 73.02 762.23 74.99 762.03 77.92 760.37 80.83 760.45 85.63 760.53 91.75 759.89 94.03 757.92 94.78 758.29 96.73 761.73 103.08 760.9 111.49 762.5 112.23 761.98 113.29 763.06 114.66 763.84 115.41 762.55 116.82 762.6 123.03 762.25 128.18 762.94 131.91 761.93 132.44 761.35 134.72 761.05 135.87 761.78 143.7 761.08 145.5 761.04 147.16 760.84 149.32 758.76 150.6 759.35 153.07 760.37 155.86 760.02 156.72 761.32 160.04 758.28 162.59 758.75 164.93 757.36 165.83 758.57 169.69 778.07 168.13 781.87 169.62 785.68 176.88 788.53 181.72 792.41 187.95 795.71 198.72 797.18 200.32 798.63 206.27 798.79 206.74 799 207.91 798.84 208.55 798.65 209.53 798.64 210.58 798.62 211.48 798.42 212.85 797.76 214.38 797.31 215.57 796.33 216.45 796.67 217.59 797.06 219.34 797.06 220.68 795.99 221.93 796.08 223 795.42 224.21 793.75 225.67 793.33 226.02 792.38 226.15 791.95 226.65 791.15 227.54 790.7 227.91 790.69 228.72 790.26 229.45 786.69 229.6 784.24 229.2 782.8 229.22 780.57 229.84 778.58 229.88 775.68 231.24 774.18 231.98 773 233.6 770.16 234.26 767.45 235.29 766.26 236.64 764.63 238.49 764.14 238.84 763.66 238.18 763.32 237.86 761.6 237.34 760.75 237.29 759.57 236.66 759.35 236.56 757.76 236.56 756.67 235.99 754.26 235.88 751.52 234.28 748.02 233.32 746.39 233.12 744.13 232.31 743.12 232.1 741.99 231.68 741.59 231.28 740.49 230.29 738.37 229.14 737.34 228.37 735.38 227.51 734.47 227.06 734.05 226.77 733.77 226.43 733.18 226.42 732.75 226.37 732.15 226.28 731.95 226.56 731.62 226.86 731.2 226.72 730.41 227.46 730.21 227.72 730.17 227.95 729.99 227.74 729.69 227.61 729.43 227.81 729.09 228.01 728.81 228.12 728.99 228.31 728.67 228.57 728.48 228.86 728.25 228.91 728.04 229.31 727.48 229.46 727.3 229.74 727.54 229.83 727.3 230.19 727.26 230.43 726.85 230.47 726.62 230.77 726.1 231.15 725.9 231.13 725.47 231.04 725.31 230.76 724.46 230.53 724.21 230.88 723.84 230.95 723.36 230.86 723.05 230.69 722.23 230.69 721.74 230.81 721.33 230.97 721.08 231.22 720.85 231.47 720.11 231.24 719.71 231.76 719.71 232.39 719.45 232.71 719.42 233.18 718.49 233.34 718.29 233.74 717.98 234.26 717.57 235 717.02 235.61 716.33 235.72 715.84 236.46 715.95 236.78 715.42 237.18 715.17 237.52 714.64 237.52 714.36 237.72 714.17 238.04 713.81 237.98 713.4 237.79 713.02 237.45 713.02 237.17 712.89 236.82 712.7 236.46 712 235.91 711.75 236.18 711.17 236.15 710.83 235.56 710.42 235.43 710.27 234.58 710.11 233.97 710.46 232.82 709.75 232.75 709.36 232.58 708.52 231.96 708.42 231.57 708.29 231.18 707.87 230.28 707.57 229.2 707.4 228.7 706.99 228.36 706.25 228.33 704.17 229.04 703.68 229.13 702.86 229.3 702.36 229.3 701.89 229.79 700.91 230.78 699.19 232.95 698.96 233.54 698.29 234.85 697.93 235.57 697.03 237.13 696.48 237.86 695.02 239.46 694.78 240 694.87 240.8 693.76 242.2 693.01 243.07 692.5 244.1 692.07 244.84 691.02 245.97 690.53 246.41 690.03 247.04 689.81 248.26 689.75 249.03 689.75 249.62 690.51 250.83 690.87 251.87 691.17 252.7 691.8 253.06 692.59 253.89 693.04 254.25 693.73 254.53 694.08 254.91 695.22 255.67 695.71 255.74 696.08 256.05 696.31 256.56 696.75 257 696.98 257.76 696.4 258.3 696.18 259.24 696.08 260.61 695.11 262.09 693.55 263.47 692.08 264.84 690.97 266.1 689.9 267.09 689.02 268.71 689 270.17 689.58 271.35 690.02 273.37 690.9 275.09 691.09 278.22 691.67 280.05 692.26 281.9 692.83 283.18 693.42 284.27 693.78 285.15 693.4 286.68 692.21 289.54 691.57 291.29 692.28 292.45 693.39 292.79 694.03 293.3 697.14 294.08 697.6 294.41 697.47 295.14 697.02 296.06 696.71 296.83 695.56 298.4 694.32 299.78 692.9 300.44 692.26 302 692.17 303.34 692.17 304.64 692.48 306.21 693.4 307.05 694.38 307.34 695.47 307.87 696.24 308.78 696.51 309.97 697.3 311.24 698.18 311.82 700.08 312.72 700.19 312.83 699.68 314.12 699.72 315.57 699.9 316.17 699.77 317.31 699.82 318.48 699.78 319.88 699.18 321.2 698.71 322.69 698.3 323.65 697.91 324.4 696.8 325.62 695.51 327.12 695.06 328.71 694.35 330.61 693.38 331.37 692.85 332.13 692.13 333.23 690.98 335.08 689.62 336.88 688.39 339.24 687.28 340.77 685.1 344.18 683.96 346.11 682.14 347.91 680.48 350.13 679.98 351.58 678.6 353.15 677.03 354.9 675.71 356.84 673.99 358.97 672.93 361.29 671.12 363.13 669.43 365.47 667.72 367.55 666.52 369.66 665.56 372.29 664.21 374.26 661.68 377.02 659.03 380.11 656.93 383.09 655.32 385.13 653.56 387.84 650.36 391.69 648.13 394.62 646.26 397.12 643.71 400.71 643.1 403.23 642.8 404.63 642.25 406.48 642.36 408.17 642.04 412.1 641.24 414.1 641.02 414.65 640.7 416.72 640.23 418.02 639.99 418.83 640.03 420.14 639.94 422.59 640.3 423.95 640.5 424.81 641 426.24 641.04 427.02 641.08 427.67 639.6 428.73 638.46 430.09 637.76 430.78 636.79 431.86 636.17 432.55 635.72 433.35 634.88 434.73 633.9 436.04 631.63 437.33 629.42 439.04 627.27 440.54 626.15 441.5 624.3 442.65 623.86 443.2 623.32 444.46 622.06 446.49 621.33 447.32 620.98 448.58 621.06 449.43 621.04 450.27 620.75 452.33 620.35 453.89 620.42 455.18 620.58 456.32 620.37 457.43 620.57 458.34 621.62 459.32 622.4 459.87 622.7 460.6 623.12 460.84 623.59 461.02 624.33 461.21 624.31 461.74 624.64 462.73 625.68 463.87 627.41 464.36 628.26 464.4 629.25 464.13 629.79 464.17 630.98 464.92 631.78 464.5 633.11 463.29 634.04 462.68 634.86 462.15 635.48 462.29 636.25 462.63 637.49 462.86 638.71 462.78 638.59 463.73 638.87 465.24 639.95 467.16 640.17 468 640.83 468.62 641.87 469.29 642.39 470.13 643.07 471.96 643.24 472.95 643.53 473.54 644.17 474.03 645.21 474.2 646.2 473.93 647.06 473.75 648.1 473.87 648.52 474.14 648.99 474.86 649.35 475.81 649.15 476.81 648.96 477.38 649.1 478.32 648.97 478.82 648.63 479.47 648.56 480 647.81 479.7 646.13 479.43 644.97 479.24 643.51 479.74 643 480.53 642.84 481.24 642.18 481.86 642.05 482 640.03 479.67 638.54 478.79 637.38 477.92 636.71 477.61 636.01 476.56 635.62 476.13 635.1 475.78 633.96 474.51 633.59 473.92 633.08 473.21 630.79 472.94 625.77 471.54 622.15 470.72 618.13 468.42 614.12 466.66 609.72 464.45 604.83 463.48 598.87 460.59 596.2 456.48 594.13 453.89 593.43 453.35 592.82 452.51 592.29 452.32 592.18 451.35 592.04 450.51 592.3 449.19 592.16 448.77 591.81 446.83 590.97 446.49 590.36 446.09 590.13 445.74 590.94 444.79 590.91 444.57 590.86 444.05 590.25 442.88 589.6 442.48 587.58 441.87 585.76 441.29 584.95 440.93 583.16 440.11 581.43 440.09 580.66 440.41 579.56 440.15 579.14 439.88 578.62 439.74 576.54 439.44 576.16 439.02 574.95 438.94 573.4 438.52 572.94 438.51 570.79 439.11 570.24 439.21 569.02 438.97 568.3 438.87 567.75 438.86 565.92 439.12 564.38 438.67 563.46 438.39 561.77 438.43 560.29 438.3 559.44 438.55 558.12 438.84 557.53 438.67 557.06 438.76 555.98 438.13 555.41 438.13 554.03 438.13 552.16 437.93 551.68 437.55 550.23 436.74 549.82 436.77 549.28 436.92 549.14 437.37 548.69 437.6 548.16 437.86 547.84 437.89 547.4 438.03 547.05 438.41 546.32 438.58 545.72 438.4 544.7 437.59 544.23 436.91 543.77 435.65 543.59 434.77 544.05 434.04 543.69 433.37 543.23 433.07 543.11 431.33 543.11 431.16 542.61 430.34 542.79 428.88 543 428.12 543.03 427.14 542.91 426.42 542.75 425.05 542.7 424.53 542.25 422.61 542.25 421.88 542.06 421.31 541.04 421.01 539.13 420.86 538 420.31 536.99 419.99 536.53 419.43 536.07 419.13 535.22 419.15 533.87 419.21 533.25 419.2 531.92 418.9 530.82 418.87 530.49 418.48 530.12 418.27 529.47 418.27 528.79 418.32 528.23 418.27 527.93 418.23 527.48 418.52 527 418.42 526.73 418.35 526.2 417.99 525.54 419.44 526.01 420.35 526.07 421.74 526.02 422.18 525.72 423.47 524.71 423.78 524.03 424.42 523.27 425.18 521.93 425.58 520.19 425.63 519.53 425.86 519.03 426.1 518.2 426.69 517.65 427.97 517.67 428.38 516.27 429.34 515.19 429.63 513.95 429.84 512.64 429.91 509.72 429.94 508.71 429.98 506.01 431.09 505.52 432.4 503.29 434.33 502.61 434.57 502.49 435.61 499.28 436.79 498.39 437.24 497.24 437.65 493.65 438.47 493.3 438.96 493.38 440.65 494.52 442.47 494.11 443.1 491.28 444.64 486.99 446.3 485.09 446.59 482.4 447.36 481.35 447.64 479.69 447.97 477.36 448.19 474.14 448.83 472.13 449.93 471.18 450.51 469.11 451.06 467.28 451.99 465.41 452.64 462.26 453.62 460.77 454.01 460.5 454.16 459.69 454.58 458.97 455.2 456.67 456.67 454.64 457.41 452.93 458.58 450.42 460.28 448.53 460.71 447.69 461.25 446.68 461.45 446.17 461.87 445.53 462.32 444.11 462.86 443.57 463.18 442.92 463.62 442.2 463.93 441.66 464.65 441.25 464.72 440.33 464.94 439.75 465.25 439.42 465.58 438.72 466.17 438.06 466.27 437.31 466.66 435.85 467.27 435.82 467.93 433.9 468.25 433.11 468.42 432.29 468.54 431.69 468.84 430.62 469.06 429.76 469.24 429.12 469.53 428.66 469.82 427.57 470.18 426.87 470.19 425.32 470.6 423.48 470.37 422.79 470.43 421.75 470.27 421.18 470.28 419.96 470.14 419.31 470.6 418.56 470.36 417.55 470.8 417 470.76 416.43 470.92 415.78 471.39 415 472.02 414.72 472.15 413.82 471.55 411.86 471.95 411.24 472.14 410.31 472.04 409.62 472.02 408.89 472.13 407.4 470.98 405.21 468.52 404.63 467.96 402.53 467.03 401.55 466.34 400.2 464.04 397.97 462.27 392.74 457.69 391.45 456.75 388.63 454.41 386.72 452.9 385.69 453.04 383.02 453.99 382.14 454.31 380.03 454.24 377.99 453.52 376.98 453.13 374.35 452.87 372.91 453.21 367.58 454.58 365.57 454.12 364.35 453.93 363.21 454.36 361.46 454.36 359.96 454.7 357.74 455.05 356.01 455.17 354.31 455.38 353.79 455.75 353.67 456.6 353.11 456.97 351.43 457.35 350.68 457.53 350.02 458.7 346.69 459.63 344.61 459.61 343.67 459.96 342.69 459.91 342.32 460.77 339.85 461.47 338.66 461.68 337.17 461.98 336.18 462.55 334.32 462.71 331.29 462.05 329.69 460.5 329.19 460.23 327.71 460.14 327.39 460.47 326.18 460.81 324.64 460.38 323.16 460.52 321.61 460.58 319.02 461.43 314.76 461.96 312.62 462.06 311.44 461.78 309.73 461.11 306.97 459.29 303.98 457.39 302.78 457.24 301.04 456.45 300.83 455.18 299.91 453.79 299.35 452.66 296.82 450.6 294.88 450.31 293.03 449.82 291.61 449.14 289.99 448.99 288.28 449.55 287.79 449.91 286.01 449.85 284.25 449.39 282.09 449.12 280.88 449.64 279.24 450.95 278.02 451.35 276.78 451.24 276.33 451.25 275.13 451.79 274.54 452.34 273.9 453.52 273.01 454.1 270.73 455.15 269.08 455.35 267.43 455.58 263.94 456.52 262.99 456.59 259.95 457.41 259.25 458.47 257.59 459.64 256.42 459.8 255.02 459.82 253.1 460.05 252.1 459.79 250.91 459.79 249.38 460.39 246.81 459.47 245.31 458.92 243.12 458.04 242.02 457.49 240.97 457.29 239.52 456.67 239.23 455.99 238.93 455.18 238.41 453.58 238.41 453.02 239.27 451.39 237.67 450.12 236.66 449.7 234.08 448.81 233.1 448.13 232.66 447.77 232.62 447.18 232.53 446.53 231.07 445.57 230.58 444.59 230.08 443.66 229.17 442.33 228.49 441.46 226.21 441.42 224.38 441.17 222.81 441.1 222.08 441.1 220.43 441 218.86 441.42 216.86 441.42 215.03 441.48 213.19 441.26 211.42 440.91 208.62 441.41 205.49 442.63 203.3 443.42 202.65 443.66 201.21 442.93 199.63 443.42 198.62 443.58 196.87 443.46 195.34 443.19 194.53 443.07 193.41 444.1 192.53 444.49 191.75 444.63 191.38 443.53 189.28 444.13 187.62 444.6 184.55 445.59 183.76 446.23 181.43 446.9 180.19 446.98 178.97 447.03 177.99 447.4 177.27 447.35 175.52 447.86 174.07 448 171.97 448.74 169.9 449.17 168.14 449.74 167.3 449.52 165.79 448.5 163.36 446.84 162.27 445.66 163.71 444.81 164.45 444.19 164.32 443.8 164.25 443.39 164.43 441.84 164.92 441.05 164.01 440.36 162.21 439.4 161.83 438.53 161.88 437.93 161.62 437.07 159.96 437.04 159.57 436.38 157.49 436.55 155.76 436.85 153.48 436.84 151.89 436.84 150.6 437.23 149.65 437.65 148.23 437.65 146.4 437.39 144.47 437.71 142.29 437.85 141.6 438.09 140.21 438.58 137.27 439.01 134.9 439.79 133.26 440.64 130.91 441.18 129.86 441.7 128.46 442.46 126.55 442.24 124.37 441.87 123.43 441.6 115.06 440.27 112.95 440.27 111.68 440.45 109.01 440.61 107.78 440.86 105.53 440.46 104.51 440.2 104.05 440.15 101.37 440 100.11 440.19 97.68 440.46 95.76 440.49 93.7 439.47 92.48 438.85 90.36 438.42 88.67 438.19 86.34 438.07 85.27 437.82 84.67 437.75 84.75 436.47 85.05 435.61 85.42 433.44 84.77 431.76 84.99 429.85 85.39 427.97 84.77 426.19 84.04 425.85 83.43 425.34 82.75 423.75 81.86 422.83 80.95 421.44 80.88 420.37 79.27 419.88 77.63 419.58 76.11 419.62 74.7 419.26 73.57 419.06 73 419.48 70.71 419.58 69.9 419.78 69.39 420.13 68.29 420.36 66.65 420.39 66.21 420.39 65.2 420.52 64.22 420.9 62.34 421.24 61.78 421.76 60.85 421.93 59.18 422.1 56.76 421.69 55.58 421.83 54.9 421.96 53.93 422.38 51.49 422.32 50.75 422.57 49.28 422.9 48.87 423.01 47.73 423.26 46.42 423.51 45.71 424.28 44.81 424.79 43.83 424.7 42.82 424.66 40.61 424.88 39.9 424.94 38.56 424.94 37.8 424.71 35.1 424.93 33.99 425.05 32.26 424.74 31.39 424.55 30.28 424.12 27.83 424.36 26.69 424.25 25.33 422.19 24.62 420.48 23.79 418.88 23.25 418.74 22.74 417.76 21.94 416.88 21.91 416.21 20.21 415.32 19.4 414.99 18.5 414.59 17.82 413.57 17.68 412.94 17.06 411.95 16.34 410.99 15.79 410.94 15.31 410.99 14.95 411 14.71 410.74 14.63 410.42 14.27 410.34 13.84 410.72 13.54 410.52 12.63 410.25 12.34 410.28 11.88 410.6 11.36 411.59 10.74 411.75 10.52 412.05 10.89 412.23 10.75 412.73 10.23 412.93 9.69 413.11 9.16 413.32 9.07 412.94 8.59 413.05 7.85 413.16 7.49 412.99 7.1 413.22 6.53 413.53 5.95 413.48 5.21 413.36 4.95 413.41 4.34 413.99 3.82 414.12 3.06 414.33 2.27 414.85 2.11 414.29 2.35 412.27 1 410.39 2.55 410.24 4.04 409.57 5.76 408.22 6.81 407.47 7.44 406.89 7.77 405.9 8.43 404.42 9 403.49 8.98 402.26 9.57 401.7 11.27 400.19 11 399.2 11.89 398.73 13.53 397.64 13.83 397.27 14.97 395.96 15.23 395.2 16 394.42 16.87 394.07 16.91 393.72 18.32 392.53 19.82 390.9 20.85 389.72 22.32 388.86 22.45 388.19 22.43 386.99 22.59 386.47 22.66 385.86 22.29 385.12 22.19 383.67 22.75 383.12 22.63 382.49 22.9 381.92 22.11 381.31 21.63 380.57 20.57 380.11 19.07 379.68 18.59 379.55 17.71 379.32 17.6 378.84 17.48 378.23 17.08 378.15 16.86 377.3 16.14 376.85 15.68 376.66 15.34 376.46 14.6 376.02 14.26 375.57 13.76 375.21 13.15 375.3 12.4 375.63 11.66 375.69 10.64 375.11 11.57 374.14 11.74 373.14 11.9 372.52 12.61 371.33 13.09 370.94 13.31 370.25 13.57 369.31 13.88 368.61 14.13 367.65 14.76 367.32 15.72 366.66 16.44 365.34 16.97 364.64 18.85 364.33 19.52 364.13 22.01 363.34 23.23 362.24 24.44 361.33 25.19 361.22 26.79 360.41 28.16 360.47 31.19 359.01 33.93 357.6 35.7 357.09 38.92 355.56 41.27 355.82 42.26 355.32 44.55 354.13 45.9 353.48 48.22 352.57 49.06 352.38 50.29 352.51 51.99 351.94 52.77 352.01 53.8 351.55 54.61 351.38 55.78 350.83 58.3 348.34 59.17 347.47 60.18 346.76 62.21 345.58 64.11 343.98 65.08 343.08 66.86 342.06 68.55 340.47 69.11 339.24 69.65 338.75 71.37 337.54 72.08 337.14 72.9 335.63 74.59 334.61 75.16 333.78 75.31 333.22 75.73 332.62 75.89 331.8 75.71 331.44 75.87 330.75 76.15 330.06 76.46 329.47 77.06 328.93 77.54 328.91 77.7 328.53 78.13 328.44 78.49 328.11 79.12 328.42 79.47 328.46 79.51 328.19 79.88 328.14 80.09 327.9 79.96 327.45 80.28 327.43 81.05 327.18 81.44 327.03 82 326.94 82.06 326.78 82.33 325.94 82.57 325.23 82.96 325.23 83.5 325.31 83.6 324.98 84.05 324.77 84.59 324.91 84.87 324.28 85.64 324.35 85.79 324.36 85.72 324.06 85.68 323.69 85.92 323.35 86.24 323.24 86.91 322.95 87.04 322.69 86.87 322.47 87.43 322.11 87.13 321.8 87.28 321.68 87.1 321.11 87.55 321 87.86 320.95 88.04 320.86 88.28 320.86 88.45 320.74 88.58 320.6 88.72 320.35 88.83 320.22 88.78 319.97 88.97 319.92 89.83 320.27 90.35 320.14 90.74 320.07 91.2 319.79 92.07 319.22 92.64 318.56 93.35 318.27 93.86 317.93 95.68 317.44 96.15 316.74 96.78 316.01 97.93 315.65 98.37 315 98.81 314.49 99.21 314.43 99.66 314.63 100.25 314.57 101.44 314.31 102.06 314.12 102.51 313.98 103.5 313.75 104.58 313.38 105 313.28 105.09 312.87 104.9 312.27 105.2 312 105.64 311.89 105.93 311.72 106.12 310.85 106.24 310.37 106.29 309.66 106.42 309.33 106.93 308.49 107.5 308.08 107.8 307.92 108.14 307.75 108.41 307.44 108.5 306.97 108.43 306.21 108.81 305.52 109.22 304.97 108.89 304.37 108.28 303.59 107.34 302.99 106.67 302.89 106.38 302.26 105.99 302.07 105.88 301.84 105.42 301.56 105.17 301.13 104.55 300.68 107.32 299.33 110.02 298.76 111.79 298.49 112.43 297.87 112.87 296.71 113.97 295.47 114.52 294.52 116.4 293.25 117.75 291.63 118.13 290.94 119.33 290 119.72 289.19 119.55 288.18 119.91 287.7 120.31 286.29 121.39 283.78 122.22 281.99 122.2 281.48 122.35 281.08 122.81 280.44 122.3 280.37 121.06 280.42 120.96 280.49 120.22 280.53 119.61 280.4 118.87 280.08 117.35 279.97 115.76 280.38 115.44 280.83 114.83 280.97 113.93 281.02 112.96 281.02 112.07 280.61 111.04 280.56 110.27 280.6 109.62 280.29 108.82 280.01 107.8 280.04 106.76 280.07 105.19 279.48 104.23 279.5 103.32 279.51 102.45 279.42 100.25 279.15 98.04 278.65 95.92 278.56 93.77 278.34 92.77 278.33 91.52 278.29 88.33 277.69 86.32 277.53 84.56 277.88 82.77 277.89 82.28 277.23 81.35 277.17 79.81 277.52 78.38 277.79 75.95 277.48 75.03 277.71 74.42 277.43 74.07 277.31 73.49 277.67 72.64 277.82 71.7 278.02 70.57 278.04 68.93 277.84 68.24 278.15 67.01 278.03 66.25 278.09 65.75 277.93 64.6 278.15 64.04 278.44 63.49 278.45 63.35 278.32 61.27 278.45 59.96 278.58 59.53 278.57 58.9 278.58 58.47 278.41 57.97 278.26 56.75 278.4 55.82 278.4 55.24 278.18 54.58 278.26 54.34 277.88 53.96 277.75 53.6 277.74 53.38 277.58 52.44 277.32 52.22 277.19 51.85 277.16 51.71 276.9 51.45 276.73 51.24 276.08 50.93 275.35 50.66 274.77 50.71 274.07 50.61 273.84 50.17 273.52 49.89 273.17 50.11 272.74 50.34 272.38 50.57 271.52 50.72 271.06 50.58 270.6 50.36 270.3 49.16 268.75 48.64 268.12 47.02 267.76 46.31 267.73 44.44 267.61 43.78 267.06 43.54 266.71 43.41 266.04 43.65 265.5 42.4 264.48 41.48 264.01 40.69 263.98 39.59 264.38 37.83 264.87 36.87 265.06 34.53 265.03 33.21 264.8 31.53 263.9 30.72 263.76 27.83 262.97 26.85 262.86 26.1 262.48 24.66 262.18 23.96 261.97 22.63 262.2 20.42 262.9 19.55 262.97 18.94 262.62 18.22 262.07 17.84 260.13 17.42 259.72 17.15 259.3 16.12 258.22 16.26 257.5 16.09 256.74 14.44 255.65 13.76 254.95 12.82 254.22 12.52 253.77 12.08 252.84 12.18 252.81 12.33 252.81 12.51 252.83 12.66 252.87 13 253.08 13.14 253.18 13.17 253.26 13.19 253.29 13.24 253.29 13.37 253.22 13.4 253.08 13.4 252.83 13.43 252.76 13.58 252.61 13.76 252.55 13.96 252.46 14.01 252.48 14.05 252.53 14.07 252.61 14.14 252.65 14.2 252.65 14.44 252.6 14.66 252.48 14.81 252.43 14.94 252.31 15.04 252.08 15.15 251.94 15.3 251.81 15.5 251.69 15.56 251.69 15.64 251.74 15.7 251.92 15.66 251.97 15.67 252.02 15.71 252.06 15.84 252.1 15.89 252.06 16.01 251.9 16.14 251.62 16.18 251.49 16.24 251.39 16.44 251.24 16.53 251.14 16.69 250.99 16.78 250.96 17.05 250.94 17.36 250.88 17.46 250.91 17.57 250.99 17.62 251.06 17.62 251.43 17.63 251.5 17.7 251.68 17.66 251.79 17.63 251.82 17.62 251.85 17.64 251.91 17.67 251.94 17.73 251.97 17.93 252.03 18.01 252.07 18.08 252.16 18.16 252.2 18.23 252.21 18.27 252.15 18.32 252.01 18.37 251.93 18.42 251.89 18.49 251.9 18.55 251.92 18.63 252.01 18.71 252.04 18.97 251.93 19.05 251.93 19.1 251.95 19.3 251.87 19.42 251.75 19.52 251.67 19.61 251.49 19.68 251.38 19.85 251.38 19.91 251.34 19.95 251.29 19.94 251.23 19.9 251.17 19.9 251.09 20.01 251.04 20.16 251.02 20.43 251.21 20.58 251.31 20.79 251.38 21.15 251.58 21.41 251.62 21.51 251.69 21.52 251.73 21.49 251.82 21.51 251.92 21.55 251.96 21.57 252 21.55 252.1 21.58 252.23 21.65 252.32 21.76 252.4 21.77 252.42 21.71 252.46 21.67 252.52 21.67 252.55 21.88 252.75 21.98 252.71 22.07 252.6 22.3 252.48 22.62 252.18 22.76 251.92 22.86 251.81 22.97 251.75 23.27 251.67 23.39 251.67 23.57 251.74 23.66 251.75 23.77 251.74 23.9 251.69 24 251.68 24.63 251.45 24.75 251.36 24.77 251.27 24.75 251.22 24.73 251.15 24.52 250.87 24.5 250.81 24.5 250.73 24.54 250.62 24.62 250.57 24.74 250.37 24.74 250.15 24.76 250.06 24.89 250.03 25.28 250.1 25.52 250.08 25.72 250.11 25.85 250.09 25.95 250.05 26.03 250.08 26.07 250.22 26.1 250.28 26.26 250.31 26.34 250.3 26.51 250.25 26.6 250.15 26.66 250.03 26.73 250 26.8 250 27.01 250.12 27.08 250.14 27.15 250.13 27.32 250.06 27.45 250.06 27.47 250 27.35 249.86 27.36 249.81 27.38 249.75 27.47 249.65 27.59 249.62 27.76 249.49 27.88 249.27 28.03 249.16 28.15 249.12 28.31 249.17 28.37 249.25 28.5 249.39 28.59 249.42 28.66 249.42 28.71 249.35 28.79 249.3 28.89 249.28 28.98 249.28 29.06 249.3 29.19 249.35 29.26 249.33 29.33 249.25 29.51 249.2 29.61 249.2 29.85 249.1 30.07 249.05 30.13 248.97 30.18 248.7 30.26 248.66 30.46 248.75 30.47 248.88 30.51 248.9 30.6 248.89 30.83 248.69 30.94 248.52 31.04 248.42 31.07 248.3 30.99 248.18 31.01 248.05 31.17 247.99 31.19 247.85 31.16 247.8 31.05 247.79 30.99 247.77 30.97 247.68 30.98 247.59 31.11 247.55 31.2 247.46 31.26 247.33 31.34 247.28 31.48 247.13 31.52 247.08 31.55 247 31.59 246.99 31.64 247.01 31.78 247 32.02 247.02 32.11 247.01 32.16 246.91 32.2 246.81 32.3 246.7 32.58 246.61 32.77 246.57 32.97 246.56 33.14 246.58 33.42 246.64 33.71 246.65 33.88 246.58 34 246.43 34.09 246.42 34.55 246.47 34.77 246.53 35.13 246.51 35.23 246.49 35.38 246.49 35.42 246.53 35.45 246.6 35.55 246.71 35.65 246.75 35.79 246.75 35.95 246.68 36.24 246.31 36.3 246.31 36.58 246.31 36.71 246.23 36.9 246.18 36.99 246.19 37.14 246.24 37.36 246.3 37.43 246.3 37.53 246.25 37.63 246.04 37.69 245.86 37.94 245.57 37.99 245.48 38.05 245.25 38.08 245.22 38.18 245.17 38.33 245.21 38.4 245.25 38.46 245.25 38.58 245.2 38.76 245.08 38.92 244.94 39.02 244.78 39.27 244.65 39.46 244.56 39.74 244.46 39.91 244.42 40 244.37 40.04 244.26 40.02 244.2 39.97 244.17 39.9 244.08 39.9 243.97 39.97 243.87 40.04 243.85 40.13 243.85 40.36 243.92 40.41 243.91 40.66 243.76 40.92 243.45 41.06 243.34 41.19 243.29 41.29 243.28 41.31 243.32 41.27 243.44 41.24 243.48 41.2 243.67 41.22 243.69 41.28 243.71 41.33 243.71 41.45 243.66 41.51 243.56 41.67 243.42 41.76 243.37 41.89 243.34 42.12 243.34 42.19 243.38 42.24 243.39 42.35 243.38 42.42 243.34 42.46 243.28 42.6 243.22 42.67 243.13 42.78 243.14 43.02 243.18 43.1 243.19 43.17 243.15 43.3 243.15 43.45 243.17 43.49 243.2 43.57 243.22 43.76 243.24 44.07 243.34 44.17 243.32 44.26 243.22 44.41 243.19 44.49 243.2 44.62 243.26 44.75 243.43 44.95 243.56 45.27 243.63 45.35 243.61 45.37 243.6 45.42 243.33 45.46 243.28 45.63 243.22 45.91 243.25 46.32 243.32 46.43 243.31 46.54 243.33 46.62 243.3 46.67 243.26 46.73 243.15 46.81 242.89 46.87 242.81 47.15 242.74 47.32 242.57 47.4 242.54 47.44 242.54 47.48 242.57 47.57 242.59 47.6 242.61 47.63 242.62 47.71 242.59 47.88 242.47 47.95 242.47 48.03 242.45 48.08 242.39 48.14 242.21 48.17 242.19 48.32 242.18 48.56 242.23 48.83 242.25 48.95 242.2 49.14 242.24 49.33 242.37 49.45 242.52 49.51 242.57 49.55 242.58 49.59 242.56 49.62 242.52 49.66 242.49 49.77 242.47 49.87 242.49 50.27 242.62 50.42 242.68 50.57 242.71 50.72 242.63 50.82 242.45 50.9 242.38 51.07 242.27 51.1 242.1 51.14 242.04 51.21 242.04 51.27 242.05 51.36 242.14 51.35 242.25 51.41 242.31 51.47 242.34 51.54 242.33 51.76 242.21 51.82 242.21 51.95 242.27 51.99 242.27 52.02 242.23 52.14 241.93 52.28 241.78 52.43 241.71 52.65 241.64 52.76 241.62 52.86 241.57 52.95 241.52 53.08 241.37 53.2 241.28 53.43 241.21 53.53 241.21 53.66 241.24 53.76 241.32 53.89 241.49 54.02 241.53 54.09 241.59 54.21 241.78 54.35 241.81 54.43 241.77 54.47 241.72 54.51 241.6 54.48 241.47 54.45 241.39 54.4 241.36 54.34 241.29 54.34 241.23 54.37 241.14 54.43 241.09 54.54 241.1 54.65 241.15 54.72 241.21 54.76 241.31 54.84 241.42 54.9 241.44 54.94 241.42 54.99 241.37 55.05 241.24 55.16 241.15 55.26 241.03 55.43 240.91 55.51 240.91 55.63 240.95 55.78 240.95 55.84 240.93 55.89 240.88 55.94 240.86 56.12 240.89 56.17 240.92 56.27 241.05 56.27 241.18 56.22 241.31 56.2 241.33 56.11 241.35 55.97 241.33 55.88 241.29 55.72 241.21 55.68 241.2 55.66 241.21 55.64 241.23 55.66 241.27 55.75 241.37 55.87 241.48 55.96 241.53 56.21 241.63 56.67 241.75 56.82 241.74 56.94 241.71 57.18 241.76 57.29 241.77 57.72 241.75 57.91 241.77 58 241.8 58.05 241.85 58.04 242 58.07 242.09 58.21 242.19 58.31 242.21 58.4 242.21 58.55 242.16 58.63 242.17 58.69 242.2 58.75 242.26 58.94 242.3 59.04 242.29 59.18 242.24 59.23 242.18 59.32 242.14 59.38 242.14 59.41 242.1 59.42 242.08 59.33 242.04 59.12 242.01 59.1 242 59.11 241.94 59.15 241.91 59.21 241.88 59.36 241.77 59.75 241.63 59.95 241.61 60.83 241.72 61.07 241.77 61.29 241.76 61.36 241.73 61.43 241.63 61.65 241.47 62.12 241.31 62.37 241.29 62.5 241.31 62.55 241.34 62.64 241.33 62.68 241.29 62.73 241.18 62.81 241.15 62.9 241.19 62.96 241.19 62.99 241.17 63.03 241.07 63.06 240.96 63.04 240.83 63 240.68 62.87 240.46 62.9 240.35 62.96 240.32 63.27 240.38 63.41 240.47 63.57 240.61 63.65 240.61 63.7 240.6 63.77 240.57 63.86 240.49 63.97 240.39 64.03 240.27 64.05 240.2 64.06 239.99 64.09 239.88 64.18 239.8 64.58 239.63 64.79 239.51 66.08 239.21 66.52 239.06 66.94 239.05 67.39 239.1 67.5 239.09 67.81 239.1 67.93 239.08 68.09 238.96 68.21 238.89 68.41 238.69 68.63 238.47 68.68 238.35 68.73 238.31 68.85 238.27 69.08 238.22 69.31 238.24 69.54 238.3 69.72 238.39 70.01 238.61 70.05 238.75 70.01 238.88 70.03 238.93 70.1 238.98 70.16 239 70.25 239.01 70.41 239.01 70.63 238.92 70.76 238.85 71.04 238.72 71.24 238.77 71.42 238.87 71.61 238.86 71.67 238.82 71.7 238.79 71.85 238.51 71.94 238.44 72.13 238.41 72.3 238.44 72.36 238.43 72.37 238.36 72.31 238.23 72.31 238.07 72.34 237.93 72.4 237.76 72.49 237.58 72.64 237.52 73.06 237.5 73.1 237.47 73.1 237.4 72.98 237.28 72.99 237.16 73.04 237.1 73.26 237.09 73.45 237.01 73.64 237.01 73.79 237.05 73.92 237.04 74.1 236.87 74.29 236.83 74.5 236.81 74.65 236.86 74.75 236.88 74.82 236.85 75.13 236.87 75.27 236.9 75.34 236.86 75.4 236.79 75.46 236.56 75.45 236.46 75.47 236.38 75.58 236.32 75.64 236.3 75.69 236.27 75.71 236.21 75.8 236.12 75.8 235.98 75.85 235.9 76.11 235.87 76.19 235.84 76.25 235.84 76.45 235.92 76.48 235.92 76.53 235.87 76.56 235.86 76.64 235.88 76.75 235.87 76.8 235.74 76.87 235.73 77.12 235.75 77.16 235.79 77.23 235.79 77.42 235.69 77.63 235.7 77.7 235.66 77.76 235.62 78 235.39 78.12 235.39 78.22 235.29 78.29 235.25 78.34 235.1 78.33 235.06 78.4 235.03 78.45 234.99 78.5 234.9 78.64 234.79 78.72 234.76 78.91 234.61 79 234.58 79.04 234.55 79.12 234.54 79.25 234.49 79.46 234.51 79.5 234.61 79.57 234.65 79.64 234.66 79.74 234.6 79.88 234.59 79.96 234.58 80.01 234.55 80.04 234.49 80.04 234.33 80.16 234.21 80.23 234.21 80.29 234.16 80.41 234.01 80.44 233.94 80.45 233.79 80.42 233.7 80.47 233.6 80.48 233.49 80.38 233.4 80.38 233.33 80.36 233.25 80.53 233.06 80.62 232.91 80.73 232.83 80.87 232.8 80.93 232.73 81 232.56 81.16 232.52 81.31 232.54 81.41 232.5 81.47 232.47 81.5 232.41 81.6 232.36 81.64 232.29 81.75 232.28 81.85 232.36 81.95 232.27 82.03 232.13 82.1 232.08 82.19 231.88 82.23 231.86 82.26 231.79 82.26 231.73 82.24 231.7 82.22 231.62 82.25 231.53 82.27 231.47 82.36 231.35 82.43 231.31 82.59 231.27 82.62 231.2 82.6 231.12 82.64 231.05 82.69 231.04 82.79 231.03 82.9 230.96 83.17 230.9 83.3 230.84 83.37 230.61 83.43 230.47 83.59 230.25 83.73 230.13 83.93 230.04 84.01 229.98 84.06 229.96 84.19 229.94 84.44 229.94 84.6 229.92 84.88 229.63 85.18 229.45 85.27 229.42 85.41 229.34 85.48 229.16 85.57 229.02 85.68 228.92 85.82 228.9 86.09 228.93 86.15 228.85 86.18 228.78 86.44 228.63 86.5 228.57 86.56 228.44 86.64 228.4 86.73 228.36 86.75 228.29 86.85 228.13 86.9 228.1 86.97 228.09 87.17 228.11 87.29 228.1 87.39 228.02 87.44 227.95 87.51 227.78 87.58 227.67 87.73 227.62 87.78 227.64 87.84 227.69 88.14 227.66 88.17 227.58 88.16 227.22 88.2 227.07 88.27 226.96 88.31 226.95 88.37 226.98 88.39 227.11 88.37 227.41 88.37 227.44 88.41 227.48 88.48 227.49 88.54 227.46 88.61 227.33 88.63 227.26 88.8 227.28 88.87 227.26 89.04 227.16 89.08 227.1 89.1 227 89.07 226.96 89.06 226.83 89.13 226.74 89.58 226.52 89.7 226.51 89.88 226.58 89.92 226.55 89.97 226.4 89.84 226.28 89.88 226.1 89.95 226.09 90.14 226.11 90.22 226.1 90.28 226.11 90.3 226.16 90.34 226.2 90.41 226.22 90.64 226.18 90.72 226.06 90.8 225.86 90.87 225.92 90.95 225.96 90.99 225.96 91.03 225.94 91.1 225.76 91.26 225.5 91.31 225.49 91.38 225.51 91.41 225.54 91.38 225.73 91.43 225.79 91.52 225.82 91.77 225.68 91.96 225.65 91.99 225.6 92 225.56 91.99 225.53 91.91 225.48 91.9 225.46 91.89 225.42 91.9 225.4 91.89 225.38 91.86 225.36 91.86 225.34 91.89 225.31 92.05 225.3 92.08 225.35 92.08 225.42 92.12 225.44 92.27 225.42 92.32 225.45 92.38 225.41 92.39 225.24 92.47 225.25 92.55 225.33 92.57 225.38 92.56 225.4 92.6 225.5 92.64 225.5 92.68 225.48 92.74 225.41 92.81 225.39 92.86 225.32 92.87 225.19 92.85 225.08 92.8 225.05 92.79 225.01 92.94 224.92 92.98 224.91 93.02 224.83 93.14 224.77 93.2 224.57 93.25 224.5 93.39 224.5 93.41 224.46 93.44 224.42 93.45 224.38 93.57 224.32 93.59 224.26 93.54 224.23 93.57 224.07 93.6 224.03 93.75 223.95 93.77 223.96 93.79 224.02 93.85 224.04 93.96 224.02 94.03 224.02 94.06 224.04 94.08 224 94.13 223.99 94.16 224.02 94.17 224.08 94.2 224.1 94.24 224.07 94.32 224.09 94.38 224.2 94.47 224.2 94.54 224.17 94.61 224.18 94.69 224.07 94.73 224.08 94.76 224.13 94.8 224.14 94.81 224.19 94.86 224.23 94.92 224.24 94.98 224.2 95.02 224.21 95.02 224.28 95.15 224.35 95.29 224.39 95.35 224.37 95.38 224.28 95.38 224.21 95.41 224.18 95.78 224.26 95.82 224.24 95.87 224.16 95.99 224.13 96.22 224.11 96.31 224.18 96.37 224.18 96.41 224.14 96.46 224.06 96.53 224.03 96.57 224.06 96.64 224.19 96.67 224.2 96.71 224.16 96.72 224.04 96.77 224.01 96.79 224 96.89 224.06 96.94 224.05 96.97 224.02 97.06 224.01 97.06 223.91 97.09 223.89 97.13 223.9 97.18 223.91 97.24 223.95 97.34 223.98 97.36 224.04 97.39 224.06 97.44 224.07 97.46 224.04 97.54 224.05 97.74 224.05 97.75 224.08 97.72 224.2 97.74 224.2 97.77 224.16 97.84 224.13 97.9 224.06 97.95 224.07 97.98 224.1 97.94 224.17 97.91 224.19 97.95 224.21 98 224.22 98.05 224.16 98.16 224.17 98.2 224.12 98.28 224.16 98.27 224.2 98.28 224.27 98.33 224.37 98.39 224.41 98.42 224.47 98.46 224.5 98.51 224.58 98.53 224.64 98.56 224.64 98.6 224.57 98.64 224.55 98.68 224.6 98.81 224.65 98.86 224.7 99.07 224.7 99.11 224.71 99.07 224.73 99.06 224.78 99.09 224.79 99.17 224.78 99.34 224.83 99.38 224.87 99.41 224.86 99.51 224.72 99.55 224.72 99.62 224.76 99.61 224.81 99.58 224.84 99.59 224.88 99.62 224.91 99.74 224.83 99.78 224.84 99.77 224.89 99.8 224.9 99.82 224.91 99.9 224.87 99.95 224.87 99.98 224.9 99.98 224.92 100.04 224.93 100.13 224.88 100.19 224.81 100.24 224.8 100.27 224.83 100.36 224.8 100.42 224.81 100.46 224.84 100.47 224.91 100.52 224.92 100.65 224.92 100.81 224.94 100.89 224.93 100.93 224.89 100.97 224.9 101.01 224.94 101.04 225 101.07 225.01 101.1 225 101.11 224.96 101.15 224.94 101.22 224.94 101.16 225.08 101.2 225.1 101.26 225.08 101.28 225.1 101.29 225.14 101.39 225.24 101.41 225.31 101.44 225.31 101.47 225.21 101.49 225.1 101.5 225.07 101.55 225.08 101.58 225.1 101.68 225.13 101.7 225.18 101.66 225.22 101.66 225.26 101.78 225.3 101.86 225.29 101.91 225.18 102.05 225.13 102.12 225.25 102.14 225.25 102.16 225.21 102.18 225.21 102.26 225.29 102.29 225.3 102.4 225.28 102.48 225.3 102.52 225.19 102.55 225.21 102.57 225.21 102.59 225.19 102.65 225.24 102.65 225.29 102.71 225.29 102.76 225.25 102.83 225.22 102.96 225.22 103 225.22 103.1 225.18 103.19 225.19 103.19 225.23 103.17 225.27 103.25 225.27 103.26 225.35 103.31 225.38 103.48 225.34 103.57 225.38 103.61 225.36 103.64 225.31 103.7 225.29 103.72 225.32 103.73 225.38 103.75 225.38 103.79 225.33 103.82 225.33 103.85 225.33 103.88 225.37 103.92 225.38 103.93 225.35 103.9 225.33 103.89 225.31 103.99 225.3 104.1 225.34 104.17 225.43 104.24 225.45 104.28 225.45 104.35 225.33 104.43 225.32 104.48 225.32 104.52 225.38 104.6 225.35 104.64 225.36 104.63 225.4 104.58 225.46 104.68 225.48 104.72 225.51 104.78 225.51 104.82 225.49 104.96 225.54 105.11 225.56 105.09 225.51 105.1 225.47 105.14 225.46 105.18 225.49 105.19 225.55 105.16 225.64 105.18 225.64 105.25 225.6 105.31 225.61 105.38 225.64 105.49 225.64 105.52 225.66 105.57 225.66 105.62 225.64 105.66 225.64 105.61 225.77 105.64 225.8 105.66 225.8 105.68 225.78 105.81 225.7 105.81 225.67 105.79 225.65 105.79 225.58 105.82 225.55 105.86 225.55 105.88 225.58 105.96 225.58 105.99 225.63 106.04 225.66 106.07 225.66 106.13 225.6 106.16 225.61 106.21 225.69 106.35 225.71 106.43 225.7 106.55 225.71 106.6 225.75 106.67 225.76 106.7 225.8 106.73 225.81 106.78 225.82 106.8 225.8 106.83 225.8 106.86 225.86 106.88 225.86 106.93 225.85 107.01 225.86 107.08 225.83 107.22 225.8 107.36 225.81 107.39 225.77 107.44 225.76 107.59 225.76 107.61 225.74 107.66 225.74 107.67 225.71 107.77 225.69 107.85 225.71 107.88 225.68 107.94 225.66 108.12 225.66 108.25 225.63 108.44 225.55 108.67 225.55 108.76 225.5 108.83 225.48 108.89 225.48 109.01 225.44 109.1 225.44 109.24 225.33 109.3 225.3 109.45 225.26 109.56 225.15 109.75 225.03 109.84 224.95 109.86 224.88 109.93 224.86 110 224.81 110.08 224.68 110.25 224.6 110.38 224.49 110.51 224.4 110.66 224.31 110.72 224.28 110.79 224.22 111 224.04 111.28 223.89 111.33 223.84 111.47 223.63 111.59 223.56 111.75 223.38 111.87 223.21 112.03 223.08 112.18 223 112.63 222.83 112.77 222.72 112.82 222.64 112.88 222.62 113.01 222.54 113.15 222.48 113.5 222.24 113.55 222.1 113.64 221.94 113.66 221.85 113.71 221.78 113.7 221.67 113.72 221.56 113.88 221.27 114.01 221.04 114.18 220.74 114.44 220.42 114.5 220.19 114.46 220.06 114.46 219.94 114.64 219.73 114.75 219.5 114.8 219.43 114.92 219.17 115.01 219.04 115.07 218.9 115.09 218.79 115.02 218.57 116.35 206.98 114.88 204.9 114.57 204.46 112.87 202.17 106.05 198.92 103.6 197.78 102.65 197.28 102.25 197.04 101.77 197.17 101.56 197.16 101.07 197.32 100.92 197.3 100.61 197.61 99.71 197.76 99.26 197.83 97.85 198.23 96.47 198.6 96.12 198.74 95.86 198.91 95.71 198.93 95.51 198.89 95.02 199.11 94.61 199.13 93.44 199.52 93.29 199.44 92.85 199.6 92.67 199.67 92.32 199.77 91.86 199.88 91.54 199.97 91.41 199.93 91.08 200.05 90.87 200.15 90.75 200.18 90.52 200.28 90.36 200.31 90.27 200.33 90.15 200.29 89.87 200.16 89.51 200.29 88.84 200.46 87.75 200.76 87.61 200.89 87.24 201.02 86.91 201.12 86.37 201.27 86.06 201.37 86.04 201.35 86.02 201.29 85.98 201.26 85.78 201.31 85.26 201.44 84.7 201.56 84.34 201.66 72.33 204.24 72.1 204.27 72.03 204.24 71.98 204.25 71.88 204.28 71.84 204.31 71.81 204.31 71.6 204.24 71.34 204.22 71.32 204.13 71.15 204.08 71.13 204.04 71.07 204.07 70.8 204.12 70.67 204.1 70.57 203.94 70.59 203.91 70.63 203.89 70.65 203.83 70.71 203.8 71.13 203.67 71.24 203.6 71.38 203.55 71.44 203.48 71.57 203.4 71.61 203.34 71.81 203.25 72.1 203.14 72.28 203.05 72.39 202.98 72.48 202.95 72.55 202.88 72.6 202.7 72.6 202.63 72.48 202.5 72.43 202.36 72.4 202.36 72.27 202.4 71.61 202.54 71.33 202.68 71.13 202.73 70.85 202.82 70.83 202.84 70.8 202.97 70.75 203.06 70.69 203.08 70.67 203.11 70.56 203.15 70.53 203.11 70.5 203.09 70.51 203.06 70.48 203.01 70.24 203.03 70.23 202.91 70.16 202.91 69.88 202.97 69.78 202.98 69.7 202.97 69.53 203 69.5 202.98 69.46 202.98 69.14 203.02 68.9 203.09 68.84 202.99 68.77 202.96 68.76 202.93 68.78 202.9 68.83 202.85 68.75 202.84 68.72 202.69 68.42 202.79 68.38 202.78 67.95 202.9 67.82 202.78 67.88 202.65 67.88 202.47 67.85 202.45 67.77 202.28 67.57 202.3 67.55 202.26 67.53 202.16 67.52 201.95 67.75 201.85 67.97 201.71 67.9 201.6 67.84 201.57 67.73 201.38 67.69 201.36 67.62 201.38 67.48 201.32 67.4 201.3 67.4 201.18 67.36 201.13 67.36 201.08 67.56 200.99 67.56 200.94 67.5 200.82 67.53 200.79 67.49 200.66 67.52 200.55 67.56 200.47 67.55 200.43 67.51 200.38 67.54 200.3 67.43 200.27 67.41 200.23 67.36 200.22 67.32 200.19 67.26 200.1 67.25 200.04 67.07 200.12 66.92 200.12 66.73 200.14 66.73 200.09 66.78 199.95 66.9 199.8 66.89 199.75 66.79 199.62 66.77 199.47 66.86 199.43 67.25 199.21 67.3 199.18 67.32 199.05 67.26 199.05 67.22 199 67.18 198.86 67.16 198.83 66.93 198.88 66.85 198.86 66.81 198.83 66.79 198.8 66.73 198.79 66.7 198.77 66.6 198.77 66.52 198.75 66.5 198.69 66.2 198.6 66.13 198.49 66.16 198.37 66.2 198.32 66.31 198.28 66.48 198.12 66.59 198.06 66.79 197.98 66.87 197.99 66.9 197.95 66.96 197.88 66.98 197.84 66.92 197.79 66.92 197.72 66.95 197.67 66.76 197.62 66.6 197.67 66.55 197.67 66.47 197.61 66.48 197.57 66.37 197.46 66.35 197.33 66.26 197.35 66.09 197.36 66.06 197.4 66.02 197.41 65.82 197.46 65.81 197.2 65.65 197.16 65.58 197.17 65.54 197.11 65.57 197.08 65.56 197 65.53 196.97 65.56 196.79 65.42 196.74 65.21 196.74 65.17 196.75 65.1 196.87 65.07 196.88 64.77 196.87 64.65 196.92 64.65 196.97 64.64 196.99 64.4 196.99 64.25 197.02 64 197.13 63.67 197.2 63.62 197.22 63.51 197.09 63.44 197.11 63.3 197.22 63.13 197.34 62.86 197.44 62.8 197.48 62.77 197.52 62.52 197.57 62.12 197.71 61.8 197.69 61.19 197.8 61.05 197.81 61.02 198.01 60.74 198.12 56.75 194.01 59.56 187.1 54.38 179.08 53.85 179.06 53.79 178.71 53.58 178.18 53.6 177.96 53.66 177.86 53.74 177.69 53.95 177.43 54.07 177.35 54.31 177.23 54.49 177.02 54.54 176.83 54.52 176.69 54.56 176.59 54.67 176.52 54.7 176.45 54.7 176.39 54.52 176.29 54.4 176.27 54.38 176.2 54.41 176.12 54.42 176.05 54.18 175.86 54.15 175.76 54.1 175.69 54.08 175.61 54 175.49 53.71 175.4 53.44 175.19 53.37 175.08 53.17 174.53 53.04 174.43 52.96 174.3 52.9 174.26 52.78 174.22 52.6 174.2 52.36 174.08 52.25 174.01 52.1 173.83 51.85 173.39 51.72 173.07 51.71 173.04 51.57 172.55 51.55 172.38 51.56 172.17 51.89 172.01 52.29 171.94 52.48 171.68 52.49 171.56 52.39 171.39 52.18 171.18 52.16 170.71 52.19 170.6 52.36 170.49 52.44 170.47 52.48 170.42 52.73 170.29 52.9 170.13 52.95 170.11 53 169.99 53.03 169.87 52.95 169.83 52.74 169.79 52.71 169.78 52.14 169.77 51.68 169.65 51.38 169.64 51.22 169.54 51.13 169.34 51.18 169.14 51.28 168.92 51.32 168.77 51.29 168.68 51.14 168.5 51.05 168.38 51.03 168.32 50.71 168.12 50.55 168.05 50.4 168.02 50.24 167.97 50.19 167.89 50.24 167.56 50.2 167.52 50.06 167.46 50 167.45 49.96 167.48 49.87 167.45 49.79 167.19 49.68 166.95 49.37 166.56 49.39 166.47 49.38 166.4 49.37 166.3 49.31 166.1 49.15 165.94 48.94 165.96 48.76 165.9 48.48 165.73 48.37 165.52 48.23 165.41 48.06 165.22 47.28 165 47.16 164.93 47.08 164.85 47.16 164.74 47.46 164.45 47.73 164.05 47.75 164.03 47.79 164.02 47.85 164.01 47.93 164.01 47.99 164.04 48.02 164.11 48.08 164.18 48.12 164.25 48.11 164.28 48.48 164.16 48.65 164.09 48.78 164.26 48.88 164.28 49.27 164.26 49.42 164.19 49.49 164.18 49.57 164.21 49.79 164.21 49.89 164.22 49.94 164.35 49.95 164.5 49.99 164.53 50.08 164.55 50.45 164.57 50.82 164.52 50.89 164.58 50.88 164.77 50.82 164.84 50.64 164.99 50.49 165.16 50.38 165.37 50.34 165.48 50.38 165.57 50.45 165.6 50.64 165.63 50.85 165.42 51.03 165.22 51.26 165.05 51.32 165.04 51.44 165.07 51.67 165.29 51.82 165.51 52.05 165.63 52.16 165.71 52.2 165.78 52.27 165.79 52.35 165.75 52.39 165.68 52.32 165.42 52.31 165.22 52.25 165.12 52.22 164.9 52.25 164.74 52.3 164.67 52.41 164.61 52.79 164.56 52.96 164.57 53.03 164.55 53.08 164.52 53.21 164.48 53.43 164.35 53.53 164.31 53.73 164.36 53.89 164.46 53.95 164.54 54.07 164.63 54.23 164.7 54.37 164.81 54.43 164.84 54.56 164.84 54.89 164.91 55.17 164.92 55.31 164.86 55.68 164.62 55.73 164.48 55.8 164.14 55.86 163.96 55.89 163.79 55.89 163.64 56 163.47 56.08 163.41 56.29 163.32 56.53 163.4 56.61 163.44 56.67 163.54 56.67 164.07 56.78 164.18 56.93 164.49 57.02 164.52 57.2 164.63 57.3 164.63 57.41 164.6 57.52 164.59 57.75 164.47 57.83 164.4 57.9 164.19 57.96 164.17 58.28 164.17 58.46 164.18 58.61 164.16 58.71 164.08 58.83 163.75 58.88 163.64 58.99 163.58 59.09 163.63 59.29 163.81 59.4 163.86 59.62 163.92 59.74 163.91 59.87 163.87 60.01 163.79 60.18 163.74 60.36 163.74 60.47 163.76 60.58 163.83 60.68 163.95 60.84 164.08 61.07 164.2 61.19 164.23 61.34 164.26 61.47 164.23 61.61 164.06 61.76 163.91 62 163.63 62.12 163.55 62.32 163.34 62.75 163.13 63 163.05 63.13 163.04 63.43 163.09 63.8 163.32 63.89 163.41 63.93 163.51 63.94 163.69 63.93 163.84 63.88 163.99 63.77 164.14 63.73 164.26 63.92 164.59 63.95 164.69 64.03 164.75 64.12 164.75 64.23 164.74 64.35 164.71 64.47 164.62 64.89 164.05 65.02 163.78 65.1 163.75 65.4 163.67 65.52 163.6 65.6 163.51 65.88 163.47 66.15 163.38 66.27 163.31 66.35 163.23 66.64 162.89 66.79 162.69 66.95 162.57 67.42 162.43 67.79 162.13 68.16 161.96 68.57 161.82 68.7 161.71 68.82 161.69 69.01 161.75 69.07 161.8 69.09 161.84 69.04 162 68.96 162.04 68.88 162.13 68.89 162.38 68.86 162.45 68.79 162.5 68.78 162.63 68.82 162.86 68.95 162.97 69.03 162.99 69.55 163.03 69.95 163.12 70.41 163.14 70.51 163.1 70.98 163.1 71.11 163.15 71.53 163.46 71.59 163.49 71.85 163.54 71.94 163.62 72.07 163.69 72.18 163.73 72.27 163.71 72.41 163.74 72.85 164.03 72.92 164.45 73.01 164.81 72.88 165.08 73.05 165.29 73.38 165.47 73.61 165.77 73.63 165.89 73.59 166.09 73.48 166.33 73.54 166.55 73.63 166.64 73.78 166.71 74.04 166.93 74.2 167.03 74.32 167.02 74.61 166.94 74.67 166.97 74.8 167.12 74.82 167.23 75.05 167.33 75.12 167.32 75.24 167.27 75.3 167.23 75.45 167.18 75.55 167.14 75.65 167.07 75.79 166.88 75.93 166.85 76.23 166.88 76.41 166.92 76.51 166.97 76.58 167.08 76.79 167.18 76.92 167.14 76.98 167.05 77.08 167 77.13 166.95 77.18 166.84 77.25 166.78 77.33 166.78 77.58 166.69 77.72 166.68 77.94 166.8 78.13 166.85 78.43 166.84 78.58 166.82 78.73 166.73 78.8 166.65 78.82 166.5 78.87 166.33 78.94 166.23 79.08 166.1 79.33 165.94 79.55 165.84 79.7 165.85 79.84 165.83 79.92 165.85 80 165.94 80.07 165.98 80.25 166.01 80.4 165.98 80.52 165.94 80.65 165.85 80.91 165.57 81.02 165.53 81.28 165.34 81.41 165.33 81.71 165.45 81.92 165.76 82.04 166.09 82.06 166.19 82.33 166.19 82.52 166.22 82.75 166.28 83 166.43 83.29 166.39 83.4 166.33 83.55 166.28 83.75 166.26 84.19 166.28 84.34 166.4 84.58 166.4 84.75 166.48 84.84 166.5 84.93 166.56 85.3 166.67 85.44 166.76 85.6 166.91 85.73 166.92 86.33 166.85 86.48 166.79 86.73 166.85 86.84 166.82 87.08 166.82 87.08 166.88 87.11 167.02 87.35 167.22 87.43 167.44 87.47 167.48 87.54 167.51 87.57 167.58 87.62 167.63 87.86 167.66 88.23 167.64 88.42 167.61 88.55 167.56 88.7 167.4 88.8 167.33 88.86 167.23 89.02 167.06 89.14 167.06 89.25 167.13 89.29 167.25 89.39 167.26 89.76 167.55 89.82 167.72 89.88 167.8 89.99 167.8 90.15 167.77 90.24 167.75 90.46 167.64 90.76 167.6 90.93 167.61 91.25 167.73 91.35 167.75 91.45 167.73 91.77 167.61 92.03 167.54 92.06 167.52 92.08 167.43 92.08 167.27 92.17 167.16 92.27 167.07 92.26 166.97 92.29 166.88 92.44 166.81 92.57 166.7 92.62 166.52 92.71 166.42 92.86 166.38 92.89 166.34 92.92 166.19 92.82 166.07 92.79 166.01 92.77 165.93 92.86 165.7 92.92 165.67 92.96 165.69 93.01 165.69 93.33 165.5 93.51 165.35 93.77 165.27 94.02 165.21 94.15 165.22 94.32 165.28 94.41 165.26 94.49 165.18 94.62 164.99 94.76 164.91 94.85 164.88 95.02 164.79 95.31 164.78 95.4 164.81 95.47 164.81 95.62 164.78 95.76 164.72 95.83 164.68 95.87 164.62 96.01 164.62 96.04 164.55 96.08 164.5 96.08 164.27 96.12 164.23 96.24 164.19 96.35 164.18 96.53 164.27 96.69 164.29 97.17 164.3 97.25 164.27 97.44 164.31 97.76 164.24 98 164.03 98.31 163.73 98.54 163.46 98.59 163.42 98.74 163.24 98.78 163.17 98.93 163.15 99.22 163.2 99.63 163.18 99.72 163.16 99.82 163.04 99.97 162.95 100.07 162.82 100.41 162.56 100.6 162.52 100.95 162.48 101.27 162.34 101.39 162.23 101.63 162.09 102 161.81 102.11 161.62 102.16 161.58 102.2 161.39 102.16 161.3 102.07 161.18 102.09 161.11 102.19 161.04 102.34 160.75 102.42 160.62 102.51 160.53 102.59 160.39 102.64 160.25 102.67 159.88 102.75 159.73 102.88 159.67 103.37 159.31 103.42 159.21 103.38 159.17 103.36 159.09 103.59 158.68 103.64 158.65 103.73 158.51 103.86 158.14 103.86 158.06 103.79 158 103.77 157.89 103.72 157.81 103.78 157.65 103.85 157.6 103.98 157.45 104.09 157.36 104.35 157.18 104.5 157.11 104.74 157.1 104.97 157.15 105.11 157.26 105.2 157.4 105.29 157.44 105.35 157.43 105.48 157.35 105.84 156.99 106.12 156.76 106.25 156.65 106.25 156.61 106.35 156.42 106.48 156.07 106.46 155.96 106.51 155.81 106.57 155.7 106.67 155.59 106.74 155.51 106.8 155.5 106.98 155.39 107.28 155.47 107.49 155.42 107.61 155.25 107.71 155.05 107.75 154.79 107.82 154.66 108.02 154.56 108.4 154.51 108.46 154.44 108.57 154.2 108.62 154.17 108.65 154.16 108.7 154.11 108.71 154.08 109.02 153.93 109.22 153.87 109.44 153.74 109.6 153.61 109.63 153.53 109.91 153.24 110 153.17 110.13 153.18 110.52 153.12 110.96 153.03 111.31 153.03 111.46 153.05 111.53 153.11 111.61 153.12 111.81 153.08 112.07 152.94 112.12 152.96 112.36 152.79 112.42 152.64 112.5 152.57 112.78 152.55 112.91 152.61 113.22 152.37 113.35 152.32 113.52 152.31 113.7 152.24 113.96 151.96 114.08 151.91 114.2 151.83 114.3 151.74 114.4 151.6 114.56 151.47 114.68 151.44 114.81 151.54 115.04 151.46 115.1 151.4 115.18 151.36 115.33 151.39 115.49 151.34 115.64 151.15 115.75 150.8 115.88 150.57 116.11 150.4 116.3 150.41 116.44 150.45 116.47 150.53 116.57 150.55 116.67 150.51 116.9 150.32 117.29 150.09 117.54 149.75 117.61 149.61 118.01 149.33 118.1 149.13 118.13 148.92 118.03 148.68 118.07 148.49 118.22 148.35 118.33 148.09 118.51 147.93 118.55 147.85 118.68 147.71 118.71 147.64 118.77 147.44 118.77 147.39 118.6 147.06 118.58 146.91 118.65 146.42 118.79 146.2 118.93 146.08 119.01 146.03 119.07 145.93 119.25 145.88 119.47 145.86 119.75 145.72 119.96 145.52 120.14 145.51 120.28 145.44 120.38 145.31 120.59 145.23 120.77 145.13 121.18 145.13 121.57 145.1 121.82 145.03 121.86 144.97 121.87 144.75 121.93 144.54 122.01 144.45 122.14 144.39 122.27 144.22 122.42 144.12 122.52 143.9 122.54 143.74 122.52 143.6 122.39 143.29 122.38 142.99 122.34 142.83 122.51 142.49 122.66 142.38 122.85 142.33 123 142.27 123.27 142.17 Z"/>
</g>
</svg>