<?xml version="1.0"?>
<svg xmlns="http://www.w3.org/2000/svg" version="1.2" baseProfile="tiny" fill="#f9c113" width="800" height="833" viewBox="0 0 800 833" stroke-linecap="round" stroke-linejoin="round">
<g fill="#c0392b" id="id_211">
<path d="M 59.16 111.54 78.47 126.14 186.57 183.92 235.19 212.57 236.54 184.27 265.44 184.45 285.16 167.75 318.94 188.92 338.59 204.44 354.51 184.6 328.85 162.55 300.89 141.02 316.49 134.43 337.48 130.11 344.85 126.28 355.65 123.37 371.82 124.29 379.06 126.61 384.92 127.53 391.18 127.24 403.74 117.95 403 113.05 407.34 105.93 412.66 103.05 428.83 100.14 435.58 98.66 447 94.79 450.6 90.92 451.79 87.24 447.82 79.57 438.65 69.54 433 63.46 427.68 59.74 419.74 46.99 417.86 42.53 412.01 37.59 409.51 30.92 407.83 18.13 406.32 11.1 409.96 1.77 426.78 1 461.49 4.76 498.54 4.84 498.83 15.9 502.47 38.93 512.5 51.68 522.81 54.96 534.35 55.29 538.73 55.44 555.06 54.67 569.14 56.14 580.56 57.1 591.65 62.55 599.35 70.48 600.7 79.29 605.16 85.81 613.51 88.24 622.71 88.5 628.32 89.5 634.09 93.48 640.56 103.95 641.95 108.74 642.44 126.84 639.7 149.96 644.65 160.87 655.87 167.14 665.11 166.48 679.81 157.44 687.17 157.37 694.79 170.02 719.1 190.33 729.7 198.45 741.24 209.29 754.79 224.41 766.57 235.81 773.57 241.19 787.14 247.74 786.98 265.45 791.36 275.41 791.73 289.35 793.12 296 795.9 308.98 796.47 315.11 799 328.3 790.77 332.72 782.55 334.79 769.74 339.99 765.69 344.2 758.16 354.68 753.08 368.56 750.58 390.67 752.71 406.98 752.88 421.08 754.59 433.41 758.97 448.7 763.03 458.26 769 469.37 771.54 472.55 777.31 477.2 782.71 481.3 786.76 485.95 789.14 489.72 789.08 502.84 783.39 502.25 776.88 502.17 743.33 496.67 727.77 496.67 716.64 494.93 692.58 492.76 675.51 492.79 666.42 493.79 653.12 491.32 608.02 491.91 587.07 492.28 571.88 493.09 576.75 502.1 578.23 508.6 579.94 528.57 580.18 536.29 577.16 547.74 576.66 553.69 569.42 593.18 568.27 599.64 572.79 637.14 576.35 650.66 581.22 658.98 586.58 664.89 563.86 676.82 551.13 695.56 545.15 691.05 531.07 686.54 518.43 690.42 513.97 704.35 514.42 710.6 504.27 716.48 487.53 722.17 489.11 730.29 477.61 733.21 473.68 737.87 458.37 742.23 448.71 744.22 448.34 753.54 448.71 757.24 427.68 757.94 427.31 765.82 419.45 789.04 412.9 793.66 412.37 818.18 403.85 821.18 393.34 829.63 391.91 832 356.46 820.55 349.08 809.96 345.61 796.23 333.02 804.07 319.13 807.21 308.28 807.6 227.11 784.47 199.33 760.16 162.08 783.53 160.52 776.29 154.14 763.72 136.87 733.66 116.28 697.44 84.27 663.84 56.16 635.84 50.27 626.41 12.04 533.77 10.81 525.42 20.47 455.52 28.78 391.47 43.43 339.62 50.64 312.24 54.24 299.7 54.85 294.24 54.52 289.4 49.49 276.01 24.12 217.95 2.56 168.14 1 150.4 2.06 148.3 1.53 140.93 1.16 137.72 17.61 134.44 55.02 132.41 59.16 111.54 Z"/>
</g>
</svg>