<?xml version="1.0"?>
<svg xmlns="http://www.w3.org/2000/svg" version="1.2" baseProfile="tiny" fill="#f9c113" width="800" height="344" viewBox="0 0 800 344" stroke-linecap="round" stroke-linejoin="round">
<g fill="#c0392b" id="id_259">
<path d="M 4.12 298.16 4.49 296.45 4.85 295.02 5.36 293.08 5.79 291.13 6.03 289.64 5.99 287.59 6.21 286.28 6.59 284.6 7.01 283.07 7.26 282.43 7.78 281.42 8.05 280.38 8.26 279.44 8.4 278.44 8.55 277.52 8.67 275.88 8.85 274.64 8.86 274.01 8.94 274.02 9.03 273.55 8.17 273.46 8.45 271.56 8.65 270.17 8.86 268.5 9.03 266.92 9.17 265.51 9.29 264.02 9.49 264.03 9.55 263.59 9.28 263.54 9.35 262.47 9.41 261.79 9.4 260.28 9.42 259.18 9.44 258.03 9.61 257.1 9.95 255.8 10.28 254.53 10.45 253.87 10.52 253.36 10.46 251.92 10.42 250.31 10.45 249.35 10.61 249.35 10.64 249.05 10.61 248.88 10.54 248.72 10.55 248.5 10.56 247.35 10.57 246.7 10.61 245.46 10.66 244.54 10.7 243.92 10.79 242.65 10.94 241.36 11.13 239.86 11.23 239.27 11.51 238.81 11.73 236.38 11.76 235 11.82 233.83 11.88 232.3 11.87 230.86 13.59 209.42 13.7 208.04 13.94 205.16 13.9 205.15 13.85 205.09 13.78 205.07 13.79 205.03 13.79 205.02 13.78 205.01 13.77 204.98 13.79 204.97 13.79 204.92 13.82 204.92 13.82 204.88 13.8 204.88 13.79 204.86 13.75 204.86 13.77 204.84 13.72 204.8 13.75 204.79 13.74 204.78 13.68 204.75 13.64 204.75 13.63 204.77 13.59 204.76 13.58 204.73 13.51 204.77 13.49 204.77 13.48 204.75 13.49 204.74 13.44 204.71 13.44 204.73 13.43 204.75 13.41 204.73 13.39 204.75 13.37 204.74 13.33 204.76 13.29 204.74 13.26 204.76 13.24 204.76 13.23 204.77 13.12 204.79 13.09 204.69 13.02 204.61 13.02 204.58 13.04 204.57 13.11 204.49 13.16 204.48 13.18 204.46 13.23 204.48 13.36 204.39 13.37 204.34 13.38 204.34 13.4 204.34 13.41 204.3 13.4 204.24 13.41 204.2 13.4 204.15 13.44 204.12 13.52 204.08 13.61 204.11 13.64 204.11 13.63 204.09 13.64 204.09 13.68 204.09 13.68 204.1 13.72 204.09 13.79 204.07 13.83 204.05 13.87 204.04 13.9 204.02 13.94 204.01 13.96 203.99 14.01 203.88 14.05 203.88 14.11 203.84 14.11 203.83 14.15 203.83 14.17 203.81 14.27 203.74 14.28 203.73 14.27 203.72 14.29 203.7 14.34 203.71 14.36 203.68 14.42 203.64 14.43 203.61 14.46 203.61 14.48 203.58 14.53 203.57 14.54 203.55 14.6 203.49 14.59 203.48 14.6 203.47 14.58 203.46 14.59 203.43 14.56 203.43 14.55 203.39 14.49 203.3 14.48 203.23 14.43 203.2 14.39 203.16 14.38 203.09 14.4 203.03 14.4 202.95 14.41 202.9 14.4 202.9 14.43 202.81 14.42 202.75 14.43 202.73 14.42 202.71 14.44 202.61 14.44 202.55 14.44 202.54 14.4 202.47 14.41 202.4 14.4 202.35 14.41 202.35 14.4 202.34 14.42 202.34 14.43 202.3 14.41 202.3 14.42 202.28 14.52 202.28 14.54 202.25 14.59 202.25 14.58 202.15 14.6 202.13 14.59 202.12 14.61 202.08 14.59 202.06 14.6 202.04 14.69 201.97 14.68 201.92 14.7 201.87 14.72 201.85 14.72 201.83 14.73 201.82 14.72 201.8 14.73 201.79 14.76 201.76 14.78 201.73 14.8 201.72 14.84 201.7 14.87 201.71 14.96 201.7 14.98 201.69 14.99 201.7 15.02 201.7 15.04 201.69 15.06 201.69 15.07 201.67 15.14 201.63 15.26 201.6 15.31 201.55 15.35 201.55 15.37 201.56 15.39 201.57 15.4 201.56 15.43 201.59 15.48 201.55 15.49 201.56 15.53 201.54 15.53 201.52 15.59 201.53 15.64 201.51 15.65 201.49 15.69 201.49 15.69 201.5 15.71 201.49 15.74 201.49 15.79 201.43 15.82 201.43 15.82 201.39 15.85 201.38 15.91 201.35 15.96 201.36 16.04 201.33 16.02 201.31 16.02 201.28 16.06 201.25 16.1 201.16 16.07 201.16 16.02 201.11 16.02 201.1 16 201.08 16 201.06 15.99 201.06 15.98 201.03 15.97 201.02 15.99 200.99 16.03 201 16.04 200.99 16.07 200.98 16.18 200.98 16.22 200.96 16.25 200.96 16.31 200.93 16.3 200.91 16.35 200.9 16.37 200.88 16.42 200.89 16.44 200.87 16.56 200.86 16.59 200.85 16.61 200.85 16.69 200.83 16.74 200.79 16.76 200.8 16.81 200.77 16.85 200.79 16.86 200.78 16.85 200.76 16.87 200.76 16.89 200.73 16.9 200.73 16.91 200.7 16.93 200.71 16.92 200.7 16.95 200.68 16.99 200.72 17.05 200.74 17.18 200.74 17.38 200.71 17.41 200.73 17.48 200.72 17.49 200.69 17.52 200.69 17.5 200.68 17.51 200.66 17.53 200.66 17.53 200.64 17.56 200.64 17.64 200.59 17.68 200.58 17.7 200.58 17.72 200.55 17.81 200.53 17.91 200.47 17.91 200.45 17.93 200.42 18.02 200.4 18.05 200.37 18.05 200.36 18.1 200.34 18.09 200.32 18.1 200.31 18.11 200.26 18.12 200.24 18.11 200.23 18.12 200.2 18.14 200.19 18.18 200.2 18.26 200.17 18.22 200.1 18.21 200.06 18.22 200.05 18.17 199.96 18.1 199.97 18.15 199.88 18.14 199.83 18.08 199.81 17.95 199.75 17.93 199.72 17.93 199.71 17.9 199.7 17.91 199.69 17.9 199.68 17.89 199.66 17.87 199.61 17.88 199.51 17.83 199.44 17.85 199.41 17.83 199.37 17.8 199.35 17.79 199.22 17.72 199.16 17.56 199.16 17.53 199.15 17.48 199.08 17.48 199.06 17.47 199.02 17.43 199 17.41 198.94 17.42 198.91 17.43 198.9 17.43 198.88 17.44 198.87 17.44 198.83 17.44 198.82 17.43 198.8 17.41 198.81 17.41 198.79 17.4 198.78 17.48 198.73 17.5 198.69 17.46 198.68 17.46 198.66 17.42 198.54 17.39 198.54 17.39 198.54 17.4 198.53 17.37 198.5 17.34 198.5 17.32 198.47 17.29 198.46 17.28 198.48 17.26 198.48 17.25 198.47 17.21 198.48 17.18 198.46 17.18 198.44 17.14 198.41 17.14 198.39 17.15 198.38 17.17 198.35 17.18 198.35 17.18 198.35 17.19 198.35 17.21 198.29 17.22 198.29 17.23 198.26 17.22 198.22 17.2 198.18 17.17 198.19 17.16 198.14 17.18 198.13 17.19 198.11 17.19 198.04 17.23 198.02 17.24 198 17.23 197.99 17.26 197.97 17.25 197.94 17.24 197.93 17.3 197.9 17.36 197.91 17.39 197.89 17.42 197.88 17.49 197.9 17.51 197.85 17.51 197.8 17.48 197.79 17.45 197.73 17.43 197.71 17.42 197.71 17.42 197.7 17.41 197.69 17.42 197.67 17.42 197.65 17.45 197.64 17.43 197.62 17.45 197.61 17.45 197.59 17.41 197.56 17.41 197.52 17.4 197.51 17.4 197.5 17.42 197.51 17.46 197.47 17.48 197.47 17.5 197.44 17.53 197.45 17.55 197.43 17.54 197.42 17.56 197.39 17.59 197.4 17.61 197.38 17.62 197.39 17.67 197.39 17.67 197.4 17.71 197.4 17.74 197.38 17.78 197.38 17.78 197.37 17.79 197.38 17.8 197.35 17.83 197.35 17.88 197.38 17.93 197.36 17.93 197.34 17.98 197.35 18.06 197.39 18.08 197.4 18.18 197.41 18.2 197.36 18.18 197.35 18.2 197.33 18.2 197.29 18.21 197.26 18.2 197.24 18.21 197.22 18.23 197.16 18.2 197.11 18.2 197.07 18.21 197.02 18.25 196.99 18.23 196.87 18.19 196.84 18.18 196.79 18.1 196.74 18.15 196.66 18.18 196.65 18.2 196.6 18.2 196.58 18.23 196.57 18.23 196.49 18.21 196.44 18.17 196.39 18.12 196.38 18.09 196.32 18.07 196.32 18.09 196.3 18.07 196.29 17.99 196.27 17.95 196.27 17.9 196.27 17.89 196.27 17.87 196.25 17.86 196.26 17.83 196.24 17.81 196.17 17.79 196.17 17.74 196.12 17.72 196.12 17.73 196.05 17.7 196 17.68 195.95 17.66 195.93 17.66 195.92 17.65 195.88 17.65 195.87 17.71 195.84 17.73 195.84 17.75 195.82 17.77 195.82 17.81 195.69 17.79 195.66 17.8 195.62 17.82 195.6 17.82 195.54 17.84 195.46 17.84 195.39 17.86 195.34 17.87 195.24 17.87 195.18 17.85 195.17 17.85 195.15 17.86 195.11 17.86 195.08 17.83 195.04 17.83 195.04 17.81 194.9 17.82 194.89 17.78 194.9 17.75 194.9 17.73 194.92 17.72 194.93 17.7 194.91 17.61 194.89 17.6 194.87 17.55 194.83 17.45 194.8 17.4 194.78 17.39 194.79 17.33 194.75 17.27 194.7 17.25 194.69 17.2 194.65 17.19 194.64 17.18 194.63 17.18 194.59 17.21 194.58 17.25 194.6 17.27 194.6 17.31 194.65 17.37 194.69 17.39 194.68 17.44 194.69 17.45 194.7 17.45 194.68 17.53 194.67 17.53 194.64 17.54 194.63 17.59 194.59 17.67 194.56 17.74 194.56 17.8 194.52 17.85 194.58 17.89 194.58 17.91 194.57 17.94 194.59 17.95 194.67 18 194.7 18.01 194.72 18.06 194.77 18.09 194.77 18.09 194.78 18.19 194.84 18.2 194.87 18.36 194.93 18.45 194.94 18.49 194.97 18.54 194.98 18.61 195 18.63 195 18.66 195.01 18.77 195.04 18.79 195.05 18.84 195.12 18.87 195.13 18.95 195.15 19 195.15 19.01 195.14 19.05 195.14 19.06 195.15 19.04 195.15 19.06 195.15 19.09 195.13 19.14 195.16 19.21 195.21 19.26 195.23 19.31 195.22 19.35 195.19 19.39 195.2 19.44 195.16 19.5 195.16 19.56 195.14 19.59 195.15 19.73 195.15 19.84 195.14 19.94 195.15 19.95 195.12 19.9 195.05 19.91 195.01 19.95 195.01 20.12 194.91 20.14 194.89 20.14 194.87 20.16 194.85 20.16 194.83 20.19 194.82 20.24 194.77 20.28 194.75 20.29 194.76 20.31 194.75 20.38 194.68 20.41 194.67 20.46 194.59 20.46 194.52 20.41 194.46 20.42 194.42 20.41 194.41 20.43 194.32 20.43 194.31 20.42 194.31 20.41 194.28 20.42 194.23 20.41 194.22 20.43 194.2 20.41 194.17 20.43 194.15 20.44 194.13 20.38 194.03 20.37 193.95 20.31 193.93 20.25 193.88 20.22 193.88 20.18 193.86 20.22 193.75 20.22 193.67 20.21 193.65 20.23 193.65 20.26 193.63 20.31 193.57 20.35 193.54 20.39 193.49 20.38 193.47 20.41 193.46 20.45 193.42 20.45 193.4 20.5 193.34 20.5 193.33 20.53 193.3 20.53 193.27 20.57 193.22 20.61 193.18 20.67 193.17 20.72 193.11 20.75 193.12 20.78 193.08 20.8 193.09 20.83 193.07 20.83 193.01 20.87 193.02 20.88 193 20.9 192.99 20.91 192.96 20.92 192.97 20.95 192.96 20.98 192.97 21.03 192.95 21.14 192.98 21.16 192.96 21.16 192.95 21.15 192.92 21.14 192.83 21.17 192.81 21.16 192.79 21.17 192.77 21.22 192.76 21.31 192.77 21.33 192.78 21.36 192.84 21.4 192.8 21.48 192.86 21.49 192.84 21.48 192.84 21.49 192.81 21.47 192.71 21.41 192.61 21.4 192.53 21.5 192.37 21.61 192.33 21.63 192.3 21.65 192.29 21.68 192.3 21.72 192.29 21.74 192.28 21.76 192.29 21.77 192.29 21.8 192.17 21.88 192.13 21.89 192.12 21.91 192.1 21.92 192 21.91 191.98 21.97 191.95 21.97 191.92 22 191.92 22 191.9 21.99 191.88 22.01 191.81 22.03 191.77 22.04 191.75 22.07 191.69 22.05 191.65 22.05 191.6 22.04 191.56 22.14 191.4 22.16 191.44 22.24 191.45 22.27 191.41 22.36 191.37 22.47 191.31 22.54 191.29 22.58 191.29 22.63 191.27 22.77 191.22 22.81 191.19 22.85 191.19 22.86 191.14 22.87 191.14 22.89 191.15 22.91 191.12 22.95 191.13 23 191.11 23.03 191.12 23.06 191.15 23.14 191.16 23.16 191.14 23.24 191.16 23.26 191.15 23.27 191.14 23.34 191.15 23.43 191.15 23.42 191.16 23.44 191.16 23.44 191.15 23.5 191.16 23.62 191.18 23.66 191.16 23.69 191.15 23.72 191.15 23.76 191.1 23.84 191.09 23.94 191.02 23.98 191.02 24.03 191.02 24.07 191.01 24.13 191 24.16 191.02 24.19 191.01 24.18 191.01 24.19 190.99 24.21 191 24.22 190.96 24.25 190.92 24.28 190.91 24.28 190.9 24.3 190.9 24.28 190.88 24.27 190.82 24.28 190.81 24.26 190.79 24.28 190.76 24.29 190.76 24.3 190.79 24.35 190.79 24.37 190.75 24.4 190.74 24.49 190.75 24.5 190.73 24.63 190.74 24.71 190.71 24.79 190.72 24.78 190.72 24.79 190.74 24.83 190.75 24.83 190.7 24.84 190.68 24.81 190.64 24.83 190.6 24.87 190.58 24.9 190.58 24.89 190.57 24.91 190.56 24.95 190.55 25.01 190.55 25.12 190.56 25.1 190.52 25.11 190.5 25.09 190.47 25.11 190.45 25.16 190.44 25.2 190.33 25.24 190.34 25.28 190.34 25.27 190.27 25.28 190.26 25.27 190.24 25.33 190.23 25.42 190.25 25.47 190.2 25.51 190.18 25.49 190.14 25.55 190.08 25.55 190.02 25.57 189.99 25.56 189.94 25.61 189.89 25.62 189.86 25.62 189.83 25.61 189.82 25.61 189.81 25.64 189.78 25.71 189.72 25.74 189.68 25.61 189.63 25.61 189.62 25.53 189.59 25.45 189.58 25.39 189.55 25.38 189.54 25.39 189.47 25.41 189.43 25.41 189.41 25.43 189.4 25.4 189.38 25.4 189.35 25.39 189.35 25.34 189.33 25.3 189.34 25.23 189.32 25.11 189.3 25.06 189.29 25.04 189.25 25.03 189.25 25.01 189.25 24.99 189.26 25 189.26 25 189.27 24.98 189.28 24.89 189.28 24.86 189.27 24.84 189.24 24.86 189.24 24.85 189.21 24.86 189.2 24.85 189.16 24.86 189.14 24.91 189.11 24.96 189.11 24.95 189.08 25.01 189.01 25.01 188.99 25.03 188.97 25.01 188.91 24.89 188.91 24.87 188.92 24.82 188.92 24.79 188.88 24.77 188.83 24.76 188.83 24.76 188.8 24.74 188.8 24.73 188.78 24.78 188.77 25.01 188.74 25.02 188.71 25.08 188.64 25.08 188.57 25.09 188.49 25.13 188.46 25.11 188.45 25.12 188.44 25.12 188.39 25.13 188.38 25.16 188.37 25.17 188.33 25.18 188.23 25.17 188.22 25.25 188.18 25.3 188.17 25.33 188.14 25.33 188.11 25.3 188.05 25.3 188 25.27 187.95 25.26 187.93 25.22 187.9 25.2 187.88 25.23 187.85 25.23 187.82 25.21 187.8 25.24 187.73 25.14 187.68 25.12 187.68 25.11 187.65 25.1 187.65 25.09 187.61 25.04 187.55 24.99 187.54 24.91 187.5 24.83 187.47 24.67 187.46 24.59 187.43 24.54 187.43 24.54 187.4 24.56 187.36 24.56 187.34 24.6 187.31 24.6 187.29 24.63 187.29 24.65 187.27 24.67 187.27 24.68 187.25 24.68 187.25 24.7 187.24 24.67 187.14 24.68 187.13 24.74 187.13 24.84 187.14 24.86 187.1 24.89 187.1 24.93 187.07 24.96 186.96 25.02 186.95 25.06 186.93 25.16 186.92 25.18 186.9 25.34 186.88 25.32 186.86 25.34 186.85 25.33 186.84 25.29 186.83 25.29 186.81 25.27 186.79 25.27 186.78 25.28 186.78 25.35 186.76 25.35 186.7 25.33 186.69 25.32 186.64 25.32 186.6 25.33 186.58 25.36 186.55 25.41 186.52 25.42 186.47 25.46 186.44 25.48 186.38 25.51 186.35 25.58 186.32 25.61 186.33 25.65 186.36 25.7 186.34 25.72 186.25 25.73 186.24 25.74 186.21 25.72 186.19 25.74 186.17 25.8 186.08 25.85 186.06 25.87 186.06 25.9 186.05 25.9 186.02 25.9 186.01 25.99 185.95 26.02 185.94 26.08 185.89 26.16 185.9 26.23 185.91 26.28 185.89 26.3 185.82 26.3 185.75 26.37 185.72 26.32 185.69 26.3 185.68 26.28 185.7 26.25 185.68 26.25 185.67 26.35 185.48 26.34 185.45 26.31 185.44 26.27 185.38 26.24 185.37 26.24 185.35 26.2 185.33 26.2 185.31 26.18 185.3 26.15 185.24 26.15 185.23 26.13 185.19 26.13 185.19 26.12 185.16 26.1 185.15 26.1 185.14 26.08 185.12 26.09 185.1 26.11 185.09 26.12 185.07 26.15 185.08 26.19 185.04 26.13 184.92 26.15 184.91 26.21 184.9 26.23 184.89 26.25 184.88 26.27 184.86 26.27 184.83 26.28 184.84 26.33 184.75 26.33 184.69 26.27 184.67 26.27 184.65 26.29 184.65 26.28 184.59 26.29 184.58 26.3 184.55 26.29 184.49 26.37 184.47 26.4 184.43 26.41 184.44 26.44 184.43 26.54 184.41 26.55 184.39 26.54 184.38 26.6 184.33 26.64 184.33 26.66 184.29 26.64 184.28 26.71 184.24 26.78 184.25 26.85 184.24 26.94 184.25 26.95 184.23 26.99 184.09 26.96 184.06 27.01 184.06 27.01 184.03 27.05 184.03 27.14 184.07 27.27 184.09 27.44 184.18 27.5 184.18 27.59 184.2 27.69 184.27 27.69 184.3 27.72 184.36 27.81 184.38 27.85 184.41 27.86 184.43 27.92 184.45 27.96 184.52 28 184.56 28.01 184.62 28.05 184.7 28.18 184.82 28.16 184.91 28.17 184.93 28.17 184.96 28.18 184.99 28.28 184.99 28.33 185.03 28.38 185.04 28.39 185.06 28.43 185.06 28.53 185.12 28.54 185.14 28.59 185.15 28.61 185.17 28.61 185.19 28.69 185.25 28.68 185.26 28.7 185.27 28.69 185.31 28.7 185.33 28.69 185.35 28.73 185.36 28.74 185.38 28.76 185.39 28.78 185.43 28.81 185.43 28.81 185.5 28.79 185.52 28.79 185.54 28.81 185.54 28.81 185.61 28.84 185.61 28.83 185.62 28.88 185.68 28.91 185.74 29.01 185.79 29.04 185.82 29.06 185.85 29.09 185.86 29.16 185.91 29.21 185.91 29.25 185.93 29.26 185.92 29.39 185.92 29.46 185.9 29.48 185.9 29.48 185.91 29.51 185.91 29.52 185.9 29.53 185.9 29.54 185.91 29.59 185.9 29.59 185.89 29.61 185.89 29.63 185.91 29.64 185.9 29.66 185.9 29.72 185.96 29.73 185.95 29.75 185.97 29.79 185.96 29.82 185.96 29.89 186.02 29.91 186.02 29.92 186.03 29.96 186.03 30 186.03 30.03 186.04 30.1 186.03 30.15 186.01 30.17 186.04 30.23 186.06 30.32 186.08 30.37 186.11 30.41 186.11 30.43 186.12 30.44 186.11 30.46 186.12 30.51 186.13 30.51 186.12 30.53 186.12 30.54 186.11 30.56 186.11 30.63 186.1 30.75 186.11 30.78 186.1 30.81 186.15 30.85 186.17 30.97 186.17 31.02 186.19 31.04 186.18 31.11 186.21 31.22 186.22 31.32 186.25 31.36 186.25 31.39 186.27 31.46 186.25 31.55 186.27 31.57 186.25 31.6 186.24 31.71 186.23 31.78 186.24 31.8 186.23 31.83 186.25 31.91 186.26 31.91 186.27 31.95 186.28 32.01 186.28 32.05 186.25 32.07 186.25 32.16 186.22 32.21 186.22 32.3 186.18 32.34 186.15 32.41 186.16 32.42 186.15 32.45 186.16 32.47 186.16 32.5 186.16 32.56 186.12 32.6 186.12 32.6 186.11 32.65 186.09 32.64 186.09 32.64 186.08 32.68 186.05 32.71 186.05 32.78 186.02 32.78 186.06 32.79 186.06 32.8 186.09 32.88 186.09 32.88 186.11 32.91 186.13 32.97 186.11 33.01 186.15 33.01 186.17 33.04 186.16 33.07 186.18 33.11 186.18 33.13 186.17 33.13 186.15 33.15 186.13 33.19 186.11 33.19 186.13 33.21 186.15 33.21 186.17 33.28 186.2 33.33 186.2 33.33 186.21 33.34 186.21 33.36 186.22 33.4 186.22 33.49 186.24 33.56 186.23 33.59 186.23 33.61 186.22 33.64 186.22 33.68 186.24 33.8 186.23 33.81 186.22 33.83 186.24 33.91 186.23 33.92 186.25 33.95 186.26 33.96 186.27 34 186.27 34.05 186.28 34.1 186.33 34.18 186.31 34.24 186.31 34.29 186.29 34.34 186.29 34.4 186.27 34.5 186.25 34.58 186.3 34.63 186.29 34.68 186.29 34.7 186.33 34.79 186.38 34.8 186.37 34.81 186.37 34.82 186.36 34.87 186.36 34.88 186.35 34.9 186.35 34.93 186.34 34.97 186.35 34.99 186.36 35.04 186.38 35.07 186.38 35.12 186.36 35.19 186.37 35.19 186.44 35.2 186.47 35.18 186.51 35.19 186.52 35.17 186.54 35.18 186.59 35.22 186.62 35.22 186.68 35.19 186.72 35.18 186.72 35.18 186.76 35.13 186.72 35.1 186.72 35.09 186.73 35.05 186.75 35.04 186.74 35.03 186.75 35.01 186.75 35.01 186.77 34.98 186.81 34.98 186.82 34.97 186.81 34.89 186.84 34.88 186.86 34.88 186.87 34.86 186.9 34.81 186.91 34.79 186.91 34.77 186.92 34.68 186.94 34.72 186.96 34.71 186.97 34.68 186.98 34.64 186.97 34.63 186.98 34.6 186.98 34.53 186.97 34.53 186.98 34.48 186.98 34.51 187.01 34.51 187.06 34.58 187.11 34.72 187.14 34.77 187.13 34.81 187.14 34.89 187.12 34.96 187.12 34.98 187.16 35.01 187.17 35.03 187.17 35.11 187.21 35.14 187.22 35.15 187.23 35.17 187.22 35.2 187.23 35.21 187.27 35.24 187.28 35.26 187.29 35.35 187.28 35.39 187.31 35.43 187.32 35.44 187.33 35.39 187.36 35.34 187.37 35.35 187.39 35.35 187.47 35.45 187.57 35.47 187.61 35.45 187.65 35.47 187.68 35.51 187.68 35.51 187.72 35.54 187.79 35.55 187.82 35.59 187.86 35.64 187.89 35.68 187.89 35.73 187.89 35.78 187.86 35.8 187.87 35.84 187.89 35.86 187.92 35.92 187.94 36 187.91 36.04 187.92 36.06 187.95 36.13 187.97 36.21 187.99 36.25 188.02 36.26 188.07 36.27 188.09 36.26 188.12 36.31 188.16 36.3 188.19 36.41 188.22 36.46 188.25 36.49 188.26 36.52 188.29 36.55 188.3 36.56 188.31 36.61 188.34 36.62 188.38 36.65 188.38 36.7 188.43 36.71 188.44 36.71 188.45 36.76 188.46 36.78 188.5 36.83 188.54 36.88 188.55 36.9 188.57 36.92 188.55 37.05 188.57 37.09 188.56 37.12 188.53 37.15 188.53 37.17 188.51 37.22 188.5 37.28 188.57 37.34 188.59 37.36 188.61 37.42 188.61 37.51 188.65 37.56 188.7 37.59 188.71 37.63 188.74 37.67 188.79 37.78 188.81 37.82 188.84 37.9 188.87 37.93 188.89 37.96 188.89 37.98 188.92 38.03 188.92 38.1 188.94 38.1 188.93 38.15 188.95 38.18 188.94 38.17 188.93 38.19 188.93 38.24 188.94 38.41 188.93 38.47 188.93 38.49 188.92 38.52 188.92 38.64 188.94 38.64 188.95 38.7 188.96 38.93 189 38.99 188.99 39.02 189.01 39.06 189 39.12 189.02 39.15 189.02 39.2 189.04 39.28 189.04 39.35 189.01 39.37 189.02 39.4 189 39.47 189 39.5 188.99 39.54 189.01 39.59 189 39.63 189.01 39.63 189.02 39.7 189.03 39.74 189.08 39.73 189.15 39.76 189.15 39.75 189.18 39.76 189.21 39.85 189.21 39.94 189.23 40.09 189.22 40.22 189.22 40.34 189.22 40.4 189.23 40.55 189.25 40.58 189.24 40.57 189.17 40.59 189.12 40.58 189.1 40.59 189.07 40.57 189.05 40.58 189.02 40.64 189.02 40.71 188.95 40.75 188.81 40.76 188.81 40.77 188.79 40.76 188.75 40.78 188.74 40.81 188.75 40.84 188.72 40.88 188.71 40.9 188.69 40.9 188.67 40.86 188.64 40.88 188.63 40.9 188.54 40.85 188.5 40.83 188.45 40.85 188.44 40.85 188.43 40.92 188.4 40.91 188.35 40.93 188.32 40.96 188.33 41.02 188.3 41.04 188.3 41.08 188.33 41.12 188.32 41.14 188.29 41.16 188.29 41.2 188.3 41.24 188.34 41.29 188.34 41.37 188.37 41.38 188.35 41.42 188.33 41.49 188.34 41.51 188.36 41.56 188.35 41.71 188.36 41.8 188.33 41.81 188.31 41.83 188.3 41.9 188.31 41.97 188.29 42.02 188.27 42.06 188.27 42.05 188.18 42.07 188.15 42.08 188.14 42.08 188.13 42.04 188.12 42.03 188.07 42.04 188.05 42.08 188.04 42.07 188.02 42.1 188.02 42.09 187.99 42.07 187.98 42.08 187.96 42.11 187.96 42.09 187.93 42.06 187.93 42.02 187.9 42.04 187.87 42.03 187.84 42.01 187.82 42.05 187.8 42.06 187.78 42.12 187.78 42.13 187.77 42.18 187.7 42.19 187.64 42.22 187.64 42.24 187.61 42.28 187.58 42.28 187.56 42.3 187.55 42.32 187.49 42.35 187.43 42.36 187.4 42.35 187.38 42.33 187.33 42.28 187.27 42.28 187.25 42.3 187.23 42.26 187.19 42.22 187.16 42.22 187.14 42.27 187.07 42.29 187 42.28 186.97 42.29 186.95 42.27 186.9 42.32 186.89 42.34 186.87 42.36 186.83 42.37 186.83 42.37 186.78 42.4 186.73 42.37 186.73 42.37 186.71 42.35 186.71 42.33 186.66 42.27 186.65 42.29 186.63 42.27 186.6 42.27 186.6 42.22 186.6 42.19 186.55 42.17 186.5 42.18 186.42 42.15 186.39 42.15 186.35 42.17 186.33 42.12 186.29 42.13 186.23 42.12 186.2 42.17 186.18 42.28 186.2 42.29 186.19 42.35 186.16 42.43 186.18 42.44 186.19 42.54 186.21 42.59 186.19 42.57 186.13 42.6 186.08 42.7 186.08 42.72 186.08 42.73 186.1 42.78 186.12 42.81 186.07 42.79 186.03 42.86 185.98 42.87 185.94 42.89 185.93 42.9 185.9 42.88 185.86 42.83 185.83 42.84 185.81 42.83 185.79 42.85 185.76 42.84 185.74 42.84 185.71 42.83 185.69 42.84 185.66 42.87 185.63 42.87 185.59 42.86 185.57 42.89 185.51 42.84 185.5 42.79 185.5 42.74 185.48 42.71 185.48 42.68 185.5 42.58 185.48 42.56 185.45 42.55 185.32 42.52 185.3 42.48 185.17 42.51 185.16 42.57 185.08 42.57 185.06 42.59 185.07 42.61 185.06 42.68 185.04 42.68 185 42.7 185 42.76 184.97 42.83 184.9 42.83 184.88 42.81 184.87 42.87 184.85 42.94 184.81 42.98 184.81 43 184.8 43.05 184.79 43.18 184.73 43.21 184.76 43.25 184.77 43.26 184.79 43.27 184.81 43.34 184.82 43.44 184.81 43.55 184.78 43.59 184.77 43.59 184.76 43.64 184.73 43.68 184.73 43.73 184.76 43.9 184.76 43.97 184.84 44.01 184.83 44.04 184.84 44.07 184.82 44.14 184.83 44.18 184.79 44.2 184.75 44.19 184.73 44.25 184.69 44.25 184.66 44.31 184.66 44.34 184.64 44.39 184.66 44.48 184.65 44.51 184.67 44.59 184.67 44.65 184.63 44.68 184.58 44.74 184.54 44.92 184.57 44.95 184.54 44.97 184.54 44.99 184.52 45.03 184.52 45.06 184.53 45.08 184.55 45.1 184.55 45.2 184.55 45.25 184.53 45.3 184.54 45.34 184.54 45.38 184.52 45.45 184.54 45.53 184.53 45.57 184.54 45.63 184.54 45.7 184.55 45.72 184.53 45.8 184.53 45.82 184.51 45.91 184.49 45.97 184.49 46.03 184.51 46.14 184.35 46.18 184.31 46.25 184.29 46.3 184.25 46.34 184.24 46.34 184.21 46.36 184.18 46.37 184.12 46.4 184.1 46.42 184.07 46.49 184.02 46.54 184.02 46.54 183.96 46.55 183.92 46.58 183.87 46.62 183.85 46.63 183.81 46.65 183.81 46.68 183.78 46.72 183.77 46.8 183.78 46.91 183.69 46.99 183.66 47.1 183.65 47.15 183.62 47.21 183.63 47.23 183.64 47.28 183.62 49.7 183.35 50.4 179.97 49.16 179.4 50.14 175.25 50.1 175.27 49.98 175.26 49.95 175.26 49.92 175.27 49.88 175.28 49.84 175.27 49.77 175.31 49.75 175.31 49.71 175.3 49.68 175.27 49.69 175.27 49.64 175.26 49.6 175.24 49.54 175.19 49.5 175.18 49.45 175.21 49.43 175.2 49.4 175.17 49.29 175.12 49.18 175.03 49.19 175.02 49.14 174.97 49.13 174.94 49.1 174.92 49.11 174.89 49.09 174.86 49.11 174.83 49.1 174.83 49.1 174.8 49.07 174.78 49.07 174.74 49.04 174.71 49.05 174.68 49.05 174.67 49.06 174.61 49.04 174.59 49.06 174.56 49.02 174.52 48.98 174.51 48.97 174.5 48.89 174.46 48.88 174.42 48.9 174.41 48.89 174.37 48.87 174.33 48.87 174.31 48.89 174.25 48.89 174.24 48.87 174.24 48.88 174.18 48.99 174.13 49.08 174.12 49.11 174.11 49.15 174.11 49.22 174.09 49.25 174.01 49.24 173.95 49.21 173.91 49.25 173.88 49.3 173.87 49.3 173.85 49.37 173.84 49.47 173.84 49.47 173.74 49.49 173.74 49.5 173.71 49.49 173.7 49.49 173.69 49.43 173.67 49.41 173.66 49.41 173.64 49.44 173.63 49.43 173.6 49.4 173.57 49.41 173.52 49.44 173.51 49.44 173.49 49.42 173.43 49.43 173.4 49.41 173.36 49.43 173.35 49.44 173.34 49.34 173.34 49.28 173.32 49.2 173.32 49.15 173.32 49.12 173.29 49.03 173.24 49 173.22 48.95 173.23 48.9 173.27 48.88 173.26 48.86 173.18 48.82 173.14 48.8 173.08 48.81 173.07 48.8 173.06 48.8 173.05 48.82 173.04 48.8 173.03 48.8 173 48.76 172.99 48.75 172.98 48.76 172.98 48.72 172.95 48.74 172.92 48.76 172.92 48.77 172.9 48.8 172.89 48.81 172.87 48.81 172.86 48.78 172.85 48.76 172.76 48.83 172.75 48.85 172.72 48.88 172.72 48.89 172.71 48.9 172.69 48.91 172.67 48.89 172.67 48.88 172.66 48.9 172.65 48.87 172.65 48.9 172.58 48.93 172.55 48.95 172.56 48.97 172.56 48.98 172.52 49 172.5 48.99 172.49 49.01 172.49 49.04 172.47 49.02 172.45 48.99 172.45 48.97 172.46 48.95 172.47 48.94 172.47 48.91 172.48 48.92 172.45 48.91 172.45 48.92 172.43 48.89 172.43 48.89 172.41 48.92 172.39 48.94 172.36 48.94 172.34 48.96 172.33 48.95 172.31 48.94 172.31 48.89 172.28 48.92 172.25 48.87 172.24 48.85 172.13 48.8 172.02 48.83 171.99 48.82 171.98 48.83 171.97 48.86 171.97 48.86 171.96 48.84 171.95 48.86 171.92 48.85 171.89 48.88 171.84 48.92 171.81 48.97 171.79 48.99 171.8 48.98 171.77 49 171.76 48.94 171.73 48.94 171.71 48.91 171.68 48.9 171.67 48.88 171.64 48.89 171.63 48.86 171.6 48.88 171.59 48.9 171.57 48.97 171.55 49.04 171.42 49.05 171.42 49.06 171.38 49.06 171.37 49.09 171.36 49.11 171.34 49.17 171.33 49.22 171.35 49.23 171.36 49.26 171.37 49.26 171.38 49.39 171.4 49.44 171.44 49.45 171.47 49.52 171.49 49.54 171.5 49.6 171.51 49.61 171.49 49.66 171.48 49.74 171.49 49.77 171.52 49.86 171.52 49.91 171.54 49.96 171.54 49.96 171.56 50.07 171.6 50.08 171.61 50.08 171.59 50.11 171.57 50.14 171.57 50.2 171.59 50.25 171.59 50.33 171.63 50.36 171.6 50.36 171.57 50.41 171.54 50.42 171.52 50.45 171.5 50.48 171.5 50.49 171.47 50.54 171.44 50.55 171.42 50.58 171.38 50.61 171.37 50.61 171.32 50.63 171.31 50.63 171.26 50.64 171.25 50.63 171.24 50.65 171.23 50.66 171.22 50.71 171.19 50.74 171.19 50.74 171.13 50.76 171.09 50.76 171.06 50.73 171.02 50.74 171.01 50.73 170.96 50.71 170.91 50.7 170.84 50.71 170.8 50.77 170.78 50.8 170.74 50.8 170.68 50.83 170.65 50.91 170.59 50.96 170.59 50.99 170.56 51.04 170.54 51.13 170.49 51.17 170.41 51.18 170.37 51.16 170.33 51.17 170.29 51.18 170.29 51.19 170.27 51.26 170.2 51.25 170.17 51.19 170.13 51.17 170.09 51.14 170.06 51.17 170.05 51.18 170 51.19 169.95 51.17 169.89 51.18 169.86 51.17 169.86 51.17 169.83 51.16 169.82 51.2 169.7 51.19 169.66 51.17 169.62 51.13 169.6 51.1 169.57 51.07 169.56 51.03 169.55 51.07 169.52 51.08 169.48 51.08 169.46 51.05 169.44 51.05 169.4 51.11 169.41 51.12 169.4 51.18 169.4 51.18 169.38 51.16 169.36 51.16 169.35 51.13 169.34 51.14 169.32 51.13 169.31 51.15 169.28 51.13 169.27 51.15 169.21 51.2 169.14 51.14 169.13 51.12 169.1 51.13 169 51.14 168.96 51.17 168.93 51.17 168.89 51.14 168.88 51.11 168.83 51.09 168.83 51.09 168.81 51.02 168.77 50.99 168.76 50.97 168.72 50.97 168.67 50.94 168.66 50.98 168.62 50.97 168.61 50.98 168.57 50.97 168.56 50.94 168.55 50.93 168.52 50.95 168.47 51.01 168.43 51.03 168.39 51.01 168.36 50.97 168.35 50.98 168.34 50.95 168.31 50.95 168.27 50.98 168.24 51.02 168.22 51.03 168.15 51.07 168.13 51.05 168.12 51.05 168.1 51.08 168.1 51.11 168.03 51.15 167.97 51.15 167.93 51.29 167.95 51.39 167.93 51.46 167.94 51.49 167.96 51.54 167.95 51.62 167.92 51.67 167.92 51.75 167.9 51.77 167.88 51.84 167.87 51.87 167.85 51.88 167.83 51.94 167.79 51.96 167.74 52.11 167.7 52.18 167.7 52.21 167.68 52.16 167.64 52.13 167.54 52.11 167.54 52.09 167.52 52.09 167.5 52.06 167.48 52 167.46 51.97 167.41 51.99 167.32 51.99 167.28 51.88 167.22 51.82 167.16 51.72 167.12 51.66 167.12 51.65 167.1 51.64 167.08 51.67 167.05 51.67 167.03 51.66 167.03 51.64 167 51.74 166.98 51.73 166.93 51.69 166.92 51.68 166.86 51.67 166.84 51.61 166.84 51.6 166.8 51.56 166.74 51.52 166.71 51.51 166.69 51.52 166.63 51.55 166.62 51.53 166.58 51.55 166.57 51.55 166.53 51.6 166.51 51.6 166.46 51.63 166.37 51.62 166.33 51.54 166.28 51.48 166.24 51.44 166.25 51.42 166.23 51.39 166.23 51.34 166.21 51.2 166.17 51.11 166.15 51.09 166.16 51.07 166.12 51.01 166.1 50.93 166.09 50.81 166.05 50.7 166.06 50.62 166.04 50.6 165.95 50.6 165.93 50.59 165.92 50.47 165.92 50.43 165.89 50.23 165.88 50.16 165.85 50.13 165.85 50.11 165.88 50.07 165.88 49.99 165.86 49.95 165.83 49.93 165.83 49.88 165.8 49.73 165.77 49.65 165.77 49.63 165.75 49.6 165.75 49.49 165.87 49.44 165.86 49.43 165.82 49.44 165.82 49.42 165.78 49.32 165.72 49.33 165.7 49.26 165.64 49.29 165.54 49.31 165.49 49.34 165.47 49.33 165.45 49.32 165.45 49.33 165.41 49.32 165.38 49.34 165.32 49.32 165.28 49.34 165.24 49.34 165.2 49.4 165.1 49.45 164.96 49.36 164.93 49.35 164.92 49.28 164.91 49.28 164.86 49.3 164.85 49.29 164.83 49.31 164.81 49.29 164.79 49.26 164.75 49.24 164.74 49.23 164.71 49.3 164.68 49.47 164.66 49.55 164.63 49.59 164.64 49.67 164.62 49.71 164.59 49.72 164.54 49.82 164.52 49.98 164.53 49.99 164.52 49.99 164.49 50.06 164.48 50.06 164.47 50.13 164.48 50.12 164.31 50.14 164.27 50.14 164.2 50.1 164.15 50.1 164.12 50.07 164.06 50.07 164.03 50.03 163.97 50.04 163.94 49.89 163.95 49.88 163.91 49.91 163.88 50.05 163.85 50.08 163.78 50.06 163.78 50.07 163.72 50.07 163.67 50.1 163.67 50.13 163.61 50.15 163.61 50.16 163.59 50.15 163.58 50.22 163.55 50.25 163.56 50.29 163.49 50.31 163.49 50.31 163.48 50.37 163.44 50.4 163.45 50.44 163.42 50.43 163.37 50.47 163.29 50.47 163.26 50.14 163.26 49.92 163.24 49.73 163.24 49.66 163.23 49.7 163.21 49.73 163.16 49.79 163.15 49.81 163.11 50 163.08 50.08 163.08 50.18 163.07 50.31 163.05 50.31 163.01 50.3 162.98 50.37 162.93 50.36 162.9 50.37 162.86 50.39 162.85 50.35 162.78 50.37 162.77 50.36 162.7 50.35 162.69 50.37 162.66 50.35 162.59 50.3 162.59 50.25 162.63 50.21 162.64 50.21 162.65 50.19 162.65 50.18 162.67 50.17 162.67 50.15 162.64 50.06 162.65 50.05 162.67 50.02 162.66 50.01 162.66 49.97 162.69 49.93 162.69 49.93 162.7 49.91 162.69 49.88 162.71 49.85 162.7 49.82 162.67 49.78 162.66 49.69 162.7 49.68 162.72 49.62 162.75 49.59 162.77 49.49 162.75 49.42 162.78 49.4 162.77 49.34 162.75 49.3 162.76 49.2 162.74 49.16 162.71 49.08 162.73 49.03 162.75 49 162.74 48.93 162.75 48.85 162.71 48.81 162.71 48.8 162.73 48.78 162.69 48.8 162.68 48.81 162.64 48.8 162.62 48.78 162.62 48.69 162.63 48.66 162.57 48.6 162.56 48.63 162.54 48.58 162.52 48.55 162.54 48.49 162.53 48.44 162.45 48.41 162.4 48.39 162.36 48.4 162.35 48.37 162.33 48.37 162.3 48.38 162.26 48.36 162.25 48.35 162.26 48.32 162.26 48.24 162.21 48.16 162.19 48.12 162.14 48.08 162.11 48.07 162.08 48.06 162.06 48.01 162.06 47.92 162.01 47.82 162.03 47.78 162.06 47.71 162.08 47.69 162.1 47.6 162.1 47.52 162.09 47.51 162.11 47.48 162.13 47.43 162.13 47.39 162.16 47.23 162.15 47.08 162.23 46.97 162.18 46.95 162.17 46.79 162.23 46.67 162.25 46.63 162.28 46.4 162.37 46.38 162.39 46.25 162.4 46.24 162.51 46.25 162.53 46.21 162.55 46.18 162.55 46.15 162.53 46.13 162.53 46.09 162.52 46.05 162.5 46 162.49 46.01 162.38 45.96 162.31 45.85 162.23 45.85 162.15 45.84 162.15 45.84 162.12 45.81 162.08 45.82 162.07 45.78 162.01 45.76 161.9 45.83 161.87 45.82 161.86 45.81 161.83 45.74 161.8 45.69 161.81 45.65 161.73 45.66 161.69 45.67 161.69 45.66 161.67 45.68 161.64 45.65 161.6 45.62 161.61 45.61 161.6 45.59 161.58 45.61 161.53 45.59 161.48 45.61 161.39 45.61 161.2 45.55 161.15 45.53 161.1 45.52 161.07 45.53 161.02 45.52 160.97 45.52 160.94 45.51 160.93 45.51 160.87 45.47 160.76 45.47 160.68 45.46 160.63 45.42 160.57 45.42 160.55 45.4 160.5 45.43 160.5 45.44 160.48 45.48 160.47 45.53 160.44 45.56 160.47 45.6 160.49 45.64 160.49 45.7 160.48 45.84 160.47 45.91 160.44 45.97 160.43 46.02 160.4 46.04 160.37 46.06 160.37 46.06 160.36 46.1 160.37 46.18 160.35 46.27 160.37 46.28 160.35 46.28 160.32 46.34 160.25 46.36 160.25 46.37 160.22 46.52 160.15 46.54 160.12 46.59 160.12 46.59 160.09 46.6 160.09 46.64 160.07 46.63 160.06 46.64 160 46.62 159.96 46.58 159.92 46.58 159.9 46.56 159.89 46.56 159.87 46.6 159.84 46.61 159.83 46.63 159.82 46.65 159.81 46.69 159.83 46.71 159.77 46.76 159.77 46.8 159.78 46.85 159.76 46.85 159.77 46.87 159.77 46.87 159.78 46.94 159.8 46.99 159.79 47.05 159.81 47.05 159.8 47.15 159.81 47.16 159.89 47.25 159.89 47.33 159.84 47.4 159.82 47.45 159.82 47.51 159.79 47.55 159.76 47.63 159.77 47.66 159.74 47.65 159.71 47.66 159.69 47.64 159.67 47.65 159.66 47.64 159.65 47.65 159.64 47.64 159.62 47.65 159.59 47.63 159.56 47.64 159.53 47.77 159.48 47.79 159.45 47.82 159.47 47.86 159.47 47.89 159.45 47.94 159.43 47.94 159.31 47.96 159.31 47.95 159.3 47.98 159.24 47.9 159.18 47.84 159.08 47.8 159.03 47.82 159 47.83 159 47.83 158.97 47.82 158.97 47.81 158.93 47.79 158.91 47.78 158.88 47.73 158.87 47.7 158.88 47.61 158.88 47.58 158.92 47.56 158.93 47.53 158.94 47.47 158.94 47.49 158.88 47.48 158.87 47.5 158.83 47.49 158.81 47.51 158.78 47.52 158.75 47.47 158.68 47.42 158.67 47.45 158.63 47.46 158.59 47.47 158.58 47.48 158.55 47.57 158.5 47.57 158.47 47.61 158.46 47.62 158.44 47.64 158.38 47.66 158.37 47.65 158.33 47.64 158.32 47.66 158.3 47.65 158.29 47.72 158.28 47.72 158.25 47.76 158.25 47.81 158.17 47.77 158.14 47.76 158.05 47.75 158.05 47.75 158.04 47.71 158.04 47.71 158.02 47.72 158.02 47.73 157.99 47.82 157.97 47.84 157.96 47.79 157.9 47.79 157.89 47.74 157.86 47.67 157.85 47.68 157.8 47.71 157.79 47.71 157.78 47.73 157.78 47.76 157.76 47.76 157.74 47.73 157.73 47.73 157.71 47.72 157.64 47.73 157.63 47.72 157.58 47.74 157.57 47.75 157.52 47.83 157.52 47.94 157.53 47.93 157.49 47.93 157.37 47.93 157.34 47.95 157.32 47.93 157.31 47.91 157.3 47.91 157.27 47.95 157.25 47.97 157.21 47.95 157.17 47.96 157.14 47.97 157.11 47.97 157.06 48 157.01 47.99 156.97 48.05 156.97 48.15 156.99 48.5 157.02 48.5 156.98 48.53 156.92 48.53 156.88 48.63 156.86 48.72 156.85 48.71 156.82 48.74 156.76 48.73 156.72 48.77 156.66 48.77 156.64 48.8 156.64 48.99 156.67 49.15 156.68 49.21 156.67 49.36 156.68 49.41 156.69 49.45 156.69 49.6 156.72 49.67 156.71 49.9 156.72 50.03 156.75 50.1 156.8 50.29 156.8 50.42 156.83 50.46 156.81 50.46 156.76 50.45 156.69 50.47 156.62 50.46 156.58 50.46 156.56 50.39 156.54 50.36 156.52 50.26 156.48 50.26 156.47 50.21 156.44 50.18 156.41 50.19 156.36 50.23 156.32 50.29 156.29 50.3 156.24 50.32 156.22 50.27 156.18 50.21 156.15 50.19 156.13 50.13 156.12 50.02 156.11 50.03 156.04 50.07 156.02 50.09 156 50.1 155.9 50.08 155.85 50.09 155.83 50.11 155.81 50.1 155.78 50.12 155.74 50.12 155.68 50.09 155.68 50.05 155.59 50.05 155.55 49.88 155.54 49.84 155.55 49.76 155.55 49.74 155.56 49.68 155.56 49.48 155.56 49.44 155.54 49.41 155.49 49.42 155.39 49.44 155.3 49.47 155.25 49.55 155.17 49.62 155.05 49.67 155 49.69 154.94 49.7 154.93 49.72 154.95 49.74 154.95 49.75 154.92 49.73 154.88 49.74 154.84 49.94 154.84 50.07 154.82 50.14 154.8 50.14 154.72 50.11 154.7 50.12 154.65 50.09 154.59 50.09 154.54 50.12 154.41 50.16 154.27 50.31 154.24 50.42 154.23 50.52 154.24 50.54 154.25 50.61 154.25 50.66 154.27 50.74 154.27 50.77 154.26 50.87 154.27 50.92 154.26 50.99 154.26 51.07 154.24 51.14 154.26 51.15 154.24 51.22 154.23 51.24 154.21 51.27 154.21 51.26 154.2 51.28 154.19 51.32 154.19 51.35 154.18 51.42 154.18 51.45 154.15 51.56 154.12 51.64 154.12 51.71 153.96 51.86 153.94 51.98 153.96 52.12 153.95 52.15 153.92 52.21 153.93 52.23 153.92 52.3 153.92 52.39 153.91 52.51 153.87 52.55 153.88 52.61 153.86 52.61 153.81 52.65 153.86 52.7 153.86 52.73 153.94 52.82 153.95 52.84 153.96 52.83 153.98 52.83 153.99 52.87 154.01 52.89 154.01 52.96 153.98 53 153.98 53.12 153.94 53.18 153.93 53.27 153.9 53.31 153.9 53.34 153.92 53.35 153.9 53.42 153.87 53.44 153.87 53.48 153.82 53.52 153.81 53.53 153.78 53.53 153.7 53.59 153.66 53.65 153.66 53.69 153.64 53.72 153.61 53.74 153.65 53.76 153.67 53.78 153.67 53.84 153.65 53.86 153.63 53.91 153.63 53.99 153.62 54.02 153.6 54.09 153.58 54.1 153.56 54.2 153.55 54.21 153.54 54.26 153.55 54.25 153.54 54.3 153.53 54.4 153.47 54.44 153.47 54.44 153.45 54.51 153.44 54.53 153.46 54.67 153.4 54.72 153.43 54.82 153.43 54.86 153.45 54.89 153.46 54.93 153.51 54.98 153.53 55.02 153.66 55.02 153.69 55.03 153.72 55.07 153.72 55.25 153.74 55.29 153.73 55.33 153.74 55.38 153.73 55.49 153.73 55.58 153.71 55.63 153.71 55.73 153.68 55.77 153.69 55.84 153.65 55.87 153.66 55.87 153.64 55.93 153.67 55.98 153.65 56.06 153.65 56.13 153.63 56.16 153.61 56.15 153.59 56.19 153.56 56.23 153.51 56.27 153.51 56.35 153.53 56.49 153.56 56.57 153.55 56.67 153.51 56.69 153.52 56.78 153.51 56.84 153.53 56.89 153.5 56.95 153.53 56.99 153.51 57.05 153.51 57.24 153.52 57.27 153.53 57.29 153.56 57.31 153.67 57.29 153.74 57.29 153.77 57.43 153.8 57.5 153.81 57.54 153.83 57.61 153.84 57.68 153.84 57.71 153.82 57.79 153.81 57.86 153.79 57.87 153.79 57.89 153.78 57.92 153.8 58.07 153.75 58.12 153.76 58.19 153.83 58.25 153.84 58.31 153.8 58.35 153.73 58.38 153.71 58.49 153.67 58.5 153.64 58.52 153.66 58.68 153.63 58.69 153.61 58.73 153.6 58.74 153.56 58.79 153.55 58.82 153.53 58.84 153.53 58.93 153.49 59.01 153.49 59.05 153.5 59.07 153.49 59.12 153.48 59.16 153.51 59.25 153.48 59.38 153.42 59.42 153.41 59.44 153.38 59.48 153.36 59.65 153.3 59.68 153.27 59.69 153.24 59.75 153.24 59.93 153.21 59.98 153.21 60.05 153.19 60.09 153.19 60.11 153.21 60.16 153.2 60.19 153.23 60.21 153.26 60.21 153.35 60.29 153.33 60.33 153.35 60.39 153.28 60.42 153.26 60.45 153.26 60.48 153.27 60.5 153.26 60.54 153.22 60.56 153.21 60.59 153.16 60.63 153.12 60.7 153.12 60.71 153.11 60.74 153.12 60.78 153.07 60.76 153.04 60.78 153.03 60.77 153.02 60.78 152.99 60.77 152.93 60.74 152.92 60.71 152.91 60.68 152.9 60.65 152.89 60.63 152.87 60.58 152.86 60.49 152.77 60.43 152.73 60.4 152.69 60.4 152.65 60.39 152.63 60.44 152.52 60.47 152.49 60.45 152.47 60.48 152.47 60.44 152.4 60.5 152.35 60.52 152.27 60.55 152.21 60.54 152.2 60.56 152.17 60.59 152.16 60.65 152.1 60.68 152.1 60.68 152.05 60.67 152.04 60.66 152.03 60.67 152.01 60.67 151.94 60.76 151.92 60.77 151.89 60.76 151.88 60.79 151.86 60.8 151.84 60.81 151.86 60.87 151.86 60.9 151.84 60.92 151.84 60.94 151.77 60.95 151.77 60.98 151.76 60.95 151.7 60.95 151.63 60.95 151.57 60.9 151.55 60.87 151.45 60.84 151.45 60.84 151.42 60.73 151.45 60.71 151.4 60.72 151.32 60.66 151.33 60.59 151.36 60.56 151.36 60.56 151.38 60.53 151.37 60.52 151.39 60.47 151.38 60.39 151.35 60.36 151.36 60.31 151.35 60.26 151.35 60.25 151.38 60.23 151.39 60.21 151.38 60.19 151.41 60.14 151.39 60.06 151.41 60.04 151.41 60.02 151.42 59.97 151.42 59.95 151.41 59.9 151.43 59.76 151.44 59.51 151.39 59.49 151.4 59.43 151.42 59.41 151.43 59.32 151.41 59.31 151.39 59.26 151.39 59.22 151.38 59.17 151.38 59.16 151.39 59.08 151.38 58.98 151.41 58.92 151.37 58.8 151.36 58.76 151.37 58.64 151.34 58.61 151.34 58.52 151.39 58.49 151.39 58.47 151.37 58.43 151.37 58.38 151.33 58.26 151.33 58.18 151.29 58.12 151.27 58.09 151.28 58.08 151.26 58.01 151.25 58 151.23 57.89 151.19 57.88 151.15 57.82 151.12 57.75 151.09 57.67 151.09 57.64 150.92 57.59 150.89 57.52 150.89 57.51 150.82 57.49 150.81 57.49 150.78 57.51 150.74 57.47 150.72 57.46 150.66 57.45 150.64 57.48 150.59 57.33 150.59 57.26 150.64 57.12 150.69 57.09 150.72 56.98 150.66 56.9 150.68 56.88 150.67 56.73 150.64 56.72 150.58 56.74 150.53 56.63 150.5 56.61 150.51 56.59 150.48 56.3 149.77 56.03 149.46 55.83 148.51 55.81 148.28 55.79 148.19 55.72 148.16 55.66 148.15 55.58 148.16 55.5 148.15 55.46 148.16 55.35 148.16 55.27 148.17 55.24 148.15 55.19 148 55.16 147.98 55.14 147.92 55.18 147.8 55.2 147.74 55.21 147.71 55.17 147.68 55.16 147.66 55.17 147.65 55.16 147.59 55.14 147.58 55.13 147.56 55.14 147.51 55.17 147.49 55.16 147.45 55.17 147.43 55.16 147.42 55.17 147.4 55.16 147.33 55.02 147.33 54.94 147.35 54.89 147.34 54.72 147.36 54.69 147.34 54.68 147.36 54.56 147.36 54.5 147.38 54.46 147.37 54.43 147.4 54.38 147.4 54.37 147.42 54.3 147.41 54.21 147.41 54.11 147.43 54.05 147.43 53.97 147.44 53.87 147.48 53.84 147.47 53.8 147.48 53.78 147.39 53.71 147.25 53.71 147.23 53.68 147.22 53.68 147.2 53.69 147.2 53.68 147.19 53.7 147.18 53.69 147.15 53.72 147.13 53.68 147.08 53.69 147.03 53.76 147.02 53.79 147.01 53.78 147 53.79 146.99 53.77 146.98 53.78 146.97 53.74 146.96 53.72 146.91 53.7 146.92 53.66 146.9 53.64 146.91 53.61 146.9 53.57 146.84 53.53 146.84 53.44 146.82 53.45 146.79 53.47 146.7 53.52 146.65 53.44 146.61 53.43 146.58 53.44 146.56 53.42 146.56 53.38 146.5 53.38 146.41 53.34 146.39 53.33 146.25 53.37 146.15 53.22 146.14 53.11 146.12 53.03 146.08 52.98 146.1 52.96 146.09 52.93 146.11 52.85 146.12 52.83 146.15 52.78 146.17 52.65 146.17 52.62 146.16 52.6 146.11 52.56 146.11 52.54 146.12 52.51 146.16 52.4 146.18 52.3 146.18 52.24 146.2 52.21 146.23 52.13 146.24 52.12 146.29 52.09 146.31 51.96 146.28 51.84 146.2 51.78 146.15 51.73 146.16 51.72 146.15 51.6 146.18 51.59 146.19 51.56 146.2 51.53 146.22 51.51 146.27 51.49 146.29 51.42 146.29 51.4 146.31 51.39 146.3 51.32 146.31 51.26 146.3 51.21 146.32 51.1 146.34 50.94 146.33 50.91 146.34 50.83 146.31 50.78 146.33 50.68 146.31 50.56 146.3 50.53 146.34 50.5 146.35 50.47 146.4 50.44 146.5 50.38 146.51 50.23 146.51 50.06 146.49 49.97 146.49 49.94 146.48 49.88 146.44 49.84 146.45 49.83 146.44 49.76 146.46 49.71 146.44 49.62 146.49 49.54 146.48 49.46 146.5 49.42 146.49 49.36 146.51 49.32 146.49 49.2 146.52 49.04 146.5 49.03 146.54 48.98 146.6 48.97 146.65 48.92 146.76 48.92 146.84 48.92 146.87 48.89 146.9 48.87 146.88 48.85 146.88 48.84 146.87 48.67 146.88 48.61 146.89 48.57 146.87 48.52 146.89 48.48 146.91 48.43 146.89 48.32 146.91 48.18 146.9 48.08 146.92 48.03 146.9 48.01 146.91 47.96 146.91 47.87 146.89 46.41 136.17 46.4 136.06 46.42 136.04 46.43 135.99 46.4 135.98 46.38 135.94 46.34 135.93 46.23 135.94 46.21 135.87 46.18 135.85 46.1 135.87 46.08 135.89 46.08 135.93 46.09 135.96 45.96 135.93 45.94 135.97 45.87 135.99 45.79 135.98 45.72 135.98 45.65 135.89 45.67 135.86 45.79 135.83 45.81 135.73 45.84 135.65 45.82 135.59 45.8 135.58 45.86 135.5 45.79 135.38 45.8 135.35 45.68 135.31 45.66 135.29 45.71 135.2 45.74 135.2 45.8 135.16 45.83 135.16 45.84 134.99 45.67 134.96 45.63 134.83 45.62 134.8 45.55 134.79 45.51 134.74 45.45 134.74 45.34 134.72 45.3 134.73 45.24 134.72 45.2 134.71 45.09 134.7 45.01 134.7 44.99 134.69 44.95 134.68 44.98 134.67 45.01 134.63 45.02 134.61 45.08 134.56 45.18 134.52 45.22 134.49 45.21 134.44 45.17 134.42 45.17 134.4 45.14 134.37 45.11 134.37 45.11 134.36 45.11 134.33 45.07 134.29 45.09 134.24 45.15 134.23 45.16 134.18 45.19 134.18 45.21 134.15 45.26 134.15 45.37 134.16 45.39 134.07 45.43 134.07 45.43 134.09 45.55 134.12 45.59 134.1 45.66 134.09 45.67 134.03 45.72 133.98 45.65 133.95 45.61 133.9 45.55 133.86 45.41 133.82 45.37 133.82 45.35 133.81 45.28 133.8 45.29 133.77 45.27 133.65 45.22 133.64 45.21 133.62 45.23 133.59 45.21 133.56 45.18 133.57 45.17 133.57 45.16 133.54 45.18 133.52 45.19 133.45 45.16 133.42 45.2 133.37 45.22 133.32 45.21 133.31 45.23 133.3 45.24 133.25 45.28 133.26 45.31 133.21 45.38 133.21 45.43 133.25 45.46 133.25 45.49 133.23 45.56 133.24 45.57 133.26 45.6 133.25 45.63 133.25 45.7 133.22 45.71 133.21 45.75 133.18 45.76 133.14 45.87 133.16 45.9 133.14 45.9 133.1 45.92 133.08 45.95 133.09 45.99 133.05 46.01 133.05 46.05 133.02 46.06 133 46.08 133 46.1 132.94 46.09 132.89 46.09 132.84 46.19 132.87 46.23 132.83 46.28 132.85 46.36 132.81 46.4 132.85 46.44 132.84 46.46 132.82 46.48 132.82 46.5 132.81 46.53 132.83 46.57 132.82 46.6 132.84 46.67 132.84 46.68 132.82 46.71 132.81 46.83 132.86 46.91 132.86 46.97 132.72 47.06 132.74 47.07 132.71 47.04 132.7 47.05 132.69 47.05 132.67 47.07 132.66 47.05 132.65 47.07 132.64 47.08 132.62 47.09 132.62 47.08 132.6 47.14 132.58 47.15 132.56 47.14 132.52 47.13 132.51 47.14 132.5 47.14 132.47 47.1 132.44 47.13 132.4 47.12 132.36 47.13 132.35 47.07 132.31 47 132.32 46.99 132.33 46.97 132.33 46.93 132.31 46.88 132.28 46.87 132.26 46.89 132.22 46.91 132.18 46.93 132.19 46.95 132.16 46.94 132.14 46.98 132.15 47 132.11 46.95 132.08 46.95 132.05 46.94 132.05 46.94 132 47.01 132.01 47.01 131.95 47.02 131.93 47.01 131.92 47.02 131.89 47.04 131.88 47.07 131.85 47.11 131.85 47.11 131.84 47.13 131.85 47.2 131.86 47.21 131.84 47.23 131.83 47.24 131.81 47.29 131.82 47.34 131.78 47.36 131.79 47.41 131.75 47.4 131.71 47.44 131.69 47.38 131.68 47.26 131.63 47.28 131.59 47.3 131.54 47.43 131.55 47.44 131.52 47.49 131.5 47.52 131.5 47.55 131.47 47.57 131.39 47.55 131.34 47.51 131.33 47.52 131.25 47.77 131.3 47.79 131.33 47.86 131.35 47.94 131.38 48.07 131.42 48.16 131.41 48.26 131.43 48.29 131.41 48.28 131.4 48.29 131.34 48.36 131.3 48.35 131.25 48.36 131.23 48.36 131.11 48.36 131.09 48.34 131.08 48.33 131.02 48.37 131.02 48.37 131.01 48.4 131.01 48.38 130.99 48.39 130.92 48.38 130.89 48.42 130.87 48.41 130.85 48.43 130.83 48.42 130.82 48.43 130.82 48.43 130.79 48.41 130.78 48.34 130.78 48.35 130.73 48.34 130.69 48.28 130.67 48.29 130.69 48.26 130.7 48.24 130.7 48.2 130.65 48.03 130.66 47.95 130.65 47.9 130.58 47.9 130.54 47.86 130.52 47.87 130.51 47.78 130.49 47.76 130.47 47.68 130.45 47.65 130.41 47.65 130.4 47.64 130.37 47.59 130.32 47.61 130.31 47.6 130.26 47.63 130.21 47.7 130.22 47.7 130.2 47.72 130.18 47.73 130.15 47.7 130.11 47.71 130.09 47.76 130.04 47.79 130.04 47.9 130 47.88 129.96 47.95 129.95 47.98 129.93 48 129.86 48.04 129.87 48.07 129.82 48.12 129.82 48.16 129.8 48.17 129.78 48.1 129.75 48.08 129.73 48.08 129.72 48.05 129.71 48.05 129.69 48.03 129.68 47.99 129.67 47.95 129.64 47.96 129.61 47.95 129.57 48.04 129.58 48.14 129.57 48.22 129.57 48.27 129.53 48.26 129.5 48.31 129.47 48.31 129.44 48.29 129.4 48.23 129.38 48.23 129.34 48.2 129.32 48.17 129.27 48.15 129.28 48.05 129.28 48.03 129.29 47.97 129.28 47.98 129.3 47.96 129.32 47.93 129.32 47.92 129.37 47.85 129.36 47.86 129.34 47.81 129.31 47.77 129.34 47.72 129.33 47.64 129.31 47.63 129.29 47.6 129.28 47.59 129.21 47.59 129.06 47.63 129.06 47.64 129.04 47.65 129.04 47.65 129.02 47.67 129.01 47.73 129.02 47.74 128.99 47.72 128.99 47.73 128.96 47.71 128.94 47.71 128.9 47.75 128.9 47.77 128.89 47.86 128.9 47.89 128.89 47.92 128.87 47.93 128.89 47.94 128.9 47.97 128.86 47.94 128.83 47.96 128.8 47.97 128.74 47.99 128.73 48.01 128.7 47.95 128.64 47.89 128.61 47.88 128.58 47.84 128.55 47.88 128.54 47.89 128.49 47.92 128.46 47.97 128.46 48.03 128.41 48 128.4 47.98 128.38 48 128.37 48 128.35 47.96 128.33 48.06 128.3 48.1 128.26 48.15 128.26 48.18 128.25 48.21 128.27 48.23 128.25 48.31 128.23 48.46 128.24 48.52 128.26 48.58 128.26 48.61 128.27 48.62 128.29 48.65 128.31 48.67 128.26 48.7 128.25 48.72 128.2 48.71 128.14 48.72 128.14 48.77 128.11 48.76 128.03 48.72 127.99 48.69 127.98 48.73 127.95 48.8 127.92 48.85 127.84 48.81 127.82 48.72 127.79 48.73 127.74 48.7 127.71 48.71 127.69 48.73 127.68 48.73 127.67 48.74 127.65 48.73 127.63 48.75 127.62 48.76 127.58 48.78 127.58 48.77 127.54 48.78 127.5 48.76 127.48 48.77 127.43 48.76 127.39 48.76 127.3 48.78 127.29 48.81 127.3 48.88 127.31 48.9 127.27 48.95 127.26 48.97 127.26 49.02 127.31 49.06 127.3 49.05 127.27 49.08 127.23 49.19 127.18 49.14 127.11 49.15 127.05 49.19 127.04 49.23 126.99 49.25 126.99 49.34 126.98 49.36 126.95 49.36 126.92 49.29 126.84 49.28 126.8 49.28 126.76 49.29 126.76 49.3 126.76 49.32 126.71 49.28 126.67 49.23 126.64 49.22 126.6 49.23 126.59 49.26 126.59 49.26 126.57 49.24 126.57 49.26 126.55 49.35 126.56 49.36 126.54 49.41 126.5 49.41 126.46 49.35 126.43 49.35 126.41 49.36 126.38 49.39 126.37 49.41 126.34 49.4 126.32 49.41 126.31 49.39 126.27 49.4 126.23 49.39 126.21 49.46 126.19 49.45 126.17 49.43 126.14 49.42 126.1 49.32 126.1 49.3 126.05 49.19 126.03 49.13 126.04 49.1 126.02 49.09 125.94 49.17 125.9 49.13 125.84 49.13 125.8 49.15 125.77 49.16 125.73 49.18 125.71 49.08 125.7 49.07 125.69 48.94 125.67 48.9 125.65 48.94 125.59 48.92 125.57 48.86 125.55 48.84 125.53 48.87 125.48 48.87 125.44 48.9 125.41 48.96 125.38 49.02 125.4 49.07 125.39 49.11 125.41 49.1 125.42 49.11 125.44 49.15 125.45 49.21 125.44 49.26 125.41 49.28 125.41 49.31 125.39 49.36 125.4 49.4 125.37 49.43 125.4 49.5 125.4 49.59 125.35 49.59 125.33 49.64 125.28 49.63 125.25 49.66 125.21 49.66 125.16 49.7 125.15 49.75 125.11 49.89 125.12 49.96 125.15 50.05 125.15 50.14 125.12 50.17 125.09 50.28 125.04 50.52 125.01 50.62 124.98 50.62 124.92 50.61 124.9 50.62 124.86 50.62 124.84 50.65 124.79 50.68 124.69 50.64 124.69 50.63 124.65 50.6 124.6 50.63 124.6 50.7 124.6 50.69 124.53 50.7 124.5 50.65 124.5 50.64 124.46 50.66 124.46 50.64 124.43 50.66 124.36 50.63 124.32 50.61 124.3 50.63 124.27 50.58 124.26 50.52 124.25 50.51 124.24 50.5 124.19 50.46 124.17 50.46 124.14 50.52 124.11 50.57 124.03 50.61 123.95 50.6 123.91 50.61 123.88 50.66 123.84 50.67 123.81 50.77 123.77 50.81 123.74 50.82 123.65 50.84 123.64 50.86 123.6 50.95 123.55 51 123.54 51.03 123.46 51.09 123.41 51.08 123.36 51.06 123.36 51.04 123.35 51.01 123.35 50.99 123.37 50.99 123.38 50.91 123.4 50.89 123.37 50.86 123.37 50.83 123.34 50.8 123.34 50.78 123.31 50.67 123.32 50.63 123.29 50.6 123.31 50.54 123.32 50.42 123.32 50.42 123.32 50.39 123.31 50.3 123.28 50.26 123.25 50.26 123.24 50.31 123.2 50.28 123.19 50.27 123.13 50.24 123.11 50.24 123.06 50.27 123.02 50.26 122.99 50.27 122.95 50.26 122.92 50.21 122.88 50.05 122.89 49.9 122.88 49.91 122.84 49.97 122.72 49.97 122.63 49.98 122.62 49.99 122.57 49.82 122.53 49.82 122.5 49.79 122.47 49.79 122.45 49.82 122.43 49.85 122.37 49.87 122.35 49.91 122.34 49.88 122.3 49.88 122.27 49.84 122.23 49.83 122.17 49.8 122.15 49.77 122.09 49.77 122.07 49.78 122.01 49.74 122.03 49.7 122.04 49.65 122 49.58 121.99 49.52 122.01 49.48 122.04 49.42 122.03 49.32 122.05 49.22 122.04 49.15 122.05 49.04 122.05 48.97 122.01 48.87 122.03 48.8 122.01 48.72 122.01 48.71 121.98 48.64 121.96 48.66 121.89 48.68 121.85 48.67 121.82 48.66 121.78 48.59 121.74 48.61 121.71 48.66 121.67 48.67 121.61 48.54 121.57 48.52 121.55 48.36 121.55 48.22 121.53 48.2 121.54 48.13 121.54 48.07 121.55 48.04 121.54 47.95 121.54 47.87 121.51 47.82 121.48 47.77 121.47 47.74 121.48 47.72 121.47 47.7 121.32 47.72 121.31 47.73 121.26 47.72 121.25 47.73 121.24 47.71 121.2 47.67 121.2 47.66 121.19 47.65 121.12 47.61 121.08 47.59 121.04 47.58 121.03 47.51 121.04 47.49 121 47.51 120.97 47.53 120.96 47.51 120.93 47.53 120.86 47.52 120.84 47.52 120.79 47.3 120.74 47.23 120.69 47.21 120.66 47.24 120.66 47.3 120.62 47.35 120.61 47.35 120.54 47.65 120.57 47.83 120.63 47.88 120.62 48 120.65 48.03 120.63 48.05 120.56 48.11 120.54 48.2 120.56 48.28 120.54 48.35 120.55 48.36 120.53 48.4 120.51 48.47 120.45 48.48 120.42 48.52 120.41 48.6 120.45 48.77 120.47 48.83 120.45 48.83 120.43 48.85 120.42 48.95 120.43 49.14 120.42 49.13 120.39 49.13 120.34 49.18 120.31 49.18 120.27 49.2 120.25 49.19 120.21 49.23 120.19 49.38 120.18 49.47 120.12 49.48 120.06 49.47 120.03 49.48 119.96 49.5 119.86 49.5 119.81 49.54 119.79 49.61 119.78 49.64 119.74 49.7 119.71 49.7 119.68 49.69 119.67 49.72 119.63 49.79 119.65 49.87 119.7 49.9 119.71 49.94 119.71 49.94 119.67 49.9 119.65 49.89 119.54 49.88 119.53 49.88 119.52 49.87 119.47 49.83 119.41 49.85 119.38 49.87 119.35 49.89 119.28 49.91 119.26 49.91 119.23 49.89 119.21 49.9 119.18 49.88 119.12 49.75 119.08 49.75 119.05 49.77 119.02 49.79 118.94 49.77 118.88 49.72 118.86 49.7 118.84 49.69 118.81 49.7 118.79 49.7 118.74 49.69 118.74 49.7 118.72 49.68 118.68 49.59 118.67 49.61 118.55 49.58 118.55 49.55 118.54 49.53 118.53 49.51 118.51 49.37 118.52 49.31 118.54 49.28 118.5 49.24 118.49 49.23 118.44 49.2 118.44 49.15 118.4 49.14 118.39 49.13 118.38 49.14 118.37 49.11 118.33 49.05 118.32 48.99 118.27 48.91 118.27 48.85 118.28 48.78 118.22 48.66 118.21 48.7 118.04 48.78 117.99 48.87 118 48.89 117.98 48.87 117.94 48.88 117.92 48.84 117.91 48.84 117.89 48.82 117.88 48.81 117.85 48.79 117.84 48.72 117.84 48.69 117.81 48.7 117.8 48.48 117.79 48.46 117.75 48.47 117.74 48.46 117.71 48.42 117.69 48.37 117.68 48.4 117.63 48.39 117.62 48.41 117.61 48.43 117.58 48.48 117.58 48.51 117.57 48.57 117.6 48.66 117.59 48.7 117.51 48.73 117.51 48.79 117.47 48.8 117.43 48.89 117.43 49.06 117.45 49.07 117.41 49.15 117.44 49.15 117.37 49.12 117.36 49.09 117.29 49.06 117.27 49.05 117.24 49.02 117.24 49 117.26 48.92 117.25 48.88 117.24 48.88 117.21 48.88 117.19 48.98 117.19 48.99 117.15 49.02 117.15 49.02 117.12 49.05 117.02 49.11 116.96 49.12 116.89 49.16 116.83 49.2 116.77 49.24 116.75 49.26 116.76 49.29 116.65 49.28 116.63 49.29 116.57 49.29 116.52 49.31 116.49 49.32 116.48 49.3 116.47 49.32 116.43 49.28 116.41 49.25 116.36 49.23 116.36 49.27 116.24 49.26 116.14 49.27 116.13 49.27 116.08 49.26 116.06 49.24 116.06 49.19 116.02 49.16 116.02 49.13 115.95 49.1 115.92 49.08 115.91 49.03 115.84 48.98 115.81 48.92 115.81 48.89 115.79 48.82 115.79 48.82 115.79 48.78 115.8 48.76 115.77 48.74 115.76 48.72 115.74 48.7 115.74 48.67 115.72 48.7 115.68 48.75 115.55 48.75 115.48 48.7 115.44 48.68 115.4 48.71 115.33 48.73 115.32 48.73 115.29 48.65 115.2 48.65 115.19 48.63 115.18 48.61 115.19 48.58 115.18 48.54 115.13 48.52 115.11 48.47 115 48.42 114.99 48.36 114.94 48.32 114.93 48.28 114.91 48.19 114.88 48.17 114.84 48.17 114.83 48.15 114.82 48.15 114.8 48.14 114.58 48.12 114.5 48.14 114.5 48.16 114.47 48.19 114.44 48.27 114.43 48.33 114.4 48.37 114.37 48.42 114.37 48.44 114.38 48.51 114.36 48.5 114.32 48.52 114.28 48.52 114.25 48.48 114.23 48.48 114.21 48.5 114.15 48.53 114.15 48.55 114.14 48.58 114.12 48.57 114.1 48.59 114.09 48.59 114.08 48.62 114.08 48.64 114.06 48.64 114 48.61 113.96 48.55 113.86 48.56 113.83 48.54 113.81 48.53 113.76 48.51 113.76 48.5 113.74 48.45 113.66 48.49 113.62 48.48 113.6 48.49 113.55 48.51 113.55 48.51 113.52 48.53 113.5 48.57 113.49 48.58 113.44 48.63 113.41 48.65 113.41 48.69 113.45 48.71 113.45 48.71 113.46 48.73 113.46 48.78 113.5 48.87 113.5 48.9 113.47 48.97 113.48 49.01 113.53 49.08 113.56 49.13 113.51 49.16 113.5 49.26 113.44 49.36 113.49 49.42 113.46 49.53 113.46 49.68 113.36 49.72 113.36 49.81 113.33 49.88 113.3 49.93 113.29 49.99 113.24 51.13 106.56 52.79 96.79 54.1 88.98 61.31 76.4 60.46 72.35 60.69 72.32 60.83 72.14 60.9 72.07 60.98 72.08 61.05 72.08 61.11 72.06 61.26 72.07 61.35 72.02 61.4 72.01 61.43 72.02 61.47 72.07 61.48 72.09 61.51 72.09 61.55 72.07 61.57 72.07 61.59 72.05 61.67 72.04 61.67 72.02 61.7 72 61.71 71.78 61.66 71.61 61.63 71.58 61.61 71.52 61.62 71.45 61.59 71.41 61.58 71.36 61.58 71.27 61.59 71.23 61.68 71.14 61.75 71.11 61.8 71.12 61.81 71.11 61.85 71.06 61.85 71.01 61.88 70.97 61.91 70.95 61.9 70.92 61.91 70.9 61.93 70.88 61.94 70.83 61.96 70.81 61.97 70.78 61.95 70.77 61.95 70.74 61.97 70.7 62 70.69 62.05 70.6 62.06 70.55 62.04 70.53 62.02 70.49 62.03 70.46 62.23 70.11 62.57 70.05 62.58 70.19 62.65 70.19 62.7 70.05 62.7 70.02 62.68 70.02 62.68 70 62.71 69.99 62.87 69.86 62.88 69.86 62.91 69.85 62.92 69.85 63 69.89 63 69.9 63.05 69.91 63.06 69.92 63.07 69.9 63.1 69.92 63.13 69.92 63.14 69.91 63.15 69.91 63.16 69.89 63.21 69.89 63.25 69.89 63.26 69.91 63.34 69.99 63.4 70.03 63.43 70.04 63.45 70.05 63.6 70.04 63.69 70.09 63.72 70.14 63.75 70.19 63.86 70.23 63.91 70.22 63.94 70.23 63.92 70.24 63.93 70.28 63.97 70.32 63.98 70.33 64.01 70.31 64.05 70.32 64.08 70.31 64.17 70.33 64.22 70.31 64.24 70.31 64.26 70.33 64.27 70.45 64.3 70.48 64.32 70.56 64.34 70.59 64.33 70.64 64.35 70.66 64.37 70.7 64.4 70.7 64.43 70.69 64.47 70.7 64.55 70.69 64.61 70.65 64.69 70.68 64.73 70.72 64.73 70.77 64.74 70.78 64.8 70.85 64.8 70.91 64.9 70.95 64.92 70.99 64.99 71.05 65 71.07 64.99 71.12 65.04 71.18 65.06 71.21 65.1 71.24 65.1 71.27 65.11 71.31 65.11 71.37 65.12 71.4 65.15 71.41 65.15 71.46 65.15 71.5 65.17 71.51 65.17 71.56 65.18 71.62 65.2 71.66 65.26 71.67 65.28 71.73 65.35 71.73 65.39 71.63 65.41 71.63 65.46 71.61 65.5 71.56 65.52 71.51 65.61 71.5 65.64 71.51 65.66 71.49 65.69 71.5 65.7 71.5 65.72 71.56 65.76 71.57 65.77 71.62 65.79 71.63 65.85 71.66 65.88 71.65 65.93 71.67 65.94 71.69 66 71.77 66.01 71.78 66 71.79 66.01 71.82 66.06 71.81 66.14 71.84 66.15 71.94 66.17 71.93 66.26 71.94 66.35 71.91 66.38 71.93 66.43 71.96 66.45 71.96 66.47 71.94 66.5 71.94 66.55 71.94 66.61 71.96 66.66 71.94 66.7 71.89 66.77 71.88 66.8 71.83 66.83 71.82 66.86 71.8 66.88 71.8 66.88 71.82 66.91 71.88 66.95 71.87 66.97 71.88 66.98 71.91 67.05 71.91 67.11 71.88 67.13 71.84 67.17 71.83 67.33 71.8 67.33 71.74 67.36 71.74 67.43 71.69 67.43 71.65 67.53 71.61 67.54 71.59 67.57 71.59 67.59 71.57 67.63 71.57 67.65 71.55 67.64 71.54 67.67 71.53 67.76 71.55 67.78 71.56 67.83 71.56 67.84 71.54 67.88 71.55 67.91 71.54 67.96 71.56 67.98 71.59 68.02 71.59 68.07 71.62 68.08 71.58 68.11 71.57 68.11 71.55 68.18 71.48 68.23 71.45 68.27 71.43 68.3 71.42 68.32 71.43 68.4 71.49 68.44 71.46 68.46 71.47 68.47 71.48 68.53 71.48 68.54 71.5 68.6 71.51 68.62 71.51 69.03 71.23 69.1 71.24 69.11 71.22 69.16 71.23 69.24 71.28 69.26 71.28 69.28 71.33 69.41 71.33 69.43 71.35 69.5 71.39 69.52 71.38 69.58 71.4 69.64 71.34 69.66 71.3 69.69 71.28 69.77 71.25 69.81 71.21 69.83 71.21 69.85 71.16 69.87 71.15 69.85 71.11 69.88 71.07 69.87 71.01 69.93 71.02 69.94 71.01 69.98 71.01 69.98 71.01 69.99 71.01 70.05 70.99 70.09 71 70.11 71.02 70.14 71.02 70.17 71.04 70.19 71.02 70.23 71.04 70.25 71.03 70.31 71.03 70.33 71.02 70.39 71.04 70.47 71.01 70.5 71.03 70.55 71.03 70.56 71.02 70.61 71.03 70.67 71.01 70.71 71.03 70.73 71 70.73 70.95 70.71 70.92 70.7 70.89 70.75 70.88 70.74 70.87 70.74 70.85 70.75 70.85 70.8 70.71 70.83 70.71 70.87 70.67 70.94 70.68 70.96 70.66 70.99 70.66 71.05 70.61 71.13 70.61 71.16 70.6 71.2 70.6 71.21 70.59 71.28 70.6 71.32 70.58 71.35 70.53 71.41 70.52 71.45 70.48 71.5 70.47 71.53 70.48 71.62 70.46 71.63 70.45 71.65 70.44 71.68 70.44 71.72 70.42 71.72 70.36 71.76 70.33 71.77 70.33 71.78 70.29 71.86 70.3 71.87 70.25 71.91 70.24 71.94 70.22 71.97 70.22 71.97 70.21 72 70.19 72.01 70.16 72.05 70.14 72.06 70.08 72.09 70.02 72.14 69.96 72.17 69.94 72.19 69.95 72.21 69.94 72.23 69.95 72.27 69.94 72.3 69.91 72.35 69.91 72.34 69.9 72.34 69.89 72.41 69.83 72.43 69.86 72.48 69.85 72.67 69.91 72.74 69.91 72.74 69.9 72.77 69.91 72.79 69.91 72.81 69.93 72.87 69.94 72.93 69.98 72.97 69.99 73 70.01 72.99 70.03 73.08 70.03 73.09 70.03 73.09 70 73.12 69.95 73.15 69.96 73.19 69.94 73.22 69.89 73.21 69.87 73.24 69.86 73.25 69.84 73.27 69.84 73.3 69.82 73.31 69.77 73.31 69.72 73.35 69.7 73.39 69.69 73.42 69.62 73.43 69.61 73.48 69.59 73.51 69.6 73.57 69.66 73.61 69.68 73.63 69.7 73.68 69.7 73.7 69.72 73.75 69.71 73.82 69.73 73.86 69.74 73.9 69.75 74.06 69.68 74.09 69.66 74.23 69.64 74.22 69.54 74.24 69.52 74.25 69.47 74.27 69.46 74.3 69.41 74.32 69.4 74.42 69.41 74.55 69.39 74.59 69.41 74.61 69.44 74.63 69.43 74.72 69.45 74.79 69.45 74.84 69.48 74.89 69.53 74.93 69.55 74.98 69.59 75.01 69.59 75.04 69.61 75.06 69.65 75.08 69.65 75.18 69.69 75.26 69.74 75.28 69.76 75.27 69.8 75.29 69.8 75.28 69.82 75.3 69.88 75.35 69.92 75.35 69.95 75.38 70.01 75.43 70.05 75.5 70.06 75.51 70.09 75.5 70.17 75.49 70.17 75.49 70.19 75.46 70.19 75.48 70.24 75.48 70.28 75.46 70.28 75.47 70.31 75.43 70.34 75.42 70.36 75.44 70.38 75.44 70.42 75.58 70.57 75.61 70.54 75.64 70.54 75.65 70.53 75.68 70.52 75.72 70.52 75.73 70.5 75.76 70.47 75.79 70.48 75.8 70.47 75.8 70.41 75.81 70.41 75.86 70.4 75.95 70.4 75.96 70.43 76 70.46 76.07 70.48 76.18 70.54 76.17 70.46 76.19 70.43 76.19 70.39 76.22 70.41 76.23 70.39 76.23 70.35 76.26 70.33 76.26 70.3 76.28 70.29 76.26 70.21 76.28 70.19 76.28 70.17 76.27 70.14 76.29 70.14 76.25 70.09 76.25 70.05 76.29 70.05 76.38 70 76.41 70 76.48 69.98 76.53 69.87 76.57 69.86 76.57 69.81 76.53 69.73 76.54 69.71 76.56 69.7 76.54 69.68 76.55 69.66 76.54 69.63 76.64 69.57 76.63 69.54 76.64 69.52 76.66 69.49 76.71 69.48 76.71 69.45 76.74 69.44 76.74 69.41 76.76 69.38 76.77 69.36 76.79 69.37 76.81 69.29 76.8 69.26 76.8 69.22 76.84 69.22 76.89 69.19 76.96 69.17 76.96 69.14 77 69.14 77 69.1 77.02 69.09 77.05 69.09 77.07 69.08 77.08 69.06 77.15 69.02 77.21 69.03 77.24 69.02 77.3 69.03 77.32 69.01 77.31 69.01 77.31 68.93 77.33 68.91 77.42 68.92 77.44 68.89 77.48 68.88 77.5 68.86 77.55 68.86 77.57 68.83 77.59 68.83 77.59 68.82 77.63 68.8 77.65 68.77 77.67 68.77 77.67 68.71 77.65 68.66 77.64 68.61 77.66 68.6 77.65 68.56 77.67 68.57 77.69 68.57 77.73 68.54 77.74 68.51 77.76 68.5 77.77 68.48 77.79 68.5 77.79 68.49 77.84 68.49 77.88 68.51 77.99 68.47 78.01 68.45 78.04 68.45 78.06 68.42 78.09 68.43 78.14 68.4 78.16 68.4 78.21 68.43 78.3 68.42 78.35 68.41 78.36 68.42 78.41 68.4 78.45 68.4 78.48 68.44 78.5 68.34 78.49 68.32 78.52 68.29 78.53 68.27 78.52 68.24 78.5 68.2 78.49 68.18 78.53 68.15 78.54 68.11 78.54 68.04 78.52 67.97 78.52 67.92 78.55 67.94 78.56 67.89 78.58 67.88 78.59 67.89 78.6 67.87 78.61 67.87 78.65 67.87 78.67 67.82 78.72 67.8 78.72 67.77 78.86 67.74 78.86 67.72 78.89 67.69 78.9 67.7 78.96 67.72 79.02 67.7 79.05 67.7 79.07 67.69 79.07 67.68 79.15 67.67 79.23 67.6 79.25 67.59 79.35 67.62 79.4 67.6 79.41 67.57 79.48 67.56 79.5 67.55 79.57 67.55 79.61 67.54 79.62 67.52 79.64 67.53 79.66 67.51 79.7 67.5 79.7 67.48 79.8 67.46 79.8 67.44 79.82 67.42 79.85 67.43 79.88 67.38 79.9 67.37 79.9 67.35 79.94 67.35 79.94 67.33 79.98 67.31 80.05 67.34 80.07 67.36 80.08 67.36 80.11 67.39 80.14 67.39 80.14 67.4 80.16 67.4 80.18 67.41 80.21 67.39 80.29 67.38 80.36 67.4 80.38 67.4 80.43 67.39 80.46 67.33 80.51 67.32 80.52 67.26 80.53 67.26 80.54 67.23 80.57 67.13 80.55 67.1 80.55 67.08 80.53 67.06 80.54 67.05 80.57 67.04 80.57 67.03 80.54 66.95 80.52 66.95 80.6 66.91 80.61 66.87 80.6 66.82 80.65 66.82 80.71 66.81 80.75 66.83 80.8 66.8 80.83 66.8 80.84 66.78 80.88 66.77 80.89 66.75 80.94 66.74 80.96 66.7 80.95 66.66 80.99 66.6 81.03 66.5 81.02 66.41 81 66.39 80.99 66.32 81.03 66.24 81.01 66.2 81 66.21 80.98 66.18 80.95 66.17 80.91 66.09 80.91 66.08 80.93 66.06 80.93 66 80.94 65.96 80.97 65.95 80.99 65.96 81.03 65.95 81.07 65.96 81.07 65.95 81.11 65.96 81.14 65.95 81.17 65.92 81.22 65.92 81.24 65.89 81.28 65.89 81.31 65.9 81.39 65.91 81.45 65.88 81.47 65.9 81.49 65.91 81.54 65.91 81.57 65.93 81.63 65.93 81.65 65.95 81.7 65.94 81.71 65.96 81.83 65.92 81.89 65.91 81.97 65.95 82.03 66.03 82.07 66.01 82.14 65.99 82.21 66.02 82.22 66.03 82.24 66.05 82.31 66.08 82.41 66.04 82.4 66.01 82.43 65.95 82.47 65.95 82.5 65.98 82.52 65.99 82.54 65.97 82.57 65.97 82.61 65.94 82.69 65.94 82.78 65.9 82.8 65.87 82.84 65.85 82.89 65.85 82.92 65.82 82.96 65.81 82.97 65.8 83.04 65.8 83.07 65.79 83.18 65.77 83.21 65.74 83.23 65.69 83.27 65.66 83.3 65.68 83.35 65.65 83.44 65.66 83.46 65.67 83.58 65.67 83.61 65.72 83.66 65.75 83.71 65.76 83.73 65.81 83.75 65.82 83.76 65.9 83.81 65.97 83.83 65.98 83.82 66.02 83.84 66.05 83.87 66.06 83.91 66.05 83.95 66.02 83.97 66.02 84.01 66.04 84.01 66.06 84.04 66.09 84.07 66.08 84.11 65.99 84.14 65.92 84.17 65.88 84.17 65.83 84.26 65.66 84.29 65.63 84.31 65.64 84.3 65.61 84.34 65.62 84.39 65.56 84.48 65.57 84.51 65.54 84.58 65.53 84.59 65.51 84.65 65.49 84.65 65.48 84.73 65.48 84.77 65.45 84.81 65.38 84.8 65.34 84.83 65.27 84.81 65.23 84.83 65.22 84.83 65.2 84.86 65.21 84.9 65.2 84.92 65.03 84.97 65.01 84.98 64.99 84.99 64.99 85.03 64.95 85.05 64.95 85.08 64.92 85.09 64.9 85.11 64.88 85.11 64.87 85.13 64.82 85.13 64.79 85.15 64.76 85.15 64.72 85.18 64.71 85.24 64.69 85.27 64.68 85.31 64.66 85.28 64.6 85.3 64.53 85.33 64.52 85.34 64.45 85.33 64.43 85.31 64.42 85.3 64.32 85.31 64.3 85.36 64.29 85.36 64.28 85.38 64.3 85.4 64.26 85.43 64.25 85.44 64.26 85.44 64.23 85.47 64.2 85.51 64.18 85.5 64.16 85.51 64.16 85.51 64.12 85.53 64.09 85.54 64.05 85.55 64.05 85.55 64.04 85.58 64.02 85.6 63.98 85.57 63.89 85.56 63.84 85.57 63.83 85.55 63.82 85.59 63.77 85.61 63.77 85.58 63.72 85.58 63.61 85.6 63.61 85.7 63.56 85.76 63.56 85.82 63.54 85.85 63.48 85.9 63.45 85.92 63.39 85.93 63.39 85.93 63.37 85.92 63.36 85.93 63.34 85.94 63.35 85.94 63.33 85.96 63.34 85.94 63.3 85.95 63.3 85.92 63.27 85.89 63.21 85.9 63.19 85.88 63.16 85.93 63.11 85.94 63.11 85.95 63.09 85.98 63.08 85.98 63.06 86.01 63.02 86.02 63.02 86.03 63 86.04 63 86.05 62.97 86.08 62.95 86.08 62.93 86.13 62.89 86.13 62.87 86.23 62.87 86.38 62.8 86.51 62.78 86.58 62.74 86.64 62.73 86.65 62.72 86.67 62.72 86.7 62.7 86.76 62.68 86.79 62.66 86.82 62.64 86.83 62.62 86.86 62.62 86.87 62.6 86.89 62.61 86.89 62.58 86.94 62.54 86.97 62.5 87.01 62.51 87.02 62.49 86.99 62.44 86.99 62.35 86.97 62.34 86.97 62.3 86.94 62.24 86.94 62.21 86.9 62.17 86.8 62.11 86.81 62.09 86.79 62.06 86.8 62.06 86.84 62.02 86.86 61.95 86.85 61.92 86.85 61.91 86.86 61.9 86.88 61.89 86.87 61.87 86.88 61.85 86.93 61.81 86.95 61.82 86.94 61.8 86.95 61.79 87.01 61.8 87.01 61.78 87.03 61.79 87.03 61.77 87.1 61.82 87.15 61.76 87.17 61.77 87.2 61.77 87.2 61.78 87.23 61.75 87.26 61.76 87.27 61.75 87.32 61.75 87.33 61.72 87.31 61.72 87.32 61.71 87.34 61.7 87.35 61.71 87.4 61.7 87.43 61.67 87.46 61.63 87.46 61.6 87.5 61.59 87.5 61.57 87.55 61.56 87.59 61.52 87.59 61.47 87.6 61.45 87.58 61.42 87.59 61.4 87.63 61.36 87.63 61.32 87.62 61.31 87.63 61.27 87.63 61.25 87.68 61.21 87.69 61.18 87.72 61.17 87.73 61.18 87.76 61.17 87.77 61.19 87.8 61.19 87.87 61.29 87.91 61.27 87.93 61.29 87.96 61.28 87.99 61.3 88.07 61.24 88.09 61.24 88.11 61.25 88.11 61.22 88.14 61.2 88.14 61.17 88.17 61.15 88.2 61.14 88.26 61.06 88.28 61.04 88.29 61.03 88.32 61.02 88.32 61 88.34 60.99 88.37 61.02 88.51 61.02 88.54 61.04 88.56 61.03 88.66 61.04 88.67 61.03 88.7 61.06 88.76 61.1 88.78 61.1 88.8 61.12 88.82 61.1 88.83 61.1 88.83 61.09 88.85 61.1 88.89 61.09 88.92 61.05 89 61.09 89.02 61.08 89.09 61.09 89.11 61.07 89.16 61.1 89.21 61.1 89.23 61.12 89.29 61.17 89.31 61.21 89.34 61.22 89.34 61.21 89.39 61.2 89.39 61.21 89.43 61.22 89.46 61.17 89.46 61.15 89.47 61.14 89.49 61.09 89.5 61.08 89.52 60.99 89.55 60.97 89.52 60.93 89.5 60.93 89.53 60.87 89.56 60.84 89.54 60.82 89.49 60.8 89.5 60.76 89.47 60.73 89.48 60.72 89.46 60.72 89.48 60.69 89.47 60.65 89.49 60.64 89.49 60.63 89.51 60.59 89.5 60.53 89.51 60.53 89.52 60.5 89.5 60.48 89.49 60.48 89.45 60.38 89.42 60.37 89.41 60.31 89.38 60.29 89.36 60.25 89.33 60.24 89.33 60.21 89.28 60.18 89.28 60.13 89.3 60.08 89.35 60.04 89.36 60.04 89.35 59.96 89.41 59.95 89.44 59.94 89.45 59.93 89.49 59.93 89.48 59.9 89.49 59.89 89.49 59.88 89.5 59.89 89.48 59.84 89.49 59.83 89.48 59.81 89.51 59.8 89.54 59.77 89.57 59.77 89.6 59.74 89.65 59.74 89.68 59.72 89.71 59.72 89.74 59.69 89.81 59.68 89.84 59.65 89.88 59.65 89.88 59.63 89.94 59.61 89.97 59.61 89.98 59.59 89.99 59.59 89.98 59.52 89.93 59.48 89.91 59.4 89.94 59.4 89.98 59.36 89.99 59.35 89.96 59.31 89.98 59.31 90.04 59.24 90.1 59.28 90.1 59.27 90.11 59.28 90.2 59.29 90.27 59.26 90.27 59.23 90.28 59.22 90.3 59.22 90.35 59.18 90.38 59.18 90.43 59.13 90.45 59.12 90.45 59.1 90.47 59.1 90.48 59.08 90.54 59.07 90.56 59.09 90.59 59.09 90.59 59.1 90.61 59.1 90.61 59.11 90.68 59.1 90.68 59.11 90.71 59.09 90.75 59.11 90.76 59.1 90.77 59.1 90.78 59.09 90.83 59.09 90.86 59.05 90.88 59.06 90.9 59.08 90.92 59.08 90.92 59.07 90.92 59 90.95 58.93 90.97 58.86 90.96 58.83 90.93 58.8 90.93 58.78 90.89 58.76 90.85 58.71 90.85 58.68 90.87 58.65 90.81 58.57 90.82 58.55 90.77 58.52 90.79 58.52 90.8 58.5 90.78 58.45 90.79 58.4 90.84 58.4 90.85 58.31 90.9 58.27 90.9 58.24 90.89 58.22 90.86 58.21 90.83 58.16 90.81 58.14 90.85 58.05 90.88 58.03 90.89 58.03 90.9 58.01 90.89 57.99 90.9 57.98 90.88 57.96 90.87 57.93 90.82 57.9 90.81 57.86 90.79 57.85 90.77 57.79 90.78 57.73 90.75 57.67 90.72 57.65 90.69 57.57 90.66 57.56 90.61 57.53 90.62 57.52 90.61 57.51 90.57 57.5 90.52 57.5 90.5 57.48 90.48 57.45 90.47 57.4 90.43 57.38 90.44 57.36 90.38 57.26 90.46 57.18 90.52 57.18 90.6 57.14 90.61 57.1 90.61 57.06 90.62 57.05 90.64 57.05 90.66 57.04 90.72 56.99 90.79 56.97 90.82 56.97 90.82 56.95 90.84 56.93 90.85 56.88 90.86 56.83 90.9 56.79 90.89 56.77 90.86 56.76 90.77 56.68 90.77 56.67 90.75 56.62 90.83 56.49 90.83 56.43 90.84 56.42 90.85 56.4 90.83 56.4 90.82 56.36 90.79 56.35 90.75 56.33 90.7 56.26 90.67 56.26 90.62 56.26 90.51 56.22 90.45 56.17 90.45 56.13 90.54 56.11 90.54 56.09 90.6 56.01 90.59 55.97 90.6 55.9 90.63 55.89 90.69 55.84 90.78 55.75 90.79 55.74 90.78 55.73 90.85 55.67 90.91 55.69 90.96 55.68 90.98 55.67 91.05 55.63 91.11 55.62 91.1 55.58 91.23 55.48 91.19 55.32 91.18 55.23 91.19 55.2 91.19 55.15 91.2 55.13 91.19 55.06 91.18 55.02 91.19 54.99 91.15 54.94 91.14 54.92 91.15 54.89 91.11 54.82 91.11 54.77 91.08 54.75 91.07 54.68 91.08 54.66 91.12 54.62 91.14 54.6 91.14 54.52 91.19 54.48 91.31 54.46 91.41 54.43 91.55 54.47 91.61 54.52 91.64 54.47 91.68 54.43 91.74 54.45 91.77 54.42 91.79 54.42 91.8 54.43 91.81 54.41 91.88 54.36 91.92 54.37 91.94 54.36 91.96 54.34 91.96 54.3 91.97 54.29 92.05 54.32 92.06 54.3 92.08 54.31 92.16 54.31 92.28 54.41 92.3 54.39 92.35 54.39 92.37 54.37 92.4 54.36 92.47 54.42 92.5 54.41 92.49 54.44 92.53 54.48 92.52 54.49 92.59 54.53 92.65 54.55 92.7 54.57 92.74 54.63 92.82 54.63 92.84 54.65 92.87 54.64 92.91 54.66 92.94 54.66 92.95 54.68 93.17 54.65 93.22 54.63 93.23 54.6 93.27 54.58 93.31 54.6 93.37 54.6 93.37 54.62 93.41 54.63 93.52 54.61 93.58 54.61 93.6 54.57 93.66 54.56 93.71 54.53 93.75 54.53 93.82 54.5 93.87 54.51 93.88 54.49 93.88 54.47 94 54.43 94.09 54.45 94.14 54.44 94.14 54.43 94.16 54.43 94.2 54.45 94.24 54.44 94.44 54.48 94.43 54.5 94.48 54.53 94.48 54.56 94.5 54.57 94.49 54.57 94.49 54.59 94.47 54.6 94.48 54.61 94.43 54.65 94.41 54.69 94.45 54.7 94.46 54.72 94.57 54.73 94.6 54.75 94.67 54.74 94.68 54.77 94.71 54.79 94.76 54.76 94.86 54.75 94.95 54.75 95.05 54.73 95.08 54.73 95.19 54.78 95.17 54.87 95.18 54.88 95.2 54.89 95.19 54.9 95.22 54.9 95.2 54.94 95.19 54.94 95.2 54.96 95.19 54.97 95.28 54.98 95.33 55.01 95.32 55.02 95.35 55.04 95.37 55.07 95.43 55.07 95.43 55.09 95.47 55.1 95.47 55.15 95.54 55.16 95.57 55.15 95.58 55.17 95.59 55.16 95.6 55.17 95.59 55.18 95.64 55.21 95.63 55.25 95.69 55.29 95.68 55.36 95.7 55.39 95.69 55.41 95.71 55.42 95.72 55.45 95.8 55.41 95.8 55.42 95.85 55.44 95.91 55.44 95.96 55.44 95.99 55.43 96.01 55.45 96.04 55.42 96.05 55.43 96.08 55.44 96.09 55.47 96.13 55.49 96.16 55.47 96.21 55.5 96.23 55.48 96.29 55.47 96.31 55.45 96.32 55.45 96.38 55.46 96.38 55.47 96.42 55.48 96.43 55.49 96.46 55.48 96.5 55.49 96.58 55.46 96.63 55.49 96.65 55.48 96.71 55.49 96.8 55.48 96.83 55.48 96.84 55.52 96.9 55.54 96.91 55.56 97 55.55 97.01 55.54 97.05 55.58 97.11 55.55 97.14 55.57 97.19 55.57 97.25 55.6 97.28 55.59 97.32 55.62 97.47 55.64 97.56 55.68 97.61 55.74 97.65 55.72 97.65 55.7 97.68 55.69 97.71 55.69 97.71 55.7 97.72 55.7 97.82 55.65 97.86 55.67 97.95 55.69 98.03 55.75 98.05 55.75 98.05 55.85 98.07 55.87 98.08 55.89 98.07 55.9 98.07 55.92 98.04 55.97 98.1 55.98 98.13 56 98.15 56 98.16 56.02 98.24 56 98.27 56.03 98.28 56.01 98.33 56 98.37 56.04 98.37 56.03 98.44 56.03 98.44 56.05 98.46 56.06 98.47 56.04 98.49 56.04 98.49 56.03 98.5 56.02 98.52 56.03 98.52 56.02 98.56 56.01 98.59 56.02 98.59 56 98.62 56 98.64 55.98 98.67 55.98 98.68 55.94 98.7 55.93 98.7 55.9 98.76 55.91 98.84 55.9 98.86 55.88 98.9 55.87 98.93 55.89 98.96 55.86 98.98 55.86 99.01 55.87 99.02 55.86 99.05 55.87 99.08 55.87 99.08 55.87 99.12 55.88 99.12 55.94 99.15 55.96 99.17 55.99 99.32 55.95 99.35 55.96 99.4 56.01 99.4 56.04 99.42 56.06 99.46 56.04 99.49 56.04 99.62 56.04 99.63 56.01 99.7 56.01 99.72 55.99 99.74 55.99 99.74 56.01 99.78 56.02 99.84 56.03 99.94 55.97 99.99 55.97 100.06 55.96 100.13 55.97 100.15 55.97 100.23 55.98 100.23 56 100.19 56.05 100.21 56.09 100.22 56.15 100.24 56.15 100.23 56.17 100.22 56.2 100.25 56.21 100.29 56.25 100.33 56.27 100.39 56.26 100.4 56.27 100.5 56.29 100.53 56.27 100.54 56.26 100.58 56.26 100.6 56.27 100.64 56.29 100.69 56.3 100.72 56.29 100.78 56.32 100.82 56.36 100.84 56.4 100.87 56.41 100.91 56.44 100.9 56.47 100.89 56.48 100.89 56.55 100.86 56.56 100.85 56.62 100.82 56.64 100.84 56.66 100.87 56.66 100.9 56.68 100.92 56.68 100.92 56.67 101 56.69 101.04 56.73 101.06 56.77 101.09 56.79 101.08 56.81 101.09 56.82 101.11 56.85 101.15 56.88 101.18 56.87 101.19 56.88 101.18 56.93 101.2 56.93 101.19 56.98 101.21 56.99 101.26 57.08 101.3 57.08 101.33 57.09 101.4 57.16 101.5 57.2 101.5 57.2 101.57 57.27 101.63 57.29 101.64 57.31 101.72 57.3 101.8 57.32 101.83 57.35 101.85 57.35 101.83 57.36 101.83 57.37 101.84 57.4 101.85 57.41 101.87 57.45 101.87 57.46 101.91 57.49 101.97 57.48 101.98 57.5 101.99 57.5 101.99 57.51 102.02 57.5 102.04 57.51 102.05 57.5 102.09 57.51 102.12 57.54 102.14 57.54 102.22 57.57 102.23 57.59 102.3 57.64 102.31 57.67 102.37 57.68 102.38 57.7 102.48 57.75 102.55 57.72 102.56 57.69 102.64 57.67 102.69 57.68 102.71 57.67 102.74 57.68 102.75 57.67 102.78 57.66 102.87 57.69 102.88 57.69 102.9 57.7 102.93 57.69 102.95 57.72 103 57.74 103 57.77 103.01 57.77 103.01 57.79 103.06 57.83 103.06 57.85 103.09 57.86 103.15 57.82 103.24 57.71 103.3 57.71 103.34 57.77 103.32 57.79 103.33 57.86 103.31 57.9 103.35 57.93 103.35 57.95 103.37 57.97 103.36 57.98 103.39 57.99 103.4 57.98 103.39 58 103.42 58.03 103.44 58.09 103.43 58.15 103.43 58.15 103.41 58.16 103.4 58.18 103.43 58.19 103.47 58.17 103.57 58.22 103.6 58.23 103.63 58.23 103.62 58.25 103.65 58.28 103.69 58.32 103.78 58.35 103.81 58.39 103.81 58.41 103.84 58.43 103.87 58.42 103.99 58.41 104.05 58.39 104.12 58.49 104.1 58.57 104.18 58.6 104.23 58.58 104.35 58.62 104.41 58.65 104.43 58.67 104.42 58.77 104.43 58.79 104.44 58.83 104.48 58.85 104.48 58.87 104.56 58.9 104.57 58.92 104.6 58.92 104.62 58.99 104.66 59.02 104.66 59.12 104.65 59.12 104.64 59.15 104.68 59.16 104.73 59.15 104.78 59.15 104.81 59.18 104.82 59.22 104.85 59.26 104.87 59.27 104.87 59.29 104.9 59.32 104.92 59.32 104.92 59.34 104.93 59.35 104.95 59.4 105.02 59.44 105.04 59.49 105.11 59.54 105.11 59.59 105.13 59.61 105.13 59.66 105.15 59.68 105.14 59.69 105.16 59.71 105.16 59.74 105.27 59.84 105.3 59.85 105.3 59.97 105.36 59.99 105.45 60.06 105.46 60.15 105.52 60.16 105.56 60.16 105.58 60.15 105.68 60.17 105.76 60.2 105.78 60.23 105.78 60.26 105.81 60.26 105.82 60.27 105.88 60.28 106.06 60.36 106.03 60.38 106.02 60.49 106 60.51 105.99 60.51 105.98 60.53 105.99 60.54 105.97 60.57 105.93 60.59 105.87 60.66 105.87 60.67 105.89 60.68 105.88 60.69 105.88 60.74 105.9 60.79 105.93 60.82 105.96 60.82 105.95 60.84 105.95 60.88 105.96 60.89 105.97 60.89 105.96 60.92 105.94 60.92 105.94 60.93 105.98 60.96 106.06 60.98 106.09 61.01 106.08 61.03 106.09 61.06 106.08 61.13 106.06 61.14 106.05 61.24 106.01 61.29 105.97 61.27 105.95 61.28 105.94 61.35 105.92 61.37 105.87 61.38 105.88 61.39 105.81 61.44 105.79 61.46 105.77 61.47 105.77 61.5 105.75 61.5 105.75 61.53 105.71 61.52 105.7 61.54 105.63 61.55 105.63 61.59 105.61 61.6 105.59 61.64 105.57 61.65 105.57 61.71 105.56 61.72 105.57 61.74 105.56 61.82 105.59 61.81 105.69 61.84 105.71 61.86 105.72 61.9 105.75 61.91 105.76 61.92 105.79 61.93 105.77 61.95 105.79 61.99 105.79 62 105.82 62.04 105.87 62.07 105.86 62.08 105.86 62.09 105.83 62.12 105.83 62.14 105.81 62.17 105.73 62.17 105.66 62.2 105.66 62.24 105.64 62.26 105.59 62.27 105.59 62.28 105.55 62.28 105.51 62.31 105.51 62.32 105.46 62.34 105.5 62.35 105.5 62.41 105.53 62.4 105.56 62.41 105.56 62.42 105.61 62.43 105.64 62.47 105.62 62.5 105.63 62.53 105.66 62.55 105.64 62.56 105.63 62.58 105.64 62.59 105.61 62.64 105.66 62.7 105.69 62.71 105.7 62.73 105.74 62.77 105.78 62.78 105.79 62.8 105.84 62.79 105.86 62.8 105.91 62.81 106 62.85 106.03 62.89 106.11 62.9 106.16 62.94 106.17 62.97 106.16 62.99 106.1 63.03 106.1 63.04 106.09 63.09 106.05 63.14 106.06 63.18 106.01 63.21 106 63.21 105.95 63.24 105.93 63.35 105.94 63.38 105.96 63.4 105.98 63.45 105.94 63.47 105.95 63.49 105.9 63.55 105.89 63.6 105.85 63.6 105.84 63.63 105.75 63.7 105.77 63.73 105.82 63.75 105.88 63.81 105.92 63.83 105.99 63.84 106.02 63.86 106.03 63.86 106.04 63.88 106.07 63.89 106.09 63.91 106.09 63.93 106.05 63.96 106.04 63.99 106 64.05 106.04 64.08 106.05 64.11 106.03 64.12 106.02 64.14 105.97 64.2 105.97 64.26 105.95 64.26 105.94 64.28 105.94 64.35 105.92 64.37 105.95 64.4 105.95 64.42 106.03 64.47 106.04 64.49 106.03 64.54 106.05 64.56 106.06 64.6 106.08 64.61 106.11 64.67 106.18 64.72 106.15 64.75 106.1 64.78 106.08 64.83 106.11 64.86 106.18 64.89 106.18 64.93 106.17 64.95 106.22 64.96 106.27 64.98 106.38 65 106.42 65.02 106.44 65.05 106.46 65.04 106.49 65.06 106.49 65.07 106.51 65.13 106.51 65.18 106.54 65.21 106.54 65.24 106.52 65.27 106.6 65.28 106.62 65.31 106.66 65.32 106.71 65.38 106.72 65.38 106.74 65.39 106.77 65.37 106.8 65.38 106.82 65.36 106.86 65.38 106.88 65.44 106.91 65.45 106.96 65.45 106.98 65.49 107.04 65.51 107.07 65.5 107.1 65.47 107.15 65.47 107.2 65.5 107.24 65.51 107.34 65.5 107.36 65.53 107.39 65.54 107.43 65.59 107.46 65.62 107.46 65.64 107.5 65.68 107.49 65.7 107.52 65.72 107.58 65.72 107.64 65.76 107.65 65.76 107.7 65.75 107.76 65.79 107.83 65.8 107.86 65.79 107.9 65.8 107.9 65.78 107.96 65.76 107.98 65.74 108.05 65.71 108.08 65.71 108.07 65.73 108.09 65.74 108.13 65.74 108.15 65.72 108.25 65.73 108.38 65.77 108.44 65.75 108.44 65.73 108.5 65.68 108.63 65.65 108.66 65.6 108.74 65.63 108.76 65.61 108.81 65.62 108.84 65.61 108.87 65.61 108.89 65.64 108.93 65.64 109.02 65.7 109.04 65.71 109.05 65.74 109.08 65.77 109.13 65.79 109.14 65.8 109.17 65.81 109.19 65.82 109.23 65.88 109.28 65.88 109.35 65.92 109.46 66.02 109.46 66.04 109.47 66.03 109.54 66.06 109.56 66.06 109.57 66.1 109.52 66.17 109.52 66.21 109.59 66.24 109.61 66.27 109.63 66.26 109.64 66.27 109.69 66.29 109.72 66.33 109.76 66.35 109.76 66.36 109.79 66.36 109.81 66.4 109.84 66.44 109.89 66.43 109.96 66.45 109.96 66.47 109.98 66.5 110.04 66.5 110.05 66.51 110.13 66.52 110.14 66.54 110.18 66.55 110.18 66.59 110.19 66.6 110.22 66.6 110.25 66.57 110.28 66.57 110.3 66.54 110.32 66.54 110.35 66.53 110.41 66.55 110.45 66.54 110.46 66.54 110.5 66.54 110.52 66.55 110.55 66.6 110.58 66.62 110.61 66.67 110.64 66.66 110.65 66.67 110.67 66.67 110.74 66.74 110.77 66.81 110.85 66.87 110.9 66.87 110.95 66.92 111.08 66.89 111.15 66.83 111.2 66.84 111.2 66.83 111.33 66.78 111.35 66.81 111.39 66.83 111.42 66.86 111.48 66.86 111.57 66.89 111.73 66.91 111.81 67.01 111.84 67.02 111.84 67.07 111.86 67.1 111.89 67.13 111.88 67.14 111.92 67.21 111.91 67.24 111.96 67.26 111.98 67.29 112.01 67.3 112.01 67.31 112.02 67.32 112.03 67.34 112.05 67.36 112.04 67.49 112.09 67.53 112.21 67.53 112.29 67.55 112.33 67.59 112.38 67.58 112.42 67.6 112.5 67.57 112.54 67.58 112.61 67.62 112.63 67.65 112.71 67.65 112.76 67.63 112.85 67.66 112.93 67.62 112.99 67.61 113.02 67.59 113.2 67.56 113.27 67.57 113.36 67.51 113.52 67.6 113.54 67.63 113.63 67.65 113.68 67.64 113.7 67.66 113.7 67.68 113.74 67.73 113.77 67.73 113.83 67.75 113.94 67.74 114 67.77 114.07 67.78 114.06 67.83 114.11 67.88 114.09 67.91 114.1 67.93 114.13 67.96 114.17 67.96 114.22 68.03 114.24 68.03 114.29 68.01 114.29 68 114.38 67.95 114.38 67.93 114.41 67.93 114.45 67.94 114.46 67.97 114.52 67.99 114.57 67.97 114.6 67.97 114.64 67.92 114.73 67.92 114.81 67.94 114.84 67.97 114.85 67.97 114.88 67.95 114.94 67.94 115.06 67.96 115.12 67.95 115.15 68.03 115.15 68.03 115.18 68.04 115.18 68.05 115.22 68.07 115.23 68.1 115.27 68.1 115.28 68.16 115.33 68.15 115.35 68.16 115.37 68.16 115.37 68.15 115.44 68.17 115.47 68.16 115.5 68.17 115.55 68.21 115.66 68.2 115.69 68.18 115.73 68.17 115.76 68.15 115.81 68.17 115.95 68.19 115.99 68.22 116.06 68.23 116.16 68.22 116.2 68.26 116.26 68.27 116.27 68.35 116.3 68.39 116.3 68.42 116.26 68.44 116.24 68.48 116.25 68.49 116.25 68.51 116.29 68.52 116.34 68.57 116.35 68.58 116.37 68.6 116.39 68.6 116.43 68.63 116.47 68.63 116.51 68.6 116.54 68.61 116.55 68.6 116.61 68.61 116.63 68.6 116.69 68.61 116.73 68.6 116.73 68.58 116.75 68.57 116.82 68.58 116.92 68.54 117.02 68.6 117.09 68.62 117.11 68.62 117.13 68.6 117.2 68.58 117.21 68.56 117.28 68.54 117.3 68.54 117.34 68.56 117.36 68.55 117.42 68.56 117.45 68.55 117.49 68.57 117.5 68.56 117.54 68.57 117.57 68.59 117.62 68.55 117.62 68.54 117.63 68.52 117.68 68.5 117.69 68.48 117.72 68.47 117.72 68.45 117.74 68.44 117.73 68.42 117.76 68.39 117.76 68.37 117.77 68.33 117.76 68.29 117.75 68.28 117.79 68.26 117.85 68.27 117.86 68.26 117.87 68.26 118.02 68.25 118.07 68.23 118.12 68.23 118.15 68.23 118.22 68.27 118.23 68.3 118.28 68.35 118.29 68.35 118.35 68.37 118.37 68.36 118.43 68.41 118.48 68.4 118.53 68.42 118.66 68.39 118.68 68.45 118.73 68.45 118.73 68.47 118.74 68.48 118.74 68.51 118.85 68.55 118.86 68.58 118.89 68.6 118.92 68.68 118.95 68.68 118.98 68.72 119.01 68.73 119.02 68.72 119.04 68.73 119.08 68.77 119.17 68.83 119.19 68.83 119.23 68.83 119.23 68.82 119.24 68.83 119.34 68.81 119.42 68.81 119.45 68.81 119.45 68.78 119.49 68.78 119.51 68.77 119.54 68.78 119.58 68.76 119.63 68.81 119.67 68.82 119.72 68.86 119.75 68.86 119.81 68.89 119.82 68.91 119.86 68.93 119.89 68.92 119.92 68.89 119.93 68.86 119.97 68.83 120.12 68.9 120.2 68.89 120.24 68.91 120.26 68.92 120.29 68.91 120.29 68.95 120.32 68.96 120.36 68.96 120.41 68.99 120.43 68.98 120.46 68.99 120.53 68.98 120.56 69.02 120.6 69.04 120.72 69.04 120.73 69.07 120.75 69.1 120.81 69.13 120.9 69.11 120.96 69.08 120.97 69.06 120.96 69.03 120.98 68.96 121.05 68.89 121.1 68.89 121.12 68.86 121.17 68.89 121.25 68.9 121.3 68.88 121.31 68.89 121.33 68.89 121.33 68.87 121.35 68.87 121.38 68.84 121.43 68.83 121.47 68.86 121.57 68.91 121.64 68.89 121.67 68.91 121.72 68.9 121.74 68.92 121.83 68.93 122.1 68.92 122.21 68.95 122.23 68.97 122.27 68.96 122.28 68.92 122.36 68.88 122.37 68.86 122.42 68.85 122.45 68.83 122.48 68.83 122.56 68.8 122.6 68.77 122.64 68.76 122.65 68.77 122.68 68.77 122.7 68.75 122.74 68.77 122.82 68.85 122.87 68.85 122.91 68.85 122.93 68.84 123 68.84 123.01 68.88 123.04 68.91 123.03 68.96 123.05 69 123.04 69.03 123.04 69.04 123.05 69.06 123.14 69.11 123.14 69.13 123.16 69.15 123.16 69.18 123.2 69.19 123.23 69.22 123.23 69.25 123.29 69.24 123.31 69.23 123.44 69.23 123.5 69.3 123.52 69.3 123.54 69.29 123.56 69.31 123.57 69.35 123.62 69.38 123.67 69.36 123.67 69.34 123.7 69.33 123.71 69.29 123.73 69.29 123.77 69.27 123.82 69.25 123.84 69.26 123.89 69.32 123.92 69.34 123.94 69.34 123.97 69.32 124.04 69.32 124.06 69.34 124.1 69.35 124.15 69.34 124.17 69.35 124.24 69.35 124.3 69.3 124.31 69.3 124.34 69.36 124.37 69.39 124.47 69.41 124.5 69.38 124.55 69.27 124.56 69.25 124.61 69.25 124.63 69.24 124.63 69.22 124.66 69.22 124.7 69.19 124.78 69.22 124.84 69.21 124.91 69.21 124.97 69.17 125.04 69.16 125.12 69.19 125.22 69.24 125.33 69.25 125.36 69.24 125.42 69.27 125.44 69.26 125.58 69.33 125.63 69.38 125.71 69.38 125.72 69.36 125.76 69.35 125.83 69.29 125.9 69.29 125.91 69.27 125.92 69.27 125.93 69.25 125.97 69.24 125.99 69.21 126.03 69.2 126.07 69.14 126.15 69.08 126.26 69.04 126.27 69.06 126.29 69.06 126.33 69.04 126.34 69.03 126.43 69.06 126.45 69.05 126.48 69.09 126.5 69.09 126.53 69.12 126.6 69.09 126.66 69.09 126.69 69.06 126.74 69.06 126.8 69.02 126.86 69.05 126.9 69.08 126.95 69.07 127 69.04 127.04 69.06 127.07 69.04 127.14 69.06 127.19 69.07 127.3 69.02 127.33 69.02 127.36 69 127.44 69.01 127.48 69.05 127.5 69.04 127.55 69.05 127.57 69 127.6 68.99 127.62 68.94 127.67 68.91 127.72 68.83 127.82 68.82 127.9 68.82 127.92 68.77 127.88 68.63 127.91 68.54 127.98 68.53 128.04 68.47 128.09 68.49 128.12 68.47 128.27 68.43 128.28 68.47 128.31 68.48 128.36 68.51 128.4 68.56 128.44 68.58 128.47 68.62 128.52 68.61 128.55 68.62 128.57 68.61 128.59 68.61 128.64 68.59 128.66 68.61 128.78 68.62 128.84 68.74 128.85 68.75 128.89 68.83 128.91 68.85 128.95 68.86 128.99 68.83 129.1 68.81 129.21 68.76 129.28 68.76 129.33 68.8 129.45 68.81 129.46 68.82 129.53 68.84 129.55 68.87 129.62 68.9 129.71 68.89 129.73 68.88 129.75 68.88 129.78 68.91 129.82 68.94 129.94 68.98 129.97 69.01 129.98 69.03 130.09 69.05 130.21 69.05 130.22 69.02 130.26 69 130.25 68.99 130.36 68.99 130.39 68.97 130.48 68.88 130.51 68.82 130.55 68.79 130.58 68.73 130.61 68.7 130.67 68.68 130.7 68.65 130.73 68.67 130.76 68.67 130.83 68.7 130.85 68.72 130.93 68.77 131.02 68.78 131.03 68.8 131.07 68.82 131.17 68.83 131.2 68.85 131.23 68.85 131.26 68.91 131.3 68.92 131.33 68.94 131.4 68.88 131.47 68.86 131.6 68.83 131.69 68.86 131.68 68.8 131.68 68.49 131.74 68.07 131.82 67.72 131.95 67.46 132.05 67.33 132.2 67.21 132.39 67.02 132.66 66.85 132.9 66.72 133.1 66.58 133.21 66.49 133.29 66.4 133.41 66.19 133.6 65.87 133.71 65.65 133.76 65.41 133.76 65.3 133.71 65.1 133.63 64.93 133.5 64.75 133.34 64.6 132.71 64.14 132.49 64.02 132.35 63.97 132.31 63.91 132.26 63.67 132.4 63.51 132.63 63.21 132.97 62.81 133.24 62.54 133.49 62.37 133.77 62.22 134.07 62.03 134.31 61.84 134.46 61.6 134.53 61.28 134.51 61.03 134.42 60.48 134.47 60.16 134.62 59.91 134.76 59.73 135.05 59.47 135.56 59.05 135.8 58.77 135.93 58.18 135.94 57.74 135.9 57.6 135.74 57.4 135.65 57.33 135.42 57.06 134.87 56.51 134.55 56.13 134.43 55.82 134.48 55.5 134.59 55.37 134.71 55.26 134.92 55.09 135.28 54.98 135.54 55.01 135.94 55.15 136.85 55.92 137.66 56.99 137.91 57.17 138.53 57.3 139.01 57.43 139.36 57.5 139.8 57.48 140.27 57.3 140.61 56.94 141.01 56.81 142.76 56.56 143.19 56.44 143.55 56.26 143.71 56.23 143.98 56.01 144.14 55.71 144.18 55.13 144.14 54.73 143.87 54.42 143.56 54.21 143.32 54.06 142.53 53.79 141.91 53.59 141.41 53.48 140.98 53.46 140.59 53.36 140.32 53.22 139.82 52.95 139.6 52.63 139.47 52.3 139.44 52.03 139.42 51.96 139.37 51.64 139.67 50.14 139.96 48.97 140.02 48.77 140.23 48.35 140.35 48.06 140.39 48.02 140.44 47.96 140.54 47.78 140.59 47.73 140.65 47.57 140.9 47.28 141.45 46.88 141.7 46.68 141.91 46.52 142.17 46.35 142.34 46.26 142.82 46.09 143.38 45.99 143.74 45.91 144.04 45.8 144.53 45.59 144.8 45.5 145.17 45.38 145.39 45.27 145.56 45.17 145.88 44.94 146.49 44.66 146.66 44.56 146.76 44.48 146.86 44.39 146.93 44.25 146.9 44.05 146.79 43.78 146.69 43.58 146.4 43.29 146.3 43.18 146.08 43.01 146.01 42.86 145.94 42.61 145.94 42.56 145.92 42.51 145.57 41.92 145.19 41.38 144.98 41.11 144.83 40.89 144.62 40.66 144.45 40.5 144.27 40.3 144.01 39.93 143.8 39.7 143.69 39.53 143.66 39.41 143.66 39.12 143.63 39.05 143.51 38.99 143.34 38.96 143.08 38.94 142.9 38.97 142.8 38.96 142.62 38.9 142.41 38.79 142.16 38.61 141.83 38.41 141.42 38.12 141.38 38.01 141.4 37.84 141.45 37.65 141.5 37.56 141.64 37.42 141.67 37.27 141.71 36.95 141.7 36.84 141.75 36.38 141.81 36.17 141.84 35.74 141.87 35.11 141.86 35.04 141.87 34.9 141.91 34.82 142.25 34.6 142.38 34.47 142.48 34.23 142.5 34.14 142.47 34.03 142.36 33.92 142.25 33.89 142.2 33.86 142.16 33.79 142.12 33.67 142.12 33.07 142.09 32.91 142.13 32.74 142.14 32.57 142.21 32.32 142.27 32.06 142.27 31.99 142.33 31.93 142.51 31.65 142.56 31.52 142.62 31.49 142.64 31.31 142.61 31.15 142.54 30.95 142.46 30.79 142.4 30.73 142.28 30.67 142.02 30.61 141.73 30.58 141.55 30.52 141.34 30.37 141.25 30.23 141.2 30.11 141.1 30.07 141.04 29.95 141.04 29.83 141.07 29.74 141.16 29.68 141.32 29.64 141.59 29.58 141.89 29.57 142.43 29.56 142.62 29.58 142.88 29.63 143.62 29.84 143.96 30.05 144.07 30.1 144.25 30.29 144.4 30.5 144.6 30.64 144.96 30.81 145.49 31.1 145.73 31.14 145.96 31.2 146.36 31.22 146.65 31.26 146.86 31.27 146.97 31.25 147.08 31.2 147.24 31.12 147.25 31.07 147.26 30.92 147.21 30.44 147.26 30.31 147.4 29.81 147.42 29.75 147.63 29.47 147.71 29.26 147.71 29.17 147.69 29.12 147.7 29.07 147.77 29.02 147.88 29 148.3 29.01 148.54 28.99 149.01 28.92 149.07 28.94 149.17 28.93 149.24 28.91 149.34 28.83 149.49 28.56 149.82 28.09 149.94 27.86 149.88 27.5 149.88 27.35 149.83 27.22 149.8 26.96 149.75 26.7 149.69 26.51 149.72 26.42 149.91 26.37 150.16 26.34 150.28 26.31 150.47 26.3 150.66 26.33 150.87 26.35 151.14 26.4 151.48 26.41 151.58 26.39 151.71 26.29 151.8 26.21 151.83 26.12 151.82 25.91 151.72 25.81 151.51 25.63 151.36 25.47 151.23 25.23 151.24 25.11 151.28 24.97 151.35 24.85 151.41 24.79 151.53 24.73 151.7 24.69 152.32 24.56 152.39 24.53 152.65 24.37 152.72 24.29 152.8 24.22 153.1 24.09 153.3 23.99 153.37 23.87 153.38 23.75 153.36 23.54 153.21 23.19 153.11 23.07 152.83 22.93 152.71 22.84 152.63 22.71 152.59 22.46 152.65 22.26 152.72 22.13 152.81 22.03 152.92 21.96 153.05 21.9 153.37 21.83 153.51 21.78 153.55 21.71 153.59 21.62 153.61 21.46 153.56 21.31 153.54 21.18 153.54 21.02 153.51 20.93 153.46 20.9 153.31 20.87 153.15 20.89 152.85 20.99 152.5 21.08 152.18 21.1 151.93 21.13 151.55 21.25 151.5 21.24 151.37 21.07 151.39 20.94 151.46 20.86 151.47 20.8 151.46 20.77 151.08 20.56 150.88 20.47 150.37 20.42 150.24 20.38 150.16 20.33 150.09 20.08 150.08 19.8 150.13 19.53 150.3 18.85 150.3 18.77 150.26 18.6 150.25 18.47 150.62 18.03 150.66 17.29 151 16.25 152.12 15.02 152.69 14.44 152.96 13.99 153.39 13.71 154.45 13.46 155.25 13.47 156.5 13.63 156.95 13.54 158.06 13.1 158.53 12.77 160.18 12.2 161.02 11.93 161.93 11.7 162.7 11.38 162.75 11.36 162.95 11.19 163.41 10.7 163.7 10.43 164.14 10.12 164.5 9.9 164.88 9.78 165.09 9.69 165.42 9.53 165.63 9.44 165.89 9.43 165.97 9.42 166.11 9.42 166.32 9.41 166.56 9.44 166.63 9.44 166.77 9.46 167.47 9.68 167.73 9.84 168.08 10.1 168.43 10.33 168.91 10.71 169.12 10.8 169.51 10.89 169.69 10.96 169.91 11.01 170.02 11.03 170.1 11.03 170.27 11.01 170.5 10.93 170.72 10.88 171.2 10.68 171.34 10.6 171.5 10.44 171.61 10.3 171.68 10.02 171.77 9.91 171.8 9.88 171.95 9.8 172.17 9.76 172.41 9.77 172.96 9.86 173.11 9.9 173.27 10 173.41 10.02 173.57 10.03 173.76 10 173.9 10.01 174.01 10.05 174.07 10.08 174.27 10.2 174.51 10.33 174.6 10.36 174.77 10.42 175.01 10.54 175.25 10.61 175.6 10.68 175.92 10.71 176.1 10.77 176.28 10.82 176.49 10.89 176.59 10.88 176.78 10.8 176.85 10.76 176.89 10.63 176.9 10.57 177.12 9.73 177.14 9.61 177.12 9.48 177.07 9.34 177.01 9.26 176.92 9.21 176.65 9.17 176.58 9.13 176.58 9.08 176.67 8.99 176.77 8.95 176.89 8.83 176.98 8.74 177.05 8.63 177.14 8.41 177.25 7.99 177.28 7.8 177.24 7.59 177.24 7.54 177.22 7.15 177.23 7.06 177.32 6.91 177.51 6.73 177.75 6.56 178.01 6.38 178.25 6.31 178.38 6.22 178.43 6.2 178.9 5.63 179.33 5.13 179.5 5.04 179.83 4.91 180.08 4.87 180.37 4.86 180.87 4.88 180.98 4.85 181.04 4.72 181.03 4.56 180.94 4.29 180.89 4.03 180.9 3.87 181.05 3.77 181.21 3.7 182.02 3.42 182.3 3.35 182.52 3.32 182.69 3.31 182.85 3.32 183.26 3.39 183.39 3.43 183.61 3.53 183.78 3.75 184.06 3.97 184.31 4.1 184.56 4.2 184.82 4.28 184.93 4.3 185.17 4.28 185.44 4.3 185.57 4.34 185.77 4.27 186.03 4.14 186.86 3.78 187.2 3.66 187.42 3.7 187.97 3.39 188.27 3.29 188.56 3.13 188.73 3.07 189.04 3.06 189.44 3.18 189.55 3.24 189.83 3.32 190.51 3.4 190.7 3.39 191.07 3.32 191.5 3.19 191.72 3.12 192.45 2.97 192.7 2.87 193.1 2.48 193.29 2.53 193.49 2.53 193.82 2.43 194.12 2.32 194.38 2.25 194.62 2.21 194.79 2.15 194.95 2.15 195.08 2.12 195.23 2.03 195.31 1.95 195.33 1.85 195.34 1.62 195.45 1.43 195.58 1.15 195.82 1.06 196.05 1.02 196.3 1 196.64 1.05 197.24 1.21 197.42 1.31 197.58 1.37 197.72 1.48 197.79 1.54 198 1.75 198.23 2.04 198.59 2.3 198.9 2.4 199.1 2.36 199.36 2.4 199.66 2.48 199.88 2.53 200.06 2.54 200.34 2.52 200.67 2.45 200.99 2.43 201.26 2.39 201.49 2.33 201.69 2.24 201.89 2.13 202.06 2.09 202.61 2.02 202.96 1.9 203.46 1.79 204.23 1.77 204.53 1.84 204.58 1.83 205.06 1.63 205.39 1.48 205.49 1.43 206.75 1.25 207.01 1.22 207.35 1.25 207.73 1.31 207.92 1.35 208.38 1.37 209.22 1.39 209.7 1.32 210.74 1.11 210.89 1.09 211.14 1.08 211.43 1.08 211.78 1.11 212.38 1.12 212.75 1.19 213.12 1.25 213.35 1.24 213.35 1.4 213.1 1.77 213.29 2.4 213.75 2.85 213.96 5.47 214.65 8.12 215.14 9.59 217.64 12.26 219.86 14.65 221.32 16.54 222.83 18.59 222.86 20.69 222.64 22.9 222.83 25.64 222.96 26.47 222.77 28.1 222.8 29.9 222.96 31.3 222.93 37.22 222.7 40.96 222.65 43.16 222.69 45.16 222.85 47.14 222.91 48.37 222.94 48.78 222.9 50.18 223.06 50.99 223.11 52.49 223.27 54.85 223.27 55.16 222.98 56.69 222.92 57.24 222.94 58.37 222.98 59.58 222.6 61.26 222.46 62.16 222.32 63.45 222.28 63.98 222.34 65.53 222.26 65.96 222.08 66.83 222.17 67.74 221.49 70.28 221.51 71.57 225.38 85.9 227.85 88.05 291.22 86.25 297.48 86.58 300.59 86.74 303.25 87.12 337.03 88.33 341.81 90.45 347.82 91.25 352.11 90.9 358.57 88.31 363.63 94.49 368.07 102.83 372.91 114.07 376.94 130.03 379.77 136.56 383.8 146.36 394.69 181.24 388.64 182.7 382.99 183.42 377.35 184.52 372.51 185.97 367.26 188.15 363.23 189.61 355.97 195.79 347.9 192.52 336.21 191.43 324.91 190.33 315.23 189.97 303.54 189.97 292.65 191.06 283.02 192.06 283.05 194.99 282.97 197.2 283.06 199.6 283.02 200.81 282.41 208.19 281.85 215.35 280.64 222.8 295.48 221.39 309.28 234.86 332.77 236.87 362.75 241.6 377.03 240.74 393.22 249.77 397.34 256.51 389.41 262.39 391.31 267.85 417.65 251.49 447.16 240.31 470.4 217.24 493.7 212.03 512.95 208.28 519.51 207.36 528.69 206.55 539.49 207.23 547.19 208.81 537.87 224.73 535.84 233.34 541.13 237.05 544.48 235.55 550.1 236.63 553.86 237.9 555.46 238.46 582.06 239.95 591.85 244.69 603.44 246.99 612.63 242.57 618.77 234.86 663.64 229.13 690.75 224.58 750.31 219.84 777.46 210.88 781.4 209.65 785.44 214.05 794.59 221.17 795.06 250.47 798.29 255.41 799 263.67 794.48 266.37 793.52 270.12 790.65 276.46 785.31 278.95 766.5 280.39 753.11 277.51 738.45 274.91 734.94 276.35 719.95 275.2 708.48 276.64 695.72 275.78 681.38 276.93 668.01 284.66 663.2 290.2 661.93 299.15 665.44 300.88 674.04 301.46 675.34 305.59 673.41 306.66 662.59 310.5 652.38 312.66 648.78 312.08 645.85 306.96 650.85 306.44 652.07 303.56 656.75 300.81 656.27 298.14 655.47 295.04 649.57 290.42 643.6 287.61 636.34 286.31 628.05 288.91 625.26 290.13 625.42 292.51 622.39 293.6 610.36 294.61 595.69 285.95 576.88 279.6 554.88 283.35 512.48 273.54 481.24 267.49 466.25 262.87 449.04 263.74 440.67 271.27 425.56 269.72 417.75 271.56 412.37 275.13 409.74 277.94 408.66 280.14 408.54 281.51 407.99 282.59 406.99 284.29 407.31 286.52 407.91 289.19 407.55 291.72 407.95 293.45 409.54 294.25 415.32 296.01 411.21 301.21 395.91 298.9 374.23 296.59 344.58 291.97 335.81 289.95 327.52 289.66 320.99 291.97 320.03 295.29 303.93 300.63 271.25 292.98 252.44 292.12 237.3 289.66 214.18 286.92 202.55 287.79 189 289.09 185.05 293.32 184.79 295.26 185.37 296.66 187.64 296.88 188.38 297.11 188.76 297.42 187.48 298.03 182.1 298.39 175.64 299.77 172.66 300.24 168.67 302.15 163.61 305.22 160.22 308.21 157.43 312.44 156.83 314.28 156.12 317.56 156.28 319.87 156.91 321.18 157.31 321.93 160.1 321.9 163.25 322.58 166.32 323.49 168.79 323.7 168.35 324.82 166.8 325.62 166.2 325.65 165.4 325.15 162.57 326.59 155.88 326.02 151.73 325.58 147.91 325.22 143.36 324.71 141.05 322.76 147.67 322.04 147.83 321.1 149.82 320.6 153.49 320.52 154.44 318.14 154.68 313.3 151.41 307.89 144.48 302.4 138.9 299.73 132.36 298.14 120.57 298.36 111.56 299.73 102.4 302.69 98.81 305.79 96.18 310.7 96.42 312.8 98.49 314.17 101.2 315.4 100.56 317.71 100.24 320.02 102.79 321.1 102.95 322.76 104.31 324.14 89.72 323.2 82.07 322.19 67.29 322.11 59.79 324.14 56.52 324.86 55.09 326.16 54.53 327.53 55.89 329.05 56.13 329.92 53.58 330.5 52.94 332.52 52.94 337.29 51.58 338.59 48.63 339.24 43.93 339.82 39.79 340.83 37.95 342.2 36.2 343 35.4 342.13 32.77 342.28 30.7 342.71 29.35 341.77 27.59 341.99 25.2 340.54 25.68 336.85 26.95 336.06 28.47 335.63 28.63 334.11 27.59 332.01 27.03 330.57 28.71 329.56 31.66 328.18 34.29 326.88 33.97 323.27 32.37 321.18 30.86 319.22 30.86 316.41 28.39 315.69 26.4 315.25 24.88 314.67 20.82 312.44 11.17 308.75 1 307.98 1.1 307.67 3.66 300.58 4.12 298.16 Z"/>
</g>
</svg>