<?xml version="1.0"?>
<svg xmlns="http://www.w3.org/2000/svg" version="1.2" baseProfile="tiny" fill="#f9c113" width="800" height="557" viewBox="0 0 800 557" stroke-linecap="round" stroke-linejoin="round">
<g fill="#c0392b" id="id_258">
<path d="M 119.23 454.3 134.52 454.3 147.17 454.78 161.93 456.2 177.23 457.63 187.77 461.9 197.26 453.83 202.53 451.93 209.39 449.08 215.72 447.18 223.1 445.75 230.48 444.8 238.39 442.9 224.15 397.35 218.88 384.55 215.19 376.02 209.92 355.17 203.59 340.5 197.79 329.61 191.17 321.54 182.72 324.92 177.11 325.38 169.26 324.33 163.02 321.56 118.85 319.98 115.37 319.48 111.3 319.28 103.13 318.84 20.27 321.2 17.05 318.4 11.99 299.67 11.97 297.99 12.86 294.67 12.74 293.48 12.96 292.35 13.08 291.78 13 289.76 13.04 289.07 13.23 287.39 13.41 286.22 13.91 284.02 13.86 282.43 13.83 280.96 13.91 280.24 14.29 278.25 14.29 277.84 14.08 274.75 14.01 272.81 13.8 271.75 13.86 269.92 13.82 269.38 13.74 267.77 13.53 265.19 13.48 262.58 13.55 259.7 13.85 254.81 13.89 247.08 13.67 245.26 13.63 242.91 13.89 240.78 13.71 239.69 13.47 236.12 13.75 233.23 13.71 230.49 11.74 227.81 9.83 225.35 6.93 222.22 3.66 218.73 3.02 216.82 2.11 213.35 1.84 209.93 1.24 209.35 1 208.52 1.33 208.04 1.33 207.83 1.9 207.82 2.21 207.85 2.46 207.85 3.04 208 3.41 208.07 5.04 208.08 5.8 208 5.89 207.93 5.93 207.52 5.97 207.39 6.1 207.09 6.3 206.84 6.79 206.49 7.28 206.22 7.7 206.03 8.63 205.78 8.87 205.7 9.09 205.55 10.34 205.15 10.9 205 11.19 204.89 11.41 204.75 11.72 204.43 12.3 204.01 12.72 203.86 13.04 203.76 13.34 203.72 14.24 203.64 14.63 203.43 14.87 203.19 15.22 202.62 15.33 202.3 15.56 201.99 16.58 201.45 16.87 201.35 17.3 201.26 17.83 200.96 18.04 200.71 18.28 200.33 18.33 200.11 18.3 199.71 18.38 199.25 18.53 198.76 18.73 198.46 19.37 198.08 19.99 198.11 20.56 198.18 21.16 198.28 21.62 198.29 22.33 198.17 22.91 198.01 23.36 197.85 24.08 197.7 24.89 197.62 25.24 197.7 25.54 197.84 25.85 198.08 26.04 198.2 26.26 198.27 26.49 198.38 26.59 198.56 26.81 198.82 27.09 199.05 27.55 199.73 27.85 200.06 28.05 200.25 28.5 200.56 28.81 200.74 29.17 200.89 29.53 200.98 29.93 201.06 30.14 201.07 30.28 201.03 30.52 200.87 30.75 200.63 31.05 200.29 31.71 199.36 32 198.97 32.24 198.67 32.36 198.56 32.54 198.51 32.81 198.54 32.94 198.57 33.18 198.65 33.52 198.84 34.36 198.89 34.68 198.92 34.97 198.9 35.19 198.85 35.71 198.7 36.12 198.62 37.12 198.27 37.46 198.12 37.78 197.76 38.04 197.52 38.25 197.25 38.46 197.11 38.69 197.06 38.97 197.05 39.16 197.06 39.38 197.12 39.85 197.28 40.15 197.28 40.32 197.27 40.47 197.22 40.56 197.08 40.57 196.86 40.65 196.55 40.75 196.34 41 195.99 41.02 195.97 41.32 195.92 41.62 195.96 41.85 196.01 42.02 196.22 42.26 196.57 42.46 196.91 42.67 197.13 42.76 197.2 42.89 197.28 43.13 197.32 43.39 197.33 43.61 197.37 43.89 197.44 44.11 197.43 44.24 197.34 44.3 197.18 44.33 196.93 44.22 196.71 43.9 196.3 43.48 195.66 43.1 195.14 42.66 194.68 42.42 194.47 42.3 194.24 42.28 193.95 42.47 193.32 42.54 193.19 42.73 192.77 42.91 192.48 43.18 192.27 43.34 192.16 43.38 192.15 43.95 191.84 44.4 191.81 44.92 191.8 45.28 191.81 45.67 191.66 45.87 191.45 45.93 191.37 46.03 191.17 46.2 190.71 46.4 190.42 46.73 190.03 47.36 189.51 48.16 188.99 48.37 188.87 48.52 188.35 48.98 188.12 49.33 188.11 50.03 188.11 50.6 188.22 51.02 188.02 51.89 188.51 52.2 188.74 52.52 188.9 52.95 189.49 53.77 189.88 54.52 190.15 55.05 190.12 55.3 190.12 55.79 190.07 56.07 189.79 56.2 189.3 56.48 188.92 56.75 188.83 57.12 188.66 57.65 188.34 58.44 187.73 59.13 187.18 59.96 186.72 60.29 186.63 60.66 186.85 60.85 187.18 60.91 187.47 61.05 187.69 61.23 187.77 61.88 187.8 62.17 187.74 62.47 187.53 62.88 187.28 63.3 187.07 63.5 186.94 63.63 186.92 64.03 186.88 64.43 186.87 64.66 186.96 65.05 187.26 65.29 187.51 65.64 187.81 66.35 188.2 66.83 188.57 67.33 188.88 67.95 189.43 68.49 190.04 68.66 190.3 68.79 190.35 69.04 190.26 69.48 189.97 69.89 189.62 70.18 189.25 70.56 188.44 70.84 188.28 71.24 188.41 71.57 188.53 72.19 189.08 72.57 189.3 72.89 189.41 73.49 189.42 73.84 189.33 74.41 189.11 74.88 189.04 75.68 188.97 76.45 188.88 77.22 188.81 78.03 189.01 78.3 189.01 78.59 188.97 79.1 189.01 79.33 189.06 79.77 189.3 79.91 189.36 80.28 189.4 80.95 189.37 82.12 189.13 82.69 188.99 83.36 188.99 83.94 188.7 84.29 188.57 84.67 188.42 85.32 188.3 85.69 188.2 85.81 188.19 85.94 188.2 86.26 188.06 86.67 187.94 86.91 187.96 87.27 188.06 88.03 188.31 88.5 188.54 88.78 188.92 88.99 189.14 89.26 189.39 89.6 189.52 90.23 189.61 90.56 189.66 91.09 189.6 91.48 188.89 92.11 188.65 92.73 188.9 92.94 189.06 93.44 188.84 93.8 188.64 95.16 188.17 95.69 188.18 95.73 188.18 96.13 188.32 96.16 188.77 96.9 189.48 97.68 189.68 98.15 189.82 98.89 189.99 99.42 190.02 100.04 190.01 100.19 189.88 100.26 189.28 100.33 188.92 100.51 188.76 100.84 188.57 101.07 188.5 101.49 188.52 101.75 188.57 102.05 188.68 102.42 189.05 102.75 189.45 102.83 189.57 103 189.6 103.26 189.59 103.51 189.47 103.78 188.81 104.51 188.07 105.02 187.65 105.25 187.58 105.7 187.49 106.38 187.62 106.68 187.65 107.76 187.82 108.22 187.68 108.52 187.56 108.76 187.35 109 187.22 109.25 187.14 109.53 187.19 109.75 187.28 109.86 187.3 110.46 187.38 110.59 187.38 111.04 187.46 111.54 187.58 111.77 187.82 111.88 187.85 111.94 187.9 111.97 187.96 112.11 188.08 112.17 188.12 112.26 188.13 112.44 188.14 112.52 188.17 112.6 188.17 113.13 188.05 113.39 187.94 113.54 187.87 114.07 187.51 114.25 187.42 114.62 187.2 115.02 187.09 115.49 186.98 115.84 186.94 116.12 186.94 116.74 187.19 116.89 187.3 117.22 187.36 117.51 187.39 117.63 187.48 117.75 187.62 117.91 187.92 118.05 188.47 118.12 188.64 118.2 188.96 118.45 189.74 118.5 189.98 118.59 190.02 118.77 190.05 118.94 190.02 119.12 189.95 119.24 189.86 119.68 189.47 119.88 189.34 120.22 189.19 120.4 189.13 120.8 189.06 121.43 189.03 121.83 188.98 122.09 188.89 122.32 188.71 122.46 188.47 122.58 188.2 122.92 188.06 123.19 187.99 123.32 187.93 123.54 187.94 123.69 188.04 123.69 188.08 123.72 188.14 123.77 188.17 123.81 188.22 123.82 188.27 123.88 188.38 123.95 188.47 124.38 189.15 124.65 189.35 125.2 189.63 125.73 189.81 125.96 189.92 126.16 190.08 126.28 190.24 126.37 190.39 126.53 190.58 126.88 190.87 127.17 190.96 127.66 191.18 127.74 191.26 128.12 191.46 128.4 191.58 128.69 191.66 128.88 191.75 129 191.91 129.11 192.19 129.18 192.29 129.25 192.47 129.39 192.74 129.54 192.77 129.66 192.84 129.97 192.96 130.76 193.05 131.13 192.99 131.4 192.83 131.57 192.83 131.85 192.91 132.14 193.12 132.23 193.16 132.95 193.34 133.13 193.26 133.38 193.05 133.73 192.87 134.22 192.73 134.55 192.36 134.68 192.17 134.86 191.4 134.98 190.97 135.11 190.66 135.31 190.42 135.57 190.27 135.7 190.24 136.26 190.27 136.72 190.16 136.94 189.98 137.06 189.8 137.13 189.43 137.19 189.34 137.34 189.22 137.5 189.17 137.7 189.2 137.98 189.3 138.31 189.47 138.79 189.78 139.59 190.25 139.78 190.46 140.09 190.63 140.55 190.83 140.82 190.77 141.25 190.54 141.45 190.4 141.62 190.36 141.91 190.27 142.27 190.19 142.48 190.17 142.61 190.17 142.83 190.21 143.23 190.18 143.75 190.08 143.8 190.02 143.91 189.99 144.21 189.98 144.83 189.85 145.05 189.83 145.23 189.85 145.36 189.83 145.54 189.75 145.71 189.65 145.72 189.6 145.68 189.45 145.72 189.35 145.79 189.23 145.86 189.17 145.88 189.05 146 188.77 146.25 188.37 146.4 188.21 146.57 188.06 146.88 187.75 146.99 187.58 147.29 187.19 147.77 186.81 148.4 186.62 148.72 186.58 149.02 186.61 149.17 186.56 149.41 186.39 149.63 186.27 149.88 186.24 150.03 186.23 150.38 186.32 150.74 186.4 150.84 186.46 151.01 186.61 151.29 186.74 151.72 186.97 151.88 187.07 152.2 187.18 152.99 187.36 153.25 187.38 153.86 187.21 154.11 187.17 154.3 187.17 154.54 187.11 154.97 186.91 155.16 186.91 155.72 186.98 155.95 186.94 156.17 186.87 156.32 186.81 156.44 186.74 156.64 186.78 156.98 186.77 157.29 186.69 157.42 186.64 158.25 186.76 158.64 186.57 161.23 187.01 161.51 187.03 161.75 187.03 161.95 187.06 162.4 187.09 163.46 187.07 164.08 187.13 164.17 187.2 164.37 187.29 164.77 187.24 165.12 187.28 165.54 187.4 165.81 187.42 166.14 187.51 166.28 187.51 166.49 187.55 167.04 187.73 167.17 187.73 167.36 187.85 167.41 187.83 167.51 187.83 167.62 187.8 167.72 187.81 167.86 187.84 167.94 187.87 168.09 187.86 168.34 187.95 168.34 187.96 168.42 187.94 168.52 187.85 168.64 187.87 168.77 187.87 169.27 187.91 169.68 187.97 169.73 187.96 169.87 188 169.91 187.99 170.16 188.02 170.31 187.96 170.38 187.97 170.49 187.98 170.82 188.08 171.04 188.01 171.14 188 171.27 188.08 171.33 188.1 171.42 188.11 171.43 188.1 171.45 188.04 171.52 187.97 171.6 187.89 171.73 187.92 171.83 187.87 171.87 187.86 171.94 187.94 172.19 187.98 172.28 187.96 172.35 187.92 172.47 187.8 172.56 187.78 172.67 187.76 172.76 187.79 173.17 187.83 173.24 187.85 173.27 187.84 173.3 187.82 173.33 187.81 173.4 187.81 173.44 187.79 173.54 187.8 173.6 187.78 173.76 187.76 173.78 187.77 173.8 187.83 173.87 187.93 173.94 187.97 174.21 188.03 174.29 188.02 174.35 187.99 174.42 187.97 174.52 187.99 174.76 187.98 174.82 187.91 174.95 187.89 175.06 187.86 175.17 187.77 175.28 187.74 175.27 187.69 175.28 187.62 175.22 187.56 175.17 187.55 174.75 187.52 174.7 187.5 174.66 187.4 174.69 187.28 174.68 187.21 174.56 187.1 174.34 186.97 174.21 186.7 174.14 186.5 174.13 186.43 174.04 186.28 174.02 186.21 174.01 186.06 174.03 186 174.08 185.92 174.11 185.77 174.06 185.68 174.05 185.57 173.93 184.92 173.83 184.73 173.77 184.51 173.79 184.36 173.87 184.22 173.88 184.17 173.84 184.07 173.84 184.01 173.73 183.79 173.76 183.69 173.73 183.65 173.7 183.58 173.72 183.44 173.72 183.41 173.67 183.37 173.64 183.36 173.62 183.33 173.61 183.22 173.55 183.05 173.53 182.95 173.49 182.89 173.49 182.84 173.45 182.81 173.45 182.65 173.46 182.63 173.43 182.59 173.45 182.56 173.44 182.53 173.4 182.49 173.39 182.46 173.44 182.31 176.45 180 172.87 173.97 173.49 169.62 173.54 169.58 173.59 169.58 173.66 169.61 173.78 169.5 173.83 169.52 173.93 169.53 173.97 169.55 174.23 169.47 174.28 169.44 174.34 169.46 174.41 169.51 174.52 169.5 174.58 169.52 174.64 169.56 174.72 169.54 174.84 169.57 174.97 169.57 175.05 169.54 175.17 169.57 175.22 169.55 175.33 169.54 175.41 169.56 175.48 169.53 175.57 169.55 175.62 169.54 175.71 169.59 175.84 169.62 175.88 169.59 175.91 169.58 175.98 169.59 176.02 169.57 176.06 169.56 176.21 169.59 176.27 169.62 176.35 169.62 176.39 169.64 176.42 169.67 176.49 169.69 176.5 169.61 176.49 169.48 176.5 169.44 176.41 169.2 176.33 169.11 176.31 169 176.31 168.98 176.3 168.9 176.25 168.87 176.2 168.85 176.17 168.81 176.2 168.74 176.16 168.58 176.25 168.44 176.35 168.41 176.42 168.18 176.44 168.15 176.51 168.1 176.5 168.02 176.55 167.83 176.65 167.79 176.73 167.7 176.73 167.65 176.83 167.61 176.96 167.58 177 167.54 177.08 167.55 177.11 167.51 177.32 167.36 177.25 167.23 177.2 167.2 177.21 167.17 177.19 167.15 177.08 167.13 177.07 167.12 177.06 167.09 177.03 167.08 177.02 167.03 176.99 166.99 177.01 166.94 176.99 166.9 176.99 166.87 176.97 166.88 176.91 166.85 176.89 166.86 176.88 166.88 176.82 166.9 176.76 166.88 176.71 166.89 176.66 166.82 176.63 166.81 176.61 166.8 176.6 166.78 176.6 166.74 176.54 166.7 176.46 166.59 176.42 166.5 176.39 166.41 176.39 166.34 176.35 166.31 176.36 166.26 176.31 166.24 176.31 166.1 176.3 166.07 176.33 166.03 176.32 165.96 176.3 165.95 176.28 165.9 176.26 165.89 176.25 165.85 176.19 165.78 176.2 165.72 176.21 165.72 176.23 165.67 176.23 165.62 176.21 165.6 176.2 165.57 176.17 165.56 176.11 165.43 176.13 165.41 176.12 165.39 176.1 165.37 176.05 165.37 176.07 165.33 176.06 165.21 176.08 165.18 176.09 165.12 176.12 165.07 176.11 165 176.09 165 176.06 164.96 176.08 164.93 176.06 164.91 176.06 164.72 176.05 164.68 176 164.64 175.95 164.52 175.91 164.47 175.87 164.32 175.8 164.24 175.65 163.99 175.54 163.88 175.51 163.82 175.53 163.76 175.57 163.72 175.59 163.48 175.64 163.48 175.61 163.36 175.6 163.25 175.56 163.13 175.44 163.03 175.38 162.91 175.34 162.87 175.29 162.77 175.23 162.72 175.21 162.66 175.19 162.48 175.16 162.4 175.07 162.19 174.92 162.01 174.88 161.84 174.72 161.61 174.7 161.52 174.64 161.45 174.67 161.35 174.6 161.09 174.55 160.93 174.63 160.79 174.67 160.68 174.7 160.64 174.81 160.55 174.85 160.55 174.92 160.58 174.99 160.59 175.04 160.54 175 160.45 175.02 160.4 175.08 160.37 175.12 160.38 175.19 160.35 175.23 160.22 175.28 160.16 175.44 160.16 175.6 160.14 175.68 160.08 175.71 160.04 175.77 160.02 175.84 159.95 175.9 159.94 175.92 159.92 176.03 159.67 176.01 159.57 176.03 159.55 175.98 159.37 176 159.33 175.96 159.3 176.08 159.18 176.12 159.18 176.18 159.2 176.19 159.05 176.16 159.03 176.15 159 176.28 158.67 176.27 158.54 176.32 158.29 176.52 158.25 176.52 158.19 176.61 158.11 176.69 158.07 176.65 157.83 176.66 157.5 176.58 157.49 176.57 157.38 176.58 157.34 176.62 157.29 176.65 157.23 176.6 157.15 176.66 157.12 176.69 157.08 176.7 156.98 176.69 156.9 176.7 156.87 176.67 156.82 176.68 156.75 176.61 156.71 176.6 156.67 176.59 156.62 176.61 156.58 176.6 156.54 176.6 156.51 176.57 156.47 176.59 156.41 176.56 156.4 176.51 156.35 176.5 156.22 176.47 156.19 176.4 156.16 176.38 156.14 176.44 156.05 176.42 156.01 176.39 156.01 176.37 155.97 176.34 155.96 176.31 155.93 176.34 155.86 176.3 155.85 176.27 155.7 176.22 155.66 176.18 155.67 176.14 155.65 176.01 155.62 175.92 155.65 175.85 155.66 175.88 155.57 175.88 155.48 175.86 155.45 175.9 155.42 175.91 155.4 175.89 155.35 175.85 155.3 175.91 155.12 175.92 155.12 175.85 155.08 175.85 155.04 175.86 155 175.82 154.97 175.86 154.91 175.84 154.9 175.81 154.87 175.82 154.85 175.81 154.81 175.87 154.71 176 154.65 175.9 154.63 175.88 154.6 175.84 154.59 175.81 154.56 175.78 154.57 175.7 154.53 175.65 154.48 175.55 154.46 175.54 154.41 175.49 154.37 175.47 154.33 175.36 154.27 175.37 154.24 175.36 154.19 175.38 154.12 175.44 154.04 175.44 154.02 175.52 153.99 175.71 154.04 175.72 153.98 175.77 153.92 175.78 153.8 175.82 153.77 175.82 153.75 175.86 153.73 175.91 153.64 175.94 153.63 175.92 153.61 175.94 153.59 175.97 153.59 176 153.52 175.87 153.48 175.79 153.4 175.79 153.38 175.77 153.36 175.61 153.34 175.53 153.29 175.41 153.28 175.37 153.26 175.18 153.2 175.04 153.1 174.75 153.03 174.7 152.99 174.63 152.97 174.59 152.92 174.54 152.88 174.44 152.85 174.42 152.77 174.08 152.65 174.07 152.63 174 152.6 173.95 152.57 173.93 152.53 173.82 152.53 173.73 152.48 173.76 152.36 173.87 152.34 173.92 152.36 173.96 152.35 173.99 152.38 174.01 152.37 174.14 152.42 174.25 152.43 174.3 152.44 174.34 152.44 174.35 152.42 174.46 152.4 174.58 152.41 174.59 152.38 174.64 152.33 174.76 152.27 174.81 152.28 174.9 152.27 175.09 152.29 175.1 152.27 175.15 152.24 175.23 152.22 175.26 152.23 175.3 152.23 175.35 152.28 175.41 152.3 175.47 152.25 175.57 152.21 175.58 152.15 175.63 152.14 175.66 152.11 175.65 152.07 175.67 152.03 175.71 151.99 175.84 151.97 175.87 151.98 175.91 152.01 175.95 152.01 176.16 152.05 176.16 152.06 176.18 152.09 176.23 152.1 176.27 152.12 176.33 152.11 176.44 152.15 176.5 152.12 176.73 152.15 176.83 152.13 176.91 152.13 176.91 152.12 176.98 152.09 177.03 152.1 177.17 152.07 177.2 152.06 177.22 152.16 177.25 152.2 177.35 152.27 177.57 152.51 177.58 152.49 177.64 152.48 177.74 152.43 177.76 152.44 177.79 152.45 177.89 152.41 177.91 152.38 177.93 152.38 177.93 152.34 177.97 152.31 177.98 152.29 178.09 152.25 178.09 152.23 178.31 152.14 178.31 152.12 178.41 152.06 178.63 151.84 178.67 151.76 178.7 151.74 178.72 151.67 178.71 151.67 178.72 151.64 178.66 151.6 178.59 151.58 178.56 151.58 178.54 151.56 178.48 151.55 178.4 151.54 178.34 151.52 178.34 151.51 178.17 151.49 178.19 151.38 178.17 151.36 178.14 151.35 178.15 151.26 178.13 151.22 178.1 151.21 177.98 151.23 177.72 151.21 177.65 151.2 177.59 151.17 177.55 151.17 177.53 151.14 177.45 151.12 177.26 151.15 177.17 151.14 177.13 151.16 176.96 151.15 176.84 151.17 176.83 151.16 176.8 151.17 176.7 151.17 176.61 151.13 176.48 151.1 176.46 151.09 176.44 151.09 176.37 151.06 176.33 151.06 176.33 150.99 176.3 150.97 176.24 150.96 176.2 150.94 176.11 150.94 176.08 150.91 176.05 150.91 176.03 150.9 175.95 150.91 175.9 150.88 175.76 150.89 175.74 150.87 175.68 150.87 175.66 150.85 175.66 150.77 175.58 150.72 175.58 150.64 175.48 150.48 175.52 150.22 175.52 150.12 175.44 150.06 175.31 150 175.33 149.92 175.31 149.81 175.25 149.79 175.27 149.64 175.22 149.53 175.22 149.34 175.25 149.3 175.31 149.13 175.18 149.09 175.08 149.1 174.96 149.08 174.9 149.05 174.89 149.02 174.76 148.99 174.79 148.85 174.9 148.64 174.89 148.6 174.95 148.48 174.83 148.45 174.83 148.46 174.68 148.43 174.48 148.37 174.34 148.34 174.23 148.35 174.14 148.37 173.99 148.34 173.98 148.29 174.01 148.24 174.01 148.21 174.02 148.21 174.04 148.18 174.02 148.06 173.99 148.01 173.95 147.99 173.92 147.99 173.85 147.96 173.89 147.73 173.8 147.61 173.84 147.52 173.9 147.45 173.86 147.42 173.86 147.36 173.87 147.32 173.9 147.29 173.89 147.27 173.95 147.15 173.95 147.11 174.06 147.11 174.16 147.13 174.29 147.11 174.34 147.12 174.38 147.12 174.48 147.13 174.48 147.01 174.54 146.96 174.56 146.93 174.62 146.92 174.66 146.79 174.59 146.59 174.6 146.5 174.69 146.52 174.77 146.48 174.79 146.5 174.84 146.5 174.82 146.43 174.82 146.39 174.81 146.37 174.74 146.36 174.72 146.34 174.71 146.31 174.65 146.26 174.63 146.21 174.65 146.18 174.78 146.14 174.77 146.11 174.73 146.07 174.67 146.05 174.56 146.07 174.51 146.06 174.48 146.04 174.42 146.03 174.39 145.99 174.36 145.97 174.05 145.99 174.04 145.97 174.05 145.93 173.94 145.89 173.79 145.87 173.73 145.85 173.71 145.84 173.71 145.77 173.74 145.73 173.73 145.69 173.64 145.66 173.64 145.61 173.58 145.57 173.48 145.59 173.39 145.62 173.28 145.61 173.23 145.63 173.14 145.64 173.13 145.51 173.11 145.49 173.11 145.46 173.12 145.45 173.14 145.45 173.16 145.4 173.15 145.37 173.19 145.32 173.21 145.22 173.27 145.13 173.27 145.11 173.25 145.08 173.25 145.04 173.23 145.03 173.03 145.04 173.02 145.04 172.89 145.03 172.87 144.99 172.84 144.94 172.82 144.93 172.8 144.81 172.77 144.81 172.76 144.76 172.73 144.73 172.76 144.69 172.76 144.65 172.71 144.62 172.7 144.57 172.61 144.56 172.61 144.48 172.62 144.45 172.65 144.43 172.6 144.35 172.65 144.23 172.77 144.24 172.88 144.23 173.01 144.2 173.16 144.13 173.24 144.13 173.33 144.11 173.45 144.06 173.49 144.03 173.52 144.04 173.59 144 173.72 143.96 173.73 143.93 173.7 143.91 173.7 143.89 173.77 143.83 174.03 143.77 174.03 143.75 174.06 143.73 174.11 143.73 174.12 143.77 174.23 143.77 174.37 143.74 174.38 143.78 174.47 143.74 174.55 143.73 174.63 143.7 174.64 143.64 174.69 143.56 174.68 143.54 174.59 143.52 174.47 143.45 174.4 143.24 174.36 143.23 174.34 143.25 174.29 143.24 174.2 143.2 174.16 143.19 174.06 143.05 173.71 142.75 173.8 142.71 173.81 142.69 173.88 142.67 173.88 142.66 173.86 142.65 173.87 142.58 173.91 142.58 173.96 142.55 174.02 142.55 174.11 142.52 174.23 142.51 174.26 142.49 174.33 142.45 174.36 142.46 174.5 142.45 174.51 142.4 174.49 142.35 174.51 142.3 174.46 142.23 174.45 142.22 174.35 142.26 174.32 142.24 174.23 142.26 174.19 142.23 174.14 142.23 174.13 142.2 173.99 142.1 173.99 142.05 173.96 141.98 174.07 141.93 174.1 141.92 174.14 141.92 174.25 141.88 174.21 141.83 174.15 141.82 174.12 141.8 174.07 141.73 174.08 141.7 174.08 141.67 174.06 141.66 174.06 141.61 174.17 141.6 174.15 141.52 174.09 141.49 174.04 141.35 174.14 141.26 174.12 141.24 174.15 141.23 174.37 141.25 174.47 141.22 174.51 141.13 174.55 141.12 174.63 141.03 174.66 140.97 174.65 140.96 174.66 140.94 174.72 140.88 174.68 140.85 174.64 140.86 174.65 140.83 174.63 140.77 174.63 140.75 174.68 140.7 174.64 140.69 174.49 140.59 174.42 140.57 174.36 140.48 174.29 140.4 174.28 140.36 174.28 140.32 174.3 140.32 174.35 140.25 174.29 140.04 174.1 139.61 174.01 139.3 173.95 139.19 173.89 138.93 173.94 138.82 173.92 138.75 173.94 138.69 173.93 138.65 173.93 138.55 173.84 138.35 173.86 138.24 173.82 138.21 173.82 138.18 173.77 138.12 173.75 138.03 173.67 137.85 173.62 137.78 173.53 137.68 173.57 137.64 173.78 137.52 173.88 137.52 173.95 137.51 174.02 137.54 174.1 137.53 174.15 137.49 174.33 137.47 174.3 137.44 174.31 137.36 174.36 137.35 174.36 137.25 174.4 137.21 174.37 137.19 174.31 137.24 174.08 137.23 173.65 137.27 173.37 137.25 173.3 137.28 173.18 137.27 173.03 136.66 172.92 136.57 172.87 136.48 172.84 136.34 172.75 136.19 172.7 136.18 172.7 136.15 172.64 136.13 172.37 135.4 172.51 135.13 172.47 134.89 172.44 134.85 172.37 134.66 172.35 134.54 172.29 134.42 172.31 134.32 172.35 134.28 172.37 134.18 172.36 134.13 172.37 134.09 172.32 134.05 172.32 133.95 172.29 133.89 172.26 133.87 172.24 133.76 172.19 133.68 172.19 133.66 172.18 133.64 172.19 133.61 172.15 133.55 172.25 133.53 172.35 133.56 172.41 133.6 172.52 133.58 172.61 133.53 172.67 133.53 172.69 133.5 172.74 133.49 172.85 133.49 172.91 133.46 172.92 133.47 172.94 133.46 172.96 133.43 172.99 133.43 173 133.38 173.07 133.36 173.17 133.34 173.22 133.35 173.3 133.31 173.36 133.33 173.42 133.31 173.53 133.33 173.58 133.3 173.65 133.32 173.71 133.28 173.77 133.27 173.79 133.25 173.81 133.26 173.86 133.23 173.9 133.26 173.92 133.26 173.98 133.33 174.04 133.35 174.09 133.32 174.17 133.31 174.18 133.3 174.2 133.3 174.21 133.27 174.36 133.24 174.38 133.23 174.45 133.25 174.55 133.21 174.62 133.2 174.69 133.14 174.74 133.13 174.75 133.16 174.81 133.14 174.84 133.14 174.95 133.18 174.98 133.17 175.01 133.15 175.1 133.13 175.11 133.1 175.36 133 175.43 133.05 175.5 133.06 175.59 133.1 175.61 133.07 175.7 133.02 175.71 132.99 175.74 132.99 175.84 132.95 175.91 132.97 175.98 133.04 176.05 133.02 176.06 132.97 176.15 132.97 176.17 133.01 176.22 133.04 176.3 133.05 176.36 133.08 176.38 133.06 176.44 133.03 176.46 133 176.49 133 176.56 132.98 176.59 132.95 176.67 132.91 176.78 132.93 176.86 133.03 176.89 133.05 176.98 133.05 177.01 133.03 177.22 133.08 177.38 133.1 177.4 133.04 177.47 132.97 177.49 132.92 177.55 132.9 177.57 132.92 177.59 132.91 177.65 132.94 177.66 132.96 177.78 133.03 177.89 133.05 178 133.05 178.05 133.06 178.21 133.02 178.2 133.03 178.26 133.04 178.34 133.05 178.5 133.02 178.58 133.03 178.61 133.01 178.62 133.02 178.68 133.02 178.72 133 178.78 133 178.84 132.97 178.88 132.92 178.93 132.93 178.97 132.91 179.01 132.92 179.23 132.92 179.24 132.94 179.27 132.93 179.38 132.94 179.44 132.93 179.53 132.95 179.57 132.94 179.73 132.95 179.9 132.92 180.07 132.94 180.12 132.93 180.28 133.02 180.33 133.02 180.35 132.99 180.44 132.97 180.59 132.96 180.78 132.92 180.9 132.93 180.99 132.91 181.15 132.85 181.31 132.85 181.33 132.83 181.45 132.8 181.45 132.79 181.49 132.78 181.58 132.79 181.77 132.76 181.86 132.77 182 132.75 182.06 132.72 182.28 132.69 182.33 132.69 182.42 132.71 182.46 132.7 182.56 132.69 182.68 132.66 182.77 132.67 182.87 132.64 182.97 132.57 183.12 132.59 183.28 132.54 183.35 132.55 183.54 132.51 183.62 132.54 183.77 132.54 183.87 132.58 184.04 132.56 184.12 132.57 184.25 132.54 184.28 132.57 184.34 132.55 184.41 132.56 184.53 132.56 184.62 132.59 184.65 132.58 184.65 132.56 184.69 132.56 184.72 132.56 184.79 132.59 184.83 132.58 184.87 132.56 184.91 132.58 185.02 132.59 185.03 132.62 185.16 132.58 185.29 132.57 185.36 132.51 185.41 132.5 185.47 132.5 185.55 132.55 185.58 132.55 185.67 132.51 185.71 132.51 185.74 132.48 185.8 132.47 185.82 132.45 185.92 132.44 185.91 132.47 186.08 132.49 186.1 132.5 186.16 132.49 186.18 132.51 186.4 132.54 186.49 132.5 186.51 132.47 186.57 132.47 186.65 132.47 186.7 132.42 186.77 132.41 186.78 132.39 186.82 132.38 186.99 132.37 187.04 132.3 187.18 132.26 187.19 132.23 187.24 132.21 187.26 132.19 187.28 132.18 187.3 132.16 187.34 132.14 187.44 132.15 187.53 132.1 187.67 132.11 187.86 132.12 187.88 132.15 187.96 132.15 187.97 132.18 188.06 132.23 188.09 132.21 188.09 132.18 188.12 132.18 188.21 132.22 188.35 132.23 188.51 132.21 188.53 132.15 188.52 132.14 188.55 132.14 188.56 132.13 188.71 132.12 188.68 132.09 188.63 131.77 188.54 131.72 188.54 131.69 188.55 131.64 188.54 131.63 188.57 131.61 188.56 131.58 188.59 131.56 188.59 131.51 188.6 131.5 188.59 131.46 188.57 131.45 188.57 131.35 188.55 131.29 188.6 131.28 188.61 131.27 188.6 131.23 188.63 131.18 188.63 131.09 188.66 131.05 188.7 130.93 188.69 130.86 188.75 130.86 188.77 130.83 188.76 130.78 188.79 130.64 188.77 130.62 188.77 130.59 188.99 130.54 189.01 130.53 188.99 130.49 189.02 130.45 189.03 130.33 189.07 130.27 189.07 130.18 189.1 130.12 189.09 130.09 189.11 130.09 189.16 129.97 189.13 129.86 189.3 129.85 189.32 129.82 189.39 129.81 189.41 129.78 189.44 129.64 189.43 129.57 189.43 129.51 189.4 129.51 189.37 129.48 189.32 129.47 189.2 129.46 189.17 129.4 189.07 129.33 189.23 129.27 189.27 129.24 189.31 129.24 189.34 129.21 189.35 129.13 189.34 128.98 189.36 128.95 189.35 128.92 189.37 128.83 189.35 128.8 189.37 128.79 189.38 128.74 189.28 128.67 189.26 128.62 189.23 128.58 189.09 128.52 189.05 128.47 189.07 128.46 189.1 128.38 189.06 128.31 189.03 128.21 189.04 128.15 189.03 128.13 189.05 128.1 189.16 128.07 189.15 127.96 189.15 127.82 189.18 127.77 189.3 127.64 189.3 127.61 189.27 127.51 189.26 127.28 189.31 127.1 189.36 126.73 189.31 126.64 189.41 126.39 189.39 126.27 189.5 126.27 189.68 126.22 189.68 126.22 189.68 126.16 189.64 126.09 189.62 126 189.57 125.92 189.51 125.77 189.7 125.77 189.83 125.75 189.84 125.73 189.84 125.66 189.89 125.62 189.93 125.57 190.06 125.52 190.02 125.44 190.03 125.35 190 125.27 190 125.24 190.04 125.21 190.04 125.08 190.07 124.98 190.12 124.91 190.26 124.88 190.28 124.86 190.26 124.83 190.31 124.69 190.15 124.62 190.15 124.59 190.03 124.58 189.86 124.53 189.87 124.46 189.85 124.34 189.86 124.32 189.81 124.32 189.81 124.3 189.65 124.21 189.64 124.17 189.59 124.13 189.58 124.09 189.63 123.96 189.5 123.92 189.4 123.87 189.31 123.87 189.27 123.68 189.11 123.67 188.97 123.67 188.83 123.64 188.81 123.61 188.77 123.6 188.72 123.56 188.71 123.51 188.65 123.46 188.65 123.4 188.54 123.34 188.5 123.31 188.5 123.17 188.52 123.15 188.52 123.13 188.48 123.09 188.5 123.06 188.47 122.97 188.47 122.89 188.5 122.79 188.47 122.78 188.4 122.79 188.27 122.79 188.21 122.75 188.18 122.74 188.19 122.73 188.18 122.7 188.26 122.7 188.29 122.66 188.26 122.61 188.28 122.47 188.39 122.46 188.4 122.33 188.38 122.25 188.44 122.07 188.43 122.04 188.44 121.9 188.4 121.9 188.39 121.89 188.31 121.87 187.95 121.91 187.9 121.91 187.82 121.92 187.78 121.92 187.62 121.94 187.56 121.93 187.47 121.88 187.47 121.86 187.4 121.83 187.4 121.8 187.38 121.78 187.36 121.69 187.36 121.61 187.25 121.62 187.25 121.6 187.26 121.52 187.29 121.44 187.38 121.43 187.37 121.26 187.35 121.24 187.23 121.25 187.18 121.28 187.1 121.26 187.07 121.27 186.99 121.27 186.88 121.25 186.86 121.23 186.87 121.15 186.75 121.07 186.74 121.02 186.78 120.96 186.8 120.88 186.77 120.88 186.77 120.84 186.74 120.83 186.78 120.73 186.79 120.69 186.83 120.62 186.84 120.55 186.82 120.48 186.85 120.48 186.87 120.5 186.99 120.48 187.04 120.49 187.1 120.45 187.15 120.46 187.19 120.42 187.26 120.44 187.37 120.41 187.36 120.35 187.37 120.34 187.33 120.32 187.32 120.26 187.33 120.2 187.38 120.2 187.36 120.14 187.36 120.03 187.3 120.02 187.28 119.97 187.26 119.96 187.26 119.89 187.28 119.89 187.29 119.87 187.26 119.78 187.22 119.73 187.25 119.72 187.29 119.67 187.29 119.57 187.31 119.55 187.33 119.48 187.28 119.46 187.27 119.43 187.25 119.43 187.22 119.38 187.25 119.36 187.34 119.35 187.35 119.33 187.33 119.27 187.4 119.26 187.41 119.24 187.49 119.29 187.53 119.28 187.57 119.24 187.65 119.22 187.74 119.16 187.82 119.18 187.87 119.16 187.94 119.18 188.02 119.16 187.97 119.1 187.91 119.07 187.9 119.04 187.84 119 187.85 118.99 187.84 118.97 187.88 118.93 187.88 118.91 187.91 118.9 187.91 118.84 187.97 118.78 187.86 118.75 187.87 118.69 187.85 118.66 187.86 118.64 187.84 118.62 187.85 118.6 187.78 118.58 187.71 118.6 187.68 118.54 187.79 118.44 187.83 118.43 187.83 118.39 187.85 118.36 187.75 118.35 187.74 118.34 187.74 118.31 187.79 118.29 187.79 118.26 187.87 118.19 187.94 118.09 187.96 118.04 188.04 117.97 188.06 117.96 188.07 117.97 188.13 117.95 188.12 117.93 188.18 117.91 188.19 117.88 188.19 117.85 188.17 117.83 188.05 117.83 187.99 117.81 188 117.79 187.99 117.72 187.95 117.6 187.92 117.57 187.87 117.56 187.8 117.47 187.75 117.45 187.75 117.44 187.87 117.42 187.99 117.38 187.96 117.35 187.88 117.35 187.86 117.34 187.79 117.34 187.8 117.28 187.84 117.23 187.89 117.21 187.89 117.19 187.76 117.1 187.73 117.09 187.67 116.99 187.61 116.98 187.59 116.96 187.71 116.88 187.68 116.86 187.69 116.83 187.75 116.81 187.78 116.78 187.77 116.67 187.74 116.64 187.71 116.63 187.73 116.59 187.63 116.47 187.6 116.46 187.55 116.4 187.55 116.37 187.5 116.35 187.48 116.27 187.41 116.24 187.39 116.22 187.36 116.04 187.54 115.94 187.6 115.94 187.65 115.9 187.76 115.87 187.8 115.82 187.86 115.8 187.86 115.74 187.91 115.68 187.97 115.67 188.01 115.63 188.04 115.63 188.22 115.56 188.28 115.46 188.3 115.26 188.28 115.21 188.42 115.2 188.52 115.16 188.54 115.17 188.76 115.15 188.81 115.17 188.85 115.16 188.94 115.17 188.99 115.13 189 115.11 189.19 115.07 189.26 115.04 189.44 115.03 189.54 115.01 189.63 114.97 189.67 114.92 189.71 114.92 189.75 114.87 189.79 114.86 189.84 114.82 189.91 114.79 189.95 114.74 189.99 114.74 189.99 114.72 190.03 114.74 190.09 114.74 190.22 114.69 190.28 114.69 190.36 114.63 190.59 114.62 190.61 114.63 190.67 114.67 190.71 114.66 190.77 114.68 190.82 114.75 190.9 114.74 190.93 114.73 190.92 114.67 191 114.58 191.11 114.54 191.13 114.5 191.22 114.43 191.27 114.44 191.31 114.47 191.4 114.45 191.26 102.01 190.77 60.54 192.08 60.71 192.99 60.51 194.15 59.96 194.28 59.66 194.34 58.11 194.97 56.7 194.7 56.15 194.86 55.8 195.3 55.55 196.18 55.4 196.98 55.26 197.86 54.59 197.98 54.08 197.83 53.73 197.78 53.49 197.95 53.2 198.88 52.58 200.22 52.26 200.38 52.79 200.62 53.05 203.39 53.95 203.96 53.83 204.42 53.25 204.43 52.55 204.66 52.06 205.2 50.86 206.14 50.06 206.79 49.82 207.39 49.9 208.7 50.46 210.47 50.73 211.29 51.43 212.54 52.42 213.46 52.82 214.26 53.03 213.91 52.31 199.98 27.23 214.69 31.84 219.37 33.73 231.7 32.22 238.62 34.49 243.12 32.92 288.39 28.62 289.88 27.59 292.46 24.27 294.49 21.72 297.79 21.19 307.35 25.25 308.55 25.73 311.08 25.38 313.75 25.02 318.3 23.36 321.53 22.6 325.49 22.01 327.35 20.98 330.66 20.86 334.56 20.06 337.85 20.69 340.44 20.69 342.48 19.59 344.93 18.92 349.1 17.83 351.23 16.63 352.01 16.05 354.03 15.39 358.71 19.34 362.48 22.23 368.45 27.3 375.58 32.83 375.56 36.62 375.35 40.23 375.41 42.31 377.31 43.51 383.33 47.62 384.13 48.06 386.27 50.45 387.01 51.15 389.76 53.27 393.98 55.81 400.17 61.8 402.11 63.45 406.79 64.14 411.43 64.61 416.31 64.68 418.08 64.69 420.2 64.96 421.37 65.15 423.23 65.26 427.13 65.11 428.63 65.26 431.24 66.19 434.01 67.85 435.19 68.98 436.16 69.91 435.88 70.7 435.56 71.29 435.35 71.65 435.03 72.56 434.13 74.21 433.47 75.83 433.28 76.39 433.01 77.93 431.98 78.58 431.27 79.02 429.32 79.73 428.59 80.65 427.95 81.74 427.86 82.31 428.36 82.48 429.05 82.09 431.36 82.07 432.33 82.09 433.25 82.39 436.18 82.11 438.01 81.05 438.74 79.11 439.88 77.57 440.07 76.72 440.79 75.14 441.21 75.09 441.87 74.65 442.07 73.69 442.31 72.81 442.9 72.51 443.11 71.71 442.78 71.18 442.41 70.57 442.07 70.12 441.72 69.5 442.32 68.47 442.88 67.7 443.81 67.24 444.12 66.31 444.07 65.05 444.49 64.56 444.28 62.99 444.16 62.57 443.07 61.47 442.56 60.45 441.69 59.82 441.1 59.37 440.33 58.73 439.05 58.17 438.31 57.44 437.76 56.05 437.93 55.3 438.13 54.12 438.98 53.35 439.55 53.42 440.03 53.16 463.84 48.86 502.04 20.72 520.07 11.53 519 5.11 526.49 1 538.99 13.42 538.78 19.47 545.8 24.96 545.8 34.03 552.29 37.25 545.26 51.03 576.21 63.37 584.08 70.56 599.31 74.04 600.97 80.53 601.92 84.24 623.92 78.63 642.15 65.22 661.6 54.75 684.63 40.71 698.18 32.26 698.46 32.08 719.03 77.86 746.89 79.48 752.33 84.85 756.39 100.93 764.45 109.34 779.14 112.33 784.51 109.91 799 113.81 794.36 128.66 769.68 148.99 764.52 162.18 753.95 173.08 746.22 185.81 731.35 194.2 728.46 198.89 725.47 203.75 715.97 208.48 699.3 220.99 674.87 236.91 671.76 245.97 675.3 258.91 672.3 266.13 662.29 269.72 614.64 270.46 594.86 271.11 559.03 263.81 533.57 266.29 516.34 270.14 509.83 273.47 501.83 277.56 497.57 286.51 499.39 292.87 509.53 299.99 540.04 322.98 542.67 337.99 541.09 353.5 534.48 360.24 522.63 363.79 514.93 363.28 508.48 365.2 503.69 377.5 500.77 389.35 497.7 393.06 492.93 404.73 484.24 411.15 480.88 418.81 483.26 432.23 471.46 444.93 471.27 459.4 477.93 463.01 489.14 464.99 485.88 474.72 474.71 477.28 459.78 473.81 452.2 472.78 437.76 478.9 427.7 476.84 413.58 475.96 401.57 477.01 392.99 478.22 367.83 483.1 337.37 489.91 306.99 520.04 268.41 534.64 233.97 556 231.49 548.88 241.86 541.2 236.46 532.4 215.31 520.6 196.64 521.72 157.44 515.54 126.74 512.92 108.69 495.33 89.29 497.17 90.88 487.45 91.61 478.09 92.4 468.45 92.46 466.88 92.33 463.75 92.44 460.86 92.4 457.03 104.99 455.73 119.23 454.3 Z"/>
</g>
</svg>