<?xml version="1.0"?>
<svg xmlns="http://www.w3.org/2000/svg" version="1.2" baseProfile="tiny" fill="#f9c113" width="800" height="527" viewBox="0 0 800 527" stroke-linecap="round" stroke-linejoin="round">
<g fill="#c0392b" id="id_243">
<path d="M 426.66 375.25 384.43 370.77 361.2 394.42 345.01 399.53 320.38 384.19 285.18 388.66 265.48 388.66 240.14 375.25 220.43 364.38 196.5 376.52 178.9 389.3 161.3 402.72 124 414.23 83.18 412.95 30.74 426.05 24.23 423.01 14.37 412.31 4.52 402.72 1 396.97 17.19 396.33 16.48 384.83 8.04 375.25 17.19 349.05 31.97 329.25 31.16 309.47 58.61 302.05 70.15 298.47 76.11 303.92 80.97 305.48 87.25 304.63 91.43 301.92 93.64 298.15 93.87 294.32 126.22 265.31 138.68 251.19 142.5 241.07 147 229.25 150.7 225.68 158.67 218.04 177.47 208.59 184.58 205.01 209.58 189.79 228.92 174.42 255.48 147.37 264.93 125.22 286.77 115.86 307.1 107.44 364.18 105.34 387.18 71.39 419.81 44.1 450.43 32.19 472.81 22.94 494.5 19.47 520.1 18.97 545.19 18.41 595.74 15.57 614.72 1 631.04 21.91 640.81 35.07 647.31 43.44 650.15 48.22 660.16 66.21 664.07 73.03 669.88 81.89 674.57 88.31 677.36 92.08 677.65 93.76 668.27 97.79 653.17 106.48 638.62 114.36 648.29 126.46 656.35 139.26 634.61 149.32 630.04 151.48 619.68 156.21 629.18 173.31 629.18 174.73 627.76 175.92 631.28 181.38 635.97 182.71 624.97 192.25 590.48 208.85 594.71 215.87 608.08 214.6 609.49 224.18 595.41 232.48 586.26 242.06 592.59 252.28 619.34 269.52 623.21 274.63 635.53 283.89 639.4 289.96 652.07 295.71 646.79 299.86 634.47 299.54 637.64 305.61 627.08 311.68 620.75 320.3 610.54 322.22 607.73 331.16 614.77 332.44 622.86 327.33 630.25 328.29 636.23 322.54 666.15 300.5 680.22 309.12 689.37 303.05 705.21 302.73 708.73 296.67 717.88 297.94 750.72 277.76 761.61 277.76 775.61 275.65 787.57 275.34 789.72 277.56 792.8 281.99 795.29 284.78 798.41 286.34 799 289.48 799 290.77 793.77 295.96 788.49 300.83 787.86 301.41 783.12 305.58 777.9 309.57 773.99 311.17 764.9 310.59 761.43 309.52 756.64 307 752.74 306.15 747.26 306.11 733.63 307.04 728.55 308.37 710.28 316.88 704.66 319.81 695.46 323.86 690.56 327.07 700.58 333.8 711.13 340.94 713.33 343.2 714.9 346.44 715.24 349.5 714.9 358.32 717.34 363.95 717.05 365.77 717 368.61 718.02 372.25 725.64 382.05 727.31 382.94 731.8 382.58 735.17 382.54 743.38 384.04 755.69 386.53 770.88 404.09 782.22 415.71 784.63 418.51 783.32 422.02 780.02 430.19 777.92 432 763.94 437.77 758.03 440.03 751.54 439.06 733.56 436.66 729.99 437.99 727.74 439.99 727.01 442.7 725.25 456.27 726.57 471 734.53 488.61 732.43 496.95 715.74 506.3 730.64 526 723.86 525.12 712.6 519.69 677.41 505.31 659.46 495.72 652.07 494.12 647.14 485.49 633.07 477.5 626.38 478.14 585.2 445.22 484.55 395.69 426.66 375.25 Z"/>
</g>
</svg>