<?xml version="1.0"?>
<svg xmlns="http://www.w3.org/2000/svg" version="1.2" baseProfile="tiny" fill="#f9c113" width="800" height="1130" viewBox="0 0 800 1130" stroke-linecap="round" stroke-linejoin="round">
<g fill="#c0392b" id="id_216">
<path d="M 293.51 958.74 292.99 952.18 290.32 944.78 283.27 930.26 273 912.88 264.94 904.15 257.15 895.55 252.74 882.96 255.74 868.94 262.79 858.17 272.51 850.4 295.18 834.34 305.38 822.26 313.03 805.22 315.51 791.51 318.93 778.39 328.61 768.69 344.71 767.72 362.26 767.89 373.91 770.93 392.13 761.87 402.37 757.72 406.52 744.28 405.52 739.43 401.08 732.33 397.65 726.83 383.99 713.95 365.59 713.95 321.81 719.87 315.95 719.87 295.21 717.6 270.54 711.28 242.23 705.76 218.86 697.4 196.15 692.72 172.48 685.97 168.07 682.32 165.43 676.57 169.07 666.27 172.78 659.39 168.88 639.2 160.72 620.68 151.22 605.9 137.46 594.13 124.32 581.64 115.09 506.73 104.18 467.48 99.39 452.82 97.54 448.74 92.01 438.13 89.82 426.17 90.12 421.9 89.37 406.77 88.48 395.42 81.51 378.19 62.44 365.23 54.42 343.43 42.74 328.55 33.02 319.4 28.75 316.97 14.84 310.16 10.05 305.92 10.27 303.45 10.39 297.02 10.91 289.84 12.24 280.5 14.47 267.38 11.24 256.47 13.5 244.2 12.5 235.49 6.57 225.98 3.97 216.41 3.37 201.16 1 196.26 17.58 188.32 25.04 181.52 28.34 173.15 19.22 160.61 22.26 153.74 39.1 141.27 52.68 133.16 61.77 130.63 68.23 130.53 71.45 129 80.21 141.43 84.66 143.76 94.75 136.32 94.75 130.52 99.06 125.92 109.3 120.45 114.6 121.89 124.03 124.15 133.9 107.45 138.67 103.79 148.39 89.79 154.85 74.69 167.53 71.46 169.57 71.26 179.3 60.09 193.76 43.32 203.93 35.39 215.06 24.36 229.9 14.06 239.06 7.23 245.26 1.7 252.68 1 261.29 2.13 271.49 7.03 282.92 12.96 289.08 16.2 297.13 21.23 309.04 23.69 308.14 32.98 311.11 37.17 313.67 47.71 319.53 56.51 320.46 57.87 324.54 60.44 331.48 68.04 333.34 69.74 336.34 69.91 342.65 69.91 350.81 68.07 360.9 69.64 363.98 72.31 369.32 75.77 383.64 87.41 386.46 89.81 389.1 90.47 394.4 92.97 403.94 98.47 410.28 101.48 418.97 102.08 424.31 101.88 433.03 101.78 442.97 104.54 449.46 102.68 466.05 98.51 483.01 94.58 499.33 91.94 507.68 86.64 514.36 78.54 519 75.17 533.58 73.07 547.27 74.31 554.06 70.27 568.15 70.27 578.47 74.54 582.96 77.31 585.33 79.41 586.19 81.71 585.15 84.24 578.32 86.01 569.23 92.78 568.56 101.38 552.76 103.74 551.98 95.91 546.82 96.17 541.19 97.6 532.65 101.1 523.71 104.91 515.66 106.67 507.61 111.77 501.86 113.84 497.11 113.81 486.09 116.34 476.11 121.06 475 138.84 478.78 140.14 490.25 140.2 501.41 143.37 505.94 148.14 500 171.25 498.67 184.52 495.41 195.43 487.92 208.34 479.68 216.05 470.18 223.12 457.42 230.79 451.23 239.1 451.04 243.57 457.68 264.55 458.28 271.19 455.38 286.41 452.97 298.55 450.86 310.23 449.04 320.21 445.96 327.7 439.91 330.77 431.01 333.41 428.41 335.64 426.04 339.41 423.81 352.33 422.29 359.48 441.1 364.88 459.36 363.84 466.07 364.21 470.53 364.67 491.33 366.53 491.14 371.1 491.36 379.65 497.15 394.34 502.38 400.05 509.17 408.76 527.61 411.9 538.37 413.74 545.07 418.62 543.4 425.43 537.24 428.21 519.88 430.21 500.62 434.45 492.05 438.36 495.06 442 506.08 457.09 507.6 463.04 506.86 474.69 522.77 474.79 527.82 482.11 532.57 491.99 534.87 495.17 545.02 503.25 549.51 508.16 560.26 521.09 563.08 522.39 560.45 533.45 558.56 537.13 559.26 542.84 559.56 545.78 559.34 549.49 558.34 553.76 554.22 562.99 554.89 567 553.33 569.94 567.83 575.15 576.74 579.53 587.79 582.1 599.74 583.58 600.74 603.43 598.07 605.44 576.22 629.43 605.16 638.46 608.64 640.63 621.31 649.99 626.02 652.57 632.44 656.78 641.75 660.36 636.07 668.15 642.12 671.82 643.94 677.41 652.14 672.43 656.81 670.85 661.64 670.69 655.14 681.75 660.88 685.91 667.82 689.35 675.87 697.21 684.81 705 704.1 717.27 708.04 718.17 710.71 713.83 712.93 711.32 713.86 706.4 717.42 703.69 723.14 713.39 723.43 717.1 722.84 722.92 727.74 725.16 733.89 726.44 739.04 726.78 743.13 726.78 748.13 725.97 754.26 724.4 766.65 723.4 772.06 722.63 778 723.6 785.72 724.6 796.81 727.88 799 730.52 796.44 735.1 791.54 736.07 784.68 757.51 790.76 779.45 784.68 787.41 779.78 792.03 773.36 800.49 768.47 813.41 763.09 816.72 756.07 824.31 752.7 827.99 750.06 832.98 765.63 840.74 790.9 854.59 786.41 862.99 784.48 868.55 780.25 871.66 766.52 880.56 762.51 884.91 754.24 891.97 751.75 890.83 741.18 890.77 732.54 900.71 729.64 903.69 718.36 913.83 712.5 919.42 708.42 922.6 698.59 929.59 692.65 932.47 682 939.8 676.29 942.35 667.16 952.12 665.27 954.27 653.65 961.12 652.85 966.12 650.57 980.47 650.53 985.43 650.61 997.55 648.79 1002.24 645.86 1006.86 632.02 1022.63 626.71 1030.37 618.36 1048.32 609.91 1070.86 608.53 1080.47 608.12 1090.89 608.87 1100.47 606.75 1112.9 602.15 1124.73 597.64 1129 593.97 1126.69 588.14 1124.81 582.02 1124.81 575.45 1128.2 564.44 1127.39 549.3 1125.62 531.19 1123.64 510.16 1116.23 484.74 1093.49 473.06 1084.1 470 1081.54 463.28 1077.87 458.69 1073.96 454.6 1070.15 448.01 1065.74 444.73 1062 441.92 1055.77 436.25 1050.04 429.94 1047.26 419.78 1043.84 412.58 1041.03 401.93 1041.53 387.27 1033.6 378.4 1021.69 372.09 1019.65 355.47 1010.74 339.81 997.31 334.4 992.79 335.62 981.41 334.51 974.85 326.35 966.78 319.63 968.25 317.7 972 317.26 975.35 314.55 976.25 308.84 975.32 295.07 968.72 291.99 967.82 293.51 958.74 Z"/>
</g>
</svg>