<?xml version="1.0"?>
<svg xmlns="http://www.w3.org/2000/svg" version="1.2" baseProfile="tiny" fill="#f9c113" width="800" height="1063" viewBox="0 0 800 1063" stroke-linecap="round" stroke-linejoin="round">
<g fill="#c0392b" id="id_202">
<path d="M 280.18 481.12 275.2 466 266.37 452.45 249.12 437.18 231.81 431.38 213.11 424.81 190.83 420.58 173.36 411.96 166.69 395.25 170.09 381.43 181.03 375.95 196.39 378.34 218.36 384.01 241.39 384.84 262.21 384.88 289.79 385.15 305.27 384.09 320.1 376.62 327.67 365.73 332.26 362.24 342.36 350.5 351.23 338.64 363.76 331.56 369.91 323.01 372.6 318.94 374.19 309.51 372.91 303.13 372.29 293.62 373.61 281.96 372.24 269.68 374.49 261.38 378.86 253.6 380.58 244.64 377.8 232.9 370.52 220.54 356.78 205.15 353.56 199.59 357.53 187.59 360.8 181.21 365.12 174.84 366.44 166.43 371.43 157.83 389.12 150.44 428.3 150.04 442.46 154.54 452.26 154.81 472.02 149.3 489.28 139.02 495.19 136.71 520.08 143.52 534.15 147.62 553.03 152.74 557.53 150.46 557.62 141.04 565.87 128.76 566.44 121.13 567.72 116.76 568.34 110.19 568.29 102.53 557.35 98.34 541.73 90.95 533.53 88.22 525.89 83.57 517.64 79.97 513.37 73.09 514.34 59.56 511.6 48 505.15 37.92 529.3 9.95 547.39 1 590.23 10.38 603.02 12.49 626.94 15.89 649.13 17.57 668.14 19.52 681.16 22.88 686.54 25.27 690.2 30.58 688.48 40.55 690.03 51.62 691.09 59.15 692.98 72.83 699.51 82.33 703.62 93.67 707.5 101.68 716.72 111.81 718.04 116.15 718.39 123.15 699.86 136.21 688.57 145.98 675.51 157.48 671.14 162.13 662.06 191.15 653.23 212.62 650.28 221.54 638.14 239.26 635.45 260.46 626.98 283.94 620.67 293.33 607.52 317.78 604.97 334.42 599.49 352.54 592.66 362.24 599.85 373.79 610.04 389.68 637.61 395.36 652.48 397.47 658.39 399.86 668.19 404.24 681.38 409.57 679.61 428.67 679.44 440.3 677.1 450.56 704.5 456.08 721.75 456.67 724.4 454.59 743.76 450.79 776.46 447.93 799 449.7 797.9 454 796.18 456.86 793 462.34 791.81 465.87 779.9 483.14 767.5 495.63 758.15 504.56 752.5 517.4 750.25 522.57 747.34 527.59 758.23 546.11 753.46 545.64 743.14 541.69 731.62 532.4 705.64 497.47 699.3 494.73 697.29 503.6 696.36 512.6 687.8 538.96 676.42 555.49 671.78 572.34 658.11 589.42 649.9 604 637.42 616.89 626.21 629.58 621.05 634.64 596.25 650.27 560.61 678.02 557.87 689.31 555.35 694.29 550.72 708.16 535.72 717.14 527.03 719.34 511.54 727.45 495.04 735.72 493.72 740 485.91 742.94 479.34 747.05 478.59 755.4 479.07 759.95 483.79 770.07 479.96 773.16 468.53 774.46 457.37 777.63 449.43 780.61 437.91 780.61 431.07 787.87 417.53 804.34 413.65 808.26 397.94 816.18 393.92 820.03 391.28 824.5 384.22 826.85 370.08 834.46 362.58 855.17 361.04 869.33 358.08 873.96 362.84 882.51 378.37 893.38 382.21 899.54 424.3 910.17 437.67 916.05 437.27 941.4 435.6 947.6 434.58 958.82 424.3 962.08 401.85 957.33 390.2 955.45 378.82 954.35 366.46 952.47 365.36 955.74 365.41 966.02 365.41 969.82 375.78 978.03 389.76 989.84 395.28 999.81 398.37 1021.63 397.4 1037.77 394.13 1060.57 385.9 1062 340.55 1058.11 330.88 1058.51 316.94 1056.66 306.79 1048.22 289.85 1044.33 279.93 1044.37 252.48 1048.97 233.78 1052.15 213.17 1053.56 202.67 1055.48 188.64 1056.78 170.19 1052.58 156.16 1037.48 142.57 1026.29 127.7 1008.31 119.14 986.84 103.61 967.26 97.52 952.03 75.42 937.2 55.21 930.29 41.05 920.99 26.63 914.6 1 908.4 10.6 885.16 15.27 883 27.94 880.02 33.71 878.33 41.88 874.06 47.44 863.27 56.13 855.7 63.8 845.99 64.63 842.58 56.03 839.21 62.03 831.17 63.75 826.18 63.88 816.89 62.25 806.58 62.12 798.65 73.46 774.73 91.86 734.23 102.36 711.07 107.13 700.5 99.72 697.56 81.63 693.79 74.27 692.3 67.87 690.93 61.12 687.6 55.6 684.31 54.41 680.94 52.47 676.94 53.88 668.32 64.91 655.93 75.63 652.76 90.24 653.27 98.53 656.29 106.65 650.56 108.86 639.63 109.69 634.14 124.12 627.33 138.06 615.57 142.83 606.72 157.43 588.07 166.83 578.11 176.09 571.65 189.06 564.44 210.9 556.33 225.08 547.5 236.77 536.14 254.81 530.11 263.64 523.26 280.18 508.73 280.18 481.12 Z"/>
</g>
</svg>