<?xml version="1.0"?>
<svg xmlns="http://www.w3.org/2000/svg" version="1.2" baseProfile="tiny" fill="#f9c113" width="800" height="766" viewBox="0 0 800 766" stroke-linecap="round" stroke-linejoin="round">
<g fill="#c0392b" id="id_221">
<path d="M 799 569.81 798.81 580.34 797.7 590 787.39 618.76 780.62 627.92 775.91 628.04 766.26 625.28 757.57 622.88 749.96 621.13 738.23 620.6 735.06 617.84 727.36 616.32 726.22 619.64 726.22 623.11 726.19 624.74 722.36 632.62 721.12 634.22 721.49 638.93 721.06 640.93 719.63 642.05 718.66 646.48 716.09 658.28 716.4 664.12 716.83 672.85 717.49 688.43 719.01 693.59 720.62 696.01 724.13 701.57 728.78 715.8 731.52 724.62 729.87 728.62 728.07 732.68 728.75 735.39 732.45 744.04 720.19 741.34 708.17 743.25 706.71 742.01 698.24 745.48 691.35 742.97 687.75 735.48 690.51 728.21 690.6 725.11 685.17 723.98 675.49 720.18 668.5 723.73 661.45 729.17 661.95 735.51 660.43 747.29 651.37 747.55 645.47 745.69 630.13 741.68 617.81 742.92 607.63 739.17 596.95 724.83 610.02 713.81 614.77 698.67 623.62 691.35 622.59 685.15 619.83 680.81 611.45 674.78 606.7 669.17 592.11 660.32 582.39 656.15 576.56 647.95 590.06 644.6 604.68 639.67 611.29 636.94 620.45 631.9 620.61 627.24 616.98 618.99 627.03 616.29 634.7 613.19 637.09 609.78 632.68 604.31 623.31 599.27 617.26 598.29 600.56 596.46 594.29 599.41 591.21 603.41 587.55 604.34 576.23 606.18 567.26 611.36 558.51 619.47 554.81 621.93 546.56 628.29 540.01 640.35 537.55 644.32 529.7 650.01 517.44 644.04 509.83 639.93 499.5 639.17 486.77 637.42 474.66 637.39 465.97 639.19 453.77 639.84 449.12 641.59 441.95 634.57 433.6 628.14 420.91 621.27 405.05 619.43 394.06 618.05 384.37 614.66 376.05 614.38 373.35 616.8 365.06 631.56 360.41 642.8 358.11 648.34 347.68 662.21 339.01 653.87 333.58 641.58 333.95 633.92 334.95 629.75 335.01 622.48 332.46 619.3 330.63 617.97 326.81 615.58 324.95 613.47 321.23 613.3 316.63 620.82 316.82 627.16 315.64 639.13 316.11 651.19 315.7 654.71 316.7 661.59 317.51 671.73 318.31 679.78 318.19 683.79 316.86 690.07 312.79 699.96 309.9 707.49 308.85 710.53 307.39 716.39 306.77 721.1 307.29 724.77 309.28 730.49 310.4 734.72 310.9 735.9 311.24 738.86 310.46 740.72 309.19 741.96 307.6 742.69 305.65 743.62 302.33 744.02 286.77 745.12 253.65 747.69 242.75 747.94 229.84 749.58 220.31 755.41 212.86 765 209.74 755.41 164.67 715.18 138.75 688.52 131.47 683.67 118.22 678.13 114.51 680.32 112.12 681.95 112.98 691.15 112.55 692.5 108.45 693.7 103.42 693.97 100.7 686.4 100.67 686.13 96.53 680.84 94.67 678.46 91.96 676.39 87.62 674.25 82.64 669.29 79.83 666.26 73.87 657.09 65.69 647.47 54.63 637.14 47.71 621.39 39.33 608.26 30.82 599.06 28.24 594.2 27.27 585.72 27.99 582.69 38.69 564.82 56.97 558.72 73.22 550.7 72.93 546.16 78.12 546.94 84.35 541.66 94.55 546.97 101.24 547.91 109.68 547.73 113.52 544.87 118.19 541.81 119.78 539.44 118.26 531.33 114.68 523.01 104.31 518.6 99.22 516.43 87.49 508.89 70.66 500.14 70.66 505.36 68.14 507.4 69.37 510.77 72.02 517.92 64.37 522.24 46.59 518.04 32.02 512.03 30.82 501.04 23.47 493.05 22.58 491.91 1 489.5 8.59 475.15 13.29 459.92 19.29 446.02 26.07 427.59 30.74 398.24 36.6 381.49 40.48 363.52 42.6 350.17 46.24 338.56 45.94 329.38 50.74 316.21 52.46 299.23 52.4 286.33 52.37 269.45 56.37 260 59.65 253.02 63.52 243.99 67.7 240.93 79.75 234.07 87.83 230.74 96.47 228.76 99.81 228.76 106.47 229.66 115.84 236.4 118.52 240.66 124.51 249.42 132.76 254.99 142.79 260.18 154.45 264.35 173.19 257.09 176.04 245.46 178.02 229.24 177.46 207.8 174.05 201.42 164.91 186.4 169.23 179.5 179.07 173.04 189.22 171.1 200.27 171.94 208.37 162.07 221.22 155.08 233.54 152.15 234.75 158.53 234.47 171.79 240.12 171.88 246.21 172.75 254.74 176.09 265.33 174.35 273.43 172.47 274.76 174.3 290.84 171.93 295.62 174.66 297.95 185.99 301.74 187.81 302.42 186.21 314.84 193.8 334.05 199.64 337.53 204.42 352.59 211.33 365.82 214.34 367.55 214.74 370.67 214.01 376.41 213.81 388.67 205.41 400.35 200.6 413.29 190.71 421.83 184.67 439.77 178.94 446.38 183.57 449.95 192.01 451.72 194.59 454.17 197.46 456.91 197.99 460.07 195.29 463.55 190.07 467.43 186.72 474.02 187.47 475.14 178.06 473.21 172.47 467.47 166.54 464.18 158.87 458 146.7 456.82 137.8 449.62 132.99 445.93 129.65 448.07 122.79 451.67 120.94 465.08 125.66 474.14 132.35 483.33 144.96 484.39 148.19 488.27 156.9 492.64 164.85 506.18 172.64 510.62 177.05 516.45 171.32 523.5 165.3 524.93 161.96 522.97 150.83 522.94 145.86 522.66 136.56 521.05 131.36 520.58 124.17 521.57 119.17 520.56 114.77 520.75 104.68 521.49 101 521.99 92.72 521.12 89.8 522.36 83.14 536.8 82.1 551.91 85.47 562.56 88.37 570.13 82.07 566.16 70.45 564.48 64.61 561.5 53.01 561.07 37.05 561.13 29.58 558.8 24.61 557.13 20.88 552.13 12.51 553.37 8.3 572.71 15.51 586.15 17.2 594.87 10.07 599.28 5.1 614.12 1.25 633.89 1 646.9 3.22 651.87 7.49 662.64 13.91 674.12 17.42 666.83 25.39 660.71 38.45 654.26 50.77 650.07 63.55 647.24 66.05 645.84 76.94 643.55 84.86 643.33 88.77 638.64 95.62 650.47 110.45 664.25 119.81 665.15 127.67 668.63 131.63 654.54 133.8 642.49 132.59 635.85 130.14 617.63 129.53 611.71 132.09 611.09 148.52 608.51 150.69 608.74 156.56 609.14 160.91 608.46 165.83 608.96 172.94 572.42 173.73 560.16 179.07 556.84 182.41 548.36 188.4 541.12 196.54 544.75 199.49 564.68 208.37 576.66 210.87 593.48 216.75 606.71 220.01 614.81 212.59 618.97 205.08 632.38 196.93 637.76 192.27 641.7 191.57 646.76 191.74 650.67 195.42 648.71 203.29 642.44 223.47 639.46 228.59 632.48 234.97 625.96 246.63 618.23 255.18 615.25 258.55 608.55 267.21 602.21 275.34 600.44 281.52 595.57 287.65 590.76 295.05 588 300.75 581.79 306.41 576.98 309.11 572.13 316.76 570.29 322.35 563.61 335 560.82 337 552 338.35 543.06 338.04 536.55 341.22 539.47 346.19 540.58 353.59 548.69 359.41 555.89 364 569.36 369.54 588.3 381.21 589.51 383.43 593.76 382.11 598.69 379.38 602.42 377.7 606.42 379.05 615.71 384.84 617.29 381.99 627.78 384.83 638.68 390.03 648.09 400.39 657.46 411.76 664.26 413.02 668.11 415.78 675.56 416.71 679.44 419.07 681.42 418.29 684.06 417.56 691.42 419.47 697.19 422.71 700.95 425.66 705.42 432.22 707.72 436.38 708.96 437.9 711.54 439.14 721.16 440.71 724.17 441.11 728.55 440.88 730.6 440.74 734.04 440.57 737.02 442.57 742.55 446.48 745.59 449.44 747.27 452.53 754.19 461.37 756.39 464.92 758.97 468.43 760.99 471.05 765.3 472.01 769.12 472.01 772.57 473.05 773.99 473.61 780.39 474.51 786.46 474.98 787.34 475.05 793.83 477.47 795.51 478.65 794.51 479.61 794.33 481.07 797.96 484.59 798.39 486.82 797.59 488.67 796.87 491.15 795.78 492.9 795.2 498.61 795.07 503.96 793.67 511.67 793.67 514.35 795.38 518.75 793.98 523.96 790.1 536.09 789.42 541.19 788.86 548.17 791.58 555.22 797.2 565.95 799 569.81 Z"/>
</g>
</svg>