<?xml version="1.0"?>
<svg xmlns="http://www.w3.org/2000/svg" version="1.2" baseProfile="tiny" fill="#f9c113" width="800" height="646" viewBox="0 0 800 646" stroke-linecap="round" stroke-linejoin="round">
<g fill="#c0392b" id="id_233">
<path d="M 117.21 563.41 104.41 497.13 132.53 489.62 109.37 434.1 195.4 411.59 215.26 407.09 200.37 357.57 86.21 384.58 44.84 252.54 56.43 249.54 48.15 239.03 38.23 243.53 1 86.76 34.09 80.75 34.09 74.75 47.33 41.75 110.93 1 156.84 2.29 210.44 10.82 201.89 28.4 219.57 44.95 266.9 252.82 358.14 239.37 354.72 230.07 370.69 224.89 378.67 232.13 675.9 164.24 688.09 175.4 712.61 188.21 730.27 200.27 752.3 222.88 799 235.97 787.78 287.98 773.86 290.99 763.68 330.38 758.69 341.12 760.14 347.34 725.86 357.33 723.36 372.78 711.94 380.32 696.14 381.26 674.56 381.24 651.7 377.66 610.14 363.34 582.09 369.56 564.64 414.98 562.97 465.11 550.51 470.95 528.27 483.58 508.74 491.87 499.39 485.46 493.36 486.59 484.84 494.32 474.25 494.51 448.69 465.86 424.58 450.41 401.1 443.43 367.03 449.28 372.43 474.16 383.65 520.71 378.04 527.87 337.94 535.98 343.75 555.77 345.62 576.5 317.36 586.68 256.07 602.14 207.26 619.95 190.64 629.38 182.95 635.41 128.92 641.26 113.79 645 110.36 628.59 121.77 588.24 117.21 563.41 Z"/>
</g>
</svg>