<?xml version="1.0"?>
<svg xmlns="http://www.w3.org/2000/svg" version="1.2" baseProfile="tiny" fill="#f9c113" width="800" height="1070" viewBox="0 0 800 1070" stroke-linecap="round" stroke-linejoin="round">
<g fill="#c0392b" id="id_212">
<path d="M 688.1 529.64 698.41 548.84 708.27 562.83 709.33 566.73 700.85 586.06 698.41 592.18 694.37 609.86 692.82 621.91 694.93 627.47 707.75 654.06 717.23 670.42 729.57 692.04 745.84 713.23 760.45 727.73 775.96 744.1 782.92 752.6 791.4 758.6 792.23 763.07 790.51 771.64 783.89 791.61 783.37 809.15 781.58 823 781.03 842.29 781.75 856.52 781.65 872.03 782.92 884.1 782.79 902.58 781.96 919.32 779.62 933.55 778.65 938.62 778.9 942.59 799 955.43 794.59 959.59 786.38 967.23 779.21 971.67 777.08 971.7 774.8 970.14 773.15 967.38 768.01 963.5 762.43 963.32 758.02 965.29 746.54 978.08 738.75 986.97 733.78 988.25 722.55 984.25 716.34 981.87 712.2 979.43 709.27 975.3 703.52 972.98 698.8 972.61 697.14 974.42 684.9 991.1 682.42 1002.62 681.01 1005.84 676.08 1008.5 670.98 1008.97 657.78 1011.07 650.33 1010.35 643.47 1010.31 632.13 1010.82 623.37 1013.19 615.31 1021.74 611.83 1026.12 608.14 1035.76 609.24 1044.37 608.48 1047.5 608.76 1054.66 610.9 1062.02 608.72 1068.03 605.93 1069 598.14 1066.43 585.15 1058.89 580.98 1054.48 579.73 1054.44 556.07 1053.69 537.9 1037.19 525.05 1037.2 527.81 1020.39 528.29 1006.94 531.25 995.42 532.56 983.09 528.74 972.8 525.81 967.2 519.26 959.28 519.22 946.02 520.36 930.28 527.81 914.08 531.39 904.13 531.96 889.39 530.24 879.7 520.38 868.88 518.86 858.81 523.55 854.3 520.76 848.96 518.55 845.27 511.56 844.11 500.08 845.24 493.05 845.89 472.5 846.08 451.23 846.61 431.38 847.11 418.9 848.24 413.35 847.96 392.67 846.36 362.31 844.97 354.35 846.4 346.59 847.31 334.77 845.59 325.36 847.62 313.95 847.72 299.75 850.75 293.51 835.15 287.06 822.77 279.89 812.67 266.97 798.91 258.8 786.16 254.82 773.93 248.81 770.01 225.59 754.83 212.69 747.55 206.25 741.39 203.18 732.67 189.5 721.99 180.43 711.96 178.71 709.05 173.64 700.52 166.68 695.65 163.4 692.62 161.4 688.52 156.92 681.77 155.68 677.31 155.78 674.28 154.34 660.91 149.41 650.19 141.27 638.51 138.41 635.98 131.59 628.54 128.17 624.27 126.29 617.42 125.19 604.52 118.88 596.59 118.3 593.65 113.78 588.53 111.61 585.47 110.3 584.25 101.16 579.72 89.07 572.95 68.07 563.42 68.42 544.49 35.46 520.43 30.78 516.27 28.26 511.31 26.33 507.5 25.43 497.51 23.4 449.42 21.88 425.89 18.9 382.66 18.11 364.32 16.04 340.62 15.63 328.83 13.94 301.57 12.59 283.96 12.21 273.2 10.87 258.7 9.86 237.88 9.73 235.23 6.96 188.44 5.07 158.65 3.17 130.14 1 100.95 32.37 81.26 55.77 101.74 85.02 109.67 124.14 121.23 133.28 120.9 144.98 118.26 155.58 111.65 158.5 123.22 164.72 132.14 177.51 136.76 194.58 141.79 195.78 139.79 204.63 132.67 211.8 130.14 212.25 109.49 217.77 105.6 224.39 86.03 224.7 79.39 242.42 78.8 242.11 75.69 242.42 67.84 250.55 66.16 263.44 62.48 266.75 58.56 276.44 56.1 275.11 49.26 289.21 44.46 297.76 39.51 297.38 34.25 301.13 22.51 311.78 19.24 323.64 23.04 328.68 26.84 339.4 11.05 358.54 1 377.77 18.06 399.66 36.28 409.1 44.78 426.55 61.91 435.37 69.19 457.6 87.6 464.67 93.11 472.36 107.47 471.91 122.15 513.45 121.56 513.89 136.98 507.1 152.21 525.17 147.04 550.71 137.4 564.32 139.93 565.74 148.43 572.56 170.15 574.49 187.82 579.53 201.91 582.25 210.79 584.01 215.46 587.07 220.39 591.28 226.62 597.17 232.45 610.28 248.19 623.34 263 631.72 274.54 650.2 375.45 653.92 394.89 657.16 420.41 660.05 445.12 662.91 463.75 669.97 482.73 679.38 511.23 685.91 525.02 688.1 529.64 Z"/>
</g>
</svg>