<?xml version="1.0"?>
<svg xmlns="http://www.w3.org/2000/svg" version="1.2" baseProfile="tiny" fill="#f9c113" width="800" height="905" viewBox="0 0 800 905" stroke-linecap="round" stroke-linejoin="round">
<g fill="#c0392b" id="id_225">
<path d="M 233.41 898.76 223.99 904 208.82 902.5 203.91 886.41 213.74 868.07 196.12 866.58 179.31 850.49 173.99 829.55 162.51 806.74 155.95 798.52 155.95 774.97 154.72 758.9 170.3 761.14 170.71 751.8 142.43 746.57 133.82 720.8 134.23 714.45 140.38 703.62 136.54 694.71 141.61 687.57 160.46 690.93 143.37 679.68 140.79 671.52 139.97 662.94 136.69 642.79 112.51 639.8 106.04 606.96 122.89 581.7 102.4 581.7 86.01 565.13 72.81 521.27 56.88 491.9 55.51 475.77 40.95 467.09 29.11 479.9 1 447.46 5.43 441.61 15.34 435.56 17.66 434.06 23.47 430.05 32.4 425.83 37.36 423.54 41.26 421.74 48.65 420.2 53.3 419.37 60.2 416.36 64.59 415.94 67.44 414.31 73.74 410.45 81.57 410.66 83.59 411.54 88.28 414.59 91.52 416.36 97.88 418.18 100.33 417.99 102.56 417.18 110.59 414.11 118.38 415.51 126.57 419.05 134.67 423.68 139.63 427.06 144.26 429.99 147.22 431.17 151.27 431.57 153.57 431.71 157.07 431.31 161.52 427.87 166.59 426.12 169.46 425.95 174.49 424.85 177.32 422.51 181.71 421.9 186.38 422.12 189.06 422.46 195.6 421.89 200.58 422.23 205.02 425.78 209.74 429.14 212.55 429.13 215.69 426.22 218.89 423.8 224.88 423.09 228.15 423.05 228.09 420.46 225.62 417.01 223.99 416.16 222.59 414.91 221.9 413.84 221.92 413.08 221.73 412.31 221.87 411.59 222.67 410.02 222.37 407.87 222.37 406.65 222.8 405.31 221.81 402.77 221.68 401.27 220.28 399.04 219.65 397.63 219.83 396.64 220.13 395.34 219.8 393.58 219.32 392.51 219.87 391.22 221.04 389.46 221.34 387.95 221.77 387.47 222.11 386.83 222.5 386.04 222.11 385.63 221.57 385.17 221.47 384.86 221.44 384.43 221.55 383.86 221.68 383.05 220.77 381.71 220.31 381.58 219.73 381.39 219.6 380.69 219.73 379.66 236.29 379.57 239.32 379.93 242.83 380.76 244.84 381.55 249.33 383.86 252.07 386.57 253.96 389.35 255.55 392.79 257.61 396.7 258.65 398.43 261.58 400.9 267.24 404.91 269.68 406.34 271.13 407.1 273.03 407.7 277.44 409.02 283.09 410.62 287.01 411.63 290.96 412.8 293.42 413.45 297.73 414.87 299.9 415.34 303.01 415.9 305.62 416.12 310.02 415.92 311.21 415.56 310.64 411.67 309.81 409.85 297.92 383.67 286.23 359.32 281.78 349.34 280.45 346.37 274.38 332.62 272.85 320.54 272.34 292.93 273.4 293.21 273.88 293.3 275.44 293.41 277.33 293.7 279.51 292.69 280.47 292.43 281.22 292.27 282.7 290.91 284.66 287.98 285.93 286.85 287.2 286.42 288.56 285.45 293.15 280.96 300.4 274.54 306.44 268.05 311.82 255.8 313.82 254.07 317.99 253.35 326.6 255.45 333.97 258.21 342.72 262.23 355.24 264.18 363.14 264.54 376.69 264.65 388.24 262.89 399.23 258.51 402.08 254.83 404.92 246.14 410.88 238.02 421.21 229.68 430.82 224.91 440.75 219.63 451.07 215.63 459.19 212.5 466.79 209.09 474.47 204.05 478.49 199.3 480.03 193.61 480.32 182.57 480.53 176.13 481.03 172.12 480.73 168.81 480.23 165.45 480.2 162.94 480.12 160.91 479.98 156.87 479.83 154.21 479.56 151.6 476.98 147.5 476.38 145.41 475.38 141.66 474.8 140.6 475.71 139.12 478.17 135.74 479.61 133.28 481.64 131.12 482.96 128.54 483.46 127.58 487.2 123.36 488.46 121.09 492.59 118.3 494.02 116.97 495.86 113.24 497.14 112.1 499.65 107.67 501.07 106.03 502.98 104.5 505 102.24 506 99.8 507.77 96.4 510.11 95.42 515.57 93.48 520.01 90.73 522.83 89.42 526.94 86.1 530.02 81.43 529.9 79 529.39 75.23 528.76 73.54 528.3 70.72 528.59 67.78 528.3 65.05 527.2 61.36 526.53 58.22 524.39 55.81 522.91 49.38 522.96 48.05 524.31 44.27 530.49 43 531.54 42.12 532.58 40.94 534.75 36.95 536.33 33.16 538.11 31.1 539.68 28.94 541.77 29.2 544.6 29.41 546.86 28.75 548.05 28.48 552.76 28.22 554.38 27.85 562.98 22.35 563.5 21.77 566.54 19.43 569.25 13.54 570.47 11.54 574.54 6.08 580.4 2.52 584.68 2.23 590.16 1 591.58 1.53 595.9 2.5 597.81 3.66 599.17 5.53 607.07 8.12 609.49 10.39 612.95 12.16 620.56 16.56 623.35 18.08 629.78 21.79 633.67 23.82 636.8 26.51 638.02 28.46 638.69 29.43 640.69 30.06 641.78 30.41 646.23 33.57 647.65 37.91 648.49 41.94 649.67 44.31 650.27 47.57 651.19 48.99 652.31 51.29 657.44 55.3 658.57 56.71 660.66 61.82 664.47 67.52 665.09 69.35 665.83 72.29 667.57 75.08 670.65 79.58 675.37 84.41 677.81 88.62 678.99 90.54 682.55 93.23 685.53 94.02 689.29 95.05 693.17 95.39 697.51 96.56 699.45 96.63 704.77 96.73 708.13 97.56 716.78 97.93 718.95 96.43 723.57 94.42 725.98 92.94 726.65 92.47 727.37 92.34 728.68 92.53 731.81 93.16 733.14 93.36 736.94 92.32 739.56 94.12 747.01 95.49 750.11 95.37 754.32 98.06 759.64 98.53 760.84 98.27 765.29 98.45 772.66 98.59 776.56 98.53 781.44 98.07 789.77 97.75 788.67 102.39 787.6 105.63 787.18 108.5 784.98 113 782.46 118.26 778.08 123.49 767.61 135.04 760.8 142.08 752.43 151.6 752.82 164.05 759.12 168.26 765.45 170 771.76 170.63 775.29 171.59 786.55 174.67 793.34 178.02 797.28 184.5 798.76 187.25 799 196.5 798.14 203.5 796.91 208.52 788.82 211.65 783.79 209.85 779.46 207.61 775.9 205.21 773.32 201.43 772.16 199.59 768.11 196.68 765.24 196.29 763.8 196.29 760.07 197.15 756.58 198.58 751.38 201.54 749.58 202.86 747.9 206.76 746.49 209.77 744.76 213.85 744.77 221.13 744.8 226.7 744.06 234.02 741.99 239.7 742.11 243.66 740.54 248.67 739.63 254.43 737.96 262.19 735.43 269.41 733.41 282.08 730.48 290.03 727.89 296.03 725.86 302.6 722.59 308.79 721.3 311.21 717.6 313.98 714.6 313.67 711.38 311.29 708.55 307.78 706.53 304.23 701.54 299.38 690.32 291.53 683.96 288.14 678.23 287.97 671.95 288.66 668.43 292.78 663.6 297.93 656.26 303.57 652.08 308.89 647.3 316.13 643.12 322.57 640.64 327.57 639.79 331.86 640.64 345.68 641.25 352.2 641.85 359.35 641.33 361.65 641.42 364.2 641.32 366.55 643.11 368.34 644.55 369.39 646.59 371.32 646.99 372.54 646.51 374.01 643.89 374.91 641.13 374.68 635.93 372.89 630.97 370.11 624.12 366.69 621.42 364.76 616.24 361.78 613.12 359.6 610.68 359.35 607.97 360.19 605.4 363.91 603.87 366.73 602.64 370.14 600.81 375.05 596.2 383.16 593.37 389.83 589.79 395.54 587.04 400.88 585.78 404.92 586.28 408.06 589.62 413.44 593.85 417.93 601.16 420.59 603.86 421.67 607.36 424.98 607.53 429.76 606.69 432.64 605.21 433.99 599.67 435.32 593.28 436.69 583.35 437.89 578.51 439.45 575.66 441.09 572.43 445.45 570.72 457.27 571.95 463.58 573.37 471.26 566.51 475.98 559.81 477.66 557.18 479.78 551.37 486.12 548.47 491.74 547.27 497.61 546.44 506.06 546.4 512.19 549.74 516.6 554.56 518.65 561.55 521.96 567.37 526.61 573.1 531.85 574.84 533.97 577.31 537.5 579.47 539.98 587 549.59 587.93 552.55 588.49 554.35 586.92 559.54 581.97 560.72 577.26 559.9 571.35 559.77 561.02 559.83 550.14 561.93 545.5 563.19 537.94 567.42 536.45 571.97 536.69 573.43 538.78 574.47 541.91 579.91 543.43 587.35 546.43 597.84 547.1 604.37 546.85 606.82 548.5 608.02 554.65 612.08 559.01 612.48 561.39 614.48 562.59 616.45 562.85 619.92 561.46 630.18 559.85 633.25 559.04 635 558.01 635.5 552.6 634.58 545.61 633.24 541.04 633.35 536.61 634.3 534.38 634.82 529.49 635.94 526.46 636.39 523.23 636.34 519.97 635.46 514.38 633.92 508.3 629.06 502.12 624.93 499.21 625.47 493.85 627.4 489.34 629.17 484.48 632.39 480.17 636.39 476.44 641.97 474.95 645.34 475.27 649.46 474.49 653.33 475.72 673.18 477.88 679.88 478.8 686.09 478.42 688.59 471.71 689.37 464.46 689.63 460.52 689.24 456.63 687.73 452.61 685.18 448.64 684.09 443.48 685.05 439.28 687.73 428.31 692.73 425.78 696.39 426.37 700.18 427.67 701.57 431.14 704.85 438.72 714.76 446.81 730.6 452.25 738.45 454.87 743.47 456.63 750 454.57 753.81 451.28 755.47 446.85 755.47 444.84 754.45 443.64 752.69 443.45 750.45 443.46 748.48 442.86 745.7 440.45 740.1 435.32 733.58 432.54 733.96 430 735.34 425.91 738.96 416.92 744.56 412.82 747.83 411.28 752.63 410.23 759.03 406.69 766.11 406.34 766.84 401.94 775.89 399.38 783.08 401.49 789.79 406.09 794.07 407.77 796.31 408 800.65 404.96 803.1 401.99 803.86 397.77 803.59 395.9 802.77 390.79 798.81 385.69 794.24 379.56 791.24 376.26 790.77 371.44 792.79 368.9 796.68 366.3 802.13 363.58 809.39 361.63 812.22 359.68 815.05 349.55 815.75 341.76 817.46 342.96 826.42 348 833.16 355.31 837.91 357.58 843.45 354.96 848.88 353.85 855.52 354.15 857.36 353 859.68 352.38 863.27 350.45 867.82 346.82 868.89 339.71 864.56 335.32 862.64 326.91 860.84 319.32 862.04 311.02 862.34 292.61 861.5 285.72 863.66 277.89 864.81 271.03 867.35 264.02 872.11 256.46 879.58 251.75 884.33 243.84 890.8 239.48 899.26 233.41 898.76 Z"/>
</g>
</svg>