<?xml version="1.0"?>
<svg xmlns="http://www.w3.org/2000/svg" version="1.2" baseProfile="tiny" fill="#f9c113" width="800" height="520" viewBox="0 0 800 520" stroke-linecap="round" stroke-linejoin="round">
<g fill="#c0392b" id="id_209">
<path d="M 91.91 160.03 91.91 158.45 91.32 157.05 89.76 156.53 89.76 156.7 88.4 157.93 87.81 158.8 86.64 160.2 83.29 160.88 66.62 159.95 66.57 109.14 63.84 103.55 61.89 102.85 56.83 101.8 54.49 101.1 51.76 100.05 44.35 98.31 43.18 96.56 37.34 95.51 35 95.16 27.59 92.71 25.64 90.97 24.08 90.27 21.35 88.17 18.63 87.12 22.34 79.3 31.61 72.04 42.95 63.2 51.03 57.03 59.69 49.91 66.75 44.43 70.59 39.23 76.54 28.59 77.44 23.12 78.91 16.17 83.43 15.02 89.34 12.21 92.91 9.07 95.12 8 100.58 4.5 106.85 2.54 113.49 1.27 117.06 1 119.16 1.53 121.05 5.37 121.11 7.92 121.11 9.68 122.87 12.67 126.59 15.72 129.26 18.88 132.41 21.5 133.73 27.01 133.65 32.67 134.66 37.09 135.75 40.37 136.91 43.88 138.24 47.72 144.27 53.37 147.62 56.6 153.35 60.2 158.51 67.34 162.95 70.93 166.29 77.07 168.92 82.81 171.98 85.52 174.94 85.08 178.59 83.25 183.4 81.41 186.87 81.09 188.16 81.57 193.45 85.04 199.42 89.36 202.09 91.09 207.21 93.44 214.21 100.3 219.73 107.23 229.47 118.16 233.01 121.05 238.23 125.96 255.86 128.25 262.87 128.71 278.64 129.75 316.17 131.47 361.74 134.38 421.71 139.07 449.09 138.17 464.67 138.51 490.54 141.47 510.46 142.99 526.96 143.79 544.9 143.62 566.6 144.05 572.6 144.94 594.4 145.95 605.31 146.41 616.99 147.44 628.51 148.11 640.8 148.18 654.35 148.34 663.17 149.7 672.87 151.92 685 153.75 696.82 156.63 709.79 159.96 724.58 165.34 753.82 170.85 758.12 172.31 761.61 174.88 761.08 175.55 755.35 182.83 750.55 188.92 744.8 196.22 738.19 204.52 739.14 213.55 739.33 215.53 740.27 224.27 740.95 230.84 741.98 239.67 743.12 251.32 743.8 257.58 743.88 258.23 744.28 261.66 744.41 262.97 744.78 266.63 745.26 270.68 745.41 272.15 745.79 275.61 746.03 275.96 746.25 278.22 746.75 281.05 746.95 282.13 747.28 282.61 749.94 286.51 754.04 292.48 755.58 294.7 756.13 295.49 758.67 299.2 761.31 303.14 763.46 306.28 764.1 307.21 764.95 308.47 768.25 313.4 769.88 315.75 771.13 317.58 772.82 320.17 773.23 320.79 775.34 323.94 775.67 324.45 776.79 326.06 777.54 327.15 779.53 330.07 780.78 331.96 783.32 335.72 784.39 337.32 786.82 340.89 790.61 343.07 794.27 344.84 799 347.79 788.83 350.11 780.54 350.83 773.26 351.33 770.11 351.5 759.6 354.31 745.15 354.41 734.61 353.47 723.8 355.06 714.79 358.5 705.72 358.91 696.06 359.95 680.11 359.97 671.07 360.04 661.01 362.76 653.11 364.16 651.84 362.46 647.88 356.49 641.67 347.68 638.38 345.43 630.61 347.46 626.61 350.71 615.28 359.24 606.2 367.1 601.44 372.31 596.86 376.11 586.46 386.09 573.39 401.16 565.83 409.34 558.39 415.67 550.76 424.37 547.81 429.42 537.64 439.83 530.71 447.78 522.78 456.51 516.71 464.53 511.38 472.14 505.3 480.18 499.02 488.46 494.39 497 491.67 502.22 488.04 506.27 484.76 510.42 476.65 508.14 470.36 507.09 465.22 505.14 463.81 506.19 461.53 509.61 459.83 513.03 458.06 514.36 454.55 519 448.55 517.89 442.79 516.14 434.19 514.25 432.89 512.64 432.85 509.31 433.1 508.09 433.37 505.26 432.89 504.06 432.07 497.93 430.15 493.81 429.83 492.35 425.09 491.94 415.23 490.79 409.67 492.74 404.06 493.54 399.03 492.52 397.19 491.29 389.74 491.85 386.77 492.73 376.67 492.15 353.96 491.24 347.73 491.81 339.43 491.67 331.8 491.63 323.23 492.69 318.75 492.43 318.8 489.64 318.77 488.75 318.1 487.69 316.97 486.39 315.45 485.24 313.83 483.93 313.12 483.04 311.45 479.93 310.31 477.25 309.08 472.96 308.6 469.51 308.56 465.55 307.96 460.98 308.66 454.78 310.08 450.89 312.19 447.95 313.33 446.77 316.92 445.31 319.23 444.73 321.06 443.79 321.53 443.49 320.82 439.8 320.66 438.08 319.88 434.44 319.49 432.58 319.39 428.67 318.16 425.87 318.21 420.91 314.4 419.07 312.44 417.56 309.14 414.37 308.08 413.15 305.34 410.13 302.1 407.09 299.13 404.81 292.32 399.12 290.18 395.57 288.12 395.59 285.48 397.24 284 398.13 281.4 398.31 278.26 396.55 276.87 393.49 277.64 387.01 277.5 381.94 277.11 380.6 275.3 377.66 273.68 376.54 272.11 376.27 270.34 376.21 269.53 376.19 267.19 375.51 265.94 373.68 265.56 371.21 263.4 368.99 260.29 367.46 257.09 367.19 253.15 366.78 248.57 367 247.34 366.95 244.1 366.86 241.21 365.94 240.4 364.8 238.4 362.37 237.99 360.52 237.38 355.91 237.3 352.81 226.91 352.79 217.18 351.73 212.47 351.95 211.44 354.56 211.87 356.54 212.34 360.12 213.04 361.99 214.68 363.38 215.21 364.63 217.43 368.2 218.93 369.25 220.51 370.95 223.08 373.76 223.8 374.88 224.19 375.91 223.86 376.94 222.85 378.03 219.65 379.11 217.75 379.53 213.22 380.34 211.73 381.15 210.52 383.15 210.72 384.52 209.1 385.87 207.2 387.13 205.44 387.21 203.8 386.95 201.77 386.3 197.24 386.04 194.21 386.86 192.15 387.93 186.26 389.14 181.89 390.99 189.73 397.03 196.92 403.21 192.46 408.77 186.95 404.42 177.48 398.48 171.95 403.17 163.85 403.11 163.83 403.8 163.47 411.05 157.3 407.45 149.84 403.02 138.62 397.06 122.45 388.34 119.53 386.82 114.12 382.73 112.96 388.58 111.16 388.66 102.47 389.14 97.86 390.06 97.8 390.39 97.96 390.96 98.11 393.03 97.81 393.62 98.01 397.07 98.25 398.59 99.41 401.41 104.3 412.56 96.18 410.72 88.14 409.55 83.22 409.26 80.06 408.84 73.19 406.8 62.96 404.74 55.66 404.95 38.44 402.73 33.78 403.74 26.26 405.72 20.72 406.75 13.98 410.85 11.36 412.34 7.26 416.68 3.1 412.93 1 410.05 1.6 403.96 1.36 400.41 3.11 398.47 3.35 393.09 3.65 389.19 4.08 385.12 4.04 380.81 4.98 378.62 7.23 373.91 9.34 370.95 12.78 367.87 15.01 365.93 18.06 364.17 20.09 363.6 24.65 362.73 26.02 361.98 26.7 359.2 26.7 358.55 28 355.55 28.55 351.75 29 350.54 30.89 348.6 34.61 346.79 34.42 344.19 33.2 339.55 33.48 335.37 33.46 332.08 34.58 329.15 35.97 327.89 37.76 326.65 40.97 325.65 34.1 316.08 32.14 313.06 30.06 308.33 25.63 299.36 22.1 291.73 19.27 285.41 18.05 283.1 15.19 273.49 13.15 267.05 11.79 262.4 9.71 256.72 13.75 255.09 19.6 254.56 24.47 254.74 32.85 255.09 32.27 252.46 31.29 250.71 30.12 249.31 28.37 245.8 27.4 242.3 28.57 238.62 29.35 237.92 34.61 237.57 46.89 236.87 53.51 237.22 58.38 237.57 65.4 237.92 71.64 238.62 78.46 238.97 85.67 238.1 91.32 238.1 82.36 242.3 81.58 244.4 80.41 246.86 79.82 250.18 82.16 254.04 86.25 257.89 90.35 260.7 93.08 261.75 94.83 262.8 96.97 263.15 104.18 262.97 106.13 259.82 103.79 257.54 103.6 255.97 103.99 252.99 103.21 247.73 109.45 250.71 113.15 260.7 118.8 260.87 124.57 260.46 125.18 256.92 126.12 253.89 127.9 251.71 126.19 249.8 121.61 250.83 119.9 249.9 114.38 245.48 115.63 243.97 119.64 238.47 114.43 236.23 112.41 234.67 113.91 231.44 116.62 224.43 117.93 221.14 122.06 218.37 127.19 214.69 129.26 215.8 131.4 216.65 131.81 216.01 131.9 213.42 131.98 210.73 130.98 210.45 125.84 210.25 121.95 206.57 119.24 205.2 116 204.36 109.24 192.78 105.63 189.45 104.98 185.24 100.97 179.23 98.07 177.83 96.25 173.49 94.04 172.5 91.78 170.68 91.91 169.82 91.91 160.03 Z"/>
</g>
</svg>