<?xml version="1.0"?>
<svg xmlns="http://www.w3.org/2000/svg" version="1.2" baseProfile="tiny" fill="#f9c113" width="800" height="1042" viewBox="0 0 800 1042" stroke-linecap="round" stroke-linejoin="round">
<g fill="#c0392b" id="id_210">
<path d="M 486.03 67.48 490.55 69.51 496.2 74.58 517.68 81.68 524.47 82.69 541.43 85.74 544.82 90.81 566.3 95.88 574.21 98.92 581 100.95 595.7 103.99 601.35 106.02 609.26 122.25 609.4 269.69 657.76 272.37 667.49 270.41 670.88 266.35 672.58 263.82 676.54 260.26 676.54 259.75 681.06 261.28 682.75 265.34 682.75 269.91 682.75 298.34 682.39 300.81 688.94 306.11 695.36 308.98 700.62 321.56 709.04 325.63 720.69 343.06 722.55 355.29 733.04 364.94 752.64 398.55 762.02 400.97 769.91 404.95 781.19 415.65 796.1 416.22 799 417.03 798.77 424.84 798.5 432.34 797.3 434.2 791.11 431.75 785.09 428.51 770.21 439.19 758.23 447.24 754.44 456.78 746.58 477.13 742.22 486.49 748.08 491.04 763.19 497.53 751.58 513.48 747.95 517.88 763.96 530.69 768.91 533.38 782.19 530.42 787.15 535.95 781.99 542.27 779.26 551.07 777.5 561.33 760.77 562.53 744.37 562.02 733.63 533.04 715.54 524.4 717.8 539.65 716.67 548.29 717.24 552.87 724.02 559.48 718.37 568.63 697.45 569.14 691.23 568.12 686.15 565.07 678.23 562.02 666.36 553.89 654.49 542.7 647.71 531.52 649.4 521.86 652.79 514.74 655.05 508.64 681.06 496.44 664.66 496.44 643.75 498.99 623.96 497.97 605.87 495.94 585.52 494.92 571.39 493.9 552.17 492.89 516.55 494.92 501.29 495.94 499.03 497.97 495.64 508.64 498.46 518.81 503.55 528.98 506.94 533.04 509.77 538.13 511.46 545.75 487.16 544.73 473.02 544.23 456.06 545.75 444.35 550.48 450.37 566.97 454.3 580.47 460.22 599.15 468.54 627.04 472.06 633.74 480.28 652.07 490.5 674.2 503.35 700.23 509.41 713.98 515.07 722.73 535 750.5 525.7 753.41 520.51 757 516.48 760.66 513.22 769.17 513.29 778.7 512.46 790.84 516.02 804.29 516.55 811.85 505.77 817.09 500.28 822.73 498.98 826.23 497.38 837.26 493.62 845.96 493.62 847.85 491.66 855.91 487.66 858.1 474.45 860.62 468.56 862.27 459.71 867.39 453.25 873 443.27 881.93 437.14 890.54 430.62 904.21 427.89 910.55 427.99 923.06 426.76 934.87 425.89 946.18 425.19 961.81 420.1 967.45 420.8 977.74 419.07 995.41 425.16 1003.75 437.24 1014.65 441.67 1017.41 442.07 1023.17 436.81 1032.9 434.11 1039.53 428.85 1041 413.61 1036.89 403.04 1032.76 401.08 1030.39 391.12 1027.45 384.2 1026.55 378.88 1025.68 374.02 1026.37 362.9 1027.27 357.41 1028.68 352.92 1029.4 349.26 1029.4 344.63 1029.1 339.11 1027.95 334.72 1025.94 335.25 1020.72 334.99 1017.39 329.86 1008.68 326.67 1011.11 325.83 1015.53 323.84 1017.78 321.44 1021.68 317.91 1020.87 300.61 1009.85 292.59 1002.86 285.36 995.81 279.14 992.72 274 989 279.82 979.07 275.49 979.22 271.3 980.63 263.95 985.1 262.32 980.09 256.89 976.79 261.98 969.8 253.63 966.59 247.87 962.81 243.64 960.5 232.28 952.1 229.15 950.15 203.2 942.05 222.8 920.51 225.19 918.71 224.3 900.9 213.58 899.57 203.66 897.26 195.68 893.33 182.66 888.66 184.06 886.02 183.46 882.42 187.16 874.14 188.05 870.31 188.25 866.98 187.99 864.34 187.36 859.21 189.05 855.92 191.42 845.99 188.89 844.82 179.24 833.22 175.21 828.82 166.1 821.56 164.04 818.72 159.78 809.84 155.25 803.28 140.98 803.19 141.64 792.73 140.28 787.4 130.39 773.85 127.7 770.58 135.39 767.08 152.66 763.27 168.23 761.47 173.76 758.99 175.26 752.87 169.25 748.49 159.59 746.84 143.05 744.03 136.96 736.21 132.27 731.08 127.08 717.9 126.88 710.23 127.05 706.13 108.39 704.46 104.39 704.04 98.37 703.71 81.99 704.65 65.12 699.8 66.49 693.39 68.48 681.8 70.61 678.41 72.94 676.41 80.93 674.04 86.35 671.28 89.11 664.57 90.75 655.61 92.64 645.13 94.81 634.23 97.4 620.58 96.87 614.62 90.91 595.79 91.08 591.78 96.63 584.32 108.08 577.44 116.6 571.09 123.99 564.18 130.71 552.6 133.63 542.8 134.83 530.89 140.16 510.16 136.1 505.88 126.08 503.03 115.79 502.97 112.4 501.81 113.4 485.86 122.35 481.62 132.23 479.35 136.49 479.38 141.65 477.52 148.87 472.95 156.1 471.36 164.12 467.95 171.77 464.81 176.83 463.52 181.45 463.29 182.15 470.32 196.33 468.19 196.93 460.48 205.08 454.4 211.21 452.82 212.14 450.54 211.37 448.48 209.24 446.6 205.22 444.11 195.96 440.28 183.32 440.28 177.23 443.9 164.95 442.8 151.87 444.68 147.71 447.7 141.72 454.97 134.23 459.73 119.58 462.09 104.38 465.62 89.49 469.36 83.67 471.03 74.75 468.55 66.93 468.64 62.14 468.82 54.35 468.28 48.66 465.59 40.1 460.65 35.35 458.41 32.98 457.81 30.45 455.66 17.61 445.22 12.81 442.11 10.05 439.71 1 438.31 3.96 432.93 7.69 432.58 15.21 431.95 26.66 432.16 32.12 429.94 40.64 429.02 52.12 420.94 54.12 415.23 55.15 411.7 54.02 408.26 50.52 401.89 47.3 395.07 42.27 389.78 39.64 382.57 35.85 376.29 32.19 368.4 30.09 359.61 27.33 347.14 26.49 337.48 25.26 328.37 36.5 314.95 47.88 308.56 55.33 303.53 69.91 303.56 87.92 296.87 104.39 296 109.65 289.61 129.58 288.56 147.89 289.16 163.66 289.85 175.21 287.45 185.43 286.86 198.57 281.21 207.46 272.21 214.82 263.58 211.97 255.05 223.35 256.19 233.17 256.07 237.86 258.52 246.71 261.12 252.77 261.09 255.77 258.52 261.62 253.29 266.88 248.66 276.27 243.13 282.12 235.42 286.58 228.85 292.07 225.56 296.63 231.6 301.93 237.12 307.35 243.58 314.07 256.31 317.47 265.72 321.73 269.87 327.09 267.69 330.28 263.57 334.14 256.04 341.5 243.88 347.85 232.02 353.71 223.26 352.98 206.2 350.61 180.78 347.25 160.53 342.43 141.39 338.57 128.76 324.29 112.63 318.97 90.66 319.9 86.99 328.55 71.64 335.87 65.97 366.22 65.44 377.24 63.61 385.23 57.41 394.94 53.26 397.24 52.24 399.94 35.71 401.67 34.6 406.39 29.74 408.89 21.74 409.26 16.19 412.58 8.88 414.18 4.73 434.32 2.34 455.68 1 474.39 2.4 476.82 33.35 480.98 35.65 470.2 58.35 478.11 61.4 486.03 67.48 Z"/>
</g>
</svg>