<?xml version="1.0"?>
<svg xmlns="http://www.w3.org/2000/svg" version="1.2" baseProfile="tiny" fill="#f9c113" width="800" height="1288" viewBox="0 0 800 1288" stroke-linecap="round" stroke-linejoin="round">
<g fill="#c0392b" id="id_229">
<path d="M 296.42 1098.38 293.76 1094.52 293.48 1088.92 293.48 1088.27 294.22 1086.13 295.13 1083.99 296 1082.26 296.94 1079.98 298.81 1074.85 299.94 1067.69 300.72 1065.17 301.43 1060.92 301.88 1058.81 302.5 1054.83 304.18 1051.55 296.59 1051.69 286.21 1049.87 278.68 1044.36 270.67 1040.49 263.46 1036.21 262.11 1034.48 258.13 1024.81 256.45 1018.07 251.38 1018.4 269.09 997.01 281.56 991.94 286.5 988.25 290.61 983.18 287.69 979.25 282.07 973.56 272.67 964.45 261.84 957.75 255.62 950.45 251.51 946.11 251.29 941.46 235.29 941.78 214.8 941.16 211.1 940.87 200.18 941.92 191.36 940.92 185.38 940.66 176.46 940.66 164.22 940.66 151.59 940.11 143.86 940.18 143.34 935.43 142.34 932.77 138.85 926.35 131.97 915.08 128.14 907.55 124.2 904.42 122.48 902.1 119.32 899.7 112.08 893.2 108.05 888.02 105.4 885.62 96.61 878.41 91.05 872.09 82.61 861.38 75.57 845.04 68.1 831.92 61.43 832.05 53.25 830.58 49.05 827.69 44.62 824.88 33.93 825.84 25.53 825.37 13.09 818.85 1 808.98 9.81 800.85 14.54 790.46 13.61 782.26 2.25 768.77 3.4 760.65 4.67 744.04 7.58 731.3 8.92 722.87 15.45 712.21 23.57 696.74 27.4 685.01 31.2 670.97 35.44 659.1 42.46 651.53 58.07 644.17 67.56 642.64 88.31 626.39 98.53 619.52 116.69 611.28 127.9 606.26 141.67 591.37 147.97 583.59 155.6 563.54 155.5 556.64 169.33 533.82 185.37 504.96 211.58 471.99 195.05 445.2 231.94 399.93 222.94 364.46 228.84 326.46 235.19 298.47 253.08 283.88 262.01 274.75 266.08 265.56 271.98 243.63 284.07 224.86 297.48 215.85 308.85 211.76 331.81 197.05 351.79 178.49 357.67 169.59 370.38 147.55 374.78 137.05 379.22 128.18 387.57 117.94 395.28 110.65 408.7 102.29 418.93 94.96 433.35 83.65 449.43 66.77 450.64 61.54 451 59.98 464.63 1 512.34 21.55 513.91 22.14 515.76 23.83 517.76 25.38 521.38 27.04 523.74 31.38 528.26 39.04 528.84 42.71 528.97 47.08 530.1 50.93 531.75 54.1 532.69 58.41 534.59 61.94 536.73 68.5 539.57 73.1 541.87 77.59 543.97 85.51 545.55 88.4 546.49 93.09 546.75 96.09 546.81 102.01 546.81 104.69 546.25 107.61 545.62 114.52 546.33 122.82 546.82 124.17 546.46 127.72 547.11 130.99 547.53 133.17 547.82 134.63 548.4 138.86 549.11 142.03 548.43 145.5 547.63 149.5 548.43 152.59 549.99 158.04 549.73 162.73 550.08 168.83 550.15 175.8 550.24 178.97 551.05 186.7 550.11 189.47 550.7 194.31 550.63 200.2 550.99 203.06 551.67 212.16 553.86 216.85 554.06 224.17 553.99 232.63 555.22 238.2 559 246.02 562.2 252.2 567.21 260.37 571.22 268.22 571.96 272.39 573.19 278.2 573.19 285.9 573.48 298.45 572.02 310.76 572.28 318.14 570.31 323.83 566.95 327.25 555.25 331.33 551.6 332.09 550.18 334.4 550.73 336.44 550.89 339.04 550.7 340.88 550.99 342.13 551.83 343.68 553.15 348.52 552.22 350.33 551.47 352.7 551.63 354.62 553.06 358.01 553.54 359.76 552.34 363.38 547.82 363.56 546.17 364.61 545.17 365.8 545.43 367.85 544.27 369.48 542.84 371.17 541.97 374.74 541.78 377.39 539.35 381.54 538.9 386.03 538.93 389.95 535.99 396.11 533.93 398.41 531.47 401.89 531.47 405.16 528.95 407.61 528.21 409.39 528.43 411.96 523.1 416.22 521.19 418.5 518.31 425.35 518.31 433.44 518.57 437.73 518.15 443.31 518.02 446.32 516.83 448.1 516.34 459.81 516.5 463.67 514.01 470.44 511.14 475.32 511.59 477.69 510.05 480.82 508.24 482.83 507.15 485 507.18 487.71 505.01 489.17 501.72 491.36 500.52 493.2 499.16 496.74 498.32 501.44 497.03 503.57 495.03 509.62 492.6 515.17 488.57 522.45 483.94 528.55 481.23 530.89 476.38 532.5 475.03 535.1 470.89 539.1 469.4 544.83 468.66 552.22 465.36 557.25 460.13 563.77 458.19 566.28 454.02 571.66 451.27 578.52 449.21 585.19 447.62 591.3 446.98 594.39 437.15 596.67 429.88 601.21 428.2 606.47 430.08 609.59 429.75 615.32 429.56 620.26 431.21 622.25 429.72 625.5 429.72 627.75 431.05 631.96 429.56 634.47 424.97 640.47 419.38 649.53 419.48 654.62 418.77 658.04 412.59 666.84 408.2 672.45 407.2 675.41 403.9 676.61 401.8 677.02 398.99 678.62 399.18 681.14 403.13 683.16 404.84 684.65 402.9 686.46 399.93 688.3 399.93 690.06 400.61 695.82 401.38 697.17 404.19 697.17 406.52 697.46 408.17 699.21 412.27 704.71 414.6 705.09 417.41 704.65 419.09 704.83 422.13 706.67 424.94 708.87 426.55 710.42 426.62 712.99 428.36 713.98 433.63 719.16 436.96 720.01 439.54 721.88 441.81 723.05 453.08 724.75 463.72 728.38 488.11 735.83 502.94 739.58 528.67 747.97 581.31 757.75 585.02 758.44 588.26 759.88 602.31 768.07 670.59 840.53 674.15 844.36 674.63 846.79 675.57 849.16 678.15 852.73 681.84 854.55 684.78 858 685.94 861.11 687.04 865.7 688.66 868.42 694.25 872.17 698.12 878.29 701.61 880.98 705.33 887.76 707.43 897.22 709.98 916.66 711.12 978.92 712.27 1041.37 715.73 1068.68 729.46 1099.78 732.47 1106.5 742.51 1129.07 768.95 1184.14 795.84 1243.37 797.71 1247.47 799 1256.28 796.32 1257.1 786.37 1257.54 780.47 1257.04 773.42 1255.78 768.51 1254.73 758.79 1251.5 753.23 1250.03 744.28 1247.39 735.42 1245.1 722.66 1241.49 712.67 1238.5 708.37 1237.15 705.11 1235.42 699.59 1232.19 686.79 1223.13 680.16 1217.53 677.81 1213.63 673.15 1204.77 669.57 1196.99 665.3 1190.72 659.1 1184.59 648.95 1179.37 644.39 1177.58 636.47 1175.7 629.62 1174.88 592.16 1175.08 591.87 1177.4 592.16 1178.98 593.49 1179.42 594.52 1179.72 596.59 1182.74 596.3 1184.58 596.04 1185.88 596.11 1186.84 596.33 1187.55 597.56 1188.57 598.43 1189.51 597.56 1191.3 596.78 1192.74 595.82 1193.82 595.14 1197.26 592.49 1201.22 591.26 1204.15 592.32 1206.55 593.07 1210.54 592.39 1213.48 592 1215.73 593.42 1218.9 596.59 1223.95 596.88 1227.35 599.11 1233.1 598.14 1236.12 598.14 1238.88 598.82 1243.75 597.01 1247.3 596.69 1248.92 597.12 1250.67 597.09 1252.37 598.64 1254.81 601.8 1257.63 605.49 1259.56 611.08 1267.37 611.21 1273.21 603.81 1273.3 590.27 1274.91 583.03 1280.4 575.95 1286.97 569.59 1287 558.92 1279.4 548.87 1271.36 537.63 1270.6 522.83 1271.89 516.79 1271.12 506.22 1270.63 496.3 1272 489.9 1277.29 485.03 1278.36 479.59 1271.06 452.81 1247.3 446.16 1238.04 445.98 1229.51 437.38 1213.16 437.29 1204.39 432.86 1194.97 430.55 1179.03 424.7 1160.28 423.81 1151.27 419.73 1137.03 446.69 1117.39 451.83 1105 450.15 1099.45 446.16 1099.21 443.59 1103.88 440.31 1101.78 439.95 1097.76 425.76 1104.6 408.02 1107.66 373.53 1128.33 360.67 1127.53 347.99 1128.42 344.97 1124.96 337.52 1124.55 332.29 1121.17 335.66 1116.27 335.48 1112.56 333.27 1107.82 335.57 1097.76 328.3 1096.39 305.24 1107.17 298.86 1112 299.21 1103.63 296.42 1098.38 Z"/>
</g>
</svg>