<?xml version="1.0"?>
<svg xmlns="http://www.w3.org/2000/svg" version="1.2" baseProfile="tiny" fill="#f9c113" width="800" height="1092" viewBox="0 0 800 1092" stroke-linecap="round" stroke-linejoin="round">
<g fill="#c0392b" id="id_226">
<path d="M 584.48 851.86 582.57 848.81 581.75 845.58 581.08 843.58 576.91 837.35 574.62 831.76 573.39 830.22 567.77 825.82 566.55 823.31 565.54 821.76 564.88 818.2 563.6 815.6 562.68 811.19 561.13 806.45 556.25 802.99 555.06 802.61 552.87 801.92 552.14 800.86 550.81 798.73 547.38 795.77 543.13 793.56 536.09 789.51 533.04 787.84 524.71 783.03 520.92 781.09 518.28 778.61 509.63 775.77 508.15 773.72 506.05 772.45 501.33 771.4 499.78 770.82 493.78 772.16 489.1 772.48 482.69 776.38 478.23 782.35 476.9 784.54 473.94 790.98 470.6 793.53 470.04 794.17 460.63 800.18 458.86 800.59 453.7 800.88 452.4 801.17 449.93 801.89 446.83 801.67 444.55 801.38 442.83 803.74 440.88 806 439.16 810.14 436.78 814.5 435.64 815.8 434.5 816.76 427.73 818.15 426.26 822.28 426.19 823.74 427.82 830.77 430.16 833.41 430.89 836.84 432.1 840.88 432.41 843.86 432.1 847.08 432.6 850.16 433.28 852.01 433.85 856.14 433.97 858.8 430.61 863.91 429.78 864.58 426.11 867.54 423.03 868.97 418.16 871.98 412.2 874.1 409.63 875.18 407.7 878.89 406.6 881.56 404.4 884.04 402.3 885.71 400.75 887.5 398 892.35 396.61 893.59 394.59 897.68 393.03 899.13 388.51 902.19 387.13 904.66 383.03 909.28 382.49 910.33 381.05 913.16 378.83 915.52 377.25 918.2 374.56 921.91 373.56 923.52 374.2 924.68 375.29 928.78 375.95 931.07 378.76 935.56 379.07 938.41 379.22 941.33 379.38 945.74 379.47 947.96 379.5 950.7 380.05 954.38 380.38 958 379.83 962.39 379.6 969.43 379.28 981.51 377.59 987.74 373.2 992.93 364.8 998.45 356.48 1002.17 347.6 1005.6 336.31 1009.97 325.44 1015.74 314.93 1020.97 303.63 1030.09 297.11 1038.98 293.99 1048.48 290.88 1052.5 278.86 1057.29 266.22 1059.22 251.4 1059.1 242.75 1058.71 229.05 1056.57 219.48 1052.18 211.41 1049.16 202 1046.86 197.43 1047.64 195.24 1049.54 189.36 1062.94 182.75 1070.03 174.82 1077.06 169.8 1081.98 168.31 1083.04 166.92 1083.51 165.53 1084.74 163.39 1087.94 161.76 1089.43 160.95 1089.61 159.9 1089.9 157.51 1091 155.44 1090.67 153.74 1090.56 153.21 1090.46 152.05 1090.15 151.5 1060.04 150.26 1050.64 149.25 1046.07 147.45 1042.79 145.76 1041.48 143.88 1038.52 141.18 1036.71 140.4 1035.4 139.86 1033.17 139.3 1031.67 137.88 1030 136.1 1029.12 134.85 1027.4 134.39 1026.25 134.16 1025.07 132.44 1023.22 99.39 988.17 92.59 984.21 91.03 983.52 63.75 978.46 51.31 974.4 44.13 972.59 32.32 968.98 27.18 967.22 21.72 966.4 20.63 965.84 19.37 964.93 17.76 964.52 15.21 962.02 14.37 961.54 14.34 960.29 13.56 959.54 12.2 958.48 10.73 957.59 9.91 957.5 8.55 957.72 7.43 957.53 5.44 954.87 4.64 954.02 3.52 953.88 2.16 953.88 1.78 953.23 1.45 950.45 1.45 949.6 2.89 948.71 3.83 947.83 3 947.11 1.09 946.13 1 944.92 2.36 944.14 3.38 943.94 4.97 943.36 5.46 941.93 7.58 939.22 10.57 934.96 10.91 933.3 10.87 930.84 13.57 926.46 15.79 923.56 16.51 922.35 15.87 920.31 15.87 919.22 16.59 917.65 15.79 916.69 15.89 914.3 16.04 911.53 15.14 910.02 15.95 907.47 19.47 905.28 24.22 904.18 24.53 902.68 25.3 899.72 26.3 896.5 27.63 893.18 29.65 890.58 30.59 889.36 33.12 886.21 34.72 883.78 35.07 880.21 35.79 877.44 37.8 875.5 38.45 874.24 40.8 873.46 42.11 872.33 44.35 869.38 46.3 865.86 47.48 863.18 48.45 860.25 49.07 859.22 49.48 856.95 50.13 855.24 50.71 854.35 52.31 853.29 53.36 852.58 53.34 851.27 53.87 850.22 54.75 849.25 55.49 847.73 55.27 846.59 56.66 844.23 57.87 840.95 57.79 839.09 58.02 833.42 58.6 832.56 58.67 831.11 58.87 828.41 58.74 826.33 58.74 822.42 60.14 819.11 61.06 818 63.64 815.94 63.53 814.7 63.89 813.84 65.11 812.65 65.11 811.07 66.3 809.39 67.3 808.27 68.72 805.3 68.71 803.4 68.93 801.23 70.1 799.22 70.19 797.94 70.62 796.22 71.3 795.4 71.87 794.61 71.74 793.62 72.23 793.04 73.02 792.53 75.21 792.45 75.79 790.7 75.56 789.85 74.87 788.21 74.79 787.28 75.15 786.14 75.6 785.26 74.96 782.92 74.56 782.17 74.42 781.56 74.51 780.67 74.43 779.42 74.17 778.43 74.85 777.31 76.62 776.95 82.28 774.97 83.91 773.32 84.86 770.57 84.74 767 85.44 761.04 85.3 754.97 85.3 751.25 84.71 748.44 84.35 746.42 82.41 742.63 79.98 738.68 78.43 735.69 76.6 731.9 76.01 729.21 76.04 725.12 75.95 721.58 74.88 719.31 74.56 714.91 74.38 713.53 74.42 710.68 74.13 708.34 74.59 707 74.2 703.26 74.15 701.72 74.12 698.35 73.95 695.4 74.07 693.13 73.32 690.5 72.93 689 73.32 687.07 73.65 685.39 73.31 683.86 73.02 681.81 72.88 681.11 72.68 680.05 72.37 678.47 72.54 676.75 72.3 676.1 71.96 672.08 72.26 668.74 72.53 667.33 72.53 666.03 72.5 663.17 72.38 661.72 71.92 659.45 71.16 658.06 70.14 654.22 69.03 652.05 67.66 649.83 66.62 646.65 65.7 644.95 65.25 642.86 64.45 641.33 63.9 639.47 63.84 637.35 63.56 635.58 61.37 631.87 60.23 629.77 58.48 628.97 57.51 628.22 56.62 627.41 55.85 627.12 32.76 617.18 41.25 595.45 60.62 558.25 79.04 531.47 112.76 505.24 112.05 483.97 109.95 462.87 95.99 432.81 106.25 399.07 107.31 351.74 107.27 350.23 110.05 348.88 113.96 347.07 116.52 345.86 120.53 344.29 128.33 342 134.41 339.67 149.51 334.14 152.63 337.59 154.89 342.11 156.31 343.04 164.31 337.95 166.16 337.34 168.52 334.87 171.02 332.12 170.97 329.47 172.48 327.35 176.33 326.01 177.46 321.17 177.81 318.61 176.23 314.42 170.79 310.1 167.44 306.6 166.23 305.12 166.26 302.5 166.23 301.11 165.38 293.66 164.9 289.78 165.85 288.3 165.97 287.19 165.9 284.17 163.36 281.68 156.85 271.75 154.81 269.11 154.31 264.6 154.15 262.67 155.15 258.81 155.46 253.44 151.76 249.31 149.26 245.61 143.95 241.7 143.8 237.81 144.76 231.21 148.96 224.96 149.56 222.4 150.03 217.85 151.12 214.29 151.12 209.71 152.7 206.67 153.79 205.07 158.51 200.6 159.2 198.95 159.8 194.48 159.72 190.97 159.8 189.51 160.19 186.69 160.43 184.95 158.77 180.23 158.41 178.61 158.23 176.12 159.45 174.36 164.17 168.99 165.02 167.52 167.05 163.39 169.74 159.41 170.91 155.95 171.37 154.99 173.61 149.31 175.29 147.37 176.38 144.44 176.69 141.08 181.08 142.32 184.41 143.22 190.83 144.63 196.32 145.62 208.47 148.84 233.96 153.26 253.2 160.64 256.41 162.79 266.44 165.39 267.28 162.9 279.12 137.15 239.35 96.11 230.02 83.9 229.8 81.3 235.1 77.46 238.9 73 242.01 70.75 246.01 66.91 255.14 69.8 268.18 65.05 273.98 60.51 282.47 51.95 282.71 49.79 281.66 45.79 280.32 42.25 283.2 39.29 279.59 32.84 281.35 28.27 275.18 23.44 276.54 20.73 273.6 15.26 274.81 9.61 274.27 3.87 280.62 1 285.4 1.67 288.65 2.12 295.14 5.99 297.22 6.83 300.58 5.81 304.58 5.3 308.42 4.02 309.64 4 314.71 5.44 318.88 6 319.23 5.77 321.03 2.88 321.69 2.77 323.27 5.41 323.93 6.93 330.53 7.98 340.13 5.78 343.27 10.24 343.9 11.32 348.06 13.63 354.25 16.15 356.11 13.42 357.78 12.32 362.49 8.74 366.42 6.28 368.84 5.01 375.61 3.04 381.29 3.38 382.62 4.44 387.6 6.38 389.47 7.18 390.96 7.54 399.19 7.34 401.47 7.62 404.6 10.4 405.56 12.22 408.86 17.46 410.42 23.14 414.9 22.69 416.63 23.14 420.4 24.65 432.13 25.3 437.32 26.06 442.66 27.94 443.26 33.8 443.23 39.76 439.53 46.86 437.14 50.7 434.23 53.93 425.25 57.53 419.21 59.25 413.7 62.82 409.73 70.16 408.91 77.19 410.3 81.48 412.72 91.77 412.18 103.32 411.74 110.65 411.31 116.1 412.18 117.9 412.46 121.94 411.93 123.57 411.99 130.42 416.08 141 420.14 149.38 418.07 153.28 409.95 156.6 401.58 159.78 398.04 163.08 399.8 167.92 402.52 171.57 403.26 172.57 409.88 176.33 420.91 178.1 431.46 180.41 438.27 181.95 440.96 183.63 452.05 191.38 457.97 196.3 470.14 197.69 478.32 198.17 482.5 198.92 491.32 201.89 494.58 210.21 494.9 215.76 496.97 219.17 498.68 221.84 505.15 230.9 482.15 256.71 494.85 271.03 507.32 281.7 517.59 288.13 533.9 303.74 544.17 309.03 548.11 310.31 561.62 327.06 562.88 332.02 565.76 352 569.39 358.66 578.8 366.65 587.18 370.95 607.61 379.91 620.15 384.55 625.75 385.18 630.13 392.05 633.61 393.64 639.18 391.94 641.42 391.04 643.18 390.9 645.96 393.36 649.56 398.31 648.26 401.62 645.31 404.3 638.76 407.44 639.7 409.37 639.93 415.39 640.96 419.18 643.3 422.93 643.7 426.37 642.8 431.22 644.08 435.53 643.2 440.71 642.67 444.4 642.47 447.23 642.42 449.77 642.34 450.75 644.23 452.42 649.72 455.11 651.41 456.07 655.25 459.68 659.87 465.56 663.04 474.17 670.57 479.29 673.33 486.09 673.68 490.58 673.97 496.55 673.86 498.24 674.72 502.96 676.9 507.15 677.64 508.76 679.53 514.55 683.84 530.05 687.49 559.64 692.68 564.57 698.12 569.22 701.87 575.05 705.1 582.37 706.64 590.34 705.17 593.06 703.73 597.13 704.77 599.4 706.52 600.84 715.87 603.51 724.84 605.35 734.08 608.66 745.27 610.84 755.02 613.33 763.21 614.23 765.53 614.23 782.83 611.89 790.1 611.89 795.49 616.98 796.85 619.15 798.6 621.95 799 623.87 797.36 629.18 793.31 630.82 786.11 634.4 781.51 633.19 774.58 633.13 768.21 633.51 764.39 637.34 763.04 642.52 762.06 647.94 759.04 654.67 755 659.44 746.05 665.78 742.21 668.85 739.42 673.1 738.23 678.64 739.98 683.61 743.06 687.01 746.24 690.46 750.3 697.32 753.08 703.05 754.14 705.98 754.34 708.57 753.74 712.15 752.7 714.02 750.75 716.73 750.49 716.91 749.24 717.81 747.85 718.23 741.12 717.24 737.63 715.93 736.36 714.97 735.49 713.8 730.89 710.58 728.59 710.43 727.12 710.88 726.15 711.93 725.23 713.5 723.65 719.57 721.87 724.86 717.96 730.24 715.63 733.02 711.35 735.03 706.64 735.85 702.02 738.11 696.77 740.36 693.99 743.48 691.83 746.81 690.88 750.6 691.45 756.01 693.46 760.4 696.89 766.49 698.66 771.59 697.9 775.83 696.13 779.03 696.29 783.7 696.48 788.66 695.97 791.38 695.26 793.59 693.67 800.25 691.47 804.47 689.66 809.27 688.97 814.58 688.71 817.88 689.52 821.49 690.45 823.24 692.52 824.43 693.78 825.23 695.34 826.61 697.1 828.17 699.81 830.5 704.18 835.33 707.14 838.35 709.4 844.44 712.11 850.59 715.74 859.78 718.07 867.42 718.49 872.18 718.03 874.83 718.17 876.65 709.05 877 703.72 877.5 699.45 877.57 691.38 877.41 686.52 877.22 685.21 877.5 679.39 876.99 674.78 874.05 671.38 874.18 663.24 872.68 660.37 870.72 656.21 871.85 654.76 871.63 651.34 870.94 649.9 870.73 649.11 870.87 648.38 871.39 645.74 873.01 640.69 875.21 638.31 876.85 628.85 876.44 625.17 875.53 619.36 875.42 617.23 875.35 612.48 874.06 608.24 873.7 604.12 872.57 600.86 871.71 596.96 868.77 595.68 866.66 593.01 862.05 587.84 856.77 584.48 851.86 Z"/>
</g>
</svg>