<?xml version="1.0"?>
<svg xmlns="http://www.w3.org/2000/svg" version="1.2" baseProfile="tiny" fill="#f9c113" width="800" height="596" viewBox="0 0 800 596" stroke-linecap="round" stroke-linejoin="round">
<g fill="#c0392b" id="id_206">
<path d="M 150.86 270.58 151.53 260.43 150.28 252.19 145.54 236.23 145.48 227.42 153.85 212.07 152.35 208.91 151.25 201.52 137.07 187.8 130.84 183.9 119.14 179.86 112.96 177.65 103.95 175.93 99.28 173.04 87.76 165.03 83.48 158.73 74.01 149.35 69.33 146.65 67.9 137.19 59.92 124.09 54.42 120.49 79.02 95 93.32 84.76 119.17 73.33 132.37 68.95 144.93 69.64 150.18 67.16 164.54 61.95 178.84 55.14 184.88 49.83 187.52 47.51 201.21 38.7 210.19 30.86 201.79 28.62 183.91 27.77 169.95 24.86 153.73 23.66 140.47 20.03 149.81 1.19 173.52 1.68 190.81 3.72 205.48 1.68 215.87 1 229.34 4.11 244.04 6.69 252.87 8.68 266.13 19.23 269.64 22.61 249.66 23.04 250.09 29.55 252.32 36.97 247.04 47.85 239.09 65.43 238.12 67.14 235.21 74.72 229.84 79.62 237.32 80.93 243.16 80.99 243.86 83.3 249.48 84.91 258.92 84.86 263.84 85.48 270.6 85.62 272.98 81.01 273.22 74.66 274.29 70.65 276.34 53.24 277.74 43.81 283.67 30.4 288.25 31.31 291 37.52 291.49 40.02 292.8 41.74 294.3 44.33 297.29 48.09 298.76 51.44 301.55 63.66 300.15 72.05 301.83 81.56 306.53 91.81 310.01 98.03 313.59 100.32 324.68 105.44 326.64 104.95 330.3 102.34 341.73 93.18 344.97 86.66 346.43 85.08 350.89 84.67 357.22 83.12 361.77 82.76 373.78 83.23 381.69 81.73 387.47 84.02 394.07 86.06 404.79 86.09 419.67 85.68 420.31 90.29 419.76 95.9 422.63 98.49 423.34 103.13 426.09 104.35 430.3 107.5 433.32 109.22 435.77 116.96 438.18 123.28 443.68 125.14 446.09 135.12 453.7 151.61 460.06 149.29 463.57 148.75 472.43 149.02 479.79 149.87 483.8 149.51 487.46 147.85 493.57 141.82 496.6 147.96 498.34 153.38 504.97 149.89 509 157.23 513.62 162.44 519.54 166.99 525.62 171.85 532.62 175.45 537.05 180.14 538.85 183.33 535.1 185.29 527.49 191.16 520.09 198.66 512.33 205.75 507.11 211.01 503.5 216.82 508.61 220.53 513.83 222.61 518.32 224.79 526.17 231.12 533.63 237.09 536.9 239.55 541.91 242.06 545.24 242.96 546.03 239.49 552.57 237.42 556.94 235.95 565.59 233.49 572 233.6 576.22 231.96 580.59 227.41 581.78 223.53 583.61 219.61 585.23 215.02 587.34 212.76 596.78 212.98 600.45 212.19 606.53 212.19 610.35 213.06 615.48 217.83 616.64 220.18 620.68 224.9 623.36 226.15 626.6 225.36 638 221.21 641.15 217.75 652.24 217.67 666.84 219.91 672.83 220.67 682.94 220.78 694.49 216.58 698.62 212.02 704.3 207.49 714.32 201.82 721.23 198.55 739.39 194.12 739.17 200.7 739.75 203.51 746.02 216.57 753.17 221.62 758.91 225.9 761.78 230.59 761.23 234 756.1 245.49 749.5 259.68 746.72 264.97 747.33 268.57 747.09 272.15 744.73 276.79 743.3 280.17 738.59 291.25 736.82 299.41 735.02 303.62 733 309.59 730.41 315.08 727.53 321.96 726.04 327.39 722.28 331.89 720.57 336.29 719.41 347.95 718.15 355.37 718.49 362.96 716.44 369.98 715.77 377.46 716.47 383.17 717.76 388 720.17 392.37 720.6 400.4 720.78 410.56 721 419.71 723.2 426.81 727.29 431.83 735.91 436.12 746.39 440.96 751.95 443.88 760.47 445.93 771.56 450.11 786.72 454.1 792.68 456.36 796.59 457.59 797.5 459.72 799 469.72 788.58 469.58 774.59 468.87 764.63 470.67 747.27 473.32 734.25 475.07 723.96 478.6 708.93 482.26 698.14 483.9 691.79 483.83 676.36 483.65 667.34 486.41 663.13 489.39 656.28 493.3 647.6 496.63 644.37 497.53 635.38 496.82 627.68 499.09 625.12 503.33 622.83 508.71 615.25 514.12 601.47 514.31 588.91 515.1 577.12 515.6 566.7 517.76 545.68 518.17 538.22 514.89 528.02 515.43 523.31 516.77 520.26 519.01 514.09 521.66 506.51 523.44 502.41 523.63 489.09 525.02 480.32 527.18 475.37 528.61 469.94 529.64 460.92 535.41 445.74 546.62 435.47 551.16 427.25 552.82 406.35 548.78 398.75 547.9 391.41 546.29 379.96 539.84 373.97 538.34 370.58 533.77 361.78 525.02 354.08 516.85 342.28 507.34 336.57 505.81 332.48 504.42 308.28 529.97 303.76 537.95 298.71 543.56 288.11 548.07 282.64 549.93 277.91 551.32 272.25 550.36 271.49 549.65 269.47 546.32 266.97 544.43 262.32 542.19 260.7 542.19 257.04 542.55 253.22 541.4 250.87 540.8 245.34 538.14 241.52 538.14 234.28 539.51 225.32 539.57 222.76 545.77 220.68 548.64 215.18 552.71 210.99 554.74 208.55 557.93 206.81 560.01 206.99 563.59 208.09 568.1 208.06 570.43 207.82 573.35 201.13 580.41 199.48 581.2 199.02 582.98 200.82 585.9 202.04 587.35 202.87 588.58 203.6 590.14 203.57 592.85 203.54 595 192.73 593.41 168.28 592.05 160.43 588.9 156.83 587.97 147.48 588.9 144.24 577.06 137.36 566.13 135.35 562.33 128.84 556.53 124.07 555.96 106.93 556.36 103.81 555.62 99.93 553.95 89.54 549.91 86.76 547.69 74.94 546.98 60.82 551.08 55.78 553.73 47.59 558.87 37.79 566.34 34.3 568.63 30.42 574.32 17.53 569.07 8.85 564.26 7.54 561.99 1 552.7 1.65 548.29 5.77 535.61 8.52 521.29 17.66 510.63 31.1 500.98 46.2 489.48 50.38 484.39 62.18 471.77 75.01 467.45 87.54 465.03 110.49 459.68 128.02 454.98 141.22 445.25 149.38 431.54 153.38 419.44 154.73 414.2 158.82 410.84 172.68 403.62 183.37 396.21 194.86 384.64 205.19 374.86 204.88 358.01 188.72 359.54 183.16 363.28 178.82 360.17 141.36 325.39 141.7 314.44 142.34 299 146.46 281.8 150.86 270.58 Z"/>
</g>
</svg>