<?xml version="1.0"?>
<svg xmlns="http://www.w3.org/2000/svg" version="1.2" baseProfile="tiny" fill="#f9c113" width="800" height="1638" viewBox="0 0 800 1638" stroke-linecap="round" stroke-linejoin="round">
<g fill="#c0392b" id="id_2">
<path d="M 506.62 1239.9 525.09 1252.96 518.08 1266.02 518.08 1272.71 517.77 1281.63 509.48 1288.96 506.62 1306.8 508.53 1315.4 517.77 1333.56 516.81 1346.62 513.62 1355.22 513.54 1355.3 514.98 1375.29 506.77 1382.94 506.54 1393.61 501.68 1401.81 496.26 1411.29 506.14 1422.44 502.23 1434.47 507.65 1441.95 501.92 1453.1 501.68 1467.12 493.87 1479.07 494.51 1503.92 488.46 1512.28 488.85 1523.59 495.62 1530.91 489.49 1537.37 473.72 1543.9 465.52 1549.47 463.6 1562.69 461.61 1572.49 448.79 1579.82 451.98 1583.64 449.03 1588.18 432.3 1595.82 419.88 1595.43 408.09 1593.2 404.27 1591.44 399.25 1593.43 391.12 1588.26 383 1591.13 375.67 1592.8 371.13 1599.89 369.22 1607.69 366.91 1622.74 357.35 1633.81 353.45 1637 332.74 1634.13 309.17 1632.38 291.48 1617.89 284.16 1618.2 283.13 1611.08 285.09 1608.12 285.42 1604.36 284.44 1601.68 283.13 1600.34 281.83 1597.39 281.17 1593.63 278.89 1587.19 276.28 1584.23 275.95 1582.09 275.95 1579.4 273.66 1576.99 273.34 1574.03 280.85 1570.01 271.38 1567.86 274.97 1561.96 275.95 1557.13 275.95 1554.44 272.36 1551.49 270.72 1550.69 266.15 1549.61 260.27 1549.35 256.36 1548 249.17 1542.64 245.92 1536.81 247.52 1528.05 252.93 1516.74 255.48 1507.02 255.96 1492.21 251.5 1479.31 251.34 1475.64 264.24 1472.77 271.89 1463.22 277.84 1451.43 277.94 1451.48 277.85 1451.43 290.29 1434.86 291.1 1397.24 302.71 1344.71 305.14 1327.03 309.84 1309.03 324.54 1285.29 339.83 1256.78 345.09 1237.67 345.25 1205.17 341.74 1186.85 351.78 1164.07 355.28 1137.63 355.29 1137.63 362.1 1112.84 366.34 1088.63 353.02 1059.57 338.5 1046.25 311.86 1041.41 303.39 1034.75 297.94 1032.33 296.82 1012.45 310.04 993.59 307.02 974.22 286.44 946.98 267.06 942.14 256.77 942.14 242.85 933.67 205.32 938.51 190.18 939.72 160.47 946.38 128.44 891.9 127.08 884.18 114.06 880.1 111.94 865.42 94.84 854.37 101.2 847.86 101.82 832.65 109.7 826.84 117.54 829.7 125.56 824.1 130.71 815.78 130.23 800.95 135.65 800.91 135.81 793.15 130.35 793.27 135.85 778.69 136.4 767.46 138.95 757.27 144.03 755.55 144.03 747.99 177.46 747.87 191.85 741.63 208.65 716.51 208.04 709.4 190.76 693.95 184.15 676.79 189.13 668.24 187.82 657.63 210.31 623.9 209.56 598.32 202.29 586.82 185.34 588.03 178.08 574.72 174.45 567.45 184.91 555.73 208.92 546.37 212.59 533.23 188.97 523.87 174.45 512.97 141.15 511.16 104.83 480.89 70.93 450.63 52.77 419.76 43.69 414.31 25.89 413.41 4.58 391.94 1 371.35 17.09 362.91 24.62 361.32 44.53 344.91 53.29 340.45 54.8 324.52 69.11 310.8 71.37 285.1 78.8 273.88 80.62 249.06 90.3 232.11 95.75 218.19 104.83 200.03 107.4 191.86 106.76 187.06 109.46 178.46 106.97 176.65 118.05 177.77 124.85 171.32 126.35 167.01 134.77 162.61 139.04 159.15 146.65 160.27 145.73 165.14 149.54 175.99 152.65 189.19 161.07 188.91 170.65 182.36 175.61 177.59 180.34 178.15 188.41 180.96 197.64 181.42 209.29 185.82 213.56 184.32 219.44 176.84 233.63 172.06 235.7 165.89 256.81 154.94 263.5 150.92 266.73 146.14 270.88 143.9 273.88 139.5 274.69 134.07 274.11 126.4 277.69 118.83 278.38 110.5 280.34 103.58 283.34 98.81 294.76 87.4 300.07 84.88 307.57 86.93 317.83 90.49 323.71 90.86 337.44 87.87 345.98 78.52 347.82 75.06 350.59 68.51 363.28 62.72 371.24 61.5 379.89 57.76 383.81 52.9 383.7 46.17 387.04 41.59 402.38 30.56 401.58 26.08 397.65 14.96 401 7.85 404.17 4.49 412.07 1 422.92 7 427.94 6.88 434.08 5.74 436.88 10.98 432.09 14.25 431.48 17.26 431.83 21.79 439.1 22.45 444.52 26.65 452.39 24.85 461.76 24.95 468.71 26.33 471.73 30.48 478.42 29.15 491.88 28.68 496.32 30.76 497.04 34.85 499.44 42.47 505.49 49.74 506.96 54.04 510.51 54.57 516.05 51.12 519.54 49.67 529.4 48.43 539.58 47.61 547.94 53.8 552.35 55.49 555.38 54.92 560.04 55.69 572.35 60.3 570.97 65.39 568.43 69.48 580.48 70.91 589.16 71.17 605.34 74.63 609.73 77.1 621.75 78.51 629.25 78.95 637.64 76.82 641.45 72.08 642.17 68.23 646.26 62.03 650.01 61.92 653.56 57.08 658.32 55.68 663.62 50 666.79 55.4 670.17 59.79 674.49 58.46 676.89 56.21 681.24 57.31 688.05 58.46 697.59 57.5 703.19 60.77 700.42 66.24 698.46 71.64 696.15 73.77 696.64 76.36 701.83 80.24 708.93 80.99 711.87 83.26 706.24 94.46 706.59 97.45 711.32 101.52 712.96 104.26 716.9 109.33 722.84 111.69 747.55 106.59 751.3 103.88 761.71 97.92 765.35 94.43 767.42 94.2 779.16 98.17 787.78 95.36 794.59 92.83 799 96.92 792.26 166.77 787.6 229.43 758.61 286.59 754.46 363.23 731.37 396.75 726.43 429.81 726.43 508.18 733.44 591.97 719.87 613.46 694.89 634.97 699.67 661.1 712.41 674.16 731.52 682.76 750.96 691.68 773.26 698.69 745.22 804.77 743.83 824.94 742.68 838.54 732.2 851.71 705.76 850.27 687.92 851.55 687.56 864.99 693.01 867.47 695.2 871.99 687.18 885.24 661.75 895.57 660.16 917.87 645.19 941.13 643.91 970.12 678.96 970.75 690.88 987.69 678.7 1000.25 658.57 1006.11 657.61 1020.77 659.84 1043.07 656.97 1050.72 652.19 1059 644.2 1064.41 632.09 1066.23 624.7 1082.45 620.33 1098.5 600.01 1109.21 595.77 1112.23 582.45 1111.02 566.49 1118.25 561.87 1120.71 550.97 1124.34 553.75 1132.27 546.13 1148.55 530.39 1158.24 527.94 1171.46 526.99 1181.33 500.73 1183.05 496.46 1188.89 496.41 1188.87 496.48 1188.9 493.87 1221.74 506.62 1239.9 Z"/>
</g>
</svg>