<?xml version="1.0"?>
<svg xmlns="http://www.w3.org/2000/svg" version="1.2" baseProfile="tiny" fill="#f9c113" width="800" height="612" viewBox="0 0 800 612" stroke-linecap="round" stroke-linejoin="round">
<g fill="#c0392b" id="id_257">
<path d="M 688.98 379.31 690.75 379.07 695.94 379.8 711.41 375.01 709.28 357.74 723.15 305.52 722.08 264.86 713.55 255.78 707.68 240.5 683.14 200.42 686.87 188.03 708.21 175.64 727.84 171.49 726.62 182.03 727.49 187.18 729.5 199.16 731.87 212.5 737.27 228.08 743.09 236.55 749.73 246.58 755.27 255.65 760.91 266.51 766.56 279.96 772.95 290.03 775.07 293.38 778.16 302.05 783.9 309.66 789.58 312.82 795.12 321.67 796.98 327.01 797.12 332.23 797.13 332.75 796.77 349.01 793.24 360.61 798.03 370.94 798.76 378.19 799 385.5 787.42 394.51 781.09 403.71 774.43 416.49 771.52 423.96 769.25 433.76 769.19 434.02 768.99 434.89 766.32 437.7 763.92 439.58 762.22 440.79 759.99 442.18 758.71 443.4 757.32 445.1 756.58 446.57 755.85 448.32 753.74 451.98 752.76 453.46 749.44 456.54 745.62 458.99 743.73 459.67 741.5 461.17 739.49 464.28 738.51 467.93 737.83 469.46 736.35 470.97 733.38 473.4 732.32 478.05 731.34 484.37 732.84 490.26 726.7 497.78 729.45 502.24 725.09 507.72 722.43 512.51 720.13 516.31 720.14 517.45 718.88 520.78 717.83 522.08 715.54 524.55 713.68 525.39 710.66 526.76 708.96 527.9 705.51 530.6 703.93 530.85 701.34 532.08 700.17 533.33 699.46 535.31 698.83 537.64 698.19 539.59 696.85 542.16 695.76 543.93 695.54 545.33 695.05 547.45 694.84 550.21 694.65 551.56 696.54 553.8 696.69 555.16 695.91 556.89 694.44 558.24 693.94 558.71 690.53 561.03 688.7 563.69 686.22 567.34 684.17 570.97 682.13 572.52 678.49 574.54 676.5 576.91 676.26 577.1 674.17 578.7 668.61 579.01 665.85 579.07 663.04 579.13 660.65 579.51 658.19 580.53 654.82 581.84 651.23 584.84 648.71 588.57 642.43 588.8 640.19 589.72 637.79 590.75 636.75 593.19 633.83 596.16 631.71 597.85 628.96 599.52 628.17 599.91 626.11 600.95 625.23 601.79 624.82 602.18 624.33 603.48 623.91 604.6 622.54 606.15 618.98 609.33 618.96 609.76 618.71 610.17 618.25 610.47 617.56 610.56 617.03 610.39 616.37 609.79 615.1 610.18 612.09 611 598.73 608.79 594.63 606.85 604.38 601.03 614.47 597.23 616.61 595.21 620.55 594.44 620.29 588.78 620.63 582.88 620.38 562.42 623.46 555.69 628.42 552.98 629.87 545.39 631.58 543.37 615.84 521.98 586.67 500.87 583.33 497.54 582.22 494.76 581.79 491.44 583.85 488.89 581.28 487.19 574.69 489.12 570.16 487.81 553.9 480.16 542.35 475.53 529.52 473.71 511.04 473.71 487.09 478.04 459.71 483.6 445.17 485.95 442.09 485.34 438.67 486.03 435.76 486.07 422.76 484.33 417.88 484.49 412.23 485.64 406.67 489.89 405.22 490.43 403.68 492.06 400.94 493.29 395.12 493.6 385.97 496.54 378.19 497.39 375.04 499.06 369.55 500.25 338.77 494.27 336.1 493.68 333.81 493.65 329.61 493.19 326.19 493.26 322.75 493.45 320.01 494.68 317.36 494.53 312.65 492.98 301.19 493.99 294.09 493.68 283.46 494.11 282.69 485.25 279.23 479.95 278.72 448.54 268.91 440.91 264.57 436.19 260.34 437.51 231.2 447.11 167.28 452.2 138.18 457.08 90.01 463.23 83.42 471.48 73.56 476.22 61.12 473.76 50.62 468.68 22.06 467.08 20.35 466.48 16.31 465.12 10.28 463.96 6.68 465.57 1 461.6 3.19 452.36 13.18 435.29 25.04 430.27 31.27 431.11 43.52 433.96 52.69 431.86 55.37 423.87 46.17 422.24 40.7 419.28 40.86 407.4 50.54 396.98 48.59 385.96 51.35 379.67 58.48 374.39 62.4 364.81 64.92 361.77 67.32 352.04 71.25 341.94 76.54 340.37 82.87 340.78 92.6 337.87 98.03 332.34 99.32 319.6 97.16 307.28 72.11 288.4 63.78 282.56 62.29 277.34 65.79 269.99 72.36 266.63 77.7 263.9 91.85 260.74 112.75 258.7 142.17 264.7 158.41 264.17 197.53 263.55 205.75 260.61 208.21 254.69 205.3 244.06 207.85 236.62 227.91 223.55 241.6 213.28 249.39 209.39 251.85 205.41 254.23 201.56 266.43 194.67 272.78 184.22 281.46 175.27 285.69 164.44 305.96 147.75 309.77 135.56 310.63 132.46 303.95 125.11 312.42 117.1 318.76 103.39 332.23 82.97 340.36 76.14 342.7 70.79 346.04 69.2 344.59 66.63 351.38 62.67 353.98 56.22 358.51 52.37 362.63 46.24 359.62 34.77 364.05 33.28 363.74 29.53 368.09 26.76 367.95 21.79 372.63 9.22 377.4 6.54 379.33 8.67 382.34 5.81 388.13 3.54 391.19 1 397.12 6.24 406.05 11.93 416.68 12.34 419.14 13.58 417.56 20.62 419.98 23.24 421.57 28.14 416.12 53.97 417.09 63.1 424.13 70.04 434.51 71.97 434.81 73.96 435.01 75.29 434.77 79.03 439.31 82.67 454.47 84.32 457.75 89.51 444.31 102.09 440.45 111.13 443.13 115.9 460.65 127.65 474.08 131.75 478.14 135.15 478.1 152.2 480.06 165.04 481.94 172.19 480.97 184.53 481.32 194.17 504.67 218 509.23 232.47 516.6 233.35 529.5 222.84 540.17 227.13 555.64 222.36 573.25 228.09 577.58 226.57 585.52 223.79 599.39 231.43 607.92 228.09 626.06 220.93 635.66 244.8 656.47 278.25 657 291.16 681.01 343.35 682.61 365.41 683.12 376.46 683.24 379.1 685.89 380.1 688.98 379.31 Z"/>
</g>
</svg>