<?xml version="1.0"?>
<svg xmlns="http://www.w3.org/2000/svg" version="1.2" baseProfile="tiny" fill="#f9c113" width="800" height="683" viewBox="0 0 800 683" stroke-linecap="round" stroke-linejoin="round">
<g fill="#c0392b" id="id_205">
<path d="M 790.47 202.59 792.93 208.61 793.95 214.95 793.22 227.71 798.05 236.21 799 245.29 798.08 252.39 797.56 259.6 797.36 265.45 796.74 283.94 791.42 310.85 785.44 321.95 773.6 334.34 767.46 341.68 764.14 344.66 756.43 352.67 743.2 371.14 735.98 376.26 727.81 380.17 716.61 383.97 711.46 387.95 707.1 388.86 697.74 389.32 693.34 391.11 690.16 395.81 682.45 409.2 681.52 413.37 680.08 419.79 679.56 426.75 678.28 431.28 670.43 443.85 664.56 453.5 661.7 461.81 655.6 472.05 651.66 479.06 650.8 480.73 646.08 489.95 642.57 498.4 635.31 506.71 632.13 513.84 620.15 522.94 615.42 529.2 605.64 541.41 604.43 553.67 602.82 564.64 602.16 570.84 602.33 577.72 599.37 586.47 595.83 597.21 592.94 608.92 591.03 612.9 589.82 614.1 590.12 618.43 588.54 620.25 588.08 629.59 568.57 634.33 561.15 637.85 550.39 643.94 544.28 648.8 539.85 653.69 527.44 658.2 516.58 658.08 510.15 657.26 494.46 654.86 482.54 654.95 479.16 658.66 466.92 663.11 463.44 663.96 460.55 662.62 456.22 657.55 454.97 655.03 449.46 649.91 445.35 648.97 438.82 648.97 434.88 649.82 424.74 649.59 422.48 652.02 420.74 656.94 418.77 661.15 417.49 665.31 412.79 670.2 408.26 671.96 401.37 671.84 392.08 674.48 387.39 676.06 380.36 678.28 379.51 682 375.93 681.03 370.55 678.34 367.04 675.7 359.03 669.29 350.59 662.5 345.77 660.16 340.16 657.93 334.68 653.95 338.55 647.71 344.16 642.06 352.5 634.45 360.44 626.4 368.61 620.11 372.65 618 370.72 614.57 365.96 609.54 358.44 605.68 351.91 600.47 345.54 595.58 340.58 589.99 336.25 582.12 329.13 585.86 327.26 580.04 324.01 573.45 317.44 579.92 313.5 581.71 309.21 582.09 301.29 581.18 291.78 580.89 288 581.47 281.17 583.96 273 566.25 270.41 555.54 264.5 553.55 261.91 546.77 259.28 538.46 256.03 536.61 251.51 533.24 248.56 531.92 247.8 526.95 244.72 524.17 245.31 518.14 244.62 513.2 228.63 513.63 217.11 513.61 210.02 511.41 203.82 508.95 195.32 510.56 182.42 510.07 177.53 510.45 170.73 512.11 165.94 512.55 164.36 514.25 160.89 521.24 148.61 531.07 144.67 533.88 142.57 534.41 130.66 528.91 126.82 526.45 123.07 519.78 118.02 508.78 116.21 498.57 117.72 489.56 114.72 476.45 113.15 472.85 109.93 468.82 108.32 466.04 106.91 464.19 106.39 461.5 103.43 454.84 98.52 453.87 112.11 441.91 120.28 432.23 121.59 418.16 108.17 408.05 98.62 398.11 82.47 393.11 69.76 389.69 65.04 387.58 48.66 385.15 41.96 383.54 28.21 384.8 18.4 385.85 13.8 382.99 12.23 380.15 11.54 373.02 13.77 361.65 11.57 358.23 2.9 351.85 1.89 349.78 1.33 346.44 1 341.3 1.07 336.42 4.12 332.24 8.84 328.35 12.95 327.56 21.35 326.89 29.95 326.8 34.48 328.06 39.14 329.05 53.78 330.43 61.33 332.06 71.11 334.4 75.61 334.46 80.14 335.57 90.08 337.7 96.65 339.02 101.54 338.44 102.29 337.03 101.31 332.94 102.13 329.43 105.11 325.84 109.64 322.54 112.11 320.35 114.11 319.38 119.52 318.53 127.38 321.54 150.23 320.14 171.84 319.49 178.6 319.95 180.44 317.76 182.77 310.08 179.98 307.48 163.5 300.43 154.83 291.64 149.91 287.46 152.11 268.71 151.52 259.24 157.1 248.99 189.3 228.57 196.49 225.53 207.91 221.68 213.59 220.39 220.58 220.48 223.5 222.12 225.6 225.91 226.81 231.2 233.05 237.39 238.6 238.47 245.82 239.47 253.17 239.03 262.46 237.95 267.25 234.97 275.85 225.1 277.92 220.28 278.41 213.23 276.9 204.68 273.46 196.24 262.39 185.84 260.23 181.08 253.33 168.67 246.28 161.78 238.89 161.23 233.12 161.26 234.84 149.64 241.96 137.67 241.37 126.34 242.45 110.2 238.15 93.22 241.3 87.09 253.51 80.03 248.98 70.78 246.46 62.26 248.43 54.44 248.79 51.08 245.67 40.05 251.48 39.18 262.44 39.41 264.18 40.78 270.84 44.9 279.51 46.06 299.76 45.16 305.64 45.36 314.4 44.63 326.25 34.34 345.12 17.33 356.55 9.8 381.53 1 394.53 1.32 405.76 5 421.37 7.13 431.02 8.06 435.95 9.67 448.91 19.15 450.06 19.5 451.8 21.3 452.36 21.8 455.94 22.15 460.53 22.3 470.48 27.63 494.14 35.45 500.02 38.84 503.33 41.32 507.73 42.51 512.29 42.63 517.25 42.89 520.17 42.16 530.48 38.66 536.81 34.23 539.57 32.68 546.56 32.1 556.11 32.3 571.96 36.85 582.17 37.82 589.95 37.06 593.56 36.18 599.77 38.54 604.75 43.33 612.99 49.69 620.28 58.62 618.47 68.36 623.82 72.27 632.59 79.83 637.48 85.23 645.42 97.34 650.51 102.21 656.65 106.15 669.78 112.14 680.8 115.29 686.88 116.25 693.34 119.9 704.63 126.73 717.37 134.47 732.99 139.87 742.94 143.89 746.16 145.91 755.87 151.89 757.77 158.35 763.78 163.9 767.26 165.59 776.52 173.13 782.03 180.66 782.65 182.74 787.64 195.58 790.47 202.59 Z"/>
</g>
</svg>