<?xml version="1.0"?>
<svg xmlns="http://www.w3.org/2000/svg" version="1.2" baseProfile="tiny" fill="#f9c113" width="800" height="1116" viewBox="0 0 800 1116" stroke-linecap="round" stroke-linejoin="round">
<g fill="#c0392b" id="id_246">
<path d="M 666.29 632.36 682.13 639.79 680.49 655.14 695.23 638.3 712.71 634.83 731.83 639.29 734.56 654.15 765.14 652.17 750.39 669.01 735.1 674.46 758.04 701.7 799 720.02 752.03 771.54 733.46 802.25 729.09 819.09 715.99 829.99 708.34 829.99 697.97 820.08 684.31 827.51 707.8 859.71 738.38 856.24 738.38 885.46 743.29 908.25 753.87 927.1 728.28 948.03 715.85 967.83 687.64 1021.2 670.06 1012.39 670.97 1028.07 669.75 1036.05 670.06 1057.23 658.23 1115 528.5 1078.06 529.41 1071.73 514.85 1057.7 509.09 1046.42 515.46 1028.54 506.66 1015.61 481.79 996.63 470.27 982.33 457.54 977.65 415.99 975.45 398.7 970.5 385.66 951.24 415.38 923.46 439.04 909.98 446.92 900.91 444.5 888.81 447.53 881.1 463.3 873.68 489.07 862.68 498.47 854.15 478.76 824.44 466.94 812.89 446.01 789.79 436 786.21 409.62 776.59 416.29 762.83 412.35 758.16 384.45 742.21 364.44 743.58 353.52 741.38 337.75 738.63 313.19 740.01 288.32 738.08 256.17 741.38 232.52 741.93 215.84 741.66 180.06 754.31 147.91 766.41 102.12 770.26 73.01 762.01 51.18 728.18 59.97 720.75 59.97 711.95 1 605.82 65.34 576.5 93.69 563.08 228.64 500.66 178.6 421.18 118.56 346.12 208.93 297.17 302.63 243.28 360.85 218.26 359.04 207.82 341.75 184.45 334.14 174.03 429.81 176.52 482.51 172.06 501.08 134.18 484.7 110.17 501.08 89.13 517.19 77.74 515.83 43.08 557.34 22.78 564.43 4.47 582.18 1 581.64 31.7 610.31 34.17 613.04 55.46 646.08 55.21 672.84 65.36 688.41 61.9 709.98 114.38 696.87 129.73 699.06 188.4 692.5 231.23 697.69 255 693.87 324.57 701.79 363.2 692.78 373.84 703.97 398.6 726.36 411.23 782.07 480.56 783.16 497.15 777.7 509.04 768.14 528.35 718.17 504.58 672.84 483.78 665.47 504.09 683.22 516.22 678.3 528.11 690.32 539.5 683.22 547.42 664.38 541.23 665.74 570.2 678.85 573.67 667.11 589.27 666.56 589.02 673.12 616.01 660.28 626.17 666.29 632.36 Z"/>
</g>
</svg>