<?xml version="1.0"?>
<svg xmlns="http://www.w3.org/2000/svg" version="1.2" baseProfile="tiny" fill="#f9c113" width="800" height="759" viewBox="0 0 800 759" stroke-linecap="round" stroke-linejoin="round">
<g fill="#c0392b" id="id_249">
<path d="M 504.18 137.33 513.68 137.33 532.69 128.72 552.22 98.28 589.86 119.97 629.24 148.67 665.72 187.68 667.65 193.28 661.28 195.73 633.1 236.85 594.88 362.48 587.93 385.23 589.48 403.08 628.85 406.93 627.69 428.98 674.4 437.73 670.54 463.98 693.7 472.38 692.55 484.63 680.58 497.57 687.91 504.92 691.39 540.62 745.82 531.52 784.81 539.57 793.3 545.52 799 548.6 788.61 555.16 753.03 569.93 681 586.65 638.13 600.64 604.27 616.57 534.82 650.78 491.09 669.05 481.64 669.81 467.08 670.99 441.79 670.99 415.21 667.49 397.2 665.94 371.91 669.83 349.62 681.88 306.75 708.7 283.6 723.86 263.87 726.19 196.14 741.74 159.62 758 159.62 746.73 154.47 719.13 127.04 705.52 105.17 681.03 78.17 642.17 59.3 622.73 59.3 602.52 64.88 564.04 65.73 502.24 69.59 484.36 64.88 440.83 41.73 417.9 19.86 395.74 1 356.49 1 344.83 6.14 327.73 10 311.02 11.72 285.76 10.43 262.44 6.14 209.98 155.77 166.04 136.76 145.94 117.76 131.59 114.59 120.1 101.92 100.01 89.25 71.29 92.42 45.45 116.2 1 186.07 21.12 228.34 53.84 263.66 70.98 260.19 83.05 261.35 116.12 340.29 137.99 409.01 153.57 480.94 164.31 489.93 145.94 504.18 137.33 Z"/>
</g>
</svg>