<?xml version="1.0"?>
<svg xmlns="http://www.w3.org/2000/svg" version="1.2" baseProfile="tiny" fill="#f9c113" width="800" height="805" viewBox="0 0 800 805" stroke-linecap="round" stroke-linejoin="round">
<g fill="#c0392b" id="id_224">
<path d="M 324.2 323.04 323.96 319.67 322.79 317.77 320.47 315.82 316.24 315.43 310.28 311.5 308.68 310.33 308.92 307.95 308.27 301.62 305.36 291.44 303.89 284.23 300.85 278.95 298.83 277.94 298.59 276.52 300.03 272.11 307.37 268.01 311.88 266.78 322.43 264.74 332.45 264.69 338.18 264.82 342.76 265.61 347.56 264.46 349.08 259.43 348.53 257.68 347.64 254.81 340.33 245.49 338.24 243.08 335.84 239.65 334.15 237.6 328.59 232.52 322.94 228.01 316.16 224.79 311.49 222.8 308.24 218.53 308.28 212.58 309.09 204.38 310.25 198.69 313.07 193.23 318.7 187.08 321.25 185.03 327.75 183.39 334.41 178.82 333.04 171.37 331.84 165.25 333.49 153.77 336.63 149.54 339.4 147.96 344.09 146.45 353.73 145.28 359.93 143.95 365.31 142.66 366.73 141.35 367.55 138.55 367.39 133.92 363.99 130.7 361.37 129.66 354.28 127.08 350.18 122.72 346.93 117.5 346.45 114.46 347.67 110.54 350.34 105.36 353.81 99.82 356.56 93.34 361.04 85.48 362.81 80.71 364 77.41 365.49 74.68 367.98 71.07 370.6 70.25 372.98 70.49 376 72.6 381.03 75.49 383.65 77.37 390.3 80.69 395.11 83.38 400.16 85.12 402.83 85.34 405.37 84.47 405.84 83.04 405.45 81.86 403.47 79.98 402.07 78.97 400.34 77.23 400.43 74.95 400.35 72.48 400.85 70.25 400.27 63.31 399.67 56.98 398.85 43.58 399.67 39.42 402.09 34.57 406.13 28.32 410.78 21.29 414.83 16.13 421.96 10.66 426.64 5.66 430.06 1.67 436.14 1 441.7 1.16 447.87 4.46 458.76 12.07 463.6 16.77 465.57 20.21 468.32 23.62 471.44 25.93 474.35 26.23 477.94 23.54 479.18 21.19 488.22 22.2 488.6 22.68 491.67 26.03 492.17 30.63 498.27 33.14 505.72 34.9 508.92 33.09 507.82 30.1 507.3 28.69 508.36 27.84 508.36 25.65 515.41 29.31 520.32 32.47 522.45 33.37 526.79 35.22 528.29 38.7 528.93 42.1 528.26 43.09 526.31 44.37 524.7 45.57 521.16 45.64 518.36 45.25 514.09 43.03 511.48 45.24 509.31 44.91 509.43 46.81 502.62 50.17 494.97 52.72 490.49 60.2 490.18 61.47 490.59 65.02 491.67 67.06 495.24 70.9 498.75 76.4 501.64 82.99 506.28 87.32 509.7 91.34 512.2 95.18 513.38 96.45 515.46 98.53 517.28 99.42 518.41 100.29 519.19 101.28 520.92 103.5 520.94 103.61 522.08 106.78 524.18 106.67 525.9 106.17 526.08 105.6 525.72 101.75 526.72 101.07 528.27 100.15 533.82 102.47 536.87 104.5 547.73 115.66 566.61 132.5 567.91 136.51 566.44 138.03 562.79 140.8 559.94 142.64 558.41 144.57 557.06 146.27 556.5 147.48 556.56 148.9 556.87 151.05 557.34 152.92 557.85 154.1 555.39 158.15 555.35 159.28 556.28 160.57 557.6 162.08 558.82 163.46 559.34 164.16 559.37 165.41 559.12 167.02 559.11 168.16 559.11 168.98 559.54 169.77 559.79 170.72 560.81 171.77 560.2 173.48 559.15 174.26 558.66 175.14 557.42 177.12 557.11 177.64 558.42 180.07 558.45 180.98 558.32 181.49 558.37 183.21 559.32 184 560.58 186.77 560.32 188.05 560.68 190.25 560.2 190.88 559.25 191.94 559.94 193.3 560.57 195.76 560.63 197.03 559.84 200.67 557.85 202.23 557.04 202.51 555.68 202.5 555.65 200.48 555.47 199.84 554.9 199.71 554.46 200.05 553.61 200.43 552.26 203.24 551.31 203.9 549.65 204.86 549.39 205.47 549.55 207.07 549.57 207.54 549.83 207.74 550.58 207.62 551.56 207.16 552.14 207.16 552.35 207.68 552.9 208.85 553.65 209.44 556.08 210.85 559.45 212.47 563.66 213.45 565.17 214.62 567.22 215.99 568.35 217.29 568.59 218.2 568.38 219.65 567.8 220.74 566.73 221.3 566.05 221.92 564.95 223.33 564.44 224.53 564.17 225.34 561.81 229.01 560.48 229.29 559.15 229.29 558.24 229.29 557.1 229.29 555.83 229.64 555.88 232.13 555.53 233.38 553.54 237.26 551.98 242.93 551.51 244.32 551.01 249.09 550.68 250.27 550.57 254.12 550.43 254.94 550.34 259.19 550.38 262.32 549.36 267.69 549.56 272.57 547.84 282.66 547.82 284.5 551.03 288.67 552.6 291.75 554.27 291.26 556.54 291.46 556.38 293.09 554.97 298.82 554.67 302.3 554.3 303.92 554.1 307.85 554.14 309.34 554.19 311.69 554.19 312.9 554.9 314.81 557.87 318.38 556.51 319.98 556.33 322.14 557.2 326.32 557.14 337.42 558.05 341.33 558.04 343.1 556.84 350.47 556.6 353.55 556.62 355.49 556.41 362.4 556.7 365.13 560.78 365.66 568.36 361.82 573.21 360.31 577.71 361.13 575.75 365.77 574.15 368.7 570.09 372.65 567.82 375.31 568.97 377.3 577.76 376.04 579.68 384.88 588.81 385.44 597.13 385.51 597.09 388.26 622.72 387.92 623.95 384.28 646.12 385.1 648.38 384.12 652.28 384.87 663.01 384.2 663.2 383.05 672.5 383.28 680.53 383.23 692.83 383.62 706.04 382.18 740.73 378.15 787.36 377.26 791.88 397.53 796.14 422.78 796.14 422.79 796.46 425.27 796.79 427.74 798.31 430.97 798.48 433.5 799 441.11 798.71 447.55 798.56 450.77 798.13 456.38 797.48 464.93 796.62 476.71 796.37 487.72 796.11 498.53 795.88 508.35 795.23 520.79 794.6 532.93 794.05 543.38 793.51 553.82 792.81 563.68 792.06 574.31 791.69 578.67 791.52 581.73 791.34 584.79 790.98 590.77 790.61 596.62 790.2 602.61 789.99 605.61 789.84 608.92 789.69 612.23 789.54 615.55 789.3 617.36 789.05 619.25 786.14 619.26 779.75 619.28 776.55 619.29 773.35 619.3 770.16 619.31 766.97 619.32 763.78 619.33 757.4 619.35 754.2 619.36 745.89 619.4 740.02 619.45 736.77 619.46 731.39 619.44 728.07 619.47 725.47 619.47 723.92 619.48 710.9 619.52 699.43 619.57 684.03 619.62 671.91 619.67 661.1 619.71 647.02 619.76 634.24 619.8 620.16 619.85 605.42 619.91 590.67 619.96 574.01 620.02 573.26 620.55 571.48 622.2 569.71 622.05 568.45 621.99 567.57 621.67 565.65 620.37 562.8 619.61 560.08 620.51 557.96 622.93 557.66 625.96 559.17 631.7 558.87 634.42 557.95 636.83 554.03 638.05 551.61 636.84 551.31 634.42 552.52 632.91 553.42 631.4 553.12 630.19 551.83 628.18 550.7 623.24 549.12 617.59 549.12 617.6 545.18 621.68 543.61 624.16 542.68 625.65 542.64 626.13 542.39 629.03 543.05 633.63 544.67 633.82 545.71 634.86 546.16 636.24 545.42 638.53 543.74 639.87 542.65 640.53 542.65 640.61 541.84 644.65 540.13 648.23 535.69 652.67 532.43 654.54 531.36 654.64 530.43 655.1 526.73 654.43 524.03 652.58 521.17 650.73 518.82 648.54 517.64 645.85 516.46 642.99 515.79 639.96 514.61 637.1 512.25 634.91 508.89 635.59 506.53 637.77 504.17 639.79 501.82 641.81 499.97 644.5 498.28 647.53 496.94 651.07 497.61 654.26 499.29 656.62 501.65 658.8 503.84 660.99 503.67 663.85 500.64 665.03 496.6 664.52 492.06 663.68 488.35 663.85 485.33 664.86 482.97 667.05 480.61 669.07 478.26 671.09 475.23 672.26 472.2 673.44 469.51 674.96 466.81 676.64 464.79 679.16 462.77 681.69 461.43 685.22 459.91 688.42 458.9 692.45 458.4 696.16 458.57 699.52 458.73 703.05 459.41 706.08 459.58 709.45 459.58 712.98 459.74 716.34 459.89 719.26 459.91 719.71 459.58 721.06 459.41 723.92 458.9 727.62 458.06 731.66 457.05 735.69 455.37 738.89 453.68 741.92 451.83 744.44 450.49 747.97 448.8 751.17 447.46 754.7 447.63 758.07 447.29 761.77 446.79 765.64 446.95 769.01 446.45 772.71 446.62 776.07 446.79 779.6 446.28 783.31 446.45 786.67 445.61 790.71 444.26 794.41 442.58 797.44 440.05 799.96 437.87 801.98 435.51 804 401.92 784.16 372.49 774.69 367.72 759.41 370.9 739.76 343.07 744.13 320.8 747.76 304.9 742.67 293.76 736.12 296.94 707.03 285.81 704.12 275.47 693.21 247.64 693.21 234.12 695.39 213.44 715.75 196.74 712.84 176.86 704.12 157.77 715.03 138.88 714.48 124.17 710.48 121.09 706.21 118.7 690.94 111.84 684.3 107.17 684.48 106.77 687.12 105.98 690.03 103.49 689.85 100.41 687.3 97.83 684.67 98.32 682.39 100.21 681.39 101.6 682.21 103.79 678.49 99.52 669.67 93.75 670.94 90.47 672.12 86.19 671.31 82.32 667.49 77.15 669.22 77.65 675.03 75.86 675.76 69.2 675.03 59.06 669.13 56.37 665.85 53.29 661.49 50.7 655.95 51.1 653.13 33.61 654.59 22.47 645.14 26.45 636.42 20.09 624.07 7.36 621.16 1 614.63 6.46 598.83 10.47 594.04 14.7 585.84 22.37 579.56 26.94 574.95 34.28 567.71 41.07 563.09 47.73 560.62 55.33 559.51 62.01 557.41 79.87 558.23 87.93 557.94 95.29 556.78 103.45 558.52 107.71 560.38 114.61 564.59 118.13 563.55 120 559.13 120.6 555.65 121.72 553.4 121.43 551.61 122.51 545.17 125.04 539.9 122.84 534.52 115.75 529.92 110.86 523.38 109.69 514.69 117.25 513.03 127.08 512.35 128.98 509.6 130.87 506.86 133.5 499.81 136.03 494.52 138.5 490.76 143.17 488.8 146.37 489.25 152.32 492.16 157.27 496.6 162.22 500.43 164.04 501.23 168.13 501.49 171.01 500.76 173.97 498.38 173.75 494.17 172.11 492 167.64 487.85 165.61 481.34 168.09 474.36 172.35 465.57 172.69 464.87 176.13 458 177.14 451.79 178.64 447.14 182.62 443.97 191.34 438.53 195.31 435.02 197.78 433.68 200.47 433.31 205.45 439.63 207.79 445.07 208.37 447.77 208.36 449.68 208.54 451.85 209.7 453.56 211.66 454.55 215.96 454.55 219.15 452.94 221.14 449.24 219.44 442.9 216.9 438.04 211.62 430.42 203.77 415.05 196.42 405.44 193.05 402.26 191.79 400.91 191.22 397.23 193.67 393.68 204.31 388.83 208.39 386.23 213.39 385.29 217.25 386.36 221.14 388.83 224.92 390.3 228.74 390.67 235.77 390.42 242.29 389.66 242.65 387.24 241.77 381.22 239.67 374.71 238.48 355.46 239.23 351.7 238.92 347.71 240.36 344.44 243.98 339.02 248.17 335.14 252.89 332.02 257.25 330.3 262.45 328.42 265.28 327.9 271.27 331.91 277.18 336.63 282.6 338.11 285.77 338.97 288.9 339.02 291.84 338.58 296.58 337.5 298.75 336.99 303.04 336.07 307.48 335.97 314.26 337.26 319.5 338.16 320.51 337.68 321.29 335.98 322.86 333 324.2 323.04 Z"/>
</g>
</svg>