<?xml version="1.0"?>
<svg xmlns="http://www.w3.org/2000/svg" version="1.2" baseProfile="tiny" fill="#f9c113" width="800" height="832" viewBox="0 0 800 832" stroke-linecap="round" stroke-linejoin="round">
<g fill="#c0392b" id="id_23">
<path d="M 200.96 36.48 198.29 56.29 197.4 84.18 192.95 110.6 197.4 135.56 200.96 156.85 208.08 184.75 221.27 208 247.38 233.88 290.88 249.34 315.05 268.34 350.29 272.53 373.39 285.31 383.27 284.45 387.46 268.34 403.46 264.8 412.27 251.92 423.34 260.51 443.53 257.39 468.67 258.68 475.76 262.65 501.65 262.22 508.74 263.73 522.28 275.21 522.28 313.87 519.27 324.17 522.28 348.65 517.55 367.12 513.68 379.58 502.94 385.16 493.92 386.02 484.03 395.04 469.42 394.61 456.96 387.31 451.38 386.45 434.19 403.63 428.17 413.5 431.61 419.09 439.34 425.96 444.5 420.8 456.96 414.36 465.13 425.53 466.42 441.42 461.69 452.59 446.65 459.03 446.6 459.04 437.86 468.08 441.42 475.93 433.71 482.79 430.74 486.71 430.15 494.06 433.71 498.97 436.08 500.93 436.67 505.83 433.71 508.77 431.33 512.2 430.15 517.6 432.15 525.54 432.28 525.65 437.01 525.65 442.59 529.51 465.37 529.94 471.38 525.65 484.38 525.17 498.08 541.11 498.4 564.41 492.87 574.66 494.26 588.35 487.93 595.81 489.16 605.32 503.34 629.04 524.4 644.45 527.46 644.5 542.23 635.16 554.8 625.12 560.49 614.39 560.76 571.06 579.83 553.78 597.66 553.99 607.06 562.05 615.12 562.8 627.85 549.22 643.26 525.65 660.88 509.76 662.46 504.47 670.17 501.54 686.02 511.42 695.85 520.01 698.5 536.33 699.34 556.92 685.02 572.08 649.57 574.66 627.71 578.85 601.88 590.5 598.82 595.38 600.53 601.99 613.53 616.96 614.23 639.03 628.36 653.95 634.48 654.01 646.99 643.27 655.11 643.75 671.11 636.88 675.35 629.47 717.47 629.47 727.67 634.63 735.89 635.16 751.3 618.04 768.49 620.19 779.4 631.67 781.06 656.48 776.71 666.78 781.44 674.78 799 688.85 795.99 694.32 772.84 695.72 772.36 712.04 789.98 757.13 795.56 792.78 774.13 812.48 769.16 829.28 755.63 829.39 725.23 820.37 696.76 814.14 675.27 811.78 645.84 821.12 618.66 823.59 608.03 831 577.95 831 555.17 817.69 540.56 823.27 530.68 825.42 531.97 797.93 550.88 782.9 548.73 772.59 515.64 771.3 510.92 755.84 504.47 752.41 513.92 736.09 505.33 721.06 496.31 714.19 493.73 698.29 469.66 695.29 449.47 691.42 432.71 681.55 413.8 685.41 397.48 692.28 383.3 691.85 358.37 686.27 331.73 681.98 317.55 675.1 307.24 676.82 287.9 671.67 273.72 658.35 272 644.61 275.82 639.53 258.66 616.86 236.53 585.94 219.98 535.26 198.5 482.65 183.67 440.77 183.67 440.56 161.33 425.1 139.42 390.31 96.82 391.23 83.39 391.01 77.75 386.13 64.33 386.29 53.32 381.03 48.86 376.73 40.64 371.25 40.59 354.02 35.86 350 25.82 338.88 26.3 334.27 30.27 329.38 17.27 314.89 7.12 314.67 1.7 310.54 1 290.94 5.78 286.7 6.05 264.21 10.83 257.98 10.88 257.93 12.6 231.3 19.48 183.2 54.71 177.19 35.81 151.42 34.95 138.54 26.35 123.08 25.39 121.89 37.42 107.72 83.93 80.13 117.66 68 176.75 68.64 178.79 42.01 209.62 1 200.96 36.48 Z"/>
</g>
</svg>