<?xml version="1.0"?>
<svg xmlns="http://www.w3.org/2000/svg" version="1.2" baseProfile="tiny" fill="#f9c113" width="800" height="1711" viewBox="0 0 800 1711" stroke-linecap="round" stroke-linejoin="round">
<g fill="#c0392b" id="id_248">
<path d="M 102.02 1383.05 107.92 1380.78 106.14 1375.59 72.34 1339.44 35.87 1312.85 1 1292.75 14.59 1280.43 41.05 1268.92 43.73 1248.49 69.84 1240.06 66.08 1221.58 73.77 1200.83 91.83 1195.32 101.49 1177 127.41 1169.54 128.13 1143.61 133.67 1139.71 137.43 1115.72 144.22 1103.57 158.17 1104.21 161.92 1091.08 151.73 1086.06 153.16 1073.58 168.72 1070.98 204.66 1077.31 215.74 1060.12 226.47 1034.35 249.18 1025.92 256.33 1017.33 250.79 983.94 266.52 969.19 289.23 969.35 301.21 963.84 320.34 951.68 341.8 947.95 358.6 921.37 364.68 909.38 393.65 887.98 394.37 871.77 405.45 861.08 418.68 854.92 426.55 844.87 436.92 839.36 448.36 838.06 465.53 820.88 484.84 807.91 473.75 794.62 488.06 773.88 472.32 760.91 479.83 745.68 480.19 732.71 493.78 709.05 608.36 584.15 599.08 443.21 572.67 7.13 775.75 1 785.1 22.65 798.21 63.67 799 85.98 794.23 106.49 764.05 133.13 756.9 169.83 751.34 208.34 754.12 234.25 762.07 251.89 783.51 268.8 791.06 279.24 791.85 292.2 785.1 304.43 773.19 313.43 760.87 326.75 758.09 339.7 756.11 353.74 753.73 370.66 747.77 400.17 747.37 428.6 759.29 463.88 766.83 487.27 766.43 504.19 750.55 534.42 750.15 569.7 722.76 605.29 710.84 620.81 678.67 655.73 661.99 673.73 658.02 698.93 661.59 724.48 664.37 747.16 666.75 776.32 656.43 805.12 645.71 836.08 645.71 851.2 653.25 865.6 665.96 884.68 687.41 903.76 698.52 923.92 731.49 988.72 744.59 1029.76 746.19 1038.43 749.75 1057.85 750.15 1104.29 744.99 1133.81 734.27 1165.86 718.38 1192.14 687.41 1210.87 629.42 1237.87 606.36 1250.77 592.09 1258.75 580.58 1273.52 572.63 1295.84 558.34 1358.85 552.78 1398.82 544.04 1432.31 526.96 1461.12 499.56 1479.12 446.74 1491.73 371.68 1509.73 326.81 1535.66 304.57 1562.67 289.08 1594.36 271.77 1637.52 268.43 1645.86 249.76 1686.91 233.08 1707.8 229.6 1710 224.32 1707.15 216.46 1701.64 180.34 1694.18 129.92 1702.61 126.7 1669.54 119.9 1662.73 130.99 1650.73 132.06 1639.38 110.61 1631.59 114.18 1607.27 70.91 1599.17 71.98 1578.74 35.51 1575.17 34.08 1558.63 40.52 1537.55 75.92 1421.15 102.02 1383.05 Z"/>
</g>
</svg>