<?xml version="1.0"?>
<svg xmlns="http://www.w3.org/2000/svg" version="1.2" baseProfile="tiny" fill="#f9c113" width="800" height="911" viewBox="0 0 800 911" stroke-linecap="round" stroke-linejoin="round">
<g fill="#c0392b" id="id_241">
<path d="M 385.9 63.93 405.87 56.92 407.77 62.74 424.97 102.93 456.75 86.27 464.62 100.02 506.16 86.4 536.63 74.63 574.53 58.37 558.79 32.2 614.91 1 649.31 43.83 654.27 53.61 666.56 77.91 672.39 89.42 682.88 96.95 673.99 120.22 669.18 131.46 650.81 152.61 633.9 176.02 634.05 187.39 647.02 208.41 580.84 221.63 551.98 224.15 576.32 404.79 578.66 408.89 584.63 417.62 589.73 428.73 598.48 456.51 604.31 465.1 654.31 506.24 692.36 543.41 716.27 565.77 768.82 613.26 779.32 665.25 799 689.33 775.31 704.67 674.28 766.33 629.09 826.01 529.39 910 454.6 802.26 280.84 571.52 212.47 571.65 45.45 560.84 1 502.13 50.8 474.25 57.07 449.39 33.31 396.88 29.37 352.97 34.62 312.5 36.81 304.44 43.51 298.49 54.15 294.52 107.8 301.66 127.19 304.57 144.83 297.82 186.52 280.63 192.79 275.21 202.63 250.86 206.56 240.41 199.35 232.07 165.53 197.42 146.11 175 146.85 174.94 187.87 175.96 199.03 172.86 227.9 158.57 385.9 63.93 Z"/>
</g>
</svg>