<?xml version="1.0"?>
<svg xmlns="http://www.w3.org/2000/svg" version="1.2" baseProfile="tiny" fill="#f9c113" width="800" height="769" viewBox="0 0 800 769" stroke-linecap="round" stroke-linejoin="round">
<g fill="#c0392b" id="id_239">
<path d="M 603.47 486.9 581.85 586.76 531.4 627.32 466.54 657.85 421.38 727.63 420.9 728.06 406.97 760.77 404.44 767.83 402.28 768 384.14 758.31 300.9 651.28 289.7 611.56 290.24 580.57 293.44 560.71 266.76 499.21 270.49 402.83 266.76 369.42 249.69 334.07 225.68 309.37 110.44 231.4 1 157.91 54.54 122.88 155 78.63 216.36 46.67 314.38 1 403.13 140.23 451.91 97.48 456.16 143.75 481.64 97.48 532.62 178.45 600.59 193.87 621.83 147.6 583.6 97.48 626.08 47.36 694.05 78.2 736.53 116.76 799 149.83 759.12 201.71 655.83 330.35 640.46 335.58 621.72 333.84 603.95 333.4 587.13 343 594.34 414.07 604.43 428.47 584.73 451.14 603.47 486.9 Z"/>
</g>
</svg>