<?xml version="1.0"?>
<svg xmlns="http://www.w3.org/2000/svg" version="1.2" baseProfile="tiny" fill="#f9c113" width="800" height="479" viewBox="0 0 800 479" stroke-linecap="round" stroke-linejoin="round">
<g fill="#c0392b" id="id_227">
<path d="M 20.18 389.84 20.88 359.57 26.09 325.23 36.13 283.21 34.87 241.36 28.2 201.69 21.04 159.18 1 112.48 15.31 73.24 37.28 47.02 44.65 23.69 47.28 1 52.48 4.45 55.15 5.1 62.97 3.71 64.76 4.97 66.01 4.8 67.31 4 69.22 3.02 72.63 4.67 74.56 7 76.6 7.69 77.73 8.22 83.92 10.29 85.3 10.84 88.34 12.82 90.75 13.67 92.34 15.38 95.46 17.4 95.72 18.82 95.42 20.1 97.93 22.88 101.12 25.36 103.17 26.48 105.31 26.84 107.06 29.87 108.14 32.15 110.78 32.68 113.35 34.86 114.27 35.29 116.35 35.6 117.88 37.91 120.21 38.65 122.72 36.2 124.44 35.58 127.38 35.73 128.12 37.16 129.93 36.53 133.62 36.1 134.93 37.63 138.37 36.75 141.23 36.56 143.73 36.56 144.31 38.8 145.16 42.26 146.42 41.93 148.81 41.74 149.48 43.89 150.36 47 151.48 48.9 155.05 50.54 157.18 49.53 159.07 47.94 162.77 44.96 168.41 43.39 172.5 42.87 174.34 41.99 177.79 41.61 180.2 42.4 181.2 46.86 182.88 53.05 181.96 55.53 180.81 60.05 182.87 61.36 187.64 61 188.92 57.16 191.31 47.87 199.89 40.45 202.67 38.4 208.95 38.62 212.12 40.97 219 40.36 221.95 41.47 226.41 41.74 230.89 41.51 235.68 40.99 238.41 41.58 241.63 41.38 243.91 40.63 248.88 40.2 253.08 41.14 253.93 44.58 252.78 49.14 254.58 53.27 256.83 54.78 257.73 56.2 256.33 59.28 258.49 60.68 263.39 60.48 267.18 61.51 269.46 67.39 269.25 69.05 274.59 72.26 276.17 73.84 277.43 76.45 275.21 80.57 274.97 81.29 274.06 86.47 275.69 87.09 279.85 88.42 286.06 92.74 294.01 96.53 299.65 98.59 303.38 100.56 314.07 106.2 320.88 106.31 333.55 105.47 346.59 104.48 357.85 103.08 374.02 102.99 385.73 104.25 388.32 105.25 392.39 105.25 401.22 106.67 408.1 106.68 412.19 102.69 420.42 98.51 422.96 99.03 427.46 102.36 431.93 106.7 438.65 108.51 440.92 108.5 465.55 108.2 487.67 107.85 507.61 107.57 528.33 107.19 552.09 106.58 560.95 105.96 564.62 105.7 573.68 104.35 581.14 102.73 586.51 101.39 601.4 97.75 604.75 97.21 607.7 98.22 616.11 103.28 623.17 107.41 631.04 110.38 645.48 114.47 650.95 116.34 658.2 118.65 669.88 119.14 694.41 118.9 689.04 128.16 680.04 139.45 679.05 148.55 680.85 152.53 684.89 156.24 674.32 160.23 672.11 156.57 661.28 162.68 661.88 166.33 664.17 168.6 664.52 170.48 664.56 174.49 668.5 175.34 673.03 177.21 673.53 182.25 672.91 186.67 671.46 188.38 670.47 190.68 670.57 192.33 674.96 191.45 680.09 192.24 694.91 198.8 696.91 202.32 698.02 207.53 701.28 208.8 704.34 211.18 707.65 212.88 712.04 214.58 719.89 216.2 730.21 221.74 731.62 223.86 736.86 228.06 739.02 228.94 746.86 232.2 749.75 237.55 751.54 242.3 753.1 244.05 759.02 253.07 769.19 253.25 774.58 252.73 777.7 252.72 781.68 253.02 785.48 256.73 789.2 263.42 790.37 265.99 796.33 271.59 798.19 276.14 799 280.75 798.73 284.55 797.62 287.15 792.98 292.47 790.4 294.08 785.39 294.66 781.43 294.9 777.54 294.36 774.55 293.78 771.18 290.44 770.53 287.59 769.4 285.54 767.82 284.66 764.05 284.62 760.99 285.31 754.84 287.39 750.96 289.02 733.6 300.03 730.59 305.56 730.91 310.66 729.73 320.77 732.38 323.03 737.05 327.77 745.93 331.56 747.44 332.97 746.18 337.11 745.19 338.29 741.55 338.04 729.9 338.39 717.58 339.15 713.35 337.53 710.43 337.98 709.35 338.5 708.02 339.68 705.58 341.46 703.97 343.4 703.53 345.29 704.06 347.5 703.65 348.25 701.01 348.57 697.47 347.86 692.11 346.71 689.67 346.11 687.25 346.08 681.97 344.82 677.9 343.94 670.01 343.2 667.5 342.66 665.06 341.98 660.42 342.03 655.89 342.39 653.68 342.82 651.13 344.91 649.49 347.17 649.45 349.8 649.63 352.57 649.93 354.37 650.48 355.49 655.15 358.93 656.33 360.77 655.13 366.9 655.5 370.75 656.35 372.27 658.83 373.82 664.12 373.25 671.53 372.57 675.14 373.44 683.97 374.75 686.52 375.89 693.37 377.73 702.07 380.42 707.22 385.78 714.46 391.24 713.75 398.82 709.35 404.04 702.02 410.49 698.59 418.24 697.78 423.7 696.59 433.78 695.97 436.1 695.83 439.77 694.45 442.44 690.54 442.36 687.69 442 682.22 442.03 678.97 441.1 678.56 439.76 675.18 439.73 670.84 438.97 673.96 436.13 675.64 431.75 676.21 430.75 680.81 420.58 683.87 414.29 682.57 410 682.32 406.23 693.9 405.98 691.86 404.02 684.18 397.92 687.83 393.42 682.84 390.99 655.83 381.49 641.14 373.66 645.09 353.11 645.79 347.66 646.7 339.43 645.28 331.81 639 331.97 639.55 334.96 638.99 336.55 638.23 340.16 637.69 345.34 637.23 348.13 634.54 352.4 633.01 353.99 625.89 353.57 623.63 352.34 619.82 349.91 606.66 352.84 604.13 351.9 600.59 356.94 612.59 363.83 616.2 377.18 610.16 379.62 604.91 380.61 601.83 379 596.68 377.95 594.02 377.19 588.65 374.94 583.43 374.05 580.4 373.85 575.15 376.43 574.33 377.05 570.07 381.67 565.88 383.04 563.95 382.95 561.98 382.08 560.71 380.82 552.92 376.66 548.47 374.96 530.9 367.85 528.88 368.42 520.7 371.65 517.48 372.83 512.9 374.3 509.01 377.46 505.98 380.1 504.44 380.92 500.67 382.23 497.98 382.8 490.55 385.75 485.51 387.76 478.29 391.31 479.05 392.13 479.69 394.51 476.43 399.52 474.49 400.3 470.81 402.84 466.66 405.7 469.14 412.26 470.61 415.19 473.76 419.47 474.88 423.6 475.25 426.34 477.21 429.04 471.37 428.99 467.58 428.36 457.09 422.27 454.01 419.62 452.63 415.13 453.44 413.35 454.57 409.01 455.07 406.06 454.64 405.02 453.44 404.31 446.86 404.28 443.85 403.21 440.51 399.65 435.77 395.96 434.86 393.04 432.77 385.32 432.1 382.8 422.65 381.61 412.78 380.74 411.97 378.69 403.15 378.67 402.16 378.41 404.64 375.43 405.47 373.17 405.31 369.86 405.38 364.03 403.42 362.85 403.07 358.83 400.71 355.73 381.2 359.04 380.51 357.63 377.69 357.04 374.12 357.13 370.72 355.07 367.2 351.96 364.97 348.48 363.75 345.55 359.79 348.87 352.53 352.31 344.64 354.51 346.13 358.24 345.76 359.97 342.65 360.62 343.83 363.94 344.11 365.39 344.19 366.12 340.33 367.88 340.36 369.85 341.83 372.33 341.53 374.44 341.71 379.28 341.78 380.3 339.96 382.12 331.73 386.69 331.3 382.32 329.46 377.86 328.42 373.21 328.99 370.96 332.51 364.29 334.31 352.6 331.92 349.86 320.17 349.75 320.16 354.73 318.59 373.65 317.93 378.9 315.51 381.49 312.48 372.93 309.42 367.29 295.41 366.75 283.52 365.58 238.52 367.82 229.65 367.22 229.32 364.94 219.36 361.45 203.7 361.04 193.73 361.88 190.43 361.77 181.56 361.86 177.92 360.15 167.18 358.29 161.09 359.48 159.58 361.23 153.92 360.67 153.42 361.73 153.1 364.81 152.14 368.9 153.29 372.87 154.46 378.92 153.29 382.88 151.2 386.44 150.23 390.24 147.93 392.57 149.35 397.22 148.83 399.4 151.2 403.31 151.59 406.36 153.38 410.75 154.94 414.64 154.09 416.63 153.91 420.14 154.81 424.05 157.08 428.38 156.14 433.11 153.43 447.98 156.26 454.78 156.72 459.87 155.89 464.68 153.59 466.88 149.7 465.38 147.59 463.3 142.44 459.72 135.99 461.72 131.54 466.64 129.55 468.28 125.03 469.13 121.18 470.1 118.38 469.34 107.59 469.01 102.84 469.1 96.7 472.79 93.71 476.8 92.12 478 87.63 477.09 82.96 472.94 81.19 467.18 80.04 464.61 78.53 463.11 72.87 461.34 73.68 459.45 78.05 458.36 78.92 457.68 79.77 455.19 79.56 454.35 78.6 453.31 76.29 451.75 73.93 450.05 71.74 445.53 70.82 444.02 68.06 438.58 65.53 435.27 59.64 429.48 56.91 425.49 53.27 418.16 52.77 417.07 48.63 414.31 47.99 412.29 46.72 409.83 42.81 409.77 41.29 415.7 40.77 418.68 39.38 419.14 37.55 419.04 32.81 417.65 29.47 416.04 24.48 412.62 20.69 412.09 18.47 411.2 20.18 389.84 Z"/>
</g>
</svg>