<?xml version="1.0"?>
<svg xmlns="http://www.w3.org/2000/svg" version="1.2" baseProfile="tiny" fill="#f9c113" width="800" height="472" viewBox="0 0 800 472" stroke-linecap="round" stroke-linejoin="round">
<g fill="#c0392b" id="id_238">
<path d="M 799 77.31 750.79 91.27 779.88 118.05 740.39 133.14 682.21 136.92 673.48 116.54 686.78 100.32 672.23 104.09 668.49 85.61 655.19 84.85 649.79 95.79 640.23 95.04 637.32 113.9 628.59 119.19 631.5 139.94 605.31 135.03 599.08 121.07 574.14 115.04 565.83 142.95 550.03 144.46 542.97 138.43 521.35 134.28 537.98 160.31 541.3 182.95 485.61 195.4 485.61 201.06 488.72 214.64 502.44 219.17 503.69 232.75 521.98 227.09 534.86 228.22 541.1 233.5 550.24 215.39 559.38 209.73 632.12 303.68 632.12 313.87 642.51 317.64 649.16 356.89 629.27 442.05 577.26 471 551.16 427.05 543.49 434.02 538.37 437.5 538.8 440.6 537.09 445.24 534.11 448.34 531.98 451.05 529.42 454.15 529.85 455.69 520.13 469.66 494.96 469.53 491.22 462.55 477.41 425.5 466.33 417.38 453.54 411.18 435.21 401.9 422.42 398.41 412.19 402.67 407.5 407.31 404.94 408.86 393.86 401.51 390.87 395.7 384.48 398.41 369.13 389.51 334.18 392.61 317.98 401.12 295.24 378.02 233.94 341.98 191.79 334.56 179.01 333.78 164.51 337.65 148.31 340.75 134.67 343.84 125.29 346.17 122.73 360.87 103.29 371.92 97.06 363.95 92.45 354.74 52.06 380.3 44.21 363.95 23.79 374.2 14.1 360.07 20.21 304.87 12.94 289.95 1 265.43 25.94 242.42 50.63 217.9 70.29 209.14 106.76 200.76 117.38 199.5 129.84 191.33 152.92 176.88 164.92 170.38 178.54 168.29 188.23 169.13 202.54 171.01 216.16 171.01 224 170.37 229.08 169.96 252.62 160.12 290.01 141.68 308.24 133.09 331.32 125.55 370.09 116.54 389.25 108.58 396.87 103.76 468.15 120.32 691.41 1 780.3 64.86 799 65.61 799 77.31 Z"/>
</g>
</svg>