<?xml version="1.0"?>
<svg xmlns="http://www.w3.org/2000/svg" version="1.2" baseProfile="tiny" fill="#f9c113" width="800" height="576" viewBox="0 0 800 576" stroke-linecap="round" stroke-linejoin="round">
<g fill="#c0392b" id="id_247">
<path d="M 629.76 344.79 641.44 547.46 397.63 559.95 193.2 575 182.67 473.15 153.01 480.38 120.8 477.78 108.68 490.51 98.8 497.16 92.54 492.42 98.31 476.6 101.5 447.04 99.38 428.73 91.91 420.13 77.06 403.02 82.73 377 122.84 333.55 140.19 295.32 154.01 261.26 177.74 230.42 174.2 203.11 168.53 168.41 154.01 144 113.28 124.08 85.29 119.26 1 106.09 5.61 91.95 41.38 80.06 156.13 37.98 222.01 33.48 360.15 26.61 370.41 26.09 627.82 10.66 751.43 7.13 791.62 1 792.11 18.75 797.42 32.24 797.42 56.66 785.02 91.03 788.21 118.66 794.59 142.44 799 152.67 617.89 158.14 629.76 344.79 Z"/>
</g>
</svg>