<?xml version="1.0"?>
<svg xmlns="http://www.w3.org/2000/svg" version="1.2" baseProfile="tiny" fill="#f9c113" width="800" height="1001" viewBox="0 0 800 1001" stroke-linecap="round" stroke-linejoin="round">
<g fill="#c0392b" id="id_234">
<path d="M 607.86 170.45 618.57 165.58 627.51 176.93 615 180.18 659.66 322.89 782.92 293.7 799 347.22 777.56 352.08 684.67 376.41 709.68 436.42 679.31 444.53 693.13 516.17 698.06 543 685.74 586.61 689.44 604.35 678.64 607.03 661.81 614.16 609.31 623.12 614.47 657.55 599.66 724.18 616.04 736.61 630.18 762.28 652.61 780.42 690.43 834.86 612.6 870.78 472.37 937.01 381.18 1000 350.89 962.91 334.74 882.82 253.85 809.67 217.06 775.23 158.5 717.98 81.54 654.61 72.57 641.37 59.11 598.58 51.26 581.47 42.06 568.02 38.47 561.71 1 283.45 45.42 279.58 147.28 259.21 127.31 226.82 127.09 209.31 153.11 173.26 181.38 140.67 188.79 123.36 202.47 87.52 240.27 115.09 241.5 171.54 267.37 170.42 270.44 159.8 282.14 149.74 299.7 98.29 321.14 85.32 339 95.04 367.59 88.56 385.45 78.83 374.73 56.13 421.18 36.67 453.33 39.91 464.05 36.67 506.93 26.94 539.08 4.24 567.66 1 607.86 170.45 Z"/>
</g>
</svg>