<?xml version="1.0"?>
<svg xmlns="http://www.w3.org/2000/svg" version="1.2" baseProfile="tiny" fill="#f9c113" width="800" height="619" viewBox="0 0 800 619" stroke-linecap="round" stroke-linejoin="round">
<g fill="#c0392b" id="id_263">
<path d="M 164.75 156.19 164.75 145.94 173.23 143.01 176.61 132.76 144.42 112.26 154.59 90.3 164.75 52.23 152.89 34.67 151.2 1 181.7 1 220.67 6.86 274.9 12.71 285.06 17.1 307.09 43.45 347.76 59.55 383.35 62.48 403.68 61.02 420.63 61.02 437.57 69.8 446.05 119.58 444.35 200.13 507.05 210.39 613.19 222.86 620.77 218.72 648 216.43 657.18 217.16 680.77 218.59 688.71 218.28 712.45 216.52 721.88 215.4 760.28 203.67 771.31 202.5 799 201.55 797.4 207.68 797.35 212.89 788.18 226.65 780.84 231.13 768.62 237.04 766.38 241.01 761.09 244.72 753.36 247.05 731.41 249.5 711.96 252.95 709.41 256.18 674.65 258.17 670.06 260.45 652.85 260.84 642.82 260.97 632.65 263.56 628.11 266.71 617.09 269.55 604.37 279.69 588.85 289.52 585.46 294.1 572.44 303.84 571.1 307.55 569.15 314.85 558.93 327.4 554.89 332.53 551.14 335.38 540.72 340.73 536.6 346.79 522.73 348.22 509.91 348.78 479.73 344.07 466.47 352.79 458.73 356.33 450.01 363.32 431.05 370.91 417.83 367.93 401.27 372.68 390.35 378.81 393.24 389.33 393.59 394.03 392.29 404.26 396.09 410.52 395.84 415.18 401.62 422.26 404.47 428.56 405.46 433.51 389.8 447.76 373.59 456.82 358.23 464.98 338.38 467.6 334.89 477.18 334.74 484.74 335.29 504.9 331.25 520.1 328.71 526.36 328.41 540.18 328.36 547.47 323.92 558.53 327.16 570.71 322.82 577.75 311.6 583.1 305.76 593.73 278.07 596.17 264.52 600.57 252.66 602.04 241.64 603.51 223 602.77 212.84 602.77 211.99 593.24 192.5 595.44 192.82 596.81 189.01 596.9 189.32 595.44 182.65 595.62 178.84 594.98 175.56 594.43 174.6 594.24 173.65 594.61 173.97 597.45 174.28 599.11 174.39 600.39 174.92 615.06 114.76 618 113.92 604.06 106.29 601.12 102.06 600.39 95.28 594.52 74.1 594.52 69.01 579.85 76.64 570.31 69.01 565.17 58 553.44 52.07 546.84 53.76 536.57 52.91 532.9 37.66 522.63 32.58 507.96 31.73 497.69 30.88 476.43 41.9 453.69 63.93 430.97 56.3 419.24 43.59 425.1 42.75 413.37 51.22 384.78 60.54 359.13 69.01 346.67 58.84 344.47 49.52 334.94 55.46 327.61 51.22 322.48 44.44 313.69 45.29 303.43 50.37 293.9 29.19 293.17 13.94 293.17 1 291 4.29 280.95 7.28 277.93 11.97 269.61 11.57 265.94 15.47 257.75 15.66 252.44 17.96 240.75 16.06 231.14 15.47 226.26 14.82 216.78 26.77 215.7 65.83 224.59 101.71 232.41 123.16 241.77 125.95 235.13 134.28 228.01 129.09 222.06 129.74 216.02 121.36 211.2 128.89 200.46 135.58 193.65 147.35 201.28 164.75 156.19 Z"/>
</g>
</svg>