<?xml version="1.0"?>
<svg xmlns="http://www.w3.org/2000/svg" version="1.2" baseProfile="tiny" fill="#f9c113" width="800" height="581" viewBox="0 0 800 581" stroke-linecap="round" stroke-linejoin="round">
<g fill="#c0392b" id="id_207">
<path d="M 177.99 269.31 188.07 258.76 177.99 247.47 181.35 236.93 175.46 213.59 149.4 233.16 145.2 215.1 151.92 190.26 181.35 172.19 172.94 154.13 172.94 128.55 178.83 98.46 162.85 103.73 146.04 125.54 118.97 142.32 111.32 127.97 105.73 119.32 97.93 109.75 95.83 106.85 89.1 97.7 88.58 88.91 90.58 85.39 106.27 74.33 106.62 70.65 106.54 57.86 109.41 40.44 115.01 35.55 121.58 33.23 126.21 30.49 138.68 21.66 140.96 20.07 141.58 17.75 142.17 13.11 147.32 13.17 156.05 11.84 168.23 8.88 176.57 6.02 187.11 4.61 201.17 2.46 209.24 1 220.57 1.58 229.01 1.69 243.34 1.69 250.81 2.53 264.62 5.47 273.11 6.71 281.52 7.3 295.65 7.3 308 9.36 321.64 12.1 331.83 14.07 349.06 14.76 388.17 16.83 406.1 18.47 474.58 33.88 542 51.92 591.07 64.8 636.14 77.08 706.42 84.48 719.48 91.58 736.71 107.24 749.34 119.7 764.16 143.2 774.18 152.15 779.53 172.24 789.06 198.05 794.69 222.44 799 226.27 795.83 241.27 793.9 253.06 781.05 276.01 772.76 287.22 757.54 299.04 738.86 314.41 721.44 327.71 696.99 346.77 676.99 362.43 673.9 360.72 672.09 337.72 658.18 336.67 642.29 337.67 627.32 339.45 626.13 342.53 623.66 347.96 623.39 352.09 621.53 358.03 618.02 361.65 616.73 362.47 614.72 374.76 613.02 375.52 605.79 378.6 599.85 383.21 591.66 384.57 569.09 384.97 563.65 389.18 557.21 400.59 556.52 403.32 560.48 419.65 571.09 431.63 573.97 441.02 577.55 455.25 580.05 470.3 581.81 489.2 582.35 501.88 578 508.38 573.27 517.2 567.8 526.24 564.93 531.84 562.56 534.9 558.57 536.52 555.4 533.44 552.88 526.44 547.88 516.98 543.85 512.18 539.91 508.07 536.52 503.59 532.44 506.03 529.12 510.92 524.77 516.65 517.79 520.75 513.88 524.2 509.52 528.08 507.3 529.99 502.79 530.02 496.21 528.08 492.72 526.26 485.42 526.35 476.96 525.51 479.07 531.84 473.6 538.26 467 544.95 457.22 549.15 449.62 549.59 441.04 551.37 429.31 550.86 415.69 550.41 400.87 551.19 396.96 555.94 384.71 556.59 371.32 561.56 360.48 561.54 354.94 565.27 346.48 570.03 338.12 580 336.49 576.07 336.39 571.36 333.25 563.71 330.99 559.47 329.06 557.03 318.4 555.83 308.99 557.54 301.57 557.38 294.1 556.45 280.14 556.34 277.64 544.59 277.32 529.15 276.7 516.71 277.84 509.52 269.06 504.02 257.8 498.98 254.76 494.36 252.63 490.7 247.91 488.17 238.72 484.75 225.36 480.97 220.44 481.17 214.74 487.92 208.11 489.45 203.63 488.74 195.96 486.74 188.09 483.43 176.86 478.93 164.98 477.02 156.49 477.39 148 474.95 140.13 469.51 131.05 467.45 119.09 462.39 107.54 461.13 102.69 459.91 99.62 458.91 93.71 454.94 85.67 453.59 81.11 451.43 79.73 448.53 77.4 441.22 70.03 423.64 66.61 410.26 67.53 403.89 63.57 396.68 58.79 393.51 50.03 390.98 40.38 387.76 31.94 384.77 24.47 383.79 20.33 382.82 11.8 378.36 2.36 372.48 4.81 355.84 3.43 350.23 1 344.5 11.63 336.98 17.03 333.41 28.64 335.07 36.98 336.71 48.01 333.1 51.06 332.03 59.35 331.43 61.23 328.97 63.85 326.02 69.72 324.34 78.08 323.94 80.7 321.94 80.95 317.02 82.91 314.47 87.24 313.89 93.77 317.97 96.67 313.85 94.96 311.96 93.82 309.5 93.6 303.58 99.17 299.12 103.65 298.1 108.47 296.13 120.6 295.38 135.03 293.24 141.84 292.09 146.31 288.63 153.81 287.05 154.26 284 156.34 281.18 165.25 278.1 172.5 278.28 174.87 278.87 177.99 269.31 Z"/>
</g>
</svg>