<?xml version="1.0"?>
<svg xmlns="http://www.w3.org/2000/svg" version="1.2" baseProfile="tiny" fill="#f9c113" width="800" height="836" viewBox="0 0 800 836" stroke-linecap="round" stroke-linejoin="round">
<g fill="#c0392b" id="id_208">
<path d="M 567.21 107.47 585.96 101.29 579.06 136.59 579.06 166.6 588.92 187.78 554.39 208.97 546.49 238.11 551.43 259.31 582.02 236.35 588.92 263.72 584.98 276.09 596.82 289.34 584.98 301.71 581.32 312.93 578.54 312.23 570.03 312.02 559.57 315.63 557.13 318.94 556.61 322.53 547.81 324.37 542.55 328.43 534.56 329.78 517.62 332.29 503.39 333.17 497.73 335.49 492.47 336.69 485.94 341.91 486.2 348.86 487.53 351.75 489.54 353.96 486.14 358.8 478.47 354.01 473.39 354.69 471.09 357.68 470.8 363.45 467.72 365.79 457.91 366.26 451.02 368.24 447.94 371.7 445.74 374.59 436.01 375.29 432.43 376.54 419.48 380.78 409.69 378.85 396.07 376.9 389.74 381.09 377.26 389.92 380.11 396.63 381.73 403.22 378.86 422.73 389.93 429.63 399.95 434.86 404.8 436.01 413.57 437.15 423.48 440.67 434.8 444.44 445.08 447.41 450.69 451.13 455.34 459.59 454.26 467.06 458.27 482.76 466.93 503.38 469.66 511.95 471.28 515.36 476.63 517.88 486.07 519.47 493.01 524.13 496.61 525.31 502.3 526.74 515.86 528.21 529.89 534.15 540.55 536.57 549.78 542.95 559.75 545.81 569.71 545.37 583.65 547.61 596.84 552.9 606.07 556.78 615.08 559.12 620.33 559.96 628.12 558.16 634.8 550.24 640.58 550.01 656.26 554.44 667.04 558.45 672.58 561.42 675.08 565.72 678.65 571.14 691.87 577.05 702.17 583.49 700.83 591.94 701.56 606.53 701.93 624.64 704.87 638.42 721.25 638.55 730.02 639.65 738.73 639.83 749.77 637.82 762.29 639.23 764.55 642.1 767.2 647.07 770.88 656.04 771 661.56 772.92 666.18 773.99 674.13 774.72 682.55 777.13 693.42 778.96 701.08 782.15 707.97 785.47 713.44 787.76 719.73 792.15 724.34 794.96 730.29 798.01 735.84 799 738.84 798.1 741.92 796.36 746.9 786.34 753.94 778.9 754.75 774.14 756.68 764.15 756.49 757.58 757.04 754.33 757.35 751.74 762.04 745.35 763.47 740.42 763.47 738.06 763.34 736.61 762.01 731.18 756.07 727.98 754.06 727.26 752.99 722.67 746.11 720.67 737.86 718.34 734.58 719.04 727.32 709.72 725.39 703.41 721.45 698.59 718.92 689.65 714.28 681.66 710.45 674.92 709.56 669.11 710.11 664.26 714.44 657.09 719.78 645.47 727.84 636.76 736.47 628.8 742.68 617.47 755.79 609.86 764.53 608.26 764.69 598.33 767.22 593.28 779.03 585.67 789.99 581.93 792.85 574.2 805.92 566.83 804.15 562.67 803.02 554.66 807.3 551.29 810.9 551.29 815.44 543.39 821.26 539.9 819.44 533.05 809.71 530.52 810.91 525.47 810.99 518.35 812.97 507.72 819.31 494.54 829.07 492.15 834.44 486.65 829.57 483.17 829.86 478.72 831.63 467.68 835 460.8 831.84 452.12 818.25 441.02 817 416.19 807.81 375.7 790.04 359.12 781.54 340.47 765.71 333.27 752.51 327.57 712.93 325.08 703.1 298.3 669.91 290.49 667.38 270.16 656.9 237.83 625.96 217.5 613.22 192.78 592.09 167.63 563.72 213.2 512.6 200.38 494.64 196.98 489.35 192.89 482.58 192.25 471.59 185.8 455.12 168.32 449.23 160.04 447.75 143.83 446.79 119.73 444.03 107.99 434.29 86.03 418.94 80.69 415.61 67.21 412.56 46.3 407.98 24.46 404.47 11.34 397.03 9.87 395.05 4.49 387.81 1 378.21 8 371.68 24.58 365.39 40.67 358.81 44.77 351.08 36.72 334.48 28.62 313.52 28.51 299.95 29.55 296.72 29 288.71 27.29 285.14 28.13 274.35 29 259.82 30.07 236.94 25.28 216.57 22.52 208.07 24.15 194.14 32.02 179.59 42.94 172.52 54.91 169.11 72.68 161.97 78.46 155.58 83.2 147.97 90.52 133.91 90.57 122.09 89.38 110.48 78.81 106.77 78.84 104.72 78.87 102.15 78.17 100.67 77.38 99.5 76.22 98.13 74.51 95.35 74.94 93.66 76.51 92.91 82.87 86.21 83.11 83.43 83.14 81.22 82.09 76.94 81.92 73.53 83.57 71.56 85.89 68.52 89.87 66.6 95.1 62.73 97.08 60.01 99.52 54.11 108.03 54.06 114.91 52.76 118.54 52.76 123.8 55.28 126.03 55.85 129.67 56.94 133.15 56.6 134.69 56.6 139.1 58.73 141.49 60.53 143.4 63.69 144.13 64.37 149.5 65.28 154 63.95 159.2 62.19 169.28 57.9 174.07 52.58 178.37 45 201.38 20.73 205.27 22.05 210.7 23.5 221.91 32.54 229.23 40.3 237.6 48.61 240.82 52.94 246.51 54.37 257.4 60.5 264.37 62.03 271.61 62.86 291.47 66.7 299.29 65.12 309.04 60.81 323.48 50.17 332.05 44.69 337.22 43.7 341.92 42.35 350.26 40.3 362.92 38.98 366.81 38.79 374.02 37.11 379.88 34.59 382.79 32.46 387.26 31.19 396.96 30.67 404.05 33.78 424.03 33.39 433.94 31.34 445.15 30.88 457.09 30.12 470.18 29.94 477.39 24.8 479.57 19.69 482.01 15.66 489.33 13.51 497.86 14.19 500.94 13.33 509.19 10.16 515.7 6.45 519.71 3.62 528.27 1 542.95 1.17 542.25 6.6 541.52 9.33 538.85 11.2 524.21 21.55 518.78 24.77 511.06 27.49 504.5 33.23 501.13 53.66 501.21 68.67 500.81 72.98 482.39 85.96 480.04 90.09 480.65 100.4 488.55 111.13 491.02 114.53 500.17 125.75 506.74 135.91 515.71 152.74 547.48 133.06 567.21 107.47 Z"/>
</g>
</svg>