<?xml version="1.0"?>
<svg xmlns="http://www.w3.org/2000/svg" version="1.2" baseProfile="tiny" fill="#f9c113" width="800" height="1389" viewBox="0 0 800 1389" stroke-linecap="round" stroke-linejoin="round">
<g fill="#c0392b" id="id_20">
<path d="M 413.16 984.52 404.9 1014.17 389.76 1032.42 399.4 1038.12 418.66 1047.24 418.66 1058.65 407.65 1088.31 406.28 1100.86 413.16 1114.55 418.66 1125.96 420.04 1140.79 422.79 1153.35 422.79 1157.91 411.78 1183.02 406.28 1195.57 409.03 1210.41 410.41 1213.83 411.78 1224.11 417.98 1239.65 358.49 1235.93 322.28 1258.41 166.54 1337.22 97.48 1388 93.83 1325.78 89.47 1316.44 77.51 1299.37 83.86 1289.02 83.74 1274.69 78.5 1261.11 77.76 1243.54 61.18 1218 44.61 1182.61 38.63 1180.5 39 1158.94 21.68 1147.35 18.07 1138.51 22.56 1132.03 38.51 1125.8 72.9 1085.92 86.85 1082.06 99.06 1071.22 100.81 1051.29 110.15 1037.21 110.28 1037.21 108.66 1028.11 121.99 1013.53 122.49 1000.95 112.9 990.11 111.28 976.03 94.58 960.82 95.33 955.97 100.06 943.75 121 927.43 121.99 899.65 115.01 884.2 122.12 872.48 121.87 838.34 118.88 833.98 92.58 838.34 83.49 848.93 58.94 850.3 38.26 829.12 26.05 828.5 1 818.53 11.09 721.4 1.12 678.73 6.54 653.12 2.12 624.9 11.97 601.54 12.03 585.4 30.97 571.51 31.13 571.5 30.94 571.51 18.38 531.82 10.97 503.41 37.2 491.2 39.63 451.21 27.04 427.1 27.42 405.85 28.16 384.05 69.53 378.19 120.25 363.43 195.07 346.11 224.36 354.83 254.82 353.4 304.79 368.28 328.21 372.58 340.55 378 356.31 377.75 370.02 364.61 372.57 346.17 344.72 323.18 334.26 303.24 327.19 284.55 355.1 262.12 363.79 243.15 389.18 221.5 384.5 196.65 374.74 166.43 377.74 153.74 405.17 147.76 416.71 120.09 430.14 115.88 492.97 116.51 525.24 84.05 570.54 55.82 590.97 35.08 616.14 26.85 644.55 1 658.13 1.19 681.43 30.53 710.03 29.16 720.31 33.83 745.98 37.38 755.7 27.48 770.28 22.06 776.13 31.9 777.13 57.32 798 89.84 799 125.73 784.23 144.98 714.25 210.56 703.66 214.88 704.33 240.09 695.02 242.77 693.68 251.74 699.63 258.32 698.32 272.37 722.27 280.65 722.31 284.55 714.36 292.89 716.23 300.18 740.53 307.47 739.53 320.74 687.26 362.55 643.52 404.19 643.9 420.17 636.17 434.16 614.62 442.76 609.94 455.72 617.57 476.62 629.57 490.6 627.26 500.51 621.94 510.51 614.33 533.45 602.82 547.98 593.87 551.48 588.42 572.76 556 588.24 532.76 589.14 538.92 600.23 531.63 621.04 527.02 628.08 521.41 632.13 516.18 637.42 515.93 656.55 510.08 665.77 505.34 670.69 494.25 675.43 499.8 683.46 505.65 687.82 499.67 694.43 493.19 710.38 488.46 716.11 488.21 726.82 482.1 732.93 461.54 715.86 445.09 715.36 440.48 721.96 444.1 737.29 458.92 751.87 495.81 772.05 493.81 787.63 471.14 804.7 459.92 809.31 427.15 810.56 426.15 816.29 433.38 824.89 432.88 849.31 429.39 849.81 388.65 826.63 378.68 826.75 376.81 855.66 372.57 859.9 372.45 881.33 377.18 889.8 383.91 904.51 404.85 938.77 404.75 938.86 414.53 962.85 413.16 984.52 Z"/>
</g>
</svg>