<?xml version="1.0"?>
<svg xmlns="http://www.w3.org/2000/svg" version="1.2" baseProfile="tiny" fill="#f9c113" width="800" height="491" viewBox="0 0 800 491" stroke-linecap="round" stroke-linejoin="round">
<g fill="#c0392b" id="id_230">
<path d="M 420.01 266.31 430.24 264.69 443.14 268.73 455.15 270.34 476.49 257.02 515.63 255.81 530.31 261.87 543.21 255.81 539.65 223.52 522.08 224.33 520.52 188.41 490.73 192.45 467.15 187.81 433.35 191.84 416.9 188.01 409.56 173.68 397.33 167.23 455.37 77.85 487.17 75.63 519.41 77.65 605.92 25.81 650.39 18.14 685.97 1 686.86 11.08 695.09 16.33 701.54 4.63 711.55 5.24 715.77 19.15 702.87 50.22 635.27 99.44 645.5 135.15 647.72 157.74 662.4 204.76 668.18 244.71 679.3 268.32 679.52 290.32 701.09 331.29 701.54 352.69 718.22 375.9 785.37 435.46 799 453.76 782.7 457.33 766.41 458.29 737.65 468.22 712.45 487.72 692.6 490 679.55 489.19 656.62 486.91 639.85 480.21 613.59 463.59 585.48 444.46 539.53 418.2 493.1 398.11 448.94 390.17 444.2 391.99 403.4 407.6 390.76 412.16 376.9 413.27 340.83 402.92 322.44 392.91 295.86 375.63 284.44 370.62 240.03 369.45 204.3 391.29 188.17 400.56 163.27 402.93 124.14 420 97.8 424.7 55.91 433.46 33.78 443.66 20.12 424.01 12.02 417.46 6.92 408.19 1 403.71 6.35 379.65 4.48 367.22 23.45 363.98 29.52 361.41 39.33 358.98 60.39 356.7 63.39 354.35 69.88 350.67 88.91 343.72 112.81 337.69 123.83 333.72 123.1 325.63 120.83 317.9 136.47 314.74 138.66 311.95 134.28 293.78 132.18 284.07 145.47 281.79 154.62 284.52 164.02 290.55 173.99 301.72 178.12 301.65 181.44 298.64 183.79 298.19 187.44 300.69 195.06 297.46 203.73 292.53 208.59 290.25 209.24 270.69 216.04 252.97 226.98 250.54 243.19 256.13 252.1 257.53 260.52 257.53 266.68 257.17 271.13 254.23 272.11 248.2 285.48 244.3 303.49 289.31 328.61 282.85 323.5 298.6 347.07 296.78 358.19 284.07 385.1 281.24 406.67 282.45 420.01 266.31 Z"/>
</g>
</svg>