<?xml version="1.0"?>
<svg xmlns="http://www.w3.org/2000/svg" version="1.2" baseProfile="tiny" fill="#f9c113" width="800" height="663" viewBox="0 0 800 663" stroke-linecap="round" stroke-linejoin="round">
<g fill="#c0392b" id="id_220">
<path d="M 396.64 479.98 367.04 491.92 360.7 486.83 345.02 486.99 322.12 483.64 323.18 490.17 330.58 507.85 289.35 522.19 247.96 537.64 230.69 541.62 216.78 538.27 193.7 534.13 178.19 525.21 149.66 506.26 124.75 482.68 110.48 466.75 94.27 436.65 87.58 420.09 102.9 379.63 107.83 375.97 109.07 371.03 135.49 376.13 122.28 323.1 137.61 325.01 142.01 311.64 166.15 279.31 201.55 250.01 207.19 257.02 228.68 240.14 236.53 230.74 236.71 218.64 240.58 212.11 250.45 205.58 259.96 203.03 275.47 194.12 283.92 185.36 232.66 149.54 158.32 97.32 82.74 47.01 45.39 29.18 21.26 21.54 1 13.74 3.11 1 39.58 6.09 64.77 11.35 88.55 26.95 126.96 53.53 194.61 102.25 278.11 161.32 325.85 191.25 344.52 204.95 354.92 207.97 360.38 201.76 360.55 189.66 349.1 189.82 327.96 186 305.59 173.1 330.78 148.26 344.52 131.23 364.08 110.05 380.99 123.27 411.64 129.32 425.73 62.93 432.7 37.06 460.01 56.48 468.46 84.5 516.56 94.21 520.61 72.88 543.51 72.72 554.96 79.09 522.19 116.66 601.11 149.77 598.12 179.39 627.54 178.27 638.29 197.54 662.24 259.64 664.01 272.7 647.62 305.98 624.54 349.61 629.83 370.95 639.39 405.25 661.59 438.05 691.36 468.47 735.76 511.32 760.77 552.09 788.61 622.81 799 647.34 779.09 662 578.09 606.88 584.61 586.22 597.29 553.72 604.69 532.54 607.86 512.95 604.87 499.89 587.6 481.25 578.62 474.88 597.12 455.45 606.28 447.81 583.2 418.82 568.05 381.24 513.96 394.14 496.52 411.82 484.19 429.49 472.39 444.14 447.73 457.04 442.51 459.39 396.64 479.98 Z"/>
</g>
</svg>