<?xml version="1.0"?>
<svg xmlns="http://www.w3.org/2000/svg" version="1.2" baseProfile="tiny" fill="#f9c113" width="800" height="1338" viewBox="0 0 800 1338" stroke-linecap="round" stroke-linejoin="round">
<g fill="#c0392b" id="id_254">
<path d="M 186.88 1331.42 183.93 1324.44 180.51 1319.5 178.05 1315.7 176.69 1311.35 174.54 1306.8 173.33 1301.73 172.19 1294.98 172.7 1290.43 174.62 1287.7 175.8 1281.79 174.73 1278.27 172.7 1275.29 171.69 1274.38 169.29 1271.25 167.97 1270.15 164.92 1267.69 163.09 1262.86 164.26 1253.11 164.55 1246.03 167.15 1235.9 167.41 1228.11 167.22 1223.97 167.67 1220.8 169.76 1215.96 170.93 1211.32 168.53 1207.42 166.07 1203.39 163.21 1202.45 162.28 1199.72 160.4 1196.74 158.47 1196.04 156.79 1193.86 154.48 1190.48 152.77 1188.26 152.15 1184.66 151.5 1181.23 151.07 1175.81 150.85 1172.77 150.1 1168.61 150.75 1165.59 149.61 1162.16 150.65 1159.58 149.9 1155.27 150.29 1151.73 150.58 1149.2 149.5 1146.01 147.93 1143.12 147.79 1138.43 148.04 1135.34 147.04 1131.66 146.97 1129.07 142.86 1125.11 143.04 1121.34 143.43 1116.74 139.7 1111.38 145.94 1103.08 143.5 1086.04 141.47 1078.19 142.03 1074.14 143.46 1069.97 143.72 1065.91 145.27 1061.06 146.09 1056.45 143.79 1051.62 144.04 1049.95 143.29 1048.68 139.87 1047 138.8 1046.12 137.79 1042.62 136.55 1040.8 135.03 1039.36 134.27 1039.09 132.78 1038.02 130.61 1037.61 129.29 1036.66 128.92 1035.98 126.33 1032.82 123.79 1032.04 121.75 1031.09 120.27 1028.44 120.94 1026.62 121.44 1023.83 122.09 1020.88 123.69 1017.17 124.12 1015.3 124.57 1012.9 124.9 1010.24 126.1 1009.05 126.95 1006.48 127.25 1005.16 129.12 1002.09 129.5 998.85 124.47 997.53 119.77 996.63 114.4 995 110.07 992.55 106.87 992.18 104.05 988.31 101.1 985.16 99.27 982.96 96.46 982.56 88.94 979.61 87.67 978.62 83.43 976.27 79.25 974.59 76.28 974.46 72.57 972.95 70.79 971.77 65.45 968.9 64.71 967.3 63.12 963.63 60.51 962.07 58.05 961.44 53.79 960.3 51.65 959.33 47.03 956.74 45.93 955.34 43.36 954.54 39.21 954.21 35.52 953.91 33.72 952.56 31.82 950.71 29.98 950.71 26.43 952.08 24.9 952.99 24.25 952.95 23.12 952.87 22.1 951.8 20.58 950.88 20.22 950.02 21.6 948.27 21.88 947.39 21.46 945.71 21.86 944.21 22.08 942.87 22.34 941.67 22.92 939.3 23.46 938.3 24.26 937.88 24.84 937.51 26.03 935.8 27.35 935.42 28.59 934.82 28.99 934.67 30.85 934.07 32.24 933.78 33.02 933.02 33.77 931.48 35.89 929.71 36.02 929.03 38.15 927 39.61 926.76 41.71 925.98 42.6 924.9 43.75 921.98 44.9 920.4 46.42 920.13 46.81 918.02 47.18 916.37 48.19 915.05 49.45 914.09 49.91 913.19 50.12 910.68 51.05 908.94 51.65 906.04 52.29 903.97 53 901.45 54.31 899.82 55.75 898.79 56.24 898.33 56.86 896.21 57.66 895.39 58.28 894.84 59.25 892.93 59.55 890.47 58.57 886.95 58.61 885.27 58.1 882.28 57.61 878.76 57.49 876.48 57.08 873.93 57.64 871.9 58.87 867.89 59.52 863.03 61.77 859.42 63.19 856.42 63.65 852.46 63.5 851.3 63.23 845.42 63.12 843.79 63.83 840.95 64.2 839.41 64.05 838.26 64.31 835.54 64.57 832.74 66.3 827.75 66.77 826.27 67.56 825.04 64.98 821.58 63.72 820.16 60.58 820.05 59.04 818.66 57.88 817.77 58.23 816.4 57.83 815.02 57.95 810.75 60.49 809.26 65.07 805.76 66.78 804.63 70.31 800.3 71.13 797.86 71.62 793.94 71.84 792.48 72.67 789.58 72.71 787.7 72.12 784.57 71.32 783.26 71.77 781.87 71.45 779.47 70.59 777.2 71.07 775.32 74.69 773.43 76.73 772.99 78.03 771.96 77.64 770.24 78.67 766.7 80.15 765.77 81.13 764.8 84.08 762.85 84.87 761.9 84.97 760.39 89.26 757.37 89.45 755.41 91.53 751.19 95.38 748.68 95.92 746.04 95.26 742.36 95.64 740.68 98.13 736.62 99.1 735.72 101.98 731.52 101.92 727.97 102.24 724.56 105.01 720.81 105.81 721.06 106.65 720.79 108.07 721.03 109.22 721.01 110.19 720.86 111.79 720.06 113.9 720.02 115.95 719.59 118.99 718.72 123.49 716.87 125.23 715.16 127.02 712.44 128.81 710.75 130.41 708.85 131.45 707.18 132.44 705 133.65 702.44 134.8 700.59 136.16 698.36 137.45 694.93 138.7 692.49 139.51 690.74 139.31 689.8 137.84 688.59 137.1 688.21 137.06 685.98 137.62 683.66 138.59 680.27 140.08 674.23 140.49 672.48 140.64 670.32 141.25 667.04 142.01 663.81 143.57 659.89 144.03 657.51 145.82 653.17 146.18 650.85 148.73 646.56 151.51 645.04 153.08 641.03 154.56 637.62 155.25 635.93 155.25 633.33 155.83 631.1 157.63 627.07 159.26 623.66 159.8 621.54 161.62 619.39 162.32 616.38 161.91 613.11 161.99 610.11 161.51 608.62 161.2 607.23 162.62 604.67 162.67 600.68 164.22 597.15 165.73 595.21 167.42 590.91 168.23 589.63 168.45 587.2 172.57 582.78 176.19 576.8 177.45 575.83 178.68 573.24 180.57 570.83 183.1 567.62 185.58 565.71 188.33 563.51 190.24 562.22 193.82 561.51 196.72 559.63 204.84 554.88 205.43 553.2 204.46 551.08 204.76 550.23 205.6 548.29 205.4 545.55 206.04 544.06 205.7 541.69 206.3 538.63 206.66 536.95 206.34 534.93 207.24 532.45 208.56 529.23 209.76 524.76 209.24 520.27 209.46 518.58 212.79 515.87 213.63 514.9 214.16 513.77 215.39 511.04 216.76 508.25 217.5 506.15 218.77 502.2 219.55 500.72 219.27 499.02 219.68 497.86 219.76 496.31 219.56 494.67 220.01 493.41 219.72 490.61 219.68 489.53 220.46 487.95 221.64 485.89 221.75 485.3 220.59 484.92 220.18 484.32 219.35 484.1 219.35 482.44 221.33 480.47 220.72 479.63 220.37 478.14 220.51 477.11 220.39 475.47 219.64 475.22 218.77 474.16 218.79 472.63 218.91 471.62 218.72 470.02 219.05 465.68 217.48 464.19 216.22 462.63 213.48 458.78 214.2 453.69 211.56 450.39 209.54 448.41 208.68 446.52 209.73 443.22 210.18 441.52 210.66 440.32 210.8 438.7 209.21 437.27 204.68 434.21 204.68 432.8 205.48 430.89 206.06 429.53 207.05 428.3 207.21 427.78 207.27 425 206.82 421.69 204.98 419.99 204.05 418.76 201.83 415.74 202.75 412.3 203.19 409.68 203.4 408.33 202.58 405.42 202.81 404.15 201.12 396.37 200.9 391.56 201.48 388.71 201.2 386.62 199.57 385.21 196.29 382.39 193.67 380.38 192.7 379.43 190.76 377.87 189.7 377.14 189.32 371.2 188.2 366.56 188.92 364.36 188.33 362.57 186.24 360.58 184.38 360.15 181.95 359.67 180.87 359.59 178.56 358.37 177.14 356.92 175.94 353.54 173.76 351.92 172.29 350.52 169.49 347.54 167.96 345.19 166.3 341.83 166.51 336.81 166.08 335.23 166.17 333.64 165.37 330.75 165.43 327.94 167 324.86 166.21 321.14 166.2 319.37 165.53 316.22 164.49 314.15 163.08 314.19 160.46 316.49 159.04 320.22 157.18 323.93 156.47 324.93 156.12 326.59 155.93 328.8 154.32 329.33 151.64 327.63 150.84 327.14 149.35 324.75 145.97 324.24 143.91 324.02 143.59 322.46 139.71 317.67 138.54 313.46 138.02 310.32 129.69 306.44 127.63 306 126.33 305.02 125.75 302.98 125.25 301.24 123.78 297.47 123.22 296.28 119.08 296.97 117.26 299.91 116.02 301.49 114.66 303.49 111.53 304.37 109.65 306.11 105.35 307.72 100.13 309.91 97.93 310.71 94.42 313.2 90.47 313.68 81.05 312.51 76.08 310.96 72.7 311.89 69.81 312.83 66.32 312.87 63.27 313.6 61.3 313.75 58.5 312.81 53.51 312.44 51.43 312.89 49.94 312.9 47.31 312.19 44.91 311.73 43.75 312.24 42.04 310.93 40.87 310.86 40.15 310.87 37.47 311.25 36.21 310.89 34.87 310.54 33.5 309.6 31.9 308.92 30.46 308.91 29.31 307.68 28 306.3 26.92 305.35 25.52 305.67 22.26 307.33 20.29 305.91 18.09 304.83 16.62 304.49 12.96 307.92 9.99 307.29 8.09 307.59 6.9 308.13 6.11 308.42 4.76 308.25 3.65 307.62 2.85 307.78 2.3 307.73 2.13 307.49 1.74 306.63 3.7 306.08 6.75 305.52 10.93 304.53 12.99 302.8 12.75 299.88 13.25 294.96 15.16 289.68 18.17 288.67 21.53 286.93 22.83 284.21 23.2 281.41 23.99 277.89 26.85 275.92 30.05 274.1 32.21 272.5 33.43 270.49 33.37 267.53 34.56 265.91 35.51 263.02 37.31 260.77 37.62 259.01 38.07 256.28 41.45 253.96 42 250.72 45.74 249.87 48.09 248.86 49.69 247.56 51.07 243.17 51.41 241.62 51.46 239.1 51.75 237.19 53.31 235.5 53.95 234.28 55.19 233.18 56.51 232.19 57.26 229.97 57.26 227.19 57.95 222.63 58.99 220.44 59.83 218.73 61.41 214.31 66.54 212.86 67.92 211.97 73.4 208.91 77.26 208.43 82.23 209.36 89.38 207.7 91.01 207.31 94.08 205.18 94.5 203.32 95.42 198.95 96.4 195 96.26 192.85 96.98 190.76 96.38 187.31 95.5 185.38 94.45 184.2 94.05 183.4 92.95 182.49 89.26 182.68 87.83 182.54 84.19 182.42 82.68 182.41 79.66 181.52 78.68 180.23 78.51 178.18 77.52 174.04 76.96 172.78 77.82 169.28 76.93 166.64 74.78 165 70.81 163.73 68.81 161.88 67.36 160.03 63.63 154.47 62.55 154.38 61.01 154.94 59.41 155.8 56.74 157.2 52.64 158.24 51.96 157.92 51.15 157.53 49.08 155.14 45 152.26 44.57 151.69 43.58 148.72 42.6 148.02 41.04 147.26 41.26 144.77 37.16 141.92 36.33 140.83 34.78 137.76 30.22 136.28 28.03 135.32 25.67 134.25 25.91 130.82 25.74 128.88 26.6 127.28 26.65 125.26 25.87 123.21 25.48 121.63 24.27 120.56 24.26 118.96 24.23 117.09 23.73 115.64 22.97 114.71 20.49 112.83 18.52 111.19 19.07 109.86 23.7 108.25 23.97 107.24 23.56 105.1 23.62 103.62 23.64 101.89 23.1 100.15 21.34 96.91 21.18 94.48 21.25 93.46 20.79 92.5 19.98 90.57 20.68 89.34 21.61 87.17 21.05 85.92 19.67 85.47 18.85 83.89 18.21 82.66 17.58 79.2 17.71 76.73 19.45 74.52 19.59 73.56 19.3 72.28 18.72 69.93 18.12 68.45 15.99 67.74 13.85 66.23 12.48 65.73 10.85 65.15 10.7 64.04 9.36 62.61 8.2 61.76 5.37 62.01 3.51 61.76 1.66 59.67 1.81 57.55 1.16 54.29 1 53.4 3.75 50.77 4.69 47.99 7.72 44.94 9.81 43.77 11.8 43.77 14.06 41.9 14.98 40.5 14.79 34.91 15.27 33.85 17.32 31.39 18.3 28.03 18.79 23.97 20.12 22.6 22.62 20 26.9 17.22 28.26 14.97 29.62 12.71 32.65 9.89 34.11 8.58 35.11 7.82 37.54 2.59 38.92 1.34 39.69 1 41.53 1.77 43.41 2.86 45.16 2.96 46.23 2.5 49.38 4.8 52.14 6.55 53.04 7.19 54.95 11.21 56.5 13.22 58.37 13.19 61.69 12.82 62.44 12.1 67.49 9.7 69.66 10.29 71.18 11.16 74.14 12.77 74.69 13.96 76.41 15.25 79.35 15.57 84.14 16.74 84.5 17.76 85.43 21.05 85.66 21.99 87.96 22.63 88.85 22.99 91.03 25.09 91.93 28.33 93.78 30.95 95.25 31.9 96.69 32.07 98.88 31.25 100.32 30.37 101.76 28.75 105.42 27.15 106.31 25.69 106.54 24.64 106.71 21.82 107.34 20.75 107.68 19.61 108.73 19.15 107.69 16.48 107.81 14.8 108.82 12.89 109.44 12.75 112.24 13.26 113.87 13.98 117.01 15.37 118.23 16.76 117.41 22.47 118.86 26.82 120.73 28.18 123.03 31.56 124.05 32.14 124.46 35.26 125.71 36.96 126.47 40.3 128.19 43.15 128.71 43.96 128.67 47.85 127.74 51.38 127.73 52.29 130.86 55.36 132.63 54.88 136.86 55.59 138.69 54.14 144.41 53.89 146.72 58.74 149.12 58.54 150.22 58.04 155.42 57.06 158.23 56.66 159.56 56.18 161.01 54.4 164.49 52.38 166.01 53.72 167.51 53.73 168.58 53.28 169.83 52.52 170.63 51.81 172.2 51.9 172.97 52.03 173.75 52.65 174.99 53.09 177.97 53.25 181.3 53.2 183.79 52.04 187.15 53.93 189.02 54.64 190.23 54.65 191.2 54.19 192.71 55.95 193.58 56.51 195.97 56.83 198.37 57.36 201.06 56.98 205.08 57.98 207.8 60.33 208.09 60.81 209.13 63.35 210.71 66.01 210.56 67.44 212.68 70.48 214.58 74.46 216.37 74.75 218.91 77.47 218.8 78.82 220.17 86.55 222.36 89.05 223.86 90.62 224.79 92.63 226.16 95.98 227.18 98.82 228.67 100.48 230.05 102.75 232.77 104.8 233.36 106.76 232.51 109.13 232.28 110.97 233.82 112.69 234.9 115.17 235.49 116.74 236.36 121.19 235.68 122.35 237.66 125.62 237.1 126.32 234.96 127.84 233.77 128.83 232.53 131.74 232.53 132.31 232.16 134.69 231.86 136.22 231.89 137.94 232.77 139.29 233.64 141.02 235.89 141.57 236 142.62 235.34 147.17 236.4 149.32 238.08 154.01 238.56 155.54 239.2 157.29 239.84 160.13 240.36 161.49 241.4 164.52 241.84 165.44 242.15 166.81 242.23 168.54 243.33 169.24 245.73 169.46 246.97 170.62 247.64 172.8 249.49 173.65 250.87 174.6 251.87 175.15 252.86 175.74 253.7 176.48 256.43 180.51 258.02 183.52 258.32 185.73 258.63 188.56 259.25 190.36 261.06 192.15 262.88 193.97 264.21 195.51 265.74 196.34 267.02 198.1 267.49 199.49 267.99 200.54 269.77 200.91 271.5 202.67 273.51 203.31 274.85 203.71 276.6 203.2 279.85 201.94 281.07 202.1 284.56 204.04 287.07 204.79 289.43 205.08 290.49 206.33 291.36 206.61 292.06 207.76 293.97 208.74 297.77 209.37 299.23 209.52 301.2 210.42 302.03 209.87 301.88 208.85 302.79 207.78 304.48 207.77 305.16 208.07 305.36 209.37 308.2 209.31 308.66 210.45 308.83 210.79 310.56 210.79 312.01 211.53 313.75 212.28 314.96 212.04 316.19 210.92 317.27 211.01 320.24 210.5 322.16 210.32 323.82 211.4 324.99 211.36 326.09 213.18 327.02 213.1 328.56 212.18 329.6 211.72 331.06 213.66 331.73 214.23 332.56 214.96 333.63 214.96 335.79 217.48 337.88 218.68 338.76 220.01 340.83 221.59 341.71 222.81 343.43 223.5 344.06 223.87 345.78 226.17 349.65 227.15 351.98 227.32 353.61 227.48 355.71 227.63 359.53 227.55 360.22 227.91 360.87 228.74 360.09 229.74 357.25 230.58 356.89 231.99 357.61 232.8 358.98 232.48 360.66 232.42 361.36 233.55 361.06 234.82 363.19 236.22 365.31 237.8 365.9 238.68 367.13 239.84 369.05 240.49 372.95 241.35 373.88 242.07 374.16 242.5 374.61 243.06 375.02 243.23 377.05 242.29 377.28 241.61 378.13 240.81 379.9 240.71 381.16 241.39 381.82 244.09 383.06 244.77 385.57 244.15 388.25 243.9 394.01 245.28 395.37 246.09 399.58 246.39 401.86 246.34 405.79 248.11 407.6 249.56 411.13 253.38 411.51 253.94 414.1 254.57 417.46 254.96 417.66 255.65 418.09 257.54 419.03 258.63 421.24 259.81 423.7 260.82 426.67 262.72 428.12 264.29 428.73 265.25 428.64 266.68 429.35 268.14 428.13 269.63 426.63 270.56 426.37 271.76 427.38 273.33 428.88 274.78 429.48 276 429.47 277.01 427.78 279.13 426.38 280.6 426.79 281.52 431.25 282.36 434.98 284.23 436.19 286.76 437.33 288.42 438.41 289.43 438.22 290.3 436.56 291.17 435.48 292.91 437.3 295.84 438.3 297.93 439.01 300.12 438.91 302.88 438.54 305.03 437.52 309.28 436.32 313.14 435.54 319.11 435.09 321.73 436.18 324.29 437.64 327.72 439.16 330.64 440.01 332.95 441.14 334.17 443.55 336.28 444.9 337.16 447.51 337.22 448.3 337.46 450.32 338.8 455.09 342.04 463.14 342.31 467.89 344.89 471.23 346.76 473.67 347.86 474.29 349.38 475.73 350.9 476.58 352.69 477.31 354.06 479 355.53 480.77 356.85 481.62 358.79 481.82 360.46 481.84 361.66 482.86 362.97 483.89 364.99 484.46 366.43 485.09 367.18 486.98 369.83 487.81 371.71 488.15 373.34 487.47 376.7 487.7 378.08 487.33 381.09 487.36 382.81 486.72 385.58 486.72 386.95 486.57 389.62 487.18 390.97 488.11 392.84 488.17 398.04 487.33 400.22 485.25 402.75 484.28 404.66 483.3 405.66 482.22 407.35 481.63 408.15 478.68 409.13 479.12 411.58 479.42 413.93 479.53 414.65 481.52 416.56 482.02 417.71 481.67 418.71 482.79 420.66 491.23 420.5 493.85 419.69 498.81 419.71 505.54 419.07 513.78 416.02 518.07 413.33 519.95 410.94 522.96 410.5 525.47 410.46 533.31 407.4 534.98 407.48 537.03 406.74 540.58 406.06 539.89 407.09 536.58 412.4 535.98 414.18 534.2 417.63 533.33 421.06 533.15 428.74 533.15 434.72 533.54 440.92 533.58 446.47 534.43 454.16 536.07 462.23 539.9 473.58 540.77 478.74 541.61 481.38 543.57 486.69 544.19 492.14 544.34 493.84 544.72 498.46 544.72 500.17 543.96 504.04 544.33 506.11 545 509 544.69 511.51 543.59 517.15 543.51 520.69 543.35 524.13 547.78 530.65 546.92 535.29 545.71 537.63 543.68 539.8 542.69 543.82 542.87 546.29 542.83 549.85 542.13 552.07 540.93 554 539.69 555.46 538.59 558.37 536.76 563.16 532.2 563.89 528.28 565.53 525.79 567.44 523.29 568.04 521.61 570.03 520.65 571.24 520.06 573.22 519.88 574.81 516.85 577.08 517.63 579.64 518.07 581.18 519.35 582.09 519.6 583.25 519.67 586.41 519.79 588.56 520.95 590.19 521.1 593.04 521.03 594.42 519.99 596.14 519.84 597.74 519.45 601.53 518.78 602.45 517.94 603.61 516.5 606.44 517.47 609.1 517.75 610.38 517.92 611.63 517.51 612.11 513.99 613.33 513.64 614.55 512.03 616.57 513.02 619.98 520.91 626.31 524.24 630.95 526.95 633.77 532.01 638.44 534.74 640.96 536.01 644.54 537.23 646.32 538.05 650.28 539.52 652.11 545.67 654.33 547.54 656.77 551.41 660.77 553.45 664.61 551.94 667.85 552.86 669.39 553.41 671.47 553.23 672.59 553.22 674.12 555.63 677.17 556.07 678.48 555.35 680.45 553.16 682.07 552.48 683.42 552.15 686.05 552.15 687.39 551.92 689.71 550.88 690.75 550.97 692.61 550.26 694.55 550.1 696.19 549.68 697.3 549.84 699.78 550.77 701.31 551.74 704.07 551.79 705.18 552.71 708.47 552.64 710.05 550.7 711.76 549.18 713.71 545.56 715.16 545.27 716.3 544.54 718.09 544.58 718.89 544.82 720.29 544.37 721.75 543.33 723.12 541.16 725.47 540.3 726.62 538.73 729.86 543.21 735.2 550.75 739.1 552.31 740.53 559.01 743.96 563.67 747.67 564.39 748.39 566.05 750.92 567.81 752.42 569.93 754.06 571.6 751.76 577.06 747.12 585.11 743.73 597.01 740.99 605.53 739.78 613.24 737.62 621.44 736.89 624.72 735.98 630.87 733.94 638.07 733.62 648.33 732.75 651.02 731.68 658.88 731.48 669.46 732.12 674.83 731.27 682.25 729.3 687.17 728.69 691.34 727.45 695.57 734.94 695.96 745.31 696.44 753.81 697.82 774.17 698.01 782.28 698.49 788.59 699.05 799.13 700.04 810.69 700.28 818.84 700.05 824.68 701.05 833.48 703.29 841.27 706.32 854.1 708.75 862.18 710.07 868.62 710.08 869.68 710.11 873.51 711.49 878.31 714.36 886.27 716.39 892.28 716.3 897.33 717.3 898.97 724.44 898.78 727.65 896.99 736.03 895.74 742.85 895.53 747.14 895.54 752.05 895.54 760.86 895.93 764.52 895.35 768.62 895.27 778.18 894.55 783.38 894.38 787.78 892.96 789.19 892.62 798.07 890.48 798.9 895.44 799 900.28 798.48 904.99 798.37 909.11 798.13 913.31 798.34 920.77 797.92 925.76 797.29 932.7 795.97 937.18 796.03 946.46 795.46 954.24 795.3 956.65 792.74 958.75 791.27 960.43 791.16 962.87 791.85 966.58 792.67 971.23 794 975.85 793.59 977.59 792.93 980.76 792.95 982.31 794.07 985.04 794.59 987.7 794.22 987.72 791.52 987.91 784.97 988.34 783.25 988.89 780.21 988.16 776.93 988.36 770.06 988.01 765.95 988.01 759.54 987.87 757.64 987.51 756.05 987.45 753.74 988.59 752.16 989.82 743.77 990.19 741.07 989.04 731.25 989.09 727.3 989.06 722.75 989.55 718.96 990.58 710.52 990.02 708.19 989.37 705.28 989.45 701.13 988.66 698.65 988.68 696.29 989.62 694.47 989.38 686.48 990.03 684.35 990.33 680.56 991.15 677.7 991.13 676.82 991.84 676.47 992.7 672.42 994.15 665.27 996.96 658.6 999.97 654.94 1001.62 646.59 1004.84 639.1 1008.38 635.42 1010.15 626.55 1014.54 624.34 1016.15 625.11 1023.17 626.4 1032.33 621.49 1037.45 611.15 1049.31 608.3 1054.66 604.26 1059.77 600.76 1063.67 594.87 1068.64 588.95 1073.08 582.83 1078.3 574.56 1083.95 569.47 1088.68 560.16 1097.11 551.49 1107.16 543.58 1113.14 538.4 1116.32 535.1 1117.27 529.56 1119.11 515.53 1121.23 505.96 1121.7 498.54 1121.58 494.49 1121.52 483.89 1124.45 469.81 1125.63 459.61 1127.22 450.46 1127.79 430.07 1132.36 424.92 1135.26 415.44 1138.55 407.5 1141.3 404.91 1142.58 396.43 1146.88 388.69 1149.59 385.92 1150.32 373.45 1151.81 363.53 1152.5 357.9 1153.36 349.27 1156.37 342.64 1158.87 336.87 1161.06 332.25 1163.09 328.59 1163.33 323.53 1165.07 322.49 1166.62 318.78 1168.11 313.69 1170.72 313.12 1172.1 312.07 1173.88 313.08 1176.9 314.76 1179.14 315.18 1183.93 315.66 1185.56 317.22 1189.5 317.46 1191.25 317.71 1196.89 317.44 1201.61 317.63 1205.89 316.89 1209.73 314.44 1216.11 313.01 1221.74 313.83 1226.3 313.16 1227.92 312.18 1231.77 313.73 1236.81 317.1 1245.21 320.43 1250.82 323.74 1254.39 325.95 1260.08 327.82 1264.06 328.64 1268.79 328.96 1269.75 330.62 1273.33 332.56 1275.6 334.82 1276.81 335.84 1278.63 340.83 1283.4 343.43 1288.56 343.78 1293.12 343.99 1295.31 343.77 1299.63 345.75 1307.76 349.18 1312.09 339.86 1312.76 330.71 1314.47 300.55 1320.13 267.51 1325.79 238.13 1328.6 217.28 1330.1 197.69 1330.11 189.29 1337 188.33 1335.04 186.88 1331.42 Z"/>
</g>
</svg>