<?xml version="1.0"?>
<svg xmlns="http://www.w3.org/2000/svg" version="1.2" baseProfile="tiny" fill="#f9c113" width="800" height="565" viewBox="0 0 800 565" stroke-linecap="round" stroke-linejoin="round">
<g fill="#c0392b" id="id_30">
<path d="M 300.09 56.4 303.75 54.88 312.89 56.4 308.32 63.22 347.61 128.4 358.58 131.44 381.45 176.3 410.73 169.32 431.92 160.79 445.4 175.41 467.34 186.03 485.62 186.03 499.33 193.61 520.35 199.68 537.71 203.47 547.76 210.3 550.51 223.2 551.42 244.44 550.51 250.51 544.11 272.51 555.08 277.82 580.12 242.03 583.24 248.26 582.2 253.99 580.48 255.97 580.68 260.31 577.45 262.07 580.72 268.6 577.5 273.29 584.69 275.61 590.87 280.41 597.82 288.7 600.33 295.03 603.24 301.09 607.91 308.78 613.15 313.45 688.09 337.61 732.64 355.72 737.59 362.19 748.44 370.31 757.7 379.13 766.44 383.67 775.02 393.55 792.3 402.04 794.85 414.01 794.81 417.06 799 442.43 787.79 455.63 764 480.11 751.19 494.51 740.14 495.74 721.94 510.44 699.4 526.14 689.84 526.66 681.78 526.27 675.95 523.71 669.65 521.95 658.67 523.48 656.32 519.6 652.09 518.53 647.38 514.22 643.51 514.75 639.68 514.12 634.33 511.5 632.65 509.11 625.07 499.65 614.18 497.93 608.99 497.96 604.08 498.96 602.77 501.74 599.49 506.75 584.73 511.17 583.65 512.79 584.21 514.98 588.44 516.18 591.43 516.64 594.11 519 594.59 521.42 599.53 526.6 595.34 531.84 594.03 534.99 590.59 540 585.33 541.83 578.5 545.31 573.6 547.47 564.1 550.49 559.95 552.12 539.16 556.57 535.92 554.04 531.22 552.35 517.25 557.13 508.79 561.88 503.76 563.14 495.06 564 490.19 561.25 487.84 556.03 485.76 547.5 481.53 544.22 484.21 542.66 489.55 538.08 492.19 531.14 492.83 527.99 480.54 524.41 478.62 517.84 482.41 514.39 502.16 500.87 508.11 496.53 514.34 489.53 517.81 487.3 524.87 481.4 520.84 478.15 521.84 475.09 523.63 471.58 519.04 469.35 514.74 466.97 511.3 466.67 506.2 468.46 500.41 469.65 495.66 469.16 493.78 466.77 491.19 466.1 484.93 467.66 472.4 470.35 467.37 473.44 467.93 476.98 469.16 479.64 469.52 481.7 466.61 483.79 459.15 486.34 454.2 489.13 449.25 488.7 445.02 489.56 445.46 490.82 445.02 492.81 441.63 492.38 435.68 491.15 429.02 489.09 424.79 487.44 418.56 487.7 413.66 492.54 411.9 495.17 409.9 498.82 406.63 503.69 399.97 501.57 395.34 503.16 389.39 502.2 385.84 504.19 382.61 507.74 377.26 509.7 371.24 512.25 365.69 512.29 360.14 512.82 357.79 514.28 354.88 514.94 349.61 514.74 342.7 513.18 341.59 513.55 333.45 515.41 328.74 513.85 323.59 516.97 315.33 516.1 309.54 516.93 302.24 524 295.54 521.78 292.62 515.01 290.07 513.71 283.36 512.78 276.14 510.26 275.7 507.94 275.66 504.62 273.23 500.47 269.6 491.38 268.12 491.48 264.33 493.14 257.27 493.81 256.95 488.36 250.52 482.26 249.92 479.01 246.05 478.15 243.26 478.01 237.83 479.41 231.37 483.22 229.89 479.87 227.26 472.8 229.08 463.42 229.6 459.04 236.26 451.91 236.54 448.13 235.82 442.76 233.63 437.71 232.07 433.67 232.66 430.25 216.18 418.68 197.35 418.32 182.02 409.93 172.41 411.19 170.29 410.9 152.42 402.53 136.74 392.55 139.97 375.84 143.72 362.14 142.96 359.13 147.4 351.47 159.02 346.73 165.44 341.49 176.02 335.43 179.09 331.35 185.7 318.18 194.92 309.23 200.03 300.09 200.43 291.97 204.34 282.09 211.12 271.72 220.46 246.74 210.92 235.58 202.06 226.37 193.32 213.45 185.42 206.86 183.27 202.96 178.08 195.74 173.69 190.17 159.88 174.31 157.73 172.92 152.54 164.88 146.23 157.52 146.27 150.74 109.44 115.95 106.97 108.5 103.62 100.99 99.07 92.98 92.76 86.69 81.99 80.93 81.75 78.15 82.71 67.17 78.99 63.79 74.29 63.36 66.74 59.26 63.71 53.86 64.11 46.06 62.83 39.9 58.88 37.09 51.62 35.4 46.59 35.73 42.44 36.63 32.66 40.17 25.92 43.28 22.96 42.48 21.44 34.94 16.17 28.72 8.27 20.02 1 15.58 49.23 16.25 88.87 20.25 92.14 42.72 106.31 25.29 108.65 12.12 108.65 1 114.96 4.5 130.45 6.18 125.47 11.21 124.22 27.55 129.67 20.12 139.72 15.47 157.48 14.57 165.81 18.64 183.95 20.12 193.69 19.48 191.28 25.16 189.72 36.78 204.36 36.39 218.06 33.29 224.61 27.87 233.64 17.15 240.18 21.28 254.36 21.41 266.97 23.22 273.05 26.58 278.65 31.74 282.39 33.03 294.61 49.58 300.09 56.4 Z"/>
</g>
</svg>