<?xml version="1.0"?>
<svg xmlns="http://www.w3.org/2000/svg" version="1.2" baseProfile="tiny" fill="#f9c113" width="800" height="639" viewBox="0 0 800 639" stroke-linecap="round" stroke-linejoin="round">
<g fill="#c0392b" id="id_37">
<path d="M 307.74 61.22 316.35 61.14 322.77 58.63 325.43 56.75 330.05 58.48 334.98 59.65 341.32 61.45 347.34 65.21 357.75 62.63 368.4 57.22 381.16 59.18 390.39 62.55 400.72 69.52 408.47 73.59 432.74 73.12 435.79 72.42 445.73 74.92 451.76 73.28 459.9 73.98 478.84 75.39 502.55 76.96 512.1 80.79 521.26 85.65 524 87.69 523.45 91.76 524.78 103.97 526.97 109.69 520.87 115.64 524.55 119.24 524.55 128.95 530.26 132.79 535.97 131.15 539.97 133.34 545.52 133.73 545.05 138.19 550.14 138.04 551.16 135.92 562.51 140.7 572.76 147.9 573.39 166.23 570.41 173.74 574.25 178.21 579.34 175.39 586.22 174.21 596.01 174.84 595.46 182.12 599.37 187.21 604.46 188.15 610.96 190.97 615.73 190.19 623.32 185.88 626.85 182.75 636.39 183.69 635.92 202.25 638.74 212.9 644.3 216.42 647.59 217.2 646.41 224.64 641.17 230.44 642.03 234.2 645.94 237.88 650.56 241.01 655.57 242.65 661.36 241.71 665.75 241.09 669.58 242.5 660.42 255.58 652.83 269.83 649.07 274.6 656.2 285.33 666.06 292.22 678.43 298.1 679.13 314.46 678.11 323.15 691.97 334.66 709.26 340.38 718.89 339.99 733.06 347.66 743.62 350.09 749.42 356.12 758.73 356.9 761.74 354.71 767.11 354.36 778.49 360.94 785.11 361.05 795.28 357.14 796.46 366.26 799 375.27 797.87 380.16 792.62 385.06 787.53 387.37 787.34 397.27 780.68 403.5 781.98 407.25 787.69 408.63 793.6 410.86 795.87 413.01 795.56 418.18 793.6 429.69 791.8 437.52 784.4 442.38 784.72 448.72 784.25 453.81 778.92 466.1 779.67 467.67 780.49 473.66 781.7 477.07 785.38 481.88 786.12 491.04 788.59 493.78 788.32 501.69 784.52 502.01 783.7 500.28 775.36 500.09 773.01 499.03 769.14 499.15 762.64 495.74 756.77 493.12 749.26 496.41 747.15 500.44 743 504.39 741.82 508.9 699.6 510.62 698.27 508.9 685.47 509.68 684.53 513.44 677.92 519.66 676.94 522.05 676.59 528.24 663.44 543.16 657.29 551.61 651.54 553.81 644.89 555.65 637.76 557.21 634.02 560.11 631.99 557.27 627.13 557.9 626.36 555.87 613.83 555.7 611.49 553.99 607.58 557.58 602.09 557.59 597.86 560.57 593.01 561.03 588.31 564.17 583.61 564.32 579.08 561.66 576.57 562.28 574.54 564.32 567.96 564.48 564.51 565.11 562.33 569.96 563.67 573.71 567.54 579 571.14 580.95 572.74 587.45 579.75 589.53 584.02 597.87 593.56 600.06 603.78 606.17 613.21 614.16 612.7 619.13 608.63 622.61 608.9 624.49 603.7 625.9 597.99 625.98 591.33 629.62 586.75 630.72 582.1 631.42 577.83 634.55 570.55 634.71 568.83 636.2 562.26 636 560.34 632.32 550.55 632.99 546.29 636.16 539.4 636.04 536.11 633.03 534.47 629.31 534.55 622.14 529.62 619.25 525.35 620.26 519.25 620.11 516.04 617.05 511.58 619.64 511.73 622.26 505.67 624.22 502.89 625.74 500.03 627.74 487.86 627.39 482.3 622.69 477.69 622.49 474.52 620.26 470.21 617.64 465.75 620.65 461.56 624.18 454.4 624.02 452.01 625.55 442.23 626.53 435.69 629.03 428.85 630.56 427.08 637.18 419.65 638 417.89 636.12 417.69 632.56 420.9 629.39 420.82 619.6 415.97 614.78 408.18 610.2 405.68 605.03 403.92 602.88 409.43 592.58 413.03 588.71 416.24 585.65 413.54 583.65 412.68 581.23 410.57 581.42 408.89 579.15 406.66 578.68 405.13 579.39 401.88 577.04 399.77 577.08 397.77 575.75 396.64 574.06 397.58 572.54 396.25 570.66 395.89 569.29 394.99 567.52 395.7 565.92 395.78 564.04 394.33 562.04 394.17 560.4 394.68 557.58 393.58 554.72 390.77 553.86 389.2 554.02 387.32 551.51 381.53 549.2 376.17 550.34 376.56 552.25 374.84 553.27 373.12 553.7 371.32 554.52 369.83 555.7 368.15 554.05 367.17 553.66 366.54 553.98 365.72 553.43 364.86 552.49 362.9 552.21 361.14 551.51 357.93 550.88 358.13 549.36 355.55 548.69 354.45 546.73 353.12 545.83 351.71 542.62 351.44 541.53 352.61 540.35 351.51 538.35 349.68 536.04 347.64 534.28 347.88 532.91 348.85 531.35 347.41 530.29 347.05 527.98 347.72 526.06 347.33 523.05 348.31 521.52 347.72 519.05 345.49 517.6 343.53 518.9 342.51 518.03 341.42 517.33 340.24 516.94 340.52 515.41 337.54 515.96 335.67 514.39 334.84 515.53 332.85 515.57 331.13 515.14 329.01 517.33 326.94 517.29 324.79 515.84 322.91 514.82 321.62 514 321.69 512.9 323.61 512.98 324.59 511.53 323.92 509.97 321.97 509.58 321.22 507.78 319.03 507.19 318.02 508.79 315.98 509.15 314.73 507.93 313.51 506.17 310.31 504.64 308.9 503.9 307.61 503.66 308.43 502.02 308.19 501.04 309.95 500.18 311.48 499.83 313.12 498.38 314.26 496.34 315.86 495.95 313.83 493.09 313.91 491.53 314.26 489.77 311.99 488.43 310.42 488.55 308.35 489.18 306.24 488.55 304.16 486.71 300.09 489.06 295.4 485.62 292.42 480.92 283.81 478.1 283.97 469.64 281.15 461.34 284.44 450.53 289.29 436.13 288.19 428.14 296.65 414.83 301.66 404.18 306.2 389.77 306.67 383.19 303.07 382.09 304.32 376.46 304.32 371.91 305.57 366.9 304.47 362.99 301.25 362.2 301.24 362.15 298.43 364.81 293.42 365.6 289.5 366.69 285.9 364.81 282.3 359.33 277.45 359.96 272.13 358.7 266.49 356.04 265.63 353.15 261.64 354.16 257.33 351.03 259.92 347.43 259.29 339.05 262.89 330.12 267.82 319.71 259.21 317.2 257.8 315.71 259.06 312.97 258.98 308.28 255.22 304.6 254.59 300.29 257.26 292.93 251.78 291.52 247.16 293.08 242.93 289.87 237.92 289.48 232.91 291.52 229.94 292.54 228.06 296.06 226.1 296.53 223.52 298.72 219.29 298.96 217.42 297.08 212.95 297.16 209.04 298.72 207.08 296.45 205.28 292.85 198.87 290.34 191.35 290.58 186.34 291.13 180.86 288.7 174.76 286.58 172.25 284.55 168.5 281.34 164.35 283.53 160.28 282.83 156.68 279.22 152.45 279.85 146.74 279.07 144.23 286.43 136.49 283.3 128.11 278.68 121.77 273.59 120.6 267.87 114.33 264.19 101.11 253.38 96.57 244.06 95.71 237.88 98.99 232.08 99.46 228.17 95.71 220.49 97.27 217.6 96.65 210.78 89.52 199.82 84.67 191.91 75.98 186.12 70.58 185.73 55.87 175.86 52.27 169.99 53.99 165.84 54.46 157.38 51.56 152.37 51.25 138.35 40.29 132.32 34.11 128.41 33.4 123.79 24.64 117.52 16.11 114 4.05 108.2 3.27 102.41 5.85 99.98 5.54 95.36 2.1 90.43 1 87.45 5.77 82.67 8.51 73.2 18.85 68.58 19.55 62.47 21.82 59.34 32.62 59.65 35.28 57.46 39.51 59.34 44.05 57.85 44.52 53.78 43.11 50.8 34.11 43.6 31.76 33.65 33.87 24.41 39.43 16.11 44.75 8.91 55.4 9.77 60.02 12.04 67.76 12.67 72.46 10.08 77.47 8.83 82.32 10.63 92.5 10.4 98.45 7.19 104.63 11.18 108.78 9.07 117.54 3.04 123.02 1 135.39 2.64 146.66 7.42 154.64 9.14 160.91 7.27 177.73 16.51 197.38 28.25 205.75 35.22 217.02 34.91 218.82 36.79 225.95 36.71 228.3 35.14 242.23 34.83 248.41 28.25 257.18 31.15 264.53 32.95 270.17 40.94 276.2 43.76 294.04 51.12 302.99 58.68 303.04 58.56 307.74 61.22 Z"/>
</g>
</svg>