<?xml version="1.0"?>
<svg xmlns="http://www.w3.org/2000/svg" version="1.2" baseProfile="tiny" fill="#f9c113" width="800" height="510" viewBox="0 0 800 510" stroke-linecap="round" stroke-linejoin="round">
<g fill="#c0392b" id="id_32">
<path d="M 145.18 348.51 134.57 324.96 163.91 295.71 162.97 272.68 145.81 253.01 151.42 215.74 164.11 201.99 207.91 239.81 162.66 200.74 159.54 160.63 173.89 130.61 167.97 89.99 154.23 45.5 196.68 39.8 217.27 46.53 225.89 31 269.08 82.88 340.24 51.19 367.86 1 431.68 33.59 468.39 78.51 488.79 106.16 519.06 149.24 545.59 151.05 553.7 180.81 573.05 202.03 569.93 248.61 601.14 258.96 677.29 240.59 729.41 210.57 757.49 212.9 799 293.64 748.75 301.4 656.38 302.96 532.17 328.32 515.94 401.83 372.38 493.98 357.4 488.81 334.93 468.1 310.59 454.64 260.03 447.39 203.23 446.87 177.02 430.3 140.81 473.27 114.6 495.02 59.67 507.45 1 509 7.24 462.4 16.92 439.62 55.3 403.9 137.07 364.56 137.72 363.26 145.18 348.51 Z"/>
</g>
</svg>