<?xml version="1.0"?>
<svg xmlns="http://www.w3.org/2000/svg" version="1.2" baseProfile="tiny" fill="#f9c113" width="800" height="594" viewBox="0 0 800 594" stroke-linecap="round" stroke-linejoin="round">
<g fill="#c0392b" id="id_38">
<path d="M 388.06 1.79 392.83 5.69 388.8 12.65 390.51 18.08 403.41 21.54 416.41 23.42 445.41 26.13 451.45 24.56 477.65 24.82 480.76 22.76 486.53 22.98 491.08 25.13 518.68 25.08 522.05 22.37 543.4 22.55 546.29 36.73 562.3 36.6 566.54 32.96 599.09 32.7 606.31 41.02 614.14 38.52 620.26 38.74 630.76 40.8 641.17 43.34 638.81 47.8 633.91 51.13 639.33 66.89 643.1 80.99 648 83.97 686.67 83.09 690.87 81.34 703.55 81.43 709.15 85.1 711.16 92.72 704.87 97.36 703.55 99.2 706.27 101.65 724.73 101.48 731.2 107.17 735.84 105.24 740.82 104.45 755.08 95.09 767.51 93.68 770.31 96.84 769.08 103.75 767.95 108.39 767.16 114.96 772.15 119.16 768.82 127.13 772.06 137.29 766.9 144.9 764.71 153.22 765.07 159.54 763.74 160.75 762.82 161.81 760.8 161.43 760.13 159.88 758.47 159.28 756.61 160.02 756.28 161.23 756.19 162.87 755.27 163.56 753.9 163.43 753.71 164.07 754.58 165.03 752.6 167.69 752.48 169.05 753.3 169.98 752.15 170.48 752.05 173.21 749.25 174.47 747.26 174.32 745.16 172.74 744.44 173.08 743.3 174.04 742.62 174.19 741.43 175.61 740.43 175.73 739.54 174.26 738.43 174.14 735.1 182.95 733.13 193.5 729.83 205.37 735.1 211.3 751.57 216.57 756.81 222.47 752.23 231.08 764.75 248.88 762.77 260.08 770.02 269.97 764.09 276.56 752.89 293.05 745.03 307.65 748.93 316.78 759.48 328.64 769.36 330.62 780.56 329.96 782.53 336.55 793.73 341.83 799 350.4 785.17 359.63 783.19 373.47 773.31 386 752.64 394.12 744.98 395.23 737.74 389.95 722.59 393.25 707.43 400.5 700.19 394.57 679.11 408.41 659.34 408.41 644.85 399.84 636.95 384.02 626.41 388.64 605.99 391.93 588.86 399.84 575.03 399.84 558.56 405.78 543.41 418.96 533.52 421.6 516.4 422.26 494 436.76 482.14 451.26 482.8 460.49 477.53 462.47 465.01 475.65 464.36 490.16 465.67 504.66 468.97 523.78 462.38 531.03 458.99 552.53 457.11 574.65 457.11 589.04 449.2 593 438.66 591.02 430.76 591.02 429.54 582.08 417.28 582.03 413.65 584.13 397.99 584.04 392 580.23 381.94 580.45 376.16 583.65 365.93 583.82 362.43 582.11 358.71 584.17 355.95 578.48 349.48 574.41 345.45 575.9 341.21 573.88 337.62 575.72 329.7 576.64 327.21 578.17 322.27 578.44 319.42 576.56 315.79 576.07 306.04 564.65 288.89 547.57 283.2 537.02 279.44 530.59 277.56 525.95 284.47 522.27 287.93 518.86 288.5 513.73 285.74 508.39 285.26 496.92 287.36 485.89 284.86 479.5 274.85 458.79 274.63 442.81 265.7 431.61 252.32 421.45 243.74 411.82 246.67 407.83 245.32 403.68 247.37 400.39 247.72 384.33 241.56 378.11 236.09 377.93 234.08 379.82 212.9 379.77 205.34 371.67 197.24 371.46 193.96 368.43 163.6 367.34 155.51 359.33 142.3 350.88 134.6 340.77 134.56 331.97 127.38 325.49 127.16 322.03 129.17 317 123.22 314.81 121.08 310.95 124.36 308.28 124.84 302.9 121.69 301.1 115.39 295.85 115.83 289.42 118.94 287.53 119.42 280.57 122.39 276.63 126.51 276.11 128.43 274.75 138.89 273.92 140.77 272.47 145.14 272.43 146.72 265.82 150.78 253.91 155.78 253.61 157.17 248.48 158.4 245.07 166.36 235.88 178.43 232.9 188.49 230.97 192.52 226.33 200.04 219.33 200.48 217.23 201 210.48 195.23 209.43 190.94 207.16 185.96 201.12 178.34 198.14 167.32 198.49 158.05 191.4 148.95 188.42 130.14 184.22 115.79 185.27 108.09 187.02 97.94 179.66 50 177.91 27.25 172.66 23.4 164.95 10.8 159.35 4.15 150.95 1 148.84 3.14 144.77 2.99 142.06 5.09 141.8 11.46 137.33 17.67 138.84 26.63 141.88 34.31 143.44 39.06 145.65 44.59 144.05 48.4 144.12 54.33 141.62 80.75 142.12 85.04 133.04 90.13 123.37 92.58 117.39 89.32 112.42 87.33 105.9 92.73 101.02 94.11 91.01 91.36 86.46 85.01 85.74 81.58 80.49 84.38 76.79 93.92 71.97 92.73 64.88 93.78 59.21 99.91 60.89 103.8 57.04 112.49 61.49 122.63 65.51 137.03 70.04 150.37 75.95 163.23 76.44 179.94 80.7 193.72 82.59 204.57 88.04 207.54 86.99 208.92 79.46 204.59 74.51 214.88 73.86 218.73 69.11 222.72 54.57 229.85 49.54 223.84 41.79 242.89 39.21 249.91 41.44 256.85 39.56 258.84 39.67 281.19 33.1 296.41 33.04 304.18 30.45 308.31 27.83 311.07 31.63 315.01 28.48 339.09 28.53 343.53 30.67 355.27 31.98 360.48 34.11 367.72 32.71 378.28 24.48 379.2 17.67 373.39 17.46 371.27 14.62 366.23 9.41 365.36 3.98 374.47 7.31 378.84 5.91 384.6 1 384.6 1.09 388.06 1.79 Z"/>
</g>
</svg>