<?xml version="1.0"?>
<svg xmlns="http://www.w3.org/2000/svg" version="1.2" baseProfile="tiny" fill="#f9c113" width="800" height="852" viewBox="0 0 800 852" stroke-linecap="round" stroke-linejoin="round">
<g fill="#c0392b" id="id_33">
<path d="M 168.7 143.79 175.25 143.79 184.61 142.24 198.65 149.21 205.2 139.13 206.14 136.03 226.73 125.96 233.28 124.41 238.9 118.21 232.35 113.56 228.6 106.58 236.09 105.03 246.39 106.58 255.75 100.38 261.36 92.63 256.68 84.1 252.94 85.65 241.71 84.1 238.9 70.93 230.48 42.26 232.58 29.87 237.96 19.02 240.07 14.96 243.93 14.57 242.88 9.73 245.09 4.57 245.6 4.66 264.48 8.91 276.15 9.3 289.2 3.87 303.44 1 316.69 8.81 332.61 11.58 352.39 13.95 353.97 26.6 361.29 32.14 367.91 44.1 360.3 56.76 365.54 59.53 369.1 71.68 395 72.57 396.98 80.78 382.15 92.64 380.86 114.1 389.17 112.71 400.24 108.36 418.14 118.64 423.88 118.84 422.41 123.25 424.2 118.59 442.09 118.74 450.55 112.88 471.91 111.03 495.29 103.54 512.2 105.45 534.57 110.41 558.55 117.51 569.2 117.43 601.17 117.65 602.95 103.91 626.68 86.86 641.26 91.61 645.46 88.24 662.97 89.97 677.5 96 702.91 90.12 720.22 96.99 728.28 97.39 742.42 111.87 759.28 110.83 765.16 103.57 783.25 100.75 785.23 103.62 785.28 126.85 780.58 134.81 785.18 145.53 784.64 164.17 770.35 175.24 766.99 183.3 766.54 186.86 777.96 197.34 778.95 206.88 785.58 214.24 785.33 222.69 776.13 232.63 777.22 238.71 770.84 248.4 769.61 262.04 761.35 269.31 751.86 271.98 728.42 299.11 717.7 303.27 714.63 307.86 717 313.79 728.82 321.75 728.47 336.19 732.82 337.82 743.85 361.74 755.12 379.24 755.57 391.35 759.13 400.2 759.28 410.08 754.97 417.1 762.93 428.72 765.9 434.9 766.15 435.69 768.55 477.4 774.98 499.07 783.62 529.64 783.47 534.58 784.17 541.12 784.78 548.98 781.6 604.54 779.93 657.22 778.52 691.69 799 728.71 745.33 713.39 726.19 733.8 694.28 735.08 640.68 717.21 607.49 709.56 567.93 705.73 539.85 698.08 521.98 686.59 486.25 684.04 460.72 690.42 482.42 724.87 455.62 738.91 433.94 738.99 399.46 749.12 389.25 778.46 360.77 783.68 348.51 784.47 345.34 780.51 325.96 783.68 308.39 794.54 283.24 799.49 269.74 795.89 255.95 796.33 238.55 804.24 233.41 792.38 225.1 789.51 215.02 779.52 195.54 778.44 185.45 781.8 164.19 795.44 144.42 804.44 127.21 807.01 111.39 815.31 86.97 832.12 67.98 827.37 54.04 832.02 47.22 842.89 40.1 851 1 846.46 37.25 807.42 30.3 765.56 57.31 748.03 49.82 726.24 55.44 710.68 61.05 698.24 83.52 688.9 107.86 676.46 117.22 682.68 134.06 693.57 156.53 684.24 171.51 667.13 192.1 653.13 242.64 651.57 255.75 626.69 263.24 598.7 276.34 562.95 270.72 536.52 252 510.1 255.75 483.69 205.2 485.24 227.67 446.41 235.16 398.26 240.45 357.79 247.32 333.05 252.94 311.32 258.56 298.13 275.4 278.73 290.38 257.01 300.68 229.08 282.89 229.08 256.68 242.27 234.22 234.51 203.33 215.9 188.35 212.8 179.93 240.72 150.91 235.29 147.17 247.7 151.85 277.18 139.68 310.55 129.38 326.07 114.41 294.25 112.54 274.85 109.73 250.03 119.09 234.51 125.64 222.1 105.05 223.65 92.88 210.47 100.37 201.16 120.96 205.04 149.04 198.06 134.06 191.86 108.63 189.44 118.59 184.44 138.81 174.4 145.48 173.13 150.94 172.12 150.77 172.13 159.34 150.76 168.7 143.79 Z"/>
</g>
</svg>