<?xml version="1.0"?>
<svg xmlns="http://www.w3.org/2000/svg" version="1.2" baseProfile="tiny" fill="#f9c113" width="800" height="517" viewBox="0 0 800 517" stroke-linecap="round" stroke-linejoin="round">
<g fill="#c0392b" id="id_36">
<path d="M 50.05 426.62 50.51 421.75 41.21 413.98 31.31 408.05 22.17 405.91 17.91 397.84 11.21 395.71 9.53 389.47 6.03 387.64 2.37 382.47 1 378.81 3.13 374.09 6.48 373.48 12.88 373.33 14.86 371.35 17.3 370.74 21.72 373.33 26.29 373.18 30.86 370.13 35.58 369.68 39.69 366.78 45.02 366.78 48.83 363.28 51.12 364.96 63.3 365.11 64.06 367.09 68.79 366.48 70.77 369.22 74.27 366.48 81.43 364.96 88.13 362.98 93.46 361 99.4 352.77 106.72 344.7 112.2 338.31 112.5 332.22 113.57 329.78 119.97 323.84 120.88 320.19 133.22 319.43 134.44 321.1 175.72 319.43 176.79 315.17 180.9 311.21 182.88 307.4 190.19 304.05 195.68 306.49 202.23 309.99 206.03 309.84 208.32 310.9 216.39 311.05 217.16 312.73 220.96 312.42 221.27 304.81 218.83 302.07 218.07 293.24 214.57 288.52 213.35 285.17 212.43 279.23 211.82 277.71 217 265.83 217.46 260.81 217.16 254.72 224.31 250 226.14 242.23 227.97 230.96 228.28 226.24 228.81 226.15 228.01 226.22 225.8 223.93 219.86 221.95 214.68 220.73 213.47 217.23 219.94 210.84 220.17 201.32 225.27 199.04 230.37 194.24 231.21 189.29 228.85 180.54 227.71 171.93 217.73 175.89 211.1 175.51 200.21 169.27 195.03 169.5 192.06 171.63 182.92 170.79 177.44 165.08 166.85 162.72 153.22 155.11 143.85 155.57 127.1 150.01 113.69 138.74 114.68 129.99 113.92 114.61 101.89 108.74 92.21 101.97 85.51 91.54 89.09 87.05 96.48 73.04 105.24 60.25 101.5 59.09 101.28 50.64 112.09 41.58 118.26 41.58 124.13 39.9 132.81 40.82 141.95 49.5 146.21 59.16 151.01 66.17 151.93 68.91 149.49 73.4 152.38 74.54 156.5 75.46 166.55 82.08 173.1 87.71 179.27 87.87 182.54 93.04 188.48 89.24 197.78 88.55 203.64 84.21 206.69 80.02 225.88 80.33 237.23 75.84 253.22 73.93 261.15 67.84 281.56 66.78 287.12 63.66 298.16 63.96 309.28 55.43 312.18 54.82 314.16 57.41 326.57 57.64 332.21 60.99 335.25 61.6 338.68 58.78 343.33 59.93 346.14 64.65 357.49 63.58 368.46 57.03 381.33 51.78 399.69 51.32 406.54 50.41 418.27 50.56 424.44 47.14 431.68 44.09 426.65 36.63 423.68 26.81 421.78 16.07 419.19 10.21 422.54 5.8 445.84 5.57 458.79 1.84 467.63 2.98 472.35 1.3 482.86 4.5 497.94 6.33 509.06 3.74 519.88 1 544.25 15.62 553.54 12.88 567.4 25.97 573.5 30.08 584.92 26.12 591.78 27.8 602.29 17.14 622.85 9.22 645.55 22.47 658.65 21.86 663.07 21.86 677.38 40.89 679.82 45 690.79 50.33 699.78 57.95 709.07 63.28 719.43 70.74 725.52 79.26 728.41 79.72 733.9 75 737.4 69.52 741.67 69.52 744.68 71.31 747.38 77.06 749.68 80.02 749.34 91.58 748.14 99.63 753.76 106.18 761.37 108.78 772.8 110.12 777.41 114.26 774.44 124.94 773.09 128.41 775.1 131.68 791.46 138.76 799 143.33 798.71 149.15 792.49 152.94 791.08 155.36 794.79 159.14 796.3 165.71 794.35 168.62 789.67 168.45 787.96 167.46 782.49 167.25 778.45 167.35 777.27 169.1 773.81 170.43 769.43 170.47 763.7 167.4 757.76 171.5 755.24 174.29 756.37 177.15 759.13 177.85 756.9 180.31 756.61 186.4 754.42 189.5 751.05 191.67 747.23 191.06 743.93 193.1 739.19 192.53 723.33 182.14 721.06 181.13 716.99 175.34 705.62 173.55 667.18 152.22 654.38 141.41 641.51 133.11 639.53 126.48 635.57 118.57 623.76 105.24 609.06 101.13 601.37 97.48 593.91 99 589.41 100.83 585.38 100.6 581.87 97.86 577.46 97.33 572.2 93.59 568.55 88.08 561.92 88.15 555.41 90.74 548.97 95.92 550.38 100.56 555.79 108.63 558.68 110.8 563.86 122.3 563.02 135.12 560.32 141.56 564.66 148.64 573.42 155.49 576.39 160.82 581.49 164.32 586.52 165.62 590.33 167.82 590.63 172.7 586.67 173.99 580.66 173.76 567.4 169.19 564.13 166.07 555.9 166.99 555.06 170.26 536.71 176.43 536.02 180.84 525.51 185.71 515.23 196.75 516.52 199.8 520.03 201.47 521.86 203.22 533.89 205.81 538.31 211.14 555.14 211.6 555.37 215.86 555.48 216.04 567.82 216.65 575.74 217.87 591.28 207.36 595.24 206.6 601.02 213.61 610.93 214.98 612.14 218.48 606.36 221.37 608.18 225.03 614.12 222.89 617.93 222.89 620.83 225.03 629.21 224.26 631.79 221.98 634.99 223.96 643.68 224.42 643.37 234.92 638.04 240.56 629.81 245.28 627.22 249.39 626.77 253.04 625.09 255.93 609.1 256.85 609.55 259.59 611.23 261.11 609.55 267.66 609.86 273.9 614.28 274.36 616.41 274.21 625.7 279.99 629.05 282.73 630.58 287.76 625.85 292.33 619.15 295.52 613.21 296.13 608.34 294.76 597.06 294.61 594.32 296.13 582.44 294.61 576.96 292.78 571.78 290.96 567.05 299.18 565.23 312.73 562.64 317.3 554.72 320.04 535.22 324 529.73 327.5 539.18 335.87 544.51 337.7 547.71 340.14 544.36 349.73 544.05 355.21 541.46 359.63 549.08 362.06 542.23 377.75 533.85 383.68 520.14 384.45 516.94 382.77 513.89 384.29 505.21 384.6 501.1 384.29 496.98 386.12 498.2 390.23 493.18 394.49 489.37 395.71 481.45 392.82 482.21 397.54 486.63 402.11 488.45 404.54 493.48 404.7 492.72 410.63 483.43 417.79 477.18 419.01 472.76 417.18 462.4 415.96 458.6 414.14 437.58 414.14 434.22 416.88 431.79 413.53 428.13 415.81 421.43 418.1 408.18 418.1 388.68 423.88 387 423.73 380.91 425.4 374.82 423.42 366.74 424.64 358.21 425.71 363.54 432.41 357.3 436.82 353.79 449.46 350.44 453.57 341.46 454.18 345.26 458.44 344.05 464.99 341.46 465.91 332.01 461.19 319.98 459.51 305.51 455.86 294.23 455.4 282.5 450.22 270.01 446.26 261.48 442.91 253.71 438.96 250.36 442.31 245.03 440.78 244.12 445.81 245.18 451.9 236.81 456.16 234.37 459.36 237.41 463.93 242.9 464.54 245.34 468.49 244.12 477.17 239.4 481.44 241.22 487.22 243.96 491.49 241.83 496.66 237.41 505.04 233.61 512.96 210.6 512.5 205.58 514.63 202.23 514.63 197.35 516 193.24 514.02 186.38 512.65 178.77 510.06 173.28 508.84 167.8 512.65 164.14 513.11 160.18 511.13 151.81 510.52 142.21 505.49 132.61 504.12 124.84 504.73 120.73 503.97 123.17 500.32 123.47 494.38 115.25 494.07 111.29 497.27 92.25 487.98 79.75 482.35 70.46 475.35 72.29 470.32 70.16 464.84 62.39 461.64 60.71 457.84 59.95 445.96 53.86 438.19 49.75 443.22 44.41 442.31 45.18 438.04 46.55 433.78 46.09 429.97 50.05 426.62 Z"/>
</g>
</svg>