<?xml version="1.0"?>
<svg xmlns="http://www.w3.org/2000/svg" version="1.2" baseProfile="tiny" fill="#f9c113" width="800" height="675" viewBox="0 0 800 675" stroke-linecap="round" stroke-linejoin="round">
<g fill="#c0392b" id="id_31">
<path d="M 422.36 622.05 380.18 674 370.44 607.04 252.47 595.11 108.93 593.13 85.21 578.65 53.26 550.95 48.39 540.89 48.27 511.82 59.91 473.67 63.83 459.19 56.59 444.5 50.17 415.13 43.17 393.95 1 342.69 25.87 303.91 24.49 295.09 65.65 311.04 120.82 263.55 145.38 260.86 140.28 238.17 230.22 182.42 252.47 184.73 263.82 164.16 279.58 152.63 319.22 198.19 337.3 244.9 340.54 259.7 386.43 207.61 371.37 266.24 363.02 285.08 366.73 356.99 385.51 342.96 381.57 324.3 391.53 296.62 414.48 274.7 437.89 218.18 439.97 173.2 484.01 151.67 534.31 164.93 541.49 178.19 557.95 178.77 578.35 169.74 588.31 132.26 551.92 102.66 469.64 10.99 486.33 1 505.8 24.64 537.55 41.16 567.45 67.1 579.97 88.05 593.88 82.86 640.46 101.02 662.6 120.92 657.85 147.63 671.75 213.76 699.29 284.94 699.57 285.66 717.18 301.04 737.12 264.51 757.05 257.2 758.44 238.36 782.54 218.75 795.99 245.67 784.4 311.81 794.6 344.88 799 375.07 788.34 397.38 790.66 427.19 791.73 428.12 782.31 438.34 778.14 466.04 790.89 480.65 791.58 497.77 769.8 519.51 777.68 537.01 771.65 548.94 710.92 578.18 682.42 604.73 653.44 606.66 599.44 602.23 574.64 590.11 521.79 592.8 491.89 606.66 475.67 628.78 479.38 580.11 494.21 565.1 448.09 560.1 429.31 549.67 429.31 582.8 422.36 622.05 Z"/>
</g>
</svg>