<?xml version="1.0"?>
<svg xmlns="http://www.w3.org/2000/svg" version="1.2" baseProfile="tiny" fill="#f9c113" width="800" height="574" viewBox="0 0 800 574" stroke-linecap="round" stroke-linejoin="round">
<g fill="#c0392b" id="id_3">
<path d="M 746.71 154.28 753.76 156.7 764.34 157.18 772.56 159.11 775.5 160.55 781.96 165.86 781.96 170.69 780.2 179.37 773.74 189.98 790.77 193.84 777.26 201.08 777.85 206.39 781.96 210.73 781.96 215.55 782.55 219.41 787.25 224.72 791.36 236.3 792.54 243.06 794.89 248.37 797.24 250.78 799 255.61 798.41 262.36 794.89 267.67 796.73 280.49 779.24 293.66 758.32 299.96 741.41 313.7 728.23 327.73 690.69 334.89 684.09 339.19 681.8 362.67 680.94 373.55 650.56 411.06 634.51 431.97 625.92 439.7 625.63 439.7 555.99 460.18 541.8 464.61 490.79 464.61 437.62 505.71 419.28 520.88 420.29 534.34 412.12 540.64 368.99 550.52 349.5 567.13 313.67 567.7 303.07 573 274.98 571.28 246.47 560.11 223.54 553.39 210.21 555.96 190.72 565.7 160.92 563.41 132.83 553.67 107.61 530.19 100.16 517.02 104.75 506.71 103.03 493.54 62.33 460.89 63.48 422.52 80.67 392.17 90.42 381.28 86.98 361.24 99.59 353.79 93.86 340.62 59.47 333.75 43.99 328.02 10.74 326.3 1 314.85 3.87 298.24 37.68 285.07 44.56 267.89 47.43 251.28 42.84 234.67 50.29 224.36 61.18 203.74 78.38 197.44 86.4 187.71 81.25 179.11 70.93 180.26 62.33 176.25 65.2 158.5 109.33 124.71 116.78 105.81 151.17 85.19 176.97 83.47 200.47 63.43 225.69 48.53 197.6 26.2 231.99 9.02 258.93 9.02 274.41 4.44 297.34 1 323.13 8.44 378.16 39.37 417.71 53.12 442.93 56.55 468.72 69.73 511.14 47.39 539.8 40.52 563.44 40.52 577.2 35.36 595.25 32.5 632.22 31.93 650.56 26.2 665.75 27.34 703.01 25.05 725.65 25.91 738.26 24.48 737.69 30.49 745.71 54.26 745.71 80.03 740.55 97.79 730.24 117.55 727.94 134.16 733.79 144.64 746.71 154.28 Z"/>
</g>
</svg>