<?xml version="1.0"?>
<svg xmlns="http://www.w3.org/2000/svg" version="1.2" baseProfile="tiny" fill="#f9c113" width="800" height="617" viewBox="0 0 800 617" stroke-linecap="round" stroke-linejoin="round">
<g fill="#c0392b" id="id_35">
<path d="M 568.57 325.69 552.37 332.29 539.36 349.64 545.91 357.7 551.28 368.62 548.03 381.63 539.36 387.6 532.85 395.73 535.56 428.8 548.14 441.24 559.41 449.42 574.05 465.69 575.13 480.87 574.05 492.26 569.17 504.73 548.01 528.03 547.49 528.59 536.21 538.8 535.56 556.79 540.41 576.59 541.68 581.78 542.38 587.31 546.71 599.81 546.57 605.06 543.45 609.83 541.28 612.03 536.54 615.25 533.12 616 523.71 589.59 514.42 579.57 501.96 570.35 486.24 569.81 472.14 557.34 468.89 549.2 445.58 521.54 442.33 498.23 442.87 476.53 426.61 467.32 421.19 458.64 408.18 451.05 407.1 444.54 400.05 442.37 390.84 447.79 376.74 452.13 376.2 458.1 382.16 467.86 365.9 466.77 363.44 463.82 352.35 454.3 344.76 452.67 324.71 451.05 318.74 445.62 317.12 438.57 315.54 437.67 315.19 437 316.19 436.21 317.43 436.22 318.49 435.59 317.13 434.16 315.21 433.42 314.92 428.22 316.72 421.38 320.97 415.11 318.3 406.76 321.04 400.2 316.94 396.74 317.58 391.34 319.53 381.84 307 380.39 295.27 388.1 291.16 388.75 287.35 390.33 282.02 385.65 266.83 385.8 264.6 383.78 265.68 382.27 270.86 378.45 269.21 372.18 264.6 369.16 254.16 369.09 250.7 370.53 218.88 371.25 214.85 368.8 207.29 344.24 211.32 341.5 213.27 337.83 196.06 334.05 191.02 333.87 184.58 335.92 178.64 329.08 151.86 329.29 148.37 332.28 135.19 332.39 132.82 320.72 115.25 320.58 112.48 322.81 89.77 322.85 86.02 321.08 81.27 320.9 78.72 322.6 57.15 322.38 52.19 323.68 28.32 321.44 17.63 319.9 7.01 317.05 5.61 312.58 8.92 306.86 5 303.65 2.15 303 1 299.12 4.89 297.39 8.78 297.68 16.98 297.39 19.86 295.95 22.89 297.53 35.84 296.81 43.76 291.19 50.24 276.36 43.04 274.05 45.49 269.88 45.78 264.69 48.95 255.61 45.92 253.31 40.88 251.58 31.96 243.66 37.14 240.35 55.57 236.6 63.06 234.01 65.5 229.69 67.23 216.87 71.7 209.09 81.77 212.54 93.01 213.99 95.6 212.54 106.25 212.69 110.86 213.99 116.47 213.41 122.81 210.38 127.27 206.06 125.83 201.31 122.67 198.72 113.88 193.24 111.87 193.39 107.69 192.95 107.4 187.05 108.99 180.85 107.4 179.41 106.97 176.82 122.09 175.96 123.72 173.2 124.12 169.71 126.6 165.82 134.41 161.36 139.38 156.06 139.63 146.16 131.43 145.73 128.44 143.89 125.99 145.94 118.11 146.73 115.37 144.72 111.74 144.79 106.01 146.63 104.39 143.24 109.79 140.5 108.68 137.26 99.35 135.9 93.88 129.31 90.14 130.03 75.42 139.91 68.02 138.79 56.3 138.2 55.82 134.02 40.05 133.73 35.88 128.62 30.4 127.54 24.36 126.03 22.63 124.37 19.32 122.64 18.17 119.91 28.1 109.53 37.96 104.85 38.47 100.6 55.89 94.91 56.75 91.67 64.24 90.88 67.34 93.98 72.3 95.42 79.93 98.16 85.91 98.37 89.51 97.15 89.37 92.61 85.55 90.45 80.94 89.22 76.26 85.98 73.31 80.8 64.96 74.32 60.86 67.76 63.45 61.71 64.17 49.47 59.27 38.59 56.54 36.58 51.5 28.94 50.13 24.55 56.11 19.72 62.44 17.2 68.63 17.13 72.02 22.24 77.13 25.84 81.3 26.42 84.61 28.94 88.29 29.16 93.11 27.43 99.59 26.06 107.08 29.45 120.97 33.69 125.87 38.88 132.06 46.08 135.94 54.22 137.82 59.91 150.27 68.05 162.08 77.99 174.32 84.69 198.22 98.01 208.94 99.74 212.83 105.21 214.92 106.15 229.89 115.94 234.5 116.52 237.52 114.58 241.2 115.15 244.29 113.06 246.45 110.18 246.67 104.42 248.75 102.12 246.16 101.4 245.08 98.73 247.46 96.14 253.07 92.18 255.78 93.55 258.51 95.11 262.74 95.07 265.98 93.78 267.03 92.12 270.87 92.03 270.88 92.04 276.05 92.25 277.63 93.19 282.1 93.33 283.9 90.6 282.46 84.4 279 80.8 280.3 78.5 286.2 74.9 286.49 69.42 279.29 65.1 263.88 58.47 262.01 55.31 263.31 51.85 266.04 41.91 261.72 38.02 250.93 36.72 243.73 34.28 238.4 28.08 239.55 20.45 239.84 9.5 237.68 6.76 235.09 1.29 238.69 1 245.17 1.29 252.94 2.58 258.99 4.17 264.46 7.48 272.81 10.8 289.95 12.96 299.3 9.21 301.03 13.24 308.95 10.8 318.31 9.5 336.6 12.81 346.22 11.59 358.2 16.77 365.09 21.17 372.96 24.85 373.89 24.98 378.12 24.43 384.86 28.12 393.14 28.28 400.39 33.38 400.13 34.88 401.78 38.88 402.1 41.25 401.97 42.91 399.04 46.05 398.81 47.98 398.01 52.11 399.17 55.23 399.82 56.7 402.67 55.02 405.05 54.41 406.28 54.47 407.98 54.85 408.25 56.28 411.07 58.97 411.21 61.36 414.32 61.07 415.99 60.34 416.64 60.3 418.23 64.3 419.3 66.13 419.52 68.61 422.69 69.72 425.64 70.13 426.76 70.7 428.05 73.68 431 74.66 434.21 71.55 436.75 71.18 440.39 71.56 442.65 70.19 444.72 70.87 448.79 69.9 451.83 70.58 454.15 70.67 455.43 70.38 456.46 69.73 458.9 69.5 461.34 69.49 463.99 68.36 466.35 67.5 467.77 65.94 469.33 65.06 471.95 65.48 473.98 64.78 476.91 65.72 478.35 63.57 479.23 61.96 480 60.81 482.16 58.67 484.9 58.56 486.76 59.29 489.69 60.19 492.31 60.73 493.8 60.92 493.99 60.05 493.8 59.49 495.66 59.11 497.84 59.3 500.01 58.08 503.29 56.95 504.58 56.03 504.42 55.12 503.87 53.96 503.63 52.39 505.84 51.03 514.11 49.16 515.25 49.46 516.07 50.51 518.16 50.73 520.71 50.2 522.95 49.41 524.46 49.54 528.38 51.57 527.59 53.12 527.15 54.47 528.92 55.9 525.81 58.5 524.29 59.48 521.55 62.56 510.25 70.43 508.58 71.94 509.42 74.84 514.83 76.42 514.55 77.8 513.39 80.86 511.04 82.88 509.86 83.56 511.72 85.01 512.63 88.77 513.67 91.06 515.81 92.27 519.64 91.89 521.85 91.34 525.57 89.25 531.71 87.14 533.78 87.89 535.21 89 544.35 87.04 546.18 86.32 550.35 84.99 552.51 84.04 555.51 82.51 557.83 81.71 559.34 79.5 559.92 78.11 561.76 75.8 559.59 73.52 559.38 72.46 558.2 71.42 556.88 71.21 555.02 70.69 554.78 69.72 555.25 69.01 561.75 67.06 563.18 64.86 563.76 63.63 565.92 63.19 568.2 63.18 573 63.94 576.33 68.1 577.07 69.15 579.42 70.31 581.11 70.59 582.81 70.35 584.88 72.25 586.74 72.72 587.78 74.43 592.6 73.76 595.38 74.53 597.94 75.66 601.48 75.83 605.69 75.6 623.61 62.22 628.47 61.67 634.11 55.33 650.77 57.18 653.94 53.43 656.67 49.26 662.72 47.24 665.89 48.1 670.78 49.26 681 42.2 687.77 38.6 694.97 37.44 703.47 33.7 712.39 27.94 716.71 26.35 725.06 26.78 729.38 31.11 732.98 32.11 735.29 37.3 738.45 35.57 741.62 34.13 748.24 33.84 754 35.28 764.66 33.27 772.12 28.65 780.35 27.31 781.7 28.99 786.9 28.65 799 26.44 788.16 39.99 783.81 42.87 783.75 42.85 775.71 47.59 758.89 84.46 757.8 101.81 755.67 128.02 751.84 153.33 737.21 160.38 733.41 167.97 745.34 188.04 739.37 202.14 728.53 214.61 717.69 223.29 693.3 239.56 680.83 253.11 667.82 258.54 661.86 263.96 662.4 276.43 666.2 283.48 665.11 294.33 663.37 295.08 656.93 298.19 653.7 299.29 652.65 299.75 643.97 298.66 632.59 295.41 620.12 303.55 603.44 311.35 584.35 319.27 568.57 325.69 Z"/>
</g>
</svg>