<?xml version="1.0"?>
<svg xmlns="http://www.w3.org/2000/svg" version="1.2" baseProfile="tiny" fill="#f9c113" width="800" height="1087" viewBox="0 0 800 1087" stroke-linecap="round" stroke-linejoin="round">
<g fill="#c0392b" id="id_34">
<path d="M 545.62 295.87 516.59 290.4 506.03 303.52 523.19 322.11 552.22 319.92 542.98 337.42 529.79 359.28 533.75 394.28 536.39 421.62 557.5 466.47 572.02 444.59 589.17 397.56 582.57 356 587.85 338.51 628.76 346.16 640.64 306.8 661.75 311.18 705.3 337.42 736.98 348.35 773.93 329.76 799 329.76 784.48 369.13 763.37 399.75 739.61 427.09 731.7 445.69 723.78 476.32 714.1 511.16 714.09 511.19 706.62 568.24 696.07 636.11 664.39 690.85 735.66 688.66 730.38 725.9 756.77 763.14 764.69 800.39 746.21 850.79 735.66 890.24 717.18 925.32 645.92 927.51 616.89 947.24 595.77 971.36 564.1 984.52 540.34 969.17 527.15 960.4 492.84 977.94 461.16 991.1 453.25 1008.64 445.33 1030.58 455.89 1061.29 417.81 1086 392.58 1073.6 380.05 1059.17 367.29 1052.54 353.77 1039.65 337.92 1027.79 330.7 1018.35 265.65 991.89 156.22 956.6 148.58 949.78 141.76 938.55 137.51 929.69 133.84 920.45 123.7 908.35 114.67 901.33 104.18 897.94 108.87 891.09 104.1 881.56 108.82 878.99 108.52 872.65 111.03 869.75 112.54 861.38 108 852.28 120 828.53 146.69 820.69 151.47 807.96 151.47 804.43 150.13 791.81 152.05 787.36 148.32 776.81 147.04 768.25 147.8 754.13 150.13 746.39 138.47 724.41 134.86 716.15 120.41 708.02 112.37 692.84 101.65 686.6 88.94 688.29 69.54 688.57 79.68 678.27 73.74 661.98 63.6 650.67 55.09 635.29 41.16 617.94 31.14 610.3 20.71 597.3 6.79 583.24 6.79 576.12 14.77 560.8 28.87 550.17 40.99 550.46 52.93 546.02 66.45 555.83 70.53 560.32 74.2 571.77 78.4 579.84 101.53 563.46 141.56 561.58 150.59 553.02 144.41 537.95 130.57 515.55 126.37 506.13 130.69 486.81 127.19 482.51 122.12 466.47 118.92 453.14 118.04 448.07 116 446.86 112.68 449.71 107.9 455.26 105.11 461.16 101.61 470.48 93.34 472.6 75.45 450.34 82.73 443.33 64.73 415.37 68.28 398.95 84.42 391.22 99.8 388.57 108.23 385.32 97.75 365.52 88.83 350.79 88.25 341.52 85.51 336.89 84.81 322.31 77.82 308.79 72.05 299.28 63.25 295.66 43.73 270.37 31.44 246.77 21.76 240.45 18.44 230.27 8.34 204.66 1 191.2 3.1 182.42 3.45 173.25 4.9 164.47 7 159.55 12.07 151.98 14.93 142.33 15.57 136.73 22.15 121.11 62.75 135.2 78.36 136.45 99.83 117.36 133.15 106.07 173.16 105.8 180.97 109.42 199.09 129.35 195.19 139.52 221.12 168.23 266.98 195.12 269.63 227.18 284.96 239.3 314.66 238.6 361.78 233.45 372.37 248.08 374.74 263.55 374.92 263.62 393.53 263.06 427.12 219.37 455.63 166.7 492.86 112.49 520.88 64.13 520.74 42.25 534.68 35.98 594.06 26.5 659.73 14.66 663.49 12.71 664.05 2.95 675.48 1 690.95 8.39 720.63 13.28 717.51 20.55 718.99 27.37 713.55 27.92 710.58 33.65 702.99 48.94 700.02 66.41 711.9 106.82 715.86 125.39 731.7 127.58 736.98 125.39 743.57 137.41 735.66 148.34 722.46 157.08 707.94 154.89 697.39 157.08 702.66 166.91 711.9 173.46 703.98 182.21 694.75 184.39 665.71 198.6 664.39 202.97 655.16 217.17 635.36 207.34 622.16 209.52 612.93 209.52 599.73 219.36 587.65 249.47 570.78 252.68 528.13 273.86 527.99 274 528.24 273.87 564.1 277.29 585.21 286.03 545.62 295.87 Z"/>
</g>
</svg>