<?xml version="1.0"?>
<svg xmlns="http://www.w3.org/2000/svg" version="1.2" baseProfile="tiny" fill="#f9c113" width="800" height="378" viewBox="0 0 800 378" stroke-linecap="round" stroke-linejoin="round">
<g fill="#c0392b" id="id_49">
<path d="M 643.39 203.15 633.11 206.75 627.15 205.85 622.28 206.75 600.64 212.16 592.52 215.31 587.65 216.21 569.8 216.66 564.39 216.21 558.43 217.56 545.99 218.46 542.2 219.81 527.59 227.47 519.31 232.73 523.08 243.65 528.33 246.24 530.62 256.75 528.16 263.84 524.88 263.02 519.97 267.12 514.06 269.17 502.42 269.3 502.1 273.12 494.39 277.08 494.39 282.27 487.18 285.27 489.64 289.92 484.39 295.79 481.93 289.78 463.57 290.74 464.39 295.65 459.96 300.16 448.49 293.33 445.05 298.38 438.82 301.11 443.9 308.9 447.5 307.39 448.32 315.45 449.31 319.28 441.77 326.79 438.49 335.26 435.25 341.1 432.71 346.39 436.36 352.06 433.69 357.83 434.59 369.79 432.01 376.38 427.5 377 422.83 375.22 413.45 365.86 407.87 365.49 398.57 361.15 386.72 363.88 380.78 361.18 358.24 361.04 353.2 358.48 325.41 355.82 316.39 346.49 305.41 343.38 296.31 342.77 287.66 335.97 269.22 328.6 252.62 325.39 257.62 334.61 245.28 334.23 237.54 330.85 214.26 326.24 203.97 325.66 203.19 316.99 196.55 311.39 192.21 312.48 187.12 317.53 191.02 323.78 167.86 320.13 148.27 313.88 134.87 312.28 133.64 306.06 124.29 304.66 120.4 299.34 110.97 299.34 101.22 306.88 96.05 303.3 93.27 294.52 77.98 288.31 65.07 291.18 51.67 284.18 39.82 274.52 1 272.27 9.72 261.36 14.9 246.43 31.77 241.23 43.44 241.23 57.06 234.09 46.03 216.56 59.01 213.31 77.17 214.61 86.25 220.46 100.51 224.35 120.62 226.3 137.48 230.19 155.64 236.04 164.72 239.28 180.93 238.63 190.66 228.25 217.9 236.04 207.52 217.21 207.55 216.31 207.94 216.54 207.58 216.32 207.96 208.7 208.55 189.86 208.93 173.32 210.71 144.59 210.04 137.26 210.12 134.75 209.94 134.14 206.17 120.67 202.46 108.17 219.77 95.4 226.33 90.6 280.16 63.33 282.54 61.82 292.68 55.55 313.24 56.84 333.99 48.4 348.9 45.8 348.9 31.52 370.96 29.57 369.66 12.69 390.67 6.05 391.95 5.67 403.4 2.05 405 1.52 406.63 1 411.39 8.15 413.09 10.77 415.24 10.97 424.25 9.79 434.52 8.81 436.19 8.71 461.15 6.85 465.06 7.24 470.44 6.85 470.44 6.84 487.05 6.84 490.07 5.83 490.04 6.09 495.51 4.02 496.78 3.6 507.15 5.55 511.04 10.74 515.58 42.55 531.15 43.85 544.12 50.99 562.28 49.7 590.17 56.19 607.03 63.98 616.11 76.97 601.84 86.06 591.46 86.7 591.17 92.22 591.05 93.88 590.81 98.96 585.54 102.06 581.74 104.24 577.08 107.2 574.56 108.77 574.11 110.48 571.3 120.06 569.41 127.61 586.93 125.01 600.54 123.71 602.49 134.75 608.33 137.35 627.78 136.05 639.35 134.11 643.35 133.45 660.21 130.21 664.1 121.12 669.94 120.47 670.59 108.78 668.64 100.34 680.32 96.44 695.88 95.15 693.93 89.3 686.15 81.51 696.53 72.42 712.74 63.98 721.82 54.24 722.21 52.72 724.52 53.62 730.25 52.29 745.17 63.33 747.12 102.94 747.13 102.98 747.27 103.87 749.51 111.07 750.36 113.97 762.68 115.92 780.19 113.33 790.42 114.8 793.81 115.27 799 130.86 797.05 149.03 785.38 152.69 784.71 157.48 782.94 159.17 780.55 159.09 776.95 165.27 783.16 173.38 782.09 176.77 775.74 182.6 770.12 186.44 764.17 185.51 760.07 187.93 753.43 187.55 747.37 187.25 729.44 184.5 731.05 180.17 727.71 173.16 727.33 168.67 727.83 162.25 729.8 158.36 729.63 155.97 730.25 151.41 730.56 147.43 727.02 141.72 726.4 141.06 708.31 135.58 697.35 139.42 696.08 141.31 694.98 143 694.12 144.28 690.8 149.25 682.56 164.11 681.91 164.95 675.39 173.5 673.15 176.77 665.41 188.13 664.41 189.51 660.71 194.95 658.5 198.32 657.89 199.22 659.86 212.23 650.42 201.8 643.39 203.15 Z"/>
</g>
</svg>