<?xml version="1.0"?>
<svg xmlns="http://www.w3.org/2000/svg" version="1.2" baseProfile="tiny" fill="#f9c113" width="800" height="531" viewBox="0 0 800 531" stroke-linecap="round" stroke-linejoin="round">
<g fill="#c0392b" id="id_43">
<path d="M 300.88 469.1 294 480.77 290.07 495.79 279.27 494.95 264.53 494.12 255.69 494.12 243.9 496.62 235.05 497.46 234.07 505.8 229.16 514.98 228.18 525.83 225.23 521.65 213.44 521.65 210.49 521.65 200.67 524.99 195.75 530 186.91 509.14 179.05 503.3 186.91 498.29 174.14 483.28 164.32 480.77 146.63 489.11 127.96 489.95 112.49 491.2 91.35 485.27 90.24 468.1 89.13 457.45 86.36 444.85 87.47 439.31 90.74 437.13 87.48 439.3 80.88 434.79 75.6 430.21 71.29 427.95 52.55 416.65 47.71 411.91 36.07 369.91 34.13 359.2 37.53 350.77 30.38 337.38 22.05 333.53 15.73 332.12 13.49 328.54 13.5 323.29 10.32 317.3 9.06 311.81 11.67 308.47 14.08 301.97 17.6 297.18 21.39 290.61 24.31 287.49 29.36 286.25 30.93 283.79 29.7 281.11 27.31 278.74 19.43 277.72 8.35 271.76 3.92 270.1 4.26 265.57 5.53 264.55 5.19 261.19 1 257.54 1.39 253.89 3.19 251.45 9.52 249.07 14.39 248.58 15.7 243.52 15.31 224.96 14.44 220.78 15.99 219.22 18.77 212.55 22.61 212.26 23.68 208.16 26.02 205.29 31.92 200.6 31.96 200.57 22.61 200.57 21.84 198.23 26.75 189.76 33.91 185.72 39.7 180.02 42.23 175 38.48 169.79 34.78 167.17 25.73 165.7 24.71 158.69 23.73 155.33 30.01 154.85 30.55 154.72 30.28 144.47 29.43 140.82 31.96 138.22 32.3 129.21 34.86 125.53 35 103.06 36.76 90.69 40.65 76.28 78.13 32.26 99.45 9.67 103.64 11.13 106.17 16.1 116.49 20.67 119.32 19.6 125.45 15.32 129.64 11.62 138.89 11.42 144.44 6.16 149.4 5.58 152.61 1 156.17 1.01 162.4 9.68 171.99 20.05 176.37 31.3 182.12 39.48 189.32 39.33 190.73 40.89 196.87 39.23 205.29 44.3 209.67 42.98 215.46 42.74 218.19 40.21 229.87 39.48 232.6 42.64 234.54 39.87 247.54 39.43 251.83 35.53 256.21 35.44 259.18 36.99 263.17 30.08 270.96 30.61 272.95 33.2 280.98 30.66 288.97 26.33 290.92 24.87 292.81 25.06 296.85 28.86 302.65 37.82 315.99 48.34 322.07 52.33 337.16 63.92 348.41 74.24 362.86 88.12 367.2 93.43 368.22 104.73 372.31 111.79 376.74 115.29 378.78 118.02 375.86 123.62 373.97 126.72 367.1 137.98 368.37 139.98 377.42 145.09 384.53 150.4 388.13 156.78 392.95 155.9 402.68 164.47 409.79 165.06 418.46 166.81 419.97 171.92 418.55 173.77 423.32 179.37 434.47 189.16 446.4 197.97 444.55 203.04 439.19 206.35 426.63 207.47 419.48 216.43 414.66 221.49 423.03 221.3 419.04 224.71 415.68 227.14 411.79 232.93 411.84 238.63 410.08 240.34 411.5 242.53 409.91 246.91 416.96 246.91 420.98 249.12 427.34 249.81 428.03 255.07 432.18 258.67 432.19 258.73 436.99 253.67 447.7 248.67 449.86 246.56 452.83 247.77 457.75 244.05 466.07 242.1 472.57 239.06 477.1 234.55 480.65 230.29 482.28 227.98 485.47 226.76 492.02 226.86 499.37 228.52 504.99 229.88 514.36 229.88 523.81 224.5 530.94 217.27 537 212.01 539.92 213.35 544.2 211.33 551.97 209.57 559.93 205.63 570 201.69 578.06 200.15 582.9 200.05 586.63 197.89 593.47 196.4 598.68 193.82 604.22 190.75 607.66 192.36 616.18 187.44 620.39 183.43 625.55 183.23 627.49 179.14 633.92 178.95 638.59 176.61 643.46 177.97 650.28 175.73 657.48 172.32 664.59 172.23 669.36 169.4 685.03 163.07 698.27 154.5 704.6 147.1 711.61 141.84 718.91 139.12 726.9 125.58 734.88 120.81 741.6 122.07 747.54 127.33 755.03 124.12 764.28 120.9 774.6 111.07 779.82 100.74 784.26 106.4 784.75 110.96 788.68 113.86 793.11 115.1 799 113.86 787.7 128.37 779.84 138.74 777.39 144.54 775.42 149.93 771.49 155.33 766.58 159.47 764.12 161.55 760.19 164.04 754.3 165.28 748.89 168.6 746.93 173.99 744.96 178.56 739.07 187.69 729.24 199.31 736.61 206.78 740.05 215.92 737.59 221.73 731.7 223.39 720.89 224.22 714.02 222.56 710.58 229.62 703.7 235.85 697.8 238.76 690.93 241.25 690.44 244.16 684.05 248.73 680.12 253.3 673.73 255.79 671.77 256.62 670.29 257.45 666.36 259.11 663.91 262.85 662.93 268.26 661.94 272.83 660.96 277.82 659.49 284.05 655.07 289.04 641.07 302.24 627.31 313.88 611.59 319.71 596.85 321.37 585.06 321.37 562.47 322.2 547.73 318.04 547.73 323.03 568.36 327.19 575.24 335.51 586.05 343.83 599.8 345.5 611.59 348.83 576.82 375.5 576.84 375.51 576.82 375.52 575.6 379.15 565.23 391.1 558.13 405.49 558.13 405.54 574.99 409.71 586.78 412.63 593.66 414.3 597.1 415.13 593.66 418.46 588.26 418.05 574.5 415.96 572.54 419.71 568.61 424.29 567.13 430.13 571.06 429.29 577.45 428.46 581.87 428.04 587.27 428.04 594.15 429.71 600.05 430.13 598.08 437.21 555.84 437.21 549.45 438.46 547.48 435.96 542.57 434.71 536.19 428.04 530.78 420.13 513.1 411.38 507.69 408.46 486.08 407.63 484.61 408.05 478.22 408.46 476.75 408.46 469.38 403.88 466.43 403.88 463.97 404.3 460.53 406.8 459.55 407.63 457.1 409.71 455.13 410.96 453.17 414.71 444.81 416.38 441.87 412.63 437.45 406.38 424.67 405.55 420.74 405.55 417.3 404.72 411.9 403.88 408.95 402.22 403.55 399.72 400.6 396.39 396.67 394.3 387.06 391.42 386.79 391.56 379.6 398.48 380.15 410.66 375.17 421.73 373.37 438.07 371.16 452.88 367.42 462.57 365.07 473.64 364.1 480.15 365.9 485.13 340.18 482.44 322.5 478.27 310.71 476.6 300.88 469.1 Z"/>
</g>
</svg>