<?xml version="1.0"?>
<svg xmlns="http://www.w3.org/2000/svg" version="1.2" baseProfile="tiny" fill="#f9c113" width="800" height="665" viewBox="0 0 800 665" stroke-linecap="round" stroke-linejoin="round">
<g fill="#c0392b" id="id_42">
<path d="M 228.6 137.17 232.89 134.25 242.63 127.94 249.74 127.23 260.84 126.42 263.97 122.13 262.16 118.35 258.07 116.83 255.7 106.34 260.89 101.44 263.06 98.87 254.84 90.44 256 85.89 262.16 81.5 263.22 77.11 274.22 75.09 278.66 76.86 282.64 75.55 281.89 68.28 286.83 57.38 294.1 56.17 302.78 49.35 312.72 48.24 326.55 46.98 329.63 46.12 335.63 39.81 343.45 39.66 347.14 37.19 349.56 41.58 356.17 45.52 357.33 49.6 361.62 51.88 365.56 52.18 372.77 48.29 378.07 50.72 383.67 48.49 392.1 48.54 400.03 51.62 408.76 63.43 413.25 65.71 422.28 77.82 425.46 77.97 425.96 77.87 430.91 81.2 437.97 79.69 444.69 76.76 444.23 67.93 454.27 59.85 469.11 59.8 481.83 65.5 492.02 63.23 495.86 57.28 502.72 55.61 507.72 48.95 512.46 48.19 521.49 47.08 524.37 49.91 534.41 54.4 547.13 61.62 559.65 64.34 568.83 71.46 575.69 64.34 579.02 56.62 587.86 55.06 599.76 47.13 608.6 47.03 610.36 40.17 615.31 35.47 617.23 36.84 623.18 32.44 630.95 31.64 634.03 27.4 646.39 27.7 650.58 25.48 652.7 24.87 655.93 28.05 659.72 30.32 663.4 29.01 667.03 32.39 671.68 35.98 675.01 35.02 679.6 33.05 688.94 27.9 695.29 27.75 697.11 28.41 705.14 33.76 708.87 35.72 710.79 34.97 716.09 27.8 728.35 27.85 736.42 24.87 743.34 17.91 746.92 10.19 752.77 4.38 756.86 6.3 759.69 6.5 768.37 1.15 790.17 1 792.79 11.55 796.27 23.96 798.19 35.07 799 38.75 795.62 42.24 790.22 44.96 784.97 42.79 779.27 44.36 769.83 48.44 764.43 53.95 756.05 60.3 753.99 65.1 751.11 70.55 748.13 77.11 737.94 86.4 731.38 91.6 727.59 91.85 724.16 96.34 719.22 97.15 713.31 102.5 703.77 102.65 699.63 106.44 693.18 111.03 690.2 111.99 679.25 107.09 676.52 102.35 672.64 100.33 669.56 103.91 664.81 108.81 658.35 116.18 650.03 124.35 640.34 136.06 631.26 146.86 620.41 158.78 611.67 169.88 607.54 185.12 605.72 198.19 605.57 220.81 602.89 224.59 602.59 233.93 599.92 236.65 600.88 240.54 601.18 251.04 594.06 251.69 595.17 255.53 596.18 262.39 605.47 263.96 609.5 266.63 613.19 272.09 610.67 277.18 604.16 283.39 597.19 287.28 592.09 296.01 592.85 298.48 602.64 298.53 596.38 303.53 593.91 306.36 593 310.7 589.02 310.95 585.99 317.86 584.37 319.48 585.43 323.72 585.69 343.15 584.47 348.35 579.18 348.9 572.72 351.23 570.95 353.9 570.5 357.64 574.94 361.47 575.14 365 573.88 365.81 573.52 370.61 578.32 372.32 583.72 375.15 589.62 378.48 597.8 379.54 600.27 382.01 601.53 384.79 599.92 387.31 594.67 388.62 591.64 391.86 587.7 398.67 584.07 403.62 581.55 410.38 578.87 413.81 580.18 419.51 583.46 425.72 583.46 431.17 583.45 431.16 585.73 434.9 592.19 436.31 600.97 440.35 603.69 445.19 608.34 454.28 604.81 462.65 607.03 474.47 615.1 502.43 619.04 517.67 623.98 522.51 643.97 534.53 647.9 536.65 653.45 541.39 660.18 545.97 659.02 551.73 661.84 564.7 662.98 575.72 664.14 593.41 666.33 605.76 667.04 613.62 664.11 618.73 664.2 623.34 665.31 625.36 668.1 629.28 666.55 631.86 667.02 640.58 671.94 643.32 672.15 650.71 671.85 656.88 674.33 661 674.23 663.97 671.54 664 668.67 661.4 666.81 655.84 662.75 650.06 659.52 649.91 654.07 653.44 651.6 653.97 647.61 651.97 646.65 648.69 642.29 642.97 627.22 642.92 614.25 648.52 601.59 648.27 592.81 644.03 571.36 639.41 564.47 632.16 562.73 624.04 557.68 621.39 546.61 613.39 539.33 613.54 537.95 611.95 527.43 611.7 524.77 613.39 519.54 611.02 515.15 607.12 509.3 607.45 505.3 611.23 504.82 618.43 500.82 619.56 500.8 609.98 499.01 603.13 501.68 589.53 490.78 591.08 480.3 597.15 478.31 608.07 466.3 617.13 448.73 625.39 442.13 618.17 438.32 616.19 434.5 611.91 436.92 607.27 434.5 598.99 445.2 587.28 446.21 577.18 448.63 571.13 449.01 557.54 412.71 543.34 400.34 536.75 402.81 531.96 401.8 529.18 406.5 525.69 409.32 521.83 407.74 518.89 411.94 516.84 421.68 497.74 417.15 496.96 402.58 501.81 398.98 501.03 395.57 498.42 393.92 498.09 391.74 498.22 390.82 498 388.02 498.27 387.07 498.3 386.16 498.45 385.61 499.11 385.62 499.51 386.16 500.12 386.09 500.43 385.7 500.6 384.59 500.71 381.22 499.84 380.83 499.91 380.51 500.42 380.43 501.81 379.59 503.96 379.46 504.91 379.05 505.51 378.44 505.96 377.72 506.27 376.13 506.6 374.6 506.73 373.59 507.05 373.26 507.39 372.29 507.5 371.43 507.46 370.59 507.25 370.32 507 369.93 504.37 369.19 503.97 368.1 503.84 367.5 503.55 366.04 502.49 365.42 502.2 365.01 502.33 364.72 503.43 364.75 504.57 364.61 504.91 362.76 506.13 360.91 506.68 359.45 506.93 357.39 506.68 356.13 506.63 353.95 506.93 351.68 507.32 348.64 508.01 346.48 508.36 344.61 508.83 343.66 508.73 341.75 508.69 341 508.48 340.56 508.61 340.05 509.2 339.59 510.45 339.09 511.01 338.27 511.38 337.44 511.45 336.06 511.1 335.5 511.12 334.75 510.9 334.52 510.62 334.26 509.71 333.9 509.5 333.22 509.62 332.6 509.92 332.12 510.02 330.78 510 329.67 509.89 329.18 509.99 328.37 510.87 328.08 511.06 327.14 511.26 326.18 511.2 324.98 511.42 324.24 511.8 323.55 512.38 322.72 512.7 322.2 512.82 321.68 512.83 319.8 512.39 319.48 512.18 317.64 512.19 316.68 511.98 315.82 512.02 315.26 511.82 314.24 512.01 313.31 512.81 312.04 513.49 310.66 514.12 309.88 514.61 309.17 514.54 308.37 514.63 307.64 514.34 306.83 513.79 305.82 513.97 305.08 513.82 303.4 514.53 301.93 515.85 299.99 516.52 299.44 516.23 297.78 515.84 297 515.78 296.9 515.5 296.44 515.38 295.98 515.59 294.29 517.19 292.37 518.55 291.82 519.62 291.95 521.76 291.63 523.46 291.03 524.45 290.47 526.1 289.9 526.67 288.77 526.76 287.95 526.6 283.65 529.14 276.89 525.3 272.35 529.54 278.3 534.49 275.18 539.03 270.84 544.58 266.7 549.23 269.32 555.38 267.5 560.63 261.85 556.9 258.42 559.22 249.03 566.39 243.18 570.53 238.24 573.45 233.19 578.2 221.78 578.8 218.25 586.47 213 588.9 203.6 584.85 200.79 584.84 186.66 584.56 183.73 577.79 175.96 583.04 161.12 583.14 141.04 582.24 134.38 582.13 127.92 583.85 121.86 585.16 101.98 584.96 88.96 583.65 84.62 588.09 77.35 591.32 66.16 595.18 65.56 593.99 65.38 593.3 65.65 592.72 65.59 592.52 65.32 592.16 63.06 590.86 61.35 590.16 60.81 587.59 63.22 586.78 58.78 572.24 55.25 551.35 45.36 539.54 39.81 522.38 37.33 500.72 36.88 483.81 39.56 481.24 38.85 469.83 31.48 456.96 26.59 444.24 24.21 430.47 25.98 419.97 27.7 407.8 27.7 393.32 26.84 384.49 28.3 372.52 25.63 359.45 23.76 348.75 30.37 340.98 31.83 331.74 31.03 316.15 31.08 298.48 29.11 293.74 28.45 288.69 29.41 285.31 25.63 279.15 24.16 275.26 20.83 274.51 17.25 266.94 11.7 258.66 8.77 251.74 9.02 245.49 6.1 241.2 6.1 237.11 4.18 234.69 4.33 231.81 3.93 228.33 1.45 225.75 1 223.03 1.86 220.45 3.57 214.4 4.94 210.76 12.15 202.08 15.94 198.4 20.03 190.62 17.65 187.44 19.92 184.52 21.24 182.14 20.43 178.46 26.43 174.02 37.08 165.94 46.97 157.82 52.58 159.99 56.21 157.41 63.58 156.4 66.71 154.13 72.21 152.97 82.3 148.08 89.97 146.97 94.97 145.05 96.93 146.66 99.96 145.6 101.83 142.93 108.04 135.71 113.18 131.37 114.14 126.37 119.54 121.63 119.69 115.27 121.61 114.36 124.24 115.12 125.14 114.68 131.39 116.29 136.04 121.39 149.66 119.27 163.64 127.29 164.45 133.6 173.89 143.75 180.45 143.95 187.06 146.83 194.93 140.06 201.04 139.71 205.98 140.97 210.42 144.86 212.79 145.41 215.01 141.27 223.55 138.33 223.55 138.28 228.6 137.17 Z"/>
</g>
</svg>