<?xml version="1.0"?>
<svg xmlns="http://www.w3.org/2000/svg" version="1.2" baseProfile="tiny" fill="#f9c113" width="800" height="372" viewBox="0 0 800 372" stroke-linecap="round" stroke-linejoin="round">
<g fill="#c0392b" id="id_47">
<path d="M 644.17 354.47 639.94 350.08 627.19 353.36 613.13 358.2 607.32 359.45 597.94 366.32 578.82 371 571.51 370.69 572.82 367.72 567.38 360.7 567.2 353.67 550.14 359.92 548.07 364.29 533.64 369.13 523.51 368.66 520.14 361.94 520.51 343.99 516.2 338.37 512.64 341.03 505.51 337.75 504.39 331.82 499.52 327.13 497.64 319.02 493.7 314.18 478.14 309.81 468.02 318.86 462.96 319.02 455.83 322.45 456.77 327.6 460.33 338.06 455.64 340.56 443.27 341.34 437.65 346.33 431.08 346.65 429.96 339 414.4 326.82 418.15 322.92 424.52 318.39 410.65 317.14 406.15 320.42 401.46 317.46 404.65 312.93 402.21 308.25 395.65 306.53 390.96 308.87 390.4 317.3 384.78 318.86 376.71 320.89 366.22 309.34 357.78 304.5 361.9 301.07 367.9 298.26 372.03 295.45 372.21 290.61 369.96 285.46 372.4 280 373.53 277.19 380.65 276.41 382.15 274.23 387.59 266.43 386.09 249.42 388.15 244.58 385.71 240.68 377.28 240.53 379.34 236.16 369.4 238.65 366.22 241 359.65 239.75 366.4 232.57 363.22 231.17 356.47 231.79 354.22 228.67 339.03 228.98 328.34 225.08 322.53 218.69 318.22 220.4 307.72 220.87 307.16 224.3 302.66 228.51 305.66 230.85 304.16 232.88 293.85 233.51 294.03 242.71 291.03 251.14 288.97 257.06 282.97 258.78 279.6 256.44 275.66 256.91 259.54 281.41 255.79 287.8 258.04 293.89 266.29 295.76 267.41 297.95 267.04 307.16 270.41 310.59 270.04 313.71 264.79 314.65 261.41 318.71 249.79 316.99 244.54 318.08 238.57 321.25 229.07 307.7 221.18 297.9 220.57 297.13 216.48 292.14 216.33 291.93 215.38 290.63 209.85 283.11 208.79 285.27 206.55 286.99 200.67 291.38 187.99 298.19 172.03 306.48 157.37 314.13 143 321.71 140.42 323.08 138.24 320.89 95.87 259.41 131.3 239.75 109.93 210.58 144.42 189.83 138.61 181.72 116.3 151.78 127.74 148.51 122.3 140.09 109.55 107.5 91.55 114.67 79.74 114.36 76.37 117.17 50.5 116.39 42.81 118.57 24.62 118.88 7.37 123.4 1.94 128.86 1 124.81 5.31 114.83 4.92 112.43 59.86 83.93 150.73 46.8 150.89 46.76 162.71 43.77 256.72 19.97 256.97 19.91 264.06 18.12 270.72 16.43 289.14 11.77 331.7 1 386.46 30.68 392.2 31.19 393.49 31.3 395.64 31.49 400.8 31.94 403.07 32.14 403.85 32.21 445.38 35.86 460.83 31.94 461.8 31.69 487.11 25.27 487.25 25.26 523.79 24.5 525.13 24.81 534.56 27.02 550.8 23.57 562.45 21.08 564.27 20.69 568.58 19.78 581.01 17.13 581.97 16.93 601.35 12.8 613.95 7.66 621.78 1.95 638.11 6.87 644.51 9.61 645.76 10.14 647.87 11.04 661.22 13.66 666.04 14.53 669.72 17.31 677.35 26.13 677.59 26.4 680.31 27.68 684.33 29.57 689.14 31.82 689.28 31.89 696.33 28.68 715.55 31.67 718.41 34.68 720.52 36.89 721.18 37.58 728.94 45.72 729.07 45.86 733.61 47.34 735.11 49.91 738.19 51.37 738.69 53.66 739.55 55.68 740.05 56.85 742.45 60.04 739.58 63.17 740.07 65.21 741 65.73 742.79 64.92 744.3 64.69 747.27 64.61 750.97 64.94 751.18 64.96 754.29 67.34 754.46 67.47 755.27 71.34 755.31 71.52 758.1 72.21 762.3 73.86 767.27 76.72 772.98 78.33 773.1 78.36 773.3 80.66 772.19 83 774.07 83.45 776.64 83.42 778.39 82.71 778.7 82.58 779.23 82.33 779.74 82.56 780.96 83.03 783.47 85.74 780.15 92.68 784.86 95.01 790.04 94.42 790.44 94.37 795.16 95.28 795.4 95.33 799 98.79 798.9 99.07 797.68 102.43 797.35 103.33 795.54 107 797.67 109.47 797.7 112.96 795.47 114.98 794.97 115.44 786.35 120.06 785.65 124.84 784.3 129.73 788.23 137.53 787.36 140.08 777.96 141.44 757.59 149.15 746.47 157.25 732.88 167.88 736.44 174.38 737.62 179.61 736.01 181.92 732.85 182.99 731.95 185.97 728.61 191.94 725.56 195.21 718.42 198.88 709.1 201.08 707.48 202.43 706.58 203.18 708.89 206.5 706.77 207.86 706.06 213.9 701.54 214.05 696.49 221.29 691.95 224.44 689.11 228.74 686.8 237.4 693.79 243.59 694.67 247.78 694.35 250.16 688.19 253.55 688.52 255.9 696.25 261.68 696.61 263.81 691.31 265.09 680.27 269.11 675.29 277.54 670.42 281.57 662.47 288.66 658.88 291.73 658.03 295.58 654.11 301.24 648.85 304.34 647.88 310.51 651.87 317.76 645.98 322.84 641.93 325.5 640.56 332.98 640.45 333.16 637.69 337.66 638.58 340.1 647.15 342.35 646.07 347.77 644.17 354.47 Z"/>
</g>
</svg>