<?xml version="1.0"?>
<svg xmlns="http://www.w3.org/2000/svg" version="1.2" baseProfile="tiny" fill="#f9c113" width="800" height="613" viewBox="0 0 800 613" stroke-linecap="round" stroke-linejoin="round">
<g fill="#c0392b" id="id_46">
<path d="M 566.75 18.03 567.39 22.01 560.21 38.61 561.77 45.36 570.83 36.28 599.54 28.76 629.82 28.24 642.62 24.61 685.69 25.91 691.31 21.24 710.98 21.76 740.94 9.83 762.17 64.03 771.22 78.04 752.18 83.49 789.32 133.3 799 146.79 741.57 181.3 777.15 229.83 718.16 262.54 788.7 364.83 792.33 368.47 773.75 378.28 749.87 390.93 726.32 403.22 720.19 406.36 708.84 412.17 705.39 413.93 692.97 420.5 680.1 427.28 670.05 432.65 666.76 434.4 651.35 442.31 635.1 450.82 618.74 459.37 607.65 465.16 606.51 465.73 602.6 467.83 598.79 469.76 589.81 449.32 590.39 442.47 585.67 442.14 586.02 438.7 582.64 430.71 579.01 431.61 573.75 424.59 571.57 424.61 556.87 425.55 546.7 429.26 541.76 430.32 537.39 430.47 533.37 429.86 532.13 432.56 529.03 435.01 530.82 435.97 530.42 436.59 531.74 436.54 533.29 436.67 535.03 437.05 534.55 438.4 533.49 438.08 531.69 441.79 535.93 443.78 534.3 444.88 531.39 446.8 531.14 447.18 531.07 447.44 531.07 447.74 531.08 450.17 531.42 454.12 531.93 456.79 533.41 462.69 533.45 462.85 534.22 466.04 534.64 465.94 536.7 470.34 541.45 480.35 541.58 480.31 546.59 479.11 546.61 479.13 547.67 480.48 555.96 490.81 546.58 495.64 498.46 521.09 482.11 528.92 469.56 535.7 465.79 537.73 464.29 538.52 462.95 539.23 454.91 543.61 438.46 552.4 426.28 558.94 410.2 567.57 399.54 573.18 384.92 580.9 384.04 581.37 383.35 581.74 374.75 586.33 361.72 593.5 349.55 600.15 338.32 606.44 327.83 612 249.39 507.46 200.57 442.42 79.15 280.7 1 176.66 89.99 139.38 94.23 134.5 125.71 112.18 140.83 103.96 175.14 104.45 191.42 100.46 217.22 95.63 239.76 90.37 259.38 73.88 269.48 49.05 282.57 14.69 304.12 1 347.83 13.49 388.08 20.31 392.16 68.58 485.2 60.32 566.75 18.03 Z"/>
</g>
</svg>