<?xml version="1.0"?>
<svg xmlns="http://www.w3.org/2000/svg" version="1.2" baseProfile="tiny" fill="#f9c113" width="800" height="512" viewBox="0 0 800 512" stroke-linecap="round" stroke-linejoin="round">
<g fill="#c0392b" id="id_40">
<path d="M 479.48 89.05 482.37 87.93 485.43 90.16 499.29 88.21 500.73 84.77 500.82 79.2 504.07 76.83 507.74 76.32 510.63 78.92 513 76.6 514.02 73.67 516.53 72.61 519.88 72.42 521.69 70.14 525.83 70.05 531.59 64.99 534.94 64.71 539.49 60.48 543.95 55.56 553.02 51.57 558.69 44.46 566.96 35.4 573.66 28.81 574.59 29.13 576.03 30.43 577 29.88 578.68 23.33 581.56 17.94 583.46 17.34 585.42 18.59 586.9 18.64 590.2 12.27 592.25 11.02 595.87 11.16 598.62 12.6 601.41 12.51 603.31 12.18 603.44 14.75 604.75 16.15 610.09 15.55 611.36 10.74 616.33 9.66 621.04 7.83 628.09 7.14 629.88 6.03 634.99 6.17 638.11 3.55 641.29 1.42 644.51 3.37 646.7 4.92 650.07 5.06 654.03 8.48 662.88 8.73 664.96 7.27 666.91 6.19 671.31 4.76 671.22 2.86 674.46 1 676.76 3.19 681.23 3.32 684.24 2.58 687.85 4.69 687.78 9.87 688.97 12.55 691.31 14.71 696.33 14.8 699.44 12.49 706.5 12.03 707.87 14.68 712.66 14.84 713.9 13.74 719.18 13.67 722.28 11.34 725.9 10.81 728.91 10.09 733.76 7.42 737.89 7.4 741.64 6.38 741.8 7.84 740.77 11.05 740.22 14.17 744.19 14.84 747.24 11.1 751.77 16.86 752.33 25.71 753.59 28.53 759.36 30.94 760.95 34.99 759.57 38.74 766.46 43.93 774.47 47.53 789.94 55 792.88 52.66 799 52.87 798.77 57.28 796.95 60 797.06 62.45 795.11 65.65 793.2 76.98 791.71 80.23 783.16 83.21 774.1 86.22 766.01 89.62 756.2 93.33 747.97 98.07 742.58 100.85 735.8 104.15 728.55 105.31 725.9 110.24 718.37 116.97 707.07 130.44 709.26 133.27 709.21 147.02 715.02 147.3 714.28 149.3 707.58 153.94 695.4 154.82 687.22 158.54 676.25 172.98 664.49 184.64 661.52 191.1 661.01 200.43 658.87 204.19 659.38 207.68 661.01 209.54 657.15 215.02 657.8 225.7 659.01 227.18 653.76 230.99 645.85 237.59 644.83 242.33 648.41 245.02 656.41 247.76 650.92 252.68 643.9 259.88 637.49 265.36 635.21 269.12 634.37 272.56 629.59 277.81 623.73 284.4 623.59 294.02 622.43 301.31 621.73 303.45 619.03 312.41 618.34 322.26 614.62 328.34 613.74 334.42 613.72 334.42 607.4 353.92 602.66 364.69 593.55 371.66 592.53 374.73 583.88 378.26 570.96 382.44 564.73 388.66 563.34 401.5 558.42 408.11 556.67 408.79 553.26 406.98 545.86 402.06 544.21 401.46 538.33 401.61 529.77 406.33 525.56 408.12 522.43 409.04 518.12 405.69 514.8 402.63 511.44 403.81 507.93 401.73 504.91 398.82 503.05 399.34 499.15 401.41 487.73 401.14 484.92 405.04 477.8 405.74 472.26 409.82 470.51 408.55 465.95 412.88 464.31 419.21 456.18 419.28 445.25 426.59 437.1 428 434.04 435.1 427.71 441.69 419.3 435.14 407.72 432.62 395.98 425.98 386.73 421.84 384.08 419.24 371.43 420.93 366.81 427.08 360.47 428.6 356.9 434.14 347.56 436.18 335.81 430.95 322.21 430.98 312.93 438.41 313.38 446.53 307.2 449.24 300.67 450.63 296.12 447.58 295.64 447.67 292.7 447.53 284.41 436.39 280.22 434.26 272.24 423.45 264.95 420.59 257.13 420.54 251.99 422.58 247.13 420.36 240.46 423.93 236.86 423.67 232.87 421.54 231.82 417.82 225.73 414.15 223.49 410.14 220.12 412.42 212.88 412.54 207.35 418.34 204.58 419.16 192.59 420.27 182.62 421.32 174.65 427.61 167.95 428.68 163.4 438.71 164.03 445.47 160.4 446.63 156.24 445.05 146.18 446.93 145.2 450.95 139.53 454.99 138.48 459.17 146.06 466.9 144.06 469.27 139.25 473.78 141.39 483.41 145.2 484.85 146.92 488.27 143.99 492.26 135.04 492.86 127.21 493.68 114.36 502.15 109.78 503.17 101.79 505.94 99.7 509.7 97.56 509.24 93.54 505.64 89 504.5 83.33 504.8 76.04 511 69.95 508.4 63.95 508.21 55.21 498.81 54.54 493.05 41.62 485.69 29.05 487.6 24.77 482.93 19.02 481.45 18.19 481.85 17.45 477.18 18.57 474.49 21.64 471.33 21.45 467.15 25.73 463.99 32.51 454.33 40.7 450.62 38 445.97 41.53 442.91 39.67 441.05 39.39 439.75 34.65 435.57 32.7 431.48 31.49 425.35 32.14 417.83 37.26 414.2 36.33 407.98 32.51 405.84 27.59 408.63 22.01 406.87 21.92 403.71 16.8 400.92 13.46 397.58 10.67 393.03 4.44 386.15 1 378.44 2.02 373.61 8.07 369.43 11.32 360.51 13.83 358.38 18.11 358.47 23.87 360.89 31.49 356.89 31.77 352.43 42.83 343.52 50.55 335.62 49.71 328.93 49.71 325.12 53.71 322.89 62.26 320.2 78.44 315.37 94.06 309.7 100.29 309.98 93.68 306.27 74.35 302.83 72.4 297.35 77.14 290.48 70.54 276.17 70.17 274.13 69.98 250.91 69.98 232.14 70.72 219.32 73.14 215.98 80.21 206.6 90.52 198.14 100.84 189.6 101.87 186.25 105.68 184.4 113.39 176.5 118.88 169.63 120.09 165.17 122.69 163.96 131.71 164.61 140.82 163.78 149.74 164.43 156.62 165.45 161.55 166.84 164.99 169.91 169.92 169.44 178.37 164.7 182.84 163.68 185.63 165.17 189.44 165.35 192.23 163.4 194.27 168.14 199.01 167.68 202.64 167.96 207.57 169.35 211.75 168.51 219.19 168.33 221.6 164.33 220.39 160.99 223.74 156.62 231.92 152.07 236.48 152.81 245.4 152.35 248.75 149.38 256.09 147.61 260.28 144.08 267.81 148.63 273.66 150.68 273.38 156.25 275.24 158.85 282.87 159.32 287.33 162.85 294.21 165.63 301.83 164.52 306.76 166.56 313.82 166.56 320.98 162.48 330.84 162.29 335.86 162.75 346.45 157.92 347.01 150.77 349.43 150.49 351.01 152.44 353.89 151.24 353.15 145.57 356.31 144.45 362.07 143.99 367.74 142.32 373.78 145.01 377.41 140.74 387.73 139.07 395.44 136 402.97 137.3 406.14 138.6 413.11 129.22 424.08 117.8 429.56 108.88 430.59 101.91 435.61 99.31 435.33 94.67 436.26 92.62 442.48 88.16 449.08 89.56 450.85 94.94 456.34 96.34 458.85 98.66 462.1 96.25 467.21 94.29 468.98 94.85 471.49 97.82 472.05 95.41 476.51 93.55 476.56 93.55 479.48 89.05 Z"/>
</g>
</svg>