<?xml version="1.0"?>
<svg xmlns="http://www.w3.org/2000/svg" version="1.2" baseProfile="tiny" fill="#f9c113" width="800" height="688" viewBox="0 0 800 688" stroke-linecap="round" stroke-linejoin="round">
<g fill="#c0392b" id="id_45">
<path d="M 612.95 27.5 621.43 30.86 632.17 32.3 647.43 27.5 653.65 25.58 661 29.42 664.95 31.82 672.87 34.7 689.26 35.66 695.48 41.9 698.87 43.82 710.95 44.22 711.03 44.25 707.56 35.96 704.7 30.75 709.47 27.48 716.44 26.02 719.9 26.62 738.43 30.11 753.22 32.41 755.85 33.12 758.59 33.86 762.15 37.73 764.59 40.22 767.13 42.14 770.8 46.82 772.78 50.9 771.93 54.98 770.24 57.62 768.54 58.1 763.74 58.58 760.63 60.74 761.48 62.66 764.87 64.34 767.69 67.22 769.39 73.22 770.8 76.58 771.93 77.06 775.04 78.98 768.26 79.94 760.91 82.1 756.95 84.74 754.41 86.18 752.43 88.1 750.33 96.4 750.3 96.49 749.98 101.42 748.23 105.09 748.55 113.13 742.26 124.03 740.82 135.02 741.94 137.73 747.83 140.91 753.64 148.16 757.78 156.12 766.78 160.82 778.33 165.43 785.89 170.69 799 173.6 790.71 182.93 784.53 197.2 784.57 197.24 784.54 197.32 794.28 207.09 790.79 208.28 776.07 206.25 776.06 206.33 771.18 205.58 758.85 219.92 753.71 234.82 749.61 245.58 757.36 250.2 757.21 251.95 756.27 257.95 749.6 265.58 753.81 275.33 761.35 284.07 756.28 286.2 752.72 297.53 746 298.02 744.46 307.78 744.49 314.5 751.66 324.22 762.96 332.96 761.42 341.18 752.76 343.73 738.29 341.18 744.46 353.51 747.03 361.73 757.31 366.36 752.17 383.31 750.63 394.1 757.82 399.24 751.14 403.87 739.32 407.46 724.42 407.46 716.2 412.09 715.35 422.51 715.52 422.52 715.03 431.18 711.06 433.15 702.36 435.71 710.55 441.92 706.95 447.03 698.73 447.54 692.56 454.22 690.19 457.77 688.9 457.63 683.64 470.81 679.13 474.72 671.78 484.32 669.59 489.48 665.83 501.24 658.32 501.88 651.49 506.9 637.79 505.62 626.97 498.62 607.86 493.84 583.33 492.88 565.5 497.02 540.02 497.02 526.96 494.8 512.63 490.02 501.48 486.2 483.01 485.56 471.86 490.02 461.99 496.39 451.16 506.26 440.65 509.76 397.15 516.94 385.78 524.39 382.75 529.01 375.12 544.14 373.15 549.31 371.48 549.51 364.62 551.06 349.97 548.16 347.87 563.66 350.79 569.02 352.16 579.54 352.59 584.86 351.64 590.27 342.21 593.06 322.84 593.89 316.44 594.94 308.08 600.61 301.9 601.31 287.64 601.44 279.77 601.77 261.18 608.3 254.35 610.42 239.35 619.29 234.72 632.82 235.72 638.53 242.11 657.85 242.11 663.03 240.6 675.73 237.75 682.56 231.32 687 224.96 684.66 213.88 666.85 209.44 648.42 209.71 642.72 213.16 620.8 216.77 577.41 224.9 543.19 225.2 520.3 223.26 486.6 223.33 479.83 224.25 474.31 231.9 457.22 233.88 451.52 236.12 441.9 235.33 436.73 230.95 428.87 228.46 424.05 223.48 413.87 223.33 408.35 225 392.49 225.29 385.71 222.48 371.62 212.28 367.72 199.77 385.17 195.47 389 176.69 393.93 167 402.99 150.57 398.74 137.85 406.34 137.28 415.91 138.38 420.96 129.94 430.02 125.08 434.98 118.08 439.37 106.44 439.81 102.71 424.52 98.93 420.41 94.33 407.78 90.46 392.74 63.14 345.93 53.11 341.78 3.42 345.84 1 336.17 4.2 333.49 2.73 327.65 10.55 320.91 7.4 312.27 8.3 310.29 4.07 296.89 9.56 293.22 10.26 283.43 11.85 278.79 9.94 258.63 12.2 250.05 14.85 248.85 13.21 238.77 14.03 226.02 13.9 210.08 17.23 206.36 14.81 204.38 12.34 200.89 13.68 198.21 9.56 196.23 11.96 175.01 2.77 158.33 1.87 153.32 6.84 151.55 8.74 145.95 8.43 117.2 12.65 109.14 13.12 102.19 16.06 97.69 19.17 95.88 15.72 87.84 17.88 79.98 23.32 65.03 26.99 48.4 31.44 47.15 31.95 39.15 36.41 34.97 42.94 34.61 47.76 38.91 53.61 41.57 56.56 39.66 68.22 39.98 69.7 41.73 77.82 41.57 90 50.37 95.69 53.4 97.64 62.35 105.29 70.43 129.09 75.53 138.77 80.23 152.82 80.54 167.31 74.29 183.99 74.37 188.85 80.74 189.96 84.45 194.34 86.56 197.09 86 203.18 82.02 206.8 82.26 211.22 88.63 213.33 94.84 216.52 97.7 219.46 97.7 219.62 94.4 216.84 89.82 217.15 83.09 216.96 74.77 211.5 71.71 210.94 62.03 212.7 59.21 209.59 54.87 208.36 52.6 208.28 47.47 211.5 41.81 210.71 33.13 208.32 19.6 232.65 26.42 250.45 24.98 271.93 24.02 292.28 14.43 303.59 17.31 318.29 34.58 309.24 40.34 318.29 47.06 328.46 71.06 334.12 65.3 345.42 61.46 348.81 61.46 362.38 61.46 365.77 66.26 366.9 53.78 372.56 43.22 373.69 33.62 383.86 32.66 397.43 29.78 407.6 29.78 424.56 30.74 437 31.7 441.52 14.43 449.44 1 460.74 9.63 474.31 11.55 494.66 16.35 524.25 19.44 519.53 35.54 512.75 48.02 516.14 53.78 516.14 65.3 513.88 78.74 510.49 96.98 521.79 93.14 550.11 86.57 550.15 86.6 550.12 86.57 546.26 84.11 546.37 80.97 563.96 67.86 568.66 58 572.42 44.45 575.44 36.66 579.92 34.76 580.99 35.43 585.36 38.18 589.95 37.62 592.42 32.91 603.34 27.02 607.29 27.02 612.95 27.5 Z"/>
</g>
</svg>