<?xml version="1.0"?>
<svg xmlns="http://www.w3.org/2000/svg" version="1.2" baseProfile="tiny" fill="#f9c113" width="800" height="517" viewBox="0 0 800 517" stroke-linecap="round" stroke-linejoin="round">
<g fill="#c0392b" id="id_41">
<path d="M 699.02 101.75 697.95 109.48 708.89 125.85 713.17 135.66 711.61 149.68 706.44 159.6 710.56 170.34 720.97 179.76 719.34 193.52 728.13 214.4 732.1 229.72 729.38 241.27 756.87 255.01 780.52 270.95 795.23 279.77 799 290.19 785.26 309.99 778.15 315.29 773.18 317.11 767.88 321.67 761.48 334.46 748.79 346.47 737.47 350.42 728.19 354.37 720.98 347.93 712.66 346.38 702.78 352.22 692.96 368.96 684.04 372.2 675.39 378.64 667.61 387.92 651.35 398.34 631.96 406.13 626.12 409.67 617.44 409.73 608.46 413.98 600.17 416.67 594.27 415 588.38 417.9 580.5 418.14 578.17 423.17 571.88 423.44 566.74 428.27 556.11 434.38 552.04 432.46 543.57 436.92 543.58 436.95 538.68 439.38 530.36 441.16 525.76 443.86 519.82 443.95 509.84 445.88 497.45 450.75 487.71 455.57 478.19 457.7 472.87 460.2 469.3 458.54 461.86 464.98 453.03 473.95 441.44 480.54 429.82 480.52 414 476.81 405.96 476.69 401.99 478.18 399.96 481.11 395.71 486.18 390.09 491.8 381.97 495.62 371.79 498 365.82 502.58 362.12 501.07 359.49 503.67 346.33 509.74 340.42 516 335.29 511.55 334.44 505.08 326.6 504.22 321.67 501.51 312.99 501.5 314.98 496.18 313.21 493.43 315.4 491.3 315.16 484.44 319.98 477.22 323.93 474.41 329.17 470 318.84 470.24 324.71 464.01 333.6 452.96 349.01 451.58 355.6 447.54 357.9 441.28 343.62 430.83 329.68 418.61 323.69 411.51 325.37 409.2 323.54 402.94 312.97 400.85 304.11 400.13 292.14 389.58 286.27 390.69 281.87 382.87 273.01 376.24 261.88 369.98 260.38 367.52 269.08 353.78 274.7 342.75 272.67 339.88 267.16 335.68 261.77 326.94 260.52 312.8 255.07 306.03 237.95 289.56 223.28 276.2 205.14 262.18 197.6 257.27 181.09 244.3 173.98 233.28 169.03 228.56 166.71 228.32 164.27 230.15 154.39 235.5 144.59 238.58 142.22 235.38 132.58 234.78 127.71 243.31 124.05 241.34 118.61 241.46 113.43 246.25 97.23 246.88 94.93 250.2 91.58 246.34 77.3 247.24 74.1 250.32 66.94 250.53 61.43 252.24 50.99 246.04 43.44 248.07 41.71 246.16 32.82 246.34 25.78 236.24 20.49 222.47 8.69 209.83 1 198.95 8.87 192.63 20.85 181.7 24.29 174.03 30.21 161.72 40.03 154.32 46.56 147.74 57.75 142.82 64.55 141 70.71 143.57 77.12 140.43 81.16 136.23 92.86 137.61 95.14 135.28 103.46 128.3 110.16 127.64 120.94 123.12 129.95 118.44 141.11 119.46 155.84 107.66 161.89 105.2 169.88 100.02 170.93 101.06 169.91 100.05 173.72 96.22 177.7 93.67 179.88 88.91 181.95 89.06 186.08 93.73 192 95.2 191.7 86.96 192.06 80.67 200 76.06 203.65 69.26 208.08 71.24 209.63 67.13 209.9 61.05 215.38 57.52 215.05 52.91 221.28 46.92 226.13 48.62 232.44 54.85 236.15 54.94 239 56.68 244.96 52.76 251.93 52.58 259.38 49.94 265.97 46.86 271.33 46.71 277.22 51.74 284.32 48.86 289.08 42.09 292.64 40.33 296.98 43.26 303.68 40.63 307.27 43.05 317.18 43.11 325.17 36.82 331.67 31.19 341.19 37.3 344.99 45.84 347.8 56.38 353.22 55.51 357.11 55.39 364.96 51.71 370.22 47.04 376.45 47.04 386.06 52.13 388.42 46.08 390.4 43.95 387.7 39.28 391.24 36.46 400.99 31.73 401.35 28.71 396.77 25.89 406.44 20.29 411.53 18.31 420.06 25.26 433.71 25.41 453.05 25.5 453.05 25.56 457.39 25.26 462.42 21.19 466.91 10.53 473.08 4.24 479.84 4.12 481.28 1 488.28 1.36 491.1 6.51 497.32 15.8 498.28 24.3 500.61 27.9 510.25 20.05 521.51 18.07 526.24 16.58 530.31 19.09 533.66 15.14 543.3 14.9 547.73 12.26 555.93 11.23 557.53 15.15 565.45 29.44 580.17 44 588.02 53.1 591.01 53.46 593.23 54.96 597.42 54.78 599.45 53.46 606.16 52.74 608.91 51.25 612.56 52.86 615.62 51.72 621.42 55.02 623.59 59.8 626.69 58.06 629.62 59.46 638.24 59.35 643 56.68 651.29 56.53 656.41 59.71 669.43 59.77 672.45 58 682.63 58.03 683.7 65.59 699.02 101.75 Z"/>
</g>
</svg>