<?xml version="1.0"?>
<svg xmlns="http://www.w3.org/2000/svg" version="1.2" baseProfile="tiny" fill="#f9c113" width="800" height="831" viewBox="0 0 800 831" stroke-linecap="round" stroke-linejoin="round">
<g fill="#c0392b" id="id_44">
<path d="M 1 728.17 5.51 703.91 8.51 686.05 8.51 670.74 4.01 663.08 13.02 646.5 19.3 625.1 19.43 624.84 16.83 617.17 18.17 606.75 21.82 590.07 27.18 575.71 33.51 528.21 41.25 511.46 40.36 492.85 51.67 481.83 66.37 486.24 72.38 489.43 76.89 494.52 85.16 498.34 89.66 500.89 97.93 502.16 103.19 503.43 109.2 503.43 128.74 504.71 135.5 514.26 140.01 519.99 152.78 517.44 155.79 511.71 158.79 509.8 162.55 506.62 164.05 505.34 169.31 501.52 173.07 500.89 177.58 500.89 183.59 502.8 188.85 507.89 191.1 507.89 200.87 507.25 203.13 506.62 217.4 504.07 236.19 507.89 244.45 512.35 271.5 525.72 279.77 537.83 289.54 548.02 297.05 549.93 300.06 553.75 309.82 551.84 374.44 551.84 377.45 541.01 368.43 540.37 357.91 537.83 349.65 537.83 342.89 538.46 333.12 539.74 327.11 541.01 329.36 532.09 335.37 525.09 338.38 519.36 359.42 522.54 367.68 523.18 372.94 518.08 367.68 516.81 357.16 514.26 339.13 509.8 313.33 503.42 324.12 481.31 340.13 462.99 341.92 457.49 395.11 416.71 377.07 411.62 356.03 409.08 339.5 396.36 328.98 383.64 297.43 377.28 297.43 369.65 319.97 376 354.53 374.73 372.57 374.73 395.11 372.19 419.15 363.29 440.19 345.49 461.61 325.3 468.37 317.68 470.62 308.14 472.13 300.52 473.63 293.53 475.13 285.27 478.89 279.55 484.9 277.01 487.15 275.74 490.16 274.47 499.93 270.66 505.94 263.67 515.71 256.69 516.46 252.24 526.98 248.43 535.99 243.99 546.51 234.46 551.77 223.67 562.29 226.21 578.82 224.94 587.84 222.4 591.6 213.51 586.34 199.54 575.07 188.12 590.09 170.35 599.11 156.39 602.12 149.41 605.12 141.17 613.39 136.09 622.4 134.19 628.42 130.38 632.17 127.21 639.69 120.87 645.7 112.63 648.7 104.38 652.46 95.51 664.48 79.66 681.76 57.47 672.75 59.38 665.99 57.47 659.97 53.04 659.22 46.07 652.42 37.41 652.49 37.28 658.89 31.77 665.15 29.53 675.42 17.62 681.52 34.52 696.55 43.4 708.16 46.82 718.3 41.55 716.35 32.48 723.18 22.92 734.87 26.98 744.36 24.96 746.45 1 770.35 3.08 775.69 14.09 788.07 31.11 799 39.31 794.9 70.04 785.34 91.89 781.24 109.64 792.17 122.62 784.66 125.35 773.78 126.72 773.06 139.08 775.78 149.94 786.71 156.76 790.12 166.32 781.99 173.1 765.58 176.56 729.33 176.57 696.55 207.3 674.01 224.37 658.98 239.39 653.73 258.41 643.95 268.76 628.7 276.2 607.07 309.73 612.53 330.22 618.68 343.88 613.9 356.17 596.85 378.71 579.75 386.9 556.53 384.17 546.28 423.09 549.7 443.58 540.82 470.9 530.42 500.76 526.73 513.69 512.58 519.35 504.69 524.86 510.94 547.94 510.2 569.9 506.85 583.82 511.98 593.2 510.87 607.64 505.43 630.7 508.71 639.57 501.2 651.87 503.25 673.72 482.76 680.55 478.9 685 473.9 690.77 470.47 709.04 463.78 724.93 460.26 740.59 456.36 747.38 450 757.7 441.12 768.61 436.31 782.3 434.86 782.15 429.46 782.11 422.76 780.97 417.19 795.96 406.94 800.74 396.75 810.93 392.69 821.17 387.26 828.02 384.5 830 367.07 826.12 357 819.18 341.81 813.08 329.71 806.71 324.27 796.25 316.68 786.61 308.56 782.22 307.18 778.68 309.08 764.13 317.42 749.57 317.05 738.82 319.32 733.94 319.8 727.39 322.6 716.36 325.23 713.81 328.61 711.89 333.87 708.38 343.64 705.51 352.65 704.23 348.52 701.68 347.02 701.04 345.14 696.58 342.89 688.6 339.13 684.77 334.62 682.54 333.49 679.99 337.63 677.12 344.01 676.48 346.27 675.84 348.52 672.33 349.65 666.91 347.02 661.49 342.13 655.27 338.75 652.72 335.52 649.41 330.79 644.27 330 644.06 327.14 643.28 330 644.06 323.68 642.26 274.76 633.85 265.52 635.93 259.42 640.18 262.92 646.95 267.46 658.04 251.4 657.5 246.89 654.95 238.63 646.66 216.84 645.38 206.32 641.56 201.06 638.37 191.29 633.27 183.03 635.82 162.74 642.2 148.46 640.28 137.19 635.82 129.68 635.18 124.42 635.18 110 642.95 110.11 643.09 106.51 649.44 100.58 650.08 93.38 645.42 87.46 647.96 83.22 658.54 78.36 676.32 71.58 689.65 58.88 699.39 48.72 706.79 48.51 711.24 53.67 714.33 16.03 723.06 1 728.17 Z"/>
</g>
</svg>