<?xml version="1.0"?>
<svg xmlns="http://www.w3.org/2000/svg" version="1.2" baseProfile="tiny" fill="#f9c113" width="800" height="898" viewBox="0 0 800 898" stroke-linecap="round" stroke-linejoin="round">
<g fill="#c0392b" id="id_48">
<path d="M 1 198.92 12.51 192.8 22.65 190.69 45.08 194 51.6 186.17 61.73 184.37 62.45 178.34 55.94 171.72 56.66 153.95 54.49 149.73 38.57 146.12 34.23 134.38 41.46 122.03 72.58 74.76 80.18 73.85 86.7 78.37 98.28 75.06 102.26 63.62 108.05 47.36 107.69 29.6 127.59 28.39 130.49 24.48 124.7 19.96 133.38 11.84 134.47 5.21 154.73 4.31 163.06 1 174.27 13.34 194.9 20.87 224.21 20.27 228.56 26.29 241.58 25.08 247.74 27.79 234.71 41.64 247.37 44.05 253.53 39.53 272.7 34.72 268.72 43.14 285.01 43.45 289.71 50.97 285.73 60.3 288.63 93.12 278.13 108.18 275.24 112.39 261.49 113.9 259.32 119.32 254.61 129.86 258.95 139.8 258.59 149.13 250.63 154.55 239.05 159.97 231.09 166.6 247.37 175.93 267.64 198.22 283.2 194.31 294.06 191.29 295.14 175.03 304.19 170.51 316.85 173.83 321.56 182.86 315.41 191.6 324.45 197.32 333.14 190.99 359.92 193.4 347.61 202.14 340.38 209.67 370.41 233.16 372.58 247.92 385.25 247.32 396.11 237.68 419.99 236.17 429.04 231.35 422.16 211.17 420.35 201.23 434.1 194.61 443.87 194.31 463.42 176.84 493.45 185.27 501.05 194.61 504.67 210.27 514.08 219.31 516.25 230.75 530 237.08 536.88 231.96 545.2 242.8 544.48 277.44 550.99 290.4 570.53 291.3 598.4 281.96 602.38 273.53 635.31 261.48 635.67 275.03 646.17 288.59 643.63 294.31 657.75 294.92 694.66 285.88 712.75 272.62 723.97 270.21 751.11 260.87 775.72 254.55 783.89 263.01 785.54 282.38 784.47 292.62 783.14 310.13 787.9 315.92 788.7 319.23 786.5 327.92 789.02 335.04 792.63 340.08 793.2 347.29 780.35 358.93 769.32 366.92 762.59 371.29 755.71 383.97 749.83 398.85 749.98 419.02 752.47 425.05 762.53 424.17 762.96 424.14 766.81 427.96 795.34 658.3 799 667.47 738.99 643.06 729.97 643.37 729.51 643.49 723.88 645.05 715.76 649.96 715.33 650.22 706.56 655.81 703.77 659.42 702.45 662.42 703.04 666.82 704.77 670.55 706.27 672.63 709.31 674.46 715.22 676.42 718.52 677.4 720.68 678.83 721.64 681.22 721.97 683.85 721.75 686.66 720.72 689.56 717.42 694.21 714.96 696.5 712.76 697.46 709.89 697.04 706.93 696.12 694.47 693.43 670.31 682.74 667.48 684.08 669.21 688.39 665.34 706.46 660.96 709.93 655.58 711.83 648.18 710.72 638.7 723.09 636.05 733.74 602.08 748.83 598.55 749.61 560.94 761.68 542.36 767.34 514.99 775.68 498.77 789.67 484.05 810.9 480.61 820.38 480.27 820.94 463.76 847.71 463.49 847.93 436.44 869.41 413.49 880.25 403.32 882.38 395.6 891.76 392.62 895.34 360.12 897 325.13 875.44 322.91 874.07 290.43 853.13 287.39 851.16 281.9 846.45 273.88 843.29 267.03 840.97 263.36 831.4 273.75 813.71 274.13 813.31 294.92 791.36 311.28 785.64 312.08 785.43 324.3 773.06 332.45 760.01 332.42 759.62 331.77 752.52 330.65 745.53 323.76 738.03 308.45 727.69 307.73 727.43 287.95 720.31 269.01 712.75 251.72 699.35 231.47 695.1 215.54 692.76 209.26 691.3 193.44 687.64 177.87 685.74 167.86 686.35 155.34 677.53 147.79 672.03 132.68 658.55 122.34 652.99 116.24 643.24 111.48 635.63 103.99 626.44 95.16 622.05 83.22 619.88 64.66 614.43 52.49 611.27 44.64 609.23 31.36 603.42 31.18 596.65 33.93 592.34 35.6 581.96 38.52 578.8 43.84 586.02 54.58 595.41 70.3 598.68 78.19 598.46 84.4 597.41 92.62 596.33 99.55 595.42 106.38 594.71 123.47 598.04 132.61 599.41 133.02 599.47 140.75 602.29 143.15 601.99 148.11 599.77 153.42 593.01 153.71 592.44 156.24 587.44 156.37 587.17 160.37 578.57 164.53 570.95 168 568.56 172.86 565.21 170.66 560.22 160.16 541.06 160.08 540.78 158.66 535.5 154.38 526.89 139.97 529.65 132.9 529.29 125.5 531.22 118.14 531.75 109.29 529.67 108.68 528.83 108.22 528.89 107.5 527.45 109.45 524.13 110.16 522.17 109.06 520.78 105.79 517.68 105.58 516.39 149.06 504.37 156.49 502.32 169.25 495.61 169.44 495.51 176.78 491.65 177.41 491.32 177.51 491.27 179.15 490.4 191.75 483.89 192.25 483.63 205.88 476.58 206.62 476.2 188.35 452.19 187.8 451.46 116.93 355.24 80.31 305.53 71.39 294.12 61.71 279.91 45.48 258.85 29.36 237.88 18.51 222.33 1 198.92 Z"/>
</g>
</svg>