<?xml version="1.0"?>
<svg xmlns="http://www.w3.org/2000/svg" version="1.2" baseProfile="tiny" fill="#f9c113" width="800" height="1023" viewBox="0 0 800 1023" stroke-linecap="round" stroke-linejoin="round">
<g fill="#c0392b" id="id_4">
<path d="M 147.24 277.31 151.51 277.04 152.62 271.5 155.15 269 153.71 266.24 157.85 261.7 158.39 254.76 162.4 252.09 168.41 251.48 174.22 250.02 180.76 248.75 188.64 245.88 210.35 245.68 217.7 242.07 218.63 242.07 218.7 240.67 219.9 241.07 221.97 239.27 225.31 239.47 228.79 237.6 231.92 236.93 233.93 236 235.46 235.86 238 235.06 241.74 234.86 241.68 235.26 243.61 235.4 243.81 234.93 245.42 234.86 245.95 234.26 247.02 234.26 247.95 233.66 248.76 233.99 249.82 233.33 250.36 233.33 252.36 232.26 255.37 232.26 255.9 232.73 256.9 232.86 256.97 233.06 257.97 233.26 258.51 233.79 259.04 233.73 259.51 234.33 260.78 234.33 261.98 234.99 268.52 234.86 276.34 233.73 280.21 231.99 285.09 221.91 291.3 211.23 294.71 199.08 310.4 178.72 312.17 157.55 314.94 147.31 317.62 128.45 309.93 110.45 298.15 102.91 298.81 101.81 299.75 100.94 300.48 100.54 300.45 100.07 300.95 99.37 301.52 99.34 301.65 95.37 301.15 95.23 301.65 94.26 301.59 92.46 302.15 91.73 302.09 91.19 302.52 90.86 302.75 89.26 303.19 89.26 303.69 88.66 303.69 88.19 304.22 87.55 304.29 86.25 304.62 85.22 304.69 83.65 305.19 82.11 306.19 81.18 306.19 80.58 306.7 80.58 306.7 80.01 316.55 64.42 325.4 54.78 321.96 42.72 310.1 33.61 303.89 28.04 300.97 22.56 304.14 17.71 305.73 17.64 306.18 17.16 306.16 16.62 307.25 15.65 307.65 15.65 307.7 15.17 308.23 15.14 308.25 14.59 308.68 14.13 309.2 14.12 309.72 13.6 310.29 13.6 310.77 12.6 311.3 12.57 311.8 11.6 312.27 11.58 313.27 11.06 313.82 11.07 314.33 10.55 315.31 10.05 316.34 10.03 316.34 9.55 316.84 9.04 317.35 9.03 317.88 8.53 318.35 8.54 318.88 8.03 318.9 7.02 319.92 7.02 320.89 6.49 321.41 6.47 321.41 5.98 321.91 5.99 322.44 5.48 322.93 5.46 323.43 4.96 323.94 4.97 325.05 4.42 326.02 4.45 326.46 4.05 331.53 3.95 332.13 4.52 332.94 4.35 335.57 5.52 337.58 5.52 337.64 5.96 338.14 6.49 338.55 7.56 341.72 7.53 341.72 7.99 345.76 8.09 346.29 8.53 347.76 8.63 348.26 9.03 350.77 9.49 350.87 10 351.9 10.06 352.44 10.66 360.09 10.56 359.92 11.1 363.09 11.1 363.49 10.53 379.79 10.54 380.81 10.05 381.84 10.04 382.33 9.54 384.36 9.54 385.38 8.53 388.94 8.52 388.93 8.02 389.43 7.52 393 7.5 393 7 394.01 6.5 394.51 5.99 396.04 6.01 396.11 5.47 396.51 5.02 397.03 4.96 398.05 3.97 398.51 3.92 398.56 3.42 399.05 2.95 399.62 1.85 399.65 1 453.3 92.23 453.31 92.24 503.79 80.41 591.52 70.93 614.82 85.13 631.76 84.95 664.35 92.96 699.08 138.92 704.21 171.44 681.98 202.98 683.59 236.1 693.47 240.1 707.63 251.85 752.25 259.86 776.02 281.49 799 330.1 792.05 369.35 780.02 412.91 773.89 457.74 757.32 495.66 763.2 526.64 762.67 581.11 754.12 613.16 731.68 655.35 703.89 700.22 695.88 731.19 691.88 759.92 684.66 756.29 684.63 756.28 691.88 759.93 672.37 848.22 671.83 910.71 650.2 938.9 640.58 958.24 627.32 974.77 605.85 979.87 594.54 981.14 575.92 979.87 554.99 981.33 555.01 981.39 539.59 982.75 524.63 980.88 508.07 986.75 473.6 987.29 457.31 989.69 445.02 993.96 421.51 994.23 393.99 1000.64 354.98 1022 330.41 1009.18 308.23 1006.25 268.42 992.36 219.27 965.12 194.96 958.18 173.05 960.85 159.69 965.39 134.31 965.92 127.9 947.76 118.28 929.6 105.19 916.52 103.86 901.03 74.2 893.82 45.35 872.19 46.15 844.15 35.2 836.14 21.57 827.33 11.69 830.26 1 815.04 7.14 797.42 8.79 761.6 32.36 748.91 69.39 737.6 77.67 722.38 71.8 685.79 88.63 667.64 92.64 641.2 93.97 621.44 130.84 591 131.11 582.98 124.69 569.63 119.08 538.92 122.82 524.77 122.56 524.57 119.35 509.61 122.29 506.41 136.72 498.93 157.29 483.44 156.49 473.83 159.69 470.63 160.76 460.75 168.78 453.8 192.02 434.84 191.15 405.8 189.01 380.5 183.94 366.41 177.79 348.19 166.57 328.23 163.97 316.81 156.02 303.19 148 293.04 142.6 281.25 141.56 278.45 147.24 277.31 Z"/>
</g>
</svg>