<?xml version="1.0"?>
<svg xmlns="http://www.w3.org/2000/svg" version="1.2" baseProfile="tiny" fill="#f9c113" width="800" height="626" viewBox="0 0 800 626" stroke-linecap="round" stroke-linejoin="round">
<g fill="#c0392b" id="id_58">
<path d="M 200.62 605.62 198.33 588.03 190.38 593.89 188.39 590.82 161.89 595.28 156.58 580.79 142.01 579.67 138.03 579.67 130.08 555.14 123.46 550.68 112.86 548.45 106.23 541.77 107.55 528.39 106.23 527.28 89 528.39 91.65 517.25 80.79 501.99 95.95 494.31 104.68 482.5 102.27 472.29 84.11 470.68 75.27 465.71 59.11 468.32 57.81 463.6 41.85 460.56 29.61 461.23 24.59 450.69 38.54 426.82 46.87 426.65 49.58 414.68 39.74 393.68 32.01 393.85 28.4 405.32 16.76 406.16 17.76 416.87 9.33 415.44 1 407 3.81 391.74 3.11 371.01 15.85 356.51 47.27 359.29 60.72 354.4 80.49 354.91 79.39 364.01 99.16 366.12 115.22 361.4 129.67 351.2 140.41 347.66 149.45 354.57 156.67 330.55 151.66 309.74 145.53 304.61 144.93 298.96 157.98 300.31 173.14 294.75 181.67 281.02 179.26 269.82 193.61 265.19 204.75 254.41 210.97 243.63 194.11 246.24 180.26 255.42 166.01 252.31 166.01 244.65 148.95 245.32 152.76 235.3 149.25 232.02 150.25 214 174.74 224.53 186.48 218.04 196.92 217.46 198.63 200.71 201.04 191.2 211.88 175.88 208.26 171.93 213.58 157.8 209.07 152.92 200.24 158.64 187.79 152.58 181.77 144.59 157.68 129.87 140.11 130.71 134.79 117.09 126.26 117.68 124.36 121.88 96.35 118.27 88.72 105.32 81.3 106.83 71.46 114.48 74.37 120.87 70.56 124.66 61.72 114.57 54.7 94.39 56.71 78.67 50.28 73.54 48.27 64.55 56.71 50.34 61.32 37.32 67.04 33.79 62.33 24.05 72.36 13.46 75.28 6.78 80.74 6.72 91.85 6.94 100.75 9.33 107.74 9.74 111.13 10.13 122.32 11.09 126.59 9.24 130.11 6.96 135.8 4.81 141.17 4.7 143.77 4.36 147.55 3.02 151.3 1.97 154.28 1.11 156.96 1 159.63 2.44 162.41 4.14 166.04 6.92 167.91 10.23 170.74 11.16 173.8 10.9 178.35 9.09 181.9 9.11 183.96 9.37 186.2 7.71 190.24 7.18 192.83 8.25 194.92 11.05 198.82 11.72 203.07 11.89 206.74 11.31 208.29 11.61 208.13 13.85 205.9 15.66 205.02 18.26 206.38 18.8 208.34 18.65 210.7 18.95 214.28 21.34 216.41 25.02 218.39 25.82 221.69 26.16 223.07 27.45 223.33 28.89 222.53 29.88 223.95 31 227.09 31.56 236.5 35.31 237.63 35.67 239.22 35.98 242.31 36.11 244.37 35.29 248.12 32.34 250.36 30.81 253.44 30.16 254.45 30.53 254.04 31.93 253.08 33.48 251.9 34.99 252.7 35.85 255.06 35.24 256.38 35.57 258.15 36.17 259.2 37.85 259 38.99 258.61 40.26 259.28 40.69 260.26 40.22 261.47 37.76 262.98 36.06 263.91 35.65 264.89 36.3 265.89 37.46 266.79 39.03 268.1 39.33 269.03 38.84 270.13 36.51 271.88 34.36 273.14 33.46 274.94 32.47 276.15 31.86 276.69 32.45 277.1 33.87 277.92 35.07 279.6 35.87 280.86 35.18 282.14 34.23 284.15 33.5 286.69 33.48 289.75 34.04 291.84 33.69 294.77 32.75 296.41 33.07 297.01 33.69 296.83 35.01 295.8 37.35 294.15 41.29 295.44 41.72 296.98 41.27 298.7 40.5 299.71 40.48 300.12 41.34 300.12 42.56 300.4 44.59 301.38 45.6 302.97 45.79 305.11 45.36 306.31 45.25 306.96 45.77 307.24 46.63 306.7 47.26 305.77 48.42 305.93 49.28 307.32 50.47 309.63 51.78 310.4 51.86 312.33 51.63 314 51.2 314.78 51.56 314.85 53.22 314.7 54.6 315.88 55.61 317.37 56.47 318.2 57.91 318.84 59.47 319.82 59.7 321.44 58.09 323.06 56.54 325.7 54.94 326.17 56.32 326.99 57.14 328.66 56.97 329.36 57.74 329.2 59.29 329.9 60.97 331.34 61.77 332.62 61.79 333.55 61.06 334.32 60.54 335.3 61.06 339.49 65.26 342.39 68.53 342.19 70.55 343.09 72.75 345.3 73.76 348.64 75.34 350.44 77.98 352.68 79.66 353.86 82.49 354.84 83.39 354.35 84.21 355.07 85.41 355.28 86.25 354.56 86.94 355.17 87.29 356.18 87.42 356.56 87.93 356.97 89.49 357.36 92.48 360.65 99.5 362.63 99.69 365.69 96.38 365.92 95.09 365.29 94.55 365.95 94.24 367.46 93.58 368.34 92.98 370.19 92.37 371.21 91.84 371.8 91.6 372.6 91.86 373.07 92.53 373.25 92.88 374.03 92.68 374.53 92.82 375.58 92.94 375.76 93.19 375.04 94.3 375.33 94.49 376.32 94.17 377.19 93.93 377.65 94.51 378.74 94.98 379.35 95.16 379.72 95.33 379.7 95.86 380.15 95.86 380.8 95.63 381.67 95.61 382.61 95.72 383.22 96.65 383.6 97.34 384.28 97.91 384.67 98.01 385.27 97.81 385.49 98.11 385.67 98.85 385.88 99.19 386.41 99.25 387.21 99.68 387.84 99.47 388.17 99.68 388.61 100.28 389.33 100.77 389.86 101.74 391.3 102.23 392.08 102.92 392.76 104.51 393.35 104.71 393.59 104.46 398.21 104.08 406.5 103.31 411.95 102.75 413.55 102.77 417.88 102.88 424.52 105.81 435.37 109.64 443.66 109.84 448.1 111.87 454.76 111.07 459.91 106.03 466.9 102.78 471.61 104.35 480.2 106.37 489.87 106.83 502.54 106.72 521.47 112.36 523.4 114.41 533.33 117.9 540.18 120.67 548.15 128.31 558.09 130.61 563.33 130.41 568.7 127.87 574.61 122.12 579.7 115.15 592.31 115.25 606.63 114.87 621.32 114.39 627.21 113.55 633.1 113.6 636.61 114.49 641.88 116.1 651.01 120.84 651.11 125.39 656.01 134.67 657.3 137.17 656.32 144.63 653.21 147.39 649.43 151.31 647.73 158.14 647.86 161.98 650.38 164.43 655.6 166.29 657.45 168.18 657.25 172.47 657.92 179.22 659.46 187.2 646.64 197.16 636.25 203.26 633.63 213.72 632.86 222.69 628.77 226.79 623.96 229.76 621.31 233.69 618.1 236.36 617.8 238.88 617.12 240.79 611.83 245.38 607.32 247.88 605.59 249.43 605.56 255.19 606.31 257.98 607.79 260.24 608.19 262.37 606.62 264.03 606.55 264.76 607.27 265.07 608.01 265.32 607.16 266.19 606.6 267.63 606.85 268.8 607.88 269.38 608.04 270.29 606.8 271.67 606.98 273.01 607.73 275.4 607.5 277.26 606.42 277.8 604.62 278.29 603.9 279.18 603.87 280.58 604.85 281.33 604.75 282.28 604.44 283.36 605.47 287.76 606.21 289.97 605.98 291.02 606.65 292.45 606.98 293.66 606.52 295.6 607.11 297.86 607.29 299.27 606.65 300.58 607.06 302.65 606.7 305.33 607.01 307.19 606.57 308.55 604.95 309.24 604.49 310.19 605.13 311.59 605.65 312.45 606.67 313.77 607.5 315.11 607.88 315.76 606.98 317.05 605.49 317.27 605.39 318.5 605.57 319.84 604.51 320.49 603.15 321.07 603.56 322.6 603.69 323.98 603.66 325.21 604.05 327.29 603.3 328.17 602.53 328.6 603 330.18 603.87 331.6 602.87 332.12 599.63 335.36 599.04 336.31 599.34 338.4 600.3 342.03 601.43 343.95 601.2 345.59 601.71 347.58 603.3 349.28 605.64 350.3 605.46 351.98 604.54 353.78 604.38 355.63 605.36 358.91 606.75 361.31 609.68 361.4 613.26 362.15 616.39 362.43 618.71 362.43 621.02 359.99 623.31 359.99 625.81 361.29 627.76 362.59 628.84 363.77 628.66 365.22 627.63 366.84 626.37 367.73 624.47 367.73 622.33 366.71 619.4 365.76 616.83 365.65 614.36 367.34 614 369.84 615 373.3 617.58 374.87 619.89 374.68 624.55 373.45 625.58 373.45 628.35 372.97 629.6 373.05 630.86 373.88 633.61 375.82 634.22 376.03 635.43 375.57 635.93 374.83 636.12 374 636.76 373.5 638.36 373.59 639.08 373.57 640.44 373.45 642.11 373.62 643.44 373.4 644.56 373 645.17 372.57 646.96 372.13 648.72 371.74 651.08 371.52 653.54 370.47 654.99 369.84 659.22 367.81 660.12 367.1 661.51 365.86 662.28 365.07 664.41 363.41 666.38 362.53 668.46 363.3 670.94 365.33 673.16 366.67 677.64 366.41 679.14 367.44 679.36 368.32 679.2 369.84 679.53 374.57 682.14 377.91 684.54 379.07 686.76 379.45 688.25 379.11 688.46 378.35 689 377.08 689.83 375.55 690.56 374.04 691.03 373.65 695.07 370.93 696.56 370.69 697.88 371.21 700.05 372.2 700.89 372.55 702.69 372.12 704.48 371.74 705.62 371.69 708.23 371.75 710.51 371.67 711.37 371.53 711.96 371.3 712.31 370.9 712.32 370.28 711.87 369.37 711.31 368.36 711.13 367.36 711.43 366.44 712.18 365.76 713.44 365.64 714.64 366.32 715.84 368.89 716.37 369.63 717 370.15 717.4 370.33 717.95 370.25 720.31 369.77 721.94 369.61 723.59 369.27 724.86 368.08 726 366.56 727.4 364.3 728.07 363.17 728.13 362.39 728.15 361.8 727.85 360.35 727.19 359.29 727.08 358.55 727.22 358 727.76 357.04 728.41 356.71 730.14 356.72 732.37 356.64 736.74 356.99 737.86 357.12 738.69 357.31 739.37 357.57 740.4 358.24 741.49 358.99 741.6 359.34 741.54 359.59 741.14 360.13 740.81 360.85 740.76 361.27 740.81 361.81 740.7 362.28 740.33 363.05 739.52 364.28 738.71 365.14 737.58 366.7 737.65 367.33 738.15 368.73 739.34 370.32 739.55 370.88 740.36 372.83 741.11 374.43 742.16 375 742.97 374.88 744.03 374.26 746.68 372.95 747.34 372.64 747.6 371.98 748.26 370.38 748.61 369.52 748.93 368.12 749.62 366.51 750.19 364.95 750.7 364.55 751.32 364.43 751.79 364.46 752.28 364.78 753.02 366.12 753.6 366.94 755.2 367.84 756.64 368.49 758.33 369.55 759.31 370.29 759.43 370.77 759.43 371.93 759.21 373.62 758.73 375.52 758.1 376.59 756.53 378.17 754.74 380.07 753.33 381.41 752.44 383.2 752.32 383.94 752.09 384.77 750.88 385.71 749.43 387.05 748.65 388.03 747.62 389.5 746.96 390.11 746.67 390.52 746.4 393.47 746.05 395.53 745.88 397.16 746.02 399.33 746.08 401.01 745.65 401.1 745.3 401.26 743.47 402.41 742.07 403.79 742.09 404.19 742.24 404.64 743.05 406.12 744.5 408.12 746.01 409.71 747.41 410.96 748.25 411.11 749.62 411 750.61 411 750.89 411.22 752.37 412.71 753.19 413.32 753.72 414.61 754.3 415.61 754.74 417.44 755.09 418.37 756.52 420.27 757.46 422.39 761.87 429.36 764.72 429.77 765.65 429.92 766.91 429.68 768.49 428.68 770.24 426.93 773.3 423.4 774.99 422.88 775.83 421.69 777.17 420.27 778.57 419.1 780.25 418.73 781.43 419.87 783.2 421.43 784.57 422.17 786.04 422.53 787.46 423.13 789.45 424.24 792.46 425.79 795.74 428.02 797.26 429.26 799 430.88 798.91 432.27 798.27 436.32 797.28 437.66 797.04 437.79 796.25 437.91 795.83 437.77 794.04 436.48 793.38 436 790.7 434.97 788.9 435.09 788.16 435.42 785.66 436.98 783.94 438.52 783.53 439.56 783.49 440.53 783.6 442.04 784.39 443.95 785.2 445.49 786.41 446.33 786.88 446.76 788.38 448.11 789.09 449.05 789.36 449.85 788.93 450.94 788.3 451.44 787.77 451.74 785.39 452.55 781.83 453.08 778.22 453.59 776.33 454.13 775.64 454.77 775.33 455.6 775.36 456.23 775.84 457.28 776.92 458.45 778.56 459.75 780.57 460.32 782.77 461.19 784.18 461.31 786.5 461.58 787.27 461.77 789.92 462.15 791.97 462.7 792.28 463.08 792.46 463.49 792.42 464.02 792.17 464.97 791.73 465.48 790.98 465.98 788.69 467.05 787.04 468.23 786.01 469.73 785.73 470.73 785.86 472.95 786.51 473.37 787.1 473.59 788.05 474.27 788.51 474.8 788.59 475.26 788.41 476.63 788.15 477.08 787.7 477.4 787.24 477.5 785.24 477.16 782.95 476.79 781.77 476.5 778.29 475.71 775.8 475.04 773.89 474.36 771.77 473.29 768.19 472.63 766.18 472.66 765.25 473.21 764.89 473.73 764.75 475.28 764.73 476.01 764.71 477.33 764.89 477.94 765.97 480.44 766.35 481.75 766.25 482.76 765.85 484.64 765.59 485.3 764.08 488.11 763.57 488.86 762.29 490.56 761.57 491.31 759.51 492.55 756.84 492.92 753.54 493.45 751.5 494.35 750.2 495.17 749.17 497.21 752.39 500.74 755.43 502.34 756.97 503.4 758.98 503.88 760.42 504.33 761.22 504.66 761.23 505.41 761.42 506.43 762.68 509.68 762.22 511.8 759.62 512.21 756.2 512.19 753.4 512.51 750.93 514.56 749.05 515.71 746.99 515 744.96 514.2 743.98 514.67 743.55 516.29 742.8 516.12 742.39 514.43 741.9 512.19 741.21 511.26 740.51 511.58 739.74 512.64 738.87 514.3 738.1 514.54 737.07 512.73 735.96 511.8 733.44 512.14 731.82 512.81 731.1 512.99 730.84 513.87 729.92 514.43 729.2 514.89 727.66 515.06 726.45 515.67 726.11 516.6 726.7 518.09 726.27 518.98 726.32 520.1 727.5 521.83 727.78 523.19 728.3 523.82 728.09 525.1 727.22 525.72 726.45 526.18 724.93 527.37 722.26 526.72 719.74 525.31 712.3 521.9 707.49 521.41 692.77 521.45 690.68 518.33 688.62 514.92 687.83 513.68 683.34 510.28 676.44 502.68 671.63 497.78 662.35 496.72 645.43 503.16 631.44 517.56 628.07 521.35 624.7 522.64 610.95 526.98 601.12 533.34 592.61 537.84 585.92 540.14 578.7 546.18 570.2 553.7 563.46 557.47 557.41 559.44 548.92 562.16 540.96 555.69 535.51 553.9 530.93 552.96 520.38 554.97 517.07 556.23 509.86 556.35 506.99 560 506.06 560.76 504.21 560.99 499.69 560.81 492.83 561.32 490.94 567.1 487.66 572.07 480.59 576.84 467.03 579.88 456.59 582.54 452.3 583.45 445.05 590.7 433.42 597.25 427.27 599.31 419.27 601.45 409.68 606.51 399.52 619.26 381.86 625 370.83 621.67 362.96 622.16 351 622.21 341.72 617.62 334.64 616.22 328.98 614.92 318.52 609.7 307.15 610.41 299.8 611.37 293.78 608.27 283.75 608.32 274.31 606.65 267.11 604.31 258.97 602.66 254.06 600.95 248.12 602.57 242.51 603.35 230.84 605.28 219.44 608.65 212.22 609.13 200.62 605.62 Z"/>
</g>
</svg>