<?xml version="1.0"?>
<svg xmlns="http://www.w3.org/2000/svg" version="1.2" baseProfile="tiny" fill="#f9c113" width="800" height="516" viewBox="0 0 800 516" stroke-linecap="round" stroke-linejoin="round">
<g fill="#c0392b" id="id_59">
<path d="M 719.8 339.99 718.08 347.23 729.27 346.5 730.13 347.23 729.27 355.91 733.57 360.26 740.46 361.71 744.76 364.6 749.93 380.53 752.51 380.53 761.98 381.26 765.42 390.67 782.63 387.78 783.92 389.77 789.09 385.97 790.58 397.39 785.55 399.53 780.99 403.11 777.7 405.68 774.81 407.07 770.97 407.08 766.54 406.84 758.91 407.84 754.77 407.48 751.53 403.91 748.12 400.01 745.25 396.34 741.28 395.07 738.24 394.9 736.22 395.87 728.67 401.02 729.17 401.66 730.25 402.52 730.3 403.29 729.68 404.71 729.27 406.13 729.57 406.77 730.2 407.36 730.59 408.71 730.6 410.23 729.7 411.51 728.23 414.25 725.98 415.27 723.99 415.32 722.1 416.09 715.87 418.75 709.94 420.51 708.41 420.65 706.19 420.88 704.05 421.29 703.14 422.54 702.09 423.93 701.12 424.92 700.14 426.04 699.27 427.39 698.39 428.83 697.18 429.97 695.67 431.21 694.77 432.33 694.99 432.8 695.69 434.16 696.12 436.09 696.36 436.48 696.62 437.04 696.6 437.58 696.73 438.37 697.24 438.93 697.77 439.54 697.98 439.92 698.1 440.6 684.72 447.06 676.75 452.55 672.22 457.65 669.62 459.6 666.92 459.52 663.57 458.79 660.54 460.75 647.18 466.2 629.86 463.21 611.45 458.36 606.95 449.57 598.59 437.85 595.2 426.53 591.22 416.21 582.08 416.41 582.07 416.4 581.89 416.4 573.95 412.43 577.9 403.69 576.09 392.58 568.76 394.16 550.93 410.84 550.85 410.85 550.77 410.93 541.01 413.03 535.89 413.46 530.9 413.03 515.82 424.34 510.77 428.94 503.92 434.46 496.58 438.43 491.62 450.92 480.33 453.6 480.31 453.59 479.77 453.72 464.87 436.84 452.75 425.52 438.25 410.82 428.72 404.47 417.84 390.83 389.25 393.59 371.2 393.99 371.03 393.94 370.99 393.94 350.53 387.84 319.62 385.86 309.9 384.67 299.18 384.07 289.66 383.87 289.6 383.81 289.47 383.81 283.17 377.11 271.81 376.13 269.03 389.82 278.16 406.09 276.96 418.59 251.57 438.03 231.73 442.59 209.91 455.29 187.89 468.78 167.65 472.15 155.95 475.52 144.84 479.29 139.68 487.23 140.08 499.13 123.81 499.13 116.87 510.83 107.15 515 100.01 510.63 99.55 510 99.82 510.03 100.96 502.69 108.18 495.96 104.81 484.42 104.8 484.41 104.8 484.39 96.15 482.46 94.23 471.91 97.12 457.97 88.94 448.35 84.61 441.62 85.1 432 75.92 423.74 75.48 416.61 87.5 411.32 87.02 398.34 86.97 398.3 86.97 398.26 71.16 386.75 73.07 375.74 70.67 368.04 69.23 349.77 71.63 341.11 102.89 321.88 123.49 310.76 124.08 309.98 123.68 307.03 122.15 304.47 120.65 303.14 121.11 300.56 121.47 298.64 121.21 297.65 119.71 296.81 117.54 295.09 119.77 293.84 119.79 292.12 119.21 291.32 119.21 290.52 118.99 285.77 120.17 284.85 121.79 284.46 122.51 282.32 121.99 281.58 119.69 281.61 116.94 282.29 113.67 283.35 112.27 280.59 113.61 275.43 113.67 274.58 112.23 274 111.03 271.61 106.22 273.19 103.99 271.53 103.61 270.48 99.2 268.45 97.86 266.66 98.24 265.57 96.8 264.41 93.39 262.94 92.15 261 89.7 259.93 86.57 260.67 84.43 260.4 82.51 260.01 79.44 261.41 77.75 260.48 77.8 259.54 76.31 259.89 74.37 260.1 72.36 258.93 71.78 257.13 74.45 256.73 74.55 255.89 74.13 254.32 73.49 252.82 71.94 250.06 70.62 248.87 71.32 246.85 70.4 244.76 71.36 243.67 71.7 242.67 70.2 242.17 68.33 240.57 67.99 238.99 67.61 236.7 65.33 233.26 63.82 232.42 63.2 231.73 58.41 232.42 57.81 232.02 57.69 230.45 55.09 228.13 54.88 226.89 55.19 223.23 55.61 218.46 53.86 216.62 51.82 214.57 51.02 212.43 50.94 208.23 50.21 206.07 50.5 204.24 50.4 198.52 48.65 194.87 48.45 190.8 49.39 187.69 48.27 184.66 46.45 182.78 47.97 181.45 51.7 179.67 51.12 178.04 49.03 174.44 46.89 171.75 44.3 170.01 42.16 167.51 40.19 163.44 37.29 158.25 34.68 157.39 28.95 155.27 22.59 153.64 19.59 153.64 15.58 153.72 12.27 152.14 8.32 148.7 6.44 150.11 5.18 150.43 2.01 150.36 1 149.71 3.03 148.12 4.86 146.44 8.28 143.61 9.43 142.58 10.3 141.12 12.14 140 13.48 139.23 14.05 139.08 19.31 137.98 21.71 137.19 23.8 136.2 25.57 134.8 26.77 132.08 28.07 130.91 32.5 129.18 34.59 127.63 36.17 125.7 37.38 123.33 37.04 120.22 36.41 116.96 37.21 115.42 39.5 115.18 42.52 115.71 46 115.52 49.89 114.91 54.76 115.11 58.99 114.49 63.77 115.22 66.71 114.79 75.29 115.18 80.7 115.24 84.11 113.77 85.68 112.7 88.22 111.32 92.7 108.78 96.49 107.45 98.46 105.48 99.03 103.8 98.38 100.26 97.12 98.77 97.27 96.18 98.56 93.76 101.35 91.15 104.47 90.53 107.18 89.65 110.54 87.7 112.76 85.84 114.93 84.81 123.28 80.48 129.5 76.89 138.97 75.43 145.43 75.08 148.57 75.61 155 74.47 161.97 72.17 165.94 70.97 169.78 70.44 173.88 72.13 174.84 74.97 176.55 75.74 178.52 75.74 179.94 75.21 184.65 72.24 187.34 70.58 188.99 69.37 192.12 65.46 194.12 63.34 195.77 62.36 199.05 60.14 202.1 60.4 204.58 60.6 208.23 60.88 210.61 62.22 215.39 65.09 219.49 68.59 222.22 70.81 224.66 70.89 225.97 70.49 229.43 69.26 232.08 67.38 237.74 64.63 243.65 61.33 250.11 58.76 255.44 56.68 257.18 55.85 261.09 53.77 262.75 53.34 266.49 53.24 268.85 54.59 274.45 58.03 275.47 58.37 277.91 58.35 279.59 57.43 280.54 56.25 282.22 55.74 284.15 56.81 285.27 57.66 286.48 58.7 288.64 60.82 289.83 62.46 290.55 64.65 291.36 64.89 292.41 64.92 293.35 64.33 294.06 63.68 295.88 62.42 297.26 62.25 299.31 62.6 300.5 62.94 302.59 63.31 303.88 63.11 305.26 62.65 306.13 61.89 307.2 60.81 307.83 59.35 308.31 58.39 308.88 58.07 310.06 58.06 313.73 58.35 316.68 59.34 320.05 60.18 321.98 60.11 323.11 59.68 326.1 59.2 328.06 57.79 328.96 56.87 332.15 54.51 334.35 53.8 335.31 53.65 339.67 53.61 341.57 53.97 348.77 56.78 350.48 57 353 57.04 359.75 57.08 364.38 56.05 367.65 55.78 375.73 54.94 378.92 56.72 380.41 57.46 382.01 57.9 383.45 58.06 384.85 58.09 390.55 57.64 394.51 56.79 401.21 54.52 403.71 54.27 410.21 54.15 412.76 55.14 416.87 56.16 421.55 55.7 422.59 55.38 427.76 50.94 430.19 49.18 433.88 48.17 436.43 48.51 438.17 49.45 439.59 50.47 443.09 51.34 446.45 51.24 449.32 51.08 453.41 48.89 457.15 47.52 459.56 47.17 465.3 45.63 469.61 44.57 475.61 43.15 477.88 42.82 482.44 43.25 485.1 43.03 490.06 41.39 492.25 40.23 496.64 37.46 498.06 36.85 503.91 35.36 508.32 35.98 509.77 36.63 510.56 37.24 512.48 40.52 513.3 41.29 514.35 41.73 515.4 41.96 518.91 42.37 521.58 41.39 526.43 37.77 529.02 36.49 533.89 33.85 541.04 30.76 542.48 30.37 545.95 30.34 547.31 30.94 548.06 31.84 548.33 32.22 549.38 34.91 549.69 36.09 550.26 36.76 551.18 37.31 553.15 37.18 555.31 35.67 556.68 32.71 556.96 30.08 557.83 26.93 559.23 26.55 560.82 26.51 561.9 27.18 565 31.22 567.7 33.26 571.58 35.17 572.95 35.25 574.22 34.76 574.97 33.35 575.12 31.56 574.78 27.5 575.62 24.65 577.57 24.11 581.43 23.8 584.62 24.87 585.41 24.99 586.89 23.87 587.38 21.49 587.9 20.37 588.61 19.59 590.57 18.44 592.61 18.09 597.27 16.46 601.46 15.33 602.96 15.21 604.25 15.73 605.07 16.18 607.81 19.1 609.74 23.35 610.33 24.41 611.13 25.29 611.96 25.97 614.7 28.19 616.36 28.68 617.29 28.61 618.35 28.36 619.55 28.01 623.01 25.6 624.46 24.16 625.95 22.46 627.01 20.68 626.71 18.72 625.91 17.24 623.14 13.65 620.93 10.95 619.9 8.81 619.18 6.32 619.16 4.58 621.45 2.37 623.49 1.33 625.24 1.36 628.32 2.95 631.04 6.04 634.86 7.68 636.89 8.32 638.51 8.28 640.11 7.61 643.03 6.49 649.11 3.79 652.2 2.49 654.14 1.26 655.32 1 670.38 7.75 675.81 12 679.39 15.03 685.1 15.34 689.44 14.64 694.55 12.92 698.91 10.1 700.99 8.83 704.91 8.48 709.16 8.43 707.27 12.77 700.75 19.64 703.82 25.97 700.1 28.27 697.1 36.73 691.62 45.95 692.93 51.79 697.1 55.12 695.8 65.33 700.36 78.44 706.1 84.99 708.57 82.54 706.68 78.39 713.07 73.42 717.9 72.43 722.85 80.84 741.04 83.19 742.28 80.46 747.82 80.08 751.28 88.93 762.69 88.38 778.33 97.94 782.24 103.13 790.33 107.06 796.07 103.35 799 106.52 795.54 115.7 797.89 118.27 790.85 128.21 789.29 134.39 788.18 145.27 781.4 145.65 773.77 149.86 757.86 143.03 757.21 154.73 759.49 156.86 757.01 163.37 768.1 162.93 768.1 167.9 777.36 169.93 786.35 163.97 797.3 162.27 793.26 169.27 786.03 176.27 776.7 179.28 778.27 186.56 772.73 195.47 762.88 199.08 754.41 198.21 754.8 201.87 758.77 205.21 762.03 218.73 757.34 234.33 751.47 229.84 744.5 232.14 735.11 238.76 724.68 241.83 711.83 240.46 712.55 234.55 699.71 234.22 690.97 237.39 670.57 235.59 662.29 245 662.74 258.47 660.92 268.38 666.33 273.86 671.8 274.79 671.15 267.84 678.72 267.29 681.06 259.84 686.08 259.73 692.47 273.37 690.71 281.15 685.3 281.26 676.24 296.76 679.5 303.61 687.45 303.17 697.82 305.14 698.67 308.21 709.16 306.51 714.9 309.75 726.7 310.79 728.26 317.42 722.59 325.09 712.75 330.08 719.8 339.99 Z"/>
</g>
</svg>