<?xml version="1.0"?>
<svg xmlns="http://www.w3.org/2000/svg" version="1.2" baseProfile="tiny" fill="#f9c113" width="800" height="632" viewBox="0 0 800 632" stroke-linecap="round" stroke-linejoin="round">
<g fill="#c0392b" id="id_55">
<path d="M 440.39 13.68 471.4 38.36 476.79 58.56 507.8 58.56 528.02 75.39 552.29 68.65 571.16 75.39 588.69 178.62 567.12 212.28 582.9 187.66 664.19 216.77 688.45 202.18 676.77 169.14 704.63 170.76 726.2 197.7 749.12 204.43 760.91 224.06 742.38 239.22 704.63 265.03 669.58 305.43 707.33 326.76 741.03 343.6 763.95 364.92 799 388.5 799 435.64 766.64 443.5 751.81 479.43 738.33 483.92 705.98 499.63 662.84 491.77 619.7 499.63 596.78 526.58 571.16 543.42 571.16 609.67 559.03 631 490.27 570.37 461.96 554.65 456.57 524.33 409.39 538.93 402.65 505.25 421.52 476.06 409.39 447.99 435 426.66 417.47 410.95 405.34 398.6 378.38 405.33 375.68 380.64 362.2 385.13 350.07 371.66 335.24 373.9 288.05 341.35 255.83 333.36 263.79 313.85 206.49 278.5 171.44 279.06 52.86 193.19 64.97 186.95 42.72 159.16 30.5 162.08 19.21 138.31 14.32 127.85 13.34 128.09 7.89 106.11 6.67 99.76 5.87 90.37 5.83 83.9 6.01 83.28 6.59 82.36 17.4 75.19 7.31 70.45 11.59 61.64 14.11 62.42 15.24 59.2 11.12 58.3 7.42 57.99 4.29 58.1 5.24 56.62 1 54.34 8.35 48.53 11.31 42.1 20.85 43.56 31.24 43.21 42.97 40.67 67.13 31.86 102.05 29.64 107.25 29.58 119.73 46.28 128.37 44.12 136.4 63.11 135.57 71.29 146.79 72.07 145.41 88.37 166.73 136.92 175.79 132.33 185.08 127.36 187.79 126 291.61 71.69 328.24 52.91 359.92 35.98 420.02 4.27 426.4 1 440.39 13.68 Z"/>
</g>
</svg>