<?xml version="1.0"?>
<svg xmlns="http://www.w3.org/2000/svg" version="1.2" baseProfile="tiny" fill="#f9c113" width="800" height="1103" viewBox="0 0 800 1103" stroke-linecap="round" stroke-linejoin="round">
<g fill="#c0392b" id="id_54">
<path d="M 689.2 623.01 699.27 622.85 715.73 633.02 712.24 641.57 722.7 653.51 726.19 656.74 723.09 662.55 721.54 668.68 715.34 669.33 711.08 663.52 705.27 662.87 705.27 656.41 693.65 654.48 685.13 659.64 669.64 648.35 656.47 658.03 666.54 662.55 663.83 670.94 672.35 673.2 666.15 681.59 668.48 697.73 678.16 697.09 692.88 712.58 716.89 712.91 729.28 720.98 730.45 727.11 724.64 731.96 728.12 744.87 749.81 751.01 755.23 759.4 765.3 760.37 768.02 752.94 779.25 764.89 762.98 775.55 775.76 792.67 784.67 791.38 794.35 802.03 799 806.56 794.74 833.69 783.12 835.95 762.59 850.49 738.58 860.83 741.29 868.91 740.13 879.89 719.99 877.31 721.93 901.22 713.79 908.33 717.66 914.47 726.57 913.5 738.58 903.8 756.78 902.19 762.59 914.15 786.22 915.76 785.83 923.52 790.87 931.92 770.73 928.69 751.36 947.76 740.52 967.48 742.84 978.14 731.22 972 719.99 975.88 713.4 988.81 702.17 989.46 688.23 1001.42 675.84 1005.63 652.21 1001.1 629.75 989.46 613.48 988.49 609.22 977.17 595.27 967.48 567 969.42 554.61 959.4 552.67 1009.83 539.5 1037.96 453.91 1031.49 436.87 1050.25 420.6 1051.22 396.58 1047.02 390.78 1053.81 371.8 1053.81 359.79 1071.92 342.75 1081.62 320.67 1087.44 310.6 1102 302.47 1092.94 304.4 1079.03 317.57 1064.48 320.28 1033.76 254.44 1023.41 199.06 1031.49 174.74 1027.64 175.79 1025.33 175.79 1002.02 183.56 989.07 188.73 972.23 205.56 965.75 248.55 947.53 270.31 938.56 296.19 924.31 337.62 920.43 362.71 915.87 369.7 914.64 378.62 913.15 379.13 912.99 380.35 912.77 421.78 893.34 498.17 888.16 543.48 876.5 515 855.78 489.11 835.06 455.45 793.62 423.08 781.96 372.58 779.37 372.95 773.8 372.83 773.87 372.84 773.62 383.06 751.63 386.61 736.67 394.16 728.48 400.26 723.03 399.93 722.15 398.7 721.28 388.84 710.33 374.64 702.95 360.92 700.24 350.61 699.12 331.72 696.72 308.08 700.01 293.6 695.19 288.43 664.11 294.9 617.48 253.47 582.51 247 565.68 262.53 534.59 223.69 530.71 216.05 530.58 191.91 530.3 122.7 529.41 113.64 489.26 108.46 454.3 78.68 423.21 120.11 372.7 120.11 342.92 76.09 302.77 7.47 193.98 1 151.24 2.44 149.12 7.64 141.15 16.39 128.31 18.76 125.05 37.04 98.26 42.34 90.53 57.73 70.34 59.26 68.35 78.74 33.29 86.57 21.54 88.61 18.52 91.21 14.55 94.22 10.07 120.12 1 162.84 13.96 164.31 15.51 172.68 28.98 171.93 38.38 170.47 49.13 170.87 54.79 166.23 63.96 165.03 79.13 165.95 89.72 173.83 106.28 170.04 116.49 212.38 122.99 226.7 123.7 242.39 124.59 252.08 118.87 266.13 121.06 279.41 112.01 282.38 109.28 289.78 109.36 306.55 98.77 312.1 94.73 321.18 81.86 333.69 61.25 361.72 74.11 380.33 98.35 384.64 112.55 392.23 117.33 403.94 123.39 394.97 138.34 387.53 148.77 371.16 162.59 339.45 167.33 332.36 173.64 340.49 189.81 347.94 217.7 350.42 232.39 358.5 242.5 385.64 249.02 408.37 246.25 421.32 245.63 436.25 246.05 445.88 247.57 452.18 247.49 473.51 249.35 486.71 261.85 472 271.2 463.07 294.68 456.17 311.65 442.78 322.92 427.4 326.51 409.78 329.81 398.67 332.53 375.25 332.2 364.93 337.82 343.45 353.07 340.55 356.4 279.81 381.88 333.15 452.96 416.03 563.46 502.89 679.33 510.06 675.54 517.72 671.24 526.03 666.69 534.92 661.79 541.87 658.08 559.12 648.97 578.41 638.61 589.64 632.6 595.13 629.61 597.06 628.59 608.2 622.56 619.37 617.22 652.21 599.83 655.13 598.32 689.2 623.01 Z"/>
</g>
</svg>