<?xml version="1.0"?>
<svg xmlns="http://www.w3.org/2000/svg" version="1.2" baseProfile="tiny" fill="#f9c113" width="800" height="523" viewBox="0 0 800 523" stroke-linecap="round" stroke-linejoin="round">
<g fill="#c0392b" id="id_50">
<path d="M 568.64 13 571.17 12.1 579.47 11.5 583.44 10.6 587.05 10.9 598.96 10.6 602.21 10 607.63 7.9 622.06 4.3 625.31 3.7 629.28 4.3 636.14 1.9 640.84 1 647.13 7.95 647.65 11.34 667.02 42.05 679.45 53.38 679.45 61.78 667.76 76.04 676.16 84.81 677.63 94.68 680.19 106.01 699.73 106.26 706.54 106.34 708.7 106.38 719.67 107.47 715.28 116.25 717.11 121 728.81 130.87 726.98 144.03 728.44 152.8 732.53 154.16 739.2 153.23 744.54 153.91 747.45 154.23 751.32 154.99 755.33 157.07 758.12 160.16 758.46 160.41 758.56 160.66 756.84 162.2 754.7 164.51 753.7 168.73 750.82 174.94 750.81 175.01 750.85 174.99 750.74 176.56 765 177.29 774.14 180.58 783.65 192.28 790.96 198.12 799 203.97 786.21 207.26 764.64 208.72 752.94 214.21 752.59 214.27 752.45 214.32 749.93 214.74 747.96 215.08 740.87 216.37 729.17 217.47 721.86 221.49 715.72 224.02 703.58 229.16 698.83 230.99 697.37 235.74 695.17 239.4 695.17 245.98 693.35 250 693.35 250.01 693.35 250.03 695.54 254.78 693.71 262.46 686.77 260.26 683.47 263.6 680.79 266.24 679.09 267.94 673.24 267.57 669.22 271.6 665.79 276.62 663.72 279.42 661.73 282.15 661.17 282.93 660.41 284.91 660.29 285.52 660.62 286.67 660.71 287.58 660.52 288.81 657.11 291.02 656.06 291.67 653.5 297.52 651.42 300.07 648.73 303.27 647.46 306.07 644.36 312.53 638.57 318.69 633.76 323.5 635.58 330.08 641.42 337.73 643.99 341.05 636.32 343.6 629.37 340.68 624.62 342.51 619.86 350.18 616.02 355.41 611.46 361.88 610.15 370.79 609.26 376.14 604.14 381.62 602.87 387.55 605.36 390.53 609.42 393 611.12 395.11 610.13 395.34 608.5 396.37 605.91 397.46 600.81 399.72 598.36 400.66 597.02 401.22 595.66 401.26 593.96 400.72 590.75 399.34 588.47 396.75 585.89 395.42 584.42 395.39 582.71 396.26 580.79 398.11 580.81 399.58 581.41 401.67 582.28 403.46 584.13 405.72 586.45 408.74 587.12 409.98 587.38 411.62 586.48 413.11 585.23 414.54 584.01 415.75 581.11 417.76 580.11 418.06 579.22 418.27 578.44 418.33 577.05 417.92 574.75 416.05 574.05 415.49 573.38 414.75 572.89 413.86 571.27 410.29 568.97 407.84 568.28 407.47 567.2 407.03 565.94 407.13 562.43 408.08 558.52 409.45 556.81 409.74 555.17 410.7 554.57 411.36 554.13 412.3 553.73 414.29 552.48 415.23 551.82 415.14 549.14 414.23 545.91 414.49 544.27 414.95 543.57 417.34 543.85 420.74 543.72 422.24 543.09 423.43 542.03 423.84 540.88 423.77 537.63 422.17 535.36 420.46 532.77 417.07 531.86 416.51 530.52 416.54 529.35 416.86 528.62 419.5 528.38 421.7 527.23 424.19 525.43 425.46 523.77 425.56 523 425.1 522.53 424.54 522.26 423.56 521.38 421.29 521.15 420.98 520.52 420.23 519.39 419.72 516.47 419.75 515.27 420.07 509.27 422.67 505.18 424.88 503.01 425.95 498.95 428.99 496.71 429.81 493.76 429.47 492.88 429.27 492 428.9 491.31 428.26 489.7 425.5 489.04 425 487.82 424.45 484.12 423.93 479.22 425.18 478.03 425.69 474.34 428.02 472.51 428.99 468.34 430.36 466.12 430.55 462.29 430.18 460.39 430.47 455.36 431.65 451.74 432.54 446.92 433.83 444.91 434.13 441.77 435.28 438.34 437.12 435.93 437.25 433.11 437.33 430.18 436.6 428.98 435.74 427.53 434.96 425.38 434.68 422.29 435.52 420.26 437 415.91 440.72 415.05 440.99 411.12 441.37 407.68 440.52 405.53 439.69 400.08 439.79 397.98 440 392.36 441.9 389.04 442.62 384.27 442.99 383.09 442.97 381.88 442.83 380.54 442.47 379.29 441.84 376.62 440.35 369.84 441.06 367.09 441.28 363.21 442.15 357.55 442.11 355.43 442.08 354 441.89 347.96 439.54 346.37 439.23 342.71 439.27 341.91 439.39 340.06 439.99 337.38 441.97 336.63 442.74 334.98 443.93 332.48 444.33 331.53 444.68 329.91 444.75 327.08 444.04 324.61 443.21 321.53 442.97 320.54 442.98 320.07 443.24 319.66 444.05 319.13 445.27 318.24 446.18 317.51 446.82 316.35 447.2 315.27 447.37 313.52 447.06 312.52 446.77 310.8 446.48 309.64 446.62 308.11 447.68 307.52 448.22 306.73 448.72 305.85 448.69 305.17 448.5 304.56 446.66 303.57 445.28 301.75 443.5 300.74 442.63 299.8 441.92 298.18 441.02 296.77 441.45 295.98 442.44 294.56 443.21 292.52 443.22 291.66 442.94 286.97 440.06 284.99 438.92 281.85 439.01 280.46 439.37 277.18 441.12 275.72 441.81 271.25 443.55 265.83 445.71 260.87 448.48 256.13 450.78 253.91 452.36 251 453.39 249.91 453.73 247.86 453.66 245.56 451.8 242.13 448.86 238.12 446.45 236.13 445.33 233.06 445.1 230.99 444.93 228.42 444.71 225.68 446.58 224.29 447.4 222.61 449.17 219.99 452.45 218.6 453.46 216.35 454.86 212.39 457.35 211.2 457.79 209.55 457.79 208.12 457.15 207.31 454.77 203.88 453.35 200.65 453.79 197.32 454.8 191.48 456.73 186.08 457.69 183.45 457.24 178.03 457.54 170.08 458.76 164.87 461.77 157.87 465.4 156.05 466.27 154.18 467.83 151.37 469.46 149.1 470.2 146.48 470.71 144.14 472.91 143.06 474.94 142.93 477.11 143.98 478.36 144.53 481.33 144.05 482.73 142.4 484.39 139.22 485.51 135.47 487.63 133.34 488.79 132.02 489.68 129.16 490.92 124.62 490.87 117.42 490.54 114.96 490.91 110.95 490.3 107.4 490.81 103.31 490.65 100.05 491.15 97.14 491.32 94.6 490.87 92.68 491.07 92.01 492.36 92.54 495.1 92.82 497.7 91.81 499.69 90.48 501.31 88.73 502.61 85.02 504.06 83.92 505.04 82.92 507.32 81.43 508.5 79.68 509.33 77.67 509.99 73.26 510.92 72.78 511.04 71.65 511.68 70.11 512.63 69.38 513.85 68.42 514.71 65.55 517.09 64.01 518.49 62.31 519.83 60.32 521.24 59 521.71 57.61 522 55.64 521.67 53.33 520.87 47.4 519.25 43.4 518.19 41.23 517.51 37.15 516.8 35.67 516.69 34.31 517.3 32.11 518.2 29.44 519.23 27.35 519.97 25.76 520.2 24.27 520.16 23.86 519.99 23.22 519.41 23.11 518.59 23.46 517.39 24.42 515.88 25.32 514.17 25.86 512.74 26.57 511.06 26.23 507.76 25.97 506.35 25.38 504.75 24.03 503.96 23.3 503.51 22.22 503.16 21.09 503.49 20.75 504.05 19.77 506.28 19.3 507.64 18 508.26 16.42 508.5 13.6 508.48 10.31 508.21 7.73 507.79 9.46 506.04 11.94 502.23 12.06 498.05 8.6 488.08 8.35 484.93 3.16 463.73 3.6 449.46 12.68 441.24 29.99 422.21 33.88 412.26 34.75 403.17 33.88 391.06 28.98 385.61 22.2 378.08 16.46 373.98 13.2 371.56 3.16 361.64 2.78 352.75 1.72 344.94 1.43 343.04 1 335.26 6.19 328.77 13.11 324.01 15.71 313.63 11.82 305.41 11.42 304.92 11.37 304.82 7.86 300.52 6.59 298.98 6.19 298.49 10.11 293.51 10.97 292.43 12.83 289.84 16.58 284.65 42.1 274.27 59.84 266.91 70.66 261.72 80.61 255.23 89.69 257.83 96.61 258.69 97.46 258.33 100.04 257.45 105.18 254.97 106.56 254.37 107.43 245.72 104.4 240.09 103.97 230.14 108.73 225.82 119.11 221.49 129.06 210.68 148.53 197.7 157.18 190.78 165.84 180.83 170.6 169.58 161.08 153.58 164.11 147.52 175.79 141.9 178.82 122 180.55 100.81 181.41 86.96 182.71 84.13 184.8 79.63 185.71 77.62 188.77 70.96 190.03 68.16 190.3 67.59 194.84 57.55 201.25 53.77 201.31 53.79 204.54 51.63 204.77 51.49 207.61 47.95 233.51 49.45 241.41 55.88 250.35 60.55 258.97 58.64 269.16 62.77 271.02 68.62 274.47 71.01 280.97 65.98 287.26 65.98 289.86 69.53 296.09 70.46 296.91 74.6 305.85 75.67 318.92 79.83 334.37 82.27 331.77 78.1 335.16 74.74 338.06 74.01 342.49 77.74 343.01 83.52 349.87 83.91 365.4 86.98 370.57 89.23 378.8 89.48 375.46 83.34 386.54 85.48 398.84 90.39 404.61 94.92 410.68 95.33 418.01 97.4 424.02 103.61 442.56 105.39 445.92 107.09 460.96 107.18 464.92 108.98 472.83 107.16 479.03 110.05 482.75 110.3 489.01 116.54 492.13 117.72 495.14 117.31 496.86 112.92 496.26 104.95 498.03 101.11 495.6 97.33 497.3 93.8 499.46 89.91 501.64 84.27 506.67 79.26 506.02 76.72 505.47 71.35 503.07 72.35 499.67 67.16 503.83 65.34 506.13 61.98 513.78 66.53 516.74 63.53 516.19 60.25 528.44 59.61 530.08 63.62 533.58 59.7 531.94 56.61 536.75 54.61 536.75 51.15 541.89 48.52 542.11 45.97 549.87 45.88 553.81 44.52 557.09 41.79 559.28 42.33 560.92 37.61 559.39 30.6 555.89 28.88 553.37 21.6 558.9 18.1 568.64 13 Z"/>
</g>
</svg>