<?xml version="1.0"?>
<svg xmlns="http://www.w3.org/2000/svg" version="1.2" baseProfile="tiny" fill="#f9c113" width="800" height="496" viewBox="0 0 800 496" stroke-linecap="round" stroke-linejoin="round">
<g fill="#c0392b" id="id_52">
<path d="M 479.03 157.26 486.16 153.18 486.91 133.74 503.8 144.71 503.8 149.73 512.43 151.93 522.56 155.69 532.32 148.16 541.7 150.05 562.72 131.23 587.49 143.77 599.12 139.38 611.51 144.71 618.26 157.57 619.01 165.1 610.38 175.14 623.89 178.28 634.02 177.96 636.65 182.67 627.27 194.91 632.52 205.26 675.31 217.82 685.06 232.89 713.59 227.23 734.6 218.45 742.48 204.64 748.26 203.1 747.39 206.85 747.79 208.59 748.87 209.77 752.74 211.81 753.8 212.3 754.89 213.05 755.39 213.57 755.8 214.39 756.02 215.32 755.6 216.9 755.29 218.64 756.33 220.38 757.48 220.97 758.8 220.68 762.65 217.17 765.58 212.15 768.9 208.01 773.95 205.98 777.31 209.04 781.1 215.5 781.36 219.52 779.09 221.89 774.31 223.75 774 225.86 776.64 230.47 778.61 233.46 778.77 234.36 778.59 237.66 777.04 240.72 776.69 244.24 777.44 248.57 778.39 249.75 780.98 251.93 788.03 254.68 790.55 256.75 793.06 259.86 793.08 261.18 790.74 263.82 788.32 266.24 787.25 269.91 787.97 274.1 789.2 278.66 789.96 282.36 792.27 286.52 794.69 290.42 796.85 294.38 798.58 298.94 799 300.74 798.78 302.5 798.21 303.7 796.66 305.95 796.3 307.4 796.57 308.91 796.64 309.05 792.27 310.77 788.83 310.86 783.12 308.99 779.73 308.92 776.07 310.13 771.97 314.33 769.04 319.01 768.05 322.46 769.48 325.05 769.31 326.42 768.91 327.64 767.44 328.52 756.75 327.03 754.58 328.84 752.92 329.38 750.87 328 749.14 325.68 747.06 325.25 742.46 327.24 738.99 329.14 736.02 328.66 734.82 327.51 732.46 329.47 731.66 331.33 730.68 333.66 733.65 335.11 735.28 336.64 734.03 340.39 727.52 343 725.97 346.73 724.72 349.94 726.1 352.6 726.43 355.46 726.26 358.17 725.51 363.13 723.19 367.85 719.67 366.06 715.88 360.63 713.42 358.51 711.8 350.65 707.83 349.6 706.07 350.5 703.71 354.37 698.98 354.35 697.13 353.69 696 352.13 698.03 347.22 700.63 340.49 703.18 335.41 701.74 332.87 700.08 330.52 698.39 329.59 696.78 329.71 694.79 330.41 689.75 332.06 685.75 332.92 677.28 335.2 672.4 337.63 668.47 338.32 664.22 336.92 661.85 334.62 655.78 334.32 650.91 334.37 650.59 333.13 649.21 333.52 646.7 335.3 644.82 335.06 644.36 333.57 644.8 331.71 645.2 330.5 643.88 329.21 643 327.33 640.32 327.47 638.25 327.94 634.25 328.07 633.5 324.97 630.99 320.36 627.97 315.65 626.45 313.05 622.8 309.72 617.34 309.43 612.11 309.6 607.84 313.19 603.61 316.96 604.22 318.1 605.87 318.97 608.93 320.43 608.97 321.74 606.59 323.51 602.67 323.95 599.85 323.02 594.49 320.76 592.59 319.99 589.57 322.1 586.91 324.12 585.29 325.11 584.86 326.8 585.11 327.63 586.11 328.63 588.9 330.67 589.56 331.27 590.17 332.56 590.61 334.58 591.14 336.01 592.5 337.32 592.67 338.41 592.18 339.47 590.6 340.22 588.79 340.19 588.03 340.93 586.5 342.19 585.15 342.8 583.07 342.85 581.48 342.71 580.31 342.55 578.01 344.03 576.72 345 575.6 346.36 575.14 347.63 575.79 349.22 578.55 351.44 580.15 353.08 580.33 354.25 578.82 356.04 576.55 356.11 572.67 356.57 569.93 356.56 568.96 357.59 568.58 358.98 569.31 361.05 570.08 362.1 572.2 363.47 573 364.93 572.79 366.36 571.45 367.5 569.12 367.26 568.21 366.67 567.58 366.76 567 367.14 566.73 367.96 566.63 368.73 566.64 369.89 566.68 370.59 567.04 371.29 567.28 371.61 567.17 372.09 567.25 372.46 566.98 372.58 566.67 372.58 566.49 372.54 565.46 372.2 564.26 371.55 564.05 371.31 563.67 370.66 563.02 369.98 562.01 369.7 561.3 369.55 560.69 369.71 559.87 370.26 559.75 371.22 560.71 372.11 560.97 373.03 560.59 373.89 560.06 374.43 559.08 374.98 559 375.36 559.19 376.1 559.54 377.39 559.54 377.97 559.56 378.63 559.71 379.57 559.96 380.44 559.54 380.86 558.44 381.25 557.35 381.37 556.68 381.28 555.47 381.08 553.98 380.32 553.4 380 552.64 380.03 552.27 380.58 552.35 381.2 552.45 382.38 552.41 383.2 552.46 384.03 552.16 384.96 552.04 385.48 551.84 385.73 551.65 385.75 550.65 385.67 549.58 384.9 548.6 384.18 547.63 382.93 546.26 381.59 545.72 381.43 544.57 381.26 543.18 380.91 542.01 380.62 540.89 380.55 540.19 380.63 539.94 381.09 539.6 381.64 539.62 382.21 540.87 383.17 541.29 383.57 541.44 383.99 541.37 384.82 541.35 386.01 541.49 387.03 541.47 388.01 541.2 389.09 541.08 389.7 540.83 390.03 540.44 390.47 540.16 390.56 539.15 389.85 538.53 389.44 538.13 389.22 537.42 389.04 536.98 388.78 535.96 388.59 534.59 388.07 534.03 387.78 533.57 387.9 532.86 388.47 532.65 388.77 532.27 389.12 531.75 389.26 530.92 389.42 530.64 389.71 530.43 390.07 530.36 390.73 530.05 391.5 530 392.17 530.27 393.4 530.81 394.07 530.99 394.38 530.68 394.72 530.01 395.05 529.36 395.31 528.79 395.77 528.41 395.88 527.93 396.17 528.04 396.44 528.78 396.73 529.05 397.5 528.42 399.08 528.49 399.38 528.7 399.88 527.77 401.2 527.01 402.01 526.88 402.65 525.61 403.83 524.68 405.44 524.27 406.38 536.08 410.34 539.3 416.25 543.25 418.97 545.88 421.97 547.75 424.61 548.61 427.02 544.63 430.61 542.9 432.92 540.62 435.86 535.91 440.57 531.83 445.21 530.04 447.33 526.93 449.53 523.06 450.99 520.25 452.85 517.11 454.26 515.64 455.22 511.64 458.7 508.47 461.33 506.09 462.68 500.75 462.81 495.02 463.29 492.18 462.41 489.36 462.56 484.24 462.38 481.64 462.46 477.93 464.21 476.09 464.32 472.91 466.9 471.63 468.99 470.84 469.74 469.98 469.94 466.02 468.91 461.31 468.56 456.03 469.49 448.89 471.53 447.85 473.74 444.17 476.32 435.25 479.55 425.38 479.87 414.28 480 409.63 480.35 404.36 481.37 398.33 483.05 386.3 485.59 371.8 488.55 363.46 490.3 354.45 492.29 350.27 493.34 344.59 488.71 333.97 484.95 327.46 485.63 323.71 485.86 315.19 481.42 310.26 479.91 306.97 479.08 301.47 479.04 295.96 479.82 282.24 480.27 268.85 480.63 257.05 480.53 252.3 487.05 246.77 492.44 241.75 494.81 236.85 495 227.56 492.84 220.11 485.7 213.71 483.1 204.43 479.84 202.63 477.92 184.93 472.64 173.08 472.74 164.04 472.32 156.02 470.42 151.62 468.95 145.08 472 140.27 476.71 134.04 477.46 129.89 475.56 122.14 475.38 112 471.79 105.8 469.05 101.74 468.95 100.24 468.93 95.16 469.45 87.4 470.17 83.09 470.53 82.86 470.76 82.31 470.57 81.68 469.09 80.94 468.44 79.6 467.98 79.11 467.08 78.43 466.61 78.02 466.06 77.71 465.86 77.12 466.06 76.37 465.65 75.88 465.6 75.68 465.28 75.52 464.59 75.31 464.31 74.74 464.5 74.39 464.4 73.75 463.87 73.39 463.22 72.83 462.35 71.94 462.25 71.13 462.26 70.52 462.48 70.11 462.48 70.12 461.98 69.77 461.82 69.21 461.66 68.19 461.22 67.76 460.68 66.94 460.9 66.02 461.2 65.74 461.02 66.42 459.98 66.25 459.75 65.27 459.63 64.8 459.51 64.07 459.69 63.91 459.37 63.46 458.74 62.72 458.5 62.17 458.72 61.21 459.22 59.49 459.79 58.66 460.35 57.25 460.97 56.63 461.26 57.23 461.76 57.01 462.97 54.15 466.07 52.3 465.89 49.22 459.32 48.86 456.52 48.48 455.07 48.11 454.58 47.18 454.46 46.6 454.14 47.27 453.49 47.08 452.71 46.41 451.58 46.86 450.81 45.95 449.97 44.85 447.33 42.75 445.76 41.07 443.28 37.95 441.81 35.88 440.86 35.04 438.8 35.23 436.91 32.51 433.85 28.6 429.92 27.68 429.44 26.96 429.92 26.1 430.6 24.89 430.58 23.55 429.84 22.9 428.27 23.04 426.82 22.39 426.09 20.83 426.25 20.06 425.49 19.63 424.2 17.15 425.69 15.64 427.14 14.12 428.65 13.21 428.43 12.61 426.98 11.84 425.63 10.45 424.82 9.34 423.88 9.49 422.59 9.41 421.03 8.69 420.69 7.13 421.09 5.33 421.32 4.61 421.24 2.44 420.01 1.14 418.9 1 418.09 1.68 417.24 36.14 407.3 44.39 405.5 52.09 398.03 53.31 384.59 74.32 361.56 72.82 352.6 74.51 341.52 74.32 331.86 59.12 313.87 60.53 271.62 80.42 263.46 91.87 245.4 128.08 225.31 151.73 225.78 180.44 216.21 211.02 225.63 251.74 211.34 291.15 178.08 301.09 153.77 279.14 149.22 281.77 136.36 269.38 136.36 271.44 114.57 275.57 83.85 271.82 66.77 289.27 52.35 299.15 48.29 300.1 49.1 310.23 55.64 320.84 62.19 330.12 61.72 333.17 58.02 336.07 57.41 342.61 54.31 350.41 48.12 355.21 40.31 356.2 37.6 360.39 31.54 365.02 27.54 378.13 23.55 388.86 20.1 389.86 19.88 399.55 15.57 400.31 12.52 403.01 8.99 405.12 9.31 406.66 8.77 407.91 7.78 409.01 2.62 408.52 1.38 409.33 1 416.22 4.06 419.62 4.79 414.29 18.01 410.35 44.95 407.72 65.47 392.71 92.66 399.09 101.44 449.01 101.76 459.89 104.58 468.15 94.23 477.53 97.37 476.4 106.77 483.53 116.8 467.39 111.16 457.64 115.24 450.88 129.97 443.75 142.83 462.89 155.06 479.03 157.26 Z"/>
</g>
</svg>