<?xml version="1.0"?>
<svg xmlns="http://www.w3.org/2000/svg" version="1.2" baseProfile="tiny" fill="#f9c113" width="800" height="885" viewBox="0 0 800 885" stroke-linecap="round" stroke-linejoin="round">
<g fill="#c0392b" id="id_5">
<path d="M 162.91 557.98 164.85 556.63 163.96 552.59 164.52 549.96 164.01 547.99 163.88 545.29 164.05 543.56 165.57 541.28 167.61 538.75 170.19 537.33 173.28 535.74 173.83 535.02 175.4 534.26 178.49 532.18 181.12 530.18 184.17 530.07 186.16 530.49 188.45 531.32 191.07 531.52 195.86 533.01 196.96 530.45 197.09 527.82 197.98 526.16 198.78 520.67 199.84 518.63 201.75 516.28 198.91 510.78 198.99 508.12 199.37 504.28 199.46 502.1 198.95 500.13 199.5 495.6 201.45 491.35 201.79 489.59 203.19 488.03 206.45 486.79 212.38 485.79 214.62 484.54 216.27 483.16 216.95 481.99 217.33 481.09 219.87 479.81 222.5 477.08 225.25 475.52 224.74 472.83 225.76 469.34 224.87 468.02 221.36 465.61 220.55 463.98 219.58 462.36 219.45 460.18 223.18 456.42 223.73 454.72 223.3 452.58 224.32 450.37 225.38 448.88 227.84 447.12 230.63 445.57 231.31 443.81 232.88 442.74 240.33 439.77 240.84 438.59 241.6 435.07 241.52 433.69 242.49 431.58 244.78 429.82 246.6 426.99 247.79 425.67 250.24 423.64 251.05 421.7 251.98 420.91 256.09 419.46 258.93 419.11 262.19 419.94 266.17 419.84 270.87 420.22 272.9 420.8 275.32 420.32 277.56 419.32 279.51 419.98 282.73 422.22 283.66 424.98 286.33 425.5 288.57 426.81 289.17 427.85 290.52 429.47 292.98 430.06 300.18 429.99 301.48 429.86 301.48 429.75 303.23 429.47 304.2 425.16 304.8 424.02 306.15 422.7 306.24 418.35 309.03 416.56 311.32 414.62 313.48 412.38 316.02 410.69 315.55 407.82 314.45 405.51 314.66 401.61 315.26 399.22 315.98 398.26 317.46 396.67 318.56 395.6 319.79 391.87 319.49 388.83 318.69 387.66 317.29 384.86 318.35 383.31 320.21 381.55 320.21 379.34 320.04 376.1 319.83 374.1 320.47 372.92 325.89 370.78 329.66 368.5 333.17 366.26 332.71 364.16 330.51 360.64 326.99 359.12 323.35 355.5 322.97 353.94 320.21 351.25 319.37 348.87 317.59 347.11 317.97 346.18 321.02 344.28 322.03 342.63 321.91 339.66 321.14 337.31 322.12 335.52 323.14 332.48 325.38 330.86 325.85 329.62 325.68 327.83 327.79 324.79 331.01 322.72 333.05 320.48 337.75 320.58 341.69 319.83 347.66 320.34 351.39 319.89 354.86 320.17 358.97 320.07 362.19 319.48 363.25 318.69 364.94 316.65 366.25 314.89 368.5 312.93 374.6 308.48 373.5 307.03 367.48 304.82 362.14 301.45 359.1 299.17 359.26 297.2 358.88 292.58 356.64 289.41 356.13 287.38 356.64 284.76 355.88 282.14 356.68 279.42 356.09 272.49 357.27 266.7 357.27 264.56 357.95 262.53 359.77 256.84 359.48 252.53 359.77 249.16 360.24 247.5 360.37 243.13 363.16 241.51 364.22 240.06 366.59 238.34 370.02 232.38 372.95 230.79 375.91 227.42 376.59 225.28 377.77 219.46 380.57 218.87 382.98 216.53 385.27 215.15 391.16 208.4 392.39 205.82 394.46 204.54 397.05 202.2 398.53 200.27 400.09 196.76 405.9 194.04 406.24 192.6 410.43 187.81 412 183.37 412.76 182.27 418.01 182.44 421.23 181.99 424.41 178.86 429.66 176.07 430.76 173.11 432.2 171.94 434.44 169.63 438.34 167.98 440.97 163.99 443.97 161.71 448.08 159.79 450.58 157.58 455.03 158.44 458.5 157.86 460.41 156.35 464.69 154.97 466 153.42 467.31 151.63 472.01 149.05 475.06 146.78 479 145.02 480.02 143.34 480.48 142.06 480.61 140.03 481.5 139.55 494.97 144.09 497.13 143.85 501.54 144.51 504.71 146.33 506.96 146.88 509.07 146.3 510.39 144.51 511.23 143.96 515.77 143.61 519.83 141.62 521.36 139.76 522.59 138 525.21 136.21 527.67 135.8 529.24 134.63 530.25 128.95 531.27 127.61 536.73 126.92 538.38 125.44 540.33 122.07 541.01 118.43 540.84 116.4 540.29 114.68 540.97 113.54 543.55 110.55 543.89 107.21 545.2 105.25 547.19 103.81 547.42 103.55 549.06 101.64 546.64 99.61 543.98 94.9 543.42 91.74 542.32 89.26 540.42 87.44 538.6 86.06 538.47 84.07 532.45 81.04 529.32 78.08 527.92 76.06 528.68 74.51 530.42 72.55 532.84 68.56 536.31 66.22 537.45 64.19 538.38 60.96 540.46 58.9 542.24 56.73 542.75 54.71 542.87 52.64 542.7 49.21 545.67 46.25 548.38 39.1 547.83 34.57 547.79 32.33 549.02 29.89 550.71 27.8 552.62 26.22 553.51 22.47 555.75 20.07 559.48 16.6 561.93 15.87 562.27 11.55 561.93 7.39 563.67 5.81 562.99 2.92 566.64 1 570.49 1.41 573.24 3.82 576.63 8.9 582.18 9 586.84 7.49 590.31 7.15 591.7 4.92 605.52 2.68 607.17 4.19 612 16.63 613.18 24.77 615.77 26.35 618.6 27.8 621.32 27.76 624.11 26.46 628.94 26.01 632.67 24.22 645.12 25.63 658.5 25.49 669.09 22.2 671.97 20.13 675.02 21.99 677.73 25.56 691.12 16.56 694.51 21.44 698.06 21.99 701.45 20.96 707.72 24.74 714.84 22.61 721.44 22.13 723.27 23.45 721.4 29.54 721.87 33.52 719.7 39.3 714.09 51.07 709.06 62.98 702.09 75.29 700.97 93.96 695.2 101.74 693.64 120.63 683.19 130.63 682 142.37 675.41 145.74 660.96 157.74 655.41 158.85 643.63 165.07 646.29 180.18 661.85 195.96 675.63 196.85 681.86 200.63 694.97 223.74 746.54 267.74 770.99 269.09 781.66 277.04 799 283.96 796.33 293.52 778.77 300.41 770.99 309.52 778.99 323.74 791.22 323.52 797 332.18 797.4 350.52 780.77 375.3 781.78 383.09 778.11 389.3 783 401.96 795.76 413.24 796.17 418.47 783.85 436.92 773.22 441.52 748.67 441.66 748.61 447.04 744.93 448.56 743.06 455.93 742.65 464.17 738.55 474.88 742.65 474.85 742.53 480.46 738.55 480.43 738.98 491.52 735.21 497.74 729.65 501.96 723.42 499.52 717.65 503.74 717.2 515.52 712.76 519.96 725.08 527.86 726.63 538.65 736.2 541.63 737.21 547.74 736.98 548.19 736.76 548.41 736.76 548.63 736.54 548.63 736.09 549.07 735.87 549.07 735.65 549.3 735.65 549.52 734.98 549.52 734.76 549.74 734.32 549.96 734.32 550.19 732.76 550.19 732.54 550.41 732.54 550.63 730.98 550.63 730.54 551.07 729.65 551.07 729.43 551.3 728.98 551.3 728.54 551.52 721.42 551.52 721.2 551.74 719.87 551.74 719.87 551.52 716.53 551.52 716.31 551.3 715.87 551.3 715.87 551.07 715.65 551.07 715.2 550.85 714.76 550.85 714.53 550.63 713.87 550.63 713.64 550.41 711.87 550.41 711.87 550.19 710.53 550.19 710.31 549.74 710.09 549.52 710.09 549.3 709.2 549.3 708.09 548.85 707.64 548.85 707.42 548.63 705.2 548.63 704.98 548.85 704.53 548.85 704.09 549.07 703.86 549.07 703.64 549.3 703.42 549.3 703.2 549.52 702.98 549.52 702.98 549.74 702.75 549.74 702.31 549.96 701.86 549.96 701.86 550.41 701.64 550.63 701.42 550.63 701.2 550.85 700.97 550.85 700.75 551.07 700.75 551.3 700.31 551.3 699.86 551.52 699.64 551.74 699.42 551.74 698.97 551.96 698.75 551.96 698.53 552.41 698.31 552.41 698.09 552.85 697.86 552.85 697.64 553.07 697.42 553.07 697.2 553.3 697.2 553.52 696.97 553.52 696.97 553.74 696.75 553.74 696.31 554.19 696.31 554.41 696.08 554.63 695.42 554.63 694.01 556.77 695.3 559.17 697.93 561.57 703.19 565.6 704.66 570.87 700.91 575.02 696.53 581.96 696.53 582.19 696.31 582.19 696.31 582.41 695.86 582.85 695.86 583.07 695.64 583.52 695.64 584.19 695.42 584.63 695.42 585.3 695.2 585.52 695.2 585.74 694.97 585.96 694.75 585.96 694.75 586.63 694.53 586.85 694.53 587.07 694.31 587.3 694.31 588.19 694.08 588.63 694.31 588.63 694.31 590.41 694.08 590.41 693.86 590.63 693.86 590.85 693.64 591.07 693.42 591.07 693.19 591.3 692.97 591.74 692.75 591.96 697.93 595.22 701.32 603.18 700.15 611.42 698.92 615.87 698.22 625.05 694.48 629.73 691.26 634.17 689.74 639.34 687.17 643.73 685.06 648.47 683.31 649.29 679.86 649.74 676.97 649.74 676.52 649.52 675.86 649.52 675.63 649.3 675.41 649.3 675.19 649.07 674.75 649.07 674.75 648.85 674.3 648.85 674.08 648.63 672.75 648.63 671.86 649.07 671.63 649.07 671.19 649.3 670.74 649.3 670.3 649.52 669.86 649.52 669.63 649.74 668.97 649.74 668.97 649.96 668.08 649.96 668.08 649.74 666.52 649.74 665.41 650.19 664.74 650.19 663.85 650.63 662.3 651.07 660.96 651.74 659.41 651.74 658.96 652.19 658.74 652.19 658.52 652.41 658.07 652.41 658.07 652.85 657.63 652.85 657.63 653.07 657.19 653.3 656.74 653.3 656.74 653.52 656.52 653.52 656.07 653.96 655.63 653.96 655.18 654.41 654.74 654.41 654.52 654.63 644.96 654.63 644.74 654.85 644.52 654.85 644.07 655.07 643.85 655.07 643.63 655.3 643.18 655.3 642.74 655.52 642.29 655.52 642.07 655.74 641.63 655.74 641.63 655.96 640.51 655.96 640.29 656.19 639.18 656.19 638.96 656.41 638.51 656.41 638.07 656.85 636.51 656.85 636.29 657.07 635.52 657.09 635.11 657.21 633.65 657.33 631.88 658.44 631.4 661.07 631.4 661.52 629.85 663.07 629.62 663.52 630.14 664.71 629.04 665.81 628.54 668.2 626.69 668.36 624.19 668.85 624.66 670.06 627.01 675.21 630.55 679.67 634 685.65 635.23 690.64 640.03 699.17 644.94 713.09 645.88 737.42 632.19 749 632.07 752.86 630.55 754.38 631.26 758.35 622.72 764.9 615.93 768.76 614.53 769.93 616.05 776.71 614.29 783.26 616.87 796.48 619.91 802.33 619.67 805.6 603.65 819.4 601.31 839.05 593.94 847.47 596.28 863.26 592.88 869.7 576.27 874.96 566.08 880.45 561.06 879.4 555.26 878.65 549.82 881.08 536.85 881.16 536.21 882.85 526.03 884 520.35 879.29 514.62 878.7 511.11 873.44 503.51 875.54 498.59 872.03 489.35 871.1 476.6 864.2 475.31 857.88 465.95 847.47 456.13 846.89 452.62 839.75 455.78 839.17 458.82 833.09 454.37 828.64 445.25 828.41 440.92 827.24 433.67 828.99 416.24 818.23 412.96 817.3 400.74 813.56 392.31 809.64 389.86 803.91 379.85 800.92 367.51 795.95 362.77 786.19 353.77 785.84 345.99 780.34 342.94 772.33 344.17 768.35 341.25 764.73 340.37 753.32 337.04 753.09 334.76 751.22 315.45 732.1 315.46 732.06 301.07 722.16 281.53 708.48 261.53 709.42 253.46 715.5 241.17 719.01 234.5 722.28 231.58 720.18 217.77 719.94 205.29 727.9 202.68 726.02 197.42 726.38 194.96 724.5 191.92 725.79 179.17 731.87 168.87 740.53 168.67 748.73 146.41 749.88 143.37 747.08 136 747.9 132.49 745.67 126.53 746.14 123.37 743.33 114.71 743.57 104.3 745.91 98.92 749.65 95.64 747.54 92.25 749.77 72.71 748.13 74.12 746.14 73.53 743.22 68.38 740.41 60.19 737.02 52.82 734.91 44.64 735.97 40.07 736.9 30.83 733.39 29.19 729.42 33.87 722.75 28.26 720.18 29.66 715.85 26.5 711.99 22.99 715.15 16.21 715.85 14.92 711.76 17.38 707.43 6.85 697.37 14.34 694.33 13.28 689.07 9.07 681.93 1.7 671.41 1 666.84 12.46 660.41 17.85 660.18 27.2 652.23 32 639.94 43.11 636.9 48.15 639.36 57.62 640.06 61.01 639.13 70.26 637.14 70.37 631.06 76.34 623.45 75.99 614.45 80.9 613.86 88.97 603.1 96.58 603.1 100.55 600.06 101.14 594.92 113.66 579.95 122.31 573.4 126.25 563.91 128.09 561.27 129.28 558.78 131.31 555.94 133 554.32 135.21 553.83 137.54 554.45 140.46 554.73 143.72 555.32 144.95 554.63 147.95 554.42 149.82 554.66 151.68 555.53 154.73 556.49 158.37 556.43 162.91 557.98 Z"/>
</g>
</svg>