<?xml version="1.0"?>
<svg xmlns="http://www.w3.org/2000/svg" version="1.2" baseProfile="tiny" fill="#f9c113" width="800" height="636" viewBox="0 0 800 636" stroke-linecap="round" stroke-linejoin="round">
<g fill="#c0392b" id="id_53">
<path d="M 768.47 165.25 745.98 183.8 750.81 205.79 745.49 245.34 742.83 273.4 758.8 273.4 755.41 289.96 783.71 295.81 770.89 327.11 720.09 369.93 667.6 388.32 628.18 376.19 591.17 388.52 560.69 387.91 514 413.78 499.25 437.02 473.61 447.53 471.79 501.92 491.39 525.08 491.63 537.52 489.45 551.78 491.39 563.31 464.3 592.96 462.72 610.27 452.81 619.88 442.16 622.21 397.74 635 397.99 634.7 398.64 633.94 398.3 632.91 397.52 632.29 396.06 632.41 393.49 632.93 391.57 632.7 390.39 631.48 390.05 629.04 390.05 627.57 389.56 626.53 388.35 626.55 386.27 627.49 384.41 628.03 382.86 627.51 384.85 622.77 386.09 619.94 386.3 618.36 385.59 617.61 383.61 617.22 380.08 618.36 377.57 618.77 373.88 618.1 370.81 618.13 368.39 619.01 366.84 620.15 365.33 620.98 363.31 620.02 362.32 618.57 361.82 616.86 361.17 616.16 359.72 616.88 357.55 618.07 356.03 619.16 353.92 621.76 352.59 624.56 351.47 625.15 349.89 624.79 348.81 622.9 347.6 621.5 346.42 620.72 345.31 621.21 343.48 623.26 342.02 626.22 340.85 626.79 340.04 626.27 340.51 624.74 340.75 623.36 339.48 621.34 337.34 620.62 335.76 620.23 332.91 620.95 331.95 619.92 333.38 618.1 334.52 616.23 335.02 614.55 333.81 614.11 330.09 614.88 327.4 616.73 322.87 620.28 320.39 621.26 316.68 621.11 314.76 620.75 313.39 620.3 302.05 615.79 298.27 615.12 296.57 613.77 297.53 612.58 297.22 610.84 295.54 609.28 291.58 608.87 289.19 607.91 286.62 603.48 282.31 600.6 279.46 600.24 277.11 600.42 275.46 599.77 276.52 596.63 279.21 594.45 279.4 591.76 277.54 591.39 273.11 592.09 268 591.89 263.29 591.08 260.78 587.71 257.65 586.42 252.78 587.06 250.09 589.06 247.61 588.75 243.33 588.72 237.85 590.9 234.16 591.21 230.75 590.1 228.49 586.11 224.12 582.76 220.77 580.71 217.55 578.98 214.33 579.11 210.73 580.14 206.21 581.41 201.65 583.02 198.52 583.44 192.05 583.57 185.2 586.16 180.95 588.91 175.81 591.14 162.33 589.97 158.24 589.5 149.81 589.01 139.09 586.13 125.71 585.87 111.23 586.03 103.95 586.68 100.11 589.04 92.02 594.27 82.54 597.46 74.48 598.76 63.89 598.19 57.26 592.56 47.18 584.68 19.24 572.16 15.49 567.48 6.5 562.03 1 555.43 3.81 542.32 15.13 530.19 17.1 518.38 19.98 498.66 30.08 484.35 38.58 472.8 49.09 455.82 59.6 451.78 74.97 458.25 91.95 452.59 86.26 445.27 73.35 428.34 69.31 413.79 79.95 403.15 92.76 389.54 99.62 375.25 102.43 369.05 108.38 361.98 112.97 356.33 118.63 343.4 120.96 341.96 128.51 337.09 128.93 334.35 128.73 332.34 127.98 329.81 128.27 328.45 129.95 324.07 131.18 322.36 135.58 316.31 140.15 310.12 147.74 299.01 156.64 290.12 169.57 290.92 173.33 287.17 179.27 281.32 186.55 273.95 201.92 278.8 205.96 261.83 201.11 251.32 201.13 251.28 201.11 251.25 204.5 243.79 219.69 246.2 254.28 241.16 295.4 247.61 293.7 266.79 285.48 275.87 284.27 284.55 289.35 290.21 295.64 281.12 309.43 277.49 320.07 271.43 327.57 260.13 339.42 260.13 343.05 255.89 358.05 258.51 368.21 257.91 378.85 246.2 432.31 250.24 440.53 232.68 441.74 201.2 449.48 207.46 467.14 206.25 475.85 212.3 478.51 219.36 488.67 219.97 502.7 227.23 517.45 230.06 525.19 227.43 533.9 219.97 540.91 219.56 545.03 211.49 552.04 209.07 559.3 212.91 557.85 206.25 564.62 193.94 576.71 182.04 589.29 184.06 586.15 178.81 586.39 173.97 571.63 172.96 568.01 165.5 556.64 166.51 549.14 172.56 543.57 173.16 541.16 169.33 546.24 164.89 545.03 149.97 557.6 151.58 558.33 144.73 556.64 139.68 571.63 133.23 584.45 124.16 591.71 122.75 594.37 105.81 591.47 102.99 585.42 96.34 579.86 97.14 571.88 86.46 582.04 79.81 575.02 72.35 573.33 76.99 567.04 76.38 563.65 71.14 550.11 67.31 547.93 59.25 551.56 56.23 550.83 52.4 543.09 47.36 528.09 47.16 518.9 37.49 512.86 37.89 511.4 27.82 515.27 22.58 509.95 21.17 511.65 15.93 505.36 13.11 513.58 7.07 523.26 14.12 528.58 10.89 535.83 12.1 535.83 16.13 539.46 16.53 542.12 20.16 545.99 19.76 546.96 15.93 548.9 12.3 546.72 10.29 540.19 2.84 540.94 1 546.72 2.43 555.19 8.28 557.85 7.87 560.02 10.29 562.44 9.48 562.93 13.92 567.76 12.71 569.94 14.92 573.09 17.74 568.49 21.57 570.67 26.61 567.28 31.85 568.49 37.89 576.96 35.27 577.92 40.71 583 43.53 595.34 54.41 597.52 50.59 597.52 41.67 605.26 46.15 615.66 45.75 621.95 48.37 628.72 47.76 632.35 50.18 638.4 46.56 644.93 39.5 652.67 39.3 662.34 43.33 669.84 45.55 673.95 42.12 676.61 34.67 679.52 28.02 682.66 24.19 681.69 19.36 674.44 17.14 673.71 9.48 677.82 8.88 686.29 11.3 692.1 13.51 700.08 12.91 705.88 18.95 710.96 28.82 713.87 33.86 718.21 37.25 715.58 37.98 715.65 38.45 716.86 39.59 717.26 40.1 717 40.82 716.29 42.04 716.55 42.57 716.72 42.55 716.94 42.86 720.2 43.62 722.9 43.43 725.62 42.72 728.23 42.85 733.52 41.84 735.1 45 735.65 47.05 739.51 54.09 740.32 55.93 737.25 58.04 735.72 60.84 734.21 64.1 733.17 66.15 731.22 68.63 729.39 69.45 728.51 69.56 725.67 68.52 722.16 68 715.87 66.77 713.36 67.03 707.79 67.77 705.51 68.15 702.61 68.23 696.83 67.03 692.88 63.58 690.92 60.92 689.85 62.09 689.23 65.9 688.22 67.49 688.29 69.98 693.17 72.11 700.53 74.02 707.36 76.02 711.75 76.83 714.99 78.44 717.75 81.82 721.74 88.2 725.54 90.24 731.1 95.2 733.87 97.22 738.48 100.46 742.16 100.24 747.88 100.94 756.01 102.82 761.87 103.68 769.32 105.24 775.67 110.17 782.63 112.95 790.17 115.66 795.8 119.46 798.34 122.22 798.75 124.79 799 127.55 796 132.34 791.51 136.89 791.21 136.97 785.2 139.07 777.41 147.29 773.59 153.79 774.94 157.31 777.46 158.16 780.41 159.33 781.21 160.01 768.47 165.25 Z"/>
</g>
</svg>