<?xml version="1.0"?>
<svg xmlns="http://www.w3.org/2000/svg" version="1.2" baseProfile="tiny" fill="#f9c113" width="800" height="639" viewBox="0 0 800 639" stroke-linecap="round" stroke-linejoin="round">
<g fill="#c0392b" id="id_56">
<path d="M 439.21 475.2 446.38 512.53 417.69 527.47 337 515.52 331.62 567.8 349.55 618.58 317.28 638 209.15 599.25 216.86 587.21 193.55 449.81 168.44 440.85 136.17 449.81 109.27 427.41 68.03 427.41 60.85 400.52 19.61 367.67 1 350.79 58.66 321.25 133.07 282.38 280.83 204.14 356.46 164.26 433.6 124.01 517.56 80.36 584.24 44.53 615.18 21.45 626.98 12.35 632.59 1 667.46 48.53 688.95 74.78 733.68 130.42 783.7 201.71 799 222.18 778.12 239.25 740.46 282.56 674.12 328.85 622.11 364.68 568.32 370.66 562.94 325.86 518.11 328.85 471.49 433.38 436.58 461.6 430.25 428.9 439.21 475.2 Z"/>
</g>
</svg>