<?xml version="1.0"?>
<svg xmlns="http://www.w3.org/2000/svg" version="1.2" baseProfile="tiny" fill="#f9c113" width="800" height="651" viewBox="0 0 800 651" stroke-linecap="round" stroke-linejoin="round">
<g fill="#c0392b" id="id_57">
<path d="M 165.16 277.99 144.02 271.77 124.12 246.91 98.42 245.41 96.76 240.69 100.49 204.44 156.45 212.73 176.35 202.37 169.55 167.04 193.76 147.47 226.1 74.97 257.19 72.9 260.92 103.97 298.23 99.83 334.29 74.97 380.3 42.87 406.42 12.84 420.9 1 443.4 31.09 463.89 60.5 525.06 139.97 543.35 166.85 560.22 188.43 763.42 464.41 799 511.2 747.08 538.07 704.23 560.61 621.53 583.47 599.18 566.04 584.26 540.14 558.14 489.35 528.3 458.27 487.26 461.38 457.41 449.98 413.88 437.54 392.74 440.65 396.47 480.03 433.78 491.43 438.75 516.3 422.59 535.99 407.66 570.19 393.98 608.54 372.84 626.16 334.29 614.76 284.55 594.03 244.75 595.07 211.17 631.34 180.08 650 161.43 637.56 126.61 640.67 94.27 627.2 40.8 629.27 1 606.22 1 590.92 24.63 575.37 45.77 550.5 85.57 543.24 125.36 550.5 155.21 535.99 167.65 531.84 181.33 498.68 211.17 491.43 211.17 447.9 178.84 426.14 157.7 406.46 126.61 390.91 91.78 371.23 124.12 333.93 158.94 310.1 176.04 296.11 180.08 302.85 165.16 277.99 Z"/>
</g>
</svg>