<?xml version="1.0"?>
<svg xmlns="http://www.w3.org/2000/svg" version="1.2" baseProfile="tiny" fill="#f9c113" width="800" height="1136" viewBox="0 0 800 1136" stroke-linecap="round" stroke-linejoin="round">
<g fill="#c0392b" id="id_51">
<path d="M 286.19 558.05 290.39 557.03 290.11 555.34 283.97 550.75 283.71 548.89 288.6 546.2 288.85 544.32 288.15 541 282.61 536.08 284.45 529.22 286.7 525.81 290.3 523.32 294.3 517.57 297.89 517.46 298.45 512.66 300.13 511.58 298.3 508.96 300.3 507.29 307.69 505.54 313.35 502.64 315.77 500.04 318.41 495.31 319.13 492.95 321.64 492.1 322.91 490.27 321.97 486.12 319.16 480.97 329.93 472.54 338.75 466.12 354.9 460 362.36 458.92 363.05 456.9 359.94 450.72 361 446.84 361.56 443.05 368.4 439.38 370.56 437.42 370.54 434.65 368.85 432.7 370.28 429.78 371.59 426.19 368.73 423.44 364.8 422.68 360.38 423.18 356.64 421.34 359.27 415.83 357.28 413.69 356.32 413.31 355.92 413.14 355.49 413.33 353.86 414 351.82 414.02 350.33 413.67 351.21 411.81 351.05 409.99 346.43 408.68 342.49 406.42 339.15 405.11 336.94 404.56 336.27 401.35 333.67 399.36 330.57 399.08 328.22 399.15 327.02 399.33 325.59 399.98 324.86 399.56 324.47 397.94 326.74 395.46 324.84 392.93 323.76 390.4 323.37 388.59 320.92 387.43 319.73 385.39 316.14 384.22 305.41 372.97 290.17 370.6 284.58 373.14 275.3 368.79 269.07 361.58 266.14 359.38 262.32 358.68 251.74 356.61 244 353.3 231.05 349.4 224.84 353.92 214.85 358 161.88 369.28 153.34 367.28 124.25 367.89 91.16 376.29 44.43 372.18 1 348.65 19.26 341.49 34.24 337.69 147.99 302.08 181.11 271.4 211.7 267.79 269.57 240.9 305.66 222.1 310.4 195.41 330.71 161.72 372.18 136.64 379.96 114.41 362.52 92.47 379.15 70.64 431.43 67.47 472.72 57.22 490.36 25.75 522.09 1 595.57 29.14 617.49 48.2 623.25 61.02 627.23 67.92 624.9 74 625.74 77.84 631.21 83.66 635.35 99.28 647.98 126.82 655.23 135.31 668.46 145.59 672.89 150.49 675.81 157.62 680.02 162.34 685.54 167.93 695.67 174.76 710.9 185.2 721.2 204.72 724.11 208.58 724.92 211.53 725.02 213.24 722.69 217.55 724.8 230.03 715.23 236.35 717.34 255.56 699.51 285.61 669.67 384.03 695.75 413.66 732.04 435.18 732.57 437.88 732.53 439.52 732.64 442.32 732.49 445.18 732.72 447.94 736.66 461.36 739.35 464.89 745.74 473.4 744.43 483.66 735.1 512.62 732.38 516.38 723.01 524.6 718.18 530.76 708.89 535.1 706.3 539.24 704.62 541.96 690.26 554.72 689.32 556.03 687.72 559.53 681.63 568.7 681.18 570.67 681.73 575.16 682.7 578.29 684.13 582.37 697.16 606.8 699.64 612.93 699.2 616.75 694.61 623.49 690.69 629.38 682.73 645.48 683.74 647.94 686.72 648.28 692.39 648.97 697.45 651.68 699.57 651.67 704.24 649.12 707.25 648.66 708.52 649.06 711.04 650.62 712.37 651.42 719.05 657.19 724.77 665.49 728.96 675.36 732.11 677.37 737.89 676.97 741.73 672.24 744.36 668.52 746.97 668.92 750.04 669.99 752.85 675.9 751.32 681.32 746.44 685.1 743.71 691.04 743.6 694.65 744.58 696.81 747 699.78 756.83 701.71 765.24 707.45 770.92 712.47 775.1 719.66 781.93 725.8 781.65 727.61 780.52 728.99 776.08 736.24 775.94 743.8 775.7 752.16 778.71 756.75 778.54 758.37 773.17 760.7 771.27 767.14 771.92 771.55 774.28 777.01 778.71 780.64 780.34 781.91 795.09 781.68 797.41 783.5 799 797.29 797.75 798.39 792.04 796.43 780.48 797.44 777.5 803.96 769.42 807.98 767.32 812.76 765.28 814.2 761.19 813.12 756.79 812.82 754.2 815.55 751.51 818.95 755 827.02 762.53 837.23 764.27 841.52 760.88 842.68 755.66 840.67 750.28 835.46 746.76 833.82 743.82 834.08 740.52 838.44 738.76 842.22 739.39 843.94 741.3 847.93 742.62 849.62 744.27 852.19 743.35 855.62 742.89 859.04 743.59 861.69 744.27 862.72 748.48 863.63 751.27 864.43 752.42 865.99 752.32 869.16 751.82 875.01 750.47 878.13 750.41 881.59 752.26 883.54 754.63 883.65 756.28 883.32 757.17 882.71 757.73 882.08 758.7 876.44 759.92 874.98 762.06 873.15 764.63 872.99 766.93 874 769.12 876.92 769.54 880.09 769.12 884 766.94 889.76 766.6 892.87 767.02 894.66 769.24 896.04 777.4 896.97 780.82 897.22 784.65 898.25 786.15 898.68 786.96 899.26 788.49 901.03 789.05 903.36 788.87 908.88 787.72 913.63 786.76 917.72 785.59 920.78 783.96 921.72 781.77 922.2 780.06 922.05 772.46 919.13 766.78 919.27 764.83 919.55 763.75 921.07 761.39 924.62 759.96 928.12 757.15 933.24 755.4 935.26 752.66 936.8 750.13 937.65 748.28 938 745.06 938.96 742.73 939.04 740.29 937.35 734.38 935.66 732.1 936.09 730.39 936.59 728.22 937.93 727.32 940.22 727.88 942.56 729.63 946.18 728.46 950.28 725.77 953.79 721.56 957.64 720.46 957.76 718.89 957.38 715.93 956.75 712.64 957.73 715.21 960.71 717.86 962.69 719.77 963 724.28 963.1 726.39 962.36 731.86 959.32 733.93 958.32 735.5 958.12 737.13 959.02 738.08 959.88 739.04 961.03 739.31 962.26 738.64 967.1 737.78 969.33 734.32 973.16 732.43 974.95 730.31 975.73 728.66 976.26 724.44 976.06 719.99 977.61 718.71 979.15 719.03 984.1 719.11 987.9 717 988.89 714.48 990.41 711.45 991.65 709.8 991.92 707.46 991.9 705.95 992.16 704.49 993.28 703.92 994.51 704.24 995.9 706.46 999.34 706.56 1003.2 705.69 1005.74 704.31 1007.07 702.19 1007.98 700.54 1008.3 697.2 1008.78 694.19 1009.93 692.86 1011.29 691.49 1014.61 690.39 1017.43 688.76 1022.08 687.53 1025.83 688.35 1027.14 692.2 1032.89 692.68 1034.28 691.95 1035.56 690.65 1036.61 689.52 1037.07 684.83 1039.48 682.48 1041.79 680.53 1044.71 680.51 1048.76 681.49 1054.66 683.75 1061.15 686.06 1066.73 688.57 1068.84 691.79 1070.4 694.21 1070.83 700.85 1069.25 704.41 1068.36 707.6 1068.17 710.14 1069.54 711.06 1070.18 711.06 1071.58 710.34 1072.59 708.11 1075.18 704.35 1079.45 701.95 1081.94 697.49 1085.15 693.18 1088.7 690.35 1092.02 690.33 1092.15 682.01 1094.36 670.66 1114.23 640.39 1126.87 599.31 1135 585.25 1113.32 523.63 1095.26 516.06 1080.36 529.57 1062.75 525.79 1055.98 511.19 1056.43 491.73 1051.92 504.17 1037.48 503.09 1026.64 493.36 1008.14 475.52 1000.47 458.76 1006.79 423.08 988.74 392.81 1015.81 379.3 1013.11 365.24 1023.94 350.65 1018.52 338.22 1015.36 338.22 1008.14 313.89 992.35 312.81 1020.33 302.54 1026.19 279.3 1023.03 251.73 1005.43 262 986.93 271.73 965.73 285.78 959.87 309.03 967.99 298.76 953.55 300.38 940.02 286.86 935.51 274.97 950.39 259.29 946.33 187.4 945.88 178.21 933.25 199.83 894.13 203.62 864.6 209.29 825.84 216.97 806.82 217.19 806.87 218.4 807.25 219.58 807.42 220.49 807.03 221.5 806.09 222.85 804.18 223.28 802.98 223.37 801.83 223.23 800.75 222.84 799.77 221.95 799.18 220.59 798.77 218.17 797.97 216.92 797.22 216.3 796.36 215.59 794.83 215.35 793.02 215.89 791.79 217.04 790.31 220.64 788.01 224.15 785.89 226.65 785.2 230.36 785.07 255.01 795.1 253.51 791.33 241.79 696.68 240.21 695.11 235.9 695.49 234.88 693.01 234.81 684.72 237.23 678.61 240.06 673.4 242.82 671.61 247.35 668.32 252.63 663.54 252.4 660.58 250.91 658.5 249.88 655.58 250.78 652.01 250.45 650.65 248.5 648.27 249.04 641.07 249.48 636.87 248.81 628.91 250.31 623.6 251.17 619.3 244.37 617.52 243.67 615.58 245.94 611.88 247.03 605.94 250.24 603.83 254.91 599.81 251.74 594.06 252.51 589.16 256.69 586.7 259.79 582.22 260.47 579.17 263.32 576.74 269.62 571.11 273.49 567.92 277.44 561.23 286.19 558.05 Z"/>
</g>
</svg>