<?xml version="1.0"?>
<svg xmlns="http://www.w3.org/2000/svg" version="1.2" baseProfile="tiny" fill="#f9c113" width="800" height="820" viewBox="0 0 800 820" stroke-linecap="round" stroke-linejoin="round">
<g fill="#c0392b" id="id_65">
<path d="M 766.99 295.85 765.87 308.72 760.13 311.45 757.81 331.33 753.18 343.03 748.22 358.9 738.35 356.09 727.19 355.16 725.43 358 724.22 361.04 721.49 360.19 720.05 354.34 709.03 358.28 707.96 361.86 710.79 368.3 717.09 368.14 722 373.13 723.48 386.86 742.01 384.68 748.78 387.41 749.43 391.78 773.7 393.03 776.02 406.37 771.2 410.35 766.29 428.29 760.64 430.01 754.99 436.17 742.29 432.5 741.27 442.34 731.64 442.96 727.09 438.51 723.67 440.23 703 435.55 681.69 435.16 674.65 430.09 668.9 431.26 667.14 439.06 659.64 439.92 642.4 434.69 643.51 426.73 630.54 423.3 621 428.76 608.86 442.1 575.22 426.89 573.65 431.96 560.67 426.89 551.78 415.73 545.29 424.16 541.22 443.2 538.81 454.28 527.32 456.15 521.76 469.73 513.05 474.88 516.38 490.02 522.68 494.08 515.46 503.14 511.38 512.35 511.19 512.5 505.82 512.97 503.22 516.72 497.48 518.44 499.89 524.21 502.3 526.09 510.45 534.83 518.98 536.71 529.17 519.53 536.03 520.78 536.58 526.24 534.17 537.02 544.37 531.08 552.89 528.59 558.64 532.96 579.02 539.05 577.35 547.17 571.42 552.63 573.65 558.1 567.53 570.28 571.98 574.34 567.72 577.15 549.18 573.87 547.15 582.15 540.85 589.81 548.44 596.52 561.23 596.84 559.56 605.9 563.64 610.74 567.35 618.86 580.13 611.52 579.39 603.55 590.14 603.4 593.85 608.24 598.67 600.9 602 604.96 608.67 598.55 613.31 599.96 610.71 627.61 607.75 640.27 609.41 650.74 616.09 651.05 609.41 660.74 609.23 677.15 566.42 681.52 561.42 686.68 561.05 690.74 566.6 690.43 567.35 701.68 561.42 709.97 561.79 716.22 569.76 715.13 565.68 731.85 566.23 740.14 556.41 747.02 569.38 762.65 573.65 782.67 574.19 799.63 530.2 813.47 490.38 819 484.85 790.25 472.7 770.38 477.67 754.71 469.45 733.88 468.65 733.29 453.87 721.68 436.17 710.62 433.96 696.24 424 681.87 393.02 679.66 377.53 668.6 356.51 666.38 355.92 665.31 355.7 665.37 355.8 665.09 349.87 654.22 349.55 653.99 337.37 643.13 329.34 641.6 322.27 639.69 322.28 639.84 320 639.84 306.72 623.26 296.77 602.24 294.92 579.21 297.04 574.53 294.55 562.5 294.55 543.63 295.66 534.78 303.82 526.62 305.64 524.86 311.18 516.07 313.25 511.07 314.47 508.24 314.47 501.61 305.98 491 305.64 490.46 296.96 488.97 293.45 488.33 274.64 485.02 244.77 485.02 228.17 478.38 228.43 476.78 218.47 470.21 207.2 466.2 202.61 462 194.77 454.73 194.69 454.22 194.64 454.22 192.76 442.99 183.91 421.98 173.4 405.34 171.26 399.52 152.69 385.14 151.83 384.38 136.34 383.27 120.85 383.27 109.79 370 98.72 362.26 83.24 353.41 78.33 345.5 75.88 341.43 68.81 330.16 69 320.03 69.95 313.54 58.53 303.81 54.47 300.33 54.47 278.21 55.62 263.86 47.06 255.87 46.5 256.29 36.86 248.35 18.06 243.93 1 244.58 5.26 240.58 27.5 233.88 37.88 233.72 44.92 224.21 71.79 215.02 86.8 205.51 88.84 200.37 105.52 195.54 104.59 179.8 98.85 162.5 102 148.95 127.39 121.68 131.47 129 149.44 118.1 150.37 100.5 159.08 106.73 170.01 97.54 193.74 99.72 231.17 90.53 253.78 67.64 282.69 57.98 294.37 68.57 294.92 93.8 299 116.7 292.51 124.8 300.67 150.19 306.97 163.59 311.23 174.65 331.99 174.19 334.4 172.94 335.14 162.19 347 167.18 352.19 157.2 355.15 147.54 361.64 143.34 364.97 136.64 385.73 138.04 395.55 129.94 399.81 132.43 402.59 124.33 412.6 126.04 419.46 113.12 451.89 118.88 453.37 131.65 461.34 135.55 463.57 126.2 473.57 121.84 482.65 115.45 489.88 117.32 494.14 113.43 501.74 111.71 514.53 81.03 523.8 79.94 535.66 83.83 546.03 79.32 548.81 83.21 542.51 91.78 553.45 107.35 557.52 129.78 573.65 135.86 593.48 129.16 598.3 115.45 610.34 119.66 611.08 128.07 619.79 120.44 624.8 103.3 622.57 94.74 624.43 88.19 641.1 63.74 649.26 55.49 644.07 40.85 677.24 29.49 693.37 17.19 698.18 1 711.16 1.47 719.68 6.6 725.98 1 729.32 8.63 735.06 12.99 747.48 10.34 750.07 24.2 758.6 28.55 754.15 37.9 762.49 46.77 773.61 48.02 774.54 53.78 795.29 67.48 792.51 87.1 784.54 95.36 799 101.9 792.7 126.51 789.36 137.26 771.02 136.64 771.57 130.25 764.53 117.94 748.04 116.54 734.32 120.13 732.84 125.11 713.75 121.37 701.52 128.85 697.63 138.35 703.19 140.69 698.18 146.45 705.6 150.5 703.93 160.16 695.96 161.1 693 164.37 693 173.88 685.95 177.15 688.92 187.12 701.52 187.28 702.63 197.09 697.81 210.34 704.67 221.88 718.01 228.89 723.57 228.89 724.13 238.24 715.23 249 718.94 253.36 722.28 263.34 726.17 268.64 726.91 274.1 730.8 279.24 744.89 278.93 773.43 286.89 766.99 295.85 Z"/>
</g>
</svg>