<?xml version="1.0"?>
<svg xmlns="http://www.w3.org/2000/svg" version="1.2" baseProfile="tiny" fill="#f9c113" width="800" height="335" viewBox="0 0 800 335" stroke-linecap="round" stroke-linejoin="round">
<g fill="#c0392b" id="id_62">
<path d="M 238.76 209.62 222.93 225.67 196.71 232.11 180.1 230.58 172.44 237.02 166.34 232.66 165.69 245 153.11 252.64 150.25 247.51 132.47 266.63 130.26 276.13 134.29 288.26 134.94 299.29 123.25 302.68 121.83 306.29 111.31 312.95 92.5 319.4 87.56 326.07 80.3 326.18 64.72 330.88 61.74 333.68 53.47 334 47.27 326.25 39.52 308.41 26.35 297.56 7.75 291.35 7.75 289.42 1 286.64 1.73 285.33 4.78 277.57 7.79 268.36 8.8 259.94 8.22 250.88 9.98 239.15 13.22 232.68 17.44 224.99 20.55 221.9 20.34 218.59 24.48 211.53 26.09 204.52 36.72 195.29 38.41 189.66 42.32 180.09 43.84 174.25 45.54 170.82 51.77 161.23 62.34 153.89 70.76 147.98 81.19 143.2 89.81 138.37 93.71 136.92 101.84 130.96 104.28 127.77 109.63 122.36 112.13 119.49 116.26 115.36 118.9 112.97 124.59 106.5 126.31 103.53 128.87 97.71 130.88 95.29 132.81 92.13 132.98 87.4 138.95 82.43 145.9 79.8 150.18 77.02 155.41 75.96 161.36 71.37 163.31 70.19 165.55 65.92 168.71 62.03 174.43 58.97 177.44 57.93 182.3 56.48 186.38 52.84 189.28 51.05 197.58 47.02 201.17 44.51 207.52 39.06 209.04 36.57 209.9 31.14 210.1 28.27 209.44 24.14 209.1 20.33 208.38 12.78 209.93 9.93 215.79 4.6 220.09 1 222.83 2.84 226.49 4.9 230.15 7.97 232.95 8.36 235.78 7.24 238.88 3.82 242.66 1.5 245.27 1.1 251.6 4.1 254.28 5.64 260.25 6.7 262.13 7 265.82 7.7 267.2 10.2 269.3 13.56 270.55 14.85 272.49 15.16 274.64 13.61 276.05 11.56 278.06 8.11 279.47 6.35 282.35 4.72 284.15 4.4 287.15 3.78 289.99 4.86 291.62 6.66 290.94 10.05 291.17 14.28 291.7 17.76 293.12 20.26 296.23 23.67 298.68 25.12 300.02 25.58 301.2 24.95 302.75 22.65 303.52 21.42 305.25 20.21 307.23 19.66 308.98 18.45 310.95 18.16 313.82 18.21 316.38 18 319.05 18.76 319.82 19.37 320.79 20.36 321.54 20.69 321.97 21.31 321.86 22.06 322.01 22.98 323.41 24.88 323.39 25.24 324.05 26 324.59 26.1 326.58 25.43 328.34 25.07 329.71 25.16 330.56 25.9 330.66 27.85 330.98 28.67 332.23 29.11 334.81 28.61 336.12 28.15 336.54 27.24 337.38 26.86 337.94 26.85 338.37 27.64 338.74 28.18 339.16 28.35 340.49 28.17 340.92 27.35 341.56 26.01 342.15 24.67 342.6 23.87 343.65 22.41 344.37 22.06 345.84 22.1 347.98 22.73 349.26 23.52 351.65 24.6 353.42 25.39 354.91 25.43 355.86 25.15 356.81 24.39 357.27 23.12 358.05 22.12 359.11 21.08 360.31 20.6 361.49 20.4 362.5 20.69 362.98 20.93 363.65 21.63 363.78 22.32 364.35 23.64 365.02 24.21 366.47 24.62 368.63 23.79 371.12 22.13 372.37 20.91 373.48 21.29 374.65 22.32 376.79 23.29 378.73 24.26 379.52 25.31 379.28 26.62 379.47 27.36 379.77 27.62 381 28.02 383.36 28.23 385.08 28.27 386.93 27.96 388.29 27.45 390.77 26.86 392.75 27.09 394.6 27.6 397.27 28.49 400.11 29.07 401.47 30 403.67 30.5 405.2 30.44 407.6 29.48 409.24 28.63 411.21 27.14 413.3 26.17 414.52 25.24 416.44 23.72 417.86 22.36 418.9 21.65 420.51 21.89 421.83 22.64 423.5 22.7 424.99 22.24 425.84 21.81 427.3 20.6 428.26 20.39 429.17 20.61 429.88 20.88 430.29 21.19 430.36 21.86 430.18 22.51 429.87 23.24 428.33 24.96 428.36 25.76 428.38 26.44 428.88 26.89 430.14 27.12 432.01 26.6 433.81 25.52 435.71 24.79 438.36 24.58 439.83 24.95 443.06 26.27 444.19 26.45 446.01 26.56 447.49 26.07 448.24 25.77 449.03 25.17 449.52 24.27 448.73 22.26 448.67 20.8 449.58 19.08 450.5 18.61 451.63 18.29 453.85 18.23 454.94 18.38 455.96 18.62 457.19 19.39 457.98 20.01 458.8 20.41 461.07 21.09 461.91 21.24 463.01 22.06 463.83 22.02 464.18 21.58 464.71 20.58 465.57 19.9 466.4 19.55 467.72 19.64 469.48 19.33 470.5 18.45 471.27 17.76 472.38 17.37 473.13 17.42 473.96 17.86 474.57 18.89 475.75 20.34 475.95 21.13 476.25 21.75 477.02 22.18 478.13 22.44 479.85 21.87 482.39 21.38 484.08 21.68 485.06 21.7 485.69 21.24 486.27 20.15 486.91 18.64 487.47 18.51 487.94 18.07 488.05 17.33 488.22 15.84 488.81 15.03 489.57 15.03 489.99 15.13 490.45 15.4 490.89 15.73 491.23 16.48 491.58 17.94 492.22 18.78 493.59 19.62 494.71 19.86 495.77 19.78 497.43 19.34 498.03 19.08 498.55 18.32 499.57 17.87 500.78 17.89 501.67 18.17 502.71 18.97 503.7 20.56 504.57 22.3 504.85 23.81 505.01 24.31 505.97 24.66 507.53 25.11 508.76 25.39 510.57 25.13 511.76 25.01 512.28 24.16 513.03 23.33 514.69 22.97 516.43 22.76 518.18 22.62 518.99 22.31 519.57 21.77 520.49 21.63 522.68 21.64 524.83 21.82 526.02 21.49 528.6 20.81 530.67 20.37 531.97 20.12 532.6 19.68 533.54 18.85 534.67 18.26 535.72 17.88 536.05 17.52 536.29 16.98 536.55 16.74 537.13 16.59 538.34 16.8 538.98 16.86 539.37 16.66 539.62 15.53 539.09 14.81 538.83 14.43 539.18 14.07 539.99 13.71 540.98 13.54 541.7 13.58 542.52 13.5 542.95 13.28 543.86 13.25 545.05 12.83 545.26 13.2 545.28 13.7 545.43 13.9 545.74 13.86 546.32 13.54 547.01 13.08 547.55 11.87 548.23 10.98 548.9 10.43 549.5 10.45 550.07 10.33 550.27 9.81 550.4 9.01 550.66 8.62 552.25 8.17 553.79 7.71 554.34 7.16 555.18 6.65 556.57 6.03 560.06 5.59 562.24 6.32 563.62 7.43 567.75 10.11 569.82 12.49 571.78 15.2 580.66 18.14 591.22 21.29 599.14 23.97 600.65 22.22 611.71 17.28 617.82 14.19 619.72 14.36 622 14.61 624.44 14.59 626.29 14.74 626.77 15.78 628.47 16.66 630.17 17.28 630.58 22.47 630.71 24.92 629.73 29.29 628.75 33.41 628.28 34.74 634.05 35.51 639.94 37.61 641 40.21 643.62 43.35 646.98 44.46 656.14 49.89 665.13 51.7 670.59 51.75 675.84 52.21 685.58 53.87 696.5 55.37 700.69 58.1 707.67 60.27 719.48 63.6 729.76 64.52 735.62 68.59 739.87 70.91 746.79 75.55 754 77.96 758.37 81.29 760.58 84.33 768.08 92.59 773.36 97.73 778.16 100.46 784.08 103.8 794.8 109.39 799 110.69 796.85 118.26 792.95 128.08 790.23 135.39 793.08 140.41 793.6 150.78 780.88 158.85 790.75 170.1 786.46 180.68 782.57 195.2 770.89 193.13 763.62 195.64 765.7 203.83 762.32 212.67 737.79 213.33 727.41 209.51 720.14 214.97 710.54 219.88 704.44 218.68 705.09 213.76 687.96 214.31 670.17 217.48 662.52 222.94 655.77 221.19 645.65 219.77 633.32 234.84 620.6 233.64 610.47 229.05 616.05 223.26 618 209.51 603.46 199.9 602.82 195.86 595.03 194.99 589.19 188.76 592.3 182.21 586.33 179.16 584.52 169.44 575.82 171.3 571.8 168.24 569.46 162.89 565.05 166.82 559.08 163.22 549.99 162.89 546.62 174.24 535.33 182.87 512.09 190.84 515.73 201.1 510.02 206.89 498.34 224.03 497.04 228.62 498.6 234.62 495.09 246.64 488.99 251.99 488.47 246.09 480.04 243.14 476.66 252.75 462.78 257.45 451.48 253.19 448.63 237.46 440.97 226.54 445.38 220.53 443.44 217.8 436.17 220.97 427.86 218.24 421.37 219.01 412.42 240.52 407.1 241.72 404.11 244.45 399.05 243.14 392.69 247.62 385.68 250.68 384.13 257.23 378.54 254.5 377.51 245.54 354.79 241.5 349.99 250.57 342.98 249.37 341.04 255.05 338.05 253.3 331.17 258.98 316.64 258 314.3 262.69 309.76 265.64 307.68 272.41 304.05 279.41 295.74 275.91 295.22 283.45 293.53 284.32 279 284.65 276.01 276.89 271.6 267.5 265.89 249.69 270.43 244.01 267.58 227.96 267.19 210.27 259.01 202.85 238.76 209.62 Z"/>
</g>
</svg>