<?xml version="1.0"?>
<svg xmlns="http://www.w3.org/2000/svg" version="1.2" baseProfile="tiny" fill="#f9c113" width="800" height="791" viewBox="0 0 800 791" stroke-linecap="round" stroke-linejoin="round">
<g fill="#c0392b" id="id_69">
<path d="M 641.29 426.31 650.77 427.03 655.4 432.21 668.22 428.6 675.2 418.48 685.46 410.3 683.68 404.1 687.24 399.65 695.51 400.73 703.13 394.83 701.06 391.28 701.21 387.19 698.36 383.82 702.42 374.55 740.11 374.73 745.88 387.79 744.95 394.05 745.66 401.51 738.18 413.97 739.25 418.79 755.92 432.39 760.13 432.81 764.12 442.2 761.76 448.46 753.22 451.95 758.34 459.66 760.27 467.67 765.26 469.29 768.6 473.45 774.73 470.98 778.51 474.41 781.93 486.76 788.48 496.39 798.38 520.24 799 521.11 787.4 526.16 758.48 532.97 734.66 542.33 696.39 561.9 671.72 579.77 664.06 598.49 661.51 618.91 627.48 615.51 615.57 624.87 597.71 658.05 580.7 677.63 557.73 695.5 528.81 706.56 499.03 715.92 459.9 747.4 419.07 770.38 381.64 787.39 368.02 790 353.68 788.31 347.49 785.6 343.55 782.53 335.14 771.9 321.18 762.38 317.79 759.39 305.07 742.18 299.76 740.79 285.56 733.55 278.6 731.16 266.52 721.3 266.22 705.92 273.08 703.67 279.34 700.06 290.07 696.87 292.79 695.36 295.65 694.99 294.98 687.38 288.32 682.57 276.07 677.33 275.74 672.83 275.57 667.28 270.15 666.97 268.51 673.54 266.93 671.75 264.6 664.66 262.65 660.62 263.09 652.7 265.55 646.16 265.92 644.31 273.11 635.65 273.62 630.42 274.16 626.89 272.71 625.52 270.22 624.81 261 625.66 254.71 627.6 249.87 627.31 246.61 625.72 246.94 624.95 250.24 620.42 252.86 610.04 250.41 606.91 249.74 600.48 253.84 593.36 252.7 592.39 244.32 587.53 235.14 581.35 237.39 573.44 235.94 571.03 232.24 568.89 229.28 568.18 226.37 567.73 225.36 567.73 219.37 568.84 216.68 569.86 216.41 570.49 216.04 572.31 215.84 574.7 214.93 576.55 209.48 579.14 207.06 579.93 201.71 579.93 195.39 580.16 195.76 584.03 195.89 586.16 195.08 587.99 194.24 589.49 190.85 592.4 188.96 593.28 185.46 594.53 181.26 595.81 171.54 596.81 167 597.06 164.47 597.23 161.48 597.03 160.44 596.41 157.75 594.93 156.57 592.08 154.18 589.72 149.94 589.66 150.14 592.4 149.47 593.76 144.56 594.47 138.54 594.96 125.71 561.55 121.17 554.98 110.17 538.96 102.7 526.76 111.85 516.55 109.63 512.88 104.32 514.25 98.06 515.78 93.89 517.46 88.58 519.71 80.7 522.66 77.54 523.32 69.37 523.43 64.05 523.97 54.3 525.54 50.09 526.05 44.31 526.53 35.66 526.56 32.94 527.24 32.64 526.22 31.96 521.07 20.66 516.89 7.51 513.73 9.19 512.63 13.8 508.96 16.56 506.6 21.5 497.21 35.13 495.99 37.21 495.25 71.96 457.47 70.85 454.88 63.58 444.11 62.07 441.41 58.64 436.15 55.44 426.63 53.81 419.23 53.11 417.67 52.16 415.99 49.34 409.63 47.69 406.7 54.11 399.4 31.38 386.13 38.94 377.35 12.77 348.43 5.44 339.97 1 329.77 3.49 327.84 7.09 322.28 11.43 313.61 15.55 309.15 17.1 307.84 19.96 305.35 22.68 301.98 24.03 297.72 24.84 289.46 26.96 290.08 33.48 290.45 40.34 289.91 44.21 289.12 47.81 289.63 55.11 280.15 61.74 272.17 66.01 274.41 68.6 276.88 70.38 278.1 72.33 278.47 77.85 277.05 79.6 277.13 88.24 280.99 89.72 280.8 91.14 280.31 100.09 282.5 112.36 285.96 117.48 288.8 121.65 285.91 126.93 286.02 130.86 286.7 138.1 282.33 148.12 269.81 148.89 266.74 149.94 254.4 158.68 241.77 150.31 238.79 124.14 229.17 119.97 225.11 137.32 220.06 153.94 219.6 170.46 218.24 173.34 211.74 182.08 202.12 202.6 195.31 209.73 189.46 211.75 185.21 212.19 180.5 213.94 174.12 207.95 170.54 199.8 166.45 186.18 150.37 175.92 147.22 166.03 144.08 156.71 138.75 151.66 131.7 148.6 125.35 144.32 118.95 156.07 112.25 165.94 110.76 171.37 115.46 178.34 119.72 182.66 119.8 196.06 121.63 217.76 126.02 226.65 125.88 232.3 122.61 239.36 114.45 246.42 115.38 251 115.91 259.67 122 263.7 121.87 278.21 118.04 283.95 111.63 279.22 105.81 279.28 103.32 280.7 100.44 294.01 93.22 300.11 93.67 312.46 87.24 325.29 79.26 340.18 71.69 347.81 67.6 362.32 65.71 385.34 64.2 406.43 59.2 418.92 55.11 435.13 52.53 455.28 56.36 476.6 55.19 496.94 50.67 504.64 49.11 504.71 49.02 508.29 41.88 518.39 33.46 533.08 26.55 549.73 21.21 562.16 10.54 576.73 2.54 578.99 1 597.62 29.87 598.33 38.52 602.61 39.36 603.6 54.48 593.2 58.56 590.35 66.73 587.64 70.33 592.49 86.54 583.08 94.22 579.38 101.55 561.14 100.11 557.01 111.76 551.74 134.82 553.02 144.31 525.8 145.27 527.09 158 523.81 160.89 527.51 177.71 545.04 182.15 544.47 175.54 562.99 179.03 568.98 185.64 576.53 200.54 583.65 205.11 586.65 210.76 592.49 212.44 593.49 217.85 597.76 218.33 599.76 220.85 611.01 219.77 610.3 218.09 606.6 217.61 605.31 190.93 614.43 181.55 626.83 180.11 628.4 183.6 622.84 194.89 624.26 206.43 619.85 220.01 618.71 227.7 595.34 234.43 596.34 254.15 600.75 261.48 602.46 256.92 620.99 247.42 624.33 246.94 626.69 254.03 638.73 262.99 641.58 269.6 657.75 284.33 674.56 293.35 677.27 299.79 682.47 300.69 683.68 304.72 688.31 307.78 695.08 328.35 680.26 346.28 680.19 352.05 670 375.58 666.3 375.7 661.45 383.16 656.68 383.4 645.21 401.63 644.21 411.32 640.36 417.76 641.29 426.31 Z"/>
</g>
</svg>