<?xml version="1.0"?>
<svg xmlns="http://www.w3.org/2000/svg" version="1.2" baseProfile="tiny" fill="#f9c113" width="800" height="446" viewBox="0 0 800 446" stroke-linecap="round" stroke-linejoin="round">
<g fill="#c0392b" id="id_60">
<path d="M 607.6 308.71 591.25 311.2 583.82 318.68 563.01 332.4 542.2 344.87 533.28 358.59 521.39 358.59 515.44 353.6 512.47 344.87 494.63 334.89 478.28 351.11 472.34 342.38 458.96 329.91 458.96 331.15 433.69 353.6 429.24 353.6 418.83 351.11 403.97 346.12 402.48 336.14 408.43 331.15 427.75 331.15 430.72 311.2 415.86 311.2 392.08 309.96 366.81 307.46 362.35 314.94 346 324.92 344.51 322.42 337.08 322.42 332.62 318.68 332.62 302.47 313.3 296.24 307.35 298.73 296.95 309.96 285.06 306.21 274.65 299.98 258.3 291.25 253.84 287.51 231.55 275.05 221.14 268.82 200.34 266.32 169.12 265.08 155.74 266.32 145.34 268.82 136.42 272.56 117.1 278.79 102.24 278.79 71.02 285.02 39.44 288.14 41.29 286.27 42.41 283.78 45.2 277.08 46.5 274.74 45.2 274.43 41.48 273.34 42.22 271.78 43.52 269.13 46.13 266.32 44.82 266.32 46.31 264.77 47.61 264.3 36.09 262.59 34.42 265.23 31.45 268.66 30.33 269.91 27.55 272.25 26.43 273.49 24.2 277.7 22.53 278.48 20.49 281.28 19.93 283.15 19.37 284.71 18.44 286.74 19 288.14 14.15 287.66 12.42 278.71 11.67 271.13 11.9 266.32 9.83 264.19 3.97 262.11 1.14 259.36 1 255.05 2.9 247.38 7.14 242.98 10.63 239.89 11.73 231.52 10.29 228.72 4.79 218.3 4.67 213.2 9.17 212.93 16.99 212.1 29.73 216.61 36.54 222.17 41.56 220.92 52.37 218.53 62.37 216.43 79.77 212.87 94.21 209.83 101.45 207.82 107.77 206.59 113.35 206.17 126.66 206.01 138.51 205.63 149.21 201.76 153.63 198.67 154.88 196.02 163.45 193.57 169.79 192.45 175.43 192.88 180.19 194.11 181.21 193.87 182.16 192.97 183.71 190.47 187.51 187.37 189.72 187.23 194.17 185.14 197.29 185.05 203.44 185.25 206.83 185.08 210.23 186.13 217.1 185.56 223.52 185.4 226.37 183.79 230.18 180.63 234.97 176.45 236.74 175.3 240.51 173.61 243.88 171.38 248.52 169.63 252.25 167 254.4 164.45 259.29 158.88 264.95 153.24 267.69 149.71 269.76 146.94 274.54 142.64 273.51 139.75 271.26 136.58 268.1 132.98 263.37 129.73 259.5 122.63 245.32 117.88 245.82 116.75 246.94 114.82 248.46 113.41 248.62 112.64 249.54 111.68 250.64 110.09 250.39 109.49 250.32 109.13 251.06 107.23 250.74 106.31 249.86 105.96 249.72 105.64 250.3 105.29 250.76 105.15 251.43 104.61 252.21 104.29 253.02 103.9 253.4 103.49 253.18 103.12 252.53 102.32 252.2 100.84 252.26 100.04 252.64 99.11 252.72 98.33 252.97 97.89 253.31 97.55 254.3 97.36 254.93 97.19 255.39 96.77 255.64 96.41 256.49 95.72 257.04 95.58 257.72 95.92 259.36 96.55 260.58 96.77 261.11 97.09 261.96 97.31 262.45 97.57 263.19 98.06 264.4 98.91 264.73 98.8 265.2 98.28 265.5 97.88 265.64 97.15 265.97 95.85 265.99 94.68 265.83 93.46 265.84 92.03 265.93 91.04 265.75 90.53 265.25 90.05 263.75 88.9 263.73 88.21 264.13 87.56 264.44 87 265.27 86.91 266.61 86.99 268.02 87.33 269.69 87.75 271.07 87.96 271.71 88.16 273.36 89.77 274.52 91.26 275.7 92.13 276.99 93.04 278.19 93.14 278.41 93.12 278.65 92.82 278.79 92.19 279.16 91.08 279.1 90.09 279.14 89.1 279.02 87.68 278.93 86.94 279.37 86.28 280.28 86.25 280.98 86.63 282.77 87.54 284.22 87.78 285.02 87.89 286.33 87.75 287.66 87.27 288.16 86.77 287.85 85.73 287.68 84.6 287.65 83.81 287.65 83.11 287.23 81.57 287 80.68 287.09 80.22 288.28 79.57 288.91 78.92 289.37 77.89 289.06 76.79 287.9 75.72 288.05 74.57 289.04 73.91 289.77 73.71 290.62 73.89 291.82 74.23 292.61 75.04 293.06 75.83 293.31 76.11 294.75 76.89 296 77.3 296.21 77.35 296.58 77.35 296.9 77.21 296.81 76.76 296.94 76.19 296.65 75.81 296.22 74.96 296.17 74.12 296.15 72.73 296.28 71.8 296.6 70.82 297.3 70.36 298.06 70.26 299.15 70.96 301.94 71.25 303.55 69.89 303.81 68.17 302.84 66.42 300.3 64.78 299.38 63.53 298.5 61.04 298.96 59.37 300.11 58.14 303.4 58.15 308.06 57.6 310.79 57.51 312.6 55.37 312.39 53.96 310.47 52 307.15 49.33 306.37 47.42 306.92 45.9 308.26 44.27 309.82 43.11 312.57 41.34 313.97 41.53 315.89 41.69 318.39 41.63 320 40.9 321.83 39.4 322.76 38.5 324.92 38.54 326.82 37.65 327.4 36.37 327.2 35.06 325.57 33.49 324.93 31.78 324.4 29.35 323.68 27.81 322.89 27.08 319.54 24.63 318.33 23.44 318.03 22.45 318.55 20.42 320.49 19.24 323.68 16.81 327.31 14.27 329.59 15.2 336.02 17.91 339.41 19.03 344.1 18.5 346.97 16.38 346.92 14.8 343.25 13.06 341.27 12.01 340.54 10.64 345.61 6.13 350.73 1.82 357.01 1.61 363.56 1.97 367.93 5.96 369.77 9.07 373.38 14.72 376.4 20.25 377.3 23.97 382.1 23.82 384.58 23.25 387.8 23.08 388.85 25.33 390.43 26.89 389.96 28.34 389.43 30.56 389.98 32.35 392.24 32.64 395.25 30.5 396.91 30.04 397.29 31.53 403.14 31.47 410.42 31.82 413.26 34.58 418.36 36.26 423.08 35.44 428.93 32.52 439.1 29.79 443.89 28.76 449.94 26.78 452.33 25.94 454.26 25.79 456.3 26.91 458.28 29.72 460.01 32.77 456.95 38.86 453.84 46.93 451.4 52.82 452.76 54.69 454.97 55.49 460.64 55.51 463.48 50.86 465.59 49.79 470.36 51.05 472.29 60.47 475.26 63.01 479.8 69.53 484.02 71.67 486.81 66.02 487.71 60.07 487.91 56.81 487.51 53.39 485.85 50.19 487.36 46.35 489.22 41.87 497.03 38.74 498.53 34.24 496.57 32.41 493.01 30.67 494.19 27.87 495.14 25.65 497.98 23.29 499.41 24.68 502.98 25.25 507.15 22.98 512.67 20.58 515.16 21.11 517.24 23.88 519.7 25.54 521.68 24.89 524.3 22.73 537.12 24.51 538.88 23.45 539.36 21.99 539.56 20.35 537.86 17.24 539.04 13.1 542.55 7.49 547.47 2.45 551.87 1 555.93 1.08 562.79 3.33 566.91 3.23 572.15 1.16 572.84 2.52 578.94 15.25 586.15 20.19 599.62 22.92 603.41 29.6 603.72 33.08 601.27 33.66 596.36 32.81 592.84 33.88 591.98 35.93 596.85 44.02 600.4 52.05 603.1 53.56 606.18 50.49 612.65 46.12 620.38 46.02 627.73 51 637.34 55.05 643.22 56.72 647.14 59.27 651.95 65.8 652.74 71.76 650.11 78.61 646.74 87.93 644.18 94.48 641.47 100.69 638.4 110.89 635.78 121.23 616.05 125.26 602.95 126.91 601.7 127.57 599.46 135.97 596.39 144.13 593.49 145.97 591.99 148.45 591.42 150.35 591.59 152.36 594.59 156.1 598.31 161.01 599.7 164.06 602.15 171.21 601.43 175.12 600.76 182.33 599.98 189.5 598.8 191.87 599 194.48 601.8 200.04 604.69 203.48 611.55 209.76 617.09 218.75 625.66 229.59 637.28 232.85 644.72 234.64 652.31 238.36 660.07 239.67 670.45 238.63 674.72 238.97 685.28 235.53 689.66 236.67 700.28 241.36 705.81 244.84 716.4 249.39 732.24 248.5 738.18 250.93 743.58 254.87 747.93 258.82 752.45 263.15 754.36 267.3 754.56 269.67 753.87 272.14 748.56 276.88 745.85 281.32 745.77 284.77 746.46 287.99 748.39 290.97 754.22 297.38 755.98 300.5 758.6 305.44 761.31 308.22 765.03 310.18 767.43 312.14 768.47 315.23 768.38 320.12 767.66 325.3 767.02 331.3 766.67 341.98 768.86 347.92 772.64 352.77 775.84 355.79 778.96 356.98 784.66 358.61 786.22 359.97 789.02 363.5 792.51 369.07 797.04 376.4 798.88 379.5 799 384.01 796.61 389.82 792.25 395.36 785.07 400.11 780.14 402.12 771.6 404.49 763.93 404.73 758.43 406.41 754.11 410.02 748.23 415.37 746.67 418.23 747.39 425.81 747.74 429.64 748.4 433.78 748.2 436.66 735.43 445 725.39 443.13 725.39 442.82 722.42 442.82 722.79 440.63 722.42 439.07 720.19 436.89 717.22 435.01 701.98 428.46 706.44 426.9 725.39 423.78 717.59 419.41 728.74 415.67 723.53 408.81 709.41 407.87 690.83 406.31 691.21 402.57 694.18 397.58 694.55 395.7 694.92 393.52 696.41 391.65 700.5 389.78 703.1 388.22 699.38 382.29 692.69 379.8 686.75 377.61 683.03 374.5 677.46 370.75 673.74 367.95 670.77 362.64 670.03 360.77 663.34 357.03 654.79 356.41 629.89 341.44 630.86 330.23 607.6 308.71 Z"/>
</g>
</svg>