<?xml version="1.0"?>
<svg xmlns="http://www.w3.org/2000/svg" version="1.2" baseProfile="tiny" fill="#f9c113" width="800" height="596" viewBox="0 0 800 596" stroke-linecap="round" stroke-linejoin="round">
<g fill="#c0392b" id="id_66">
<path d="M 441.56 193.49 463.98 182.56 500.38 144.55 502.03 142.75 508.76 134.01 513.46 130.94 522.82 121.19 545.19 98.8 558.45 115.39 575.03 122.02 574.84 121.13 570.19 109.08 570.19 106.07 569.04 102.63 578.72 96.63 579.17 96.31 591.6 91.34 618.12 85.53 642.98 71.44 652.1 59.83 679.45 47.39 698.12 35.37 702.63 32.43 706.21 21.25 706.78 19.61 710.11 9.24 729.17 23.34 733.31 1.77 764.23 1 764.27 1.29 763.22 16.41 750.72 44.05 756.45 67 760.62 86.82 755.93 117.07 746.55 150.97 754.36 171.31 761.66 190.08 762.7 207.81 756.97 219.81 768.96 240.15 786.16 248.49 786.16 281.35 783.03 291.78 796.58 310.55 799 320.67 798.76 320.72 781.42 325.39 770.75 325.39 762.75 330.73 754.08 345.41 743.41 353.42 732.74 356.09 722.74 368.1 708.73 376.11 699.39 384.12 690.06 384.79 682.39 386.74 678.33 386.95 667.55 386.56 659.28 386.25 651.26 383.21 646.47 381.96 639.34 383.91 613.11 389.65 603.24 393.94 585.12 400.23 576.67 405.69 553.01 405.04 550.55 417.36 548.89 447.29 549.05 452.26 544.01 455.53 540.01 467.54 522.67 470.87 506 470.21 490.66 470.21 484.66 479.55 480.66 498.9 481.32 512.25 467.99 517.59 458.65 519.59 435.98 524.26 417.3 527.6 406.63 536.94 402.63 544.95 388.63 541.61 376.62 541.61 364.62 540.94 351.34 541.61 340.05 546.26 334.05 553.6 316.71 562.28 304.71 564.95 296.04 574.96 288.6 576.31 279.26 570.97 270.02 564.37 268.69 575.63 273.36 586.97 268.69 592.31 268.63 592.29 268.59 592.33 262.59 590.33 257.25 584.99 253.25 580.32 247.25 579.65 242.58 574.98 235.25 572.98 227.91 572.98 223.24 578.32 215.91 584.99 209.93 588.98 201.34 589.64 192 594.98 184.9 594.98 184.9 595 184.79 595 184.73 593.74 165.97 592.7 157.11 582.27 146.68 564.54 141.47 553.58 127.4 542.63 110.72 540.02 110.2 525.94 107.07 513.43 96.65 505.08 75.28 495.69 77.37 473.79 63.82 455.02 51.31 443.02 43.49 419.03 32.55 396.08 15.35 374.18 11.7 348.1 1 302.72 11.49 299.49 22.26 298.66 35.52 297.01 57.07 287.05 66.18 287.05 72.81 285.4 75.3 274.62 91.05 274.62 95.19 288.71 109.28 299.49 116.74 301.15 129.17 293.69 134.97 281.25 138.28 265.49 147.4 278.76 151.54 257.2 175.58 263.01 188.84 262.18 220.33 248.91 230.27 238.13 245.19 226.52 271.71 224.86 289.11 225.69 309 223.2 309.46 222.79 336.35 219.05 381.1 204.95 398.51 204.95 412.91 202.07 418.99 200.78 419.06 200.84 431.66 198.32 441.56 193.49 Z"/>
</g>
</svg>