<?xml version="1.0"?>
<svg xmlns="http://www.w3.org/2000/svg" version="1.2" baseProfile="tiny" fill="#f9c113" width="800" height="798" viewBox="0 0 800 798" stroke-linecap="round" stroke-linejoin="round">
<g fill="#c0392b" id="id_64">
<path d="M 264.27 237.24 267 225.13 275.91 223.31 286.84 231.18 319.91 231.79 351.98 239.06 357.3 236.39 364.34 243.3 379.3 242.33 380.88 227.06 400.58 232.76 409.35 223.19 418.12 220.52 425.74 192.66 433.21 186.49 429.62 165.78 391.95 163.84 390.94 157.06 380.45 152.82 351.69 156.21 349.39 134.9 341.77 127.15 331.99 127.39 327.6 117.4 329.26 111.83 346.37 105.71 348.6 114.8 352.84 116.13 354.71 111.4 357.44 106.99 374.77 108.44 390.08 112.8 397.77 88.16 404.96 70 408.56 39.13 417.47 34.89 419.2 14.92 429.19 1 443.85 37.31 468.87 74.11 475.2 80.41 476.92 104.38 519.2 119.15 530.41 113.1 564.92 123.51 567.51 116.73 586.78 118.67 597.42 92.27 605.18 92.03 614.67 99.78 621.86 96.15 630.77 87.43 662.69 90.82 664.99 96.39 674.77 98.81 701.8 128.11 686.56 133.68 700.94 141.68 718.77 164.2 725.38 165.66 727.11 172.44 707.55 179.95 715.61 185.52 725.96 182.61 728.83 196.42 753.85 189.39 759.89 181.64 799 184.55 795.84 202.23 795.26 237.6 788.65 249.96 774.27 252.38 769.09 258.68 754.43 258.68 749.83 265.71 724.81 270.56 717.91 288.24 747.53 294.06 735.45 323.87 742.06 329.2 736.6 341.32 711.29 351.5 715.61 360.23 728.83 362.16 732.28 372.35 744.07 372.83 759.89 424.95 772.26 452.11 774.76 455.23 762.52 463.1 705.87 488.85 686.98 512.89 635.48 542.07 580.55 554.09 554.79 564.39 553.87 565.04 533.81 577.47 536.18 584.59 536.18 590.82 545.82 615.76 546.21 617.62 511.87 603.88 484.41 569.54 438.05 615.9 418.66 636.07 408.94 642.43 395 660.52 391.58 664.24 316.16 742.94 249.21 775.57 223.11 780.79 222.98 780.65 210.39 783.33 180.54 789.3 144.49 789.3 120.03 797 119.19 770.67 112.58 739.6 92.45 715.32 107.69 704.65 106.82 691.78 113.15 665.82 100.79 667.51 100.21 657.81 109.41 644.95 108.26 627.48 99.64 627.96 100.21 621.65 107.98 613.65 174.4 606.85 174.69 581.38 185.04 566.34 174.69 565.85 172.1 549.6 176.7 529.95 180.73 487.03 173.54 484.84 163.19 494.79 158.01 488.48 150.54 499.88 144.78 492.36 128.1 492.6 129.26 504.97 109.41 516.37 103.66 503.76 97.34 496.24 99.92 482.18 80.08 481.69 68.29 471.26 78.07 459.38 81.23 446.53 109.99 451.62 116.6 447.26 109.7 440.95 119.19 422.04 115.74 413.56 124.94 405.07 127.53 392.47 95.9 383.01 86.98 376.22 73.75 380.1 57.94 389.31 61.68 372.59 60.81 364.1 50.17 362.16 34.36 388.83 21.13 385.92 8.48 372.35 4.74 369.44 1 360.47 9.91 357.8 13.94 351.98 22.28 351.26 22.57 351.01 28.89 336.71 40.11 322.66 30.33 316.36 25.16 292.85 38.67 284.85 47.3 263.77 65.13 260.86 68.87 243.66 75.19 214.1 85.26 201.02 99.06 218.34 119.19 226.22 121.63 218.34 173.83 241.96 192.66 221.25 207.47 212.77 227.6 218.1 225.88 230.46 252.62 238.57 264.27 237.24 Z"/>
</g>
</svg>