<?xml version="1.0"?>
<svg xmlns="http://www.w3.org/2000/svg" version="1.2" baseProfile="tiny" fill="#f9c113" width="800" height="550" viewBox="0 0 800 550" stroke-linecap="round" stroke-linejoin="round">
<g fill="#c0392b" id="id_63">
<path d="M 155.22 128.83 176.51 125.04 197.03 124.38 196.26 130.26 203.56 131.7 215.07 125.82 223.77 119.28 236.21 123.86 265.59 123.08 269.63 112.49 267.15 102.69 275.85 99.68 289.84 102.16 294.51 84.78 299.64 72.11 287.82 58.65 303.06 48.99 302.44 36.58 299.02 30.57 302.28 21.82 306.94 10.06 309.52 1 334.85 8.84 347.67 13.14 378.76 24.71 390.26 28.59 416.58 30.58 429.7 46.05 445.47 42.48 460.28 50.24 461.4 50.22 461.53 50.15 462.1 50.17 462.66 50.25 463.68 50.48 464.09 50.53 464.47 50.54 465.46 50.51 465.97 50.61 468.39 50.63 469.23 50.73 470.11 51.16 471.07 51.51 514.86 72.04 520.18 99.32 533.41 121.63 535.48 132.12 552.66 138.59 566.08 143.13 573.13 139.53 581.86 144.5 617.91 102.19 632.55 101.23 636.87 101.97 647.23 103.24 647.65 104.34 648.49 115.35 648.99 121.42 650.43 125.76 659.23 136.42 663.24 147.11 663.24 148.44 665.46 150.23 673.93 150.23 683.44 150.88 688.9 152.22 695.95 152.71 709.56 144.88 722.03 141.32 730.72 139.46 737.92 149.33 736.6 159.08 724.38 174.86 725.96 182.17 731.98 192.42 736.05 209.93 741.89 220.24 749.01 228.48 752.75 236.82 753.19 242.93 755.1 250.38 759.43 256.83 765.67 262.24 771.51 262.48 780.28 259.55 786.96 258.56 792.17 262.21 799 268.51 790.16 280.65 767.11 295.2 750.48 307.53 745.71 311.65 737.87 320.94 723.08 327.74 744.11 359.33 738.46 366.16 724.36 373.73 712.84 381.39 702.01 384.79 693.46 374.29 680.4 379.79 652.14 380.31 652.14 382.66 641.64 389.99 633.02 392.92 622.48 397.69 618.42 400.48 614.01 402.6 608.04 410.45 604.7 415.8 598.39 417.13 591.13 419.29 586.83 421.98 584.59 424.67 579.38 427.45 574.46 428.72 570.68 440.72 568 444 563.16 446.04 560.41 449.01 550.39 452.38 543.86 453.49 531.38 452.35 532 446.81 517.39 449.94 513.5 453.06 508.37 457.85 491.81 456.24 479.78 454.82 473.72 454.02 459.04 452.87 448.47 454.88 435.66 462.59 415.55 468.43 407.55 468.8 404.25 465.62 391.93 470.65 372.44 497.56 352.03 501.28 314.9 502.2 310.26 526.34 288.92 510.56 285.18 522.17 284.55 524 280.54 536.51 275.49 539.81 261.19 549 259.84 547.31 253.16 532.63 244.61 504.45 238.23 504.19 236.37 498.69 229.21 497.64 226.88 492.92 240.56 487.42 243.52 480.86 239.94 477.98 246.47 461.87 230.46 458.72 234.19 449.16 247.71 446.54 250.2 442.74 258.13 442.74 260.93 439.33 268.7 438.02 272.28 431.34 272.59 412.22 274.3 402.66 253.16 401.09 249.89 405.28 236.37 409.08 234.81 401.61 229.21 403.18 224.86 400.17 235.43 396.11 234.5 392.45 230.92 391.66 221.29 379.48 213.51 375.16 221.75 372.15 207.14 356.31 201.85 355 200.61 351.99 183.35 350.16 178.53 354.87 174.65 356.83 169.52 352.64 165.32 352.77 159.57 367.04 149.15 366 147.75 369.66 129.1 364.03 123.04 367.31 100.18 359.32 99.25 346.36 95.83 342.96 82.31 323.06 74.38 303.43 50.44 296.75 38.62 297.02 35.36 292.7 34.73 288.12 31.47 283.67 28.67 275.29 25.56 271.63 33.02 262.6 32.56 254.75 27.89 254.75 16.7 248.87 10.95 239.19 14.99 228.07 14.06 219.83 3.49 219.7 1 211.33 6.91 208.58 6.91 200.6 9.39 197.86 16.08 197.07 17.48 188.96 11.26 185.56 15.46 180.73 10.79 178.77 14.06 170.79 24.32 164.51 40.33 167.65 41.58 163.47 53.08 160.46 66.91 161.64 72.82 171.97 72.36 177.33 87.75 177.85 90.54 168.83 95.83 148.17 111.07 149.61 125.83 131.57 137.96 133.27 146.04 135.36 155.22 128.83 Z"/>
</g>
</svg>