<?xml version="1.0"?>
<svg xmlns="http://www.w3.org/2000/svg" version="1.2" baseProfile="tiny" fill="#f9c113" width="800" height="718" viewBox="0 0 800 718" stroke-linecap="round" stroke-linejoin="round">
<g fill="#c0392b" id="id_68">
<path d="M 111.44 405.85 90.39 416.65 88.45 421.84 83.43 413.5 82.29 391.09 108.85 383.43 110.15 374.69 115.17 359.25 113.55 346.13 119.86 333.29 118.08 329.33 103.99 330.97 93.63 341.62 95.09 371.96 99.3 372.5 100.11 374.42 87.31 375.65 85.05 372.78 80.19 372.23 79.06 366.08 72.42 364.17 69.02 357.75 60.92 352.55 52.34 335.61 45.53 328.1 24.48 324.14 25.13 331.65 5.21 326.6 1 307.47 4.72 304.19 3.27 289.72 34.2 288.62 32.74 277.83 38.73 251.62 43.43 238.37 64.16 240.01 68.37 231.68 79.06 222.95 73.55 204.52 76.63 200.42 79.87 191.14 91.69 186.5 90.55 169.31 85.7 168.35 84.89 158.53 63.72 125.7 76.19 117.22 92.68 107.44 98.85 103.36 116.8 97.32 123.54 95 134.29 92.4 155.73 94.64 164.29 94.51 173.39 89.44 189.38 78.94 202.86 71.15 218.2 58.39 241.56 43.81 254.5 36.51 267.33 28.12 278.37 18.64 287.26 9.77 292.16 1 300.58 4.47 300.58 6.88 323.78 14.62 340.22 28.16 349.89 50.41 357.62 60.08 382.84 59.12 399.28 62.99 407.7 69.93 408.19 69.57 415.67 76.55 414.66 89.11 414.66 108.45 418.21 111.5 428.19 120.01 427.36 125.69 427.19 134.55 433.37 144.41 435.51 147.96 439.8 154.89 453.33 162.63 463 169.4 472.67 181.01 486.2 181.01 499.74 181.98 500.49 182.64 516.72 195.22 518.59 200.31 527.78 214.87 535.51 233.25 537.15 243.07 537.19 243.06 537.26 243.52 544.11 249.87 548.12 253.55 557.98 257.06 566.68 262.81 566.45 264.2 580.95 270.01 607.05 270.01 623.49 272.91 626.56 273.47 634.14 274.77 634.44 275.24 641.86 284.52 641.86 290.32 640.8 292.8 638.99 297.17 634.14 304.86 632.55 306.4 625.42 313.54 624.46 321.28 624.46 337.79 626.63 348.31 624.78 352.41 626.39 372.55 635.09 390.93 646.69 405.44 648.68 405.44 648.67 405.31 654.85 406.98 661.87 408.31 672.51 417.81 672.79 418.02 677.98 427.53 677.89 427.77 678.08 427.72 678.59 428.66 696.96 430.6 710.5 440.27 737.57 442.2 746.27 454.78 748.2 467.36 763.67 477.03 776.59 487.18 777.29 487.7 784.47 505.92 780.13 519.63 790.74 537.01 795.58 562.16 799 561.68 798.47 562.16 775.27 565.06 754.97 564.09 724.03 566.03 706.63 579.57 695.03 592.15 658.29 607.63 642.82 608.6 614.78 601.82 609.95 626.98 599.31 611.5 595.45 629.88 588.68 644.39 574.18 653.09 565.48 651.16 549.04 638.58 544.21 622.14 525.84 622.14 522.94 634.71 515.2 636.65 504.57 636.65 479.43 648.26 463.97 650.19 451.4 651.16 438.83 655.03 418.53 669.54 402.1 673.41 381.79 683.08 338.29 706.3 313.76 717 313.06 716.02 301.81 688.9 294.36 677.95 290.47 663.91 286.18 660.01 279.21 662.82 275.41 658.1 269.74 656.25 267.56 647.14 261.73 638.38 271.44 634.41 274.11 627.29 269.58 616.62 264.8 616.14 245.86 600.67 244.64 595.2 253.14 581.04 252.33 572.55 253.39 565.44 246.83 550.59 203.99 550.39 199.38 560.92 202.62 564.75 202.45 569.41 204.8 573.44 196.14 580.15 186.75 578.91 182.7 583.98 184.72 591.03 173.06 600.33 165.13 611.83 150.55 615.93 145.29 610.05 134.52 609.23 133.47 599.51 137.84 592.19 138.97 581.17 152.01 560.44 157.44 560.17 162.94 551.69 167.15 551.55 178.73 524.81 178.81 518.24 195.65 497.86 187.96 474.48 182.7 470.99 181.32 466.41 175.41 465.38 172.33 458.07 153.22 447.81 134.84 431.07 131.61 423.55 117.92 413.37 115.25 405.3 111.44 405.85 Z"/>
</g>
</svg>