<?xml version="1.0"?>
<svg xmlns="http://www.w3.org/2000/svg" version="1.2" baseProfile="tiny" fill="#f9c113" width="800" height="629" viewBox="0 0 800 629" stroke-linecap="round" stroke-linejoin="round">
<g fill="#c0392b" id="id_6">
<path d="M 536.05 554.66 535.13 558.06 529.61 564.48 522.71 569.77 523.17 581.47 519.49 589.78 518.57 592.8 513.97 601.49 515.35 611.31 514.43 619.24 508.06 628 487.41 609.83 463.62 606.69 447.23 593 428.83 593.45 417.6 589.19 395.16 589.86 388.87 593 382.59 592.56 378.55 576.63 362.61 565.19 356.55 554.87 349.37 553.3 341.51 557.56 338.15 561.82 323.33 552.06 323.32 552.08 308.95 547.59 296.38 556.56 279.55 546.02 269.67 540.19 247.68 539.96 227.92 553.2 217.82 553.2 208.85 545.12 207.95 528.07 208.62 495.55 181.91 437.89 164.4 386.97 142.18 356.46 119.74 349.28 91.68 320.12 61.83 301.72 54.42 280.86 52.4 264.03 56.89 252.82 21.43 252.37 14.02 239.58 13.12 216.47 1 206.15 15.37 195.39 53.52 183.5 94.37 166 104.7 152.54 109.41 144.69 85.62 115.3 80.23 90.62 78.21 68.86 61.6 56.97 56.89 43.29 60.03 32.52 78.21 19.06 94.15 8.96 104.87 1 106.27 9.97 120.35 29.83 128.43 43.51 130.4 53.77 116.12 59.58 136.36 78.83 131.65 87.19 134.06 95.04 146.97 93.64 153.76 87.69 159.87 94.98 157.24 103.34 167.9 108.27 159.09 121.12 162.12 128.69 179.68 135.47 188.66 133.57 204.48 131.6 218.23 135.64 234.34 142.15 243.93 147.53 245.28 153.08 242.47 156.95 280.01 160.04 286.47 155.89 292.75 159.76 303.13 152.64 323.05 148.15 339.55 147.76 345.78 153.08 357.28 152.24 363.9 156.39 377.88 154.88 383.82 160.21 426.57 158.15 426.49 158.01 426.94 142.4 446.79 125.71 470.17 114.55 477.03 111.61 481.74 115.16 491.85 114.53 496.84 118.13 520.8 102.85 547.32 103.31 552.89 107.31 565.42 101.2 589.39 94.25 604.85 82.56 643.05 80.87 708.59 126.39 745.16 162.74 749.71 166.44 756.01 166.9 757.64 188.52 763.42 195.85 761.01 203.39 766.78 218.74 781.74 229.22 799 229.93 798.86 229.98 795.75 253.1 792.98 271.14 791.59 283.9 784.1 297.49 779.38 310.53 780.76 331.34 780.21 338.83 769.66 350.48 759.39 350.76 748.29 357.14 741.07 367.13 736.35 378.23 732.46 389.88 731.08 397.37 724.14 404.03 721.36 409.02 713.59 410.41 710.81 414.85 707.48 417.07 703.6 414.02 700.54 415.4 698.88 421.23 694.16 416.24 685.83 410.97 680.83 410.97 676.39 412.91 669.17 414.29 665.84 415.68 658.07 414.85 648.36 411.24 642.25 407.64 639.75 402.64 636.14 402.09 628.65 410.13 622.82 413.46 617.27 412.63 611.99 416.79 617.27 428.44 620.32 438.15 623.37 449.53 631.98 455.35 631.42 470.89 630.04 479.49 628.37 481.16 620.6 478.38 611.71 473.94 603.66 472.28 593.39 476.99 585.34 478.1 575.07 480.88 571.94 486.72 570.1 489.36 571.02 492 575.62 497.67 580.68 501.82 578.38 505.21 568.72 504.46 558.14 503.7 553.08 505.97 548.48 507.86 544.33 513.52 548.48 523.71 550.32 532.01 542.93 541.09 542.78 540.99 542.85 541.18 536.97 549 536.05 554.66 Z"/>
</g>
</svg>