<?xml version="1.0"?>
<svg xmlns="http://www.w3.org/2000/svg" version="1.2" baseProfile="tiny" fill="#f9c113" width="800" height="458" viewBox="0 0 800 458" stroke-linecap="round" stroke-linejoin="round">
<g fill="#c0392b" id="id_61">
<path d="M 414.99 13.69 415.48 12.63 415.78 11.81 416.07 10.83 417.14 9.35 418.02 8.94 419.2 6.73 419.78 6.08 421.25 4.85 421.84 4.19 423.4 2.39 424.28 1 430.34 1.9 429.66 2.15 428.88 2.96 429.56 2.96 428.19 4.44 427.51 5.83 427.12 6.65 429.07 7.22 429.76 7.39 429.07 8.61 427.61 12.14 427.02 13.45 426.04 14.43 442.66 12.79 459.09 9.52 466.91 9.52 477.08 6.24 481.77 4.27 487.24 2.96 494.28 2.31 510.71 2.96 521.66 4.27 527.13 7.55 538.86 14.1 541.21 16.07 549.81 20.65 555.29 23.93 561.55 25.9 567.02 20 570.15 18.69 580.32 21.96 580.32 30.48 582.66 32.45 586.58 32.45 587.36 33.76 595.96 28.52 598.31 24.58 611.6 25.9 624.12 26.55 631.94 26.55 630.38 37.04 620.21 37.04 617.08 39.66 617.86 44.9 625.68 47.52 631.16 48.83 633.5 48.83 646.8 37.04 646.8 36.38 653.84 42.94 656.97 47.52 665.57 39 674.96 44.25 676.52 48.83 679.65 51.46 685.91 51.46 690.6 44.25 701.55 37.69 712.5 30.48 716.41 26.55 725.01 25.24 737.25 36.55 736.75 42.44 749.85 50.31 754.34 50.64 757.86 52.6 758.25 53.59 759.82 56.37 761.77 57.85 764.71 59.82 766.66 61.45 769.79 62.6 773.31 63.91 775.27 67.03 773.9 67.85 771.75 68.83 770.96 69.81 770.77 70.96 770.57 71.95 769.01 74.57 768.81 76.54 778.59 77.36 786.02 77.85 788.76 81.46 782.89 83.42 787 85.72 777.03 87.36 774.68 88.18 782.7 91.62 784.26 92.61 785.43 93.75 785.63 94.57 785.43 95.72 787 95.72 787 95.89 792.28 96.87 799 92.49 798.54 95.35 797.74 96.66 794.39 99.54 792.49 100.87 788.1 102.99 786.57 103.93 784.41 105.86 781.85 106.62 780.26 107.17 777.23 108.79 775.57 110.84 774.38 113.09 773.35 113.71 770.21 116.13 767.44 116.69 765.18 118.16 761.51 119.55 758.35 122.17 758.26 124.67 757.24 126.33 756.18 127.61 754.83 130.68 753.92 132.24 750.92 135.66 749.52 136.92 747.33 139.1 746.01 140.61 743.19 143.47 741.9 145.15 737.6 148.3 735.54 149.06 730.99 151.61 725.48 154.13 721.03 157.25 715.44 161.12 712.15 166.18 711.25 167.99 710.45 171.07 708.38 176.12 707.49 179.09 701.87 183.96 701.02 187.66 698.84 191.38 698.94 193.13 697.3 194.76 695.07 198.81 693.36 202.23 692.43 208.42 692.73 213.2 692.2 217.64 690.61 222.5 689 226.59 686.54 230.99 682.78 234.75 678.1 238.75 672.67 242.3 667.19 245.39 657.29 251.55 650.8 256.95 645.09 260.24 638.32 264.69 634.47 266.83 630.84 266.88 621.76 265.94 617.21 267.03 614.35 268.02 606.75 270.57 604.14 272.29 597.16 276.43 590.78 280.76 583.77 284.6 577.79 289.74 569.78 292.3 562.7 295.62 557.85 299.67 556.12 303.1 556.09 303.15 552.38 303.9 542.59 306.07 532.33 306.63 522.63 304.79 514.83 306.03 508.82 308 498.67 310.4 487.59 311.13 480.6 312.04 476.93 314 469.77 317.64 463.59 321.48 457.65 324.57 454.71 324.35 448.31 327.83 447.62 329.21 447.59 330.41 449.87 333.21 447.11 336.29 440.12 338.13 438.18 338.19 434.01 335.26 431.81 335.01 428.41 334.56 425.01 338.48 422.29 340.06 418.01 340.12 407.57 338.01 401.12 337.13 399.04 337.09 395.68 335.05 393.07 332.78 388.32 333.5 382.51 336.81 376.65 339.52 369.7 345.27 362.58 346.29 357.86 346.63 353.97 344.86 348.28 341.63 344.85 339.89 341.04 340.63 335.99 342.52 331.98 348.33 325.56 348.49 323.28 347.5 316.42 344.4 311.47 343.47 309.61 344.59 303.37 348.27 297.68 352.76 294.37 355.62 290.82 357.81 284.97 360.12 283.77 361.19 277.34 366.29 273.13 368.32 267.02 366.11 264.7 364.6 260.13 362.94 257.8 364.1 252.55 367.27 250.31 366.84 243.76 366.38 239.8 368.45 231.55 371.47 225.48 375.16 220.36 378.93 215.73 383.01 211.07 385.15 203.97 386.61 195.18 388.01 184.63 394.4 175.13 402.9 168.6 408.66 160.95 413.05 153.71 416.85 144.79 418.83 136.73 421.22 129.76 425.31 123.19 428.9 117.24 437.26 113.11 440.64 110.14 441.04 101.85 443.19 94.35 439.18 89.43 434.96 82.89 434.44 79.42 434.3 70.04 436.16 61.99 439.4 56.94 442.73 47.56 449.15 42.38 450.15 39.12 449.28 32.5 452.61 22.95 455.5 15 457 9.66 456.9 6.2 454.32 3.37 448.93 2.69 447.09 1.1 441.5 1 436.67 6.25 432.06 10.39 430.29 10.96 429.05 11.17 427.66 12.1 425.98 13.86 423.77 15.47 421.98 17.58 420.03 17.29 416.06 16.59 411.71 21.78 407.43 22.68 405.04 21.45 399.83 22.68 397.01 23.27 395.35 23.09 393.84 23.42 391.74 16.03 379.52 15.68 377.01 19.99 373.97 16.64 365.44 16.76 359.09 17.18 353.41 18.44 351.26 19.33 344.97 20.31 341.57 25.85 338.79 29.33 333.01 31.1 327.84 32.86 320.53 34.37 315.66 38.48 311.02 45.72 306.04 57.88 300.18 57.77 299.56 57.58 299.21 57.1 298.66 56.64 298.15 56.52 297.44 56.53 296.95 56.3 296.43 56.08 296.08 55.69 294.33 55.05 293.1 54.86 292.67 55.67 291.65 57.04 290.53 58.14 289.49 58.94 288.18 59.74 286.95 60.63 285.94 61.51 285.05 62.46 283.78 63.29 282.64 65.23 282.27 67.25 282.06 68.64 281.93 74.03 280.33 79.69 277.92 81.4 277.22 83.21 277.18 85.26 276.25 86.6 273.76 87.41 272.6 87.4 271.22 87.05 269.99 86.47 269.46 86.2 268.88 86.58 267.59 87.14 266.3 87.1 265.6 86.11 264.82 85.65 264.24 92.51 259.56 94.35 258.68 97.11 258.84 100.73 259.99 103.33 263.32 106.43 266.86 109.37 270.1 113.14 270.43 120.07 269.53 124.1 269.74 127.59 269.73 130.21 268.47 133.2 266.14 137.35 262.88 141.91 260.94 148.76 263.01 153.03 262.73 159.75 260.74 166.64 259.6 169.95 259.14 173.46 258.19 176.35 259.19 181.16 260.17 185.41 261.55 190.98 262.53 196.9 262.51 200.45 264.33 204.79 263.77 211.5 263.35 217.68 266.42 221.02 267.19 225.19 268.02 230.67 270.72 237.73 270.7 242.38 270.41 248.89 272.37 259.31 268.99 265.31 261.47 270.97 258.48 275.69 257.22 279.32 256.01 286.18 252.14 290.46 247.87 293 247.33 299.16 245.76 307.16 243.97 311.33 241.16 313.27 238.23 314.38 234.81 318.43 234.51 321.1 234.62 322.19 234.49 322.75 234.04 324.44 231.88 328.69 231.82 330.65 231.07 336.87 229.88 339.58 230.44 342.8 231.5 347.49 235.31 352.51 233.71 356.08 232.54 360.05 230.32 365.07 225.89 369.33 222.32 373.28 220.97 378.3 218.31 384.1 214.56 392.22 212.01 394.21 211.24 396.2 209.01 404.46 200.52 414.44 196.72 419.92 197.34 422.76 200.24 426.83 204.72 429.48 206.72 429.95 207.45 431.16 209.46 432.4 211.3 441.09 211.28 443.93 211.56 448.31 213.58 449.8 214.41 451.38 214.79 452.28 214.09 452.73 213.82 453.25 213.45 453.37 212.7 453.06 212.33 452.9 211.53 452.2 210.51 452.17 209.84 452.43 209.32 452.08 208.44 452.28 207.89 452.99 207.53 453.9 207.43 454.32 207.16 454.87 206.83 455.02 206.31 455.45 206.21 456.4 205.81 457.89 205.61 458.54 206.16 459.15 207.23 459.61 207.09 460.12 206.11 460.58 205.48 460.99 205.29 461.4 205.84 461.69 207.16 461.93 208.16 462.37 208.26 462.63 207.31 463.2 207.02 464.4 207.5 465.62 207.92 466.72 207.24 468.18 206.03 469.84 205.84 471.85 205.85 473.39 205.61 473.66 204.36 472.92 202.45 472.81 201.84 472.8 201.4 472.32 201.21 471.48 200.94 470.29 200.65 469.38 200.03 467.59 199.09 465.69 197.01 466.29 195.8 467.06 195.32 468.27 194.79 470.22 194.48 471.79 194.26 473 193.53 473.43 193.08 474.19 192.08 474.48 191.64 475.38 189.98 475.53 189.59 475.77 188.48 475.83 187.89 475.6 187.12 474.97 185.64 474.86 185.28 474.87 184.5 474.89 184.07 474.97 183.16 475.18 182.85 475.73 182.53 476.92 182.51 479.02 182.9 480.28 183.53 481.4 183.93 482.87 184.33 484.93 184.79 485.63 184.96 486.97 185.18 488.15 185.38 488.43 185.32 488.69 185.14 488.85 184.87 488.96 184.06 488.91 183.79 488.63 183.48 488.07 183.08 487.73 182.95 487.34 182.7 487.27 181.39 487.43 180.8 488.04 179.92 489.01 179.22 490.36 178.59 490.81 178.29 491.07 177.99 491.22 177.43 491.24 177.12 491.13 176.88 490.95 176.66 489.74 176.33 488.18 176.1 487.72 175.99 486.35 175.84 485.52 175.76 484.22 175.25 483.04 174.91 482.07 174.15 481.43 173.46 481.15 172.84 481.13 172.47 481.31 171.98 481.72 171.6 482.83 171.28 484.96 170.98 487.07 170.67 488.47 170.19 488.78 170.01 489.15 169.72 489.41 169.07 489.25 168.61 488.83 168.05 487.94 167.26 487.67 167 486.96 166.51 486.47 165.6 486.01 164.47 485.95 163.58 485.97 163.01 486.21 162.4 487.22 161.49 488.7 160.56 489.14 160.37 490.2 160.3 491.78 160.91 492.17 161.19 493.23 161.95 493.48 162.04 493.94 161.96 494.09 161.89 494.67 161.1 495.05 158.71 495.1 157.89 494.07 156.94 493.17 156.2 491.24 154.88 489.46 153.97 488.29 153.32 487.45 152.97 486.58 152.75 485.77 152.31 484.73 151.4 484.03 150.72 483.04 150.94 482.22 151.63 481.42 152.47 480.93 153.17 479.93 153.48 478.12 155.56 477.09 156.59 476.16 157.18 475.41 157.32 474.87 157.23 473.18 156.99 470.58 152.88 470.02 151.63 469.18 150.51 468.98 149.96 468.71 148.88 468.38 148.3 468.06 147.53 467.57 147.17 466.7 146.29 466.54 146.17 465.95 146.17 465.14 146.23 464.65 146.14 463.82 145.41 462.93 144.47 462.08 143.29 461.6 142.41 461.51 142.15 461.49 141.91 462.32 141.1 463.4 140.42 463.61 140.33 463.86 140.27 463.83 139.28 463.75 138 463.85 137.04 464.05 135.82 464.21 134.09 464.38 133.84 464.78 133.49 465.38 132.62 465.84 132.04 466.7 131.25 467.41 130.7 467.55 130.21 467.62 129.77 468.14 128.71 468.98 127.93 470.03 126.8 470.96 125.87 471.33 125.24 471.61 124.12 471.74 123.12 471.75 122.44 471.67 122.15 471.09 121.72 470.1 121.09 469.24 120.71 468.3 120.18 467.96 119.7 467.52 118.91 467.23 118.71 466.96 118.7 466.59 118.77 466.29 119.01 465.95 119.93 465.55 120.88 465.36 121.7 465.15 122.21 464.76 123.15 464.61 123.54 464.22 123.72 462.65 124.5 462.03 124.86 461.55 124.93 460.93 124.6 460.49 123.65 460.01 122.5 459.88 122.17 459.18 121.24 458.89 120.41 458.85 120.04 459.51 119.12 459.99 118.61 460.47 117.89 460.69 117.43 460.75 117.16 460.73 116.84 460.75 116.59 460.95 116.16 461.18 115.84 461.22 115.7 461.15 115.49 460.51 115.05 459.91 114.65 459.5 114.5 459.01 114.39 458.35 114.31 455.77 114.1 454.46 114.15 453.43 114.15 453.05 114.34 452.73 114.91 452.65 115.23 452.71 115.67 453.1 116.29 453.28 117.15 453.27 117.49 453.23 117.96 452.84 118.62 452.01 119.96 451.34 120.85 450.59 121.55 449.62 121.75 448.65 121.85 447.26 122.13 446.94 122.18 446.7 122.07 446.33 121.77 446.01 121.33 445.31 119.81 444.6 119.42 443.85 119.48 443.41 119.88 443.24 120.43 443.34 121.02 443.67 121.61 443.93 122.15 443.93 122.51 443.73 122.75 443.38 122.89 442.87 122.97 441.52 123.02 439.98 122.98 439.31 123.01 438.26 123.23 437.19 123.49 436.7 123.28 435.41 122.7 434.63 122.39 433.75 122.53 431.37 124.14 431.09 124.37 430.66 125.26 430.17 126.16 429.85 126.91 429.73 127.36 428.85 127.56 427.54 127.34 426.13 126.65 424.59 124.68 424.39 121.89 424.48 120.99 424.36 120.47 423.47 119.86 420.82 120.02 419.51 119.23 418.05 118.03 416.82 117.58 415.66 118.1 414.4 119.07 413.95 119.55 413.13 120.27 412.59 120.69 410.1 121.89 409.24 122.26 407.79 122.88 406.4 123.01 405.36 123.24 404.3 123.5 403.94 123.76 403.28 123.99 402.49 124.12 401.51 124.02 400.71 124.09 400.29 124.1 399.34 124.05 398.96 124.34 398.85 124.83 398.55 125.27 397.84 125.54 397.48 125.42 395.86 124.27 395.12 123.78 394.38 123.73 392.74 124.02 392.13 124.02 389.38 124.74 388.02 124.86 386.5 123.93 385.91 121.89 386.12 120.41 387.58 119.42 389.09 119.48 390.82 120.04 392.08 120.64 393.21 120.64 393.95 120.12 394.56 119.17 394.66 118.31 394.03 117.61 392.87 116.85 391.4 116.08 390.05 116.08 388.68 117.52 387.32 117.52 385.47 117.36 383.36 116.91 381.63 116.86 380.81 115.45 380.23 113.51 380.32 112.42 380.87 111.36 380.97 110.37 379.59 109.77 378.65 108.76 378.35 107.59 378.48 106.62 377.82 105.49 377.25 103.35 377.07 102.11 377.42 101.55 379.33 99.64 379.93 99.34 379.41 98.5 379.14 97.57 379.59 97.31 380.03 96.79 379.8 95.57 379.82 94.85 379.74 94.03 379.5 93.13 380.31 92.78 380.93 92.4 380.82 91.61 380.88 90.89 381.76 90.76 382.29 89.99 382.07 89.61 381.58 88.82 380.97 88.05 380.67 87.54 380.29 86.71 380.56 86.15 381.52 85.74 381.78 84.94 381.6 83.85 381.81 82.27 381.57 81.05 381.95 80.27 381.84 79.44 381.49 78.11 381.76 76.96 381.57 76.25 381.17 75.41 381.31 74.78 380.87 73.49 380.26 70.89 380.44 70.25 380.5 69.69 379.93 69.25 379.94 68.42 380.37 67.9 381.43 67.61 382.07 67.29 382.2 66.19 381.76 64.78 381.66 63.99 382.39 63.18 382.3 62.64 381.69 62.3 381.54 61.61 381.87 60.76 382.37 60.25 381.93 60.1 381.51 59.92 381.55 59.49 382.48 58.51 382.24 57.25 381.37 55.92 380.92 54.27 380.94 50.88 381.97 49.96 384.62 48.49 387.75 45.78 388.15 44.65 388.32 43.17 390.22 41.59 391.79 39.28 394.62 37.52 397.04 35.11 397.49 29.82 399.04 23.65 405.17 20.05 412.74 14.18 415.29 14.43 414.99 13.69 Z"/>
</g>
</svg>