<?xml version="1.0"?>
<svg xmlns="http://www.w3.org/2000/svg" version="1.2" baseProfile="tiny" fill="#f9c113" width="800" height="692" viewBox="0 0 800 692" stroke-linecap="round" stroke-linejoin="round">
<g fill="#c0392b" id="id_67">
<path d="M 122.74 343.64 117.23 333.33 117.23 320.26 128.93 303.75 146.82 292.74 164.03 281.05 176.42 276.92 179.85 262.52 190.87 260.41 221.15 246.65 254.19 228.08 285.85 202.63 309.93 195.06 333.33 186.12 351.92 171.67 365.68 155.85 380.13 129.02 389.77 121.45 417.3 124.21 419.36 107.7 425.56 92.56 445.51 78.12 476.48 62.29 495.75 54.73 519.15 49.23 545.99 37.53 576.96 21.02 591.42 14.14 603.12 11.39 617.57 1.07 617.8 1 626.69 38.64 629.72 60.27 644 78.44 653.09 97.47 659.58 117.37 669.97 127.32 681.22 142.9 679.49 161.07 697.24 168.85 705.89 175.77 708.49 186.16 708.92 197.84 722.77 200 734.46 209.08 738.79 218.17 747.44 232.88 754.8 241.53 770.38 242.39 770.43 243.44 770.52 243.44 770.9 251.03 765.71 266.6 760.51 277.85 765.27 299.91 757.92 322.84 764.04 326.83 763.92 326.87 775.99 339.5 777.76 335.78 777.83 335.82 796.52 345.35 796.52 345.37 799 346.63 787.32 360.04 787.92 361.7 787.96 361.73 789.08 364.8 791.67 389.89 783.45 402.87 774.8 415.85 773.07 430.12 773.07 430.34 755.67 440.09 737.05 448.74 721.47 459.56 713.25 470.81 702.43 479.89 698.53 487.68 694.64 496.33 687.28 501.52 673.43 499.79 667.37 506.71 667.34 506.85 667.25 506.97 665.55 515.43 659.34 520.2 659.35 520.2 658.73 520.68 658.71 520.67 634.05 539.59 593.36 538.29 558.74 547.81 531.9 565.11 515.89 561.22 502.04 550.4 487.33 536.13 476.07 539.16 475.64 551.27 479.97 563.82 479.97 576.36 476.94 594.1 460.49 608.8 446.21 622.22 434.52 630.43 431.93 638.22 404.66 621.78 397.79 617.26 396.25 616.28 390.28 622.84 387.02 625.14 384.57 624.15 382.22 623.61 380.13 623.56 378.16 623 375.66 621.51 374.33 618.63 373.95 616.89 373.98 616.05 371.66 614.71 370.35 613.36 367.65 613.71 359.79 611.35 356.45 607.64 355.25 605.56 351.76 607.58 350.12 607.86 349.03 604.57 346.45 597.91 344.15 600.95 342.19 603.59 340.81 605.04 339.48 605.69 339.58 608.86 338.84 610.98 337.11 615.81 335.55 619.26 333.16 622.12 330.76 629.42 329.02 635.64 328.97 637.66 328.33 639.41 325.48 641.93 322.03 643.19 316.72 643.9 313.69 644.01 307.74 643.49 305.4 643.73 302.64 643.53 296.24 642.93 292.97 641.8 288.76 638.48 285.5 634.67 284.55 630.59 279.55 628.6 273.43 625.74 271.82 624.74 269.5 626.62 266.06 629.78 263.48 632.68 260.27 636.41 258.74 640.25 257.87 642.02 257.31 643.61 254.99 645.21 250.78 647.57 246.57 650.48 242.59 652.28 236.95 653.51 228.45 654.92 226.21 656.2 221.95 657.33 215.08 657.82 213.04 657.46 208.78 656.33 204.01 654.55 198.22 652.28 190.16 648.96 189.26 653.66 184.87 657.13 180.92 659.65 177.78 663.63 180.21 667.17 179.49 667.38 178.65 668.68 178.65 670.96 179.64 678.35 177.12 684.03 175.92 685.9 173.42 688.46 165.29 688.8 163.97 687.41 156.66 686.24 142.81 684.51 131.13 685.38 112.09 691 103.43 688.4 92.18 673.7 82.77 664.72 86.37 658.06 80.48 652.23 75.94 647.69 70.41 642.6 66.99 639.4 65.45 631.08 64.97 628.46 58.79 619.55 53.32 613.25 38.81 613.25 37.5 607.78 34.89 605.53 23 595.42 14.08 593.4 7.18 589.96 1 587.22 1 578.9 1.71 569.99 1.71 559.2 1.61 559.17 1.61 551.39 8.55 538.15 8.73 535.88 8.43 535.37 25.01 530.06 27.07 520.43 30.52 510.8 35.33 501.86 41.53 485.35 37.4 471.59 47.72 455.77 71.12 433.07 91.08 422.06 94.52 406.93 93.83 393.17 89.7 378.73 89.01 371.16 94.52 368.41 99.34 364.28 111.73 363.59 113.79 353.96 122.74 343.64 Z"/>
</g>
</svg>