<?xml version="1.0"?>
<svg xmlns="http://www.w3.org/2000/svg" version="1.2" baseProfile="tiny" fill="#f9c113" width="800" height="802" viewBox="0 0 800 802" stroke-linecap="round" stroke-linejoin="round">
<g fill="#c0392b" id="id_73">
<path d="M 430.49 126.13 431.08 120.5 429.7 115.37 445.78 110.4 448.92 95.49 454.22 94.99 459.9 97.48 458.73 102.45 464.22 102.45 468.53 99.96 472.85 102.78 476.38 98.47 472.85 93.83 479.32 83.4 482.65 77.6 477.56 77.77 471.67 79.75 467.55 78.26 472.65 64.68 472.06 61.54 467.75 58.39 464.02 50.44 475.79 49.28 478.73 43.65 478.54 27.76 482.85 24.12 480.89 17 472.85 15.67 475.79 8.06 489.1 13.09 490.67 5.97 502.83 5.64 507.14 6.96 517.73 1 517.93 6.63 522.64 9.44 525.58 10.11 527.34 16.07 532.05 16.73 537.74 9.77 544.41 12.26 544.41 18.71 550.09 20.54 550.68 29.15 541.27 25.83 520.68 69.22 525.19 75.35 526.56 90.91 535.58 93.73 540.29 101.68 539.11 108.97 532.83 115.43 528.72 126.53 527.93 179.54 532.64 188 521.85 192.64 522.05 202.41 511.85 217.33 497.93 214.35 485.67 216.42 471.35 227.94 469.78 230.51 478.32 229.26 483.71 234.07 489.1 232.16 492.53 235.23 491.75 243.19 484.3 242.94 477.73 239.04 468.51 240.12 462.23 244.02 458.51 243.1 449.49 252.55 445.76 258.77 447.03 266.06 440.47 270.79 432.52 272.61 427.23 275.27 423.8 281.73 429.09 286.29 436.94 289.19 442.23 286.37 444.78 280.82 451.94 274.77 460.57 275.6 464.69 282.64 463.61 286.87 477.14 292.43 489.2 292.18 498.12 288.12 507.83 290.35 514.99 292.76 516.85 309.34 555.98 321.86 560.58 333.63 564.8 341.93 560.49 352.96 554.9 360.75 567.74 368.22 571.86 372.03 571.76 379.91 580.49 375.85 588.53 376.43 607.46 382.32 628.73 394.76 630.6 397.91 646.78 401.64 641.87 409.94 631.38 409.86 631.48 415.41 624.62 416 617.56 426.03 616.57 433.83 596.18 448.85 594.9 457.23 604.32 458.06 609.42 464.45 620.3 471.5 624.32 479.39 620.6 488.68 625.01 501.96 625.99 508.52 611.77 504.45 604.32 506.61 597.36 511.18 589.81 512.42 588.82 524.04 586.28 526.7 598.34 541.56 565.29 538.07 564.9 559.66 597.06 551.02 599.81 556.33 608.44 558 603.73 563.97 607.65 571.61 603.73 579.58 624.13 590.88 620.6 595.19 621.77 604.16 624.52 610.47 630.01 610.81 626.48 625.76 622.95 635.06 625.69 643.36 633.93 645.03 638.25 649.34 649.23 648.68 650.4 655.66 660.21 652 664.52 659.31 667.66 668.62 664.13 684.24 672.37 683.24 677.86 686.56 682.96 700.52 687.67 703.51 697.86 705.84 700.22 714.15 716.3 721.13 717.87 715.81 711.98 709.49 722.97 703.84 728.85 708.83 726.1 715.14 733.95 716.47 739.05 704.51 749.25 705.51 754.74 701.85 764.54 707.17 768.86 705.17 792.39 710.82 799 711.43 792.87 714.86 782.58 734.71 775.22 775.96 761.23 769.33 746.51 773.01 735.46 787.01 699.03 785.03 688.34 782.59 671.68 796.02 665.51 801 629.43 794.37 602.93 785.53 585.26 775.22 557.28 749.44 544.03 722.19 551.39 703.78 569.8 705.99 544.03 683.16 513.84 669.17 512.37 653.7 503.53 643.39 510.16 630.92 510.16 605.09 436.53 593.31 426.22 577.1 406.34 567.53 393.83 582.26 376.06 586.11 353.33 575.63 322.54 574.96 296.35 567.39 287.32 565.55 278.23 541.75 263.08 537.42 254.07 534.12 228.9 524.81 210.49 501.98 188.41 493.14 182.52 414.34 156.75 404.76 106.68 399.61 69.87 398.87 46.3 380.46 16.85 345.84 9.49 323.01 4.34 279.56 1.85 269.18 2.57 263.02 7.47 259.54 1 251.75 9.63 249.26 11.98 237.66 22.77 243.13 33.95 242.46 35.71 250.42 41.01 254.07 46.3 255.56 48.26 261.36 56.11 258.71 60.81 259.87 67.09 256.39 81.01 242.96 75.72 235.17 76.31 227.71 60.81 219.26 64.54 210.31 69.05 206.49 75.72 207.16 84.54 203.01 84.94 207.66 87.49 207.99 89.05 204.34 94.74 208.98 98.47 204.01 100.43 206.83 104.55 202.85 113.77 202.68 123.77 206.49 146.12 196.05 149.07 192.74 148.08 187.93 158.87 193.24 175.54 200.36 188.48 188.76 195.54 171.36 208.88 173.02 214.18 166.72 215.16 158.77 210.25 156.45 216.14 150.49 218.1 144.52 211.04 147.5 206.33 147.5 205.94 143.2 214.96 135.24 216.33 131.6 224.37 131.1 233.98 123.15 231.83 119.51 233.59 114.21 230.65 109.4 233.98 104.6 238.3 105.76 239.87 116.03 242.61 118.84 267.13 113.87 271.05 111.06 273.01 110.73 275.36 108.08 287.33 103.11 283.8 96.98 289.48 93 285.36 90.69 289.09 87.87 299.88 90.35 303.41 93.83 332.63 93.83 334.78 89.36 350.47 89.69 355.18 87.21 359.1 89.53 360.87 95.65 367.34 98.64 370.87 95.32 382.64 98.64 387.15 96.32 393.03 97.64 393.23 106.59 400.68 105.43 401.07 111.22 403.23 115.2 412.05 114.87 413.03 118.51 417.94 120.17 418.72 126.13 430.49 126.13 Z"/>
</g>
</svg>