<?xml version="1.0"?>
<svg xmlns="http://www.w3.org/2000/svg" version="1.2" baseProfile="tiny" fill="#f9c113" width="800" height="565" viewBox="0 0 800 565" stroke-linecap="round" stroke-linejoin="round">
<g fill="#c0392b" id="id_71">
<path d="M 572.3 199.11 568.09 218.37 584.93 214.63 600 220.61 607.09 235.57 617.73 237.81 623.05 249.03 644.32 249.78 621.27 352.25 642.1 348.88 657.62 366.27 703.05 369.45 727.64 363.28 746.48 350.19 749.8 361.22 778.61 361.41 778.61 367.4 765.09 418.64 776.62 424.81 767.98 444.45 784.15 446.7 786.59 461.1 799 473.82 768.64 475.13 762.21 472.89 756.23 482.99 744.04 480.37 733.85 486.36 710.58 478.5 686.2 501.7 672.24 499.08 671.13 499.08 664.26 487.67 602.66 482.62 601.33 466.53 590.69 460.35 582.49 485.98 594.68 501.51 573.18 544.35 563.43 555.58 522.88 547.16 515.79 536.31 473.02 533.31 465.26 520.97 432.91 516.66 423.16 529.39 408.09 529.76 388.81 522.09 372.85 532.19 345.15 526.58 347.81 512.55 347.81 511.99 348.48 511.61 337.62 509.55 322.11 526.39 312.58 536.31 304.82 533.5 298.39 536.68 291.97 526.39 260.28 516.48 244.77 524.33 217.29 533.69 228.15 550.34 221.28 564 201.11 563.06 196.23 539.68 190.25 537.24 178.95 553.15 165.21 550.71 167.87 538.55 141.05 540.42 141.28 517.79 163.66 501.88 192.25 491.59 190.25 457.74 191.36 440.15 162.33 446.7 163.21 456.8 157.67 458.86 123.77 439.97 116.9 447.26 111.14 445.95 108.48 433.98 68.81 434.91 73.46 445.39 84.99 452.12 92.74 472.51 86.98 489.35 68.15 480.74 63.71 488.98 34.46 497.21 26.93 482.8 19.39 478.31 14.74 449.5 20.94 423.69 2.55 422.76 1 412.84 13.85 408.92 6.1 402 10.97 387.41 59.06 389.84 98.06 401.25 105.15 391.9 110.25 379.18 116.01 374.69 115.79 360.85 157.01 362.72 182.94 341.59 172.3 335.04 172.97 325.5 156.35 315.41 174.07 284.74 208.64 266.04 204.88 226.78 225.71 227.9 237.45 222.67 269.36 230.71 328.31 151.26 335.62 134.06 360.44 134.06 368.42 140.04 366.65 153.5 383.49 160.98 456.18 1 470.36 4.74 476.56 1.75 507.59 17.44 478.34 75 458.84 103.41 426.04 123.59 412.74 205.84 504.93 210.33 514.68 217.81 527.98 199.11 536.84 203.6 572.3 199.11 Z"/>
</g>
</svg>