<?xml version="1.0"?>
<svg xmlns="http://www.w3.org/2000/svg" version="1.2" baseProfile="tiny" fill="#f9c113" width="800" height="726" viewBox="0 0 800 726" stroke-linecap="round" stroke-linejoin="round">
<g fill="#c0392b" id="id_74">
<path d="M 645.79 410.96 649.69 419.86 646.25 428.76 655.65 430.31 657.94 438.63 652.9 442.88 653.13 461.46 649.69 468.04 635.92 469.39 640.28 478.68 645.33 482.36 646.02 486.03 640.05 501.9 644.87 503.64 651.75 501.32 657.71 501.13 653.81 507.9 646.25 520.1 650.37 525.52 646.25 530.55 641.2 527.26 636.15 530.16 629.73 530.16 631.11 524.35 624.46 521.45 618.26 522.03 614.59 539.45 595.79 545.26 597.39 551.26 596.7 557.84 582.94 557.84 582.02 550.87 576.29 548.94 575.14 544.68 564.82 545.06 562.3 540.42 561.84 533.64 553.12 535 552.9 524.55 546.01 523 540.74 525.71 526.98 521.84 522.85 525.71 515.28 522.22 513.22 515.06 508.63 512.35 503.12 515.26 484.77 514.87 482.25 520.1 448.08 520.1 443.95 516.03 431.33 513.13 426.98 516.42 431.79 519.13 425.14 523.77 429.27 530.93 415.28 536.74 412.53 539.84 410.23 540.23 405.64 543.52 376.97 549.32 373.76 546.03 371.93 534.03 366.88 532.68 362.98 538.29 366.42 543.9 364.36 550.1 366.88 554.36 355.64 563.65 346.24 564.23 344.63 568.49 334.08 577.78 334.54 582.81 340.05 582.81 348.3 579.33 346.01 586.3 339.13 593.27 344.86 595.98 343.72 605.27 337.52 612.63 321.93 610.7 313.67 631.03 298.53 644.58 279.04 636.26 266.42 630.06 267.57 635.68 264.13 639.55 237.98 651.75 226.28 647.3 215.5 647.49 210.69 652.14 208.39 648.84 204.04 654.65 197.38 649.23 195.55 653.49 192.57 653.11 192.11 647.68 181.79 652.52 173.99 651.75 168.71 656.2 164.36 666.66 182.48 676.54 181.79 685.26 187.98 694.36 171.7 710.05 164.36 714.12 158.85 712.76 149.68 715.86 147.38 709.08 141.19 707.34 135 703.08 132.93 693.78 119.86 694.55 107.25 688.16 104.49 701.72 94.4 704.63 101.97 713.73 96.24 717.8 95.4 725 83.67 676.02 61.28 645.04 66.44 627.82 66.44 573.61 38.03 559.83 18.22 526.27 27.69 506.47 25.97 477.21 13.92 446.23 1 412.66 16.5 356.72 24.25 306.8 17.36 274.1 7.89 236.23 28.56 190.61 30.28 165.66 30.21 165.18 33.91 165.09 34.26 165.03 64.03 159.62 92.79 119.93 110.96 112.52 115.83 117.21 127.63 116.66 157.3 108.04 176.2 96.69 191.8 93.72 213.45 95.41 222.39 96.6 240.15 98.69 264.57 101.06 272.15 94 277.89 89.39 299.44 84.78 298.52 92.95 316.93 94.63 326.57 92.99 341.35 88.02 345.41 83.64 352.56 80.64 356.51 75.8 362.09 58.11 369.34 56.24 377.03 52.14 380.33 48.17 386.67 44.21 397.39 41.01 406.7 39.05 411.63 31.17 420.43 19.6 426.94 16.47 432.94 12.35 448.48 5.33 461.2 1 479.73 23.74 490.74 22.19 489.82 48.46 496.7 63.13 503.12 67.38 507.71 72.4 517.8 68.54 508.17 59.27 511.84 56.95 517.8 58.89 529.73 47.3 542.57 51.16 541.66 43.44 536.61 38.41 553.58 33.39 556.79 42.28 561.38 48.07 564.59 41.5 575.14 45.75 588.9 51.93 589.36 60.04 584.32 70.47 584.78 78.59 577.44 83.22 583.86 94.04 619.18 95.58 633.4 101.38 633.86 121.47 640.74 121.47 644.41 115.67 649 115.67 648.54 124.17 660.47 129.2 671.02 125.33 673.77 117.6 687.99 119.54 691.66 126.49 696.7 126.88 697.16 136.54 698.54 143.11 708.17 139.24 716.43 146.58 732.03 145.81 732.03 141.17 752.21 143.88 756.8 147.74 763.68 141.95 780.65 163.2 792.58 164.36 799 168.22 792.12 176.73 787.99 173.63 775.15 173.63 771.36 182.52 740.86 223.59 724.34 219.44 718.26 222.14 707.48 221.56 709.43 241.86 691.54 251.52 682.37 267.37 690.97 272.59 690.63 277.52 696.13 280.91 682.71 291.83 661.38 290.86 661.5 298.02 658.52 300.34 655.88 306.91 652.21 311.75 632.02 305.85 607.14 304.59 604.62 312.13 608.63 315.71 601.98 317.74 602.78 322.86 612.3 323.35 609.09 336.69 611.5 351.58 615.4 353.9 619.3 361.35 634.43 357.09 636.73 352.84 646.47 357.29 649.46 348.58 645.44 338.04 639.48 334.56 637.07 329.15 657.6 328.67 658.97 334.85 661.96 335.53 665.51 331.76 683.06 341.52 685.92 340.46 685.47 335.24 700.49 331.86 699.92 340.94 700.95 358.45 686.15 363.77 674.57 371.99 674.46 383.69 663.22 384.56 650.26 394.04 645.79 394.52 642.8 404.58 645.79 410.96 Z"/>
</g>
</svg>