<?xml version="1.0"?>
<svg xmlns="http://www.w3.org/2000/svg" version="1.2" baseProfile="tiny" fill="#f9c113" width="800" height="683" viewBox="0 0 800 683" stroke-linecap="round" stroke-linejoin="round">
<g fill="#c0392b" id="id_7">
<path d="M 697.93 235.14 706.19 232.65 717.63 240.17 726.37 246.61 725.7 269.65 749.48 287.51 773.94 293.47 775.01 306.23 785.83 317.03 793.96 332.12 799 346.46 772.61 359.66 794.16 376.86 774.78 388.4 756.8 403.63 736.91 405.09 710.39 420.84 704.71 435.37 670.8 461.43 668.76 474.94 675.33 478.07 683.29 477.43 687.06 484.06 681.06 491.32 667.68 496.23 659.13 512.22 653.78 520 657.28 532.94 655.05 545.49 649.51 559.07 623.69 569.01 621.33 581.75 629.04 590.74 613.11 603.42 581.93 609.54 553.82 608.07 530.36 623.62 515.82 635.86 482.67 639.68 453.6 658.55 399.29 659.06 387.81 652.17 362.82 649.12 325.59 650.39 302.39 660.84 233.79 660.59 223.59 656.76 195.29 655.23 137.66 673.84 130.26 682 113.43 681.49 100.43 654.21 99.9 653.8 77.88 646.97 70.39 648.07 51.44 632.44 35.58 630.24 29.64 619.89 9.15 614.82 12.23 591.48 21.49 582.23 11.35 569.02 21.27 547.88 18.62 538.41 14 536.65 13.78 523.66 23.25 514.85 10.25 503.84 1 500.31 1 474.55 13.12 460.9 22.59 473.23 32.06 461.56 36.69 453.41 46.6 450.11 46.82 430.95 51.88 430.73 61.8 436.67 73.25 440.86 87.35 431.83 90.21 421.48 78.76 418.84 67.96 417.96 67.52 408.93 49.9 404.08 46.16 397.48 27.21 391.75 33.46 383.15 34.36 375.36 33.01 365.72 37.52 357.2 38.43 354.23 42.04 346.08 41.59 334.59 48.36 329.4 53.78 323.1 54.68 319.76 55.59 314.2 61.36 306.53 61.43 306.44 68.68 297.53 66.88 289.38 62.81 279.37 66.88 273.82 71.39 271.96 76.36 269.74 86.75 270.48 96.23 271.22 98.49 267.89 93.52 263.81 89 258.26 88.1 255.66 89.91 253.07 92.98 247.34 93.14 247.47 102.99 244.68 111.3 243.45 121.04 238.69 128.94 240.46 137.45 244.68 145.28 247.68 146.92 245.91 148.28 236.99 148.89 222.21 140.38 216.56 134.39 195.52 129.28 184.36 134.39 180.34 139.77 181.09 145.49 178.03 153.05 169.92 156.38 170.61 158.9 175.64 165.1 178.98 174.57 182.38 182.2 183.34 185.53 181.91 192.55 180.75 196.84 178.71 201.54 178.64 209.92 183.81 214.34 188.78 216.25 183 219.25 181.7 223.13 184.7 226.19 182.66 229.26 178.03 236.61 176.73 239.4 171.9 246.08 165.43 247.44 157.94 251.46 146.1 255.89 135.54 263.04 125.67 273.87 119.61 284.01 119.27 294.43 107.9 294.84 100.34 293.51 80.19 298.14 67.29 305.53 53.88 312.6 1.05 312.74 1 321.68 19.36 345.38 28.94 363.72 34.36 368.33 45.38 384.34 52.5 413.66 61.55 446.05 81.56 459.88 78.28 468.01 80.51 485.22 80.92 493.63 89.3 487.87 100.74 481.97 101.83 488.47 115.31 506.96 116.33 524.55 136.02 526.85 147.81 551.07 160.87 568.48 162.66 577.69 169.19 592.06 165.27 598.69 175.21 609.47 176.1 620.05 185.15 639.3 182.99 640.52 179.81 664.93 179.67 675.13 175.09 686.09 176.52 695.55 178.49 694.26 207.71 689.16 222.5 686.06 221.98 689.12 222.57 697.93 235.14 Z"/>
</g>
</svg>