<?xml version="1.0"?>
<svg xmlns="http://www.w3.org/2000/svg" version="1.2" baseProfile="tiny" fill="#f9c113" width="800" height="1320" viewBox="0 0 800 1320" stroke-linecap="round" stroke-linejoin="round">
<g fill="#c0392b" id="id_70">
<path d="M 662.53 667.01 663.56 666.78 664.26 666.85 667.32 668.15 669.98 669.15 669.39 671 667.61 678.68 667.14 679.96 665.73 682.8 664.92 684.73 663.82 686.85 663.61 687.4 663.03 689.95 662.76 691.87 662.22 693.74 661.82 695.37 661.53 696.97 661.51 698.34 661.25 702.91 661.15 705.06 660.95 707.75 660.98 708.99 661.15 710.87 661.21 713.25 661.4 714.99 661.55 715.04 662.17 714.81 663.47 714.12 663.87 714.03 664.64 714.33 664.92 714.31 665.68 714.41 666 714.55 666.33 714.53 666.85 714.25 666.98 714.09 667.01 713.64 666.71 713.14 666.8 712.76 667.35 712.34 668.02 712.13 668.75 711.57 669.35 711.16 670.19 710.73 670.89 710.62 671.52 710.78 671.99 710.81 673.28 711.42 674.15 711.26 675.2 710.69 675.58 710.12 675.88 709.95 676.19 709.98 676.54 710.15 677 710.24 677.49 710.19 678.34 710.3 679.14 710.55 679.86 710.58 680.11 710.5 680.51 709.98 680.82 709.73 681.17 709.57 681.64 709.54 682.08 709.75 682.57 710.17 683.38 710.6 684.37 711.1 685.31 711.35 685.68 711.53 686.13 711.87 686.34 711.84 686.82 711.67 686.91 711.75 686.93 712.25 686.87 712.47 686.61 712.56 686.51 712.62 686.55 712.85 686.71 712.98 687.67 713.05 688.39 712.84 689.05 712.67 690.26 712.57 691.98 711.91 692.93 711.29 693.75 710.97 694.43 710.57 695.24 710.25 696.39 709.66 696.66 709.59 696.81 709.46 696.91 709.03 697.64 708.39 698.83 707.66 699.06 707.32 699.18 707.03 699.07 706.39 698.89 706.05 698.8 705.59 698.89 705.3 699.13 705.13 699.41 705.07 700.46 705.24 702.06 705.14 702.71 705 703.07 704.77 703.27 704.54 703.14 704.1 702.5 703.56 702.17 703.1 702.13 702.52 702.34 701.95 702.57 701.8 703.19 701.75 703.83 701.6 705.42 701.59 705.89 701.46 706.51 701.21 707.75 700.4 710.8 700.82 711.51 700.82 712.54 700.55 713.05 700.56 714.73 700.27 715.13 700.49 715.5 700.83 716.02 701.69 716.25 702.32 717.11 707.89 717.44 709.48 717.44 711.25 717.93 712.52 718.19 715.75 718.22 717.66 718.3 718.13 718.24 720.34 718.32 722.61 718.76 727.5 718.73 728.62 718.94 730.35 718.57 732.3 718.09 734.39 717.76 736.48 716.71 739.13 715.26 741.6 714.94 741.99 714.53 742.2 713.37 741.79 711.16 741.17 709.95 740.99 708.82 740.89 705.6 740.63 702.8 740.45 700.05 740.13 692.8 738.85 685.62 737.93 685.59 738.6 685.67 739.51 685.95 740.76 685.93 741.3 686 742 686.17 742.82 685.77 744.43 685.02 747.28 684.92 748.03 684.95 749.04 685.16 749.91 685.48 753.58 686.53 756.63 687.53 758.99 689.27 760.66 691.26 762.06 692.98 763.44 694.06 764.45 696.29 766.27 699.24 767.92 700.4 768.46 702.27 769.5 705.29 770.99 707.84 772.54 708.49 772.85 713.91 774.89 716.72 775.56 718.32 776.01 721.67 778.49 725.18 779.84 728.59 781 729.69 781.28 732.04 782.16 733.22 782.51 735.14 782.87 738.31 783.43 745.56 784.98 747.95 785.6 749.5 785.04 750.91 785.38 752.76 786.1 753.37 786.26 755.1 786.96 758.54 788.15 760.11 788.65 760.37 790.52 760.81 793.07 761.01 794.85 761.93 802.05 761.75 805.75 761.46 807.98 760.95 812.04 760.48 814.99 759.98 816.69 759.82 817.55 757.84 820.3 756.69 822.01 753.67 824.98 751.4 827.55 749.91 829.47 746.95 832.39 745.94 833.44 745.44 834.07 744.66 835.93 743.29 838.99 742.79 840.18 741.55 842.57 741.51 843.26 742.17 845.38 741.34 848.92 740.25 850.87 742.96 851.98 745.05 852.73 744.21 854.81 745.68 855.24 746.13 854.77 749.15 856.3 749.48 858.02 749.29 858.92 749 861.67 748.82 864.17 748.83 864.96 749.07 867.35 749.04 867.86 748.14 872.03 747.98 873.97 748.07 874.72 748.21 875.21 748.24 875.58 748.18 876.42 747.91 877.69 746.44 879.09 745.18 880.03 745.19 880.87 744.97 881.59 744.27 883.08 742.83 885.8 743.35 886.32 743.22 886.74 742.12 887.95 741.57 888.58 739.94 890.87 738.92 892.76 737.54 894.89 738.54 895.37 740.01 895.83 742.07 897.14 745.07 897.86 747.07 898.27 748.05 898.55 748.22 898.81 748.17 899.92 748.71 900.58 750.15 901.43 750.47 903.02 752.49 903.29 752.82 904.86 753.16 907.32 753.39 908.36 753.58 908.71 753.94 909.15 754.39 909.57 754.85 909.83 755.51 910.03 756.18 910.14 757.88 910.24 749.62 918.79 725.04 920.46 712.38 916.69 707.41 927.16 710.39 964.22 706.42 976.58 707.17 987.68 706.17 994.38 718.59 1003.8 737.95 1009.88 749.12 1009.46 746.14 1015.95 736.46 1017.83 729.26 1027.05 738.94 1040.45 729.51 1056.79 716.85 1069.99 719.08 1080.05 708.66 1082.14 687.31 1102.26 669.93 1123 666.45 1135.57 666.95 1142.07 657.77 1144.58 650.81 1147.1 654.79 1152.55 656.28 1156.95 645.85 1169.73 639.89 1175.39 629.47 1176.44 615.56 1186.08 601.91 1173.92 580.07 1177.69 575.1 1187.96 566.91 1183.14 560.7 1180 559.46 1173.5 552.76 1161.14 537.37 1159.88 542.58 1180.42 545.06 1187.76 540.84 1192.37 527.69 1190.06 528.43 1200.96 519.49 1196.35 515.03 1199.91 512.3 1206.2 503.86 1211.86 473.82 1205.78 470.59 1212.7 457.93 1214.79 451.48 1223.6 444.28 1232.19 444.03 1243.72 453.71 1250.01 450.73 1259.45 458.43 1261.75 456.69 1274.34 452.72 1283.98 457.93 1298.66 456.44 1303.9 448 1307.26 426.16 1303.69 408.53 1304.74 403.56 1296.77 389.66 1303.48 378 1313.76 363.35 1309.77 352.43 1305.37 332.57 1299.5 331.33 1304.53 309.23 1308.72 305.76 1316.9 292.85 1313.34 287.14 1317.32 279.94 1313.34 274.97 1319 259.09 1316.06 246.18 1305.79 237.24 1299.92 236 1292.37 233.02 1278.11 250.65 1281.88 254.87 1276.01 263.56 1263.01 263.31 1250.64 276.96 1244.77 271 1234.08 270.75 1206.83 272 1167.01 277.21 1152.96 285.15 1144.79 286.64 1135.57 280.68 1125.51 269.27 1121.95 267.53 1102.26 261.82 1094.5 287.88 1039.62 299.8 1043.81 299.05 1032.91 291.86 1030.61 291.86 1022.44 283.42 1019.3 276.22 1028.1 270.26 1027.26 268.02 1019.72 264.3 1018.88 258.34 1015.32 258.09 1008.2 244.69 1015.74 239.23 1014.06 223.84 1014.48 221.85 1023.49 205 1017.13 200.78 1007.49 197.55 1000.58 200.78 989.69 205.62 989.17 219.65 978.91 231.81 977.96 246.83 976.92 245.34 983.72 253.04 985.08 259.37 976.18 262.72 977.55 265.45 990.63 276.74 991.16 280.59 983.51 274.51 974.2 289.9 968.96 298.59 964.56 316.34 970.11 319.94 975.87 323.54 974.09 327.88 975.66 333.22 970.11 341.91 960.69 347.99 961.84 347.62 962.05 347.62 962.36 346.13 970.22 361.64 973.36 370.58 967.7 381.38 972 389.82 971.79 395.28 964.67 413.4 967.08 417.75 973.99 441.7 975.66 445.67 981.73 468.39 986.45 473.85 980.16 485.89 956.19 479.06 947.5 483.65 933.16 489.61 936.61 490.36 945.61 524.86 948.44 528.71 954.83 529.33 954.83 537.15 956.29 550.8 943.31 563.84 947.71 569.55 944.36 576.37 945.82 579.72 940.17 583.32 941.43 600.33 940.69 593.38 933.57 592.01 925.51 582.95 924.26 587.79 913.27 581.34 909.81 588.91 881.13 588.91 877.78 572.77 877.68 570.91 871.51 560.36 878.83 546.58 882.29 521.14 880.51 512.45 870.77 500.78 872.66 513.69 815.31 501.78 814.89 498.8 808.62 492.84 807.36 488.87 798.99 480.43 795.64 470.99 797.74 473.35 786.96 453.49 789.47 448.53 786.96 441.08 797.42 435.62 793.24 383.98 790.73 391.43 744.7 409.8 733.4 420.72 717.5 437.11 685.29 419.73 676.51 416.26 678.18 408.31 676.09 367.6 765.62 358.17 761.43 359.16 753.9 366.61 744.7 359.66 740.51 346.75 739.26 328.38 716.25 320.93 722.52 315.97 718.34 294.12 715.41 294.12 720.43 277.24 721.27 268.3 713.32 257.88 717.5 256.39 710.39 255.89 699.93 250.43 699.52 246.46 691.99 231.07 689.9 228.09 698.26 216.67 702.44 203.76 697.01 204.26 687.8 199.29 687.8 195.32 694.08 187.87 694.08 187.38 672.33 171.99 666.05 133.76 664.38 126.8 652.67 134.75 647.65 134.25 638.87 139.71 627.58 139.22 618.8 124.32 612.11 112.9 607.51 109.43 614.62 104.46 608.34 100.99 598.73 82.62 604.16 88.08 609.6 89.07 617.96 75.17 613.78 62.26 626.32 55.81 624.23 51.84 626.74 62.26 636.78 51.34 640.96 46.37 635.52 39.42 630.92 31.98 615.03 32.97 586.6 21.05 588.27 1 563.66 17.76 551.96 17.76 548.21 62.89 547.37 83.75 538.59 97.4 555.37 114.69 549.94 133.09 537.7 155.6 525.61 164.62 514.71 131.04 464.29 154.66 453.44 167.18 438.61 174.8 432.03 201.35 412.35 238.15 389.12 252.27 369.75 241.37 359.69 233.04 353.86 222.38 355.44 208.37 360.12 199.05 359.73 189.09 351.1 182.17 340.8 179.13 328.91 178.42 319.15 172.45 305.85 161.08 292.68 151.76 276.22 145.25 248.28 135.64 231.92 133.12 220.24 152.64 195.07 154.75 179.5 143.25 163.74 155.18 161.19 180.4 168.2 185.76 169.32 188.84 169.77 189.83 169.79 190.86 169.73 193.13 169.49 195.1 169.44 197.82 169.46 199.4 169.68 200.14 169.75 201.72 170.16 206.17 170.31 209.6 169.86 215.08 175.18 221.28 178.45 231.92 187.31 234.67 188.72 233.9 192.79 233.79 197.41 254.28 197.41 258.6 196.23 265.99 196.75 266.12 194.97 271.22 195.14 276.77 195.93 279.83 196.05 279.87 198.3 284.74 197.1 284.77 194.03 289.57 194.1 291.86 194.16 294.86 196.52 296.39 197.47 299.17 198.7 301.63 199.5 297.33 202.67 302.59 208.62 302.4 211.66 309.01 212.04 312.19 219.66 308 223.45 310.72 225.67 308.38 228.38 306.72 231.74 303.52 232.52 301.15 233.8 301.17 232.23 297.83 232.19 297.81 234.17 300.08 236.83 299.68 238.78 298.33 243.35 299.01 244.13 300.46 245.99 301.61 247.1 304.85 248.99 307.01 250.09 309.64 251.18 310.79 250.63 315.12 248.9 319.01 243.2 320.72 240.59 325.23 241.89 329.47 240.87 331.34 240.45 332.78 240.3 334.95 240.25 336.55 240.36 337.48 240.53 338.35 240.8 339.74 241.48 347.96 246.34 350.02 247.4 350.86 247.78 351.78 248.12 352.98 248.4 353.91 248.59 355.88 248.73 356.57 248.69 358.17 248.35 358.97 248.14 361.56 247.3 362.32 246.87 363.87 245.86 366.22 244.83 367 244.67 368.78 242.17 369.08 241.92 369.57 241.14 368.53 240.37 367.48 238.77 367.28 238.09 366.93 236.74 366.96 236.2 370.59 236.83 371.36 237.12 371.93 237.39 372.74 237.32 373.97 237.46 378.51 237.33 378.75 236.51 379.99 236.29 380.61 232.95 383.13 232.7 382.41 234.83 389.08 239.75 388.72 240.54 387.81 242.69 386.59 246.61 385.32 248.88 386.8 248.82 387.56 249.16 387.95 248.37 388.26 248.06 388.72 247.88 392.43 247.6 393.57 247.7 394.23 247.14 395.98 244.28 396.62 239.48 396.57 237.6 396.74 235.11 400.43 229.74 403.04 228.57 406.84 226.46 408.16 224.52 409.2 222.79 410.43 220.17 410.78 219.34 411.01 218.97 411.8 218.47 412.2 218.27 413.13 216.98 415.38 214.2 417.38 215.31 418.66 216.3 423.79 215.5 426.41 215.03 431.42 214.02 433.13 212.98 436.43 211.88 441.04 210.82 442.37 210.62 446.31 210.41 448.38 210.47 450.41 210.55 453.38 212.99 455.82 215.66 459.09 216.87 461.61 217.56 464.44 219.3 466.67 221.12 466.33 226.91 466.66 229.39 464.55 232.75 467.24 235.49 469.25 233.89 471.69 235.05 471.09 235.86 470.99 236.05 475.54 237.37 475.69 237.23 476.09 237.37 476.77 237.87 477.75 236.78 479.26 235.03 480.76 232.08 481.58 230.77 483.76 227.66 487.4 226.85 488.82 228.25 491.01 229.14 492.41 229.85 494.96 231.52 500.12 234.79 501.03 234.4 503.32 233.6 505.62 232.43 506.03 232.16 507.53 229.52 508.55 227.71 509.75 225.66 511.53 223.15 512.23 222.07 512.75 221.53 513.17 221.2 513.87 220.93 514.91 220.54 515.81 220.33 516.47 220.3 517.63 220.18 518.7 219.87 520.46 219.69 521.78 219.72 522.76 219.67 524.64 219.4 526.27 219.78 530.08 219.97 531.28 219.59 533.06 219.1 533.99 219.01 535.04 218.8 535.37 218.78 535.76 218.68 537.32 217.88 537.96 217.6 539.1 217.15 543.17 216.03 546.02 215.78 547.96 215.71 550.75 215.88 553.88 216.11 557.24 216.26 559.58 216.19 560.97 216.02 562.46 215.93 562.79 213.9 562.84 211.97 565.61 210.72 571.21 208.36 573.88 207.31 577.47 207.98 580.83 208.86 583.42 209.62 585.03 210.93 587.23 212.79 589.88 216.73 590.24 217.11 591.58 217.81 590.58 219.79 590.65 220.1 590.93 220.23 591.53 220.12 596.17 221.61 600.5 223.49 600.99 223.8 604.78 226.41 607.11 228.08 607.64 228.55 610.99 230.71 612.94 231.82 614.4 232.53 615.77 232.75 617.03 232.89 618.23 232.78 619.86 233.57 620.21 233.41 620.34 232.11 620.44 231.59 620.91 231.66 621.5 231.95 622.74 232.3 623.5 232.67 625.14 232.68 625.43 232.62 625.74 231.94 625.86 230.86 626.13 229.38 626.76 225.64 627.07 224.41 628.66 221.84 629.12 220.72 629.13 218.96 629.26 217.64 629.22 217.03 626.58 216.48 626.52 215.37 626.59 214.21 626.46 211.43 625.28 211.32 623.87 211.02 622.24 209.91 620.75 208.83 618.84 206.77 618.25 206.49 615.21 202.76 613.03 201.43 611.07 199.14 610.72 198.47 610.63 196.02 610.51 195.34 608.42 193.78 607.28 191.97 607.11 190.73 607.03 189.46 607.34 187.12 607.52 186.57 608.69 185.77 609.86 184.88 610.19 184.26 610.71 182.63 611.71 179.11 611.92 178.24 612.73 174.46 612.87 172.89 610.21 171.62 611.1 169.82 612.34 168.16 618.8 163.71 623.87 159.78 625.86 157.99 627.64 157.05 630.42 153.79 633.23 154.04 635.98 155.2 638.42 155.15 640.18 155.04 644.97 156.49 646.47 156.87 655.23 157.16 655.65 156.01 657.94 157.1 660.28 157.49 661.07 156.17 662.31 156.45 667.18 158.07 667.66 156.59 668.84 153.13 669.5 152.15 671.56 149.64 673.25 147.36 674.36 146.7 675.82 145.53 678.87 142.67 679.22 140.5 675.83 140.13 674.46 138.89 672.48 136.96 671.1 136 663.24 131.06 659.38 128.69 655.53 126.53 651.15 124.48 649.35 123.76 646.31 123.71 643.3 121.79 642.41 121.13 638.73 117.8 637.25 116.93 633.31 114.52 630.46 112.74 629.56 109.68 629.48 108.94 628.86 107.41 627.36 105.6 624.97 102.11 623.85 100.37 621.03 97.82 620.42 97.09 619.21 95.13 618.24 93.81 617.58 92.5 615.8 89.86 614.23 88.1 613.28 85.58 616.69 82.64 617.84 81.74 619.1 80.63 619.92 79.6 620.95 78.07 622.25 76.58 622.99 75.57 624.23 73.68 625.78 71.68 626.78 70.61 627.95 69.07 628.24 68.41 629.71 65.86 631.12 63.51 635.24 58.94 636.05 58.32 639 56.27 642.26 53.72 645.36 50.72 652.01 45.7 653.64 44.36 658.68 40.58 661.42 38.36 663.63 37.12 665.39 36.38 667.4 35.42 670.58 34.37 671.28 33.75 675.43 32.64 676.82 32.69 679.22 31.98 680.99 34.9 683.6 38.91 684.85 39.66 685.89 40.7 687.61 42.23 689.04 43.34 691.23 44.95 693.36 46.18 696.85 47.19 702.27 45.01 703.47 43.72 707.92 39.7 710.71 37.51 712.25 36.35 718.64 31.93 721.84 29.77 726.32 27.05 725.62 26.09 726.77 25.31 729.01 22.57 731.53 20.42 733.86 19.13 735.82 17.45 737.74 16.18 740.15 14.93 741.41 14.7 743.53 14.4 745.96 13.7 746.38 13.44 748.33 12.97 750.89 12.67 752.4 12.53 753.2 12.36 754.56 11.88 757.81 10.61 760.21 9.59 762.59 8.42 767.21 5.94 769.94 4.19 775.39 3.89 776.44 3.81 778.48 3.59 786.69 2.63 790.97 2.1 798.57 1 798.4 6.61 798.47 9.52 798.25 11.37 798.18 13.15 797.93 14.31 797.47 18.44 797.39 19.41 797.52 23.02 797.64 24.06 797.79 27.4 797.9 28.36 798.05 32.92 797.82 35.54 797.72 39.01 797.88 44.67 797.99 47.09 798.22 48.78 798.79 52.58 798.96 53.93 799 54.75 798.88 55.61 798.26 57.7 797.82 59.3 797.46 61.05 797.45 61.56 796.81 64.17 796.52 64.8 795.53 65.55 794.84 66.23 793.71 67.55 791.63 69.57 790.66 70.63 789.02 72.03 787.5 73.19 785.3 73.87 783.48 74.46 782.11 75 780.79 75.2 779.32 75.68 776.09 77.9 775.08 78.79 774.69 79.37 775.03 82.33 775.82 86.94 778.04 89.6 776.66 93.44 775.65 97.77 770.97 102.48 767.44 107.13 764.56 111.12 761.5 115.31 760.6 116.67 758.19 120.76 756.68 123.15 753.89 127.85 751.48 132.01 749.27 135.62 747.8 137.85 746.9 139.59 746.06 141.82 745.12 144.58 743.48 148.04 740.82 153.96 739.5 156.74 739.09 157.86 738.79 159.48 737.92 164.96 737.24 168.97 735.91 170.63 734.45 172.61 734.03 173.4 733.91 173.93 733.34 175.02 732.03 176.54 731.02 177.86 729.94 178.84 728.76 180.17 728.09 181.54 727.68 182.71 727.41 184.13 727.23 185.2 727.33 188.8 727.45 190.21 727.4 190.92 727.04 192.55 726.96 193.95 726.48 196.66 726.37 198.44 726.33 200.95 726.24 203.64 726.14 204.28 724.78 208.42 723.93 210.63 723.01 212.78 721.93 215 720.67 217.44 720.27 218.36 719.63 219.61 718.83 220.54 717.62 221.65 716.92 222.4 716.42 223.44 715.67 225.13 714.71 227.05 709.43 233.69 708.92 234.63 707.14 236.97 706.03 238.6 705.53 239.08 703.46 240.57 702.2 241.59 700.38 243.27 699.39 244.52 697.91 245.31 697.01 245.93 696.67 246.41 696.02 248.25 695.5 250.01 694.96 252.08 693.59 256.03 692.22 260.95 690.66 263.43 688.33 266.47 687.37 269.22 684.45 274.34 683.57 275.8 683.35 276.43 679.49 279.71 674.94 284.1 670.81 287.77 668.55 289.89 671.51 291.22 673.27 291.28 674.34 291.41 678.15 292.72 681.96 293.61 687.94 295.25 689.72 295.45 690.45 297.97 692.61 298.47 691.96 301.3 691.13 302.88 690.77 302.85 690.17 303.82 689.84 305.01 688.73 307.06 684.15 312.7 682.89 314.83 681.85 316.88 680.99 318.08 679.74 319.21 679.13 320.12 677.11 322 676.46 322.93 676.11 323.77 675.8 328.37 676.12 329.41 677.23 331.48 677.27 332.2 677.65 333.73 677.71 334.9 677.15 338.23 676.73 341 675 346.59 674.53 350.7 673.12 352.54 671.62 355.04 670.44 357.31 669.1 360.29 668.7 361.99 668.77 363.81 668.14 365.54 667.74 366.38 667.53 367.14 666.55 372.09 671.15 378.19 674.74 382.75 677.3 386.43 678.94 388.97 681.35 393.03 684.44 398.57 685.62 399.99 686.74 401.57 687.38 403.42 689.71 407.49 691.53 410.83 692.39 412.54 695.5 419.29 696.98 422.65 698.67 426.83 726.01 431.58 736.76 433.36 737.27 438.02 737.54 439.87 737.54 440.86 738.57 441.05 740.2 441.51 742.98 442.09 745.94 443.24 752.1 445.99 757.78 448.45 761.47 449.78 766.14 451.26 770.32 451.9 775.3 451.7 774.72 453.92 773.05 460.99 772.77 462.83 772.58 465.31 768.5 471.04 766.4 473.9 767.06 474.34 766.49 475.04 764.1 478.09 762.76 480.12 761.48 481.77 760.82 482.6 758.67 485.46 756.5 484.92 755.6 488.43 752.03 487.88 745.27 487.12 736.26 486.04 735.01 488.52 735.07 488.87 735.3 489.36 734.97 490.61 734.32 492.75 731.22 491.71 728.74 490.96 727.03 490.51 725.2 493.15 723.54 495.23 722.25 496.01 720.85 496.78 718.74 498.05 717.93 498.64 716.55 499.7 714.29 501.28 713.23 502.19 712.6 502.84 712.19 503.49 710.32 507.07 710.08 507.69 709.82 508.55 709.01 512.56 708.2 517.46 707.52 520.78 707.22 522.4 706.43 522.23 701.46 521.7 697.6 524.75 696.16 526.04 693.96 528.09 692.44 529.37 688.92 529.74 687.3 529.46 686.15 528.95 674.02 525.91 671.93 525.56 669.25 525.3 668.74 525.29 670.08 527.64 672.61 532.17 672.57 536.11 672.37 536.08 671.8 536.09 671.44 536.19 671.18 536.41 671.08 536.65 671 536.74 670.47 537 670.35 537.02 669.88 536.95 669.51 536.94 669.16 537.1 668.42 537.69 668.25 538.08 667.95 538.22 667.62 538.27 667.17 538.48 666.53 538.68 664.52 539.53 663.98 539.82 670.44 540.65 670.66 541.25 674.53 541.79 673.48 544.08 671.69 548.62 671.05 550.4 670.37 553.87 669.56 558.22 669.94 562.08 670.18 567.91 670.27 569.1 670.02 571.36 669.83 574.54 669.48 577.67 667.76 581.41 664.18 582.31 659.72 583.6 658.89 583.73 655.75 583.54 652.86 583.46 648.32 583.08 644.46 582.79 639.96 582.67 634.98 579.99 632 581.11 629.21 581.98 627.62 582.96 627.49 586.25 628.09 586.54 628.22 587.08 628.48 588.73 628.44 590.22 629.84 591 630.54 591.78 630.16 594.15 629.89 595.51 629.71 596.18 630.32 597.38 631.51 598.6 630.47 599.82 630.34 600.72 629.78 603 629.25 606.01 629.09 608.93 629.02 610.82 628.95 611.52 636.28 613.71 635.86 615.45 634.56 620.35 634.59 620.68 635.42 621.45 637.6 621.92 640.51 622.57 642.97 623.21 644.03 623.35 646.65 624.08 646.57 625.88 646.63 626.07 649.32 626.24 653.67 626.62 657.53 627.2 658.44 626.26 660.12 624.34 661.24 622.98 663.03 621.31 665.42 622.83 666.46 623.55 667 623.82 668.96 624.65 670.71 625.19 675.07 626.66 680.29 628.69 679.96 629.37 678.45 633.04 677.27 634.93 675.73 637.72 674.31 639.75 673.16 640.92 671.75 642.43 670.12 644.09 669.28 644.15 668.46 644.26 667.72 644.88 665.94 646.66 664.81 646.41 662.89 646.15 659.59 645.34 659.26 645.32 657.55 647.53 656.02 647.49 655.36 649.58 654.28 652.72 653.76 654.53 653.12 657.4 654.98 657.71 654.17 661.3 656.46 662.16 655.85 664.71 659.82 666.23 662.53 667.01 Z"/>
</g>
</svg>