<?xml version="1.0"?>
<svg xmlns="http://www.w3.org/2000/svg" version="1.2" baseProfile="tiny" fill="#f9c113" width="800" height="696" viewBox="0 0 800 696" stroke-linecap="round" stroke-linejoin="round">
<g fill="#c0392b" id="id_79">
<path d="M 213.66 250.32 221.08 251.73 230.98 254.2 229.24 246.8 233.9 240.88 244.96 244.33 252.54 242.36 259.53 241.37 266.52 243.34 272.92 244.82 280.5 239.4 281.08 233.97 272.92 232.49 275.25 228.54 277 227.06 285.16 225.58 291.57 224.1 292.73 223.11 298.56 217.69 304.38 216.21 313.12 216.7 316.03 213.25 303.21 209.3 318.36 209.3 333.51 187.59 343.99 189.57 350.98 180.69 355.64 183.65 361.47 175.76 374.28 176.74 376.61 170.82 360.3 165.89 363.8 147.15 348.65 143.21 345.16 138.28 317.2 138.28 311.37 143.21 289.24 143.21 288.07 140.25 297.39 137.29 302.05 113.62 301.44 91.32 317.24 75.71 316.93 68.77 322.51 64.44 328.87 62.08 327.01 56.18 318.17 48.45 317.4 40.71 303.87 33.55 304.07 33.5 306.4 20.27 310.12 6.51 313.02 1 342.11 1.58 381.67 5.65 402.03 13.22 406.68 75.46 424.13 82.44 438.67 100.47 465.43 110.36 477.65 113.85 478.41 117.18 479 117.39 484.83 132.66 491.97 134.11 512.66 140.09 536.99 140.61 554.64 148.59 554.94 148.89 568.98 145.85 578.87 134.22 594.58 141.78 598.77 148.4 598.78 148.39 602.72 154.58 634.13 159.23 660.89 163.88 660.89 184.83 655.66 194.13 662.64 202.28 663.8 214.49 687.65 225.55 708.01 243.58 693.47 241.83 687.65 256.38 698.12 277.9 720.23 298.26 734.19 306.41 755.13 313.39 783.63 318.62 798.28 306.81 799 309.57 796.19 315.36 766.18 335.49 717.9 366.32 715.57 386.68 697.54 394.83 661.47 394.83 638.21 409.37 641.11 433.8 630.64 457.07 592.83 461.73 573.05 483.83 546.88 504.77 516.04 538.52 493.36 546.08 474.16 564.69 456.71 582.73 432.28 585.05 399.7 581.56 389.23 571.67 372.94 577.49 363.05 593.2 343.85 592.62 320.59 592.62 301.97 582.15 279.87 592.62 252.53 593.2 227.51 581.56 204.24 590.29 194.94 605.41 192.61 618.79 186.21 635.08 171.67 640.9 155.38 641.48 142 643.23 132.69 664.75 114.66 675.22 101.28 689.18 83.25 695 62.88 692.67 45.43 686.27 18.43 688.17 21.61 672.62 20.37 656.03 20.21 628.79 15.56 616.81 7.35 614.45 6.11 610.63 1.62 613 1 608.52 24.4 591.42 25.95 581.82 23.31 574.84 32.3 570.37 51.2 578 51.51 565.9 61.74 554.19 69.8 552.87 78.32 549.06 64.68 544.32 58.95 539.46 57.87 532.36 62.2 529.33 57.09 512.89 58.17 508.68 62.82 508.03 65.92 513.02 71.35 513.02 73.98 517.63 82.66 521.05 82.81 534.33 104.97 538.93 106.05 532.22 110.39 529.73 108.38 523.94 100.48 524.99 95.52 510.53 97.84 505.79 104.66 502.5 116.28 505.79 120.31 502.11 124.03 503.95 131.62 492.25 121.39 487.65 122.32 483.18 115.19 478.18 111.01 466.48 97.22 465.3 94.12 457.67 92.57 447.95 100.32 444 99.08 440.06 123.87 432.17 129.76 433.22 137.82 430.86 140.92 423.76 144.94 418.77 143.4 416.14 143.4 398.53 152.69 385.39 193.91 388.81 200.72 381.19 205.06 384.08 236.98 367.79 207.55 351.3 207.62 351.17 201.27 333.7 212.73 325.95 215.99 305.2 207.31 302.05 206.85 294.44 195.84 283.67 200.18 276.58 197.86 271.72 211.65 271.59 207 252.82 207.06 249.92 207.62 250.06 213.66 250.32 Z"/>
</g>
</svg>