<?xml version="1.0"?>
<svg xmlns="http://www.w3.org/2000/svg" version="1.2" baseProfile="tiny" fill="#f9c113" width="800" height="457" viewBox="0 0 800 457" stroke-linecap="round" stroke-linejoin="round">
<g fill="#c0392b" id="id_76">
<path d="M 706.56 99.52 709.09 106.49 712.89 109.17 710.36 114.52 706.56 118.27 704.66 124.16 707.83 129.52 709.09 133.27 699.59 138.63 707.83 141.84 712.26 145.59 718.59 138.63 733.79 136.49 734.42 148.81 743.28 152.02 747.71 159.53 748.35 159.53 748.35 165.42 745.82 170.24 742.02 172.39 749.61 176.67 754.68 170.78 755.95 169.17 760.38 168.1 764.81 167.56 768.61 163.81 767.98 155.77 774.31 157.38 780.01 163.28 781.9 164.35 785.7 159.53 794.57 163.28 792.67 165.42 790.14 171.32 788.87 176.14 793.93 180.43 796.47 184.18 799 182.57 790.77 194.9 787.13 204.55 792.04 208.97 786.18 209.24 781.11 218.49 782.06 222.37 780.01 225.06 777.79 227.47 775.42 230.69 771.14 236.99 766.85 249 765.83 250.97 764.21 253.8 761.25 259.29 759.87 259.18 757.46 259.09 755 259.07 750.94 258.87 748.71 256.7 750.06 254.37 750.19 254.37 753.51 248.6 755.72 244.89 755.38 244.69 755.26 244.59 745.93 241.07 745.34 242.3 744.99 244.95 741.5 246.15 742.28 248.5 742.93 250.09 742.12 251.06 735.24 245.01 736.14 243.66 737.13 242.2 737.71 241.06 738.16 240.03 737.45 239.62 737.6 238.82 737.51 238.5 737.26 238.4 736.73 236.68 733.96 227.82 733.51 225.91 733.09 224.77 732.77 224.41 731.56 224.78 730.83 225.15 729.85 225.29 728.99 225.68 728.22 225.62 727.13 225.68 726.29 225.88 724.48 225.92 722.81 225.67 721.51 225.59 720.18 225.61 718.56 225.48 717.64 225.59 717.7 226.33 718.17 228.12 718.51 228.68 718.56 229.27 718.85 230.43 719.48 232.44 720.12 234.82 720.99 238.5 720.92 240.86 721.17 243.55 721.28 245.9 720.2 248.1 719.68 248.87 718.94 249.77 719.26 251.16 719.38 252.11 719.39 252.75 716.74 252.24 715.8 252.09 715.08 251.9 714.27 251.65 713.31 251.21 713.02 251.11 712.78 250.87 712.21 250.49 711.89 251.88 711.63 253.41 711.34 255.36 711.19 256.84 711.49 257.23 711.59 258.54 711.32 260.16 711.34 261.1 711.38 261.74 711.4 263.47 711.54 264.1 711.03 264.03 710.93 264.34 710.78 264.61 710.73 264.93 710.81 264.94 710.72 265.65 710.95 265.67 710.95 265.84 712.06 265.97 712.31 266.5 712.41 266.83 712.65 268.12 712.59 268.49 712.69 268.83 709.9 267.95 707.89 268.14 707.44 268.37 706.66 268.61 704.6 268.87 702.17 269.28 699.78 270.71 696.46 272.65 695.24 273.41 693.72 274.31 693.07 274.75 690.67 276.21 689.79 277.39 688.61 278.69 688.09 279.94 687.67 281.34 687.04 282.23 687.13 282.27 686.84 282.71 686.7 283.47 684.82 286.34 682.71 285.39 682.05 284.82 679.63 284.21 677.86 283.49 675.44 281.87 675.09 280.4 674.54 279.82 674.13 278.79 673.83 278.46 673.52 278.03 669.74 274.13 666.84 271.23 666.27 270.61 665.6 269.95 662.27 270.67 660.9 270.65 659.11 270.46 657.31 270.37 654.98 270.38 650.7 270.37 648.99 271.36 648.13 271.8 646.39 271.51 641.23 271.39 637.39 271.16 625.34 270.36 622.3 273.55 622.82 277.36 620.85 277.4 618.92 277.33 615.91 279.72 614.25 280.02 614 281.49 612.45 281.31 608.66 281.7 606.55 284.01 607.33 285.67 609.25 289.62 607.27 292.41 606.79 292.95 605.9 294.19 605.88 294.6 605.58 295.02 604.88 296.01 604.46 296.75 603.35 296.6 603.01 296.67 602.35 296.56 600.87 295.97 598.66 292.52 598 291.61 596.94 289.94 596.71 289.5 596.17 287.87 593.84 285.43 589.65 282.16 588.49 281.54 588.32 282.42 587.46 284.4 587.52 284.62 587.71 284.85 587.28 285.01 588.21 286.25 588.97 288.41 584.71 291.67 582.34 293.18 580.27 295.17 579.52 295.09 578.17 295.29 575.99 295.37 572.56 295.87 571.25 296.19 570.15 296.39 569.59 296.25 568.55 295.84 567.58 295.52 566.41 294.06 564.66 292.75 563.98 291.63 562.9 291.08 563.98 289.89 564.24 289.65 564.61 289.41 565.78 288.86 564.46 287.02 562.86 287.34 562.57 286.91 561.25 287.74 557.26 288.76 558.71 289.51 558.97 289.73 558.44 290.21 560.19 291.3 561.39 292.07 561.84 292.43 560.41 293.61 559.76 294.24 558.37 295.69 558.48 296.82 557.95 297.34 557.64 297.9 556.65 298.96 555.68 299.97 554.84 300.64 553.77 301.19 553.19 301.35 552.6 301.91 551.95 302.55 551.04 303.56 550.72 303.39 549.82 303.25 545.17 301.76 544.3 302.16 543.19 302.85 541.63 303.7 542.21 304.41 542.8 304.96 543.18 305.16 542.98 305.45 542.34 305.98 541.68 306.55 540.18 307.69 537.71 309.46 536.57 310.27 535.73 311.05 533.98 312.03 532.95 312.75 531.93 313.78 532 313.83 531.08 314.69 530.17 315.37 528.15 315.02 527.53 314.5 526.49 313.74 525.69 313.32 524.07 310.88 523.76 309.47 523.17 308.81 522.94 308.43 522.3 307.69 522.82 307.45 522.46 306.72 522.34 306.01 521.54 305.97 520.67 305.52 519.95 305.81 519.38 306.22 518.23 306.71 517.58 307.11 516.82 307.3 514.92 308.03 513.77 308.31 513.03 308.52 512.54 308.64 510.56 309.56 509.63 309.06 508.04 308.4 507.51 308.87 506.54 309.36 504.77 310.3 503.27 313.86 503.14 314.05 504.43 314.82 503.66 316.18 503.04 315.53 502.36 314.98 497.37 323.38 493.07 321.97 490.51 321.3 488.68 321.26 487.47 318.34 486.94 315.99 486.44 314.23 485.04 316.25 484.5 317.07 484.22 317.11 483.56 317.08 482.43 316.9 479.62 316.28 477.92 316.21 476.02 316.58 475.38 316.64 472.83 316.37 469.5 315.91 468.34 315.97 465.98 315.65 463.26 318.17 462.6 318.04 461.94 317.8 450.43 315.46 453.13 313.33 457.57 310.19 457.84 308.58 455.46 306.48 454.03 304.46 452.85 302.8 447.12 301 441.56 299.24 440.91 299.06 439.35 298.54 437.28 297.9 433.46 296.63 430.99 295.78 430.43 295.6 428.5 295.03 428.19 295.7 427.44 297.26 426.71 296.97 423.13 296.03 424.55 292.61 422.86 291.64 422.75 291.78 422.37 291.62 422.08 292.01 420.95 291.46 419.35 290.96 419.17 291.06 418.34 290.81 417.38 290.69 415.83 290.58 414.45 290.53 413.26 290.54 412.6 290.49 411.2 290.09 410.73 289.88 409.59 289.6 408.4 289.2 406.14 288.68 405.25 288.64 401.5 288.13 399.81 287.88 397.7 287.64 397.28 287.63 396.89 287.68 395.68 288.07 394.75 288.8 395.2 289.36 393.76 290.05 392.95 290.47 392.12 290.78 390.7 291.49 389.8 292.02 389.06 292.35 388.74 292.8 388.22 294.22 387.32 296.28 387.42 296.59 387.68 297.55 387.11 297.84 386.3 297.2 385.15 297.72 383.5 298.6 383.05 298.76 382.22 299.26 381.74 299.62 381.39 299.85 381.85 301.51 381.94 302.33 379.55 303.82 378.32 304.57 377.22 304.94 376.82 305.21 372.71 306.47 370.85 306.1 369.34 305.75 366.3 305.09 364.9 304.74 364.58 304.68 362.05 302.97 361.61 302.75 360.56 301.95 359.77 301.62 359.04 301.38 358.32 301.25 357.29 301.02 357.21 301.38 356.09 301.12 355.37 300.88 354.39 302.22 354.22 302.61 353.95 303.76 352.84 303.63 351.16 303.55 349.13 303.28 348.03 303.4 346.36 303.28 344.47 302.81 343.37 302.46 342.67 303.32 341.64 304.36 341.05 304.83 340.24 305.33 338.71 305.93 338.04 309.03 335.46 313.73 331.35 315.12 331.51 316.21 331.04 316.23 331.08 316.71 335.13 316.63 335.17 317.53 335.67 317.59 336.33 318.85 336.86 319.8 337.44 320.69 337.93 321.77 338.8 323.36 339.13 324.08 339.85 325.21 340.5 325.17 341.43 325.73 341.98 326.16 342.3 326.51 344.01 327.79 341.19 330.26 340.68 330.57 339.29 331.79 336.42 334.32 333.54 336.94 331.05 339.25 331.37 336.22 331.65 332.58 327.21 329.47 323.91 330.53 325.29 336.46 327.35 337.84 324.46 339.06 322.42 339.08 320.04 339.68 317.91 340.01 307.33 340.97 312.91 349.19 305.56 354.98 299.77 354.83 296.49 354.85 287.64 363.53 285.29 364.92 284.81 365.65 284.87 366.24 284.67 366.75 285.64 372.28 286.27 377.74 286.53 379.4 286.74 380.99 286.89 381.58 286.97 383.17 287.19 384.64 287.32 385.18 287.57 386.95 287.06 388.15 286.51 388.74 284.89 391.6 283.23 394.88 281.36 398.64 280.76 399.5 279.03 401.73 276.38 405.87 276.41 406.84 274.84 410.28 273.39 412.52 272.41 412 271.01 411.82 268.87 410.4 267.24 410.61 264.13 411.67 263.76 408.26 262.17 408.35 259.89 407.81 259.9 408.01 258.19 407.56 257.53 409.09 256.53 408.94 254.82 411.3 253.96 413.48 252.59 413.34 251.93 413.42 251.43 413.51 250.21 413.54 249.49 413.78 245.22 412.99 243.98 413.61 242.87 414.04 238.94 414.77 238.28 414.99 237.14 415.22 230.13 415.92 226.55 418.04 222.74 420.11 220.4 421.56 219.56 422.17 216.65 424.15 214.89 425.23 213.59 424.18 212.1 423 210.49 421.65 209.82 420.97 207.58 419.72 204.79 417.58 203.65 417.06 202.91 417.29 200.68 415.95 199.73 415.86 199.96 418.24 200.39 420.67 200.89 426.71 200.83 428.51 200.86 429.85 199.52 429.34 197.75 430.81 195.4 431.39 194.34 431.6 193.85 431.48 193.4 431.61 193.27 431.75 192.89 431.97 191.02 432.07 188.7 432.78 187.78 432.8 186.27 433.86 185.49 434.5 184.03 433.51 182.97 432.73 182.11 432.31 180.4 431.22 179.01 430.36 177.46 429.29 175.36 428.02 174.18 428.56 173.91 428.91 173.45 429.75 172.53 431.28 171.43 432.97 167.14 430.92 166.17 431.61 165.57 432.1 163.32 431.5 163.24 431.31 161.35 430.81 158.66 432.51 159.15 432.92 158.73 433.38 159.1 433.72 158.6 434.05 158.06 434.34 157.19 434.87 157.25 435.32 156.59 435.82 156.63 435.99 155.02 436.82 153.72 437.87 153.13 438.54 152.83 439.15 152.32 440.81 152.38 441.24 152.31 441.87 151.7 443.25 153.28 445.92 154.33 447.85 154.88 448.9 155.89 450.29 156.91 451.77 157.64 452.98 156.33 453.19 155.4 453.28 153.98 453.5 152.76 453.72 152.21 453.8 150.83 453.98 150.35 453.96 148.67 453.88 146.04 453.81 144.48 453.73 143.08 456 140.44 454.88 137.29 453.59 136.57 453.28 136.5 452.01 136.47 450.46 135.65 450.32 134.92 450.15 134.28 450.12 133.49 449.94 132.34 449.71 130.55 449.6 129.81 449.57 128.66 449.55 126.65 449.58 125.84 449.62 122.18 444.4 107.01 426.28 65.69 390.87 50.94 367.27 42.93 355.04 25.23 337.76 16.8 330.59 13.43 308.26 9.63 296.03 1 294.06 1.2 293.92 21.86 295.19 28.18 287.18 36.61 285.07 44.62 288.87 48.83 265.26 54.74 253.88 69.91 245.45 73.47 241.36 73.46 241.33 73.49 241.34 89.72 222.69 100.68 216.37 111.64 208.78 124.29 211.73 128.93 206.25 133.56 202.88 146.21 201.61 166.44 194.03 174.87 192.76 189.63 184.75 201.85 172.95 203.96 139.23 190.05 124.48 183.73 112.68 186.68 96.24 195.53 89.49 198.9 70.1 211.97 68.42 214.5 59.56 218.71 52.82 217.33 48.87 217.44 48.89 215.81 44.31 216.73 33.85 221.11 28.96 226.3 23.32 244.43 29.22 244.64 29.28 244.68 29.28 258.92 32.59 259.36 32.72 261.55 33.2 262.55 33.43 262.58 33.42 262.61 33.43 263.19 33.27 273.93 30.48 281.1 9.41 288.69 11.93 300.91 11.93 312.72 11.09 312.85 5.05 315.4 4.04 326.41 1 327.86 2.9 324.5 8.97 328.76 12.01 329.1 8.5 343.7 11.91 348.3 11.44 347.06 18.18 346.62 22.64 341.68 30.04 348.97 36.59 348.75 33.84 355.15 34.88 358.18 32.6 363.91 35.35 365.59 33.93 367.72 36.3 373.9 33.55 376.82 37.06 375.81 44.85 378.84 50.92 381.98 52.72 383.22 55.67 381.31 58.9 381.42 67.92 382.99 70.1 385.35 68.01 388.27 70.95 399.5 69.91 400.17 77.41 402.08 74.47 406.91 78.83 414.21 83.11 418.92 83.2 416 88.9 412.75 89 407.36 93.93 408.48 97.26 412.07 97.64 408.14 112.74 412.86 115.49 416.34 113.5 425.77 116.25 428.47 120.53 429.48 116.54 433.07 113.78 437.79 113.78 441.83 109.6 447.55 112.26 456.76 94.79 445.87 87.38 449.91 82.73 445.98 79.12 449.01 77.03 465.18 71.62 471.58 62.79 466.08 55.57 471.81 48.26 470.12 45.89 476.3 34.78 483.6 36.49 485.39 39.72 518.18 45.51 520.99 52.06 518.96 60.03 511.55 69.34 511.55 76.56 525.93 72 533.11 58.71 542.99 58.52 547.93 61.36 548.38 65.35 550.85 72.38 543.22 75.04 541.2 83.2 549.28 83.2 555.12 79.78 566.12 69.15 574.43 68.96 581.17 73.71 578.47 81.11 591.72 90.23 590.82 94.03 585.21 91.56 578.02 96.88 586.11 103.53 590.15 102.2 604.97 108.84 610.81 102.39 615.08 101.82 619.34 98.59 623.38 107.7 646.96 105.24 655.27 94.22 662.01 93.46 664.25 89.09 671.66 89.09 675.93 82.82 703.1 82.82 708.27 87.38 710.36 94.17 706.56 99.52 Z"/>
</g>
</svg>