<?xml version="1.0"?>
<svg xmlns="http://www.w3.org/2000/svg" version="1.2" baseProfile="tiny" fill="#f9c113" width="800" height="603" viewBox="0 0 800 603" stroke-linecap="round" stroke-linejoin="round">
<g fill="#c0392b" id="id_75">
<path d="M 598.64 586.32 604.22 578.1 607.31 573.9 610.2 570.75 612.89 567.25 611.65 562.18 618.25 550.11 625.89 549.76 619.49 543.98 624.24 531.39 634.97 515.3 631.67 517.4 628.37 512.5 621.76 506.91 623.41 500.61 626.72 492.92 629.19 490.12 617.63 485.23 612.68 491.52 610.2 490.12 602.77 482.43 594.52 480.33 595.34 490.82 590.39 495.72 584.61 496.42 578.83 497.82 577.18 499.91 570.57 507.61 560.66 502.01 565.62 499.21 568.92 492.92 568.92 485.23 568.09 485.23 562.31 475.44 550.75 471.24 549.93 455.16 530.11 457.95 521.86 467.04 516.08 462.15 505.34 457.95 517.73 450.96 516.08 446.07 511.95 439.08 514.42 431.39 519.38 426.49 522.68 419.5 517.73 416.01 514.42 406.92 519.38 399.93 516.65 391.07 509.92 385.12 474.48 385.12 468.92 393.3 459.25 393.3 456.33 399 447.54 400 436.71 414.37 405.96 417.6 400.69 405.7 395.12 409.91 389.56 410.66 381.95 419.08 362.62 410.41 357.35 412.14 346.8 403.47 356.18 396.53 363.5 399.75 364.67 394.79 347.39 382.89 350.9 373.23 342.12 367.03 331.28 367.28 316.93 381.16 309.32 385.62 298.78 385.62 301.41 374.96 311.37 371.49 308.15 362.32 307.56 357.12 301.12 353.4 288.24 353.65 278.87 371 260.12 376.95 260.12 367.53 269.79 355.38 272.42 344.98 268.76 336.43 226.01 328.87 223.66 324.66 214.15 322.43 206.09 336.92 208.29 340.02 200.82 349.56 208 358.98 199.65 370.5 178.57 377.56 174.61 380.29 179.74 385 174.47 391.07 188.67 400.74 176.66 423.55 169.2 420.08 163.93 425.53 157.78 425.53 153.09 429.13 151.77 434.33 148.26 428.75 135.96 425.16 131.42 427.76 125.27 424.17 130.4 404.46 125.71 403.96 124.25 399.62 131.27 393.18 135.52 393.06 139.33 385.62 133.18 385.5 123.66 379.92 117.36 374.22 114.87 378.06 114 368.27 99.35 369.63 95.55 365.79 92.47 368.52 90.42 365.67 90.28 353.9 92.77 349.69 91.15 345.84 87.05 343.49 83.1 335.56 84.42 325.4 80.61 320.82 72.56 324.41 69.78 321.32 67.58 323.17 60.11 319.58 56.16 322.55 47.81 321.19 48.11 324.78 38.59 316.24 45.03 306.58 45.62 300.76 47.23 291.96 41.23 292.58 22.19 288.12 21.75 292.71 16.19 288.74 20.58 280.82 18.68 278.34 4.33 282.3 1 283.63 1.37 266.76 17.87 251.9 21.16 233.75 20.06 210.64 26.11 211.19 37.1 200.74 36.01 186.99 38.75 174.34 69.54 170.49 105.27 141.88 120.11 124.83 126.16 106.68 135.44 83.11 139.61 72.26 140.06 73.93 140.23 74.19 140.44 74.41 140.77 74.55 141.78 74.77 142.67 75.06 143.56 75.5 144.16 75.98 145.39 77.1 145.94 77.48 146.65 77.75 147.56 77.96 149.86 78.25 150.12 78.2 150.59 77.61 151.14 76.37 151.91 74.96 153.49 72.31 154.15 70.86 155.16 71.37 157.88 68.11 158.53 68.39 159.79 69.08 160.33 68.38 161.17 67.13 162.72 65.09 163.26 64.63 165.85 63.28 171.12 60.6 172.3 60.49 173.07 60.3 175.31 59.73 175.98 59.49 177.71 58.99 178.15 58.9 179.17 61.02 181.87 62.35 182.71 62.7 183.98 63.32 185.78 63.78 186.6 64.08 198 70.53 198.82 70.34 199.74 70.46 201.65 70.03 203.2 69.38 203.99 69.13 204.42 68.92 204.98 68.13 205.22 67.67 205.62 67.9 206.21 67.92 207.31 68.64 208.6 69.15 209.56 69.11 210.06 69.26 210.84 69.32 211.86 68.97 214.57 67.66 215.67 67.37 216.43 66.92 217.03 66.27 217.35 65.32 217.47 64.82 218.15 63.26 219.02 62.19 220.48 60.64 222.4 61.81 224.68 63.54 226.03 62.31 231.24 57.9 234.32 54.22 234.71 54.01 235.08 53.95 235.17 53.83 235.34 53.48 235.49 53.36 235.72 53.35 236.67 53.04 237.15 52.56 237.41 52.39 237.86 52.48 238.36 52.66 239.27 52.83 240.79 52.24 241.68 51.39 241.89 51.04 242.7 50.23 243.69 49.49 246.3 51.18 250.59 47.34 251.48 46.73 252.32 46 252.82 45.4 252.93 45.19 252.79 45.09 251.58 44.66 250.36 44.34 248.65 43.49 246.05 41.69 247.18 40.57 246.86 31.37 262.95 1 265.31 3.52 265.94 4.74 270.98 8.05 271.78 8.99 273.96 10.07 275.18 10.61 276.75 11.37 280.85 13.42 281.51 13.63 282.3 14.06 284.42 15.59 287.1 17.42 287.39 17.67 287.56 17.96 287.82 18.16 288.33 17.6 288.78 17.22 290.21 16.39 291.09 16.1 292.65 17.1 293.05 16.93 295.74 17.81 296.75 18.42 297.68 19.09 299.24 19.96 300.18 20.34 303.56 22.4 304.37 23.15 304.94 23.8 307.36 25.61 311.08 26.43 315.19 27.15 318.22 28.02 320.64 28.98 321.69 28.97 322 29.04 326.73 31.21 327.32 30.08 328.67 27.55 331.2 28.72 332.78 29.78 340.23 33.03 346.18 36.93 351.09 39.59 350.36 43.59 351.59 44.07 354.32 40.64 357.43 42.08 360.97 44.06 361.84 43.96 365.54 39.28 367.28 38.42 369.19 36.65 370.35 35.16 371.12 32.57 373.35 30.55 374.51 30.82 376.47 31.41 380.82 33.65 381.89 34 383.25 34.22 387.27 36.75 387.53 37.92 387.76 40.19 387.43 43.49 388.3 45.32 388.45 46.16 390.7 46.58 390.83 47.48 390.74 48.26 390.44 49.33 390.08 50.88 389.99 51.35 389.55 52.3 388.31 54.63 387.16 57.44 388.97 58.25 390.66 59.23 392.31 59.62 396.44 61.27 398.61 62.47 400.9 63.64 405.41 65.05 405.12 66.16 404.73 67.06 403.67 72.69 402.19 78.24 403.31 81.04 402.59 82.49 407.94 85.12 408.51 86.76 409.84 89.73 410.99 93.27 413.18 93.5 413.51 95.42 415.98 95.85 419.29 97.09 418.36 99.89 421.55 101.41 423.03 104.42 425.83 105.85 424.23 108.85 422.03 108.9 420.37 108.81 419.2 109.02 417.02 109.1 415.45 112.29 415.49 113.63 415.49 115.38 415.6 118.81 415.63 122.09 416.55 122.41 418.52 123.43 419.82 123.97 423.26 125.18 422.28 127.02 422.32 128.49 421.73 129.18 422.01 129.47 421.46 131.59 423.49 133.12 423.61 135.14 427.9 133.7 429.58 133.4 431.09 132.36 434.78 130.46 436.79 129.22 439.69 126.45 443.35 125.09 444.23 124.06 446.22 122.45 447.36 121.22 448.54 121.63 449.76 119.89 452.5 120.13 454.67 116.59 455.55 117.37 459.34 117.77 463.89 118.84 464.69 119.97 467.98 119.53 469.16 118.5 471.51 115.41 476.03 115.17 477.01 113.98 480.59 114.42 481.42 114.63 488.83 116.58 491.98 116.67 491.57 114.47 495.35 110.06 496.26 110.11 497.46 110.56 498.23 110.43 499.31 110.54 500.2 110.51 501.75 109.64 502.47 109.55 502.62 109.23 503.98 109.4 505.37 107.67 507.62 108.62 510.55 108.64 512.5 108.96 512.44 109.73 513.15 109.8 513.11 110.68 514.89 111.89 513.9 114.74 514.54 114.7 515.11 113.72 516.26 113.63 517.27 114.6 517.31 115.52 518.62 116.1 520.47 117.42 521.87 115.54 522.53 115.59 523.61 116.16 524.52 116.47 525.97 116.74 526.3 117.48 526.43 118.12 525.74 119.27 525.5 119.91 525.18 121.07 525.07 122.07 524.49 123.08 527.36 125.39 527.14 127.08 526.39 128.03 524.71 130.62 522.73 131.79 521.3 131.39 519.55 131.42 517.5 131.38 515.58 131.43 514.46 131.56 514.11 132.41 513.89 133.37 514.02 134.01 514.23 134.73 514.76 136.66 515.06 139.79 514.81 142.75 514.51 144.31 514.14 146.14 514.09 146.96 521.79 151.11 526.14 152.98 530.88 154.73 533.7 155.7 538.74 156.44 539.45 153.09 540.44 151.14 540.69 150.92 543.3 146.88 544.19 145.16 544.89 144.38 548.59 146.47 551.41 147.87 552.17 147.76 553.97 148.63 555.05 149.07 556.26 149.04 556.87 149.15 557.22 149.47 558.1 149.67 558.54 149.54 559.57 150.39 561.7 151.29 561.64 153.03 560.2 155.24 560.22 155.5 562.11 156.83 565.91 159.09 567.82 160.16 573.03 160.82 576.01 163.2 578.99 165.24 582.62 167.96 584.26 168.3 585.98 168.88 588.15 169.34 589.44 169.84 591.32 170.23 593.53 171.52 594.01 170.49 595.5 168.13 596.43 166.45 596.88 165.91 599.28 164.92 602.41 162.11 605.08 162.32 606.46 162.71 610.92 164.5 611.41 166.01 611.34 166.16 610.23 166.98 609.48 167.91 610.78 168.83 610.83 169.06 610.35 169.76 609.32 170.91 608.09 172.72 610.32 177.25 610.28 177.55 609.76 178.66 608.1 179.56 607.71 181.18 608.33 181.87 608.6 182.9 610.31 183.73 611.46 184.32 612.14 184.95 611.93 185.63 612.54 186.1 613.26 187.04 613.18 189.39 612.9 190.28 617.49 190.94 618.69 190.98 620.54 190.93 623.34 189.85 624.39 189.2 625.52 189.29 626.76 188.77 627.74 189.59 631.28 188.57 633.59 186.19 634.91 184.26 636.65 185.22 638.2 185.67 642.75 187.22 648.4 189.02 652.66 190.73 655.43 191.81 656.58 192.62 657.89 193.67 658.88 194.25 660.38 193.65 660.28 194.33 658.88 197.83 658 200.66 657.44 202.22 656.4 204.66 656.42 204.71 656.43 204.94 656.4 205.09 656.41 205.47 656.44 205.51 656.61 205.66 656.72 205.84 656.73 205.9 656.69 206.02 656.54 206.26 656.35 206.5 656.27 206.65 656.24 206.79 656.28 206.98 656.38 207.3 656.32 207.48 656.36 207.58 656.45 207.65 656.64 207.73 656.7 207.82 656.72 207.91 656.7 208.01 656.73 208.12 656.8 208.2 656.83 208.43 656.87 208.53 656.95 208.55 657 208.54 657.11 208.47 657.17 208.45 657.52 208.7 657.63 208.86 657.65 209.07 657.56 209.2 657.55 209.27 657.63 209.37 657.94 209.54 658.03 209.63 658.06 209.72 658.02 209.9 657.93 210.11 657.92 210.26 657.96 210.37 658.06 210.43 658.24 210.48 658.54 210.63 658.63 210.75 658.75 210.97 658.88 211.15 659.19 211.31 659.24 211.41 659.28 211.53 659.21 211.74 659.09 211.86 658.9 211.99 658.78 212.22 658.78 212.39 658.8 212.51 659.05 212.93 659.19 213.13 659.6 213.58 659.68 213.72 659.7 214.11 659.55 214.91 659.65 215.24 660.29 215.28 660.93 215.37 661.23 215.31 662.3 215.26 663.93 216.18 664.13 216.18 664.56 215.98 664.7 216.02 666.01 216.56 666.35 216.72 667.38 217.38 667.73 217.54 668.36 217.73 672.44 218.67 672.64 218.66 673.36 218.37 673.59 218.36 674.6 218.74 675.28 219.06 675.62 219.51 676.15 220.51 676.22 220.89 676.07 221.8 676.15 222.58 676.04 223.52 675.15 224.71 675.03 225.77 674.28 227.55 674.3 228.17 674.43 229.17 675.86 229.75 677.54 230.46 679.26 231.09 680.2 231.46 682.85 232.19 684.47 232.7 686.39 233.24 687.09 233.4 688.35 233.36 689.12 233.25 690.24 233.17 694.19 232.84 696.72 232.68 697.66 232.73 700.47 233.76 701.25 233.76 705.2 233.84 707.86 233.72 709.18 233.57 709.75 234.14 710.49 235.03 712.85 238.26 713.57 239.47 713.93 240.71 714.09 241.39 714.24 243.2 714.75 246.14 714.52 248.12 714.65 249.85 715.11 251.61 715.88 253.91 716.21 255.06 716.25 256.38 716.04 257.2 716.95 257.57 719.21 258.03 724.22 259.26 726.51 260.51 727.56 261.54 729.3 262.86 730 263.57 732.58 266.72 732.04 267.04 732.35 267.64 732.6 268.5 732.41 269.19 732.38 270.2 732.27 270.94 731.9 271.81 731.36 272.95 730.89 274.49 728.61 275.17 727.67 275.31 726.24 275.49 725.09 275.31 723.19 277.28 721.28 280.62 723.22 281.2 726.85 281.97 728.77 282.08 728.78 283.13 726.35 282.88 725.23 284.36 722.75 287.12 722.42 288.22 721.93 288.66 720.99 289.29 719.86 290.22 717.51 292.26 715.27 293.82 712.05 296.12 711.64 296.49 710.56 297.79 710.05 298.5 709.64 299.67 708.49 301.33 707.98 302.38 707.37 303.77 714.11 306.07 720.86 306.14 725.86 307.72 732.43 309.26 735.18 309.98 737.8 310.56 740.27 311.16 743.55 311.96 744.92 312.4 746.36 312.84 749.08 313.63 752.14 314.78 751.84 315.4 751.19 316.95 749.97 319.13 749.12 320.51 747.23 323.42 746.58 324.48 746.04 325.68 745.69 326.61 744.07 328.69 742.83 330.53 742.18 331.98 743.97 332.29 747.37 332.04 748.66 331.89 751.21 331.42 751.81 331.22 752.43 331.11 754.53 331.13 756.19 331.28 756.73 331.26 758.2 331.17 763.94 331.54 767.3 331.65 772.87 331.54 775.19 331.3 777.73 330.95 778.3 330.99 782.03 330.61 784.15 330.6 784.91 330.9 785.47 331.22 785.62 331.32 786.03 332.12 786.04 333.57 787.4 333.72 787.95 333.87 788.49 334.26 789.74 335.55 790.74 336.75 791.74 338.15 793.5 340.09 793.79 341.63 794.18 344.59 796.12 345.57 799 346.78 798.83 347.23 798.22 349.11 797.83 349.95 797.1 350.03 796.79 350.03 795.7 349.92 795.26 349.85 794.89 349.76 794.59 349.64 794.31 349.48 794.05 349.28 793.74 348.98 792.81 347.77 788.84 349.26 788.68 349.1 786.21 350.12 786.37 352.26 786.66 353.44 786.33 354.16 785.52 355.81 785.06 356.78 784.08 359.39 783.81 359.9 783.46 361 783.34 361.34 782.98 362 782.5 363.3 782.4 363.83 782.37 364.65 782.42 364.98 782.61 369.33 782.74 374.01 782.68 375.21 782.78 375.67 782.95 375.96 782.87 377.66 782.88 379.07 782.71 380.16 782.68 381.39 782.28 384.97 782.14 386.82 783.86 387.25 784.6 387.51 786.24 387.76 788.04 388.19 788.03 388.35 787.89 388.9 787.68 389.14 787.39 390.37 787.04 391.27 786.45 395.4 786.41 396.62 785.33 399.76 786.04 403.57 786.31 405.11 786.33 407.1 786.28 408 786.09 408.82 785.54 410.14 785.5 410.62 785.16 411.78 784.61 412.81 783.98 413.45 782.16 412.38 779.56 411.16 777.17 413.33 775.61 414.54 775.41 414.77 775.31 415.61 774.87 417.34 774.79 417.85 774.76 418.17 775.04 419.49 775.12 419.67 775.09 420.52 774.95 420.89 773.09 421.24 771.31 421.62 770.23 421.91 766.5 422.59 765.37 422.78 764.37 422.97 763.41 423.22 762.6 423.52 762.18 423.48 760.47 423.07 760.11 423.02 759.76 423 754.82 423.67 753.17 423.95 751.88 424.14 750.84 424.23 750.41 424.22 749.93 424.18 749.82 423.84 748.86 423.73 747.72 423.88 746.42 423.91 745.2 424.06 743.93 424.36 742.95 424.65 739.61 425.02 735.92 423.29 731.48 421.24 730.02 421.29 728.97 421.1 727.58 421.22 726.19 421.03 725.52 421.25 723.26 421.17 723.11 421.63 721.41 423.82 718.42 427.56 717.67 428.64 716.75 429.78 714.74 431.53 712.39 434.03 705.36 438.27 704.43 438.44 700.45 438.59 706.31 444.47 701.26 447.3 693.91 451.6 692.08 454.46 691.41 455.68 691.25 456.79 691.46 458.84 692.25 459.87 693.09 461.61 694.33 463.32 695.06 464.43 696.49 466.66 703.66 469.58 703.54 470.76 702.69 472.86 701.68 475.95 700.41 479.54 702.06 479.79 705.81 480.91 709.65 481.98 703.56 486.81 700.44 489.59 700.09 489.94 698.92 490.95 697.73 491.8 696.74 493.03 694.41 494.27 693.28 493.41 692.65 494.19 692.4 494.19 692.19 494.33 690.63 495.61 688.89 496.92 688.02 498.18 686.2 497.54 684.36 499.83 683.11 501.18 682.85 501.52 682.54 502.08 682 502.65 682.43 503.2 681.61 504.75 679.87 508.27 679.05 509.53 677.34 513.07 675.61 516.3 676.63 517.32 675.14 521.23 674.01 521.23 672.37 521.05 669.52 521.24 666.75 521.73 665.4 521.6 661.14 521.75 657.64 521.92 656.84 523.83 653.9 523.84 653.1 525.14 650.88 528.4 649.19 530.94 651.11 531.76 650.23 533.06 649.67 534.28 648.43 534.61 647.49 535.99 645.08 540.42 644.03 542.07 643.1 543.96 642.39 545.19 641.82 546.12 643.29 547.79 644.13 548.87 645.79 550.73 649.64 553.17 650.94 553.78 650.61 554.38 649.45 556.88 648.54 559.04 648.27 559.96 647.96 562.9 648.09 566.18 647.89 567.64 647.28 569.19 646.79 570.01 645.74 572.31 644.92 574.9 643.65 576.34 641.07 578.81 638.01 581.05 637.74 580.71 637.1 580.91 636.53 581.26 635.15 581.91 634.32 582.42 633.69 582.64 631.64 582.74 627.38 583.22 626.15 583.14 624.79 582.86 624.04 582.63 624.17 583.7 621.23 584.04 619.73 583.86 617.93 586.04 624.97 588.48 625.1 589.19 625.15 590.07 625.39 590.72 624.85 592.18 623.94 593.23 623.15 594.26 622.61 594.84 620.55 596.43 619.64 597.9 618.78 598.81 618.21 599.11 617.42 599.85 616.64 599.26 615.29 598.84 614.29 598.76 613.18 598.36 611.54 598.56 610.85 599.92 608.89 599.77 604.53 599.59 598.86 600.09 597.11 600.48 596.02 600.85 593.05 602 598.64 586.32 Z"/>
</g>
</svg>