<?xml version="1.0"?>
<svg xmlns="http://www.w3.org/2000/svg" version="1.2" baseProfile="tiny" fill="#f9c113" width="800" height="711" viewBox="0 0 800 711" stroke-linecap="round" stroke-linejoin="round">
<g fill="#c0392b" id="id_77">
<path d="M 794.41 205.81 788.55 227.53 784.88 248.42 778.28 249.87 773.14 262.07 764.1 262.9 752.85 274.49 735.73 279.45 734.02 290.42 724.24 284.42 722.28 278.42 714.22 279.45 712.75 265.8 715.68 254.63 712.02 253.18 712.5 243.46 706.88 234.56 702.72 225.25 690.26 234.35 682.68 243.87 673.38 236.84 656.02 235.8 651.38 243.04 634.75 245.73 629.13 254.42 617.88 263.11 599.06 263.11 597.34 280.28 589.03 278.01 588.05 295.18 551.38 305.52 558.96 334.29 547.95 335.74 531.33 347.53 516.17 355.19 516.17 364.3 506.39 363.47 494.16 377.13 546.98 407.77 550.89 431.37 568 440.89 563.11 447.52 553.33 446.69 552.84 454.97 560.67 455.8 551.87 463.25 558.29 479.57 546.24 493.49 539.89 488.93 539.89 471.54 504.68 490.59 493.43 469.88 482.18 469.47 479.22 459.8 468.25 460.56 460.42 465.53 451.38 465.32 451.62 456.63 436.95 457.04 425.7 468.84 418.61 466.57 387.8 464.91 373.62 439.65 363.84 450.83 359.93 468.64 344.28 471.12 345.51 459.11 326.92 460.35 326.92 471.33 322.28 479.61 307.12 486.45 305.9 497.21 319.34 518.96 332.06 521.24 335.73 532.22 343.3 533.67 342.57 540.29 354.31 543.61 341.59 561.42 333.77 564.32 321.05 569.92 314.7 571.16 315.92 556.66 304.43 564.53 285.6 564.94 296.12 573.85 291.23 580.9 302.47 586.49 302.96 601.41 296.36 599.13 279 598.92 278.76 616.53 286.82 630.21 263.84 634.15 256.75 649.48 246.73 656.53 236.7 657.15 237.68 651.76 224.97 645.13 225.7 640.57 212.25 636.84 200.51 651.35 189.27 641.81 179.73 637.05 170.2 630.83 155.04 648.86 140.12 673.11 161.88 673.73 184.38 682.02 179.24 699.22 170.2 705.03 164.08 710 155.28 705.03 151.86 697.77 138.41 699.84 136.45 692.38 116.41 687.41 110.54 679.12 59.19 655.7 54.3 656.32 36.94 647.82 33.52 642.85 50.15 620.47 45.01 617.15 49.41 609.49 41.83 604.72 40.61 590.63 42.57 581.93 36.94 579.45 44.28 569.09 38.16 564.12 22.76 581.31 21.54 564.53 1 545.06 2.22 525.38 9.31 517.92 20.32 514.82 31.32 525.17 51.37 517.51 65.55 531.39 65.3 512.95 81.69 513.78 92.2 504.46 114.45 504.05 74.84 454.97 60.41 446.69 63.1 437.58 69.22 435.72 69.46 427.43 58.95 422.47 59.68 415.22 11.67 388.17 14.88 381.75 33.67 365.3 66.56 359.43 106.5 351.21 122.94 347.68 146.43 338.28 145.26 314.78 152.31 280.71 162.88 264.26 189.89 264.26 219.26 265.44 249.8 259.57 256.84 238.42 265.71 232.66 265.44 223.92 268.37 171.23 272.69 149.54 314.36 150.68 329.24 141.07 361.17 130 378.54 122.45 424.75 112.33 437.31 108.9 445.75 111.1 459.87 116.45 474.43 117 493.42 117.69 500.57 117.32 514.08 113.88 530.53 112.71 546.97 98.61 571.64 84.51 589.26 63.37 608.05 58.67 626.84 44.57 642.11 18.72 656.21 9.32 675 9.32 705.54 1.1 705.96 1 717.3 48.38 723.73 102.55 732.91 131.01 769.63 174.17 799 197.12 794.41 205.81 Z"/>
</g>
</svg>