<?xml version="1.0"?>
<svg xmlns="http://www.w3.org/2000/svg" version="1.2" baseProfile="tiny" fill="#f9c113" width="800" height="886" viewBox="0 0 800 886" stroke-linecap="round" stroke-linejoin="round">
<g fill="#c0392b" id="id_78">
<path d="M 579.57 112.25 612.74 141.3 619.72 163.45 595.86 172.32 574.92 188.56 576.08 214.66 516.74 273.26 519.03 357.04 501.53 445.92 466.54 457.03 470.91 468.14 554.03 468.14 575.9 449.62 680.89 449.62 694.01 468.14 750.88 482.96 737.76 553.34 799 571.86 790.25 594.09 742.13 590.39 720.26 620.03 702.76 608.91 676.51 642.26 637.14 634.85 580.27 716.37 523.41 716.37 571.52 731.19 560.59 744.16 527.78 742.31 505.91 747.87 484.03 768.25 479.66 771.95 455.6 777.51 424.98 783.07 418.42 788.63 409.67 803.46 440.29 809.02 438.1 829.4 409.67 849.79 385.61 844.23 359.36 836.81 333.11 840.52 304.68 847.93 263.12 834.96 245.62 857.2 252.18 885 215 875.73 187.14 870.44 164.45 869.45 154.56 866.99 152.23 852.2 132.45 852.2 132.45 829.52 120.82 814.73 126.63 799.95 121.98 762.48 112.67 763.47 105.69 804.87 83.58 803.89 68.45 773.33 54.49 770.37 48.67 632.38 62.63 611.68 39.36 608.72 35 594.93 41.98 577.19 53.62 564.38 65.25 575.22 66.42 590 93.18 583.1 94.34 568.32 105.98 566.35 104.82 557.48 107.14 547.62 111.71 528.85 146.12 520.53 109.47 529.4 100.74 504.27 127.51 499.83 136.82 484.56 111.8 483.08 118.78 460.92 83.87 471.75 118.78 428.4 115.29 412.64 72.23 413.13 62.34 368.31 39.65 380.13 14.05 331.37 41.4 322.51 1 183.55 58.27 167.39 60.6 126.53 80.38 131.94 84.45 91.08 129.25 91.08 156.02 70.41 169.4 49.73 208.96 43.33 220.01 26.1 261.32 28.56 283.43 45.3 301.47 22.66 331.14 1 341.03 23.15 354.41 44.32 353.25 67.45 361.98 70.9 354.99 97.48 358.49 129.97 377.69 127.51 382.34 141.79 405.61 156.07 409.69 129.97 450.41 118.16 477.18 90.59 498.7 88.62 510.92 59.58 525.87 56.3 576.66 83.21 579.57 112.25 Z"/>
</g>
</svg>