<?xml version="1.0"?>
<svg xmlns="http://www.w3.org/2000/svg" version="1.2" baseProfile="tiny" fill="#f9c113" width="800" height="655" viewBox="0 0 800 655" stroke-linecap="round" stroke-linejoin="round">
<g fill="#c0392b" id="id_72">
<path d="M 160.67 480.19 157.17 469.66 160.13 462.29 156.94 456.04 148.3 450.44 144.26 445.38 136.79 444.72 137.8 438.07 153.98 426.16 154.76 419.98 160.36 412.02 165.81 411.55 165.73 407.15 174.06 407.21 175.38 404.32 177.95 400.63 165.11 397.67 163.63 395.17 146.75 385.31 131.73 380.64 125.35 380.18 118.42 383.4 118.5 377.15 115.23 374.12 105.04 368.2 109.47 362.02 112.9 353.27 109.55 346.7 105.89 337.36 89.79 332.23 74.85 327.43 73.37 314.28 67.69 312.37 59.98 310.6 52.9 313.82 43.33 314.02 32.59 309.61 33.45 306.26 30.18 300.67 23.33 300.01 17.65 304.81 15.63 309.22 11.43 311.45 5.2 309.15 1 305.54 3.72 300.41 7.93 298.31 14.23 296.86 19.44 293.11 18.43 287.33 21.39 282.4 28.55 274.9 31.5 275.63 36.48 272.54 43.8 271.68 49.01 274.77 54.93 274.97 55.55 268.66 52.82 266.23 48.54 267.74 44.26 263.93 37.49 264.91 38.74 262.88 50.1 253.74 59.83 252.1 61.7 261.04 62.47 265.77 68.08 269.45 76.17 275.89 86.13 277.73 89.24 274.18 93.75 276.68 97.33 274.18 105.43 276.42 107.61 271.29 121.46 268.66 122.23 265.5 134.68 269.19 141.53 271.95 150.71 274.44 158.03 268 166.74 263.8 169.86 268.79 180.91 268.13 194.6 270.37 199.89 268.27 200.83 264.98 197.56 255.78 200.05 249.73 201.14 241.85 196.31 240.4 198.18 234.49 192.11 230.54 192.27 223.32 196.78 217.93 200.83 212.41 208.76 211.09 210.79 206.76 229.62 210.57 234.91 207.02 236.62 203.08 239.42 200.85 245.03 203.74 244.56 196.9 252.81 198.35 255.45 195.46 253.9 190.86 250.63 177.98 260.28 178.77 264.48 186.52 265.26 190.6 269.15 192.57 274.28 195.59 277.4 189.15 291.09 186.79 299.65 194.41 308.37 188.36 314.9 187.71 318.64 184.16 325.17 176.15 324.24 173.39 321.75 169.97 326.11 168.39 331.87 166.82 331.55 162.75 333.73 154.87 344.63 141.86 358.01 129.25 364.55 127.94 363.15 121.64 371.08 113.36 377 103.12 370.93 94.72 375.44 88.94 381.51 87.76 383.38 83.69 376.38 83.95 364.24 80.15 356.46 74.24 357.08 70.04 356.61 63.08 359.1 55.34 357.23 32.1 360.35 25.54 368.28 27.9 383.69 26.85 388.87 21.5 389.41 21.61 392.6 21.76 394.6 21.59 396.63 21.58 396.93 20.85 397.23 20.07 397.59 19.21 398.51 19.15 399.51 18.99 400.03 18.09 400.88 18.43 401.71 17.36 403.15 15.9 403.52 15.41 404.56 15.8 405 15.16 405.63 14.51 407.79 15.04 408.39 13.8 409.65 11.43 410.89 11.82 411.83 11.97 412.25 12.14 413.8 12.66 414.21 12.74 414.93 11.66 416.32 11.18 416.57 10.93 417.69 10.8 418.46 10.87 419.1 10.85 420.72 11.17 422.61 11.7 421.79 14.33 423.68 15.86 424.65 16.74 426.31 18.22 426.95 18.73 428.21 19.49 428.43 19.7 428.66 20.07 428.73 20.27 428.69 20.4 427.95 22.27 427.86 22.65 427.7 23.88 427.45 24.77 426.96 26.97 426.85 27.68 426.41 29.09 425.71 30.6 425.53 31.42 425.18 32.76 424.76 34.47 426.8 35.06 428.68 35.63 428.45 36.85 430.35 37.31 432.06 37.67 432.9 37.84 433.44 36.89 433.53 36.59 435.15 36.86 435.81 37.05 438.8 37.77 439.84 38.06 440.44 38.17 443.42 38.46 444.24 38.43 446 38.65 448.21 38.69 449.23 38.97 449.56 39.01 449.57 38.67 449.7 38.2 450.16 37 450.47 36.48 451.1 34.51 451.47 33.67 451.68 33.45 452.44 32.05 453.19 30.58 453.32 30.53 454.1 30.7 455.97 30.94 457.67 31.02 458.28 31.08 459.01 31.2 459.98 31.28 461.06 31.27 461.96 31.35 463.23 31.56 465.02 31.78 466.36 31.85 467.16 31.95 467.4 32.57 467.61 32.64 472.03 33.16 473.64 33.37 475.14 33.67 477.1 33.56 480.35 33.57 482.53 33.46 483.32 33.16 485.01 33.4 486.62 33.72 488.24 34.15 490.1 34.72 490.55 34.81 491.7 32.41 492.69 31.2 493.38 30.68 494.5 28.14 494.74 27.67 497.43 28.04 499.36 28.22 504.91 29.14 507.4 29.53 510.3 29.75 512.62 30.09 513.07 28.83 514.93 29.05 515.4 27.74 517.07 28.03 518.6 28.37 521.17 28.87 524.38 29.46 525.98 29.87 528.47 30.45 529.48 30.72 530.68 31.14 531.78 31.39 532.7 31.55 535.41 32.3 537.86 32.72 538.61 32.76 539.54 32.88 540.35 33.18 541.94 34.09 545.92 34.93 549.1 35.58 552.51 36.01 557.68 36.89 560.48 37.28 563.46 35.45 566.92 33.47 567.38 33.12 567.91 30.9 568.43 29.02 568.68 27.94 571.5 28.11 572.61 28.25 573.71 28.24 575.19 28.5 580.21 29.93 583.53 31 586.69 32.25 587.53 30.21 588.17 27.12 588.71 24.63 589.73 22.04 590.88 19.59 592.17 17.11 592.99 15.33 593.41 13.91 593.79 11.77 594.73 10.28 595.13 9.35 596.05 6.13 596.75 4.4 597.18 3.67 597.61 2.79 598.35 1.54 598.62 1 599.02 1.68 599.33 2.27 599.98 3.1 599.53 4.66 600.62 4.75 601.18 4.87 602.6 5.58 603.27 5.94 603.48 5.98 604.09 5.99 604.35 6.15 606.3 6.52 606.87 6.71 607.77 6.89 608.55 7.01 609.03 7 609.42 7.12 609.88 7.2 610.71 7.31 611.52 7.51 612.07 7.69 613.12 8.08 613.58 8.2 614.31 8.29 614.83 8.19 615.24 8.13 615.8 8.15 616.79 8.06 617.73 8.08 618.42 7.94 618.45 7.47 618.96 6.97 619.39 6.81 620.01 6.98 620.29 6.88 620.48 7 620.65 7.51 620.39 7.79 620.4 8.12 621.07 8.62 621.42 9.02 621.78 9.19 622.08 9.2 622.32 9.14 622.56 9.02 622.6 8.86 622.38 8.51 622.44 8.25 622.63 8.11 622.85 8.15 623.01 7.99 623 7.69 623.05 7.38 623.16 7.25 623.24 7.11 623.26 6.98 623.18 5.98 623.39 5.59 623.77 5.29 624.16 5.21 624.62 5.27 625.17 5.5 626.02 6.1 626.99 6.69 628.03 7.26 628.52 7.47 628.76 7.74 629.01 8.54 629.25 8.99 629.34 9.44 629.52 9.72 629.78 9.84 630.15 9.86 630.44 10.03 630.78 10.52 631.38 11.05 631.88 11.29 632.5 11.85 633.04 12.11 633.47 12.14 633.68 11.97 633.77 11.74 634.01 11.57 634.22 11.53 634.55 11.78 635.2 11.85 635.6 12.13 635.82 12.25 635.8 12.48 635.67 13 635.8 13.1 637 13.45 637.35 13.5 637.52 13.35 637.83 12.98 638.07 12.53 638.62 12.25 639.05 12.2 639.48 12.28 639.83 12.58 640.05 13.18 640.08 13.68 640 13.9 639.35 14.33 639.23 14.63 639.18 15.18 639.32 15.58 639.68 15.83 640.7 16.1 640.88 15.85 641.1 15.73 641.43 15.7 642.55 15.53 643.13 15.6 643.85 15.98 644.13 16.05 644.53 15.85 644.65 15.55 644.55 15.35 644.63 14.63 644.83 14.08 645.2 13.7 645.2 13.43 645.23 13.28 645.35 12.98 645.35 12.75 645.55 12.45 646.08 12.18 647.46 12.2 647.98 12.53 648.63 12.68 649.46 12.73 650.68 12.53 650.88 12.38 651.23 12.28 651.43 12.35 651.88 12.18 652.28 12.13 653.01 12.25 653.73 12.15 654.08 11.55 654.11 11.28 653.96 11.28 653.73 10.78 653.68 10.38 653.43 9.85 653.46 9.6 653.63 9.3 654.56 9.1 656.73 9.2 659.06 9.75 660.11 10.15 661.01 10.58 661.56 11.15 661.89 11.33 663.14 12.75 663.64 13.13 663.96 13.43 664.34 14.18 665.14 14.5 665.66 14.85 666.34 15.13 666.82 15.7 667.69 17.1 667.84 17.83 667.99 17.88 668.14 18.15 668.14 18.95 668.32 19.35 668.52 20.18 668.97 20.48 668.89 21.45 669.12 21.68 669.84 21.88 670.52 21.75 671.54 21.4 672.02 21.56 672.27 21.88 672.69 22.13 673.44 22.83 673.79 22.83 673.92 22.88 673.94 23.18 674.32 23.55 674.7 23.55 674.92 23.76 675 24.1 675.25 24.03 675.47 24.01 675.55 23.63 675.9 23.78 676.07 23.58 676.05 23.41 675.77 23.2 675.75 22.48 676.12 22.08 676.7 21.95 676.99 22.3 677.16 22.68 677.4 22.42 680.16 19.66 692.3 11.53 694.46 11.93 696.7 12.75 697.84 13.37 699.94 14.38 700.98 14.79 702.11 15.6 696.83 22.73 694.89 25.45 693.64 27.49 692.66 29.67 691.01 33.14 690.45 34.56 689.76 35.81 689.07 36.68 689.74 36.67 690.51 37.05 691.15 37.15 691.6 36.92 691.98 36.22 692.6 35.99 693.24 35.99 693.7 36.15 694.31 36.32 694.99 36.89 695.84 37.04 696.03 37.14 696.12 37.51 696.37 37.86 696.64 37.96 696.78 38.55 696.49 39.01 696.32 39.37 696.33 39.71 696.49 40.03 696.92 40.27 697.46 40.41 697.99 40.41 698.64 40.18 699.12 39.92 699.96 40.27 702.33 41.3 707.4 43.46 711.21 45.21 715.68 46.96 720.24 49.62 726.97 52.73 727.75 53.01 728.34 52.12 729.03 51.23 730.18 49.84 731.17 48.78 731.63 48.73 734.32 45.42 735.73 43.57 737.6 44.23 738.48 44.8 739.65 45.49 742.78 47.3 744.45 48.25 745.42 49.06 747.01 50.45 747.9 52.03 748.45 52.36 747.8 53.79 749.28 54.37 751.05 55.02 753.06 55.55 753.32 55.09 754.14 55.42 755.02 55.47 756.72 55.92 755.89 57.45 756.64 57.93 758.82 56.62 760.57 55.44 762.61 54.34 764.37 53.19 766.53 51.7 767.28 51.34 771.31 48.78 775.18 46.25 775.83 45.77 777.93 46.13 778.6 46.21 779.1 45.51 780.88 45.19 783.85 45.96 784.51 45.08 785.99 45.71 786.41 45.31 787.38 45.43 789.99 46.33 787.03 49.56 785.26 51.43 788.89 54.35 789.73 55.16 791.25 56.48 793.44 58.48 794.24 61.57 794.41 62.12 795.18 63.66 796.18 65.39 796.27 65.69 796.34 66.43 796.32 67.1 796.19 68.5 796.03 69.56 795.85 72.03 795.86 74.44 795.96 76.05 796.06 76.51 796.22 76.87 796.57 77.21 798.06 78.31 798.37 78.62 799 79.78 794.57 91.3 784.7 116.32 778.27 135.6 762.5 153.7 724.52 184.08 691.8 188.17 688.88 201.6 690.04 216.2 678.36 227.3 671.93 226.71 673.1 251.25 669.6 270.52 652.07 286.29 651.48 312.57 635.12 313.74 618.18 313.74 607.66 310.24 597.73 339.44 582.83 343.3 582.03 343.53 582 343.52 581.95 343.53 580.57 343.21 577.52 342.55 576.92 342.36 557.18 337.77 557.13 337.77 556.83 337.69 531.7 329.51 524.5 337.34 518.44 344.11 517.17 358.61 519.42 364.95 519.27 364.92 521.19 370.4 515.34 379.74 511.84 392.01 493.73 394.35 489.05 421.21 476.78 430.56 472.69 453.34 481.46 469.69 500.74 490.13 497.82 536.86 480.87 553.22 460.42 564.31 448.74 566.07 420.69 576.58 403.16 578.33 396.74 583.01 390.31 590.6 372.78 586.51 357.59 597.02 342.4 605.78 319.89 631.63 319.85 631.61 319.87 631.65 314.93 637.32 298.75 646.31 293.5 645.83 274.83 641.35 271.4 642.93 263.62 638.71 259.27 641.61 251.17 640.82 247.13 650.31 240.9 649.26 243.08 644.25 238.41 640.29 229.7 644.77 234.36 649.78 233.12 654 220.36 648.46 218.49 641.88 210.4 640.03 206.66 637.66 202.62 626.59 198.26 623.95 191.72 624.74 194.52 612.36 192.03 604.98 188.61 599.18 180.83 602.08 179.89 596.55 171.18 597.07 167.76 593.65 161.22 592.33 159.04 585.74 161.84 578.37 164.64 566.51 160.29 566.25 158.11 561.24 157.17 554.13 159.97 550.97 159.97 550.7 143.79 541.75 146.9 535.43 143.79 529.37 147.52 524.63 140.68 523.31 138.5 519.1 112.97 525.95 113.29 508.83 139.51 511.59 129.94 499.81 131.96 497.7 132.74 488.49 138.73 487.5 144.26 483.88 150.17 482.17 161.45 485.39 160.67 480.19 Z"/>
</g>
</svg>