<?xml version="1.0"?>
<svg xmlns="http://www.w3.org/2000/svg" version="1.2" baseProfile="tiny" fill="#f9c113" width="800" height="1115" viewBox="0 0 800 1115" stroke-linecap="round" stroke-linejoin="round">
<g fill="#c0392b" id="id_88">
<path d="M 474.19 356.62 492.6 341.05 504.78 332.43 504.12 319.74 506.19 314.4 508.55 326.13 511.86 332.11 513.65 339.77 515.72 341.37 521.11 342.17 528.18 344.96 535.55 346.16 536.21 356.54 540.17 357.49 551.31 363.08 550.93 355.1 553.01 348.55 560.18 354.94 562.82 346.32 565 338.26 564.05 312.72 568.2 314.4 578.59 330.04 586.52 330.44 594.63 329.64 613.32 330.12 650.79 329.64 659.76 327.8 669.01 331.08 677.13 332.03 679.58 335.94 684.87 337.86 694.5 337.94 698.08 334.35 702.99 317.91 706.2 307.06 709.5 307.94 720.83 309.53 729.61 310.97 738.01 311.92 742.44 313.92 744.05 308.41 748.2 303.95 750 301.33 766.51 305.16 769.91 310.67 787.47 314.5 799 319.59 793.89 324.8 792.76 327.77 794.21 336.33 796.21 342.75 793.54 345.34 790.55 357.8 790.55 375.25 783.07 392.69 774.09 411.64 768.61 430.58 774.09 450.02 771.85 463.96 769.37 478.09 769.94 495.33 770.1 503.85 767.61 521.79 769.11 534.75 767.16 549.84 752.98 564.03 744.26 572.55 738.69 574.63 734.7 582.61 723.23 587.83 714.76 593.07 702.79 592.59 696.47 598.91 696.46 598.9 691.82 603.54 689.33 618 697.3 624.98 699.58 628.08 703.48 632.12 706.78 635.94 705.78 650.89 697.3 666.85 691.32 690.77 704.78 718.69 710.77 736.13 717.69 742.23 720.36 744.56 720.36 744.56 727.16 750.6 722.73 766.04 707.28 761.55 693.81 759.06 692.32 766.54 692.82 780.99 705.78 795.45 697.8 810.4 677.36 813.39 671.87 829.34 663.9 842.3 641.96 878.69 621.51 894.64 600.57 890.65 579.13 881.18 575.66 881.64 572.87 881.92 567.66 882.68 549.21 911.59 533.75 930.03 519.66 947.82 518.3 949.97 485.89 979.88 462.45 997.32 446.49 1020.25 443.5 1042.68 436.52 1075.58 405.11 1109.98 402.22 1114 399.8 1112.04 369.3 1109.57 355.83 1090.34 348.14 1087.45 340.44 1073.03 337.56 1060.53 324.09 1046.11 290.43 1028.8 278.11 1027.11 262.39 1024.82 232.73 997.08 200.99 977.85 190.22 968.95 187.94 967.96 163.48 955.74 155.87 947.38 153.86 945.16 144.24 931.7 135.59 909.59 132.7 889.4 131.74 865.36 122.12 855.75 112.5 837.48 110.15 831.67 101.92 811.52 95.68 802.61 71.15 798.06 46.14 781.57 14.99 770.25 1 763.37 1.92 750.92 12.53 739.35 27.91 728.81 50.97 723.98 70.21 711.48 71.79 704.92 75 691.34 88.46 677.88 95.19 661.53 103.85 653.84 104.7 640.99 102.96 635.43 99.95 625.55 99.05 618.38 105.63 605.1 108.95 598.51 111.44 593.83 116.35 584.62 129.4 579.99 137.51 576.93 150.01 566.35 154.82 551.93 155.78 534.62 160.59 533.66 159.28 509.31 158.97 505.78 160.9 494.24 162.84 476.91 165.71 451.87 166.67 441.36 150.32 428.87 143.58 413.48 136.85 407.71 133.38 406.33 120.2 400.98 113.02 395.1 113.85 386.8 114.26 383.83 106.14 359.48 106.81 340.54 117.64 333.1 112.9 299.28 121.84 290.03 134.04 276.93 145.83 265.21 171.09 239.08 198.15 207.29 231.98 177.53 242.13 154.54 238.75 136.27 221.84 133.57 215.75 124.1 204.24 114.63 179.21 99.07 180.56 87.22 182.59 76.08 204.24 73.37 217.78 62.55 227.92 49.7 231.45 27.91 257.02 26.02 280.7 15.2 284.76 1 295.59 3.03 315.21 5.06 334.87 7.23 335.51 8.11 345.56 14.26 345.45 17.73 339.41 28.39 339.6 32.76 344.32 37.62 348.75 39.92 358.38 38.81 364.7 38.73 380.37 43.26 389.15 43.26 405.29 49.79 411.62 52.57 414.82 55.68 435.21 55.92 446.92 58.23 451.26 61.17 451.64 66.02 447.77 77.65 446.92 81.23 448.62 87.68 450.88 94.04 451.35 96.83 459.85 110.45 463.15 117.77 467.87 121.83 487.5 125.34 491.18 126.13 505.81 125.58 513.93 125.97 522.62 128.52 534.6 135.21 540.64 139.12 546.68 142.94 553.01 145.89 558.01 148.04 569.34 150.9 574.53 152.26 580.19 152.97 585.95 156.48 592.46 164.37 597.37 172.57 601.43 178.39 598.24 176.18 591.45 181.22 583.09 184.23 581.02 189.11 572.99 194.69 571.65 196.26 571.04 206.56 569.71 213.2 560.87 213.63 552.51 216.05 551.95 218.76 542.86 224.54 542.74 232.85 542.81 244.77 542.53 249.39 541.3 252.5 539.7 253.94 532.71 255.37 516.86 260.55 505.91 262.31 497.13 261.59 493.36 260.63 485.8 255.61 483.73 250.51 480.05 242.93 475.8 235.68 467.3 230.02 464 227.15 462.96 231.05 462.49 241.58 461.64 252.02 464.47 260.39 464.76 265.18 463.06 270.92 462.68 273 459.66 275.55 458.43 280.25 456.36 284 455.79 287.67 453.71 290.7 451.35 292.62 443.71 293.1 443.99 298.6 443.33 303.79 442.86 311.13 441.82 317.83 443.14 323.65 442.67 332.59 437.1 338.42 435.12 344.64 433.7 350.39 433.8 364.68 435.68 364.92 437.86 362.76 440.69 361.64 453.33 356.14 474.19 356.62 Z"/>
</g>
</svg>