<?xml version="1.0"?>
<svg xmlns="http://www.w3.org/2000/svg" version="1.2" baseProfile="tiny" fill="#f9c113" width="800" height="649" viewBox="0 0 800 649" stroke-linecap="round" stroke-linejoin="round">
<g fill="#c0392b" id="id_83">
<path d="M 219.31 215.96 228.78 204.42 240.83 190.41 235.27 189.42 226.73 183.43 226.73 160.57 242.58 160.17 255.97 142.7 260.41 134.24 272.46 127.61 268.36 123.75 271.7 118.85 275.67 110.24 286.49 108.32 291.98 101.34 296.54 103.96 306.6 91.69 322.44 102.82 348.64 92.29 368.28 91.1 386.93 77.15 396.34 67.81 382.84 57.08 377.93 52.62 383.25 49.81 396.58 49.95 409.62 61.43 425.99 71.52 435.87 78.29 454.23 60.04 461.36 51.98 459.14 43.58 458.2 30.67 463.29 21.97 465.86 15.74 469.95 15.89 473.17 19.1 477.03 18.51 482.65 6.31 488.74 8.56 489.36 13.31 489.64 14.26 492.16 13.63 500.14 13.6 505.48 13.16 509.36 12.68 518.37 11.24 523.27 10.74 530.82 10.64 533.74 10.03 541.01 7.3 545.91 5.23 549.76 3.68 555.54 2.26 560.45 1 562.5 4.39 554.05 13.81 560.94 25.08 571.1 39.86 575.29 45.93 587.13 76.77 592.69 76.32 597.23 75.67 597.85 74.41 597.66 71.89 601.58 71.94 603.78 74.12 604.87 76.75 607.35 78.11 608.31 78.69 611.08 78.87 613.41 78.72 617.6 78.48 626.57 77.56 630.46 76.38 633.69 75.22 635.43 74.41 638.56 71.73 639.34 70.34 640.08 68.65 639.96 66.68 639.62 63.11 645.46 62.9 650.39 62.9 652.63 62.17 657.66 59.78 658.5 58.07 658.69 55.86 659.03 54.18 659.28 53.6 661.76 52.66 667.29 51.63 668.22 51.63 670.91 52.05 673.65 52.71 677.06 54.68 678.4 56.91 676.32 64.21 684.79 69.91 692.53 74.41 693.58 75.3 689.79 81.87 690.42 87.8 692.68 90.69 690.26 100.28 687.22 104.46 686.91 105.17 689.92 106.64 694.39 106.91 700.2 105.12 708.71 104.33 711 104.99 712.34 106.25 711.84 109.51 711.38 114.34 704.73 122.33 704.39 124.04 702.12 130.08 701.72 137.39 703.52 141.12 705.66 147.67 707.12 149.32 708.64 143.25 713.64 143.54 713.8 148.67 714.11 152.82 725.41 157.66 731.56 162.1 732.18 169.12 729.54 169.46 727.03 170.85 717.12 173.8 711.35 177.14 705.01 179.21 705.29 193.41 716.44 202.51 722.87 204.72 735.97 211.4 740.88 212.69 752.62 228.57 755.76 231.34 768.64 240.12 776.41 249.93 780.04 252.77 785.75 255.27 799 256.83 795.08 273.28 780.95 277.99 761.31 291.35 740.89 303.92 727.54 322.77 727.54 337.7 733.83 349.48 723.62 361.26 721.26 372.26 707.13 373.05 701.63 377.76 695.35 380.9 696.13 389.54 700.84 406.04 701.63 421.75 697.7 439.03 674.93 451.6 648.22 477.53 636.44 495.59 641.16 511.31 634.09 530.16 628.59 540.37 624.66 551.37 622.31 562.37 603.39 568.42 600.07 562.77 594.78 550.55 594.56 550.94 594.23 550.22 581.75 542.68 570.55 532.37 569.69 531.73 557.13 530.76 549.32 530.19 539.15 530.19 539.13 530.16 539.06 530.16 535.92 521.52 505.29 521.52 475.45 519.95 471.52 516.02 461.31 518.38 446.39 512.88 434.61 503.45 420.48 496.38 399.27 487.74 378.07 475.95 363.15 476.74 353.57 480.27 348.24 482.29 335.31 476.06 330.16 473.6 327.81 461.03 310.53 454.75 304.24 475.17 301.1 497.95 324.66 516.02 296.39 509.73 285.4 512.09 277.54 519.16 279.18 529.38 279.11 529.35 279.11 529.37 261.91 522.33 256.93 523.54 248.96 525.36 249.01 525.27 241.42 527.02 239.06 546.66 245.34 552.15 253.2 560.8 275.97 571.79 281.96 572.25 286.23 572.54 295.19 573.49 299.26 570.77 301.59 570.9 304.24 571.01 314.45 582.01 329.38 586.72 334.87 585.93 349.79 595.36 357.65 601.64 347.44 604.79 349.01 613.43 351.37 626.78 355.29 636.21 343.41 640.41 343.22 640.54 329.38 648 319.75 640.13 320 634.21 319.95 633.85 303.46 625.21 292.17 625.96 291.8 626.01 274.43 630.76 263.98 637.01 262.85 635.78 253.98 628.35 246.92 618.14 244.56 605.57 235.92 595.36 224.93 593 221.5 594.34 178.44 565.47 172.95 571.73 161.84 564.48 156.46 568.85 144.88 562.19 133.6 574.11 103.25 552.36 103.66 542.93 74.49 526.85 74.08 521.78 70.86 519.75 70.98 517.76 80.57 506.25 80.63 503.57 67.24 494.44 61.45 500.84 47.77 492.15 39.53 495.28 33.04 489.92 20.7 493.89 40.4 470.52 35.96 467.59 45.14 459.11 44.44 454.05 70.1 454.15 73.2 448.34 72.97 444.28 51.69 430.74 41.46 424.14 36.02 420.02 54.14 396.02 68.76 404.55 82.21 390.17 88.99 394.63 99.75 394.63 102.44 392.85 110.04 396.81 104.42 400.98 97.88 410.7 104.66 414.47 110.15 406.53 119.86 413.38 141.96 385.51 140.79 378.77 146.29 378.87 153.54 376.88 178.21 374.9 179.49 373.02 176.1 371.23 167.92 366.77 158.68 357.05 142.31 348.03 130.15 339.61 129.33 337.62 125 340.99 84.31 350.91 67.59 339.9 73.09 335.05 73.55 332.37 71.1 330.39 80.22 326.62 66.54 318.4 71.22 314.33 79.52 315.82 87.94 303.13 94.37 298.87 97.88 293.92 94.95 287.87 108.98 271.43 87.94 279.35 79.52 260.43 75.19 254.49 68.64 251.32 58.12 258.25 54.84 257.36 24.33 234.08 31.58 225.37 1 203.25 9.18 192.99 17.08 183.58 19.65 198.53 43.62 199.67 62.21 209.67 78.58 208.63 99.92 224.03 106.41 229.23 113.84 228.29 121.15 225.76 126.35 230.67 133.07 234.43 135.29 236.11 138.04 234.18 148.8 222.15 164.94 202.69 167.92 199.87 203.06 190.61 211.94 201.7 210.72 212.69 206.68 216.06 191.42 216.5 191.54 218.93 202 226.36 219.31 215.96 Z"/>
</g>
</svg>