<?xml version="1.0"?>
<svg xmlns="http://www.w3.org/2000/svg" version="1.2" baseProfile="tiny" fill="#f9c113" width="800" height="717" viewBox="0 0 800 717" stroke-linecap="round" stroke-linejoin="round">
<g fill="#c0392b" id="id_85">
<path d="M 364.97 182.9 343.98 175.78 330.41 172.31 328.91 168.47 328.58 154.78 322.99 150.67 332.57 137.8 323.52 131.23 317.82 129.95 309.64 123.29 324.82 106.04 329.98 109.78 332.03 106.77 336.66 106.13 337.52 102.93 336.34 98.01 336.77 92.9 350.44 75.92 341.5 71.36 362.6 49.01 352.16 43.72 371.86 19.19 371.65 17.09 364 14.63 368.9 7.62 377.76 12.4 387.93 18.69 391.75 12.94 395.68 11.12 401.17 10.35 404.94 1 406.39 7.75 411.62 12.85 418.08 23.7 418.94 44.73 422.17 50.52 415.98 50.25 417.43 57.86 422.7 72.14 423.03 75.1 431.21 76.11 448.44 87.42 458.66 105.76 477.07 116.99 478.15 125.2 482.78 139.26 487.52 164.91 489.45 179.71 509.91 192.03 510.23 183.81 515.72 179.98 520.78 173.86 534.35 169.48 521.86 159.89 505.93 146.84 494.08 137.71 486.55 132.78 499.9 114.16 504.09 97 509.69 81.13 521.75 70.36 540.27 68.17 548.88 72.55 554.16 78.3 559.54 73.28 564.92 80.4 570.63 94.9 572.78 98.19 574.4 105.31 577.09 109.23 576.55 114.98 571.6 123.01 576.66 127.39 580.64 133.87 580.32 144.1 584.62 151.4 590.55 140.54 590.65 134.42 604 118.17 605.51 124.29 616.28 126.66 624.67 118.36 628.01 121.82 624.13 129.86 623.6 138.99 625.64 153.5 623.92 155.78 628.23 159.8 633.23 163.59 642.65 169.66 662.25 182.13 662.46 185.87 659.61 191.21 635.98 191.12 636.62 195.78 628.17 203.59 632.26 206.28 614.12 227.79 625.48 224.14 631.46 229.07 639.05 226.2 651.64 234.19 656.97 228.3 669.3 236.7 669.24 239.17 660.42 249.77 660.31 251.59 663.27 253.47 663.65 258.13 690.51 272.93 690.13 281.62 718.07 301.63 728.46 290.66 739.11 296.79 744.07 292.77 754.29 299.44 759.35 293.68 799 320.26 785.52 325.53 774.68 339.99 763.83 345.78 758.05 362.41 768.17 379.76 755.88 384.1 740.69 376.15 721.89 363.13 711.05 362.41 702.15 360.12 696.83 360.44 686.34 364.03 677.83 366.03 668.47 370.4 659.6 379.89 656.85 384.14 638.86 391.38 630.86 395.63 625.74 405.13 616.37 407.25 615.87 412 615 418.87 604.03 413.75 599.7 409.41 589.6 409.41 583.14 415.87 572.27 423.12 557.04 434 542.67 443.35 542.65 443.35 542.57 443.39 522.33 437.61 510.04 435.44 504.47 439.97 504.82 440.48 498.57 444.85 484.83 444.85 464.59 446.35 455.85 446.35 443.73 448.6 440.73 449.23 425.49 454.97 409.63 455.72 408.81 455.89 408.77 455.85 406.71 456.29 406.74 456.33 399.51 457.85 396.88 459.72 391.01 463.67 390.01 464.37 387.14 475.21 389.39 485.33 386.51 495.45 375.65 496.45 370.57 495.46 370.49 495.46 351.69 497.63 343.84 505.48 343.86 505.5 343.04 506.32 341.67 517.19 343.67 522.81 345.91 529.43 333.61 536.67 330.72 535.23 326.38 542.46 323.49 549.69 316.98 556.2 305.41 556.2 299.62 561.98 290.95 571.38 290.79 571.52 290.82 571.53 284.44 577.17 269.98 582.23 240.33 582.23 235.27 588.74 224.43 588.74 215.75 591.63 199.84 593.08 185.38 593.8 172.37 590.91 160.07 586.57 153.57 598.86 157.18 612.6 161.52 624.89 158.63 636.46 142.72 643.69 128.98 648.03 118.14 648.03 105.84 652.37 94.27 661.04 82.71 667.55 74.03 676.23 56.68 679.84 51.61 693.58 51.61 703.71 42.94 716 19.8 708.05 5.34 689.97 1 674.06 7.51 666.11 19.08 648.75 29.2 638.63 38.6 628.51 48.72 619.83 63.91 612.6 76.2 603.92 81.26 592.35 74.03 573.55 74.03 559.09 84.15 556.92 91.38 565.6 99.34 572.83 108.01 575 112.35 555.47 119.58 546.07 133.32 537.4 139.83 528.72 142.72 522.21 131.15 514.26 124.51 507.61 141.26 501.78 165.16 517.71 182.81 531.72 184.11 498.48 202.95 490.33 211.77 497.56 229.86 475.68 229.97 472.11 235.67 468.45 233.74 461.77 237.5 457.01 232.01 452.52 232.77 442.73 225.34 436.32 231.04 433.48 241.81 430.55 242.89 426.07 245.9 421.22 250.53 416 260.65 403.65 264.63 405.48 271.2 398.8 279.49 404.38 290.15 404.93 295.96 401.91 317.93 374.01 319.65 368.06 324.49 362.12 331.81 366.78 334.61 361.39 348.93 345.93 350.12 342 342.9 338.62 346.02 333.31 347.32 329.02 338.49 333.95 332.78 331.48 335.47 325.72 319.97 315.94 324.06 309.27 320.94 305.06 332.89 293.82 335.26 289.34 332.03 275.63 336.23 270.69 334.18 262.65 347.75 243.92 356.25 241.36 366.26 242.27 379.4 229.58 381.23 218.8 380.26 203.45 376.6 198.98 385 188.29 364.97 182.9 Z"/>
</g>
</svg>