<?xml version="1.0"?>
<svg xmlns="http://www.w3.org/2000/svg" version="1.2" baseProfile="tiny" fill="#f9c113" width="800" height="636" viewBox="0 0 800 636" stroke-linecap="round" stroke-linejoin="round">
<g fill="#c0392b" id="id_82">
<path d="M 116.71 390.03 119.84 384.37 122.03 378.54 124.91 377.13 127.54 363.26 132.03 349.13 133.51 343.85 125.44 341.91 116.77 341.96 108.85 345.31 103.59 345.63 107.99 338.04 110.96 332.97 115.41 322.56 117.33 313.72 121.6 308.64 120.98 305.14 115.47 301.74 109.16 300.22 108.23 290.71 110.21 285.95 111.95 270.94 103.78 266.49 89.42 262.73 76.18 263.1 76.55 252.74 90.66 248.56 89.49 220.96 89.53 205.91 96.31 203.17 115.35 199.4 122.4 199.69 135.68 200.73 145.67 209.32 160.89 217.46 177.71 213.09 183.75 212.28 192.13 205.41 204.21 188.42 217.56 181.11 231.7 172.81 248.06 167.94 266.18 163.91 280.88 156.18 296.41 147.26 309.66 135.56 328.95 118.26 350.36 105.28 368.2 102.42 382.62 99.46 392.08 95.12 401.48 86.82 411.86 79.15 424.19 71.64 440.95 65.5 448.99 61.29 462.27 62.23 466.84 63.11 477.5 56.67 482.21 54.3 491.49 57.68 496.2 60.75 508.62 65.24 517.15 61.11 530.22 50.74 532.65 48.58 544.52 43.88 551.73 39.43 558.44 33.61 570 24.49 582.66 17 586.45 14.72 596.5 16.61 610.42 22.9 615.05 24.93 628.08 24.59 636.22 12.79 646.48 8.95 654.21 7.44 661.17 10.98 672.73 17.55 680.62 21.14 690.2 20.46 704.65 18.38 718.76 6.69 730.66 1.18 730.97 1 735.15 7.26 738.14 13.47 743.08 20.35 752.19 25.56 761.85 28.64 771.87 31.72 785.18 47.44 793.15 51.43 799 54.93 797.29 61.17 796.86 65.77 794.89 69.93 787.92 75.64 767.87 82.3 759.33 91.7 756.51 98.06 740.37 99.39 724.14 99.83 707.18 104.77 711.25 108.74 736.82 118.14 745.01 121.05 736.46 133.4 735.44 145.47 734.69 148.46 724.89 160.7 717.83 164.98 713.98 164.31 708.82 164.2 704.75 167.03 699.75 164.25 687.75 160.87 679.01 158.73 677.63 159.2 676.18 159.4 667.74 155.62 666.03 155.54 660.64 156.93 658.73 156.57 656.99 155.37 654.46 152.96 650.28 150.77 643.81 158.57 636.68 167.84 633.16 167.34 629.38 168.12 622.68 168.64 616.3 168.28 614.23 167.67 613.44 175.75 612.13 179.91 609.46 183.2 606.67 185.64 605.16 186.92 601.13 191.28 596.89 199.75 593.37 205.19 590.94 207.08 595.28 217.04 602.44 225.32 628.01 253.58 620.62 262.16 642.84 275.13 636.56 282.27 638.17 285.13 640.93 291.35 641.85 292.99 642.54 294.52 644.13 301.75 647.26 311.06 650.61 316.2 652.09 318.84 659.19 329.37 660.27 331.89 626.32 368.83 624.28 369.55 610.97 370.75 606.14 379.92 603.44 382.23 598.94 385.81 597.3 386.9 610.15 389.98 614.75 391.68 608.79 404.6 604.71 405.23 601.31 401.83 596.98 401.67 594.25 408.27 588.87 417.48 589.86 431.14 592.21 440.04 584.66 448.57 565.23 467.9 554.77 460.72 537.45 450.04 523.65 437.89 509.54 437.74 503.91 440.72 509.11 445.43 523.4 456.8 513.44 466.69 493.7 481.46 472.91 482.72 445.19 493.87 428.42 482.09 417.78 495.08 412.95 492.3 407.13 499.69 395.69 501.73 391.48 510.84 387.95 516.03 392.28 520.12 379.54 527.14 374.83 536.1 360.66 554.59 343.9 555.01 343.9 579.22 352.93 585.56 358.81 586.61 346.06 601.45 336.04 613.66 317.72 624.67 306.65 616.81 306.52 614.24 322.67 613.77 326.94 610.2 328.24 598.56 318.83 586.82 281.65 596.62 278.49 599.61 261.41 620.21 250.03 632.95 247.12 635 244.77 633.22 237.65 629.23 232.14 624.04 224.41 626.72 216.55 627.71 209.68 622.21 187.1 605.9 169.77 607 150.09 596.41 124.72 595.21 122 579.38 143.23 555.01 134.75 548.78 118.1 536.36 106.47 539.55 101.64 536.72 100.41 532.58 104.74 528.03 105.54 521.43 110.37 516.5 106.47 505.45 98.18 496.02 88.34 503.82 70.83 509.9 53.87 510.84 49.98 518.96 47.69 505.24 22.69 516.97 16.75 516.97 1 508.8 2.24 503.22 3.51 499.08 4.5 491.88 18.17 491.67 19.22 486.88 15.79 481.77 4.03 474 10.16 466.4 12.39 461.56 13.25 450.15 13.31 435.2 15.85 430.33 17.52 424.88 26.03 419.23 37.45 410.54 41.78 405.65 43.32 399.37 45.74 398.82 53.81 404.86 56.1 411.17 56.63 416.67 68.94 415.49 77.67 413.03 85.65 412.56 92.98 401.85 99.7 399.55 109.94 394.26 116.71 390.03 Z"/>
</g>
</svg>