<?xml version="1.0"?>
<svg xmlns="http://www.w3.org/2000/svg" version="1.2" baseProfile="tiny" fill="#f9c113" width="800" height="595" viewBox="0 0 800 595" stroke-linecap="round" stroke-linejoin="round">
<g fill="#c0392b" id="id_8">
<path d="M 133.39 222.69 136.96 215.56 140.83 208.5 147.81 198.84 148.04 190.89 153.54 179.38 155.62 173.66 150.27 169.5 150.04 164.15 155.69 162.07 155.47 158.73 155.77 136.44 156.73 124.7 167.81 124.93 181.12 113.93 192.79 107.84 209.81 93.2 227.5 78.64 245.42 76.12 269.28 76.79 278.42 70.18 283.62 69.73 298.64 66.46 308.82 60.15 314.77 58.73 314.93 58.9 322.81 57.98 326.23 55.31 328.31 45.8 332.17 40.45 346.74 40.01 349.42 43.13 351.8 43.13 354.32 40.01 357.74 40.45 367.7 40.3 371.12 35.4 382.72 35.1 384.62 27.45 389.67 20.47 396.06 18.98 403.2 16.46 407.36 9.77 415.69 7.69 426.24 5.61 430.49 1 454.18 1.3 451.18 8.77 452.54 20.05 457.48 33.97 477.46 46.31 496.21 65.83 511.25 70.62 526.08 91.01 537.75 125 555.68 163.66 555.25 185.21 555.87 196.85 561.85 202.22 565.14 202.28 565.14 202.24 568.62 202.18 581.83 193.42 596.53 193.55 602.75 197.19 614.42 204.49 622.82 198.52 632.47 201.46 642.37 207.98 644.66 205.15 649.9 202.33 654.7 203.32 658.71 210.22 669.38 217.88 672.11 228.57 676.29 228.85 680.53 226.75 695.58 226.27 703 229.17 715.37 228.89 726.32 238.05 742.23 240.13 756.11 252.31 768.93 256.14 771.51 260.72 783.54 263.99 783.82 270.16 791.23 270.75 799 272.53 797.07 279.61 787.44 285.72 779.73 282.92 772.89 278.83 769.45 279 769.3 292.07 762.52 294.28 759.49 299.74 752.91 307.78 746.44 299.41 738.19 308.73 738.17 326.26 744.51 328.68 753.43 336.14 746.93 342.2 747.03 351.03 750.19 352.23 752.02 358.65 745.29 373.1 752.17 382.09 745.85 388.29 743.62 404.45 743.95 410.32 739.94 412.74 733.06 408.65 726.49 417.6 719.98 418.57 707.86 417.53 701.81 412.55 694.93 416.04 695.86 423.21 682.63 422.39 678.69 427.97 683.67 435.99 672.74 438.14 673.86 443.49 661.29 444.31 648.66 450.1 639.44 451.37 635.87 457.98 639.88 469.49 638.77 480.49 630.15 492 629.77 498.09 625.46 499.51 622.56 508.35 622.56 517.11 628.59 526.17 624.57 532.56 615.06 532.27 612.23 537.32 614.46 539.84 614.31 549.06 597.14 559.98 577.59 555.22 572.68 559.16 572.91 565.25 575.73 571.57 573.73 576.84 567.41 582.56 557.67 583.01 554.1 577.88 548.45 578.55 543.25 582.34 528.68 586.05 517.83 594 516.26 591.47 514.26 583.9 501.25 573.65 487.2 561.31 468.47 546.16 468.09 539.25 468.84 510.28 462.97 504.19 456.35 490.07 455.38 485.69 457.91 477.29 458.58 464.59 455.98 462.44 455.76 449.14 452.34 446.02 450.25 441.93 451.44 439.93 464.3 437.92 474.64 421.35 489.65 409.17 490.77 405.68 483.63 396.02 483.56 389.19 478.28 384.06 469.28 381.39 456.5 379.01 448.02 375.44 440.66 381.31 432.19 382.43 420.82 387.25 409 389.33 400.15 395.95 390.64 402.34 386.25 401.52 380.16 400.18 374.51 400.4 367 396.32 360.46 388.15 354.96 382.05 344.99 377.37 344.98 377.36 340.16 379.77 337.26 382.6 329.68 387.65 321.8 387.5 318.26 382.6 307.97 382.78 306.78 387.46 302.65 389.8 299.2 392.63 293.4 392.92 287.01 395.11 283.36 399.53 280.09 400.2 277.23 402.43 267.64 402.25 265.56 404.74 257.42 405.66 254.89 407.52 250.73 410.12 238.21 414.91 235.45 417.62 230.4 419.22 223.78 415.28 219.03 409.82 214.38 409.49 210.37 412.02 206.5 407.78 202.71 405.07 190.33 405 188.55 407.15 171.12 406.89 170.56 405.03 159.34 404.74 156.36 407.11 151.31 407.52 146.85 412.24 143.54 412.09 138.86 407.41 123.21 407.52 120.68 404.48 123.51 399.72 123.73 394.93 126.7 392.07 126.78 385.68 128.04 381.07 124.32 379.74 116.52 367.85 94.66 348.02 91.69 345.42 91.76 338.73 88.42 336.35 81.73 330.78 69.98 318.52 66.94 318 59.5 325.21 57.2 330.26 51.55 333.23 50.51 341.33 43.74 345.56 40.1 343.26 32.59 343.26 22.48 340.59 9.33 328.11 6.58 320.16 1 313.1 12.22 305.67 14.23 297.57 19.81 287.77 25.68 288.81 31.92 285.61 68.65 285.76 68.35 276.48 66.04 271.28 86.19 249.88 86.26 239.7 111.09 231.68 117.9 231.45 117.9 231.45 119.57 227.67 121.57 223.8 133.39 222.69 Z"/>
</g>
</svg>