<?xml version="1.0"?>
<svg xmlns="http://www.w3.org/2000/svg" version="1.2" baseProfile="tiny" fill="#f9c113" width="800" height="583" viewBox="0 0 800 583" stroke-linecap="round" stroke-linejoin="round">
<g fill="#c0392b" id="id_84">
<path d="M 553.58 200.95 541.55 215.41 592.19 254.03 597.62 255.5 615.08 244 625.95 249.26 633.12 259.12 647.09 290.51 682.01 277.36 658.73 304.65 663.58 314.68 657.76 322.9 647.09 329.97 633.12 351.01 619.35 348.55 611.59 355.29 634.29 368.94 619.16 375.19 623.23 378.48 622.45 382.92 613.34 390.97 641.08 409.23 708.59 392.78 715.77 387.19 717.13 390.48 737.31 404.46 764.47 419.43 779.79 435.55 793.37 442.95 799 445.91 796.87 449.04 755.93 452.33 743.9 455.62 734.78 455.45 736.72 466.64 700.06 512.87 683.95 501.52 674.84 514.68 663.58 508.43 674.45 492.31 683.76 485.4 671.15 478.81 666.69 481.78 648.84 481.78 637.59 474.37 615.28 498.23 591.02 484.08 560.95 523.9 553.19 516.66 556.3 512.55 552.61 486.38 553.58 469.93 560.57 455.45 554.55 449.2 539.42 464.17 520.02 459.89 517.3 448.87 493.24 478.16 493.05 489.18 482.38 508.76 474.62 495.6 475.2 477.17 468.02 465.49 458.91 457.59 467.83 443.11 468.8 432.75 463.95 425.68 461.04 412.85 457.16 406.93 446.88 380.78 437.18 367.95 427.48 377 417.97 366.64 402.45 358.74 369.08 362.69 347.35 382.09 337.26 410.71 329.7 441.63 305.64 475.19 319.22 484.08 340.56 500.53 369.27 524.06 391.78 541.34 367.33 549.24 358.22 560.27 348.32 567.19 347.74 582 310.88 559.78 307.39 533.12 298.85 486.88 290.51 461.54 288.57 446.73 255.39 426.5 236.96 393.44 205.92 373.05 191.18 371.24 190.59 365.9 181.09 340.16 178.47 326.43 189.62 326.93 183.8 316.49 182.25 278.6 170.61 259.04 161.2 249.83 158.58 237.67 151.79 254.52 141.9 255.92 134.82 259.2 127.93 269.56 109.6 258.22 86.12 245.56 65.26 243.67 55.95 246.88 36.45 241.04 48.68 223.29 50.13 202.59 25.3 181.31 18.61 179.18 6.77 183.61 1 178.19 4.49 172.15 26.22 148.95 38.39 147.18 54.11 134.29 55.61 119.38 67.25 110.27 73.85 111.79 78.85 109.12 83.65 101.15 95.63 97.99 105.52 86.46 122.64 79.4 131.66 63.34 138.79 66.87 142.48 66.92 157.22 53 160.38 53.41 164.5 56.61 174.54 56.12 180.75 41.88 185.99 25.99 189.67 34.28 191.71 34.37 197.19 29.03 200.68 29.4 221.05 44.59 223.43 56.41 231.72 61.17 244.62 65.6 261.45 79.27 272.32 72.79 280.37 57.06 280.32 45.32 297.35 23.9 307.77 15.36 325.38 17.29 339.83 21.03 364.52 33.83 373.83 33.83 413.02 15.45 416.61 36.95 422.72 24.23 449.3 22.75 476.75 13.23 492.18 1 505.18 15.77 511.29 33.09 503.72 40.81 502.46 51.15 495.67 58.3 497.61 64.78 505.18 69.21 523.41 64.21 549.51 83.67 562.8 93.44 529.52 131.62 516.43 147.23 488.59 182.13 502.85 164.25 553.58 200.95 Z"/>
</g>
</svg>