<?xml version="1.0"?>
<svg xmlns="http://www.w3.org/2000/svg" version="1.2" baseProfile="tiny" fill="#f9c113" width="800" height="1115" viewBox="0 0 800 1115" stroke-linecap="round" stroke-linejoin="round">
<g fill="#c0392b" id="id_86">
<path d="M 501.8 708.91 506.25 714.36 507.43 733.04 505.21 746.16 489.22 761.62 477.04 760.51 466.68 763.63 450.18 786.43 452.67 796.22 447.56 802.23 451.49 818.92 448.6 824.37 434.06 838.06 437.86 843.18 432.88 851.3 451.75 863.21 448.47 870.23 455.42 873.23 466.16 867.22 464.59 872.45 460.79 878.91 469.57 883.03 468.13 887.82 450.7 906.63 447.29 913.2 438.38 907.52 432.49 914.76 430.39 922 403.66 955.97 396.59 959.64 383.61 958.97 373.53 952.18 365.53 960.31 360.68 958.08 348.37 973.12 342.73 979.47 339.07 985.38 337.76 990.84 324.65 994.4 317.71 997.85 326.75 1005.65 325.83 1017.58 332.51 1023.04 327.93 1028.83 330.29 1036.97 323.34 1041.43 323.21 1045.77 301.2 1072.41 290.45 1063.61 267.52 1073.53 265.95 1114 244.46 1096.94 215.38 1077.54 195 1084.65 193.04 1082.68 188.07 1077.56 169.64 1061.05 150.95 1052.13 127.4 1039.04 107.16 1031.12 93.08 1027.6 75.48 1024.08 60.52 1030.24 58.76 1046.08 35.88 1049.6 16.52 1040.8 1 1034.59 21.18 1001.1 32.26 983.1 39.87 960.94 68.25 956.78 79.33 936.01 61.33 915.93 60.64 895.85 62.71 885.47 81.4 888.93 102.86 895.16 109.01 873.72 99.57 865.33 99.56 865.33 95.87 862.08 86.25 853.62 77.94 829.38 59.25 790.61 67.56 757.37 79.33 735.21 80.71 714.44 76.13 709.13 70.73 703.52 67.56 699.21 56.49 689.52 59.95 669.44 66.39 662.99 66.41 663 75.17 654.23 91.79 654.89 103.55 647.62 119.47 640.35 125.01 629.28 132.75 626.39 144.85 614.55 164.53 594.84 167.23 573.88 165.16 555.88 168.62 530.95 168.39 519.12 167.59 495.18 171.04 475.55 174.16 456.17 166.54 429.17 174.16 402.86 186.62 376.55 197 352.31 197 328.08 201.15 310.77 204.86 307.18 202.09 298.25 200.07 286.36 201.63 282.24 208.73 275 220.04 272.91 234.9 263.4 238.66 250.48 244.75 234.14 253.13 223.4 271.75 214.72 284.35 210.22 298.37 198.77 302.03 190.74 323.39 178.65 342.15 172.38 384.29 150.53 392.99 138 395.84 130.44 401.58 113.06 423.4 110.6 444.67 107.39 463.39 104.8 484.93 102.04 502.64 87.87 519.17 80.17 525.19 67.67 544.82 40.81 560.51 34.43 568.58 28.88 584.52 10.66 587.93 7.61 608.98 11.4 611.43 9.59 614.86 21.63 616.33 25.6 622.39 37.2 629.83 42.74 641.31 42.96 658.41 39.73 678.93 33.51 693.15 26.34 700.17 28.22 711.29 26.07 731.45 12.24 742.32 5.08 752.43 1 752.39 16.93 753.63 46.15 738.7 50.57 738.3 61.53 752.32 61.14 767.52 65.12 776.17 69.83 774.33 85.71 772.24 90.75 773.22 100.82 779.9 102.43 785.73 106.02 786.39 109.73 781.87 115.1 779.84 124.46 775.12 135.47 771.98 140.85 767.32 148.87 772.89 148.54 781.28 145 790.45 144.94 799 146.99 797.43 152.58 792.68 167.53 789.89 182.21 786.85 183.71 784.52 189.88 781.21 195.86 774.04 200.35 763.2 205.94 756.09 208.38 748.33 219.71 739.87 220.21 730.64 222.81 717.6 224.06 717.04 218.24 714.62 211.57 706.07 205.17 703.51 205.75 701.88 212.4 697.29 217.58 685.2 226.77 676.2 232.76 674.43 238.52 671.74 243.67 671.68 259.49 670.76 271.57 668.4 276.7 661.91 284.74 674.36 292.97 678 298.37 676.88 303.44 662.41 303.66 661.36 311.29 660.01 315.67 658.7 321.57 648.94 319.05 637.05 317.75 630.01 323.51 618.51 337.98 618.54 345.91 613.11 356.53 605.77 360.91 594.4 351.68 585.69 348.68 580.09 345.47 578.48 337.48 564.73 327.23 562.37 326.98 558.67 330.58 557.29 330.52 554.8 324.92 551.26 335.65 547.07 345.27 540.29 345.61 537.5 343.44 535.38 343.17 525.42 352.56 522.93 352.54 518.11 350.15 512.02 360.99 500.46 365.76 493.77 373.55 485.68 375.69 482.44 381.07 479.07 382.87 474.61 381.85 466.75 388 465.73 398.07 455.12 406.78 446.9 407.97 432.22 423.64 429.87 427.72 433.76 431.38 441.76 428.39 446.28 429.83 463.05 444.2 462.07 458.18 453.81 470.17 466.98 474.11 473.27 471.95 487.35 473.22 492.43 475.96 486.47 484.49 495.77 487.49 496.03 490.04 472.06 519.91 484.77 526.35 459.09 553.56 469.96 559.11 453.32 579.77 452.8 585.99 454.24 591.99 453.19 595.88 447.56 596.66 445.07 600.32 438.78 595.77 420.3 616.77 430.26 624.88 437.2 626.43 448.21 634.43 436.55 650.11 443.36 655.11 443.76 671.78 445.59 676.45 462.1 680.67 487.65 689.34 512.02 695.9 501.8 708.91 Z"/>
</g>
</svg>