<?xml version="1.0"?>
<svg xmlns="http://www.w3.org/2000/svg" version="1.2" baseProfile="tiny" fill="#f9c113" width="800" height="2422" viewBox="0 0 800 2422" stroke-linecap="round" stroke-linejoin="round">
<g fill="#c0392b" id="id_80">
<path d="M 724.41 1539.43 762.99 1695.21 648.53 1696.3 667.82 1736.61 631.81 1795.44 723.12 1884.79 726.98 1947.99 799 1974.14 771.99 2146.32 676.82 2210.63 729.55 2355.6 693.54 2421 618.95 2411.19 549.5 2349.06 468.48 2245.51 361.74 2203 244.71 2193.19 247.28 2144.15 312.87 2013.37 270.43 2029.72 224.13 2007.92 234.42 1953.44 197.12 1924.01 208.7 1897.86 218.99 1833.58 170.12 1807.43 231.85 1702.83 82.66 1672.33 46.66 1612.41 105.81 1443.57 125.1 1450.11 155.97 1459.91 218.99 1443.57 215.13 1418.52 172.69 1386.93 73.66 1384.75 103.24 1332.47 103.24 1288.91 63.37 1286.73 62.09 1222.48 76.23 1128.82 58.23 1114.67 10.65 1117.93 14.5 977.47 32.97 949.78 56.3 992.71 241.49 892.55 241.49 984 274.93 1007.96 338.3 934.8 304.51 849 350.81 809.81 309.65 805.45 312.23 761.91 363.67 766.26 389.39 731.42 299.37 681.35 278.79 557.26 1 396.19 65.3 324.36 116.75 328.72 116.75 280.83 196.48 240.57 283.93 178.55 341.81 170.93 301.94 19.7 368.25 1 457.55 308.04 397.11 327.63 453.69 435.37 503.85 409.25 525.71 508.29 620.88 507.2 628.6 542.03 551.43 637.81 628.6 613.86 613.16 662.85 668.46 666.11 647.89 699.86 588.73 709.65 608.02 765.17 612.96 763.98 602.88 805.45 597.73 827.22 600.3 846.82 574.58 851.18 572.01 883.84 512.85 899.08 510.28 866.42 484.56 842.47 458.84 870.77 443.4 909.97 453.05 940.45 504.49 946.98 473.63 992.71 486.49 1297.62 517.35 1304.16 550.79 1371.68 599.66 1373.86 615.09 1282.37 635.67 1280.2 645.96 1362.97 633.1 1395.64 658.82 1428.32 658.82 1478.43 702.55 1478.43 707.69 1511.1 724.93 1515.4 724.41 1539.43 Z"/>
</g>
</svg>