<?xml version="1.0"?>
<svg xmlns="http://www.w3.org/2000/svg" version="1.2" baseProfile="tiny" fill="#f9c113" width="800" height="662" viewBox="0 0 800 662" stroke-linecap="round" stroke-linejoin="round">
<g fill="#c0392b" id="id_81">
<path d="M 799 287.27 761.83 306.25 756.78 302.88 748.84 311.76 700.85 307.78 690.02 323.09 690.02 343.6 691.83 346.66 687.14 352.48 683.53 360.75 674.15 363.5 667.29 362.28 638.42 371.46 639.87 376.06 630.84 380.65 632.65 391.98 636.26 400.86 652.32 402.24 657.19 415.87 665.49 421.69 664.4 426.9 676.31 432.26 667.47 445.89 663.14 443.75 658.45 448.04 644.92 444.21 636.98 448.04 634.27 453.55 640.05 470.4 649.25 469.18 651.59 475.92 646.54 478.83 645.28 486.64 619.48 481.28 619.3 465.81 609.19 461.82 606.13 456.46 599.81 456.46 596.2 450.64 590.79 451.41 589.53 456.31 595.48 475.46 590.43 478.98 591.69 487.26 598.37 492.93 614.25 498.44 604.32 502.89 594.94 504.42 583.03 518.06 582.67 532.16 560.66 523.27 550.2 528.48 553.26 536.6 551.46 547.79 524.21 567.72 524.94 572.93 530.17 570.17 531.61 574.61 541.17 577.37 546.59 591.32 546.77 623.06 548.21 642.38 544.51 660.5 537.34 661 512.28 659.64 493.17 650.08 493.22 650.02 492.09 649.45 475.16 637.93 462.97 629.8 444 627.09 420.29 640.64 363.93 650.83 348.35 636.6 346.69 630.11 346.81 630.02 342.39 612.86 338.33 602.69 311.91 605.4 299.72 621.67 278.04 635.22 277.96 635.21 277.91 635.25 248.1 632.54 214.91 623.73 190.52 624.4 171.56 613.56 158.69 601.36 157.48 576.5 157.61 576.4 157.47 573.55 157.47 562.03 155.44 550.51 150.02 538.31 140.54 533.57 129.7 524.08 118.18 520.02 107.35 508.5 122.25 488.84 142.57 473.93 157.47 455.64 158.15 433.95 149.25 432.17 149.25 432.23 137.69 429.91 118.05 420.43 109.16 417.71 109.22 417.66 105.03 416.38 104.93 416.41 93.66 412.97 82.54 410.67 82.55 410.62 74.15 408.88 61.96 398.03 51.8 384.48 25.95 365.9 24.71 364.53 24.71 364.15 27.42 341.79 40.97 321.46 53.83 301.13 49.77 261.82 48.02 257.01 47.95 256.96 47.01 254.37 65.3 233.36 61.42 231.38 61.42 231.35 32.16 216.42 32.06 216.35 29.28 222.18 10.4 202.39 10.59 202.34 1 196.09 12.52 160.17 5.06 125.61 13.19 107.99 21.32 83.59 20.73 71.67 29.96 71.67 42.1 64.74 53.26 63.88 61.03 58.69 70.57 50.02 76.63 43.09 86.17 43.09 95.7 45.69 101.77 51.76 109.57 52.62 114.77 58.69 121.71 65.63 129.51 68.23 129.55 68.18 129.64 68.21 135.71 61.27 129.64 46.53 131.36 31.9 143.37 40.48 155.51 47.42 165.18 45.66 176.45 32.65 192.05 29.18 214.58 17.91 222.38 8.37 237.06 2.33 254.32 1.46 269.92 2.33 285.52 2.33 303.72 6.67 306.56 1 341.99 20.96 341.44 26.31 349.2 29.98 349.02 36.09 344.51 37.47 342.53 44.19 353.17 50.3 382.4 86.53 365.98 86.83 358.22 93.71 346.14 93.1 346.32 106.7 335.85 96.46 321.06 102.12 312.94 94.47 304.82 96.77 299.59 102.27 298.68 116.79 313.84 131.17 314.74 143.55 326.11 130.86 330.62 134.53 325.21 142.18 329.36 144.01 327.91 150.43 328.81 160.83 334.41 164.35 331.16 170.01 334.95 172.45 322.68 188.97 325.21 192.64 338.02 198.91 341.62 198.46 379.51 215.74 383.84 221.86 398.64 225.53 400.08 231.04 410.01 229.51 412.53 234.86 419.03 238.54 423.54 234.86 430.21 230.58 434 217.88 417.4 211.76 401.35 211.3 412.35 193.41 423.54 180.1 430.57 184.69 437.61 188.21 445.91 195.24 454.57 184.54 464.49 187.29 463.95 190.65 473.33 195.55 472.61 199.53 480.01 199.07 487.41 193.87 492.64 182.55 509.6 179.64 503.65 169.55 503.83 156.55 516.64 156.7 521.51 158.38 521.15 147.37 512.85 143.25 516.46 138.05 508.7 131.47 522.59 131.17 531.07 125.36 530.17 136.06 534.86 135.14 544.24 131.01 550.01 128.87 559.4 115.72 550.74 113.28 551.28 108.39 545.68 107.32 542.98 99.21 533.6 97.53 523.67 81.48 524.57 73.53 535.76 68.49 539.19 62.38 539.19 54.28 552.9 53.36 552 62.22 563.55 60.39 566.43 47.25 573.65 38.99 584.11 57.64 606.85 58.86 612.08 60.54 620.38 51.83 631.21 51.52 631.03 57.94 637.7 58.1 643.47 54.43 651.57 53.86 653.76 61 662.06 61.31 667.08 70.56 664.49 74.45 663.95 94.17 670.63 93.71 673.15 95.7 671.17 108.84 671.35 117.86 676.94 118.17 676.94 124.29 672.79 131.63 686.69 131.93 692.64 136.36 693.18 139.88 684.34 142.18 680.01 140.8 677.3 139.88 669 163.58 674.06 172 694.99 176.28 686.33 190.96 693.18 194.63 691.74 203.66 690.11 207.33 695.35 211.46 693.9 219.11 700.4 222.17 706.35 219.87 697.15 238.23 696.79 245.11 713.21 246.49 728.18 252.46 739.55 266.99 749.29 275.72 759.76 277.09 764.73 268.06 799 287.27 Z"/>
</g>
</svg>