<?xml version="1.0"?>
<svg xmlns="http://www.w3.org/2000/svg" version="1.2" baseProfile="tiny" fill="#f9c113" width="800" height="546" viewBox="0 0 800 546" stroke-linecap="round" stroke-linejoin="round">
<g fill="#c0392b" id="id_87">
<path d="M 458.76 499.83 447.27 494.76 429.78 490.95 426.4 485.46 409.95 481.65 408.16 484.25 404.02 488.7 402.43 494.19 398.01 492.2 389.64 491.25 380.9 489.81 369.62 488.22 366.33 487.35 363.13 498.16 358.24 514.54 354.67 518.12 345.08 518.04 339.81 516.13 337.37 512.23 329.29 511.28 320.07 508.02 311.14 509.85 273.82 510.33 255.21 509.85 247.12 510.64 239.22 510.25 228.88 494.66 224.75 492.99 225.69 518.44 223.52 526.47 220.89 535.06 213.75 528.7 211.68 535.22 212.05 543.17 200.96 537.6 197.01 536.65 196.35 526.31 189.02 525.12 181.97 522.33 176.61 521.54 174.54 519.95 172.76 512.31 169.47 506.35 167.12 494.66 165.05 499.99 165.71 512.63 153.58 521.22 135.25 536.73 114.47 536.25 101.87 541.74 99.05 542.85 96.89 545 95.01 544.76 94.92 530.52 96.33 524.8 98.3 518.6 103.85 512.79 104.32 503.89 103 498.08 104.04 491.4 104.51 484.09 105.16 478.92 104.88 473.44 112.5 472.96 114.85 471.05 116.92 468.03 117.48 464.38 119.55 460.64 120.77 455.95 123.78 453.41 124.15 451.35 125.85 445.62 125.56 440.86 122.74 432.51 123.59 422.11 124.06 411.62 125.09 407.73 128.38 410.59 136.85 416.23 141.08 423.46 144.74 431 146.81 436.09 154.33 441.09 158.09 442.05 166.84 442.76 177.74 441.02 193.53 435.85 200.49 434.42 202.09 432.99 203.31 429.89 203.59 425.28 203.52 413.41 203.64 405.13 212.69 399.37 213.25 396.67 221.57 394.27 230.39 393.83 231.7 387.22 232.31 376.95 233.65 375.39 241.64 369.83 243.71 364.96 252.03 361.97 258.8 356.95 261.97 359.15 257.93 353.35 253.04 345.18 246.56 337.32 240.82 333.83 235.18 333.11 230.01 331.76 218.73 328.91 213.75 326.76 207.45 323.83 201.43 320.02 195.41 316.13 183.47 309.46 174.83 306.92 166.74 306.53 152.17 307.08 148.5 306.29 128.95 302.8 124.25 298.75 120.96 291.45 112.5 277.89 112.03 275.11 109.77 268.76 108.08 262.34 108.92 258.77 112.78 247.19 112.4 242.35 108.08 239.42 96.42 237.12 76.11 236.88 72.92 233.79 66.62 231.01 50.54 224.51 41.8 224.51 26.19 219.99 19.9 220.07 10.31 221.18 5.89 218.88 1.19 214.05 1 209.69 7.02 199.07 7.12 195.61 20.75 189.77 30.48 173.37 53.27 173.37 52.72 156.69 59.95 145.57 75.51 140.29 91.92 135.56 120.27 130.83 151.13 111.93 181.71 94.13 209.51 87.74 245.1 60.49 246.77 42.98 233.98 20.18 237.87 1 253.8 2.37 262.63 11.75 262.81 11.76 262.89 11.84 276.24 12.12 291.25 12.96 304.87 14.62 348.19 17.4 376.86 25.95 376.92 25.95 377.15 26.02 402.45 25.47 442.52 21.6 457.76 40.71 471.12 49.61 491.44 70.21 508.42 86.07 529.3 109.73 530.06 109.54 530.08 109.57 545.9 105.81 552.85 88.3 563.14 82.74 572.75 75 579.82 68.56 600.95 52.71 607.95 53.31 615.13 52.71 628.8 49.76 628.91 49.66 629.02 49.63 654 26.26 664.29 24.04 666.82 39.62 661.28 51.86 672.41 57.43 672.65 57.43 672.68 57.44 685.48 57.16 691.06 71.63 695.82 87.49 707.53 103.91 713.83 116.23 739.63 123.04 763.9 127.22 782.63 119.58 786.87 116.84 791.56 117.85 795.36 117.97 799 115.24 796.68 122.75 793.97 134.04 791.23 142.02 785.87 150.94 777.32 155.24 775.8 160.49 774.45 170.19 772.5 173.51 771.85 182.27 771.66 192.07 776.83 205.24 770.19 209.94 770.72 213.8 782.12 232.68 781.61 235.91 781.89 238.24 780.98 240.81 779.08 245.15 780.98 253.19 779.6 256.88 771.59 263.5 772.67 270.21 773.11 276.33 769.86 279.34 767.38 282.1 764.66 285.52 763.23 288.11 762.91 290.26 762.02 292.18 755.64 294.9 747.54 302.01 747.69 309.47 745.94 310.76 730.83 308.04 728.38 310.23 716.95 323.3 711.16 327.28 699.89 331.86 685.81 351.13 681.49 360.09 669.63 365.61 656.93 375.78 641.47 377.76 628.04 379.61 612.78 381.91 597.13 383.68 593.01 396.15 590.96 401.57 584.72 410.56 554.48 426.23 541.02 430.73 525.69 439.4 523.07 445.16 513.01 453.37 503.97 456.6 490.61 462.83 484.6 470.53 480.23 482.25 477.53 491.52 466.87 498.34 458.76 499.83 Z"/>
</g>
</svg>