<?xml version="1.0"?>
<svg xmlns="http://www.w3.org/2000/svg" version="1.2" baseProfile="tiny" fill="#f9c113" width="800" height="704" viewBox="0 0 800 704" stroke-linecap="round" stroke-linejoin="round">
<g fill="#c0392b" id="id_89">
<path d="M 268.93 636.96 265.99 638.83 263.94 637.99 262.02 637.94 259.38 641.43 257.33 642.01 255.39 641.02 252.43 640.06 250.74 642.24 249.77 645.32 248.86 648.24 249.96 650.98 250.06 654.44 247.93 657.13 244.72 657.16 242.54 655.58 243.95 653.67 243.26 652.66 236.73 652.23 234.49 655.11 233.37 660.79 232.08 664.94 232.18 672.74 232.4 677.14 232.61 683.05 231.99 687.43 231.15 691.58 229.71 695.41 228.77 696.2 222.94 691.75 220.24 689.8 218.86 688.77 217.47 686.92 207.65 673.36 202.81 663.38 181.15 661.5 181.14 661.56 181.11 661.56 179.25 683.21 174.07 684.32 170.66 685.03 160.07 681.35 153.88 690.01 155.73 698.67 146.45 703 135.93 699.91 122.31 691.87 116.59 683.03 116.61 683.01 115.53 681.33 131.01 659.04 126.76 647.31 121.99 644.52 110.18 637.38 83.52 619.44 52.54 603.97 55.61 590.97 53.39 582.74 51.13 573.72 41.23 550.22 41.47 548.25 42.14 543.44 42.91 536.21 43.09 534.75 31.33 524.14 26.69 512.04 31.44 503.1 32.64 500.61 33.89 485.02 33.79 484.79 33.8 484.65 29.89 475.15 29.44 474.06 23.36 464.96 21.28 461.75 17.09 455.58 18.33 446.92 1 406.1 8.43 406.1 18.33 407.95 25.76 404.24 25.76 390.63 27.61 368.98 30.71 349.81 36.9 343.01 33.8 325.07 32.57 311.46 33.18 297.85 44.94 285.48 49.9 283.62 49.28 274.96 60.42 261.36 74.65 252.08 81.46 247.75 97.55 247.13 106.84 244.66 121.07 232.28 136.55 226.72 149.54 226.72 165.64 219.29 184.82 216.2 194.73 211.87 202.15 226.72 215.77 234.76 234.34 234.76 242.38 229.19 254.14 221.77 260.95 227.34 275.19 220.53 289.42 217.44 296.23 222.39 303.43 221.35 308.61 219.29 322.85 213.73 332.13 201.98 333.99 188.99 346.98 180.33 342.03 172.29 331.51 167.34 329.65 161.15 319.13 161.77 309.85 159.91 299.94 148.78 296.23 140.12 303.66 126.51 314.18 111.05 319.75 104.86 312.94 95.58 314.8 85.07 309.85 79.5 303.04 68.37 307.37 60.33 302.42 54.76 286.95 49.81 282 44.25 285.09 33.11 286.95 23.21 289.44 16.42 290.07 14.94 291.12 15.06 291.96 16.44 292.89 16.33 294.01 14.99 294.65 14.85 295.72 13.95 296.4 13.63 297.25 14.11 298.37 15.11 300.24 15.25 302.87 14.07 302.88 12.72 302.96 11.51 304.05 11.04 303.28 10.17 303.39 8.9 305.25 6.4 304.43 5.5 304.61 4.9 305.89 5.02 306.76 4.37 306.85 2.83 307.15 1.7 308.9 1 310.47 1.57 311.09 3.02 312.99 3.38 313.86 2.38 315.1 1.25 317.29 2.09 318.84 3.73 317.63 4.44 316.21 4.43 315.08 5.34 315.48 6.1 317.27 7.13 319.13 15.17 325.94 21.36 348.84 23.21 357.51 25.07 369.88 35.59 372.98 39.3 391.55 40.53 384.74 29.4 385.36 22.6 401.45 17.65 411.97 11.46 420.02 13.94 421.26 21.36 436.11 30.02 442.3 39.92 460.87 50.43 460.25 75.17 463.96 101.77 465.46 103.58 483.15 124.66 490.58 133.32 494.29 142.59 510.38 156.82 528.33 157.44 542.57 167.96 553.17 179.38 563.92 209.51 567.81 208.65 573.23 204.98 576.92 205.58 581.63 205.96 585.67 205.99 587.94 205.65 589.79 204.76 590.46 202.82 591.87 199.63 592.36 198.83 593.97 198.36 595.51 198.86 596.56 199.49 598.49 200.63 599.33 202.92 599.71 204.93 600.19 209.65 599.18 212.06 598.4 214.11 597.11 216.54 595.74 218.7 595.24 220.42 595.39 221.59 596.32 222.42 596.9 222.66 599.04 222.72 601.3 222.39 604.29 221.34 608.12 219.86 611.27 218.57 613.21 217.7 615.32 217.86 621.17 218.88 624.27 219.85 629.99 221.36 638.47 223.68 641.78 224.83 644.59 225.3 646.58 224.88 648.48 224.21 651.32 222.19 652.53 222.97 656.33 223.05 657.85 222.67 660.11 220.98 664.84 225.11 668.81 227 673.62 226.9 677.23 226.9 684.86 228.86 691.73 231.4 694.86 232.43 698.35 238.66 700.7 243.53 703.28 246.54 706.38 248.62 708.95 251.84 711.46 256.16 712.15 258.11 707.68 260.25 705.85 261.84 708.04 264.1 709.39 267.73 708.26 271.46 708.5 276.35 710.59 280.72 710.71 287.58 710.37 289.78 711.24 292.36 711.33 297.41 712.3 299.97 714.75 302.43 716.84 304.63 716.34 310.36 715.98 314.74 716.22 316.23 719.34 319.02 719.49 320.89 720.21 321.38 725.96 320.55 726.7 321.38 728.51 322.39 731.25 326.5 731.71 329.25 732.11 331.15 734.35 333.06 736.16 333.67 735.75 334.86 734.59 336.17 735.7 338.68 734.86 341.1 736.44 342.53 738.3 345.84 739.07 347.64 739.57 349.52 739.45 350.53 736.25 351.01 736.95 353.17 739.35 354.56 741.69 354.32 743.47 353.9 743.42 355.03 745.44 356.14 749.12 354.46 751.43 354.93 754 355.25 757.75 354.36 760.69 355.65 762.18 357.98 766.27 359.73 768 361.13 767.54 362.44 769.15 364.58 774.44 367.02 774.9 368.27 777.57 370.27 783.34 368.37 784.79 371.24 786.52 371.93 786.45 372.96 784.83 379.14 786.52 382.45 790.44 381.18 793.73 380.37 796.5 380.33 797.12 381.22 796.26 383.78 794.31 384.25 792.89 385.36 793.16 391.05 793.16 392 793.85 392.97 793.83 395.03 791.16 396.53 793.76 398.59 795.56 399.6 795.87 400.79 795.44 403.09 794.89 406.18 796.69 407.78 798.52 410.85 799 414.39 798.29 415.32 773.58 428.66 736.07 451.72 733.18 462.1 734.91 484.02 737.8 493.24 735.5 506.44 754.48 520.25 754.48 520.3 754.53 520.34 755.11 535.91 740.69 542.26 741.22 550.8 752.23 560.71 751.65 572.24 756.84 580.32 766.65 591.85 763.19 608.57 765.49 621.23 775.86 623.53 775.87 623.57 775.88 623.57 779.92 637.41 771.27 645.48 769.89 654.29 752.8 652.4 736.07 650.67 726.84 648.94 723.37 661.05 703.18 670.28 681.37 671.88 680.86 670.98 676.6 668.31 666.24 660.44 658.85 652.46 652.93 644.17 645.79 636.26 636.91 623.49 628.93 624.48 619.71 620.25 609.57 612.74 604.92 606.16 603.87 598.43 604.41 592.81 606.06 591.18 610.04 591.03 617.05 592.88 618.19 592.49 611.26 580.72 610.12 575.95 607.08 569.37 601.41 564.32 597.4 563.96 601.54 560.76 602.3 558.91 603.23 558.06 603.27 557.03 599.55 556.14 592.45 552.34 591.82 551.34 594.91 549.17 595.37 547.53 591.14 545.22 591.19 544.09 593.3 540.17 593.38 537.72 591.61 536.19 585.9 535.94 582.02 533.7 581.17 531.39 579.99 529.79 571.87 531.75 568.62 533.92 564.73 535.45 560.68 534.77 555.35 531.78 550.45 526.31 547.83 526.34 541.4 529.58 539.88 528.16 539.84 524.53 541.57 523.07 542.08 522.15 544.02 519.66 544.32 518.52 541.28 517.96 538.11 516.85 536.63 515.15 537.47 509.96 539.5 505.62 540.94 504.16 542.76 501.36 542.76 499.79 532.36 496.7 525.85 492.22 522.94 488.74 518.46 491.41 512.33 493.33 525.64 502.57 530.71 507.58 530.8 511.49 529.36 517.46 530.12 518.77 532.02 521.76 534.3 523.5 534.22 524.18 530.12 531 530.08 533.06 527.84 535.94 525.22 540.49 523.53 541.67 523.99 542.98 525.22 543.66 526.28 545.83 524.92 547.68 524.16 550.52 522.73 552.09 520.19 552.02 517.82 550.95 515.88 549.1 512.5 550.66 510.81 548.32 510.55 546.61 512.67 545.19 514.61 543.48 508.86 542.13 502.52 543.77 498.89 543.27 494.75 542.91 494.83 543.69 502.44 548.74 504.38 550.02 498.81 551.8 495.59 551.45 495.85 554.29 497.54 557.06 498.13 558.49 492.38 558.99 491.54 559.63 492.97 565.67 494.41 567.81 494.5 573.14 493.48 577.05 488.92 577.62 489.68 579.97 489.68 584.88 487.31 584.95 472.77 588.58 463.65 588.01 461.79 588.65 460.86 601.67 463.14 605.8 465.25 607.72 464.91 608.93 457.48 608.22 455.87 604.38 453.93 602.6 452.07 605.59 450.29 602.45 448.35 603.74 446.83 602.74 445.56 603.38 439.22 603.74 443.95 600.82 445.14 598.54 446.4 594.56 449.45 591.21 451.31 588.08 438.37 592.71 437.19 595.27 435.67 596.05 430.51 597.69 428.15 599.61 425.19 600.53 423.92 597.83 421.89 595.91 419.1 595.91 417.75 596.26 413.19 598.26 403.13 601.32 398.99 602.24 395.52 601.96 392.73 599.39 390.53 595.34 387.91 597.26 388 600.53 380.81 605.66 377.43 605.73 378.11 609.14 377.6 615.05 376.17 619.46 373.46 624.23 372.28 625.02 364.25 625.59 360.45 625.87 361.38 628.15 361.38 652.27 360.68 654.3 361.06 661.19 356.98 662.98 355.4 662.06 353.01 662.11 350.43 663.25 345.65 663.59 341.3 664.83 340.96 661.68 338.91 658.6 337.48 658.51 337.03 660.62 335.28 662.93 333.8 664.03 332.76 662.31 330.8 659.73 328.88 661.42 323.91 662.02 319.09 663.32 317.59 664.32 310.92 665.92 303.56 666.13 300.6 666.76 297.05 667.04 294.43 665.94 294.1 662.91 292.89 660.67 288.31 660.97 286.36 660.35 283.05 655.99 277.83 652.62 277.23 651.36 279.37 648.71 279.43 647.19 277.28 644.67 276.45 641.51 274.47 638.84 273.81 636.16 268.93 636.96 Z"/>
</g>
</svg>