<?xml version="1.0"?>
<svg xmlns="http://www.w3.org/2000/svg" version="1.2" baseProfile="tiny" fill="#f9c113" width="800" height="530" viewBox="0 0 800 530" stroke-linecap="round" stroke-linejoin="round">
<g fill="#c0392b" id="id_96">
<path d="M 251.8 129.85 255.93 103.97 272.24 73.78 289 74.17 298.19 78.68 312.2 74.37 323.68 52.81 323.91 43.01 339.3 33.99 352.85 34.77 360.89 40.26 374.9 43.59 387.07 31.44 390.29 13.81 401.18 1 406.45 7.6 416.1 19.02 420.37 19.93 429.48 31.05 435.43 33.62 442.55 29.59 443.7 29.78 454.11 42.8 454.64 47.19 454.79 48.65 453.5 56.3 462.3 67 472.48 61.27 475.19 62.41 482.62 62.93 486.55 63.03 519.45 43.09 522.54 47.22 521.16 55.35 532.94 69.47 537.82 75.04 554.18 51.22 574.53 22.17 589.52 40.32 608.2 29.3 619.29 43.84 630.31 58.38 643.12 73.6 642.81 74.68 652.42 87.14 665.46 84.08 655.9 72.45 681.78 56.15 685.52 61.65 696.15 55.47 712.17 76.03 726.65 65.03 715.33 50.13 719.45 47.34 730.92 41.32 735.5 46.62 735 50 735.04 52.31 735.83 54.29 735.52 56.99 736.67 65.38 739.98 69.97 742.96 74.72 746.69 78.13 749.55 80.25 752.49 81.55 755.5 83.83 761.86 86.92 768.42 92.81 773.11 94.47 780.24 100.84 783.92 105.19 784 105.16 785.85 107.34 789.94 121.55 787.81 125.29 782.83 133.82 796.51 149.99 799 153.01 798.99 172.29 789.32 183.77 785.32 188.55 782.83 191.58 779.99 194.24 774.95 198.78 767.58 205.73 760.49 228.02 766.57 245.25 774.67 260.45 774.66 260.6 774.66 280.79 768.42 290.57 761.5 305.04 754.41 317.22 742.33 324.33 745.35 341.39 744.81 350.99 744.28 354.72 741.16 356.62 731.11 362.81 720.03 367.92 717.89 368.93 699.71 382.06 677.42 388.14 664.25 405.37 645 416.52 632.88 411.46 629.86 426.52 629.79 426.73 627.78 437.8 613.6 440.84 603.47 449.96 586.25 471.24 571.05 489.48 565.2 495.33 565.19 495.3 558.98 501.52 536.59 501.52 532.5 511.47 532.54 511.52 529.51 518.87 517.36 524.95 495.07 524.95 482.91 521.91 472.2 515.09 459.68 524.77 454.55 529 443.4 529 428.21 524.95 428.76 521.98 418.99 491.71 423.01 466.86 442.31 454.48 437.02 447.31 422.9 454.19 412.22 453.6 392.35 469.12 360.31 462.04 313.92 493.29 309.44 496.23 297.16 485.03 288.2 491.42 280.51 482.77 275.11 485.33 260.87 469.31 266.27 465.09 260.98 457.62 272.93 443.48 260.75 431.4 245.37 446.43 238.02 434.25 232.05 439.16 218.15 433.46 213.56 426.58 203.57 409.89 184.04 422.66 184.73 429.92 162.23 444.17 151.55 434.34 160.39 426 128.35 387.3 144.54 379.94 106.99 334.98 92.98 340.18 88.04 333.5 80.92 336.45 69.56 323.1 76.68 318.78 46.24 298.76 21.9 263.14 14.67 266.47 1 256.07 16.27 221.34 27.87 211.83 41.19 213.4 67.37 176.13 82.07 172.99 79.78 144.75 88.5 138.47 94.47 127.49 104.12 124.36 120.89 142.99 120.2 123.77 132.83 115.34 152.35 120.83 172.1 121.02 216.2 137.3 235.95 135.53 251.8 129.85 Z"/>
</g>
</svg>