<?xml version="1.0"?>
<svg xmlns="http://www.w3.org/2000/svg" version="1.2" baseProfile="tiny" fill="#f9c113" width="800" height="594" viewBox="0 0 800 594" stroke-linecap="round" stroke-linejoin="round">
<g fill="#c0392b" id="id_97">
<path d="M 372.93 226.69 369.21 220.67 364.38 222.91 360.25 215.59 360.66 207.79 410.15 178.62 405.46 170.12 408.77 162.8 422.56 155.71 421.73 140.36 455.92 121.24 461.16 126.2 471.08 118.65 466.39 111.09 482.66 100 490.66 107.55 502.51 101.18 510.78 104.25 520.16 96.46 530.63 106.37 540.01 109.2 528.98 82.06 535.87 83.01 567.03 96.46 592.39 96.7 599.01 91.74 607.28 91.03 617.76 86.31 643.95 92.45 675.38 87.49 692.75 70.27 691.1 60.36 709.57 75.22 716.74 70.27 710.95 66.02 712.32 56.11 725.01 50.45 725.83 40.07 721.94 28.59 749.79 9.84 769.02 14.09 780.94 4.77 787.35 5.13 795.83 1 799 5.3 787.42 12.73 785.01 27.65 790.87 45.81 790.54 47.59 775.34 60.36 760.74 79.21 752.26 93.15 751.73 98.58 751.38 101.67 751.02 105.34 757.06 111.38 757.06 111.4 757.1 111.44 755.88 122.39 746.76 127.25 729.12 141.24 719.4 150.36 719.24 150.62 718.35 152.23 713.31 160.7 711.49 172.86 706.63 173.47 705 180.77 704.91 183.9 709.71 191.69 708.05 194.57 704.19 201.44 703.58 210.56 708.09 221.83 707.58 222.15 712.22 235.56 713.77 245.36 702.94 252.07 686.95 248.97 680.76 245.36 664.26 257.74 652.4 262.9 640.02 261.35 629.7 259.29 606.49 274.25 597.21 280.95 593.6 294.88 580.19 300.04 572.97 313.45 558.01 314.48 542.54 318.6 536.35 330.98 526.04 340.78 513.66 345.94 506.44 338.2 510.05 332.53 498.7 326.86 490.45 327.37 487.87 337.69 493.03 349.55 474.46 352.13 471.37 367.6 479.62 375.34 483.23 387.72 479.1 406.29 469.3 418.15 463.11 412.48 459.5 404.22 459.5 393.39 452.28 386.17 440.42 387.2 429.59 383.59 423.92 390.3 427.01 401.64 434.23 416.09 434.23 424.34 423.92 432.59 414.12 441.88 406.9 449.61 398.65 448.06 391.43 443.94 385.75 455.8 376.47 463.54 365.12 459.41 357.39 455.29 350.17 450.13 333.66 458.38 329.02 467.66 329.02 481.08 315.61 480.04 305.81 483.65 301.17 487.26 287.24 487.26 277.96 485.2 275.9 498.61 265.58 494.49 259.91 490.36 246.5 502.74 237.22 504.28 227.93 503.25 223.29 514.09 222.77 522.34 214.01 521.82 205.24 519.24 200.08 531.11 212.46 537.3 219.68 544.52 212.46 554.83 211.94 567.21 206.79 570.31 198.53 574.43 198.53 588.36 190.28 593 177.39 590.94 166.56 584.75 154.18 578.04 141.28 572.37 124.27 580.11 114.98 587.84 102.6 577.01 97.45 571.34 86.1 582.68 68.05 587.33 56.19 587.84 52.06 573.4 60.83 564.12 73.21 556.38 81.97 550.71 102.6 549.16 113.44 545.03 112.4 534.2 107.25 521.31 91.26 514.6 76.82 514.6 62.38 509.44 51.54 520.27 39.68 525.43 9.25 523.37 2.03 506.86 1 496.55 8.22 487.78 14.93 479.01 7.19 472.82 19.57 466.63 25.24 463.54 32.98 466.63 36.07 459.93 40.71 456.32 32.98 441.36 34.01 433.11 39.17 426.4 40.71 419.7 30.55 409.03 57.8 392.95 54.21 387.74 53.8 370.7 64.69 364.55 68.69 350 92.95 336.63 99.57 339 114.73 331.19 119.28 335.21 133.75 335.45 133.75 348.46 153.47 362.3 143.82 380.29 150.44 388.93 166.01 379.34 163.26 370.94 175.52 364.67 178.83 369.05 187.93 365.14 193.31 364.91 199.1 366.68 203.65 354.38 198.13 347.87 204.2 343.49 203.51 329.42 208.75 325.04 210.26 319.13 216.19 316.53 220.33 302.81 227.63 300.92 229.56 290.99 238.39 290.04 243.07 279.64 255.62 273.97 265.68 277.63 274.09 291.34 290.22 287.09 282.64 280.23 288.29 275.15 294.49 266.87 289.25 262.97 304.42 253.99 300.56 249.15 297.11 249.97 284.84 231.66 316.41 213.58 319.17 233.9 323.44 231.89 331.57 243.12 343.15 244.77 372.93 226.69 Z"/>
</g>
</svg>