<?xml version="1.0"?>
<svg xmlns="http://www.w3.org/2000/svg" version="1.2" baseProfile="tiny" fill="#f9c113" width="800" height="618" viewBox="0 0 800 618" stroke-linecap="round" stroke-linejoin="round">
<g fill="#c0392b" id="id_94">
<path d="M 413.93 219.69 418.53 213.98 421.3 208.67 427.02 191.94 436.85 192.53 437.5 190.17 445.47 189.62 451.62 186.34 454.44 181.55 457.38 183.43 469.95 172.34 476.36 167.85 482.29 175.07 484.33 174.63 486.11 171.35 497.2 161.92 487.49 154.95 487.28 147.48 498.02 133.3 496.94 124.97 503.04 123.65 519.07 122.03 530.9 123.87 533.93 125.3 548.32 125.6 555.72 127.62 567.46 133.66 577.51 135.84 581.2 132.04 583.75 130.53 586.57 123.17 591.42 114.92 589.43 106.86 587.09 102.22 586.65 98.42 590.86 91.98 595.62 88.33 600 82.59 601.6 79.06 604.33 78.32 598.96 74.57 596.49 69.71 596.7 66.95 606.36 61.94 615.46 59.7 625.82 58.77 625.77 55.35 631.53 46.92 632.23 43.68 635.09 41.37 623.39 32.13 616.37 27.46 608.75 17.59 603.72 7.25 609.31 8.91 609.44 4.24 629.84 3.02 635.95 1 643.71 2.8 644.27 9.43 648.08 13.66 659.17 15.46 663.98 18.11 666.71 15.2 667.01 9.57 669.79 9.76 679.1 19.25 689.24 19.99 692.75 14.06 703.44 19.13 703.44 27.92 703.56 27.94 703.56 40.12 702.75 50.18 702.75 59.56 709.72 62.64 717.5 66.53 727.55 68.81 740.96 80.21 743.91 82.76 745.38 88.92 761.74 88.92 767.9 96.03 774.87 106.09 775.41 109.04 777.15 118.42 781.01 122.03 787.23 127.78 792.35 132.9 799 139.47 792.7 151.14 775.68 158.11 760.93 175.14 743.1 194.58 718.57 212.95 687.21 236.41 686.3 237.9 680.23 246.74 672.46 258.13 657.71 282.94 654.1 289.38 642.84 309.49 641.5 311.77 625.14 341.94 602.62 353.73 596.46 373.85 581.71 397.04 579.3 398.92 561.2 415.28 553.83 421.98 539.96 424.66 534.33 425.79 518.04 439.01 504.1 438.21 487.07 448.66 473.8 456.84 468.44 458.32 468.4 458.29 458.34 461.01 458.34 461.05 445.12 464.62 425.68 472.4 400.48 493.85 394.71 498.81 366.83 516.64 345.12 527.5 333.46 545.34 319.51 559.28 303.56 594.41 295.29 612.81 294.33 612.23 279.42 603.14 262.09 593.15 246.93 589.05 240.95 595.93 237.44 596.44 235.06 593.78 231.34 595.82 229.82 598.29 222.15 598.4 209.55 591.86 203.48 590.97 198.33 589.31 195.94 586.69 192 588.83 190.62 587.42 183.9 588.5 182.12 575.71 185.55 572.94 176.97 566.14 177.32 572.71 167.53 584.65 162.54 589.2 139.58 596.81 131.01 603.65 127.37 608.02 114.15 617 106.27 610.68 105.71 607.76 112.94 600.88 123.9 595.63 124.9 593.19 123.64 579.81 126.89 570.35 130.4 565.54 134.77 563.4 130.79 556.86 124.38 550.36 134.12 534.58 136.42 532.06 148.72 526.56 152.93 522.5 159.81 519.1 182.3 508.09 203.65 498.48 212.45 494.24 209.81 490.65 199.02 493.87 190.75 491.69 185.89 487.03 180.04 488.44 166.18 477.62 161.29 476.73 159.21 481.12 161.89 484.23 164.71 491.06 167.4 493.35 170.56 498.3 169.78 499.81 158.21 490.87 150.5 489.84 138.76 483.19 128.62 486.52 140.93 497.45 137.16 501.25 121.78 503.29 109.78 505.47 98.26 511.97 87.77 515.29 83.09 518.28 75.82 518.32 70.53 522.24 58.23 521.79 54.07 522.87 48.57 518.91 54.8 516.33 62.47 514.89 62.86 510.86 67.28 506.35 75.64 499.78 80.23 499.89 80.45 497.04 83.05 492.39 79.97 491.5 76.68 489.03 74.08 492.35 71.83 494.46 50.56 495.01 40.6 485.81 33.92 482.38 23.66 480.61 23.22 476.29 18.85 470.89 12.83 463.07 18.11 457.78 28.29 451.99 39.12 447.56 49.78 446.38 49 442.57 59.74 445.01 62.82 447.22 70.92 446.08 68.23 439.14 67.02 431.31 73.87 435.3 82.31 430.09 92.49 430.06 99.25 426.81 103.45 427.03 105.23 437.26 109.52 441.58 119.05 442.13 134.08 445.86 137.16 450.07 148.59 456.94 155.31 458.63 162.07 460.74 177.71 461.44 185.16 456.12 182.99 447.82 190.83 445.53 194.77 441.32 176.84 431.42 167.01 429.36 162.02 422.64 153.97 410.12 144.96 405.58 137.72 395.06 128.67 383.62 118.36 382.81 106.53 378.64 88.29 371.89 76.12 364.77 66.28 368.46 69.88 371.3 68.75 374.36 68.62 377.39 66.15 379.97 59.74 383.81 56.23 386.94 54.98 397.65 53.85 398.61 51.47 397.61 48.52 401.97 44.36 399.97 36.83 402.22 37.78 406.51 38.39 412.19 33.49 412.85 31.11 410.6 22.31 403.92 14.73 399.82 14.6 396.65 12.61 392.26 16.29 388.46 16.64 386.83 13.87 382 5.03 376.8 1.69 372.15 1 361.45 4.73 361.33 6.07 360.01 8.58 353.96 8.02 349.56 9.06 347.87 9.1 345.36 8.8 336.54 11.27 335.21 9.36 329.13 13.95 328.43 19.76 325 21.32 322.34 21.36 318.14 29.98 317.51 35.87 315.66 41.03 308.58 44.1 310.65 47.35 306.85 54.67 310.72 63.43 321.05 75.73 333.66 82.31 332 87.08 323.74 89.98 321.97 84.78 317.36 88.12 312.86 93.01 311.39 91.06 301.1 93.1 296.97 90.98 295.38 93.45 288.89 84.91 284.83 60.48 279.89 51.99 282.03 45.27 283.14 39.9 282.66 39.47 277.05 52.99 276.24 54.72 263.67 67.28 263.56 81.66 266.65 93.64 270.01 96.37 270.69 102.85 268.81 108.44 270.66 112.33 269.18 117.45 270.82 124.05 270.82 130.96 274.45 137.33 276 153.88 275.23 175.04 276.94 210.76 277.05 228.52 273.59 231.29 277.94 233.07 277.79 236.71 275.39 244.64 274.8 266.25 274.07 270.11 272.07 276.78 271.74 283.11 268.98 296.32 265.33 299.65 261.79 303.16 260.61 304.38 264.92 308.19 264.44 313.86 262.08 318.63 262.3 323.52 263.48 330.58 263.63 334.14 264.77 335.91 263.52 334.05 258.51 349.43 258.4 357.44 253.35 363.29 252.2 373.65 247.15 377.24 242.69 382.7 242.07 397.86 234.62 413.93 219.69 Z"/>
</g>
</svg>