<?xml version="1.0"?>
<svg xmlns="http://www.w3.org/2000/svg" version="1.2" baseProfile="tiny" fill="#f9c113" width="800" height="860" viewBox="0 0 800 860" stroke-linecap="round" stroke-linejoin="round">
<g fill="#c0392b" id="id_95">
<path d="M 265.57 620.96 200.58 682.24 197 682.24 160.37 680.36 155.14 662.98 134.21 638.56 129.8 628 159.54 621.9 166.7 610.63 181.3 612.98 199.47 591.38 220.68 592.08 226.46 581.29 243.54 569.32 225.09 555.47 223.16 533.18 231.7 521.68 202.23 522.15 156.24 488.6 149.08 473.58 154.03 462.56 132 451.77 112.17 435.35 92.35 440.27 82.43 436.52 91.79 454.82 92.07 475.93 74.17 475.22 59.85 450.12 56.82 426.43 63.15 409.08 50.48 380.71 56.82 366.4 41.4 342.96 36.44 340.61 28.45 345.07 6.7 308.97 1 305.56 24.23 262.73 26.36 259.11 44.25 227.16 50.01 216.94 73.44 177.54 85.8 159.44 95.43 145.39 96.88 143.04 146.73 105.77 185.71 76.59 214.05 45.71 237.48 18.66 264.54 7.59 268.1 1 284.95 17.08 305.11 43.44 320.62 48.09 354.74 38.02 375.68 36.46 400.49 39.56 413.58 41.66 415.95 44.16 430.51 43.54 431.04 44.21 441.78 43.47 448.59 46.93 460.71 44.79 474.51 54.77 453.16 61.73 440.96 70.05 436.29 74.01 426.37 84.66 416.55 85.55 410.42 86.25 388.11 87.81 388.57 94.06 396.89 100.51 397.85 106.73 398.67 112.95 406.99 124.3 416.36 137.67 430.49 136.51 445.57 128.66 490.46 125.43 498.79 131.11 514.41 136.59 516.88 168.47 517.15 177.53 534.11 177.38 528.81 186.55 526.11 192.85 520.9 196.62 519.62 210.62 517.65 233.57 548.37 236.06 556.06 235.84 562.59 238.64 594.69 250.12 621.06 260.43 638.02 277.19 644.42 284.27 650.55 279.88 668.29 276.88 673 273.3 701.48 307.03 703.26 307.53 704.63 309.67 747.38 279.6 757.29 289.42 759.53 294.6 753.96 318.91 749.98 339.96 748.84 346.97 747.48 370.72 746.56 381.18 746.29 386.28 743.77 391.42 746.29 394.77 746.15 397.96 769.74 423.07 779.07 433.03 750.45 453.67 734.54 464.88 727.73 469.86 720.32 481.97 724.85 487.97 740.07 489.33 772.62 492.06 779.66 493.03 786.06 496.54 776.37 500.01 774.81 503.43 763.61 511.65 774.04 517.65 770.93 531.09 772.48 544.25 774.08 558.7 787.2 567.55 793.74 580.48 799 585.04 796.3 586.57 789.81 593.44 784.6 596.6 759.45 604.94 750.95 614.49 741.17 624.93 748.39 633.04 761.27 649.13 748.21 664.48 744.35 685.61 729.75 700.18 712.95 696.18 703.32 689.61 687.07 688.67 668.62 699.47 668.34 711.21 654.57 737.05 637.77 742.22 626.76 736.82 606.65 736.35 587.1 772.52 582.14 803.54 563.14 810.35 539.45 812.47 486.58 792.96 462.89 792.73 439.48 786.15 424.34 796.25 425.16 819.28 405.06 796.96 393.49 800.72 386.33 813.88 375.87 821.4 378.62 855.24 361 859 308.12 819.28 297.38 828.68 287.19 812.23 257.17 799.07 254.3 798.59 252.21 752.55 280.86 678.34 280.86 657.2 288.57 642.17 290.36 631.05 265.57 620.96 Z"/>
</g>
</svg>