<?xml version="1.0"?>
<svg xmlns="http://www.w3.org/2000/svg" version="1.2" baseProfile="tiny" fill="#f9c113" width="800" height="470" viewBox="0 0 800 470" stroke-linecap="round" stroke-linejoin="round">
<g fill="#c0392b" id="id_98">
<path d="M 413.25 265.12 417.62 272.84 422.71 270.48 426.64 276.83 395.22 295.88 383 294.14 374.42 282.31 369.91 284.42 367 263.01 333.69 282.06 346.64 301.36 350.27 300.49 354.34 305.6 338.34 315.06 343.87 319.18 337.33 327.9 331.36 333.25 339.36 340.48 322.34 344.97 313.47 330.51 302.85 326.65 289.62 332.63 284.67 343.6 275.36 344.59 273.33 355.06 265.62 357.05 261.25 371.51 255 374.25 253.4 380.48 247.87 385.1 248.6 399.93 242.2 404.54 248.02 411.4 243.22 424.37 237.11 422.5 231.43 422.75 221.83 426.86 218.34 422.25 205.4 428.86 208.31 437.71 191.87 447.82 184.89 438.71 195.07 419.76 174.27 405.17 174.27 391.45 159 391.21 154.2 386.97 138.2 395.19 131.22 392.7 105.62 406.79 101.4 422.13 89.91 428.61 90.34 446.57 94.13 452.06 65.38 469 65.22 468.83 63.04 467.9 62.99 467.95 54.76 464.36 53.79 463.94 43.99 455.78 33.11 451.44 24.4 450.89 12.43 450.35 2.63 436.76 1 422.08 10.8 410.66 24.4 397.07 33.7 385.34 34.88 383.89 38.01 368.8 50.52 367.17 63.04 360.65 70.98 358.93 72.03 358.71 72.5 358.6 75.55 357.93 75.61 357.83 75.67 357.82 81.03 348.15 80.34 340.32 79.93 332.23 92.98 319.88 93.86 319.23 94.07 319.46 104.03 312 104.58 300.04 105.12 287.53 108.39 275.03 110.56 269.6 130.7 259.81 130.53 259.38 130.54 259.37 130.34 258.48 126.28 248.59 124.92 243.96 123.08 237.52 126.89 228.82 132.81 220.23 132.81 220.08 117.64 210.34 99.14 198.92 84.44 211.43 72.47 217.41 51.25 205.45 41.45 197.29 53.97 191.86 69.21 189.14 79.55 179.9 86.08 161.41 85.53 150 82.81 136.41 91.52 121.73 116.02 114.63 122.63 105.12 142.85 123.21 151.07 123.58 167.8 135.58 189.4 114.38 229.11 109.78 238.13 99.71 247.07 99.9 250.78 103.19 270.49 103.81 274.27 98.22 296.89 98.34 302.93 105.49 315.29 109.97 332.38 106.49 339.36 108.97 349.18 114.88 360.24 132.04 391.36 136.02 399.51 130.05 401.84 110.65 392.24 97.47 400.38 93 406.49 96.48 418.42 87.78 419.44 87.15 436.74 104.43 441.91 101.39 447.44 105.31 458.2 96.98 457.11 93.74 467.8 85.85 477.91 96.85 509.84 85.79 501.84 74.97 502.13 57.82 533.84 58.44 531.22 51.48 549.33 40.55 554.05 30.92 588.6 32.16 585.18 21.04 600.67 18.56 609.62 10.8 619.73 4.34 631.44 17.94 677.36 1 697.65 25.47 692.05 30.75 698.82 36.96 713.07 27.95 712.64 23.36 725 15.28 731.33 25.84 734.24 30.19 743.04 33.79 746.82 30.69 751.47 38.39 761.22 28.89 768.93 36.53 761.36 45.47 764.71 50.2 761.29 52.87 770.31 63 773.73 61.38 778.6 66.85 784.27 62.81 792.05 69.89 794.89 68.03 799 80.13 798.13 91.07 784.75 97.04 783.29 107.48 789.4 111.96 781.84 117.18 762.35 101.51 764.09 111.96 745.76 130.11 712.6 135.33 684.96 128.87 673.91 133.84 665.18 134.59 658.2 139.81 631.44 139.56 598.56 125.39 591.29 124.39 602.93 153 593.04 150.01 581.98 139.56 572.09 147.77 563.36 144.54 550.85 151.25 542.42 143.29 525.25 154.99 530.2 162.95 519.73 170.91 514.2 165.68 478.13 185.84 479 202.01 464.45 209.48 460.96 217.2 465.91 226.16 413.69 256.91 413.25 265.12 Z"/>
</g>
</svg>