<?xml version="1.0"?>
<svg xmlns="http://www.w3.org/2000/svg" version="1.2" baseProfile="tiny" fill="#f9c113" width="800" height="591" viewBox="0 0 800 591" stroke-linecap="round" stroke-linejoin="round">
<g fill="#c0392b" id="id_91">
<path d="M 183.05 147.08 184.8 141.25 186.64 135.84 188.82 129.65 193.83 115.32 201.54 91.61 198.57 73.83 202.27 58.52 207.47 40.03 227.65 42.41 242.5 35.3 244.68 32.38 257.31 15.73 258.9 11.65 268.85 14.26 279.21 21.77 284.89 25.87 299.75 31.7 305.91 28.63 309.22 15.37 314.76 9.29 328.03 14.26 342.41 20.9 360.11 24.77 373.94 31.4 391.64 35.27 395.03 28.85 399.47 19.63 400.49 17.58 409.13 12.73 412.56 12.62 427.04 12.66 429.39 12.69 457.46 13.71 479.04 18.68 492.87 19.53 494.79 19.63 506.14 20.34 524.95 16.47 532.14 4.87 553.71 1 587.45 4.31 628.93 19.79 650.51 27.53 687.01 23.66 731.26 19.24 754.49 20.34 755.15 17.4 761.01 22.2 771.79 26.57 774.63 27.7 780.13 32.42 785.63 44.99 799 55.2 798.22 63.79 795.88 84.24 794.28 98.41 792.71 107.84 792.96 110.72 794.04 130.62 790.1 131.41 789.32 145.55 785.39 157.33 775.17 165.98 768.54 168.48 757.87 172.26 753.85 179.79 751.82 183.61 749.11 189 743.73 199.85 744.46 205.71 746.92 213.79 748.34 218.33 747.65 228.83 740.57 235.11 735.07 248.47 724.06 259.47 721.44 270.57 720.15 275.93 704.42 286.14 685.57 290.09 672.99 298.7 664.32 308.16 663.57 318.33 675 323.95 700.47 333.2 714.91 342.71 713.8 346.98 706.51 353.45 700.19 356.61 696.46 356.89 680.9 361.57 675.23 365.28 664.38 368.04 658.54 370.65 641.53 371.34 623.86 374.23 618.52 379.18 615.44 385.79 611.06 392.12 608.47 393.09 594.86 411.26 590.97 412.64 588.86 414.01 576.87 418.83 574.44 420.9 568.61 427.37 565.69 438.25 560.99 446.79 555 462.91 553.38 468.56 551.11 472.55 550.14 482.61 548.35 489.09 546.41 498.05 542.68 500.53 532.47 499.15 518.86 497.64 508.17 497.08 505.74 500.39 502.82 501.22 493.58 500.81 484.99 500.39 481.92 497.36 481.43 489.09 475.47 492.71 472.4 499.88 477.66 505.53 479.04 509.87 472.96 511.66 471.67 523.17 472.88 535.72 482.12 536.27 482.44 550.82 476.69 551.65 474.02 556.89 467.7 562.41 447.36 560.41 438.29 558.27 433.26 555.93 433.75 563.58 431.97 568.13 428.4 573.51 422.24 573.44 417.63 571.86 406.28 571.17 399.15 567.72 396.64 578.41 392.59 584.55 390.97 590 368.04 584.96 368.77 569.58 376.3 563.37 376.71 555.44 379.79 548.62 382.87 543.24 382.46 538 362.77 532.55 356.45 529.03 355.48 526.62 348.6 526 347.79 523.1 342.44 518.97 342.19 516.07 327.21 520.42 325.91 522.21 327.77 524.97 328.26 531.72 316.92 533.03 321.62 535.03 326.72 538.41 325.5 547.51 319.75 547.72 315.62 547.51 308.41 546.06 294.55 544.27 281.51 541.44 278.03 542.34 277.3 542.06 279.65 538.48 264.17 535.72 259.63 539.38 258.5 542.27 256.8 543.72 245.29 542.34 244.4 545.24 239.38 549.44 235.17 554.13 230.47 554.34 218.88 551.03 208.35 550.41 198.71 548.27 197.25 548.82 197.25 552.06 196.92 555.65 174.56 551.51 170.59 547.44 170.75 543.17 171.65 538.75 169.46 536 158.68 538.2 148.31 540.06 135.51 537.93 132.59 535.45 137.21 529.86 135.51 529.24 134.46 525.59 123.28 521.17 115.5 514.35 115.5 514.28 112.09 508.28 100.51 507.18 83.74 507.8 83.11 511.87 89.59 519.31 92.37 522.12 92.71 525.66 90.38 530.45 89.51 532.36 85.46 534.43 77.72 533.76 67.11 533.79 59.13 538.1 58.9 540.05 59.51 545.05 55.58 549.86 52.56 554.58 45.13 560.17 34.56 561.65 28.36 564.24 24.81 564.65 21.25 563.58 13.27 563.79 6.16 565.03 8.72 556.99 9.33 556.75 14.66 554.5 10.91 550.2 5.86 544.45 1 533.2 3.84 529.88 8.71 524.41 9.79 517.47 9.96 515.45 1.02 510.11 5.75 497.71 11.68 480.51 12.42 479.65 16.56 474.96 25.92 463.96 27.8 464.22 31.55 464.83 31.56 464.74 48.56 467.08 52.59 465.71 49.39 462.47 41.35 454.43 41.38 454.35 41.33 454.3 44.21 447.77 48.47 437.83 58.04 427.07 60.45 425.36 65.16 419.4 68.68 410.52 77.54 401.67 86.44 397.52 86.95 396.11 91.28 384.51 97.1 385.49 101.79 385.53 103.05 385.66 104.5 381.52 107.23 373.77 110.43 369.83 114.94 364.3 120.46 355.35 123.85 349.45 126.91 335.86 131.23 325.81 132.81 321.71 135.7 306.2 143.4 297.33 161.2 291.4 159.42 272.43 165.94 261.76 165.83 261.45 165.83 261.44 163.09 254.06 167.73 233.85 168.43 226.76 168.91 221.44 164.54 213.86 165.64 208.51 165.52 208.5 167.16 201.29 167.36 194.97 167.33 194.96 167.72 182.32 162.38 162.16 169.5 157.42 181.37 152.67 183.05 147.08 Z"/>
</g>
</svg>