<?xml version="1.0"?>
<svg xmlns="http://www.w3.org/2000/svg" version="1.2" baseProfile="tiny" fill="#f9c113" width="800" height="671" viewBox="0 0 800 671" stroke-linecap="round" stroke-linejoin="round">
<g fill="#c0392b" id="id_93">
<path d="M 783.77 102.82 780.92 107.63 772.68 107.03 765.1 99.32 762.84 99.17 762.6 103.74 760.38 106.11 756.47 103.95 747.45 102.49 744.35 99.05 743.89 93.67 737.58 92.2 732.61 93.85 716.02 94.83 715.91 98.63 711.37 97.29 715.46 105.69 721.66 113.7 727.36 117.5 736.88 125 734.55 126.89 733.99 129.52 729.3 136.37 729.34 139.15 720.92 139.9 713.52 141.72 705.66 145.79 705.48 148.03 707.49 151.98 711.86 155.03 709.64 155.63 708.34 158.5 704.78 163.17 700.9 166.13 697.49 171.36 697.84 174.44 699.74 178.21 701.36 184.77 697.42 191.47 695.13 197.45 693.05 198.68 690.05 201.76 681.88 200 672.33 195.09 666.3 193.44 654.61 193.2 652.14 192.04 642.52 190.54 629.48 191.86 624.52 192.94 625.4 199.7 616.66 211.22 616.84 217.3 624.73 222.95 615.71 230.62 614.26 233.28 612.61 233.64 607.78 227.77 602.57 231.42 592.35 240.44 589.95 238.91 587.66 242.8 582.66 245.46 576.17 245.91 575.65 247.83 567.65 247.35 563 260.94 560.74 265.26 557.01 269.9 543.94 282.03 531.6 288.08 527.16 288.59 524.24 292.21 515.82 296.31 511.06 297.24 504.54 301.35 492.04 301.44 493.55 305.51 492.11 306.53 489.22 305.6 483.47 305.48 479.49 304.52 475.62 304.34 471 306.26 467.9 306.65 466.91 303.14 464.06 304.1 461.35 306.98 450.6 309.94 445.46 312.19 440.03 312.46 436.9 314.08 419.31 314.68 412.87 315.16 409.91 317.1 408.46 317.22 406.21 313.69 391.76 316.51 362.71 316.42 345.5 315.02 332.04 315.65 326.86 314.39 321.24 311.44 315.87 311.44 311.71 310.11 308.54 311.31 303.99 309.81 298.72 311.34 296.51 310.78 286.76 308.06 275.07 305.54 264.85 305.63 263.44 315.85 252.45 316.51 252.8 321.06 257.17 321.45 262.63 320.55 269.53 318.81 289.41 322.83 296.35 326.12 294.34 331.4 296.06 332.69 294.41 336.04 295.99 344.4 292.01 345.6 289.3 349.26 293.53 353 291.17 354.44 287.29 361.16 281.94 362.5 271.93 352.25 264.81 343.86 258.86 340.72 256.21 343.8 253.71 342.12 249.52 347.88 244.73 349.38 237.72 349.89 237.68 353.3 236.41 355.46 231.69 358.25 227.96 358.82 229.51 363.76 227.5 364.84 227.75 372.01 227.71 374.05 226.87 375.42 227.32 378.99 225.28 383.91 224.19 384.99 221.16 385.08 221.72 393.77 224.43 397.55 231.62 401.78 233.88 405.71 233.59 407.03 230.6 410.11 232.22 413.68 232.33 416.26 238.49 419.59 245.64 425.02 247.58 426.85 251.56 426.31 251.07 421.69 250.3 418.21 256.43 416.38 259.81 418 262.2 414.46 264.14 415.27 265.06 414.49 266.08 405.8 268.93 403.25 274.15 400.13 276.16 398.03 276.26 395.57 277.18 393.08 274.25 390.77 282.25 387.78 292.15 393.56 306.99 399.05 316.61 402.44 324.99 403.1 332.36 412.39 338.24 420.94 345.57 424.63 352.12 434.8 356.17 440.26 364.17 441.94 378.76 449.98 375.55 453.4 369.18 455.26 370.94 462.01 364.88 466.33 352.16 465.76 346.66 464.05 341.2 462.67 331.9 457.09 329.4 453.67 317.17 450.64 309.42 450.19 305.93 446.68 304.49 438.37 301.07 438.19 295.57 440.83 287.29 440.86 280.42 445.09 274.85 441.85 275.84 448.21 278.02 453.85 271.44 454.78 268.93 452.98 260.2 451 260.83 454.09 252.16 455.05 243.35 458.65 235.07 463.36 230.78 467.65 235.67 474.01 239.23 478.39 239.58 481.9 247.94 483.34 253.36 486.13 261.46 493.6 278.76 493.15 280.6 491.44 282.71 488.74 285.39 490.75 287.89 491.47 285.78 495.26 285.6 497.57 281.87 497.48 275.07 502.82 271.47 506.48 271.15 509.75 264.92 510.92 259.84 513.02 264.32 516.24 267.7 515.37 277.71 515.73 282.01 512.54 287.93 512.51 291.73 510.08 300.26 507.38 309.63 502.1 319.39 500.33 331.9 498.68 334.96 495.59 324.96 486.7 333.2 484 342.75 489.4 349.02 490.24 358.43 497.51 359.06 496.28 356.49 492.25 354.31 490.39 352.02 484.84 349.83 482.32 351.52 478.75 355.5 479.47 366.78 488.26 371.54 487.12 375.48 490.9 382.21 492.67 390.99 490.06 393.13 492.97 385.98 496.43 368.61 504.23 350.33 513.17 344.72 515.94 341.31 519.24 331.3 523.71 329.43 525.75 321.5 538.57 326.72 543.86 329.96 549.17 326.4 550.91 323.55 554.82 320.9 562.51 321.93 573.38 321.12 575.36 312.2 579.63 306.32 585.21 306.78 587.59 313.19 592.72 323.93 585.42 326.89 581.88 333.87 576.32 352.54 570.13 356.6 566.44 364.56 556.74 364.28 551.39 371.25 556.92 368.47 559.17 369.92 569.56 375.38 568.69 376.5 569.83 379.71 568.09 381.65 570.22 385.84 571.58 390.77 572.3 401.03 577.61 407.26 577.52 408.5 575.51 411.53 573.86 413.46 576.02 416.32 575.6 421.18 570.01 433.51 573.35 447.61 581.46 459.73 588.85 460.51 589.32 459.94 590.6 448.71 597.25 442.93 600.73 436.6 618.38 431.37 626.34 425.92 634.72 422.1 651.72 427.01 663.59 399.86 664.79 380.89 657.93 365.08 656.08 358.43 656.19 351.46 655.75 343.72 655.31 336.85 653.57 326.42 658.79 319.52 670 305.69 670 297.81 669.83 292.76 663.1 287.04 664.53 285.93 664.79 278.96 663.24 274.63 662.24 266.86 661.38 255.64 652.75 254.78 646.75 254.87 646.74 254.86 646.71 250.61 638.21 249.63 635.05 249.6 635.02 249.6 633.77 239.24 626.01 228.88 624.29 217.66 620.83 211.62 614.8 206.44 607.9 205.58 596.68 205.58 584.61 206.44 572.53 201.26 561.32 190.9 554.42 171.91 554.42 159.83 559.59 153.78 567.36 147.74 569.08 139.14 569.08 129.7 557.92 122.71 545.79 116.67 538.89 109.76 532.85 107.17 525.09 95.95 515.6 89.15 511.29 81.3 511.29 79.81 510.52 64.88 502.66 58.83 490.59 58.83 481.11 52.84 478.5 44.23 478.5 36.39 479.38 34.67 474.22 27.76 471.63 27.77 471.61 27.76 471.61 28.62 465.57 31.25 458.67 31.27 458.34 32.94 448.32 32.08 437.97 19.99 429.35 13.95 419 1 403.47 1 393.98 3.48 381.59 3.67 381.1 6.4 368.24 6.18 364.66 6.18 341.51 30.18 341.51 42.8 337.1 48.37 332.18 48.34 332.17 48.48 332.05 56.05 323.86 61.1 318.81 71.2 318.81 76.88 313.14 79.4 306.83 83.19 300.53 85.71 301.79 96.45 295.47 94.49 289.69 92.74 284.79 93.94 275.31 94.66 274.6 94.64 274.58 101.49 267.74 117.89 265.84 117.97 265.84 122.4 266.71 131.88 265.84 134.39 257.01 132.43 248.19 134.93 238.73 135.81 238.12 140.93 234.68 143.22 233.04 149.54 231.72 149.5 231.69 151.31 231.3 151.34 231.34 152.05 231.19 165.9 230.54 179.2 225.53 181.82 224.98 192.39 223.02 200.02 223.02 217.68 221.71 229.68 221.71 235.13 217.9 234.82 217.45 239.68 213.51 250.41 215.4 268.08 220.44 268.14 220.4 268.16 220.41 280.7 212.24 294 202.76 303.49 196.44 309.12 190.8 317.93 190.8 321.72 194.59 331.29 199.05 332.05 193.06 332.49 188.92 340.66 187.07 345.13 178.79 352.11 175.08 367.81 168.77 370.21 165.06 377.95 156.78 386.13 152.97 393.55 151.23 402.7 148.09 407.35 147.82 415.11 149.82 424.58 150.45 440.98 161.8 454.24 168.73 464.96 164.95 456.13 149.82 461.18 135.31 470.64 130.27 480.11 117.66 494.62 111.98 503.46 113.87 510.4 122.07 512.29 132.16 517.97 140.36 525.1 146.32 526 147.3 534.4 142.29 548.35 138.48 548.65 138.44 557.73 137.84 570.98 144.77 571.02 145.06 570.81 149.81 578.55 156.13 589.67 150.14 589.82 150.03 599.37 146.66 596.22 139.1 594.33 128.38 593.06 121.44 601.27 118.92 594.96 113.87 582.97 106.31 578.55 106.94 566.56 103.15 558.36 94.32 556.22 94.24 554.35 94.14 551.08 96.32 543.88 95.55 540.45 95.33 535.64 94.96 517.34 86.13 511.03 79.19 505.98 74.78 507.87 59.01 513.97 57.61 513.93 57.68 520.33 56.23 524.34 55.25 538.16 60.9 538.16 60.89 538.21 60.91 536.9 52.71 543.21 47.03 552.05 45.14 574.76 50.18 555.83 35.68 558.36 17.39 563.41 1 577.29 6.04 579.18 16.13 583.32 18.11 593.71 23.11 597.99 21.49 605.68 18.65 617.68 18.02 634.71 27.48 651.75 34.42 663.11 40.1 672.58 47.66 684.56 52.08 692.77 50.18 695.92 53.34 719.9 54.6 744.51 54.6 747.04 61.53 747.09 61.53 747.1 61.56 755.28 61.56 761.56 62.02 771.65 62.8 772.34 63.31 781.34 71.59 791.37 77.64 791.63 78.22 791.8 77.91 796.06 87.71 799 92.72 798.83 94.8 792.47 106.94 783.77 102.82 Z"/>
</g>
</svg>