<?xml version="1.0"?>
<svg xmlns="http://www.w3.org/2000/svg" version="1.2" baseProfile="tiny" fill="#f9c113" width="800" height="649" viewBox="0 0 800 649" stroke-linecap="round" stroke-linejoin="round">
<g fill="#c0392b" id="id_90">
<path d="M 401 171.27 404.39 165.28 406.2 159.73 406.83 152.31 405.99 148.01 410.23 147.93 419.25 141.49 419.14 137.37 422.43 134.96 425.19 140.06 428.69 143.27 433.04 143.63 438.24 142.47 450.87 138.62 456.6 136.12 458.3 135.67 461.8 135.67 464.35 138.09 465.94 141.49 469.65 140.32 472.62 137.91 479.1 135.85 481.01 134.87 482.49 131.65 498.73 125.84 496.39 129.77 492.57 133.97 490.98 138.98 489.49 141.84 483.55 145.51 491.51 145.06 493.1 144.26 495.01 145.51 497.45 143.9 499.68 147.84 502.02 144.08 504.46 146.32 506.47 151.14 515.81 152.04 516.23 150.52 513.58 148.1 510.72 142.92 511.88 126.55 514.22 125.75 525.68 126.46 543.93 121.9 546.9 121.81 546.9 115.64 545.95 112.69 551.68 111.98 552.95 107.06 552.84 100.36 551.04 97.68 549.23 90.08 550.3 89.27 557.51 88.65 556.77 86.86 554.65 83.37 554.33 79.8 558.36 80.25 565.36 78.01 562.92 76.4 553.37 70.06 553.27 69.08 558.47 69.52 563.03 70.15 570.99 68.09 578.2 69.79 575.76 71.93 573.11 73.72 573.43 75.87 575.55 78.82 579.79 76.85 582.24 79.17 585.21 80.51 588.39 80.6 590.19 78.64 591.15 75.06 592.85 72.74 591.52 70.01 589.98 69.16 589.4 67.51 591.52 66.04 594.81 60.32 597.62 56.7 597.67 54.11 602.82 45.53 602.93 44.68 600.06 42.49 597.67 38.74 596.72 37.09 598.52 29.58 598.42 24.67 592.05 18.37 575.34 6.76 583.03 4.35 588.65 1 592.32 5.38 600.49 11 613.54 14.89 613.54 16.85 611.26 20.38 609.45 22.21 606.91 27.66 605.84 34.18 607.7 36.33 611.68 37.71 615.5 38.43 615.13 39.86 612.69 42.98 612.05 44.14 609.88 45.98 609.93 50.53 611.84 52.32 619.9 48.25 623.19 48.21 629.35 55.09 636.03 58.84 641.13 59.69 646.01 57.77 650.09 55.05 660.28 52.59 661.76 54.6 662.83 57.5 667.71 60.32 674.87 60.63 677.1 62.55 676.99 65.63 674.34 70.55 674.29 71.98 679.59 74.88 679.01 76.94 675.13 79.67 675.93 80.92 684.84 85.7 689.51 86.82 689.46 88.11 688.29 89.18 687.34 91.51 682.14 95.53 687.18 95.98 694.29 102.32 698.11 110.59 699.54 116.58 708.24 131.38 706.81 131.87 698 129.55 693.01 129.73 690.95 131.78 690.26 138.85 691.58 148.55 697.42 156.82 710.15 166.26 721.72 171.58 731.74 170.33 742.89 186.39 751.85 196.32 759.28 206.74 768.57 216.77 781.56 226.66 786.92 230.01 787.56 231.15 783.79 254.5 772.92 268.27 758.43 279.86 735.25 282.76 733.08 294.69 731.63 307.4 758.43 324.07 770.75 334.21 777.27 344.36 795.38 347.26 799 366.82 788.13 391.46 751.91 423.35 722.94 457.41 695.89 485.4 683.27 497.96 670.21 512 660.64 521.9 665.71 558.14 654.12 566.11 653.39 586.4 662.09 612.49 661.65 615.67 660.77 624.57 659.91 628.43 629.49 626.98 571.53 632.78 523.72 637.85 495.47 627.71 441.14 607.42 396.95 603.07 368.7 608.14 359.28 623.36 334.65 628.43 319.79 627.5 317.27 627.37 299.16 626.26 270.9 619.74 234.14 618.4 231.06 618.35 212.1 618.3 207.6 618.44 196.29 624.81 194.94 627.5 189.14 639.59 184.7 648 161.52 642.93 143.41 634.23 120.23 629.16 101.39 620.46 84 613.94 76.76 621.91 72.41 639.3 64.35 643.33 44.89 635.68 37.45 630.31 23.88 620.46 10.85 617.03 14.21 608.39 10.51 600.1 7.22 592.84 1 569.52 15.76 546.2 25.6 531.35 42.96 522.88 53.84 512 60.05 489.46 77.15 472.36 102.79 452.93 140.09 417.95 146.65 417.95 152.3 417.88 155.05 417.95 172.77 417.96 181.27 417.95 199.92 414.06 209.24 406.29 205.36 395.4 192.93 387.63 189.84 375.28 189.88 375.19 190.66 361.2 203.03 359.65 211.58 356.54 199.14 341.77 203.8 321.56 214.68 296.68 219.35 261.7 220.53 260.72 222.34 255.9 223.4 250.69 224.17 245.18 223.9 237.75 223.64 232.23 223.5 222.43 225.12 217.21 226.53 210.08 229.34 206.45 237.54 206.99 238.41 208.27 236.63 210.66 239.37 212.65 243.4 212.61 246.08 209.23 245.95 204.89 244.57 201.44 245.71 197.77 246.93 193.9 249.05 191.15 252.76 192.36 255.2 193.61 257.78 192.87 261.09 188.49 263.51 188.56 266.08 189.61 269.77 187.26 275.89 186.25 276.72 189.63 279.21 192.99 280.25 196.95 282.95 200.12 282.87 202.02 280.19 205.36 280.94 206.95 287.49 211.17 291.65 216.65 294.09 217.44 299.85 217.06 301.36 219.88 301.79 223.68 305.08 225.07 309.53 224.71 313.25 223.93 322.48 223.66 330.86 221.64 332.74 220.39 338.79 218.76 345.03 218 347.44 215.87 349.91 219.12 351.21 221.29 353.06 219.9 355.27 216.99 355.82 214.35 357.63 214.46 360.2 218.33 360.62 222.29 366.09 220.73 372.08 220.3 375.32 218.87 378.32 218.8 380.31 219.97 385.43 217.71 384.95 209.05 385.83 206.5 385.83 176.19 384.66 173.33 389.43 172.97 399.51 172.25 401 171.27 Z"/>
</g>
</svg>