<?xml version="1.0"?>
<svg xmlns="http://www.w3.org/2000/svg" version="1.2" baseProfile="tiny" fill="#f9c113" width="800" height="411" viewBox="0 0 800 411" stroke-linecap="round" stroke-linejoin="round">
<g fill="#c0392b" id="id_9">
<path d="M 628.02 1.16 637.18 4.21 656.3 8.38 659.68 15.93 653.09 19.62 654.86 30.37 648.75 37.6 639.75 54.29 638.79 75.64 661.77 93.94 662.41 101.64 660.48 107.1 664.34 114.65 678.64 127.97 694.55 133.27 710.94 134.39 722.35 128.93 729.9 127.49 741.95 131.5 758.02 137.6 774.25 138.56 779.07 154.78 787.75 162.8 799 179.5 799 184.31 790.97 186.24 777.47 189.77 775.86 198.44 773.93 210.64 758.51 218.98 753.36 214.49 741.47 207.11 726.05 204.86 719.62 194.26 695.84 193.62 690.37 197.8 683.94 193.94 672.7 189.45 660.48 189.45 636.38 200.36 633.17 210.32 627.7 214.49 611.63 226.05 606.17 235.04 599.42 241.46 590.42 247.23 591.39 256.87 596.53 266.5 590.74 273.24 583.67 271.95 589.14 263.29 585.6 259.43 583.03 249.48 582.06 239.21 559.89 219.3 543.82 205.5 524.54 202.93 511.36 193.62 501.4 193.3 501.36 193.28 493.49 194.17 480.51 195.87 470.54 207.27 454.15 219.79 452.06 229.74 444.03 236 424.91 246.75 429.41 254.78 434.07 271.31 435.35 287.53 428.92 295.87 423.62 310.48 411.89 314.97 398.88 316.1 391.32 323 374.13 324.12 368.5 327.17 365.61 339.53 350.51 342.9 333.47 365.7 332.35 380.47 299.57 379.98 280.93 386.73 255.06 402.14 248.31 410 225.65 390.42 224.52 376.61 209.26 358.31 196.88 358.15 193.35 353.18 183.55 352.7 169.73 347.72 163.14 340.82 161.05 335.36 164.75 330.06 166.51 322.52 160.89 319.63 155.75 311.44 155.1 296.35 150.12 289.45 135.82 288.17 128.11 290.09 113 301.01 81.51 302.13 72.99 291.54 62.06 281.59 54.99 279.66 48.4 281.59 39.24 284.48 29.6 284.31 23.34 278.7 22.05 265.37 24.78 259.11 25.91 248.52 19.32 243.86 15.78 230.7 18.35 225.4 14.82 214.49 19.16 201.49 5.34 190.09 1 184.31 19.48 172.75 19.64 162.96 17.23 160.07 20.44 154.62 30.57 155.1 34.91 148.03 28.32 138.72 28.32 129.25 31.37 119.78 36.18 118.34 36.03 118.18 36.35 111.76 45.67 99.56 46.96 87.68 42.46 75.48 46.32 68.1 56.28 66.81 69.78 60.71 83.27 59.75 81.99 53.97 93.88 51.72 88.42 43.05 92.59 37.28 106.74 38.24 105.77 30.53 113.16 26.68 119.59 32.14 132.77 33.1 139.52 32.14 146.59 22.51 153.98 27 158.16 24.43 157.84 18.01 173.26 21.55 177.44 29.57 188.69 30.86 202.83 42.09 208.29 41.45 224.36 46.59 234 66.81 246.22 66.81 251.36 61.35 293.78 47.23 314.67 48.83 322.06 51.4 371.88 51.72 389.23 43.38 415.27 43.05 434.55 45.3 442.58 50.12 482.44 49.8 503.97 35.99 527.75 33.42 539.64 23.47 554.75 13.2 575.96 14.16 598.46 9.67 610.67 1 628.02 1.16 Z"/>
</g>
</svg>