<?xml version="1.0"?>
<svg xmlns="http://www.w3.org/2000/svg" version="1.2" baseProfile="tiny" fill="#f9c113" width="800" height="397" viewBox="0 0 800 397" stroke-linecap="round" stroke-linejoin="round">
<g fill="#c0392b" id="id_99">
<path d="M 725.27 240.77 709.9 222.89 696.64 231.38 684.9 241.58 664.57 244.85 669.05 259.47 623.72 257.83 617.51 270.49 593.75 284.87 597.18 294.02 555.57 293.2 555.19 315.75 565.69 329.96 523.79 344.51 510.52 330.05 496.49 340.42 497.92 344.67 483.8 355.62 476.54 350.47 469.77 354.48 447.05 331.76 445.72 332.58 430.06 344.02 422.05 339.44 411.36 345.33 423.95 362.65 420.9 388.15 410.21 396 369.36 390.77 354.85 368.21 341.97 360.44 332.81 357.18 310.38 361.75 294.15 355.87 286.23 346.47 256.55 346.31 251.58 353.66 225.72 352.84 220.85 348.51 209.11 348.27 197.28 361.51 145.16 367.55 116.82 395.43 94.87 379.65 84.08 379.16 57.55 355.38 48.86 367.88 16.71 377.21 10.28 363.64 3.14 347.91 1 324.33 7.22 315 6.84 314.84 7.9 313.25 22.19 306.82 35.76 304.67 54.21 292.14 54.84 292.24 55.99 291.45 73.84 277.16 93.13 250.72 97.41 233.57 114.55 223.56 118.84 209.27 125.98 194.26 125.7 193.99 125.74 193.9 124.2 192.41 133.81 189.15 140.25 181.76 145.31 172.62 147.93 161.93 151.27 156.71 153.04 150.38 156.24 143.33 161.87 149.28 172.37 158.22 190.4 169.4 190.02 174.17 187.88 181.93 188.02 188.17 197.75 196.91 210.69 190.58 220.33 201.6 220.33 208.17 229.82 210.29 234.79 215.64 236.22 214.78 241.42 201.93 258.31 188.99 260.03 185.15 256.93 181.6 253.68 173.03 243.33 157.65 238.94 150.91 238.7 135.94 236.5 130.72 244.14 124.23 249.53 121.83 258.93 114.93 259.17 107.39 261.99 101.43 275.02 100.74 281.89 86.95 292.86 81.41 298.92 77.21 299.83 73.66 303.31 69.42 309.95 58.08 313 49.15 318.3 40.79 320.49 39.41 325.08 39.82 333.71 45.32 343.02 53.43 348.6 46.3 350.51 43.08 350.37 40.51 354.42 39.16 362.73 46.58 372.94 38.67 383.15 40.63 407.59 59.3 446.05 61.18 458.46 71.46 468.57 67.54 463.42 83.85 514.2 125.86 515.63 95.19 532.81 82.14 557.05 39.25 572.61 49.76 596.18 22.45 612.69 21.55 629.59 28.16 640.47 29.22 647.44 32.4 661.37 11.2 660.91 1 662.9 1.34 683.7 10.47 690.77 21.88 698.21 15.36 734.86 42.91 713.1 73.9 702.03 72.6 692.39 80.51 679.7 109.38 691.05 118.03 697.07 115.26 717.3 144.88 742.59 161.52 736.68 165.11 746.12 176.21 752.04 173.77 756.15 179.32 767.79 174.99 799 212.38 785.54 218.5 725.27 240.77 Z"/>
</g>
</svg>