<?xml version="1.0"?>
<svg xmlns="http://www.w3.org/2000/svg" version="1.2" baseProfile="tiny" fill="#f9c113" width="800" height="452" viewBox="0 0 800 452" stroke-linecap="round" stroke-linejoin="round">
<g fill="#c0392b" id="id_92">
<path d="M 286.01 151.35 290.23 151.2 291.12 144.52 287.38 142.05 283.93 140.58 292.25 139.62 291.89 134.66 290.52 132.64 291.47 131.33 302.46 128.14 302.64 130.26 306.56 133.3 307.15 135.42 312.2 135.88 312.91 137.65 317.55 140.22 331.98 144.22 332.27 148.06 330.02 152.01 327.76 157.01 327.46 162.83 321.94 167.38 321.41 178.67 338.21 182.36 339.4 178.36 342.37 173.86 344.21 166.02 349.44 168.55 357.75 169.05 361.14 170.22 365.65 170.27 368.26 166.32 369.57 162.98 369.21 157.37 372.89 159.09 379.55 160.66 394.45 162.12 399.08 158.08 401.04 154.23 405.26 153.63 405.02 142.96 398.25 142.55 397.36 133.35 398.31 124.91 402.77 123.59 401.76 120.41 397.9 116.26 400.15 111.01 404.52 108.35 404.88 114.42 407.13 116.64 413.43 116.94 420.2 117.25 422.34 116.64 424.12 114.21 431.96 114.62 441.93 115.73 449.42 116.74 452.15 114.92 453.57 108.35 454.88 103.6 455.59 96.22 457.26 93.29 458.44 89.15 462.84 77.33 466.28 71.07 468.42 63.09 472.7 58.34 474.48 56.82 483.27 53.29 484.81 52.28 487.66 51.27 497.64 37.94 499.54 37.24 502.75 32.59 505 27.75 508.92 24.11 521.87 21.99 534.34 21.49 538.62 19.57 546.57 17.55 550.73 14.83 562.13 11.4 564.87 11.19 569.5 8.87 574.84 4.13 575.65 1 580.06 3.9 594.76 6.63 598.5 11.97 603.43 24.04 604.84 27.53 610.6 38.48 616.37 44.24 616.94 58.64 618.67 70.74 623.86 83.99 629.62 92.06 630.83 93.39 635.39 98.4 650.04 105.73 651.41 106.32 657.86 111.65 676.88 123.18 694.66 139.8 704.07 141.17 711.46 142.19 731.63 152.56 739.7 161.2 741.43 168.69 746.04 177.34 750.65 179.07 758.72 190.59 776.99 192.07 778.44 193.25 771.81 202.49 770.62 215.63 773.6 219.81 789.74 225.49 790.04 274.78 797.51 289.41 797.8 300.17 797.51 312.12 797.8 321.38 799 330.94 799 336.31 792.43 356.63 790.04 375.15 780.48 375.45 764.34 371.56 737.15 367.38 709.96 365.89 696.22 372.16 686.95 380.82 672.31 385.31 655.28 391.88 648.71 405.92 646.62 424.74 635.6 435.45 629.81 431.09 622.92 424.97 604.16 424.97 580.8 428.03 552.23 406.43 528.73 389.75 505.38 385.54 483.55 384.01 472.07 386.31 459.43 388.22 452.92 393.96 452.92 404.68 446.03 420.38 436.46 433.77 426.89 442.2 411.58 442.95 405.16 443.24 394.63 443.71 382.47 443.73 354.52 446.02 342.65 451 331.55 446.79 320.45 433.77 319.68 417.7 317.71 404.39 317.06 401.2 314.98 390.33 312.79 386.31 306.05 389.1 300.15 392.05 299.15 391.36 289.05 383.25 284.09 375.1 280.46 369.53 279.48 367.55 278.23 366.13 276.39 364.21 260.95 344.31 258.29 341.52 256.89 339.23 256.61 337.13 256.48 332.68 255.42 315.02 246.22 318.92 244.3 319.09 237.8 317.84 229.7 314.33 223.88 316.37 222.07 316.99 218.23 318.24 210.17 319.69 205.19 314.72 201.02 312.64 198.71 310.51 187.6 308.35 185.8 308.56 183.45 308.47 177.3 308.27 172.78 308.62 164.75 307.95 160.8 307.77 154.08 308.03 138.99 308.57 129.84 308.57 120.12 308.62 115.9 309.09 106.73 310.27 102.89 310.9 100.9 311.1 99.52 311.29 85.74 313.54 84.36 313.23 78.11 310.51 79.27 302.81 83.09 296.47 82.69 288.32 75.44 287.93 65.8 291.35 63.54 292.13 57.53 298.58 53.58 301.7 44.4 306.3 29.1 311.3 14.56 308.96 1.22 304.64 1 303.22 2.09 303.33 4.1 300.33 9.32 294.67 14.8 294.33 16.28 294.25 19.32 289.92 19.31 289.91 19.32 289.89 16.09 287.47 12.39 284.67 19.75 282.5 22.8 280.76 22.8 280.74 22.85 280.71 22.97 279.27 23.53 273.5 23.39 273.5 24.1 264.67 31.06 260.76 43.67 260.76 53.67 257.72 59.33 253.8 53.24 249.46 54.54 240.33 58.89 225.98 50.2 222.06 48.02 215.11 42.8 204.67 50.15 205.99 51.21 206.18 51.95 206.31 54.98 206.85 62.37 204.67 63.68 197.72 54.11 190.33 48.02 182.06 48.02 176.41 49.33 168.15 51.43 167.99 55.01 167.74 55.32 166.66 56.15 164.05 61.36 163.13 67.21 162.98 69.82 163.77 72.42 163.46 76.97 161.57 84.72 160.48 90.16 156.38 92.38 152.92 95.26 149.39 94.81 145.72 94.97 144.3 100.82 141.13 108.6 141.11 114.28 141.6 117.25 140.09 117.88 138.68 119.59 135.17 119.34 132.58 117.3 130.52 112.55 125.06 113.01 122.07 125.31 121.62 133.8 122.43 136.29 126.83 136.29 126.88 142 131.88 150.19 135.12 150.96 137.8 152.21 138.25 148.82 142.35 150.96 144.17 160.35 145.74 167.95 144.37 175.85 142.75 177.45 144.78 176.8 148.01 176.68 151.15 179.59 154.13 195.98 157.17 196.22 154.54 196.22 152.16 197.29 151.75 204.35 153.32 212.07 153.78 220.57 156.21 224.01 156.05 227.1 152.61 230.78 149.53 231.43 147.41 239.87 148.42 241.11 147.35 241.94 145.23 245.27 142.55 256.61 144.57 254.89 147.2 255.43 147.41 257.98 146.75 267.54 148.82 277.7 150.14 282.98 151.2 286.01 151.35 Z"/>
</g>
</svg>